<?xml version="1.0" encoding="UTF-8"?>
<svg width="192px" height="191px" viewBox="0 0 192 191" version="1.1" xmlns="http://www.w3.org/2000/svg" xmlns:xlink="http://www.w3.org/1999/xlink">
    <!-- Generator: Sketch 48.2 (47327) - http://www.bohemiancoding.com/sketch -->
    <title>logo-cta-publishing</title>
    <desc>Created with Sketch.</desc>
    <defs></defs>
    <g id="CTA-Publishing" stroke="none" stroke-width="1" fill="none" fill-rule="evenodd">
        <g id="logo-cta-publishing">
            <path d="M0,0 L192,0 L192,191 L0,191 L0,0 Z M2,2 L2,132 L190,132 L190,2 L2,2 Z M58.1650379,62.3261719 C54.2913206,62.3261719 51.2920016,63.781561 49.166991,66.6923828 C47.0419804,69.6032047 45.979491,73.6594792 45.979491,78.8613281 C45.979491,89.685601 50.0412993,95.0976562 58.1650379,95.0976562 C61.5739091,95.0976562 65.702123,94.2454512 70.5498035,92.5410156 L70.5498035,101.173828 C66.5654086,102.833993 62.1162343,103.664062 57.2021472,103.664062 C50.140914,103.664062 44.7399264,101.522482 40.9990222,97.2392578 C37.2581181,92.9560333 35.3876941,86.8079828 35.3876941,78.7949219 C35.3876941,73.7480216 36.3063047,69.3265164 38.1435535,65.5302734 C39.9808023,61.7340305 42.6204243,58.8232523 46.0624988,56.7978516 C49.5045733,54.7724508 53.5387127,53.7597656 58.1650379,53.7597656 C62.8799052,53.7597656 67.616837,54.8997282 72.3759754,57.1796875 L69.0556629,65.546875 C67.2405496,64.6835894 65.414396,63.9309928 63.5771472,63.2890625 C61.7398985,62.6471322 59.9358801,62.3261719 58.1650379,62.3261719 Z M101.019205,103 L90.7262366,103 L90.7262366,63.0234375 L77.544596,63.0234375 L77.544596,54.4570312 L114.200846,54.4570312 L114.200846,63.0234375 L101.019205,63.0234375 L101.019205,103 Z M148.056967,103 L144.537435,91.4453125 L126.84017,91.4453125 L123.320638,103 L112.230795,103 L129.363607,54.2578125 L141.947592,54.2578125 L159.14681,103 L148.056967,103 Z M142.080404,82.8125 C138.826482,72.3423956 136.994794,66.4212308 136.585287,65.0488281 C136.17578,63.6764254 135.882488,62.5918009 135.705404,61.7949219 C134.974932,64.6282694 132.883156,71.6340587 129.430013,82.8125 L142.080404,82.8125 Z" id="bg" fill="#3D3D3D"></path>
            <path d="M32.9995117,159.050781 C32.9995117,160.988942 32.3647524,162.474279 31.0952148,163.506836 C29.8256772,164.539393 28.0187292,165.055664 25.6743164,165.055664 L23.7446289,165.055664 L23.7446289,172 L20.7104492,172 L20.7104492,153.439453 L26.0551758,153.439453 C28.3741978,153.439453 30.1113223,153.913407 31.2666016,154.861328 C32.4218808,155.80925 32.9995117,157.20572 32.9995117,159.050781 Z M23.7446289,162.503906 L25.3569336,162.503906 C26.914233,162.503906 28.0567997,162.233076 28.784668,161.691406 C29.5125362,161.149737 29.8764648,160.303391 29.8764648,159.152344 C29.8764648,158.085932 29.5506217,157.290367 28.8989258,156.765625 C28.2472298,156.240883 27.231615,155.978516 25.8520508,155.978516 L23.7446289,155.978516 L23.7446289,162.503906 Z M51.2553711,153.439453 L51.2553711,165.449219 C51.2553711,166.820319 50.961266,168.020014 50.3730469,169.04834 C49.7848278,170.076665 48.9342504,170.867999 47.8212891,171.422363 C46.7083278,171.976728 45.3774492,172.253906 43.8286133,172.253906 C41.5265184,172.253906 39.7364973,171.644537 38.4584961,170.425781 C37.1804949,169.207025 36.5415039,167.531261 36.5415039,165.398438 L36.5415039,153.439453 L39.5883789,153.439453 L39.5883789,165.182617 C39.5883789,166.714526 39.9438441,167.844397 40.6547852,168.572266 C41.3657262,169.300134 42.4575122,169.664062 43.9301758,169.664062 C46.7908672,169.664062 48.2211914,168.161799 48.2211914,165.157227 L48.2211914,153.439453 L51.2553711,153.439453 Z M56.003418,153.439453 L61.5131836,153.439453 C64.069186,153.439453 65.9163355,153.811845 67.0546875,154.556641 C68.1930395,155.301436 68.762207,156.477857 68.762207,158.085938 C68.762207,159.169276 68.4829129,160.070634 67.9243164,160.790039 C67.3657199,161.509444 66.5616914,161.962239 65.512207,162.148438 L65.512207,162.275391 C66.815599,162.520835 67.7740855,163.005367 68.3876953,163.729004 C69.0013052,164.45264 69.3081055,165.432285 69.3081055,166.667969 C69.3081055,168.335295 68.7262428,169.640783 67.5625,170.584473 C66.3987572,171.528162 64.780121,172 62.706543,172 L56.003418,172 L56.003418,153.439453 Z M59.0375977,161.107422 L61.9575195,161.107422 C63.2270571,161.107422 64.1538057,160.906415 64.737793,160.504395 C65.3217803,160.102374 65.6137695,159.41895 65.6137695,158.454102 C65.6137695,157.582352 65.2985058,156.951825 64.6679688,156.5625 C64.0374317,156.173175 63.0366279,155.978516 61.6655273,155.978516 L59.0375977,155.978516 L59.0375977,161.107422 Z M59.0375977,163.570312 L59.0375977,169.448242 L62.262207,169.448242 C63.5317446,169.448242 64.4902311,169.204918 65.1376953,168.718262 C65.7851595,168.231606 66.1088867,167.463547 66.1088867,166.414062 C66.1088867,165.449214 65.7788119,164.734052 65.1186523,164.268555 C64.4584928,163.803058 63.4555731,163.570312 62.1098633,163.570312 L59.0375977,163.570312 Z M73.1674805,172 L73.1674805,153.439453 L76.2016602,153.439453 L76.2016602,169.397461 L84.0600586,169.397461 L84.0600586,172 L73.1674805,172 Z M87.2592773,172 L87.2592773,153.439453 L90.293457,153.439453 L90.293457,172 L87.2592773,172 Z M105.895996,166.959961 C105.895996,168.61036 105.299322,169.905269 104.105957,170.844727 C102.912592,171.784184 101.266449,172.253906 99.1674805,172.253906 C97.0685116,172.253906 95.3504299,171.928063 94.0131836,171.276367 L94.0131836,168.407227 C94.859542,168.805015 95.7587843,169.118163 96.7109375,169.34668 C97.6630907,169.575196 98.5496378,169.689453 99.3706055,169.689453 C100.572434,169.689453 101.458982,169.46094 102.030273,169.003906 C102.601565,168.546873 102.887207,167.933272 102.887207,167.163086 C102.887207,166.469072 102.62484,165.880862 102.100098,165.398438 C101.575355,164.916013 100.492033,164.34473 98.8500977,163.68457 C97.1573809,162.99902 95.9640334,162.21615 95.2700195,161.335938 C94.5760056,160.455725 94.2290039,159.397793 94.2290039,158.162109 C94.2290039,156.613274 94.7791286,155.394536 95.8793945,154.505859 C96.9796604,153.617183 98.4565337,153.172852 100.310059,153.172852 C102.087411,153.172852 103.856274,153.562171 105.616699,154.34082 L104.651855,156.816406 C103.001457,156.122392 101.528815,155.775391 100.233887,155.775391 C99.252111,155.775391 98.5073268,155.989093 97.9995117,156.416504 C97.4916967,156.843915 97.237793,157.408851 97.237793,158.111328 C97.237793,158.593752 97.3393545,159.006346 97.5424805,159.349121 C97.7456065,159.691896 98.079913,160.015623 98.5454102,160.320312 C99.0109073,160.625002 99.8487895,161.027016 101.059082,161.526367 C102.421719,162.093427 103.420407,162.622393 104.055176,163.113281 C104.689945,163.604169 105.155435,164.158526 105.45166,164.776367 C105.747886,165.394209 105.895996,166.122066 105.895996,166.959961 Z M124.126465,172 L121.07959,172 L121.07959,163.633789 L112.522949,163.633789 L112.522949,172 L109.48877,172 L109.48877,153.439453 L112.522949,153.439453 L112.522949,161.03125 L121.07959,161.03125 L121.07959,153.439453 L124.126465,153.439453 L124.126465,172 Z M129.01416,172 L129.01416,153.439453 L132.04834,153.439453 L132.04834,172 L129.01416,172 Z M152.411621,172 L148.691895,172 L139.563965,157.209961 L139.462402,157.209961 L139.525879,158.035156 C139.644369,159.609383 139.703613,161.048171 139.703613,162.351562 L139.703613,172 L136.94873,172 L136.94873,153.439453 L140.630371,153.439453 L149.73291,168.15332 L149.809082,168.15332 C149.792155,167.958658 149.758301,167.249843 149.70752,166.026855 C149.656738,164.803868 149.631348,163.849613 149.631348,163.164062 L149.631348,153.439453 L152.411621,153.439453 L152.411621,172 Z M164.903809,161.932617 L171.733887,161.932617 L171.733887,171.250977 C170.616694,171.614911 169.54395,171.873046 168.515625,172.025391 C167.4873,172.177735 166.376471,172.253906 165.183105,172.253906 C162.373196,172.253906 160.206551,171.422372 158.683105,169.759277 C157.15966,168.096183 156.397949,165.74969 156.397949,162.719727 C156.397949,159.732081 157.25699,157.394051 158.975098,155.705566 C160.693205,154.017081 163.058741,153.172852 166.071777,153.172852 C168.009938,153.172852 169.846508,153.545244 171.581543,154.290039 L170.515137,156.816406 C169.008619,156.122392 167.502123,155.775391 165.995605,155.775391 C164.015127,155.775391 162.449387,156.397455 161.29834,157.641602 C160.147292,158.885748 159.571777,160.586903 159.571777,162.745117 C159.571777,165.013358 160.090164,166.737787 161.126953,167.918457 C162.163742,169.099127 163.655426,169.689453 165.602051,169.689453 C166.583827,169.689453 167.633295,169.566733 168.750488,169.321289 L168.750488,164.535156 L164.903809,164.535156 L164.903809,161.932617 Z" id="Combined-Shape" fill="#FFFFFF"></path>
        </g>
    </g>
</svg>