<?xml version="1.0" encoding="UTF-8"?>
<svg width="192px" height="191px" viewBox="0 0 192 191" version="1.1" xmlns="http://www.w3.org/2000/svg" xmlns:xlink="http://www.w3.org/1999/xlink">
    <!-- Generator: Sketch 48.2 (47327) - http://www.bohemiancoding.com/sketch -->
    <title>logo-spore</title>
    <desc>Created with Sketch.</desc>
    <defs></defs>
    <g id="Spore-Magazine" stroke="none" stroke-width="1" fill="none" fill-rule="evenodd">
        <g id="logo-spore">
            <path d="M0,0 L192,0 L192,191 L0,191 L0,0 Z M2,2 L2,132 L190,132 L190,2 L2,2 Z M45.3547361,92.8896484 C45.3547361,96.1767742 44.1718866,98.7665921 41.8061522,100.65918 C39.4404177,102.551767 36.1491908,103.498047 31.9323729,103.498047 C28.0475878,103.498047 24.6110987,102.767585 21.6228026,101.306641 L21.6228026,94.1347656 C24.0798461,95.2304742 26.159171,96.0024392 27.8608397,96.4506836 C29.5625083,96.898928 31.1188892,97.1230469 32.5300291,97.1230469 C34.223397,97.1230469 35.5224562,96.7993196 36.4272459,96.1518555 C37.3320356,95.5043913 37.7844236,94.5415103 37.7844236,93.2631836 C37.7844236,92.5493128 37.5852069,91.9143094 37.1867674,91.3581543 C36.7883279,90.8019992 36.2031287,90.2666041 35.4311522,89.7519531 C34.6591756,89.2373021 33.0861933,88.415533 30.712158,87.2866211 C28.4875375,86.2407174 26.8190972,85.2363329 25.7067869,84.2734375 C24.5944767,83.3105421 23.706302,82.1899478 23.0422361,80.9116211 C22.3781703,79.6332944 22.0461424,78.1391687 22.0461424,76.4291992 C22.0461424,73.20848 23.1376842,70.676767 25.3208006,68.8339844 C27.503917,66.9912017 30.5212208,66.0698242 34.3728026,66.0698242 C36.2653901,66.0698242 38.070792,66.2939431 39.7890623,66.7421875 C41.5073326,67.1904319 43.3044338,67.821285 45.1804197,68.6347656 L42.6901854,74.6362305 C40.7477928,73.8393515 39.1416077,73.2832047 37.8715819,72.9677734 C36.601556,72.6523422 35.3523009,72.4946289 34.1237791,72.4946289 C32.6628343,72.4946289 31.5422401,72.8349575 30.7619627,73.515625 C29.9816854,74.1962925 29.5915526,75.0844672 29.5915526,76.1801758 C29.5915526,76.8608432 29.7492658,77.4543432 30.0646971,77.9606934 C30.3801284,78.4670435 30.8823206,78.9567847 31.5712889,79.4299316 C32.2602572,79.9030785 33.8913444,80.7539001 36.4645994,81.9824219 C39.8679368,83.6093831 42.200433,85.2404703 43.462158,86.8757324 C44.7238831,88.5109945 45.3547361,90.5156131 45.3547361,92.8896484 Z M57.9735839,83.7255859 L60.5136229,83.7255859 C62.8876582,83.7255859 64.6640077,83.2565965 65.8427245,82.3186035 C67.0214413,81.3806105 67.6107909,80.0151457 67.6107909,78.222168 C67.6107909,76.4125886 67.1168994,75.0761762 66.1291015,74.2128906 C65.1413035,73.3496051 63.5932233,72.9179688 61.4848143,72.9179688 L57.9735839,72.9179688 L57.9735839,83.7255859 Z M75.4052245,77.9482422 C75.4052245,81.8662305 74.1808715,84.8627826 71.7321288,86.9379883 C69.2833861,89.013194 65.8012432,90.0507812 61.2855956,90.0507812 L57.9735839,90.0507812 L57.9735839,103 L50.2538573,103 L50.2538573,66.5927734 L61.8832518,66.5927734 C66.2992896,66.5927734 69.656922,67.5432034 71.9562499,69.4440918 C74.2555778,71.3449802 75.4052245,74.1796687 75.4052245,77.9482422 Z M113.623682,84.746582 C113.623682,90.7729794 112.129556,95.404769 109.14126,98.6420898 C106.152964,101.879411 101.869803,103.498047 96.2916504,103.498047 C90.7134975,103.498047 86.4303372,101.879411 83.442041,98.6420898 C80.4537448,95.404769 78.9596191,90.756378 78.9596191,84.6967773 C78.9596191,78.6371767 80.4578951,74.0095375 83.4544922,70.8137207 C86.4510892,67.6179039 90.7467005,66.0200195 96.341455,66.0200195 C101.93621,66.0200195 106.21522,67.630355 109.178613,70.8510742 C112.142007,74.0717934 113.623682,78.7035831 113.623682,84.746582 Z M87.0528808,84.746582 C87.0528808,88.8139852 87.8248458,91.8769428 89.3687988,93.9355469 C90.9127518,95.9941509 93.2203459,97.0234375 96.2916504,97.0234375 C102.450861,97.0234375 105.53042,92.9311933 105.53042,84.746582 C105.53042,76.5453692 102.467462,72.4448242 96.341455,72.4448242 C93.2701506,72.4448242 90.9542558,73.4782611 89.3937011,75.545166 C87.8331465,77.6120709 87.0528808,80.6791789 87.0528808,84.746582 Z M127.188818,82.7543945 L129.679053,82.7543945 C132.119495,82.7543945 133.920746,82.3476603 135.082861,81.5341797 C136.244977,80.7206991 136.826025,79.4423915 136.826025,77.6992188 C136.826025,75.9726476 136.232526,74.7441443 135.045508,74.0136719 C133.85849,73.2831995 132.019886,72.9179688 129.529639,72.9179688 L127.188818,72.9179688 L127.188818,82.7543945 Z M127.188818,89.0297852 L127.188818,103 L119.469092,103 L119.469092,66.5927734 L130.07749,66.5927734 C135.024781,66.5927734 138.685389,67.4933992 141.059424,69.2946777 C143.433459,71.0959563 144.620459,73.8310363 144.620459,77.5 C144.620459,79.6416123 144.031109,81.5466225 142.852393,83.2150879 C141.673676,84.8835533 140.005235,86.1909132 137.847022,87.137207 C143.325565,95.3218183 146.894865,100.609363 148.555029,103 L139.988623,103 L131.297705,89.0297852 L127.188818,89.0297852 Z M172.404834,103 L151.437061,103 L151.437061,66.5927734 L172.404834,66.5927734 L172.404834,72.9179688 L159.156787,72.9179688 L159.156787,80.9116211 L171.483447,80.9116211 L171.483447,87.2368164 L159.156787,87.2368164 L159.156787,96.625 L172.404834,96.625 L172.404834,103 Z" id="logo-spore-magazine" fill="#3D3D3D"></path>
            <path d="M31.1918945,173 L24.980957,155.114258 L24.8637695,155.114258 C25.029786,157.770521 25.112793,160.260731 25.112793,162.584961 L25.112793,173 L21.934082,173 L21.934082,151.583984 L26.8706055,151.583984 L32.8178711,168.620117 L32.9057617,168.620117 L39.0288086,151.583984 L43.9799805,151.583984 L43.9799805,173 L40.6108398,173 L40.6108398,162.40918 C40.6108398,161.344721 40.637695,159.958016 40.6914062,158.249023 C40.7451175,156.540031 40.7915037,155.504885 40.8305664,155.143555 L40.7133789,155.143555 L34.2827148,173 L31.1918945,173 Z M62.9057617,173 L60.7670898,167.052734 L52.5786133,167.052734 L50.4838867,173 L46.7924805,173 L54.8051758,151.496094 L58.6137695,151.496094 L66.6264648,173 L62.9057617,173 Z M59.8442383,164.035156 L57.8374023,158.205078 C57.6909172,157.814451 57.4882825,157.199223 57.2294922,156.359375 C56.9707018,155.519527 56.792481,154.904299 56.6948242,154.513672 C56.431151,155.71485 56.0454127,157.028313 55.5375977,158.454102 L53.6040039,164.035156 L59.8442383,164.035156 Z M77.2133789,161.383789 L85.0942383,161.383789 L85.0942383,172.135742 C83.8051693,172.555666 82.5673887,172.853515 81.3808594,173.029297 C80.19433,173.205079 78.9126045,173.292969 77.5356445,173.292969 C74.2934408,173.292969 71.7934658,172.333506 70.0356445,170.414551 C68.2778232,168.495596 67.3989258,165.788103 67.3989258,162.291992 C67.3989258,158.844709 68.3901268,156.146982 70.3725586,154.19873 C72.3549904,152.250479 75.0844553,151.276367 78.5610352,151.276367 C80.7973745,151.276367 82.9164939,151.70605 84.918457,152.56543 L83.6879883,155.480469 C81.9496983,154.679683 80.2114345,154.279297 78.4731445,154.279297 C76.1879769,154.279297 74.3813543,154.997063 73.0532227,156.432617 C71.725091,157.868171 71.0610352,159.831042 71.0610352,162.321289 C71.0610352,164.93849 71.6591737,166.928216 72.8554688,168.290527 C74.0517638,169.652839 75.772938,170.333984 78.019043,170.333984 C79.1518611,170.333984 80.3627865,170.192384 81.6518555,169.90918 L81.6518555,164.386719 L77.2133789,164.386719 L77.2133789,161.383789 Z M103.521973,173 L101.383301,167.052734 L93.1948242,167.052734 L91.1000977,173 L87.4086914,173 L95.4213867,151.496094 L99.2299805,151.496094 L107.242676,173 L103.521973,173 Z M100.460449,164.035156 L98.4536133,158.205078 C98.3071282,157.814451 98.1044935,157.199223 97.8457031,156.359375 C97.5869128,155.519527 97.4086919,154.904299 97.3110352,154.513672 C97.047362,155.71485 96.6616236,157.028313 96.1538086,158.454102 L94.2202148,164.035156 L100.460449,164.035156 Z M124.531738,173 L109.209473,173 L109.209473,170.568359 L120.005371,154.586914 L109.502441,154.586914 L109.502441,151.583984 L124.23877,151.583984 L124.23877,154.044922 L113.398926,169.99707 L124.531738,169.99707 L124.531738,173 Z M128.325684,173 L128.325684,151.583984 L131.82666,151.583984 L131.82666,173 L128.325684,173 Z M154.322754,173 L150.030762,173 L139.498535,155.93457 L139.381348,155.93457 L139.45459,156.886719 C139.591309,158.703134 139.659668,160.363274 139.659668,161.867188 L139.659668,173 L136.480957,173 L136.480957,151.583984 L140.729004,151.583984 L151.231934,168.561523 L151.319824,168.561523 C151.300293,168.336913 151.261231,167.51905 151.202637,166.10791 C151.144043,164.69677 151.114746,163.595707 151.114746,162.804688 L151.114746,151.583984 L154.322754,151.583984 L154.322754,173 Z M171.091309,173 L158.977051,173 L158.977051,151.583984 L171.091309,151.583984 L171.091309,154.542969 L162.478027,154.542969 L162.478027,160.373047 L170.549316,160.373047 L170.549316,163.302734 L162.478027,163.302734 L162.478027,170.026367 L171.091309,170.026367 L171.091309,173 Z" id="Combined-Shape" fill="#FFFFFF"></path>
        </g>
    </g>
</svg>