<?xml version="1.0" encoding="UTF-8"?>
<svg width="149px" height="179px" viewBox="0 0 149 179" version="1.1" xmlns="http://www.w3.org/2000/svg" xmlns:xlink="http://www.w3.org/1999/xlink">
    <!-- Generator: Sketch 48.2 (47327) - http://www.bohemiancoding.com/sketch -->
    <title>logo-apps4ag</title>
    <desc>Created with Sketch.</desc>
    <defs></defs>
    <g id="Apps4Ag" stroke="none" stroke-width="1" fill="none" fill-rule="evenodd">
        <g id="logo-apps4ag" transform="translate(0.000000, -12.000000)">
            <rect id="shape" fill="#FFFFFF" opacity="0" x="0" y="0" width="149" height="191"></rect>
            <rect id="shape" fill="#FFFFFF" x="0" y="132" width="149" height="59"></rect>
            <path d="M0,191 L0,12 L149,12 L149,191 L0,191 Z M2,132 L147,132 L147,14 L2,14 L2,132 Z M23.7903974,166.693894 L22.3951987,166.693894 L22.3951987,153.017625 L23.7903974,153.017625 C24.8120861,153.017625 25.761755,153.121086 26.6384106,153.327013 C27.5155629,153.532941 28.3504967,153.987573 29.1432119,154.689915 C29.8902318,155.346993 30.4509934,156.125936 30.8245033,157.026744 C31.1980132,157.92805 31.3852649,158.87462 31.3852649,159.866951 C31.3852649,160.829438 31.2059603,161.746164 30.847351,162.61663 C30.4887417,163.487096 29.9513245,164.258578 29.2350993,164.930081 C28.4418874,165.678682 27.5995033,166.163656 26.7069536,166.385003 C25.8149007,166.60635 24.8428808,166.709314 23.7903974,166.693894 Z M20.4735099,151.20805 L20.4735099,168.481086 L23.6766556,168.481086 C25.0336093,168.481086 26.2534768,168.351262 27.3362583,168.091615 C28.418543,167.831967 29.4715232,167.243532 30.4932119,166.327801 C31.4384106,165.472257 32.1432119,164.498827 32.609106,163.407013 C33.0740066,162.314703 33.306457,161.142806 33.306457,159.89033 C33.306457,158.607511 33.0779801,157.400796 32.6200331,156.270682 C32.1625828,155.140568 31.4384106,154.155697 30.4470199,153.315573 C29.4253311,152.445107 28.3733444,151.88005 27.2905629,151.620402 C26.2072848,151.360754 25.0182119,151.222972 23.7218543,151.20805 L20.4735099,151.20805 Z M39.0251821,163.578819 L46.3910762,163.578819 L48.4270033,168.480788 L50.5543212,168.480788 L42.8000166,150.383544 L34.8390894,168.480788 L36.9440563,168.480788 L39.0251821,163.578819 Z M42.7543212,154.873161 L45.636606,161.791627 L39.8034934,161.791627 L42.7543212,154.873161 Z M55.6328146,168.480987 L55.6328146,152.994645 L59.8422517,152.994645 L59.8422517,151.20795 L49.5483775,151.20795 L49.5483775,152.994645 L53.7116225,152.994645 L53.7116225,168.480987 L55.6328146,168.480987 Z M63.0209603,163.578819 L70.3868543,163.578819 L72.4227815,168.480788 L74.5500993,168.480788 L66.7957947,150.383544 L58.8348675,168.480788 L60.9398344,168.480788 L63.0209603,163.578819 Z M66.7500993,154.873161 L69.6323841,161.791627 L63.7992715,161.791627 L66.7500993,154.873161 Z M76.8832947,151.20805 L76.8832947,168.481086 L80.8861093,168.481086 C82.5942219,168.481086 84.0510099,168.111013 85.2554801,167.369874 C86.4599503,166.629231 87.0629305,165.403615 87.0629305,163.693024 C87.0629305,162.654931 86.7768377,161.719304 86.2046523,160.88664 C85.6329636,160.054475 84.8283278,159.516278 83.7917384,159.271552 C84.3708775,158.87462 84.7980298,158.390143 85.0726987,157.817127 C85.3473675,157.244609 85.4844536,156.606931 85.4844536,155.904589 C85.4844536,154.132817 84.9162417,152.911179 83.7803146,152.238682 C82.6438907,151.567179 81.2904139,151.222972 79.7198841,151.20805 L76.8832947,151.20805 Z M78.8049834,166.693894 L78.8049834,160.463345 L80.4743543,160.463345 C80.6268377,160.463345 80.7867715,160.466827 80.955149,160.474288 C81.1225331,160.482247 81.2904139,160.486226 81.4582947,160.486226 C82.3736921,160.562827 83.2160762,160.80805 83.9864404,161.221894 C84.7558113,161.635739 85.1412417,162.410205 85.1412417,163.544298 C85.1412417,164.801252 84.7140894,165.636899 83.8602815,166.050744 C83.0059768,166.464091 82.0677318,166.686433 81.0465397,166.717273 L80.8751821,166.717273 C80.8215397,166.717273 80.7718709,166.709314 80.7261755,166.693894 L78.8049834,166.693894 Z M78.8049834,158.813438 L78.8049834,152.994744 L79.5599503,152.994744 C80.7341225,152.994744 81.6942219,153.148444 82.4417384,153.454848 C83.1887583,153.761749 83.5627649,154.574019 83.5627649,155.892651 C83.5627649,157.242122 83.1624338,158.070309 82.3617715,158.376216 C81.561606,158.683615 80.6193874,158.828858 79.5371026,158.813438 L78.8049834,158.813438 Z M92.9183444,163.578819 L100.284238,163.578819 L102.320166,168.480788 L104.447483,168.480788 L96.6931788,150.383544 L88.7322517,168.480788 L90.8372185,168.480788 L92.9183444,163.578819 Z M96.6474834,154.873161 L99.5297682,161.791627 L93.6966556,161.791627 L96.6474834,154.873161 Z M116.136705,153.590292 L116.136705,153.61367 C115.679255,152.758126 115.061374,152.098064 114.284056,151.631494 C113.505745,151.165919 112.63654,150.933132 111.67644,150.933132 C110.394983,150.933132 109.27048,151.330562 108.301937,152.124427 C107.332897,152.918292 106.849619,153.987722 106.849619,155.331722 C106.849619,156.568282 107.223129,157.49993 107.970646,158.126168 C108.717169,158.752904 109.594321,159.287121 110.600613,159.729816 L111.653096,160.211308 C111.683394,160.226727 111.710215,160.23767 111.733063,160.245629 C111.756407,160.253588 111.782235,160.264531 111.813526,160.279453 C112.590844,160.631121 113.288692,161.036012 113.906573,161.494126 C114.523957,161.95224 114.832897,162.670002 114.832897,163.647411 C114.832897,164.624821 114.474288,165.430624 113.757566,166.064323 C113.040844,166.69852 112.216838,167.014873 111.287036,167.014873 C110.356738,167.014873 109.578924,166.702002 108.953593,166.075764 C108.328262,165.449525 107.954752,164.686002 107.833063,163.784696 L105.95707,164.334831 C106.231738,165.678831 106.849619,166.755225 107.809719,167.565007 C108.770811,168.374292 109.944983,168.778686 111.332732,168.778686 C112.827268,168.778686 114.104255,168.271328 115.164685,167.255619 C116.224123,166.239909 116.754089,164.975992 116.754089,163.464365 C116.754089,162.089525 116.346308,161.058893 115.530248,160.371474 C114.714685,159.684054 113.742169,159.088655 112.613692,158.584282 L111.469818,158.103287 C111.363526,158.057525 111.248791,158.008282 111.127103,157.954562 C111.004917,157.901339 110.882732,157.844137 110.761043,157.782955 C110.272798,157.53823 109.818825,157.229339 109.400116,156.85479 C108.980414,156.481235 108.770811,155.995764 108.770811,155.400365 C108.770811,154.606499 109.056904,153.960862 109.628593,153.464448 C110.200778,152.968531 110.867831,152.719826 111.630248,152.719826 C112.361871,152.719826 112.957401,152.883971 113.414851,153.212261 C113.871805,153.541049 114.268162,153.995183 114.603924,154.575163 L116.136705,153.590292 Z M120.025331,151.208149 L120.025331,168.481185 L128.969702,168.481185 L128.969702,166.693994 L121.94702,166.693994 L121.94702,159.91331 L128.764073,159.91331 L128.764073,158.126118 L121.94702,158.126118 L121.94702,152.994844 L128.969702,152.994844 L128.969702,151.208149 L120.025331,151.208149 Z" id="database" fill="#3D3D3D" fill-rule="nonzero"></path>
            <path d="M35.1925564,71.6022432 L31.6157069,80 L28,80 L41.6768258,49 L55,80 L51.3449438,80 L47.8472847,71.6022432 L35.1925564,71.6022432 Z M41.5981273,56.6910684 L36.5284645,68.5417274 L46.5502341,68.5417274 L41.5981273,56.6910684 Z M63.0642219,79.5585741 L59.7309437,79.5585741 L59.7309437,49.5911544 L64.6516391,49.5911544 C64.8364073,49.6175171 65.0216722,49.6309472 65.2069371,49.6309472 L65.7632285,49.6309472 C66.8743212,49.6573098 67.9720033,49.7697244 69.0567715,49.9681907 C70.1415397,50.1671544 71.1468377,50.5844808 72.0736589,51.2206674 C73.184255,51.9866777 74.0241556,52.9849782 74.5933609,54.2135793 C75.1620695,55.4426777 75.4466722,56.7175378 75.4466722,58.038657 L75.4466722,58.1973306 L75.4466722,58.3560041 C75.3930298,59.5189472 75.1292881,60.6420974 74.6529636,61.7254549 C74.1766391,62.8093098 73.4882285,63.7210611 72.5892219,64.4602114 C71.716043,65.2003565 70.7435265,65.7027399 69.6726656,65.9668642 C68.6003146,66.231486 67.5225,66.3896622 66.4377318,66.4423876 L65.9614073,66.4423876 L65.4855795,66.4423876 L63.0642219,66.4423876 L63.0642219,79.5585741 Z M63.0642219,63.3425326 L65.286904,63.3425326 C67.1385596,63.3693927 68.7393874,63.0172269 70.0888907,62.2855378 C71.4378974,61.5538487 72.113394,60.1113617 72.113394,57.9570819 C72.113394,55.5371855 71.3122351,54.0539109 69.711904,53.5087503 C68.1105795,52.9635896 66.3443543,52.6910093 64.4137252,52.6910093 L64.3546192,52.6910093 L64.2945199,52.6910093 L63.0642219,52.6910093 L63.0642219,63.3425326 Z M83.978543,79.5585741 L80.6447682,79.5585741 L80.6447682,49.5911544 L85.5659603,49.5911544 C85.7507285,49.6175171 85.9359934,49.6309472 86.121755,49.6309472 L86.6775497,49.6309472 C87.7886424,49.6573098 88.8863245,49.7697244 89.9710927,49.9681907 C91.0558609,50.1671544 92.0606623,50.5844808 92.9874834,51.2206674 C94.0985762,51.9866777 94.9379801,52.9849782 95.5076821,54.2135793 C96.075894,55.4426777 96.3609934,56.7175378 96.3609934,58.038657 L96.3609934,58.1973306 L96.3609934,58.3560041 C96.307351,59.5189472 96.0436093,60.6420974 95.5672848,61.7254549 C95.0909603,62.8093098 94.4025497,63.7210611 93.503543,64.4602114 C92.6303642,65.2003565 91.6578477,65.7027399 90.5864901,65.9668642 C89.5146358,66.231486 88.4368212,66.3896622 87.352053,66.4423876 L86.8757285,66.4423876 L86.399404,66.4423876 L83.978543,66.4423876 L83.978543,79.5585741 Z M83.978543,63.3425326 L86.2012252,63.3425326 C88.0528808,63.3693927 89.6542053,63.0172269 91.0032119,62.2855378 C92.3522185,61.5538487 93.0272185,60.1113617 93.0272185,57.9570819 C93.0272185,55.5371855 92.2265563,54.0539109 90.6262252,53.5087503 C89.0249007,52.9635896 87.2586755,52.6910093 85.3280464,52.6910093 L85.2684437,52.6910093 L85.2093377,52.6910093 L83.978543,52.6910093 L83.978543,63.3425326 Z M117.791672,53.7241782 L115.132401,55.4337741 C114.550281,54.4265202 113.862864,53.6386238 113.068659,53.0685927 C112.275447,52.4990591 111.243328,52.2140435 109.973295,52.2140435 C108.650116,52.2140435 107.492831,52.6448 106.500944,53.5058155 C105.50856,54.3668311 105.012368,55.4869969 105.012368,56.8638259 C105.012368,57.8974425 105.375944,58.7390591 106.104089,59.3881782 C106.831242,60.0372974 107.618493,60.5740021 108.465348,60.9977948 C108.67644,61.103743 108.88803,61.2032249 109.100116,61.295743 C109.311705,61.3887585 109.509884,61.474313 109.695646,61.5538984 L111.679917,62.3885513 C113.637864,63.2629969 115.324123,64.2966135 116.740182,65.4884062 C118.154752,66.6811938 118.86303,68.4698777 118.86303,70.8539606 C118.86303,73.4772974 117.943659,75.6703751 116.104917,77.432199 C114.265679,79.1945202 112.04995,80.0754321 109.457732,80.0754321 C107.049288,80.0754321 105.012368,79.3730902 103.34548,77.9684062 C101.679089,76.5647171 100.607235,74.6964477 100.130911,72.3645927 L103.385215,71.4110591 C103.596805,72.9744166 104.244983,74.2990176 105.329752,75.3853596 C106.41452,76.4717016 107.764023,77.0143751 109.378262,77.0143751 C110.991507,77.0143751 112.42048,76.4652352 113.664189,75.3654632 C114.907401,74.2661886 115.529255,72.867971 115.529255,71.1723026 C115.529255,69.4771316 114.993825,68.2311212 113.92197,67.4362611 C112.850613,66.641401 111.640182,65.9395565 110.290679,65.3297326 C110.237533,65.3033699 110.191341,65.2834736 110.151606,65.2700435 C110.112368,65.2571109 110.065679,65.2372145 110.01303,65.2108518 L108.187202,64.3757016 C106.440844,63.6077016 104.919487,62.6805306 103.623626,61.5936912 C102.326772,60.5078466 101.679089,58.8912663 101.679089,56.7449451 C101.679089,54.4135876 102.518493,52.5587482 104.198791,51.1809244 C105.879089,49.8031005 107.830083,49.1136912 110.052765,49.1136912 C111.719156,49.1136912 113.228096,49.518085 114.576606,50.3263751 C115.926109,51.1346653 116.997467,52.2806964 117.791672,53.763971 L117.791672,53.7241782 Z M48.3557285,85.9252642 L48.3562252,109.981471 L55.6774172,109.981471 L54.2325497,113.290736 L48.3562252,113.290736 L48.3562252,118.467275 L44.7974503,118.467275 L44.7974503,113.290736 L28.4439735,113.290736 L47.4179801,85.9252642 L48.3557285,85.9252642 Z M34.6719536,109.981471 L44.7974503,109.981471 L44.7974503,95.5138238 L44.7125166,95.5138238 L34.6719536,109.981471 Z M70.7208775,85.9249161 L84.6649172,118.466926 L80.7246854,118.466926 L76.9538245,109.387217 L63.3127649,109.387217 L59.4569702,118.466926 L55.5594536,118.466926 L69.8735265,85.9249161 L70.7208775,85.9249161 Z M64.7526656,106.07845 L75.5561424,106.07845 L70.2177318,93.2651855 L64.7526656,106.07845 Z M118.855381,102.387225 C118.940315,106.714686 118.473924,110.278624 115.550911,113.672448 C112.627401,117.067266 108.179056,119.018603 103.730712,119.018603 C94.7490894,119.018603 87.292798,111.551494 87.292798,102.556842 C87.2923013,93.392572 94.7490894,85.9249658 103.942301,85.9249658 C109.53452,85.9249658 114.067798,88.4289244 117.457202,92.8409451 L114.872434,95.2593492 C112.203228,91.4830176 108.602235,89.2347275 103.900083,89.2347275 C96.6131623,89.2347275 90.8510762,95.386686 90.8515728,102.599121 C90.8515728,105.993443 92.2075331,109.21765 94.5797185,111.636551 C96.9096854,113.969898 100.299089,115.709339 103.645778,115.709339 C109.195778,115.709339 115.042301,111.636551 115.042301,105.696489 L105.552566,105.696489 L105.552566,102.387225 L118.855381,102.387225 Z" id="apps4ag" fill="#3D3D3D" fill-rule="nonzero"></path>
        </g>
    </g>
</svg>