<?xml version="1.0" encoding="UTF-8"?>
<svg width="192px" height="191px" viewBox="0 0 192 191" version="1.1" xmlns="http://www.w3.org/2000/svg" xmlns:xlink="http://www.w3.org/1999/xlink">
    <!-- Generator: Sketch 52.6 (67491) - http://www.bohemiancoding.com/sketch -->
    <title>logo-cta-blog</title>
    <desc>Created with Sketch.</desc>
    <g id="Blog" stroke="none" stroke-width="1" fill="none" fill-rule="evenodd">
        <g id="logo-cta-blog">
            <rect id="Rectangle" fill="#FFFFFF" x="0" y="0" width="192" height="191"></rect>
            <path d="M0,0 L192,0 L192,191 L0,191 L0,0 Z M2,2 L2,132 L190,132 L190,2 L2,2 Z M58.1650379,62.3261719 C54.2913206,62.3261719 51.2920016,63.781561 49.166991,66.6923828 C47.0419804,69.6032047 45.979491,73.6594792 45.979491,78.8613281 C45.979491,89.685601 50.0412993,95.0976562 58.1650379,95.0976562 C61.5739091,95.0976562 65.702123,94.2454512 70.5498035,92.5410156 L70.5498035,101.173828 C66.5654086,102.833993 62.1162343,103.664062 57.2021472,103.664062 C50.140914,103.664062 44.7399264,101.522482 40.9990222,97.2392578 C37.2581181,92.9560333 35.3876941,86.8079828 35.3876941,78.7949219 C35.3876941,73.7480216 36.3063047,69.3265164 38.1435535,65.5302734 C39.9808023,61.7340305 42.6204243,58.8232523 46.0624988,56.7978516 C49.5045733,54.7724508 53.5387127,53.7597656 58.1650379,53.7597656 C62.8799052,53.7597656 67.616837,54.8997282 72.3759754,57.1796875 L69.0556629,65.546875 C67.2405496,64.6835894 65.414396,63.9309928 63.5771472,63.2890625 C61.7398985,62.6471322 59.9358801,62.3261719 58.1650379,62.3261719 Z M101.019205,103 L90.7262366,103 L90.7262366,63.0234375 L77.544596,63.0234375 L77.544596,54.4570312 L114.200846,54.4570312 L114.200846,63.0234375 L101.019205,63.0234375 L101.019205,103 Z M148.056967,103 L144.537435,91.4453125 L126.84017,91.4453125 L123.320638,103 L112.230795,103 L129.363607,54.2578125 L141.947592,54.2578125 L159.14681,103 L148.056967,103 Z M142.080404,82.8125 L129.430013,82.8125 C132.883156,71.6340587 134.974932,64.6282694 135.705404,61.7949219 C135.882488,62.5918009 136.17578,63.6764254 136.585287,65.0488281 C136.994794,66.4212308 138.826482,72.3423956 142.080404,82.8125 Z M36,144.516602 L45.7480469,144.516602 C50.2702049,144.516602 53.5382386,145.175449 55.5522461,146.493164 C57.5662536,147.810879 58.5732422,149.892238 58.5732422,152.737305 C58.5732422,154.653981 58.0791065,156.248692 57.0908203,157.521484 C56.1025341,158.794277 54.6800223,159.595376 52.8232422,159.924805 L52.8232422,160.149414 C55.1292433,160.583661 56.8250271,161.440912 57.9106445,162.721191 C58.9962619,164.001471 59.5390625,165.73469 59.5390625,167.920898 C59.5390625,170.870783 58.5096132,173.180493 56.4506836,174.850098 C54.391754,176.519702 51.5280131,177.354492 47.859375,177.354492 L36,177.354492 L36,144.516602 Z M41.3681641,158.083008 L46.5341797,158.083008 C48.7802847,158.083008 50.4199167,157.72738 51.453125,157.016113 C52.4863333,156.304847 53.0029297,155.095712 53.0029297,153.388672 C53.0029297,151.846346 52.4451553,150.730798 51.3295898,150.041992 C50.2140244,149.353187 48.4433715,149.008789 46.0175781,149.008789 L41.3681641,149.008789 L41.3681641,158.083008 Z M41.3681641,162.44043 L41.3681641,172.839844 L47.0732422,172.839844 C49.3193472,172.839844 51.015131,172.409347 52.1606445,171.54834 C53.3061581,170.687333 53.8789062,169.32846 53.8789062,167.47168 C53.8789062,165.76464 53.2949277,164.499353 52.1269531,163.675781 C50.9589785,162.852209 49.1845822,162.44043 46.8037109,162.44043 L41.3681641,162.44043 Z M68.1364188,177.354492 L68.1364188,144.516602 L73.5045829,144.516602 L73.5045829,172.75 L87.4079032,172.75 L87.4079032,177.354492 L68.1364188,177.354492 Z M123.070689,160.890625 C123.070689,166.236355 121.734277,170.391587 119.061412,173.356445 C116.388547,176.321304 112.603917,177.803711 107.707408,177.803711 C102.751003,177.803711 98.9439121,176.332534 96.2860212,173.390137 C93.6281303,170.447739 92.2992048,166.266303 92.2992048,160.845703 C92.2992048,155.425103 93.6356172,151.262384 96.3084822,148.357422 C98.9813471,145.452459 102.795925,144 107.75233,144 C112.633865,144 116.407264,145.47492 119.072642,148.424805 C121.73802,151.374689 123.070689,155.529921 123.070689,160.890625 Z M98.004283,160.890625 C98.004283,164.933614 98.8203555,167.999501 100.452525,170.088379 C102.084695,172.177257 104.502965,173.22168 107.707408,173.22168 C110.896877,173.22168 113.303917,172.188487 114.928599,170.12207 C116.553282,168.055654 117.365611,164.978536 117.365611,160.890625 C117.365611,156.86261 116.560769,153.807953 114.95106,151.726562 C113.341352,149.645172 110.941799,148.604492 107.75233,148.604492 C104.532913,148.604492 102.103412,149.645172 100.463756,151.726562 C98.824099,153.807953 98.004283,156.86261 98.004283,160.890625 Z M145.324296,159.542969 L157.40828,159.542969 L157.40828,176.029297 C155.431708,176.67318 153.533777,177.129881 151.714432,177.399414 C149.895087,177.668947 147.929775,177.803711 145.818436,177.803711 C140.847057,177.803711 137.013762,176.332534 134.318436,173.390137 C131.62311,170.447739 130.275467,166.296251 130.275467,160.935547 C130.275467,155.649713 131.795309,151.513199 134.835038,148.525879 C137.874766,145.538559 142.059946,144.044922 147.390702,144.044922 C150.819755,144.044922 154.069072,144.703769 157.138749,146.021484 L155.25203,150.491211 C152.586652,149.26334 149.921314,148.649414 147.255936,148.649414 C143.752012,148.649414 140.981858,149.749989 138.945389,151.951172 C136.908921,154.152355 135.890702,157.16209 135.890702,160.980469 C135.890702,164.99351 136.807848,168.044423 138.642167,170.133301 C140.476486,172.222178 143.115619,173.266602 146.559647,173.266602 C148.296635,173.266602 150.153387,173.049481 152.12996,172.615234 L152.12996,164.147461 L145.324296,164.147461 L145.324296,159.542969 Z" id="bg" fill="#FFA300"></path>
        </g>
    </g>
</svg>