<?xml version="1.0" encoding="UTF-8"?>
<svg width="195px" height="195px" viewBox="0 0 195 195" version="1.1" xmlns="http://www.w3.org/2000/svg" xmlns:xlink="http://www.w3.org/1999/xlink">
    <title>Spore</title>
    <g id="Spore" stroke="none" stroke-width="1" fill="none" fill-rule="evenodd">
        <g id="logo-spore">
            <path d="M22,134 L169,134 L169,136 L22,136 L22,134 Z M27.2357442,72.935537 C27.2551529,82.3870752 45,78.0417402 45,92.6245148 C45,102.096342 37.9307575,105 31.9294552,105 C29.142392,105 24.2090297,103.7992 21.1146082,101.211269 L21,100.766145 L23.4328196,97.2362075 L23.953766,97.1689213 C25.6780985,98.7475591 29.4862166,99.948359 32.0909486,99.948359 C36.3106143,99.948359 39.8738876,98.0074109 39.8738876,92.7021527 C39.8738876,82.5367604 22.1148253,87.0190566 22.1148253,73.1270439 C22.1148253,65.5495824 27.5795529,61 33.9976123,61 C39.9364011,61 43.6924246,63.5879308 44.213371,64.1624515 L44.2706751,64.6023997 L42.0149772,68.2669098 L41.540916,68.3290201 C39.4348803,66.7803098 36.8667693,65.9783952 34.2476666,66.051641 C29.4976213,66.051641 27.2416087,68.9529024 27.2357397,72.9200094 C27.2357282,82.3918363 45,78.0337607 45,92.6245148 C45,102.096342 37.9307575,105 31.9294552,105 C29.142392,105 24.2090297,103.7992 21.1146082,101.211269 L21,100.766145 L23.4328196,97.2362075 L23.953766,97.1689213 C25.6780985,98.7475591 29.4862166,99.948359 32.0909486,99.948359 C36.3106143,99.948359 39.8738876,98.0074109 39.8738876,92.7021527 C39.8738876,82.5367604 22.1148253,87.0190566 22.1148253,73.1270439 C22.1148253,65.5495824 27.5795529,61 33.9976123,61 C39.9364011,61 43.6924246,63.5879308 44.213371,64.1624515 L44.2706751,64.6023997 L42.0149772,68.2669098 L41.540916,68.3290201 C39.4348803,66.7803098 36.8667693,65.9783952 34.2476666,66.051641 C29.4914261,66.051641 27.2357282,68.9604752 27.2357282,72.935537 L27.2357442,72.935537 Z M61.5825041,83.3111489 L61.6084163,83.3315521 C66.8633914,83.3315521 70.8849502,80.6536313 70.8849502,74.619383 C70.8849502,68.2739859 66.4487977,66.7794511 61.7224295,66.7794511 L55.969942,66.7794511 L55.969942,82.2909886 C57.7665576,82.9487339 59.6657082,83.2939306 61.5825041,83.3111489 Z M71.0507877,64.0403206 L71.0352405,64.0403206 C74.1654229,65.9684236 76,69.3910615 76,74.491863 C76,81.7758076 71.8644279,87.9987855 62.8262852,87.9987855 C59.5665423,87.9987855 56.7317579,87.0653388 55.6693615,84.3925188 L55.969942,86.88171 L55.969942,103.688851 L55.6693615,104 L51.295398,104 L51,103.688851 L51,62.3060481 L51.295398,62 L61.7224295,62 C65.4382255,62 68.6254146,62.5457858 71.0507877,64.0403206 Z M104.926333,88.9454567 L104.926333,77.0907488 C104.926333,69.7720701 100.508833,66.0480781 94.5,66.0480781 C88.4911667,66.0480781 84.0685,69.7720701 84.0685,77.0907488 L84.0685,88.9454567 C84.0685,96.4555072 88.486,99.9260609 94.5,99.9260609 C100.514,99.9260609 104.926333,96.4555072 104.926333,88.9454567 Z M94.5,61.0155166 L94.5,61 C103.758667,61 110,66.4308217 110,76.6511108 L110,89.540261 C110,99.6984836 103.758667,105 94.5,105 C85.2413333,105 79,99.6984836 79,89.540261 L79,76.6666275 C79,66.4463383 85.2465,61.0155166 94.5,61.0155166 Z M168.704225,66.9756987 L152.945145,66.9756987 L152.945145,79.4226002 L166.644181,79.4226002 L166.882876,79.7339004 L165.824314,84.0869988 L165.47146,84.3982989 L152.945145,84.3982989 L152.945145,99.0243013 L168.761305,99.0243013 L169,99.3356015 L168.408451,103.6887 L168.055597,104 L148.295775,104 L148,103.6887 L148,62.3113001 L148.295775,62 L168.704225,62 L169,62.3113001 L169,66.6643985 L168.704225,66.9756987 Z M121.017282,82.2775224 L126.873398,82.2775224 C131.23534,82.2775224 135.654951,80.5036293 135.654951,74.5993225 C135.654951,68.8250665 131.23534,66.8586983 126.873398,66.8586983 L121.017282,66.8586983 L121.017282,82.2775224 Z M142.108738,99.9644326 L142.103495,99.9852407 C142.34466,99.9852407 142.522913,99.9228164 142.764078,99.9228164 L143,100.24014 L142.34466,104.552625 L141.982913,104.869949 C141.569489,104.946951 141.150437,104.990445 140.729903,105 C136.609126,105 133.861942,101.192112 132.781942,99.7303412 L123.470874,87.4535446 L123.056699,87.1986451 L121.022524,87.1986451 L121.022524,104.521413 L120.723689,104.838737 L116.298835,104.838737 L116,104.521413 L116,62.322526 L116.298835,62 L126.931068,62 C130.09767,62 133.206602,62.5722236 135.717864,64.2212678 C138.643301,66.1876361 140.677476,69.548149 140.677476,74.6253327 C140.677476,86.4287443 129.022913,87.0009678 129.022913,87.0009678 L130.338835,88.4003145 L137.332621,97.300992 C138.344466,98.5702879 139.838641,99.9644326 142.108738,99.9644326 Z M0,0 L195,0 L195,195 L0,195 L0,0 Z M2,2 L2,193 L193,193 L193,2 L2,2 Z" id="Combined-Shape" fill="#FFFFFF" fill-rule="nonzero"></path>
        </g>
    </g>
</svg>