<?xml version="1.0" encoding="UTF-8"?>
<svg width="192px" height="191px" viewBox="0 0 192 191" version="1.1" xmlns="http://www.w3.org/2000/svg" xmlns:xlink="http://www.w3.org/1999/xlink">
    <!-- Generator: Sketch 48.2 (47327) - http://www.bohemiancoding.com/sketch -->
    <title>logo-ictupdate</title>
    <desc>Created with Sketch.</desc>
    <defs></defs>
    <g id="ICTUpdate" stroke="none" stroke-width="1" fill="none" fill-rule="evenodd">
        <g id="logo-ictupdate">
            <path d="M0,0 L192,0 L192,191 L0,191 L0,0 Z M2,2 L2,132 L190,132 L190,2 L2,2 Z" id="bg" fill="#3D3D3D"></path>
            <path d="M45.3303859,148.108871 L45.3303859,165.274194 C45.3303859,167.233881 44.9040278,168.948581 44.0512989,170.418347 C43.19857,171.888112 41.9655057,173.019149 40.3520689,173.811492 C38.7386322,174.603835 36.8092852,175 34.5639702,175 C31.2266714,175 28.6317151,174.129041 26.7790235,172.387097 C24.9263319,170.645153 24,168.250015 24,165.201613 L24,148.108871 L28.416991,148.108871 L28.416991,164.893145 C28.416991,167.082672 28.9323015,168.697575 29.9629379,169.737903 C30.9935743,170.778231 32.5763136,171.298387 34.7112033,171.298387 C38.8582878,171.298387 40.931799,169.151231 40.931799,164.856855 L40.931799,148.108871 L45.3303859,148.108871 Z M71.5992131,156.129032 C71.5992131,158.899207 70.6790158,161.02217 68.8385937,162.497984 C66.9981716,163.973798 64.3786767,164.711694 60.9800305,164.711694 L58.1826028,164.711694 L58.1826028,174.637097 L53.7840159,174.637097 L53.7840159,148.108871 L61.5321544,148.108871 C64.8939921,148.108871 67.4122653,148.786284 69.0870494,150.141129 C70.7618336,151.495975 71.5992131,153.491922 71.5992131,156.129032 Z M58.1826028,161.064516 L60.5199272,161.064516 C62.7775117,161.064516 64.4338668,160.677423 65.4890422,159.903226 C66.5442175,159.129028 67.0717973,157.919363 67.0717973,156.274194 C67.0717973,154.749992 66.5994294,153.612907 65.6546793,152.862903 C64.7099293,152.112899 63.2376137,151.737903 61.2376883,151.737903 L58.1826028,151.737903 L58.1826028,161.064516 Z M100.426214,161.118952 C100.426214,165.498006 99.19315,168.845755 96.7269843,171.162298 C94.2608186,173.478842 90.7088572,174.637097 86.0709934,174.637097 L78.5437045,174.637097 L78.5437045,148.108871 L86.862371,148.108871 C91.1444198,148.108871 94.4755339,149.245956 96.8558132,151.520161 C99.2360925,153.794366 100.426214,156.993931 100.426214,161.118952 Z M95.7883737,161.264113 C95.7883737,154.913275 92.7762613,151.737903 86.7519462,151.737903 L82.9422914,151.737903 L82.9422914,170.989919 L86.0709934,170.989919 C92.5492793,170.989919 95.7883737,167.748016 95.7883737,161.264113 Z M123.713573,174.637097 L121.02657,167.270161 L110.738661,167.270161 L108.106871,174.637097 L103.46903,174.637097 L113.536089,148 L118.321163,148 L128.388221,174.637097 L123.713573,174.637097 Z M119.86711,163.532258 L117.345744,156.310484 C117.161702,155.82661 116.907114,155.064521 116.581972,154.024194 C116.256831,152.983866 116.032917,152.221777 115.910222,151.737903 C115.578946,153.225814 115.094308,154.852814 114.456295,156.618952 L112.02695,163.532258 L119.86711,163.532258 Z M140.172999,174.637097 L135.774412,174.637097 L135.774412,151.828629 L127.860636,151.828629 L127.860636,148.108871 L148.086774,148.108871 L148.086774,151.828629 L140.172999,151.828629 L140.172999,174.637097 Z M169,174.637097 L153.779785,174.637097 L153.779785,148.108871 L169,148.108871 L169,151.774194 L158.178372,151.774194 L158.178372,158.995968 L168.319047,158.995968 L168.319047,162.625 L158.178372,162.625 L158.178372,170.953629 L169,170.953629 L169,174.637097 Z" id="label" fill="#FFFFFF"></path>
            <path d="M34,109.174983 L34,48.8662675 L50.1774565,48.8662675 L50.1774565,109.174983 L34,109.174983 Z M89.5819915,61.3652695 C85.7515418,61.3652695 82.7632926,62.9534106 80.6171541,66.1297405 C78.4710157,69.3060704 77.3979625,73.6854899 77.3979625,79.2681304 C77.3979625,90.8734224 81.7580898,96.6759814 90.4784752,96.6759814 C93.1136072,96.6759814 95.667202,96.3047276 98.1393362,95.5622089 C100.61147,94.8196902 103.09715,93.9259312 105.596451,92.8809049 L105.596451,106.658683 C100.625016,108.886239 95.0016745,110 88.726257,110 C79.7342085,110 72.8408609,107.359973 68.0460072,102.07984 C63.2511536,96.7997075 60.8537627,89.1683799 60.8537627,79.1856287 C60.8537627,72.9429717 62.015105,67.4566659 64.3378245,62.7265469 C66.660544,57.9964279 70.0019499,54.3595159 74.3621426,51.8157019 C78.7223353,49.2718879 83.8498993,48 89.7449885,48 C96.1834039,48 102.336481,49.4162644 108.204404,52.2488357 L103.273743,65.0778443 C101.073272,64.032818 98.8728339,63.1528091 96.6723628,62.4377911 C94.4718917,61.7227731 92.1084582,61.3652695 89.5819915,61.3652695 L89.5819915,61.3652695 Z M143.493263,109.174983 L127.397305,109.174983 L127.397305,62.1902861 L112.849819,62.1902861 L112.849819,48.8662675 L158,48.8662675 L158,62.1902861 L143.493263,62.1902861 L143.493263,109.174983 Z" id="shape" fill="#3D3D3D"></path>
        </g>
    </g>
</svg>