<svg width="156" height="156" viewBox="0 0 156 156" xmlns="http://www.w3.org/2000/svg" xmlns:xlink="http://www.w3.org/1999/xlink">
  <defs>
    <path d="M33 79.094V123h90V33H33v14.31c-.06.006-.118.01-.176.017C32.827 47.32 24 49 14 45c0 2-.076 20 10.914 29.56 2.957 2.76 5.66 4.084 8.086 4.534z" id="a"/>
    <mask id="b" x="-3" y="-3" width="115" height="96">
      <path fill="#fff" d="M11 30h115v96H11z"/>
      <use xlink:href="#a"/>
    </mask>
  </defs>
  <g fill="none" fill-rule="evenodd">
    <path fill="#CCC" d="M0 0h156v156H0z"/>
    <use fill="#FFF" xlink:href="#a"/>
    <use stroke="#FFF" mask="url(#b)" stroke-width="6" xlink:href="#a"/>
    <path fill="#7BB010" d="M33 33h90v90H33z"/>
    <path d="M94.433 45.664s-3.732-.356-5.75-.356c-5.358 0-15.434.828-22.68 6.377-9.108 6.975-11.144 16.977-12.238 22.354-.18.89-1.236 3.553-1.58 4.016-.27.34-.54.706-.793 1.073-2.772 4.046-4.35 9.347-4.723 15.798-.15 2.04-.143 4.274.018 6.654.246 3.784.73 6.388.84 6.93.996 5.845 2.585 11.867 3.472 14.488h12.026c-.514-1.166-5.62-13.61-7.07-21.045-1.218-6.24-.754-10.746 1.598-15.533 1.752-2.672 4.177-3.397 5.472-3.59 1.097-.163 2.435-.214 3.863-.267 5.34-.203 11.987-.455 17.005-6.34C94.41 63.898 94.45 48.394 94.445 47.74l-.012-2.076z" fill="#00662F"/>
    <path d="M53.696 103.483c-1.467-7.755-.478-12.706 1.837-17.51 1.876-3.03 4.612-4.42 6.994-4.788 5.178-.8 13.653.86 19.3-5.97 9.95-12.037 9.88-27.485 9.88-27.485s-15.125-1.597-24.62 5.903c-10.77 8.508-10.79 22.11-12.063 24.61-.318.627-.733 1.234-1.177 1.855-.253.326-.494.663-.724 1.006-2.898 4.365-3.982 9.903-4.265 14.92-.135 1.927-.136 4.056.02 6.435.256 4.098.796 6.797.796 6.797 1.07 6.507 2.697 11.537 3.45 13.743H60c-1.353-3.257-5.013-12.684-6.304-19.517z" fill="#FFF"/>
    <path d="M70.04 65.224c-3.573 4.074-4.23 6.416-4.23 6.416s-1.418 2.39-2.26.896c-.956-1.698.46-5.564 5.803-10.21 5.785-5.033 12.633-7.5 12.633-7.5s-6.908 4.653-11.946 10.398z" fill="#00662F"/>
    <path d="M81.335 113.673c-1.528.374-3.227.806-5.96.806-5.36 0-11.552-2.712-11.552-10.33 0-7.01 4.9-10.498 11.522-10.498 2.044 0 4.032.462 5.96 1.038l-.432 4.355c-1.727-.95-3.397-1.414-5.24-1.414-3.8 0-6.28 2.77-6.28 6.52 0 3.954 2.795 6.348 6.71 6.348 1.757 0 3.544-.463 5.013-1.04l.26 4.215zm5.9-15.696h-4.952v-3.98H97.55v3.98h-4.955v16.156h-5.36V97.977zm21.26-3.98h-6.568l-7.633 20.136h5.443l1.585-4.3h7.548l1.497 4.3h5.877l-7.748-20.135zm-5.933 12.03l2.592-7.876h.058l2.39 7.876h-5.04z" fill="#FFF"/>
    <path d="M54.1 70.183c-.594-1.314-1.115-3.538-1.115-3.538-.475-2.443-1.392-6.246-2.978-9.677-.41-1.214-1.23-2.616-2.348-3.966-.343-.44-.702-.86-1.082-1.24-2.184-2.142-5.11-3.97-8.31-4.32-2.332-.26-4.02-.25-5.444-.115C32.827 47.32 24 49 14 45c0 2-.076 20 10.914 29.56 3.634 3.39 6.884 4.615 9.708 4.713 3.024.53 6.553.35 10.456-1.258-.004.007 4.534-1.642 6.643-.524.45.422.877.898 1.257 1.43 1.85 2.2 2.68 4.336 2.27 7.442-.376 2.845-1.233 5.374-2.062 8.576l2.755 11.588c1.952-3.808 3.71-8 4.746-12.312 1.288-5.365 1.65-9.54.14-14.196-.786-2.424-6.346-9.43-6.725-9.835zm-6.356 38.998C45.256 114.466 41.108 120.85 40 123h13c-.367-1.47-5.256-13.82-5.256-13.82z" fill="#00662F"/>
    <path d="M44.924 68.104c-1.742.47-7.812-.54-11.653-2.412C23.028 60.698 20 55 20 55s6.902 5.727 13.385 7.615c6.48 1.89 10.74 2.437 11.362 2.493.622.058 1.255.182 1.617.582.702.767.057 2.008-1.44 2.414z" fill="#FFF"/>
  </g>
</svg>
