<?xml version="1.0" encoding="UTF-8" standalone="no"?>
<svg width="36px" height="36px" viewBox="0 0 36 36" version="1.1" xmlns="http://www.w3.org/2000/svg" xmlns:xlink="http://www.w3.org/1999/xlink">
    <!-- Generator: Sketch 39 (31667) - http://www.bohemiancoding.com/sketch -->
    <title>cta-logo--s</title>
    <desc>Created with Sketch.</desc>
    <defs></defs>
    <g id="Symbols" stroke="none" stroke-width="1" fill="none" fill-rule="evenodd">
        <g id="cta-logo--s">
            <rect id="Rectangle-253" fill="#CCCCCC" x="0" y="0" width="36" height="36"></rect>
            <g id="Group" transform="translate(2.000000, 7.000000)">
                <path d="M1,5.92284491 C1.25558865,8.25714122 3,11 5,11.6744681 C5.01628148,11.9922625 5.00000003,22.0000007 5.00000003,22.0000007 L27.0199025,22 L27.0199032,0 L5,7.22433853e-07 C5,7.22433853e-07 5.01628162,3.23567756 5,3 C2.00000005,3 1.861275,2.36519942 0.800048828,2.07060224 C0.800048828,2.07060224 0.649902344,4.13278205 1,5.92284491 Z" id="Shape" fill="#FFFFFF"></path>
                <polygon id="Rectangle-4" fill="#7BB010" points="6 1 26 1 26 21 6 21"></polygon>
                <path d="M19.9329177,3.59403618 L19.7069164,3.57147449 L19.4761009,3.54839414 C19.3926543,3.54087357 19.085881,3.51571859 18.6282619,3.51571859 C17.4118669,3.51571859 15.1248411,3.69776808 13.4799798,4.91713664 C11.4130711,6.44977555 10.9509052,8.64785463 10.702705,9.82936104 C10.6617841,10.0248957 10.5991991,10.3207909 10.5671043,10.3853641 C10.5090661,10.4919486 10.4221425,10.6104623 10.3443125,10.7121196 C10.2830648,10.7865472 10.2218171,10.8671988 10.1640464,10.9478503 C9.53498725,11.8373514 9.17712962,13.0022607 9.09207825,14.4197572 C9.05864611,14.867879 9.0599834,15.3590496 9.09635757,15.8821178 C9.15225611,16.713529 9.26244844,17.2858698 9.2870545,17.4051615 C9.51305576,18.6893625 10.0907632,21 10.0907632,21 L12.8046506,21 C12.8046506,21 11.5291475,17.5975841 11.2001753,15.964066 C10.9236246,14.5927302 11.0287353,13.6026091 11.5625797,12.5505083 C11.9602884,11.9633857 12.5107152,11.8041572 12.8046505,11.7616271 C13.0536531,11.7258396 13.3572169,11.7146884 13.681375,11.7030186 C14.8934906,11.6584139 16.4022163,11.6029173 17.5413161,10.3096398 C19.9275686,7.6011997 19.9366621,4.19412525 19.9358597,4.05045656 L19.934255,3.82198704 L19.9329177,3.59403618 Z" id="Shape" fill="#00662F"></path>
                <path d="M10.6869908,16.2998507 C10.354044,14.5955707 10.5785649,13.5076142 11.1040338,12.4519288 C11.5298038,11.7858762 12.1507404,11.4803596 12.6912832,11.399682 C13.8665142,11.2240431 15.7901483,11.5888114 17.071954,10.0876801 C19.3303861,7.44277934 19.3142545,4.04797426 19.3142545,4.04797426 C19.3142545,4.04797426 15.8813847,3.69696083 13.7266183,5.3451633 C11.2817465,7.2147661 11.2772508,10.2035383 10.9884677,10.7534682 C10.9162719,10.8910168 10.8221265,11.0243331 10.7213697,11.1608236 C10.6639834,11.2325076 10.6092415,11.3065722 10.5568797,11.3819594 C9.89918409,12.3410964 9.65324241,13.5581369 9.58898024,14.6606418 C9.55830364,15.0841327 9.55803919,15.5520625 9.59347594,16.0747471 C9.65165569,16.9754259 9.77409762,17.5687364 9.77409762,17.5687364 C9.81389777,17.8028726 9.85765543,18.0307944 9.90375617,18.2517871 C9.93416807,18.3975724 9.96559963,18.5403422 9.99758738,18.6798915 C10.2132031,19.6205335 10.4540891,20.4148481 10.5783005,21 L10.9535598,21 L11.5091765,21 L12.1853838,21 C11.8783534,19.9657852 10.9800052,17.8012465 10.6869908,16.2998507 Z" id="Shape" fill="#FFFFFF"></path>
                <path d="M14.3964788,7.89224961 C13.5856647,8.78765893 13.4367774,9.30228852 13.4367774,9.30228852 C13.4367774,9.30228852 13.1146731,9.82743122 12.9237378,9.49921703 C12.7066215,9.1258734 13.0281969,8.27636277 14.2407158,7.25530896 C15.5537269,6.149381 17.1079197,5.60705835 17.1079197,5.60705835 C17.1079197,5.60705835 15.5399754,6.62990709 14.3964788,7.89224961 L14.3964788,7.89224961 L14.3964788,7.89224961 Z" id="Shape" fill="#00662F"></path>
                <path d="M9.38455775,7.51531613 L8.08503368,7.01837934 L5.54760319,6.21117758 L4.00028628,5.34166641 L2.9482906,5.34166641 L2.9482906,6.02476218 L2.9482906,7.14248533 L5.1763106,9.37844447 C5.1763106,9.37844447 7.2186843,9.56485987 7.4043306,9.37844447 C7.58997689,9.19202907 8.58009047,9.19202907 8.58009047,9.19202907 L9.26079355,9.19202907 L9.38455775,7.51531613 L9.38455775,7.51531613 Z" id="Shape" fill="#FFFFFF"></path>
                <path d="M16.9600902,18.5389537 C16.6133918,18.6212636 16.2278187,18.716138 15.6071465,18.716138 C14.3911897,18.716138 12.9856199,18.1204806 12.9856199,16.4465882 C12.9856199,14.9060329 14.097382,14.1393451 15.6005352,14.1393451 C16.0646509,14.1393451 16.5158085,14.2408863 16.9534789,14.3675565 L16.8553666,15.324506 C16.4634467,15.1155259 16.0842205,15.0137282 15.6661196,15.0137282 C14.8032082,15.0137282 14.2409802,15.6222065 14.2409802,16.4465882 C14.2409802,17.3153301 14.8751395,17.8412421 15.763703,17.8412421 C16.1624987,17.8412421 16.5679058,17.7397008 16.9013815,17.6127743 L16.9600902,18.5389537 L16.9600902,18.5389537 Z" id="Shape" fill="#FFFFFF"></path>
                <polygon id="Shape" fill="#FFFFFF" points="18.2995467 15.0898841 17.1753553 15.0898841 17.1753553 14.215501 20.6402239 14.215501 20.6402239 15.0898841 19.515768 15.0898841 19.515768 18.6402385 18.2995467 18.6402385"></polygon>
                <path d="M21.7779025,16.8586509 L22.3663113,15.1280903 L22.379534,15.1280903 L22.9221924,16.8586509 L21.7779025,16.8586509 L21.7779025,16.8586509 Z M23.1247637,14.215501 L21.6337753,14.215501 L19.901341,18.6402385 L21.1368674,18.6402385 L21.496524,17.6953406 L23.2096532,17.6953406 L23.5494759,18.6402385 L24.8833789,18.6402385 L23.1247637,14.215501 L23.1247637,14.215501 Z" id="Shape" fill="#FFFFFF"></path>
                <path d="M8.68058276,8.58406357 C8.28522491,8.68765618 6.90742264,8.46534235 6.03578419,8.05404895 C3.71070979,6.95658277 3.02365982,5.70449693 3.02365982,5.70449693 C3.02365982,5.70449693 4.59028184,6.9629932 6.06170062,7.37787644 C7.5325905,7.7930161 8.49916772,7.91353225 8.64038585,7.92584028 C8.78160397,7.93840473 8.92520217,7.96584139 9.00744718,8.05353611 C9.16664814,8.22225872 9.0204054,8.49483034 8.68058276,8.58406357 L8.68058276,8.58406357 L8.68058276,8.58406357 Z M12.3054457,11.143365 C12.1269396,10.6105297 11.8426522,10.2087238 11.5781988,9.89025346 L11.5816367,9.88666362 C11.4076264,9.65614444 11.2240957,9.45049774 11.0487631,9.26382592 C11.0487631,9.26382592 11.0487631,9.2635695 11.0484986,9.2635695 C10.955411,9.16459241 10.8649679,9.0712565 10.7790206,8.98202327 C10.6438849,8.69329736 10.5256742,8.20456592 10.5256742,8.20456592 L10.5254098,8.20482234 C10.4177772,7.66762803 10.2096524,6.83196394 9.8497313,6.07809699 C9.75637925,5.81116654 9.57073295,5.50320933 9.31685767,5.20653447 C9.23910837,5.10960872 9.15765672,5.01781132 9.07144491,4.93396285 L9.06747811,4.94088612 C8.57585921,4.46318063 7.9118167,4.06163109 7.18562763,3.98444947 C6.65619189,3.92752482 6.2729989,3.92983258 5.94983683,3.95932057 L5.95036574,3.95752565 C5.95036574,3.95752565 3.33359922,4.2600981 1.7466143,3.56905339 C1.69160799,3.53828331 1.66013803,3.51982126 1.66013803,3.51982126 C1.66013803,3.51982126 1.35284317,7.07812458 3.82865601,9.62870778 L3.81702006,9.62973345 C3.81702006,9.62973345 3.93523074,9.76153196 4.15446261,9.94384469 C4.97929281,10.6889935 5.71685337,10.9579752 6.35788845,10.9795143 C7.04414505,11.0959278 7.84517444,11.0561831 8.73109337,10.7030964 L8.73003555,10.7046349 C8.73003555,10.7046349 9.76008159,10.3423172 10.2387423,10.587965 C10.3408213,10.6805317 10.4376112,10.78515 10.523823,10.9018198 C10.9437751,11.3854229 11.1320659,11.8549231 11.0389783,12.537506 C10.9538243,13.1626515 10.7591866,13.7183078 10.5711602,14.421917 L10.7364436,15.5824618 L10.8734305,16.0586288 L10.8940578,16.0158071 L11.1963281,16.9683975 C11.6392875,16.1317077 12.0380833,15.2106567 12.2734468,14.2629382 C12.5659323,13.0839313 12.6479129,12.1662137 12.3054457,11.143365 L12.3054457,11.143365 L12.3054457,11.143365 Z M9.33603266,17.5520033 C8.77143216,18.7995743 8.16489221,21 8.16489221,21 L10.2572653,21 C10.2572653,20.1889632 9.86517167,19.6637477 9.78966477,19.1469771 L9.33603266,17.5520033 Z" id="Shape" fill="#00662F"></path>
            </g>
        </g>
    </g>
</svg>