<svg xmlns="http://www.w3.org/2000/svg" viewBox="0 0 156 156" xmlns:xlink="http://www.w3.org/1999/xlink">
  <defs>
    <path id="a" d="M0 0h156v156H0z"/>
    <mask id="c" width="156" height="156" x="0" y="0" fill="#fff">
      <use xlink:href="#a"/>
    </mask>
    <path id="b" d="M0 108h156v48H0z"/>
    <mask id="d" width="156" height="48" x="0" y="0" fill="#fff">
      <use xlink:href="#b"/>
    </mask>
  </defs>
  <g fill="none" fill-rule="evenodd">
    <use fill="#FFF" fill-opacity=".8" stroke="#3D3D3D" stroke-width="4" mask="url(#c)" xlink:href="#a"/>
    <use fill="#3D3D3D" stroke="#3D3D3D" stroke-width="4" mask="url(#d)" xlink:href="#b"/>
    <path fill="#FFF" d="M36.304 121.088v13.81c0 1.576-.346 2.955-1.037 4.138-.692 1.182-1.692 2.092-3 2.73-1.31.637-2.875.956-4.697.956-2.707 0-4.813-.7-6.316-2.103-1.504-1.41-2.254-3.33-2.254-5.78v-13.76h3.583v13.5c0 1.76.418 3.06 1.254 3.89.837.835 2.12 1.254 3.853 1.254 3.364 0 5.046-1.728 5.046-5.183v-13.47h3.568zm21.31 6.452c0 2.228-.745 3.936-2.238 5.124-1.494 1.187-3.62 1.78-6.376 1.78h-2.27v7.986h-3.568v-21.342h6.286c2.727 0 4.77.545 6.13 1.635 1.358 1.09 2.037 2.695 2.037 4.817zm-10.883 3.97h1.9c1.83 0 3.18-.31 4.03-.934.86-.623 1.29-1.596 1.29-2.92 0-1.226-.38-2.14-1.15-2.744-.76-.603-1.96-.905-3.58-.905h-2.48v7.503zm34.27.044c0 3.523-1 6.216-3 8.08-2 1.864-4.88 2.796-8.64 2.796h-6.11v-21.342H70c3.474 0 6.177.914 8.108 2.744 1.93 1.83 2.896 4.404 2.896 7.722zm-3.76.117c0-5.1-2.44-7.66-7.33-7.66h-3.09v15.49h2.54c5.26 0 7.89-2.6 7.89-7.82zm22.66 10.76l-2.18-5.92h-8.35l-2.13 5.93h-3.77L91.64 121h3.88l8.168 21.43h-3.792zm-3.12-8.93l-2.04-5.81c-.15-.39-.35-1-.62-1.84-.26-.83-.44-1.45-.54-1.84-.27 1.2-.66 2.51-1.18 3.93l-1.97 5.56h6.36zm16.48 8.94h-3.57v-18.35h-6.42v-2.99h16.41v2.99h-6.42v18.35zm23.39 0H124.3V121.1h12.35v2.946h-8.78v5.81h8.226v2.92h-8.226v6.7h8.78v2.964z"/>
    <path fill="#3D3D3D" d="M28 89.684v-48.98h13.176v48.98H28zm45.268-38.83c-3.12 0-5.553 1.29-7.3 3.87-1.75 2.58-2.623 6.137-2.623 10.67 0 9.426 3.55 14.14 10.654 14.14 2.14 0 4.22-.302 6.23-.905 2.01-.61 4.04-1.33 6.07-2.18v11.19c-4.05 1.81-8.63 2.71-13.74 2.71-7.33 0-12.94-2.15-16.84-6.43-3.91-4.29-5.86-10.49-5.86-18.6 0-5.07.94-9.53 2.83-13.37s4.614-6.8 8.165-8.86C64.42 41.03 68.6 40 73.4 40c5.245 0 10.256 1.15 15.035 3.45L84.42 53.87c-1.793-.85-3.585-1.563-5.377-2.144-1.792-.58-3.717-.87-5.775-.87zm43.908 38.83h-13.11v-38.16H92.22v-10.82h36.77v10.82h-11.814v38.16z"/>
  </g>
</svg>
