<?xml version="1.0" encoding="UTF-8" standalone="no"?>
<svg width="184px" height="156px" viewBox="0 0 184 156" version="1.1" xmlns="http://www.w3.org/2000/svg" xmlns:xlink="http://www.w3.org/1999/xlink">
    <!-- Generator: Sketch 39.1 (31720) - http://www.bohemiancoding.com/sketch -->
    <title>logo-youth--l</title>
    <desc>Created with Sketch.</desc>
    <defs>
        <rect id="path-1" x="0" y="0" width="183.029999" height="156"></rect>
        <mask id="mask-2" maskContentUnits="userSpaceOnUse" maskUnits="objectBoundingBox" x="0" y="0" width="183.029999" height="156" fill="white">
            <use xlink:href="#path-1"></use>
        </mask>
        <rect id="path-3" x="0" y="108" width="183.029999" height="48"></rect>
        <mask id="mask-4" maskContentUnits="userSpaceOnUse" maskUnits="objectBoundingBox" x="0" y="0" width="183.029999" height="48" fill="white">
            <use xlink:href="#path-3"></use>
        </mask>
    </defs>
    <g id="Symbols" stroke="none" stroke-width="1" fill="none" fill-rule="evenodd">
        <g id="logo-youth--l">
            <use id="Rectangle-179" stroke="#EB942C" mask="url(#mask-2)" stroke-width="4" fill-opacity="0.8" fill="#FFFFFF" xlink:href="#path-1"></use>
            <use id="Rectangle-179" stroke="#EB942C" mask="url(#mask-4)" stroke-width="4" fill="#EB942C" xlink:href="#path-3"></use>
            <path d="M21.9916995,125.151367 C20.1811436,125.151367 18.7573297,125.792962 17.7202152,127.076172 C16.6831006,128.359381 16.1645511,130.13036 16.1645511,132.38916 C16.1645511,134.75343 16.6633254,136.541986 17.660889,137.754883 C18.6584526,138.96778 20.1020417,139.574219 21.9916995,139.574219 C22.8090864,139.574219 23.6000942,139.492921 24.3647464,139.330322 C25.1293987,139.167724 25.9248009,138.958986 26.7509769,138.704102 L26.7509769,141.406738 C25.2392506,141.97803 23.5254005,142.263672 21.6093753,142.263672 C18.7880722,142.263672 16.6215899,141.408944 15.1098636,139.699463 C13.5981373,137.989982 12.8422855,135.54445 12.8422855,132.362793 C12.8422855,130.358877 13.2092252,128.605476 13.9431156,127.102539 C14.677006,125.599602 15.7382746,124.448246 17.1269535,123.648438 C18.5156323,122.848629 20.1459871,122.44873 22.0180667,122.44873 C23.9868266,122.44873 25.8061443,122.861812 27.4760745,123.687988 L26.3422855,126.311523 C25.6918916,126.003905 25.0041543,125.733644 24.2790531,125.500732 C23.5539518,125.267821 22.7915082,125.151367 21.9916995,125.151367 L21.9916995,125.151367 Z M36.9990237,142 L33.8481448,142 L33.8481448,125.428223 L28.1791995,125.428223 L28.1791995,122.725586 L42.667969,122.725586 L42.667969,125.428223 L36.9990237,125.428223 L36.9990237,142 Z M55.1308596,142 L53.2060549,136.647461 L45.836426,136.647461 L43.9511721,142 L40.6289065,142 L47.8403322,122.646484 L51.2680666,122.646484 L58.4794924,142 L55.1308596,142 Z M52.3754885,133.931641 L50.5693361,128.68457 C50.4374995,128.333006 50.2551283,127.779301 50.022217,127.023438 C49.7893057,126.267574 49.6289069,125.713869 49.5410158,125.362305 C49.30371,126.443365 48.9565455,127.625482 48.4995119,128.908691 L46.7592776,133.931641 L52.3754885,133.931641 Z M82.5878907,132.178223 C82.5878907,135.359879 81.7045988,137.792228 79.9379884,139.475342 C78.171378,141.158456 75.6269698,142 72.3046876,142 L66.9125977,142 L66.9125977,122.725586 L72.8715821,122.725586 C75.9389803,122.725586 78.3251869,123.55175 80.0302735,125.204102 C81.7353602,126.856454 82.5878907,129.181137 82.5878907,132.178223 L82.5878907,132.178223 Z M79.2656251,132.283691 C79.2656251,127.669411 77.1079318,125.362305 72.7924806,125.362305 L70.0634767,125.362305 L70.0634767,139.350098 L72.3046876,139.350098 C76.9453358,139.350098 79.2656251,136.994652 79.2656251,132.283691 L79.2656251,132.283691 Z M103.277344,132.336426 C103.277344,135.474137 102.492928,137.913077 100.924072,139.65332 C99.3552168,141.393563 97.1338035,142.263672 94.2597657,142.263672 C91.3505714,142.263672 89.1159746,141.400155 87.5559082,139.673096 C85.9958418,137.946036 85.2158203,135.491715 85.2158203,132.310059 C85.2158203,129.128402 86.0002363,126.685067 87.5690918,124.97998 C89.1379473,123.274894 91.3769386,122.422363 94.2861328,122.422363 C97.1513815,122.422363 99.3662031,123.288077 100.930664,125.019531 C102.495125,126.750985 103.277344,129.189926 103.277344,132.336426 L103.277344,132.336426 Z M88.5644532,132.336426 C88.5644532,134.709485 89.0434523,136.509027 90.0014649,137.735107 C90.9594775,138.961188 92.3788969,139.574219 94.2597657,139.574219 C96.1318453,139.574219 97.544673,138.96778 98.498291,137.754883 C99.4519091,136.541986 99.928711,134.735852 99.928711,132.336426 C99.928711,129.972156 99.4563036,128.179205 98.5114746,126.95752 C97.5666457,125.735834 96.1582125,125.125 94.2861328,125.125 C92.396475,125.125 90.9704638,125.735834 90.0080567,126.95752 C89.0456495,128.179205 88.5644532,129.972156 88.5644532,132.336426 L88.5644532,132.336426 Z M117.968262,136.766113 C117.968262,138.479989 117.348639,139.824702 116.109375,140.800293 C114.870111,141.775884 113.160655,142.263672 110.980957,142.263672 C108.801259,142.263672 107.017097,141.925296 105.628418,141.248535 L105.628418,138.269043 C106.507329,138.682131 107.441157,139.007323 108.429932,139.244629 C109.418706,139.481935 110.339351,139.600586 111.191895,139.600586 C112.439948,139.600586 113.360593,139.363284 113.953857,138.888672 C114.547122,138.41406 114.84375,137.776859 114.84375,136.977051 C114.84375,136.256344 114.571292,135.64551 114.026367,135.144531 C113.481443,134.643552 112.356454,134.050296 110.651367,133.364746 C108.893546,132.652828 107.6543,131.839848 106.933594,130.925781 C106.212887,130.011714 105.852539,128.913092 105.852539,127.629883 C105.852539,126.021476 106.423822,124.755864 107.566406,123.833008 C108.70899,122.910152 110.242666,122.44873 112.16748,122.44873 C114.013193,122.44873 115.850088,122.853023 117.678223,123.661621 L116.67627,126.232422 C114.962394,125.511715 113.433112,125.151367 112.088379,125.151367 C111.068843,125.151367 110.295413,125.373289 109.768066,125.817139 C109.24072,126.260989 108.977051,126.847653 108.977051,127.577148 C108.977051,128.078128 109.082518,128.50659 109.293457,128.862549 C109.504396,129.218508 109.85156,129.554686 110.334961,129.871094 C110.818362,130.187502 111.68847,130.604978 112.945312,131.123535 C114.360359,131.712405 115.397458,132.261716 116.056641,132.771484 C116.715824,133.281253 117.199217,133.85693 117.506836,134.498535 C117.814455,135.14014 117.968262,135.895992 117.968262,136.766113 L117.968262,136.766113 Z M132.250488,136.766113 C132.250488,138.479989 131.630865,139.824702 130.391601,140.800293 C129.152337,141.775884 127.442882,142.263672 125.263184,142.263672 C123.083485,142.263672 121.299323,141.925296 119.910644,141.248535 L119.910644,138.269043 C120.789555,138.682131 121.723384,139.007323 122.712158,139.244629 C123.700933,139.481935 124.621578,139.600586 125.474121,139.600586 C126.722174,139.600586 127.642819,139.363284 128.236084,138.888672 C128.829349,138.41406 129.125976,137.776859 129.125976,136.977051 C129.125976,136.256344 128.853518,135.64551 128.308594,135.144531 C127.763669,134.643552 126.63868,134.050296 124.933594,133.364746 C123.175772,132.652828 121.936527,131.839848 121.21582,130.925781 C120.495113,130.011714 120.134766,128.913092 120.134766,127.629883 C120.134766,126.021476 120.706049,124.755864 121.848633,123.833008 C122.991217,122.910152 124.524893,122.44873 126.449707,122.44873 C128.295419,122.44873 130.132315,122.853023 131.960449,123.661621 L130.958496,126.232422 C129.24462,125.511715 127.715339,125.151367 126.370605,125.151367 C125.351069,125.151367 124.577639,125.373289 124.050293,125.817139 C123.522946,126.260989 123.259277,126.847653 123.259277,127.577148 C123.259277,128.078128 123.364745,128.50659 123.575684,128.862549 C123.786622,129.218508 124.133787,129.554686 124.617187,129.871094 C125.100588,130.187502 125.970697,130.604978 127.227539,131.123535 C128.642585,131.712405 129.679684,132.261716 130.338867,132.771484 C130.99805,133.281253 131.481444,133.85693 131.789062,134.498535 C132.096681,135.14014 132.250488,135.895992 132.250488,136.766113 L132.250488,136.766113 Z M135.418945,142 L135.418945,122.725586 L138.569824,122.725586 L138.569824,142 L135.418945,142 Z M153.999023,142 L143.096191,142 L143.096191,122.725586 L153.999023,122.725586 L153.999023,125.388672 L146.24707,125.388672 L146.24707,130.635742 L153.51123,130.635742 L153.51123,133.272461 L146.24707,133.272461 L146.24707,139.32373 L153.999023,139.32373 L153.999023,142 Z M160.753418,131.69043 L162.941894,131.69043 C164.409675,131.69043 165.473141,131.417971 166.132324,130.873047 C166.791507,130.328122 167.121093,129.519537 167.121093,128.447266 C167.121093,127.357416 166.76514,126.575198 166.053222,126.100586 C165.341305,125.625974 164.26905,125.388672 162.836426,125.388672 L160.753418,125.388672 L160.753418,131.69043 Z M160.753418,134.300781 L160.753418,142 L157.602539,142 L157.602539,122.725586 L163.047363,122.725586 C165.53468,122.725586 167.37597,123.191402 168.571289,124.123047 C169.766607,125.054692 170.364258,126.460928 170.364258,128.341797 C170.364258,130.741223 169.116223,132.450678 166.620117,133.470215 L172.064941,142 L168.479004,142 L163.864746,134.300781 L160.753418,134.300781 Z" id="CTA-DOSSIER" fill="#FFFFFF"></path>
            <path d="M28.1055372,50.8370605 L34.0740597,38 L44.2110743,38 L32.8187752,59.1029906 L32.8187752,72.6269049 L23.3922991,72.6269049 L23.3922991,59.387206 L12,38 L22.1843838,38 L28.1055372,50.8370605 Z M75.4751387,56.0209015 C75.4751387,61.5940219 74.1083099,65.8304361 71.3746112,68.7302711 C68.6409126,71.6301061 64.6385962,73.0800018 59.367542,73.0800018 C54.1720043,73.0800018 50.1885667,71.6225545 47.4171098,68.7076162 C44.645653,65.7926779 43.2599453,61.5487122 43.2599453,55.9755919 C43.2599453,50.4628847 44.6381014,46.2529009 47.394455,43.3455143 C50.1508086,40.4381276 54.1569007,38.9844561 59.4128517,38.9844561 C64.6839059,38.9844561 68.6786708,40.4268003 71.3972661,43.311532 C74.1158614,46.1962637 75.4751387,50.4326778 75.4751387,56.0209015 L75.4751387,56.0209015 Z M52.6843619,56.0209015 C52.6843619,62.4247038 54.9120663,65.626557 59.367542,65.626557 C61.6330381,65.626557 63.3132558,64.8487483 64.4082456,63.2931076 C65.5032354,61.737467 66.050722,59.3134225 66.050722,56.0209015 C66.050722,52.7132772 65.4956838,50.2703539 64.3855907,48.6920583 C63.2754977,47.1137627 61.6179345,46.3246267 59.4128517,46.3246267 C54.9271694,46.3246267 52.6843619,49.556686 52.6843619,56.0209015 L52.6843619,56.0209015 Z M108.561514,39.5055176 L108.561514,59.4417835 C108.561514,63.7764327 107.334389,67.1330924 104.880101,69.5118633 C102.425814,71.8906342 98.8879171,73.0800018 94.266305,73.0800018 C89.7504162,73.0800018 86.2804834,71.9246162 83.8564025,69.6138101 C81.4323217,67.3030041 80.2202995,63.9803264 80.2202995,59.6456772 L80.2202995,39.5055176 L89.214274,39.5055176 L89.214274,58.9433769 C89.214274,61.2843895 89.6522633,62.9834861 90.5282552,64.0407176 C91.404247,65.0979491 92.6955604,65.626557 94.4022341,65.626557 C96.2297343,65.626557 97.5550296,65.1017249 98.3781599,64.052045 C99.2012901,63.0023652 99.6128491,61.2843897 99.6128491,58.8980672 L99.6128491,39.5055176 L108.561514,39.5055176 Z M129.074449,72.6269049 L120.125784,72.6269049 L120.125784,46.8230334 L112.038003,46.8230334 L112.038003,39.5055176 L137.139574,39.5055176 L137.139574,46.8230334 L129.074449,46.8230334 L129.074449,72.6269049 Z M169.206482,72.6269049 L160.212507,72.6269049 L160.212507,59.1246157 L149.813932,59.1246157 L149.813932,72.6269049 L140.819957,72.6269049 L140.819957,39.5055176 L149.813932,39.5055176 L149.813932,51.784445 L160.212507,51.784445 L160.212507,39.5055176 L169.206482,39.5055176 L169.206482,72.6269049 Z" id="YOUTH" fill="#EB942C"></path>
            <path d="M17.9624022,81.2387695 C17.9624022,81.6694357 18.076903,82.07617 18.305908,82.4589844 C18.5349131,82.8417988 18.8544899,83.248533 19.2646482,83.6791992 C20.037113,83.241697 20.5788557,82.8332539 20.8898924,82.4538574 C21.2009291,82.074461 21.3564451,81.6489281 21.3564451,81.1772461 C21.3564451,80.7329079 21.207765,80.3774427 20.9104002,80.1108398 C20.6130354,79.8442369 20.218264,79.7109375 19.726074,79.7109375 C19.1860323,79.7109375 18.7570815,79.8493639 18.4392088,80.1262207 C18.1213361,80.4030776 17.9624022,80.7739235 17.9624022,81.2387695 L17.9624022,81.2387695 Z M19.4902342,91.1337891 C20.741217,91.1337891 21.8110305,90.7680701 22.6997068,90.0366211 L18.7724607,86.1708984 C18.0478477,86.6357445 17.5488293,87.0715312 17.2753904,87.4782715 C17.0019516,87.8850118 16.8652342,88.3481419 16.8652342,88.8676758 C16.8652342,89.537601 17.1027806,90.0827616 17.5778807,90.5031738 C18.0529807,90.9235861 18.6904255,91.1337891 19.4902342,91.1337891 L19.4902342,91.1337891 Z M14.3222654,89.0317383 C14.3222654,88.136226 14.5410132,87.3552279 14.9785154,86.6887207 C15.4160176,86.0222135 16.2055605,85.3608431 17.3471678,84.7045898 C16.6977505,83.945797 16.2551279,83.3049343 16.0192869,82.7819824 C15.7834459,82.2590306 15.6655272,81.717288 15.6655272,81.1567383 C15.6655272,80.1176706 16.0363731,79.2973663 16.778076,78.6958008 C17.5197789,78.0942353 18.5161068,77.793457 19.7670897,77.793457 C20.9770566,77.793457 21.9272424,78.0856904 22.6176756,78.670166 C23.3081087,79.2546416 23.6533201,80.0424755 23.6533201,81.0336914 C23.6533201,81.8129922 23.4226095,82.5205046 22.9611814,83.15625 C22.4997534,83.7919954 21.7290091,84.4277312 20.6489256,85.0634766 L24.1967772,88.4882812 C24.7504909,87.7568323 25.211912,86.6836008 25.5810545,85.2685547 L28.0624998,85.2685547 C27.5839818,87.2099706 26.8183644,88.7924744 25.7656248,90.0161133 L28.8520506,93 L25.745117,93 L24.217285,91.5131836 C23.5200159,92.0737333 22.7766151,92.4958482 21.9870604,92.779541 C21.1975056,93.0632338 20.3242233,93.2050781 19.3671873,93.2050781 C17.7949138,93.2050781 16.5610394,92.8325233 15.6655272,92.0874023 C14.7700149,91.3422814 14.3222654,90.3237369 14.3222654,89.0317383 L14.3222654,89.0317383 Z M44.7421874,93 L43.2451171,88.8369141 L37.5131835,88.8369141 L36.0468749,93 L33.4628905,93 L39.0717772,77.9472656 L41.7377928,77.9472656 L47.3466796,93 L44.7421874,93 Z M42.599121,86.7246094 L41.1943358,82.6435547 C41.0917962,82.3701158 40.9499519,81.9394561 40.7687987,81.3515625 C40.5876454,80.7636689 40.4628908,80.3330092 40.3945311,80.0595703 C40.2099599,80.9003948 39.939943,81.8198192 39.5844725,82.8178711 L38.2309569,86.7246094 L42.599121,86.7246094 Z M54.5996093,84.8686523 L60.1162108,84.8686523 L60.1162108,92.3950195 C59.2138626,92.6889663 58.3474162,92.8974603 57.5168456,93.0205078 C56.686275,93.1435553 55.7890672,93.2050781 54.8251952,93.2050781 C52.5556526,93.2050781 50.8056701,92.533454 49.5751952,91.1901855 C48.3447203,89.8469171 47.7294921,87.9516724 47.7294921,85.5043945 C47.7294921,83.0912965 48.4233328,81.2028877 49.8110351,79.8391113 C51.1987373,78.475335 53.1093627,77.793457 55.5429686,77.793457 C57.1084062,77.793457 58.5917898,78.0942353 59.993164,78.6958008 L59.1318358,80.7363281 C57.9150329,80.1757784 56.6982482,79.8955078 55.4814452,79.8955078 C53.8818278,79.8955078 52.617192,80.3979442 51.6874999,81.402832 C50.7578077,82.4077199 50.2929686,83.7817296 50.2929686,85.5249023 C50.2929686,87.3569428 50.7116656,88.7497511 51.5490722,89.7033691 C52.3864787,90.6569872 53.5913006,91.1337891 55.1635741,91.1337891 C55.9565468,91.1337891 56.8041946,91.034669 57.7065429,90.8364258 L57.7065429,86.9707031 L54.5996093,86.9707031 L54.5996093,84.8686523 Z M65.7285156,84.9814453 L67.430664,84.9814453 C68.5722713,84.9814453 69.3994114,84.7695334 69.9121093,84.3457031 C70.4248072,83.9218729 70.6811523,83.2929729 70.6811523,82.4589844 C70.6811523,81.6113239 70.4042996,81.0029315 69.8505859,80.6337891 C69.2968722,80.2646466 68.4628961,80.0800781 67.3486327,80.0800781 L65.7285156,80.0800781 L65.7285156,84.9814453 Z M65.7285156,87.0117188 L65.7285156,93 L63.277832,93 L63.277832,78.0087891 L67.5126952,78.0087891 C69.4472752,78.0087891 70.8793898,78.3710901 71.809082,79.0957031 C72.7387741,79.8203161 73.2036132,80.9140552 73.2036132,82.3769531 C73.2036132,84.2431734 72.2329198,85.5727499 70.2915038,86.3657227 L74.5263671,93 L71.7373046,93 L68.1484374,87.0117188 L65.7285156,87.0117188 Z M76.2626953,93 L76.2626953,78.0087891 L78.7133789,78.0087891 L78.7133789,93 L76.2626953,93 Z M88.6118164,79.8955078 C87.2036062,79.8955078 86.0961954,80.3945263 85.2895508,81.3925781 C84.4829061,82.39063 84.0795898,83.7680576 84.0795898,85.5249023 C84.0795898,87.3637787 84.4675254,88.7548781 85.2434082,89.6982422 C86.019291,90.6416063 87.1420825,91.1132812 88.6118164,91.1132812 C89.2475618,91.1132812 89.86279,91.0500495 90.4575195,90.923584 C91.0522491,90.7971185 91.6708952,90.6347666 92.3134765,90.4365234 L92.3134765,92.5385742 C91.1376894,92.9829124 89.8046949,93.2050781 88.3144531,93.2050781 C86.1201062,93.2050781 84.4350645,92.5402899 83.2592773,91.2106934 C82.0834902,89.8810969 81.4956055,87.9790163 81.4956055,85.5043945 C81.4956055,83.945793 81.781003,82.5820371 82.3518066,81.4130859 C82.9226103,80.2441348 83.7480415,79.3486359 84.828125,78.7265625 C85.9082085,78.1044891 87.1762622,77.793457 88.6323242,77.793457 C90.1635819,77.793457 91.5786068,78.1147429 92.8774414,78.7573242 L91.9956055,80.7978516 C91.4897435,80.5585926 90.9548368,80.3483896 90.3908691,80.1672363 C89.8269015,79.9860831 89.2338898,79.8955078 88.6118164,79.8955078 L88.6118164,79.8955078 Z M106.856934,78.0087891 L106.856934,87.7089844 C106.856934,88.8164118 106.619387,89.7853962 106.144287,90.6159668 C105.669187,91.4465374 104.982182,92.0856911 104.083252,92.5334473 C103.184322,92.9812034 102.109381,93.2050781 100.858398,93.2050781 C98.9990142,93.2050781 97.5532278,92.7128955 96.5209961,91.7285156 C95.4887644,90.7441357 94.9726563,89.3906336 94.9726563,87.6679688 L94.9726563,78.0087891 L97.4335938,78.0087891 L97.4335938,87.4936523 C97.4335938,88.7309632 97.7207003,89.6435517 98.2949219,90.2314453 C98.8691435,90.8193389 99.7509706,91.1132812 100.94043,91.1132812 C103.250988,91.1132812 104.40625,89.8999145 104.40625,87.4731445 L104.40625,78.0087891 L106.856934,78.0087891 Z M110.254395,93 L110.254395,78.0087891 L112.705078,78.0087891 L112.705078,90.8979492 L119.052246,90.8979492 L119.052246,93 L110.254395,93 Z M125.956543,93 L123.505859,93 L123.505859,80.1108398 L119.09668,80.1108398 L119.09668,78.0087891 L130.365723,78.0087891 L130.365723,80.1108398 L125.956543,80.1108398 L125.956543,93 Z M143.976074,78.0087891 L143.976074,87.7089844 C143.976074,88.8164118 143.738528,89.7853962 143.263428,90.6159668 C142.788328,91.4465374 142.101323,92.0856911 141.202393,92.5334473 C140.303462,92.9812034 139.228522,93.2050781 137.977539,93.2050781 C136.118155,93.2050781 134.672369,92.7128955 133.640137,91.7285156 C132.607905,90.7441357 132.091797,89.3906336 132.091797,87.6679688 L132.091797,78.0087891 L134.552734,78.0087891 L134.552734,87.4936523 C134.552734,88.7309632 134.839841,89.6435517 135.414063,90.2314453 C135.988284,90.8193389 136.870111,91.1132812 138.05957,91.1132812 C140.370129,91.1132812 141.525391,89.8999145 141.525391,87.4731445 L141.525391,78.0087891 L143.976074,78.0087891 Z M149.824219,84.9814453 L151.526367,84.9814453 C152.667975,84.9814453 153.495115,84.7695334 154.007813,84.3457031 C154.520511,83.9218729 154.776856,83.2929729 154.776856,82.4589844 C154.776856,81.6113239 154.500003,81.0029315 153.946289,80.6337891 C153.392575,80.2646466 152.558599,80.0800781 151.444336,80.0800781 L149.824219,80.0800781 L149.824219,84.9814453 Z M149.824219,87.0117188 L149.824219,93 L147.373535,93 L147.373535,78.0087891 L151.608399,78.0087891 C153.542979,78.0087891 154.975093,78.3710901 155.904785,79.0957031 C156.834477,79.8203161 157.299317,80.9140552 157.299317,82.3769531 C157.299317,84.2431734 156.328623,85.5727499 154.387207,86.3657227 L158.62207,93 L155.833008,93 L152.244141,87.0117188 L149.824219,87.0117188 Z M168.838379,93 L160.358399,93 L160.358399,78.0087891 L168.838379,78.0087891 L168.838379,80.0800781 L162.809082,80.0800781 L162.809082,84.1611328 L168.458985,84.1611328 L168.458985,86.2119141 L162.809082,86.2119141 L162.809082,90.918457 L168.838379,90.918457 L168.838379,93 Z" id="&amp;-AGRICULTURE" fill="#EC932D"></path>
        </g>
    </g>
</svg>