<?xml version="1.0" encoding="UTF-8" standalone="no"?>
<svg width="444px" height="347px" viewBox="0 0 444 347" version="1.1" xmlns="http://www.w3.org/2000/svg" xmlns:xlink="http://www.w3.org/1999/xlink">
    <!-- Generator: Sketch 39 (31667) - http://www.bohemiancoding.com/sketch -->
    <title>slogan</title>
    <desc>Created with Sketch.</desc>
    <defs></defs>
    <g id="Desktop-HD" stroke="none" stroke-width="1" fill="none" fill-rule="evenodd">
        <g id="00.00.00-copy-5" transform="translate(-570.000000, -378.000000)">
            <g id="slogan" transform="translate(570.000000, 378.000000)">
                <rect id="Rectangle-12" fill-opacity="0.26" fill="#000000" x="0" y="0" width="444" height="347"></rect>
                <path d="M0,0 L444,0 L444,347 L0,347 L0,0 Z M4.07266436,4.07079646 L439.92267,4.07079646 L439.92267,342.930782 L4.07266436,342.930782 L4.07266436,4.07079646 Z M84.3215615,105.32624 C84.3215615,110.48694 82.4594453,114.511155 78.735157,117.399008 C75.0108687,120.286861 69.9565532,121.730765 63.572059,121.730765 C56.6555235,121.730765 51.3351915,120.83501 47.6109032,119.043471 L47.6109032,112.465618 C50.0050885,113.481714 52.6120512,114.283883 55.4318695,114.87215 C58.2516878,115.460416 61.0448621,115.754545 63.8114763,115.754545 C68.3338264,115.754545 71.7388389,114.892213 74.026616,113.167523 C76.3143931,111.442833 77.4582645,109.04301 77.4582645,105.967982 C77.4582645,103.93579 77.0525892,102.271289 76.2412264,100.974429 C75.4298636,99.6775691 74.0731789,98.481 72.1711316,97.3846856 C70.2690844,96.2883712 67.3761538,95.0450089 63.4922532,93.6545614 C58.0654331,91.702587 54.1882411,89.3896657 51.8605609,86.7157282 C49.5328807,84.0417907 48.3690581,80.5523545 48.3690581,76.2473151 C48.3690581,71.7283607 50.0582635,68.1319686 53.436725,65.4580311 C56.8151866,62.7840936 61.2842655,61.4471449 66.8440959,61.4471449 C72.6433448,61.4471449 77.9769777,62.5167038 82.8451546,64.6558539 L80.7303014,70.5919655 C75.9153287,68.559773 71.2334365,67.543692 66.6844843,67.543692 C63.0932063,67.543692 60.2867312,68.3191222 58.2649747,69.870006 C56.2432182,71.4208897 55.2323551,73.5733772 55.2323551,76.3275328 C55.2323551,78.3597254 55.6047783,80.0242265 56.349636,81.3210862 C57.0944936,82.6179459 58.3514221,83.8078303 60.120459,84.890775 C61.889496,85.9737197 64.5962149,87.1702888 68.240697,88.4805182 C74.3591707,90.6731469 78.5688834,93.0261767 80.8699615,95.539678 C83.1710397,98.0531792 84.3215615,101.315334 84.3215615,105.32624 Z M152.337367,91.5287917 C152.337367,100.914312 149.976469,108.294269 145.254604,113.668884 C140.532738,119.043498 133.968779,121.730765 125.562528,121.730765 C116.970063,121.730765 110.339599,119.090291 105.670937,113.809265 C101.002276,108.528238 98.6679803,101.074749 98.6679803,91.448574 C98.6679803,81.902617 101.008926,74.5026059 105.690889,69.2483186 C110.372851,63.9940314 117.023266,61.3669271 125.642334,61.3669271 C134.021982,61.3669271 140.565991,64.0408246 145.274555,69.3886996 C149.98312,74.7365747 152.337367,82.1165316 152.337367,91.5287917 Z M105.8505,91.5287917 C105.8505,99.4703862 107.533055,105.49334 110.898216,109.597834 C114.263376,113.702328 119.151432,115.754545 125.562528,115.754545 C132.026828,115.754545 136.908233,113.709013 140.206888,109.617889 C143.505544,105.526764 145.154847,99.4971256 145.154847,91.5287917 C145.154847,83.640676 143.512194,77.6578305 140.22684,73.5800758 C136.941485,69.502321 132.080032,67.4634742 125.642334,67.4634742 C119.178033,67.4634742 114.263376,69.5156905 110.898216,73.6201846 C107.533055,77.7246787 105.8505,83.6941547 105.8505,91.5287917 Z M220.911812,120.928588 L214.208127,120.928588 L202.436774,81.6620115 C201.878131,79.9239521 201.252992,77.7313563 200.561339,75.0841581 C199.869685,72.4369599 199.510563,70.845991 199.483961,70.3112035 C198.898715,73.840801 197.967657,77.7045828 196.690758,81.9026647 L185.278532,120.928588 L178.574847,120.928588 L163.052623,62.289431 L170.235143,62.289431 L179.45271,98.5077338 C180.729609,103.588215 181.660667,108.187319 182.245912,112.305182 C182.964168,107.411877 184.028234,102.6256 185.438144,97.9462097 L195.892701,62.289431 L203.075221,62.289431 L214.048515,98.2670806 C215.325414,102.411684 216.402781,107.091004 217.280649,112.305182 C217.786088,108.508191 218.743748,103.882349 220.153657,98.4275161 L229.331322,62.289431 L236.513842,62.289431 L220.911812,120.928588 Z M251.099678,120.928588 L251.099678,62.289431 L257.883169,62.289431 L257.883169,120.928588 L251.099678,120.928588 Z M324.901402,120.928588 L317.160242,120.928588 L285.277833,71.7150137 L284.95861,71.7150137 C285.384243,77.4907187 285.597056,82.7850356 285.597056,87.5981232 L285.597056,120.928588 L279.332303,120.928588 L279.332303,62.289431 L286.993657,62.289431 L318.79626,111.302461 L319.115483,111.302461 C319.062279,110.580498 318.942572,108.260892 318.756357,104.343573 C318.570143,100.426255 318.503639,97.6253472 318.556843,95.9407666 L318.556843,62.289431 L324.901402,62.289431 L324.901402,120.928588 Z M372.047996,90.2051992 L391.879733,90.2051992 L391.879733,118.7226 C388.793894,119.711957 385.654898,120.460649 382.462651,120.968697 C379.270403,121.476745 375.572773,121.730765 371.369647,121.730765 C362.537764,121.730765 355.661234,119.090291 350.739853,113.809265 C345.818473,108.528238 343.357819,101.128227 343.357819,91.6090094 C343.357819,85.5124319 344.574845,80.1713218 347.008933,75.5855189 C349.443022,70.999716 352.94779,67.4969104 357.523345,65.0769969 C362.098899,62.6570834 367.459133,61.4471449 373.604209,61.4471449 C379.829091,61.4471449 385.628253,62.5969208 391.001869,64.896507 L388.368278,70.9128364 C383.10107,68.6667289 378.033454,67.543692 373.165277,67.543692 C366.062528,67.543692 360.516081,69.6694404 356.525772,73.9210011 C352.535464,78.1725618 350.540339,84.0685056 350.540339,91.6090094 C350.540339,99.5238645 352.462309,105.526764 356.306307,109.617889 C360.150304,113.709013 365.796507,115.754545 373.245083,115.754545 C377.288596,115.754545 381.238943,115.286613 385.096241,114.350734 L385.096241,96.3017463 L372.047996,96.3017463 L372.047996,90.2051992 Z M47.2340426,175.690555 L47.2340426,139.855514 L56.9149269,139.855514 L56.9149269,175.690555 L47.2340426,175.690555 Z M100.645538,175.690555 L88.0140567,175.690555 L74.9924138,150.444254 L74.7729479,150.444254 C75.0818273,154.415051 75.2362648,157.446211 75.2362648,159.537825 L75.2362648,175.690555 L66.7014801,175.690555 L66.7014801,139.855514 L79.2841912,139.855514 L92.2570639,164.758662 L92.4033745,164.758662 C92.1757791,161.14736 92.0619831,158.246924 92.0619831,156.057267 L92.0619831,139.855514 L100.645538,139.855514 L100.645538,175.690555 Z M144.376149,175.690555 L131.744668,175.690555 L118.723025,150.444254 L118.503559,150.444254 C118.812438,154.415051 118.966876,157.446211 118.966876,159.537825 L118.966876,175.690555 L110.432091,175.690555 L110.432091,139.855514 L123.014802,139.855514 L135.987675,164.758662 L136.133986,164.758662 C135.90639,161.14736 135.792594,158.246924 135.792594,156.057267 L135.792594,139.855514 L144.376149,139.855514 L144.376149,175.690555 Z M187.521518,157.724013 C187.521518,163.753742 186.050298,168.337248 183.107815,171.474668 C180.165332,174.612088 175.857341,176.180774 170.183712,176.180774 C164.591368,176.180774 160.303698,174.603917 157.320573,171.450157 C154.337447,168.296396 152.845907,163.70472 152.845907,157.674991 C152.845907,151.710625 154.329319,147.155715 157.296188,144.010124 C160.263056,140.864534 164.575111,139.291762 170.232483,139.291762 C175.906111,139.291762 180.205974,140.852278 183.1322,143.973358 C186.058427,147.094437 187.521518,151.677943 187.521518,157.724013 Z M162.990108,157.724013 C162.990108,164.652482 165.387952,168.116665 170.183712,168.116665 C172.622235,168.116665 174.430778,167.27513 175.609397,165.592035 C176.788016,163.908939 177.377317,161.286292 177.377317,157.724013 C177.377317,154.145393 176.779888,151.50232 175.585012,149.794713 C174.390136,148.087107 172.605977,147.233317 170.232483,147.233317 C165.404209,147.233317 162.990108,150.730181 162.990108,157.724013 Z M215.57251,139.855514 L226.350724,139.855514 L214.670262,175.690555 L203.331191,175.690555 L191.699498,139.855514 L202.526482,139.855514 L207.379117,158.018144 C208.387039,162.054304 208.939763,164.864868 209.037304,166.449919 C209.151101,165.306067 209.378693,163.876275 209.720087,162.160499 C210.06148,160.444722 210.362226,159.096632 210.622335,158.116188 L215.57251,139.855514 Z M252.158287,175.690555 L250.40256,168.974549 L238.819638,168.974549 L237.015141,175.690555 L226.432008,175.690555 L238.0637,139.708449 L250.914647,139.708449 L262.69265,175.690555 L252.158287,175.690555 Z M248.402982,161.032994 L246.866721,155.150361 C246.509071,153.843102 246.074208,152.151862 245.562118,150.07659 C245.050028,148.001317 244.712705,146.514333 244.550136,145.615593 C244.403825,146.44897 244.115271,147.821571 243.684465,149.733436 C243.25366,151.645301 242.298586,155.411783 240.819216,161.032994 L248.402982,161.032994 Z M280.867677,175.690555 L271.235563,175.690555 L271.235563,147.772558 L262.530083,147.772558 L262.530083,139.855514 L289.548773,139.855514 L289.548773,147.772558 L280.867677,147.772558 L280.867677,175.690555 Z M296.72612,175.690555 L296.72612,139.855514 L306.407005,139.855514 L306.407005,175.690555 L296.72612,175.690555 Z M349.552373,157.724013 C349.552373,163.753742 348.081154,168.337248 345.13867,171.474668 C342.196187,174.612088 337.888196,176.180774 332.214568,176.180774 C326.622224,176.180774 322.334554,174.603917 319.351428,171.450157 C316.368303,168.296396 314.876762,163.70472 314.876762,157.674991 C314.876762,151.710625 316.360174,147.155715 319.327043,144.010124 C322.293912,140.864534 326.605967,139.291762 332.263338,139.291762 C337.936966,139.291762 342.236829,140.852278 345.163056,143.973358 C348.089282,147.094437 349.552373,151.677943 349.552373,157.724013 Z M325.020964,157.724013 C325.020964,164.652482 327.418808,168.116665 332.214568,168.116665 C334.65309,168.116665 336.461633,167.27513 337.640252,165.592035 C338.818872,163.908939 339.408172,161.286292 339.408172,157.724013 C339.408172,154.145393 338.810743,151.50232 337.615867,149.794713 C336.420992,148.087107 334.636833,147.233317 332.263338,147.233317 C327.435064,147.233317 325.020964,150.730181 325.020964,157.724013 Z M392.014959,175.690555 L379.383478,175.690555 L366.361835,150.444254 L366.142369,150.444254 C366.451249,154.415051 366.605686,157.446211 366.605686,159.537825 L366.605686,175.690555 L358.070901,175.690555 L358.070901,139.855514 L370.653613,139.855514 L383.626485,164.758662 L383.772796,164.758662 C383.5452,161.14736 383.431404,158.246924 383.431404,156.057267 L383.431404,139.855514 L392.014959,139.855514 L392.014959,175.690555 Z M78.2563223,235.016019 L73.7339948,235.016019 L73.7339948,216.619421 L53.2505116,216.619421 L53.2505116,235.016019 L48.7281841,235.016019 L48.7281841,195.923248 L53.2505116,195.923248 L53.2505116,212.555056 L73.7339948,212.555056 L73.7339948,195.923248 L78.2563223,195.923248 L78.2563223,235.016019 Z M116.094902,235.016019 L111.253352,222.582272 L95.6646229,222.582272 L90.8762761,235.016019 L86.3007448,235.016019 L101.676658,195.762812 L105.480734,195.762812 L120.776841,235.016019 L116.094902,235.016019 Z M109.84345,218.491168 L105.321122,206.378291 C104.735877,204.845234 104.132906,202.964592 103.512191,200.736311 C103.122028,202.447631 102.563393,204.328272 101.83627,206.378291 L97.2607384,218.491168 L109.84345,218.491168 Z M133.370193,218.75856 L133.370193,235.016019 L128.847866,235.016019 L128.847866,195.923248 L139.515238,195.923248 C144.285874,195.923248 147.810594,196.841286 150.089504,198.67739 C152.368414,200.513493 153.507851,203.276521 153.507851,206.966554 C153.507851,212.136167 150.900889,215.63006 145.686885,217.448337 L156.24785,235.016019 L150.900863,235.016019 L141.483781,218.75856 L133.370193,218.75856 Z M133.370193,214.854631 L139.568442,214.854631 C142.760689,214.854631 145.101635,214.217352 146.591351,212.942775 C148.081066,211.668198 148.825912,209.756361 148.825912,207.207208 C148.825912,204.622401 148.067765,202.759586 146.551448,201.618706 C145.03513,200.477826 142.601078,199.907395 139.249219,199.907395 L133.370193,199.907395 L133.370193,214.854631 Z M187.46255,195.923248 L192.330703,195.923248 L178.311488,235.016019 L173.842364,235.016019 L159.902955,195.923248 L164.691301,195.923248 L173.629548,221.21857 C174.658161,224.124249 175.473946,226.949667 176.076926,229.69491 C176.715375,226.807057 177.548894,223.928161 178.577507,221.058135 L187.46255,195.923248 Z M222.082297,235.016019 L200.401727,235.016019 L200.401727,195.923248 L222.082297,195.923248 L222.082297,199.960873 L204.924055,199.960873 L204.924055,212.555056 L221.044822,212.555056 L221.044822,216.565942 L204.924055,216.565942 L204.924055,230.951654 L222.082297,230.951654 L222.082297,235.016019 Z M255.371948,224.614454 C255.371948,228.05492 254.130537,230.737731 251.647678,232.662966 C249.164819,234.588201 245.795275,235.550804 241.538946,235.550804 C236.927922,235.550804 233.381034,234.953633 230.898175,233.759275 L230.898175,229.374039 C232.494299,230.051436 234.232274,230.586216 236.112153,230.978393 C237.992032,231.370571 239.854148,231.566657 241.698558,231.566657 C244.713458,231.566657 246.983466,230.991769 248.508651,229.841976 C250.033835,228.692183 250.796416,227.092301 250.796416,225.042282 C250.796416,223.687487 250.525966,222.577819 249.985058,221.713246 C249.444149,220.848673 248.539693,220.05096 247.271661,219.320084 C246.00363,218.589208 244.075009,217.7603 241.485742,216.833335 C237.867862,215.532018 235.283067,213.990071 233.731281,212.207446 C232.179494,210.424821 231.403612,208.09853 231.403612,205.228504 C231.403612,202.215867 232.529749,199.818273 234.782057,198.035648 C237.034364,196.253023 240.01375,195.361724 243.720304,195.361724 C247.58647,195.361724 251.142225,196.074763 254.387676,197.500863 L252.977774,201.458271 C249.767792,200.103476 246.646531,199.426088 243.613896,199.426088 C241.219711,199.426088 239.348727,199.943042 238.00089,200.976964 C236.653052,202.010887 235.979143,203.445878 235.979143,205.281982 C235.979143,206.636777 236.227426,207.746445 236.723997,208.611018 C237.220569,209.475591 238.058521,210.268847 239.237879,210.99081 C240.417237,211.712773 242.221717,212.510486 244.651371,213.383972 C248.730354,214.845725 251.536829,216.414411 253.070881,218.090079 C254.604933,219.765746 255.371948,221.940516 255.371948,224.614454 Z M278.020828,235.016019 L273.4985,235.016019 L273.4985,199.960873 L261.181808,199.960873 L261.181808,195.923248 L290.33752,195.923248 L290.33752,199.960873 L278.020828,199.960873 L278.020828,235.016019 Z M298.913981,235.016019 L298.913981,195.923248 L303.436308,195.923248 L303.436308,235.016019 L298.913981,235.016019 Z M347.207118,235.016019 L342.046344,235.016019 L320.791405,202.206969 L320.578589,202.206969 C320.862345,206.057439 321.00422,209.586984 321.00422,212.795709 L321.00422,235.016019 L316.827718,235.016019 L316.827718,195.923248 L321.935288,195.923248 L343.137023,228.598601 L343.349838,228.598601 C343.314369,228.117292 343.234564,226.570888 343.110421,223.959343 C342.986278,221.347797 342.941942,219.480525 342.977411,218.357471 L342.977411,195.923248 L347.207118,195.923248 L347.207118,235.016019 Z M377.730168,214.53376 L390.951325,214.53376 L390.951325,233.545361 C388.894099,234.204932 386.801435,234.704059 384.673271,235.042758 C382.545106,235.381457 380.080019,235.550804 377.277935,235.550804 C371.390013,235.550804 366.80566,233.790488 363.524739,230.269804 C360.243819,226.749119 358.603383,221.815778 358.603383,215.469633 C358.603383,211.405248 359.414734,207.844508 361.037459,204.787306 C362.660185,201.730104 364.996697,199.394901 368.047067,197.781625 C371.097436,196.168349 374.670926,195.361724 378.767643,195.361724 C382.917564,195.361724 386.783672,196.128241 390.366083,197.661298 L388.610356,201.672185 C385.098884,200.17478 381.720473,199.426088 378.475022,199.426088 C373.739855,199.426088 370.042225,200.843254 367.382019,203.677628 C364.721813,206.512002 363.39173,210.442631 363.39173,215.469633 C363.39173,220.746203 364.673043,224.748137 367.235708,227.475553 C369.798373,230.202969 373.562508,231.566657 378.528226,231.566657 C381.223901,231.566657 383.857465,231.254702 386.428998,230.630783 L386.428998,218.598125 L377.730168,218.598125 L377.730168,214.53376 Z M75.8089451,263.118962 C75.8089451,267.486393 74.5276318,270.85996 71.9649667,273.239765 C69.4023017,275.619569 65.7623078,276.809454 61.044876,276.809454 L58.0920621,276.809454 L58.0920621,289.777986 L47.5843012,289.777986 L47.5843012,250.685215 L61.044876,250.685215 C65.9573896,250.685215 69.6461531,251.763687 72.1112773,253.920663 C74.5764015,256.077639 75.8089451,259.143708 75.8089451,263.118962 Z M58.0920621,268.199418 L60.0074008,268.199418 C61.5857897,268.199418 62.8405013,267.753768 63.7715734,266.862456 C64.7026455,265.971143 65.1681745,264.74115 65.1681745,263.17244 C65.1681745,260.534155 63.7139504,259.215033 60.8054586,259.215033 L58.0920621,259.215033 L58.0920621,268.199418 Z M94.3309796,275.552709 L94.3309796,289.777986 L83.8232187,289.777986 L83.8232187,250.685215 L96.5655414,250.685215 C107.135426,250.685215 112.42029,254.535627 112.42029,262.236567 C112.42029,266.764434 110.221219,270.26724 105.823012,272.745089 L117.155432,289.777986 L105.237769,289.777986 L96.9911723,275.552709 L94.3309796,275.552709 Z M94.3309796,267.611155 L96.2995222,267.611155 C99.9706064,267.611155 101.806121,265.980077 101.806121,262.717873 C101.806121,260.026109 100.006075,258.680248 96.4059299,258.680248 L94.3309796,258.680248 L94.3309796,267.611155 Z M158.900949,270.178122 C158.900949,276.756008 157.295982,281.756196 154.086,285.178836 C150.876018,288.601476 146.176391,290.312771 139.986979,290.312771 C133.88624,290.312771 129.208781,288.592563 125.954463,285.152097 C122.700144,281.711631 121.073009,276.70253 121.073009,270.124643 C121.073009,263.618062 122.691277,258.649069 125.927861,255.217516 C129.164445,251.785963 133.868505,250.070212 140.040183,250.070212 C146.229595,250.070212 150.920355,251.772593 154.112602,255.177407 C157.304849,258.582221 158.900949,263.582409 158.900949,270.178122 Z M132.139411,270.178122 C132.139411,277.736452 134.755241,281.51556 139.986979,281.51556 C142.647185,281.51556 144.620141,280.597522 145.905908,278.761418 C147.191674,276.925314 147.834547,274.064244 147.834547,270.178122 C147.834547,266.274173 147.182807,263.39082 145.879306,261.527977 C144.575805,259.665134 142.62945,258.733726 140.040183,258.733726 C134.772975,258.733726 132.139411,262.548487 132.139411,270.178122 Z M193.171324,277.905763 C193.171324,280.330133 192.559485,282.48262 191.335791,284.363289 C190.112096,286.243959 188.347519,287.705689 186.042007,288.748525 C183.736495,289.791361 181.031993,290.312771 177.92842,290.312771 C175.339153,290.312771 173.166684,290.130054 171.410948,289.764616 C169.655212,289.399178 167.828565,288.761899 165.930951,287.85276 L165.930951,278.440547 C167.934973,279.47447 170.01877,280.281096 172.182404,280.860449 C174.346038,281.439802 176.332295,281.729474 178.141235,281.729474 C179.701889,281.729474 180.845761,281.457628 181.572884,280.913927 C182.300007,280.370227 182.663563,279.670557 182.663563,278.814897 C182.663563,278.280109 182.517254,277.812177 182.224631,277.411087 C181.932008,277.009996 181.462046,276.604455 180.814729,276.194451 C180.167412,275.784447 178.442738,274.946626 175.640654,273.680962 C173.104591,272.522256 171.202572,271.399219 169.934541,270.311818 C168.666509,269.224417 167.726584,267.976598 167.114737,266.568324 C166.502889,265.16005 166.19697,263.493321 166.19697,261.568086 C166.19697,257.967183 167.500452,255.159591 170.107453,253.145225 C172.714455,251.130858 176.296812,250.12369 180.854632,250.12369 C184.88041,250.12369 188.985933,251.059555 193.171324,252.931311 L189.95249,261.08678 C186.316876,259.411112 183.17788,258.573291 180.535409,258.573291 C179.169836,258.573291 178.176708,258.813942 177.555993,259.29525 C176.935278,259.776559 176.624925,260.37373 176.624925,261.08678 C176.624925,261.853308 177.019517,262.539609 177.808711,263.145701 C178.597906,263.751794 180.739339,264.857005 184.233076,266.461367 C187.584936,267.976598 189.912581,269.603219 191.216082,271.341279 C192.519583,273.079338 193.171324,275.267478 193.171324,277.905763 Z M229.224028,263.118962 C229.224028,267.486393 227.942714,270.85996 225.380049,273.239765 C222.817384,275.619569 219.17739,276.809454 214.459958,276.809454 L211.507145,276.809454 L211.507145,289.777986 L200.999384,289.777986 L200.999384,250.685215 L214.459958,250.685215 C219.372472,250.685215 223.061236,251.763687 225.52636,253.920663 C227.991484,256.077639 229.224028,259.143708 229.224028,263.118962 Z M211.507145,268.199418 L213.422483,268.199418 C215.000872,268.199418 216.255584,267.753768 217.186656,266.862456 C218.117728,265.971143 218.583257,264.74115 218.583257,263.17244 C218.583257,260.534155 217.129033,259.215033 214.220541,259.215033 L211.507145,259.215033 L211.507145,268.199418 Z M260.328773,289.777986 L237.238301,289.777986 L237.238301,250.685215 L260.328773,250.685215 L260.328773,259.161554 L247.746062,259.161554 L247.746062,265.31158 L259.397706,265.31158 L259.397706,273.787919 L247.746062,273.787919 L247.746062,281.16795 L260.328773,281.16795 L260.328773,289.777986 Z M279.462652,275.552709 L279.462652,289.777986 L268.954891,289.777986 L268.954891,250.685215 L281.697214,250.685215 C292.267099,250.685215 297.551962,254.535627 297.551962,262.236567 C297.551962,266.764434 295.352891,270.26724 290.954684,272.745089 L302.287105,289.777986 L290.369442,289.777986 L282.122845,275.552709 L279.462652,275.552709 Z M279.462652,267.611155 L281.431195,267.611155 C285.102279,267.611155 286.937793,265.980077 286.937793,262.717873 C286.937793,260.026109 285.137748,258.680248 281.537602,258.680248 L279.462652,258.680248 L279.462652,267.611155 Z M307.641186,289.777986 L307.641186,250.685215 L318.202151,250.685215 L318.202151,289.777986 L307.641186,289.777986 Z M345.582627,289.777986 L335.074866,289.777986 L335.074866,259.32199 L325.577978,259.32199 L325.577978,250.685215 L355.052912,250.685215 L355.052912,259.32199 L345.582627,259.32199 L345.582627,289.777986 Z M376.314945,265.177884 L383.018631,250.685215 L394.404255,250.685215 L381.608729,274.509879 L381.608729,289.777986 L371.021162,289.777986 L371.021162,274.83075 L358.225636,250.685215 L369.664464,250.685215 L376.314945,265.177884 Z" id="Combined-Shape" fill="#FFFFFF"></path>
            </g>
        </g>
    </g>
</svg>