<svg xmlns="http://www.w3.org/2000/svg" width="1064" height="735" viewBox="0 0 1064 735">
  <g fill="#FFF" fill-rule="evenodd">
    <path fill-rule="nonzero" d="M7,8 L7,728 L1056,728 L1056,8 L7,8 Z M0,0 L1064,0 L1064,735 L0,735 L0,0 Z"/>
    <path d="M141.140625 141.046875L141.140625 192.78125C141.140625 198.68753 139.819024 203.864561 137.175781 208.3125 134.532539 212.760439 130.713567 216.169259 125.71875 218.539062 120.723933 220.908866 114.817742 222.09375 108 222.09375 97.7186986 222.09375 89.7344034 219.459662 84.046875 214.191406 78.3593466 208.923151 75.515625 201.713587 75.515625 192.5625L75.515625 141.046875 92.4140625 141.046875 92.4140625 189.992188C92.4140625 196.153677 93.6536334 200.674465 96.1328125 203.554688 98.6119916 206.43491 102.713513 207.875 108.4375 207.875 113.979194 207.875 117.998685 206.425796 120.496094 203.527344 122.993502 200.628892 124.242188 196.08076 124.242188 189.882812L124.242188 141.046875 141.140625 141.046875zM232.648438 221L211.101562 221 176.320312 160.515625 175.828125 160.515625C176.520837 171.19797 176.867188 178.817686 176.867188 183.375L176.867188 221 161.71875 221 161.71875 141.046875 183.101562 141.046875 217.828125 200.929688 218.210938 200.929688C217.66406 190.539011 217.390625 183.19273 217.390625 178.890625L217.390625 141.046875 232.648438 141.046875 232.648438 221zM253.773438 221L253.773438 141.046875 270.726562 141.046875 270.726562 207 303.15625 207 303.15625 221 253.773438 221zM388.375 180.914062C388.375 194.148504 385.093783 204.320277 378.53125 211.429688 371.968717 218.539098 362.562561 222.09375 350.3125 222.09375 338.062439 222.09375 328.656283 218.539098 322.09375 211.429688 315.531217 204.320277 312.25 194.112046 312.25 180.804688 312.25 167.497329 315.540332 157.334671 322.121094 150.316406 328.701856 143.298142 338.135355 139.789062 350.421875 139.789062 362.708395 139.789062 372.105436 143.325485 378.613281 150.398438 385.121126 157.47139 388.375 167.643163 388.375 180.914062zM330.023438 180.914062C330.023438 189.846399 331.718733 196.572894 335.109375 201.09375 338.500017 205.614606 343.567675 207.875 350.3125 207.875 363.838609 207.875 370.601562 198.888111 370.601562 180.914062 370.601562 162.903556 363.875067 153.898438 350.421875 153.898438 343.67705 153.898438 338.591163 156.167946 335.164062 160.707031 331.736962 165.246116 330.023438 171.981726 330.023438 180.914062zM439.90625 154.007812C433.52601 154.007812 428.585955 156.404924 425.085938 161.199219 421.58592 165.993514 419.835938 172.674436 419.835938 181.242188 419.835938 199.070402 426.525975 207.984375 439.90625 207.984375 445.520861 207.984375 452.320273 206.580743 460.304688 203.773438L460.304688 217.992188C453.742155 220.726576 446.414103 222.09375 438.320312 222.09375 426.690046 222.09375 417.794302 218.566442 411.632812 211.511719 405.471323 204.456996 402.390625 194.330795 402.390625 181.132812 402.390625 172.820271 403.903631 165.537792 406.929688 159.285156 409.955744 153.032521 414.303357 148.238298 419.972656 144.902344 425.641955 141.56639 432.28642 139.898438 439.90625 139.898438 447.671914 139.898438 455.473919 141.776023 463.3125 145.53125L457.84375 159.3125C454.854152 157.890618 451.846369 156.651047 448.820312 155.59375 445.794256 154.536453 442.822931 154.007812 439.90625 154.007812zM542.625 221L523.375 221 502.429688 187.3125 495.265625 192.453125 495.265625 221 478.3125 221 478.3125 141.046875 495.265625 141.046875 495.265625 177.632812 501.9375 168.226562 523.59375 141.046875 542.40625 141.046875 514.515625 176.429688 542.625 221zM553.6875 221L553.6875 141.046875 570.640625 141.046875 570.640625 221 553.6875 221zM662.695312 221L641.148438 221 606.367188 160.515625 605.875 160.515625C606.567712 171.19797 606.914062 178.817686 606.914062 183.375L606.914062 221 591.765625 221 591.765625 141.046875 613.148438 141.046875 647.875 200.929688 648.257812 200.929688C647.710935 190.539011 647.4375 183.19273 647.4375 178.890625L647.4375 141.046875 662.695312 141.046875 662.695312 221zM714.171875 176.101562L745.890625 176.101562 745.890625 217.554688C740.749974 219.231779 735.910179 220.407549 731.371094 221.082031 726.832009 221.756514 722.192732 222.09375 717.453125 222.09375 705.385356 222.09375 696.170605 218.548213 689.808594 211.457031 683.446583 204.36585 680.265625 194.184962 680.265625 180.914062 680.265625 168.007748 683.956994 157.945349 691.339844 150.726562 698.722693 143.507776 708.958268 139.898438 722.046875 139.898438 730.250041 139.898438 738.16142 141.539046 745.78125 144.820312L740.148438 158.382812C734.315075 155.466131 728.244823 154.007812 721.9375 154.007812 714.609338 154.007812 708.739605 156.468725 704.328125 161.390625 699.916645 166.312525 697.710938 172.929646 697.710938 181.242188 697.710938 189.919314 699.488263 196.54555 703.042969 201.121094 706.597674 205.696637 711.765591 207.984375 718.546875 207.984375 722.083351 207.984375 725.674461 207.619795 729.320312 206.890625L729.320312 190.210938 714.171875 190.210938 714.171875 176.101562zM826.859375 221L809.90625 221 809.90625 155.15625 788.195312 155.15625 788.195312 141.046875 848.570312 141.046875 848.570312 155.15625 826.859375 155.15625 826.859375 221zM927.390625 221L910.492188 221 910.492188 186.492188 878.828125 186.492188 878.828125 221 861.875 221 861.875 141.046875 878.828125 141.046875 878.828125 172.382812 910.492188 172.382812 910.492188 141.046875 927.390625 141.046875 927.390625 221zM994.617188 221L948.570312 221 948.570312 141.046875 994.617188 141.046875 994.617188 154.9375 965.523438 154.9375 965.523438 172.492188 992.59375 172.492188 992.59375 186.382812 965.523438 186.382812 965.523438 207 994.617188 207 994.617188 221zM110.650879 340.650391C110.650879 346.390328 108.771015 350.78921 105.01123 353.847168 101.251446 356.905126 95.9000998 358.434082 88.9570312 358.434082L83.2421875 358.434082 83.2421875 379 74.2563477 379 74.2563477 324.032227 90.0849609 324.032227C96.9528338 324.032227 102.097395 325.435858 105.518799 328.243164 108.940203 331.05047 110.650879 335.186171 110.650879 340.650391zM83.2421875 350.876953L88.0170898 350.876953C92.6290921 350.876953 96.0128473 350.074878 98.168457 348.470703 100.324067 346.866528 101.401855 344.360043 101.401855 340.951172 101.401855 337.792953 100.436859 335.436857 98.5068359 333.882812 96.5768133 332.328768 93.5690308 331.551758 89.4833984 331.551758L83.2421875 331.551758 83.2421875 350.876953zM171.431152 351.440918C171.431152 360.389205 169.194114 367.344702 164.719971 372.307617 160.245827 377.270533 153.910686 379.751953 145.714355 379.751953 137.417765 379.751953 131.045026 377.289331 126.595947 372.364014 122.146869 367.438696 119.922363 360.439336 119.922363 351.365723 119.922363 342.29211 122.159401 335.32408 126.633545 330.461426 131.107688 325.598771 137.49296 323.16748 145.789551 323.16748 153.960816 323.16748 160.277159 325.636369 164.73877 330.574219 169.20038 335.512069 171.431152 342.467566 171.431152 351.440918zM129.472168 351.440918C129.472168 358.20853 130.838202 363.340559 133.570312 366.837158 136.302423 370.333758 140.350396 372.082031 145.714355 372.082031 151.053249 372.082031 155.082425 370.352556 157.802002 366.893555 160.521579 363.434553 161.881348 358.283726 161.881348 351.440918 161.881348 344.698371 160.534112 339.585141 157.8396 336.101074 155.145087 332.617007 151.128445 330.875 145.789551 330.875 140.400526 330.875 136.333754 332.617007 133.589111 336.101074 130.844469 339.585141 129.472168 344.698371 129.472168 351.440918zM234.204102 379L224.428711 379 215.104492 346.214844C214.703449 344.786126 214.202151 342.724541 213.600586 340.030029 212.99902 337.335517 212.63558 335.461919 212.510254 334.40918 212.259602 336.013354 211.852298 338.093737 211.28833 340.650391 210.724362 343.207044 210.254396 345.111973 209.878418 346.365234L200.779785 379 191.004395 379 183.898438 351.478516 176.679688 324.032227 185.853516 324.032227 193.711426 356.06543C194.939622 361.203802 195.816892 365.74054 196.343262 369.675781 196.618979 367.545237 197.032549 365.164076 197.583984 362.532227 198.135419 359.900377 198.636716 357.769865 199.087891 356.140625L208.036133 324.032227 216.946777 324.032227 226.120605 356.291016C226.997889 359.273778 227.925288 363.735322 228.902832 369.675781 229.27881 366.091453 230.181145 361.52965 231.609863 355.990234L239.430176 324.032227 248.528809 324.032227 234.204102 379zM288.404785 379L257.311523 379 257.311523 324.032227 288.404785 324.032227 288.404785 331.626953 266.297363 331.626953 266.297363 346.59082 287.013672 346.59082 287.013672 354.110352 266.297363 354.110352 266.297363 371.367676 288.404785 371.367676 288.404785 379zM310.271484 349.598633L316.512695 349.598633C320.698589 349.598633 323.731436 348.821622 325.611328 347.267578 327.49122 345.713534 328.431152 343.407567 328.431152 340.349609 328.431152 337.241521 327.416026 335.010749 325.385742 333.657227 323.355459 332.303704 320.297546 331.626953 316.211914 331.626953L310.271484 331.626953 310.271484 349.598633zM310.271484 357.042969L310.271484 379 301.285645 379 301.285645 324.032227 316.813477 324.032227C323.906937 324.032227 329.158023 325.360664 332.566895 328.017578 335.975766 330.674492 337.680176 334.684869 337.680176 340.048828 337.680176 346.891636 334.120967 351.76675 327.002441 354.674316L342.530273 379 332.303711 379 319.144531 357.042969 310.271484 357.042969zM421.304688 351.440918C421.304688 360.389205 419.067649 367.344702 414.593506 372.307617 410.119362 377.270533 403.784221 379.751953 395.587891 379.751953 387.2913 379.751953 380.918561 377.289331 376.469482 372.364014 372.020404 367.438696 369.795898 360.439336 369.795898 351.365723 369.795898 342.29211 372.032937 335.32408 376.50708 330.461426 380.981224 325.598771 387.366495 323.16748 395.663086 323.16748 403.834351 323.16748 410.150694 325.636369 414.612305 330.574219 419.073916 335.512069 421.304688 342.467566 421.304688 351.440918zM379.345703 351.440918C379.345703 358.20853 380.711738 363.340559 383.443848 366.837158 386.175958 370.333758 390.223932 372.082031 395.587891 372.082031 400.926785 372.082031 404.95596 370.352556 407.675537 366.893555 410.395115 363.434553 411.754883 358.283726 411.754883 351.440918 411.754883 344.698371 410.407647 339.585141 407.713135 336.101074 405.018623 332.617007 401.00198 330.875 395.663086 330.875 390.274062 330.875 386.207289 332.617007 383.462646 336.101074 380.718004 339.585141 379.345703 344.698371 379.345703 351.440918zM443.020996 379L434.110352 379 434.110352 324.032227 465.128418 324.032227 465.128418 331.626953 443.020996 331.626953 443.020996 348.809082 463.737305 348.809082 463.737305 356.441406 443.020996 356.441406 443.020996 379zM528.788574 364.07373C528.788574 368.96145 527.021502 372.796373 523.487305 375.578613 519.953107 378.360854 515.077993 379.751953 508.861816 379.751953 502.645639 379.751953 497.557474 378.786956 493.597168 376.856934L493.597168 368.359863C496.103691 369.537929 498.766832 370.465329 501.58667 371.14209 504.406508 371.818851 507.032052 372.157227 509.463379 372.157227 513.022641 372.157227 515.648185 371.480476 517.340088 370.126953 519.031991 368.773431 519.87793 366.956229 519.87793 364.675293 519.87793 362.619944 519.100919 360.877937 517.546875 359.449219 515.992831 358.020501 512.78453 356.328623 507.921875 354.373535 502.908829 352.343252 499.374685 350.024753 497.319336 347.417969 495.263987 344.811185 494.236328 341.678078 494.236328 338.018555 494.236328 333.431618 495.865544 329.822279 499.124023 327.19043 502.382503 324.558581 506.75632 323.242676 512.245605 323.242676 517.509304 323.242676 522.747858 324.395659 527.961426 326.70166L525.104004 334.033203C520.216284 331.977854 515.855 330.950195 512.02002 330.950195 509.112453 330.950195 506.906746 331.583083 505.402832 332.848877 503.898918 334.114671 503.146973 335.78775 503.146973 337.868164 503.146973 339.296882 503.447751 340.518794 504.049316 341.533936 504.650882 342.549077 505.640944 343.507808 507.019531 344.410156 508.398119 345.312505 510.879539 346.503085 514.463867 347.981934 518.499369 349.661304 521.457022 351.227857 523.336914 352.681641 525.216806 354.135424 526.595373 355.777172 527.472656 357.606934 528.349939 359.436695 528.788574 361.592273 528.788574 364.07373zM564.19043 379L548.249023 333.093262 547.948242 333.093262C548.374351 339.911004 548.587402 346.302542 548.587402 352.268066L548.587402 379 540.428711 379 540.428711 324.032227 553.099121 324.032227 568.36377 367.758301 568.589355 367.758301 584.305176 324.032227 597.013184 324.032227 597.013184 379 588.365723 379 588.365723 351.816895C588.365723 349.084785 588.434651 345.525575 588.57251 341.13916 588.710369 336.752745 588.829427 334.095871 588.929688 333.168457L588.628906 333.168457 572.123535 379 564.19043 379zM646.589355 379L641.100098 363.735352 620.083008 363.735352 614.706543 379 605.231934 379 625.797852 323.806641 635.573242 323.806641 656.13916 379 646.589355 379zM638.731445 355.990234L633.580566 341.026367C633.204588 340.023758 632.684492 338.444672 632.020264 336.289062 631.356035 334.133453 630.898602 332.554367 630.647949 331.551758 629.971188 334.634781 628.981126 338.006004 627.677734 341.665527L622.714844 355.990234 638.731445 355.990234zM664.395508 379L664.395508 324.032227 673.381348 324.032227 673.381348 371.29248 696.654297 371.29248 696.654297 379 664.395508 379zM707.128906 379L707.128906 324.032227 716.114746 324.032227 716.114746 371.29248 739.387695 371.29248 739.387695 379 707.128906 379zM745.312988 362.118652L745.312988 354.599121 764.638184 354.599121 764.638184 362.118652 745.312988 362.118652zM807.333984 364.07373C807.333984 368.96145 805.566912 372.796373 802.032715 375.578613 798.498517 378.360854 793.623403 379.751953 787.407227 379.751953 781.19105 379.751953 776.102884 378.786956 772.142578 376.856934L772.142578 368.359863C774.649101 369.537929 777.312242 370.465329 780.13208 371.14209 782.951918 371.818851 785.577462 372.157227 788.008789 372.157227 791.568052 372.157227 794.193595 371.480476 795.885498 370.126953 797.577401 368.773431 798.42334 366.956229 798.42334 364.675293 798.42334 362.619944 797.646329 360.877937 796.092285 359.449219 794.538241 358.020501 791.32994 356.328623 786.467285 354.373535 781.454239 352.343252 777.920095 350.024753 775.864746 347.417969 773.809397 344.811185 772.781738 341.678078 772.781738 338.018555 772.781738 333.431618 774.410954 329.822279 777.669434 327.19043 780.927913 324.558581 785.30173 323.242676 790.791016 323.242676 796.054714 323.242676 801.293268 324.395659 806.506836 326.70166L803.649414 334.033203C798.761694 331.977854 794.40041 330.950195 790.56543 330.950195 787.657863 330.950195 785.452156 331.583083 783.948242 332.848877 782.444328 334.114671 781.692383 335.78775 781.692383 337.868164 781.692383 339.296882 781.993161 340.518794 782.594727 341.533936 783.196292 342.549077 784.186354 343.507808 785.564941 344.410156 786.943529 345.312505 789.42495 346.503085 793.009277 347.981934 797.044779 349.661304 800.002432 351.227857 801.882324 352.681641 803.762216 354.135424 805.140783 355.777172 806.018066 357.606934 806.895349 359.436695 807.333984 361.592273 807.333984 364.07373zM842.359863 330.950195C837.196426 330.950195 833.13592 332.77993 830.178223 336.439453 827.220526 340.098977 825.741699 345.149545 825.741699 351.591309 825.741699 358.333855 827.16413 363.434553 830.009033 366.893555 832.853937 370.352556 836.970839 372.082031 842.359863 372.082031 844.69093 372.082031 846.946766 371.850181 849.127441 371.386475 851.308116 370.922768 853.576486 370.327478 855.932617 369.600586L855.932617 377.308105C851.621398 378.937345 846.733751 379.751953 841.269531 379.751953 833.223593 379.751953 827.045106 377.314396 822.733887 372.439209 818.422667 367.564022 816.26709 360.589726 816.26709 351.516113 816.26709 345.801241 817.313547 340.800803 819.406494 336.514648 821.499441 332.228494 824.526022 328.944998 828.486328 326.664062 832.446634 324.383127 837.096165 323.242676 842.435059 323.242676 848.04967 323.242676 853.238095 324.420724 858.000488 326.776855L854.76709 334.258789C852.912263 333.381506 850.950938 332.610762 848.883057 331.946533 846.815175 331.282305 844.640799 330.950195 842.359863 330.950195zM902.876953 379L897.387695 363.735352 876.370605 363.735352 870.994141 379 861.519531 379 882.085449 323.806641 891.86084 323.806641 912.426758 379 902.876953 379zM895.019043 355.990234L889.868164 341.026367C889.492186 340.023758 888.97209 338.444672 888.307861 336.289062 887.643633 334.133453 887.186199 332.554367 886.935547 331.551758 886.258786 334.634781 885.268724 338.006004 883.965332 341.665527L879.002441 355.990234 895.019043 355.990234zM920.683105 379L920.683105 324.032227 929.668945 324.032227 929.668945 371.29248 952.941895 371.29248 952.941895 379 920.683105 379zM994.509766 379L963.416504 379 963.416504 324.032227 994.509766 324.032227 994.509766 331.626953 972.402344 331.626953 972.402344 346.59082 993.118652 346.59082 993.118652 354.110352 972.402344 354.110352 972.402344 371.367676 994.509766 371.367676 994.509766 379zM138.9375 567L134.4375 549.875 104.75 549.875 100.125 567 73 567 102.8125 475.25 135.75 475.25 165.9375 567 138.9375 567zM129.3125 529.625L125.375 514.625C124.458329 511.29165 123.343757 506.979193 122.03125 501.6875 120.718743 496.395807 119.854169 492.604178 119.4375 490.3125 119.062498 492.437511 118.322922 495.937476 117.21875 500.8125 116.114578 505.687524 113.666686 515.291595 109.875 529.625L129.3125 529.625zM212.9375 513.5L252.375 513.5 252.375 562.75C241.666613 566.416685 229.895897 568.25 217.0625 568.25 202.979096 568.25 192.093788 564.166708 184.40625 556 176.718712 547.833292 172.875 536.187576 172.875 521.0625 172.875 506.312426 177.083291 494.833374 185.5 486.625 193.916709 478.416626 205.708258 474.3125 220.875 474.3125 226.625029 474.3125 232.052058 474.854161 237.15625 475.9375 242.260442 477.020839 246.708314 478.395825 250.5 480.0625L242.6875 499.4375C236.104134 496.187484 228.875039 494.5625 221 494.5625 213.791631 494.5625 208.21877 496.906227 204.28125 501.59375 200.34373 506.281273 198.375 512.979123 198.375 521.6875 198.375 530.229209 200.156232 536.739561 203.71875 541.21875 207.281268 545.697939 212.416633 547.9375 219.125 547.9375 222.791685 547.9375 226.166651 547.583337 229.25 546.875L229.25 532.5625 212.9375 532.5625 212.9375 513.5zM298.6875 533.75L298.6875 567 274 567 274 475.625 303.9375 475.625C328.770958 475.625 341.1875 484.62491 341.1875 502.625 341.1875 513.208386 336.020885 521.395804 325.6875 527.1875L352.3125 567 324.3125 567 304.9375 533.75 298.6875 533.75zM298.6875 515.1875L303.3125 515.1875C311.937543 515.1875 316.25 511.375038 316.25 503.75 316.25 497.458302 312.020876 494.3125 303.5625 494.3125L298.6875 494.3125 298.6875 515.1875zM363.625 567L363.625 475.625 388.4375 475.625 388.4375 567 363.625 567zM451.875 494.5625C445.999971 494.5625 441.416683 496.968726 438.125 501.78125 434.833317 506.593774 433.1875 513.229124 433.1875 521.6875 433.1875 539.270921 439.874933 548.0625 453.25 548.0625 457.291687 548.0625 461.208314 547.500006 465 546.375 468.791686 545.249994 472.604148 543.895841 476.4375 542.3125L476.4375 563.1875C468.812462 566.562517 460.187548 568.25 450.5625 568.25 436.770764 568.25 426.197953 564.25004 418.84375 556.25 411.489547 548.24996 407.8125 536.687576 407.8125 521.5625 407.8125 512.104119 409.593732 503.791703 413.15625 496.625 416.718768 489.458298 421.843717 483.947936 428.53125 480.09375 435.218783 476.239564 443.083288 474.3125 452.125 474.3125 462.000049 474.3125 471.437455 476.458312 480.4375 480.75L472.875 500.1875C469.499983 498.604159 466.125017 497.270839 462.75 496.1875 459.374983 495.104161 455.750019 494.5625 451.875 494.5625zM574.9375 475.625L574.9375 530.625C574.9375 542.583393 571.552117 551.843717 564.78125 558.40625 558.010383 564.968783 548.250064 568.25 535.5 568.25 523.041604 568.25 513.468783 565.062532 506.78125 558.6875 500.093717 552.312468 496.75 543.145893 496.75 531.1875L496.75 475.625 521.5625 475.625 521.5625 529.25C521.5625 535.708366 522.770821 540.395819 525.1875 543.3125 527.604179 546.229181 531.166643 547.6875 535.875 547.6875 540.916692 547.6875 544.572905 546.239598 546.84375 543.34375 549.114595 540.447902 550.25 535.708366 550.25 529.125L550.25 475.625 574.9375 475.625zM597.125 567L597.125 475.625 621.8125 475.625 621.8125 547.0625 657 547.0625 657 567 597.125 567zM712.375 567L687.6875 567 687.6875 495.8125 665.375 495.8125 665.375 475.625 734.625 475.625 734.625 495.8125 712.375 495.8125 712.375 567zM828.375 475.625L828.375 530.625C828.375 542.583393 824.989617 551.843717 818.21875 558.40625 811.447883 564.968783 801.687564 568.25 788.9375 568.25 776.479104 568.25 766.906283 565.062532 760.21875 558.6875 753.531217 552.312468 750.1875 543.145893 750.1875 531.1875L750.1875 475.625 775 475.625 775 529.25C775 535.708366 776.208321 540.395819 778.625 543.3125 781.041679 546.229181 784.604143 547.6875 789.3125 547.6875 794.354192 547.6875 798.010405 546.239598 800.28125 543.34375 802.552095 540.447902 803.6875 535.708366 803.6875 529.125L803.6875 475.625 828.375 475.625zM875.25 533.75L875.25 567 850.5625 567 850.5625 475.625 880.5 475.625C905.333457 475.625 917.75 484.62491 917.75 502.625 917.75 513.208386 912.583385 521.395804 902.25 527.1875L928.875 567 900.875 567 881.5 533.75 875.25 533.75zM875.25 515.1875L879.875 515.1875C888.500043 515.1875 892.8125 511.375038 892.8125 503.75 892.8125 497.458302 888.583376 494.3125 880.125 494.3125L875.25 494.3125 875.25 515.1875zM994.4375 567L940.1875 567 940.1875 475.625 994.4375 475.625 994.4375 495.4375 964.875 495.4375 964.875 509.8125 992.25 509.8125 992.25 529.625 964.875 529.625 964.875 546.875 994.4375 546.875 994.4375 567z"/>
  </g>
</svg>
