<svg xmlns="http://www.w3.org/2000/svg" width="1062" height="735" viewBox="0 0 1062 735">
  <g fill="#FFF" fill-rule="evenodd">
    <path fill-rule="nonzero" d="M11,8 L11,728 L1058,728 L1058,8 L11,8 Z M4,0 L1066,0 L1066,735 L4,735 L4,0 Z"/>
    <path d="M101.701172 221L97.0239258 221 97.0239258 158.969727 75.4541016 158.969727 75.4541016 154.610352 123.270996 154.610352 123.270996 158.969727 101.701172 158.969727 101.701172 221zM182.214355 221L177.537109 221 177.537109 188.350098 138.756836 188.350098 138.756836 221 134.125 221 134.125 154.610352 138.756836 154.610352 138.756836 184.081543 177.537109 184.081543 177.537109 154.610352 182.214355 154.610352 182.214355 221zM238.296875 221L202.01416 221 202.01416 154.610352 238.296875 154.610352 238.296875 158.878906 206.645996 158.878906 206.645996 183.990723 236.525879 183.990723 236.525879 188.259277 206.645996 188.259277 206.645996 216.731445 238.296875 216.731445 238.296875 221zM331.84375 221L315.859375 221 298.467285 193.027344 292.518555 197.295898 292.518555 221 278.441406 221 278.441406 154.610352 292.518555 154.610352 292.518555 184.989746 298.058594 177.179199 316.041016 154.610352 331.662109 154.610352 308.50293 183.990723 331.84375 221zM379.43457 221L341.199219 221 341.199219 154.610352 379.43457 154.610352 379.43457 166.144531 355.276367 166.144531 355.276367 180.721191 377.754395 180.721191 377.754395 192.255371 355.276367 192.255371 355.276367 209.375 379.43457 209.375 379.43457 221zM414.946289 181.947266L428.796387 154.610352 443.963379 154.610352 421.939453 195.161621 421.939453 221 407.953125 221 407.953125 195.615723 385.929199 154.610352 401.187012 154.610352 414.946289 181.947266zM499.683594 221L491.963867 221 491.963867 161.467285 470.938965 161.467285 470.938965 154.610352 520.708496 154.610352 520.708496 161.467285 499.683594 161.467285 499.683594 221zM587.462402 187.714355C587.462402 198.340385 584.775662 206.69577 579.4021 212.780762 574.028538 218.865753 566.558642 221.908203 556.992188 221.908203 547.213818 221.908203 539.668239 218.918731 534.355225 212.939697 529.04221 206.960663 526.385742 198.522027 526.385742 187.623535 526.385742 176.815864 529.049778 168.437774 534.37793 162.489014 539.706081 156.540253 547.274365 153.565918 557.083008 153.565918 566.619188 153.565918 574.066379 156.593231 579.424805 162.647949 584.78323 168.702667 587.462402 177.058052 587.462402 187.714355zM534.55957 187.714355C534.55957 196.705611 536.474346 203.524635 540.303955 208.171631 544.133564 212.818627 549.696253 215.14209 556.992188 215.14209 564.34867 215.14209 569.90379 212.826195 573.657715 208.194336 577.41164 203.562477 579.288574 196.735885 579.288574 187.714355 579.288574 178.783647 577.419208 172.010033 573.68042 167.393311 569.941632 162.776588 564.409216 160.468262 557.083008 160.468262 549.726526 160.468262 544.133564 162.791725 540.303955 167.438721 536.474346 172.085717 534.55957 178.844194 534.55957 187.714355zM657.804688 221L635.28125 162.148438 634.917969 162.148438C635.341799 166.81057 635.553711 172.350554 635.553711 178.768555L635.553711 221 628.424316 221 628.424316 154.610352 640.049316 154.610352 661.074219 209.375 661.4375 209.375 682.644043 154.610352 694.178223 154.610352 694.178223 221 686.458496 221 686.458496 178.223633C686.458496 173.319311 686.670408 167.99124 687.094238 162.239258L686.730957 162.239258 664.025879 221 657.804688 221zM771.013184 187.714355C771.013184 198.340385 768.326443 206.69577 762.952881 212.780762 757.579319 218.865753 750.109423 221.908203 740.542969 221.908203 730.7646 221.908203 723.219021 218.918731 717.906006 212.939697 712.592991 206.960663 709.936523 198.522027 709.936523 187.623535 709.936523 176.815864 712.600559 168.437774 717.928711 162.489014 723.256863 156.540253 730.825146 153.565918 740.633789 153.565918 750.16997 153.565918 757.617161 156.593231 762.975586 162.647949 768.334011 168.702667 771.013184 177.058052 771.013184 187.714355zM718.110352 187.714355C718.110352 196.705611 720.025127 203.524635 723.854736 208.171631 727.684345 212.818627 733.247034 215.14209 740.542969 215.14209 747.899451 215.14209 753.454571 212.826195 757.208496 208.194336 760.962421 203.562477 762.839355 196.735885 762.839355 187.714355 762.839355 178.783647 760.969989 172.010033 757.231201 167.393311 753.492413 162.776588 747.959998 160.468262 740.633789 160.468262 733.277307 160.468262 727.684345 162.791725 723.854736 167.438721 720.025127 172.085717 718.110352 178.844194 718.110352 187.714355zM823.826172 154.610352L832.13623 154.610352 808.205078 221 800.576172 221 776.78125 154.610352 784.955078 154.610352 800.212891 197.568359C801.968759 202.502954 803.361323 207.301246 804.390625 211.963379 805.480474 207.059058 806.903312 202.169946 808.65918 197.295898L823.826172 154.610352zM842.263672 221L842.263672 154.610352 849.983398 154.610352 849.983398 221 842.263672 221zM921.05127 221L912.241699 221 875.958984 165.281738 875.595703 165.281738C876.080081 171.820833 876.322266 177.814914 876.322266 183.26416L876.322266 221 869.192871 221 869.192871 154.610352 877.911621 154.610352 914.103516 210.101562 914.466797 210.101562C914.40625 209.284176 914.270021 206.657981 914.058105 202.2229 913.84619 197.78782 913.770508 194.616709 913.831055 192.709473L913.831055 154.610352 921.05127 154.610352 921.05127 221zM969.504883 186.21582L992.07373 186.21582 992.07373 218.502441C988.561994 219.622564 984.989764 220.470212 981.356934 221.04541 977.724103 221.620608 973.516137 221.908203 968.73291 221.908203 958.682079 221.908203 950.856473 218.918731 945.255859 212.939697 939.655245 206.960663 936.85498 198.582573 936.85498 187.805176 936.85498 180.902798 938.239976 174.855739 941.01001 169.663818 943.780043 164.471898 947.768529 160.506117 952.975586 157.766357 958.182643 155.026598 964.28268 153.656738 971.275879 153.656738 978.359899 153.656738 984.959442 154.958483 991.074707 157.562012L988.077637 164.373535C982.083466 161.830554 976.316434 160.559082 970.776367 160.559082 962.693319 160.559082 956.38137 162.965796 951.840332 167.779297 947.299294 172.592798 945.028809 179.268024 945.028809 187.805176 945.028809 196.766158 947.216043 203.562477 951.590576 208.194336 955.96511 212.826195 962.390583 215.14209 970.867188 215.14209 975.468773 215.14209 979.964334 214.61231 984.354004 213.552734L984.354004 193.118164 969.504883 193.118164 969.504883 186.21582zM95.8964844 379L85.4814453 379 85.4814453 314.751953 121.736328 314.751953 121.736328 323.628906 95.8964844 323.628906 95.8964844 343.711914 120.110352 343.711914 120.110352 352.632812 95.8964844 352.632812 95.8964844 379zM190.422852 346.788086C190.422852 357.247123 187.808132 365.376924 182.578613 371.177734 177.349095 376.978545 169.944384 379.878906 160.364258 379.878906 150.666944 379.878906 143.218288 377.000517 138.018066 371.243652 132.817845 365.486788 130.217773 357.305717 130.217773 346.700195 130.217773 336.094674 132.832493 327.950224 138.062012 322.266602 143.29153 316.582979 150.754834 313.741211 160.452148 313.741211 170.002977 313.741211 177.385716 316.626924 182.600586 322.398438 187.815456 328.169951 190.422852 336.299752 190.422852 346.788086zM141.379883 346.788086C141.379883 354.698282 142.976547 360.696757 146.169922 364.783691 149.363297 368.870626 154.094695 370.914062 160.364258 370.914062 166.604523 370.914062 171.313949 368.892598 174.492676 364.849609 177.671403 360.80662 179.260742 354.786173 179.260742 346.788086 179.260742 338.907187 177.686051 332.930684 174.536621 328.858398 171.387191 324.786112 166.692414 322.75 160.452148 322.75 154.153289 322.75 149.399918 324.786112 146.191895 328.858398 142.983871 332.930684 141.379883 338.907187 141.379883 346.788086zM214.724609 344.634766L222.019531 344.634766C226.912134 344.634766 230.45702 343.726572 232.654297 341.910156 234.851573 340.093741 235.950195 337.398455 235.950195 333.824219 235.950195 330.191388 234.763684 327.583992 232.390625 326.001953 230.017566 324.419914 226.443383 323.628906 221.667969 323.628906L214.724609 323.628906 214.724609 344.634766zM214.724609 353.335938L214.724609 379 204.22168 379 204.22168 314.751953 222.371094 314.751953C230.662151 314.751953 236.799785 316.304672 240.78418 319.410156 244.768575 322.515641 246.760742 327.203094 246.760742 333.472656 246.760742 341.470743 242.600628 347.168928 234.280273 350.567383L252.429688 379 240.476562 379 225.095703 353.335938 214.724609 353.335938zM321.02832 379L309.602539 379 298.704102 340.679688C298.235349 339.009757 297.649418 336.600113 296.946289 333.450684 296.243161 330.301254 295.81836 328.111334 295.671875 326.880859 295.378905 328.755869 294.902835 331.187485 294.243652 334.175781 293.584469 337.164077 293.035158 339.390618 292.595703 340.855469L281.960938 379 270.535156 379 262.229492 346.832031 253.791992 314.751953 264.514648 314.751953 273.699219 352.193359C275.134773 358.199249 276.160153 363.50193 276.775391 368.101562 277.097658 365.611316 277.581051 362.82814 278.225586 359.751953 278.87012 356.675766 279.456052 354.185556 279.983398 352.28125L290.442383 314.751953 300.857422 314.751953 311.580078 352.457031C312.605474 355.943377 313.689447 361.158168 314.832031 368.101562 315.271487 363.912088 316.326164 358.58011 317.996094 352.105469L327.136719 314.751953 337.771484 314.751953 321.02832 379zM386.726562 379L380.310547 361.158203 355.745117 361.158203 349.460938 379 338.386719 379 362.424805 314.488281 373.850586 314.488281 397.888672 379 386.726562 379zM377.541992 352.105469L371.521484 334.615234C371.082029 333.443354 370.474125 331.597669 369.697754 329.078125 368.921383 326.558581 368.38672 324.712896 368.09375 323.541016 367.30273 327.144549 366.145515 331.08494 364.62207 335.362305L358.821289 352.105469 377.541992 352.105469zM416.873047 344.634766L424.167969 344.634766C429.060571 344.634766 432.605458 343.726572 434.802734 341.910156 437.000011 340.093741 438.098633 337.398455 438.098633 333.824219 438.098633 330.191388 436.912121 327.583992 434.539062 326.001953 432.166004 324.419914 428.591821 323.628906 423.816406 323.628906L416.873047 323.628906 416.873047 344.634766zM416.873047 353.335938L416.873047 379 406.370117 379 406.370117 314.751953 424.519531 314.751953C432.810588 314.751953 438.948222 316.304672 442.932617 319.410156 446.917012 322.515641 448.90918 327.203094 448.90918 333.472656 448.90918 341.470743 444.749065 347.168928 436.428711 350.567383L454.578125 379 442.625 379 427.244141 353.335938 416.873047 353.335938zM516.145508 346.260742C516.145508 356.866264 513.201201 364.974093 507.3125 370.584473 501.423799 376.194852 492.942438 379 481.868164 379L463.894531 379 463.894531 314.751953 483.757812 314.751953C493.982473 314.751953 501.936495 317.505832 507.620117 323.013672 513.303739 328.521512 516.145508 336.270458 516.145508 346.260742zM505.071289 346.612305C505.071289 331.231368 497.878978 323.541016 483.494141 323.541016L474.397461 323.541016 474.397461 370.166992 481.868164 370.166992C497.336991 370.166992 505.071289 362.315508 505.071289 346.612305zM557.674805 379L557.674805 314.751953 565.145508 314.751953 565.145508 372.232422 593.490234 372.232422 593.490234 379 557.674805 379zM608.388672 379L608.388672 314.751953 615.859375 314.751953 615.859375 379 608.388672 379zM673.296875 379L637.481445 379 637.481445 314.751953 673.296875 314.751953 673.296875 321.387695 644.952148 321.387695 644.952148 342.085938 671.583008 342.085938 671.583008 348.677734 644.952148 348.677734 644.952148 372.320312 673.296875 372.320312 673.296875 379zM727.790039 361.905273C727.790039 367.559599 725.739278 371.968734 721.637695 375.132812 717.536112 378.296891 711.969762 379.878906 704.938477 379.878906 697.321251 379.878906 691.461935 378.897471 687.360352 376.93457L687.360352 369.727539C689.997083 370.840826 692.868149 371.719723 695.973633 372.364258 699.079117 373.008792 702.155258 373.331055 705.202148 373.331055 710.182642 373.331055 713.932605 372.38624 716.452148 370.496582 718.971692 368.606924 720.231445 365.977556 720.231445 362.608398 720.231445 360.381825 719.784672 358.558113 718.891113 357.137207 717.997554 355.716301 716.503428 354.405279 714.408691 353.204102 712.313954 352.002924 709.127951 350.640633 704.850586 349.117188 698.873994 346.978505 694.604017 344.444351 692.040527 341.514648 689.477038 338.584946 688.195312 334.761742 688.195312 330.044922 688.195312 325.093725 690.055645 321.153335 693.776367 318.223633 697.497089 315.293931 702.418915 313.829102 708.541992 313.829102 714.928743 313.829102 720.802708 315.000965 726.164062 317.344727L723.834961 323.848633C718.5322 321.622059 713.376002 320.508789 708.366211 320.508789 704.411113 320.508789 701.320324 321.35839 699.09375 323.057617 696.867176 324.756844 695.753906 327.115219 695.753906 330.132812 695.753906 332.359386 696.164058 334.183098 696.984375 335.604004 697.804692 337.024909 699.188955 338.328607 701.137207 339.515137 703.085459 340.701666 706.066386 342.012688 710.080078 343.448242 716.818393 345.850598 721.454577 348.428697 723.98877 351.182617 726.522962 353.936537 727.790039 357.51072 727.790039 361.905273zM828.382812 379L821 379 808.036133 335.977539C807.420895 334.073233 806.732426 331.670913 805.970703 328.770508 805.208981 325.870103 804.813477 324.126956 804.78418 323.541016 804.139645 327.408222 803.114265 331.641579 801.708008 336.241211L789.139648 379 781.756836 379 764.662109 314.751953 772.572266 314.751953 782.723633 354.43457C784.12989 360.001004 785.15527 365.040017 785.799805 369.551758 786.590824 364.190403 787.762688 358.946315 789.31543 353.819336L800.829102 314.751953 808.739258 314.751953 820.824219 354.170898C822.230476 358.711937 823.416987 363.838839 824.383789 369.551758 824.940432 365.391581 825.995109 360.323272 827.547852 354.34668L837.655273 314.751953 845.56543 314.751953 828.382812 379zM859.628906 379L859.628906 314.751953 867.099609 314.751953 867.099609 379 859.628906 379zM908.49707 379L901.026367 379 901.026367 321.387695 880.679688 321.387695 880.679688 314.751953 928.84375 314.751953 928.84375 321.387695 908.49707 321.387695 908.49707 379zM991.291016 379L983.820312 379 983.820312 348.765625 949.982422 348.765625 949.982422 379 942.511719 379 942.511719 314.751953 949.982422 314.751953 949.982422 342.085938 983.820312 342.085938 983.820312 314.751953 991.291016 314.751953 991.291016 379zM142.422363 567L137.95752 550.008789 108.501953 550.008789 103.913086 567 77 567 106.57959 475.966797 139.259766 475.966797 169.211426 567 142.422363 567zM132.872559 529.916992L128.96582 515.03418C128.056311 511.726871 126.950446 507.448106 125.648193 502.197754 124.345941 496.947402 123.488121 493.185395 123.074707 490.911621 122.702635 493.02003 121.968837 496.492652 120.873291 501.32959 119.777745 506.166528 117.348977 515.695567 113.586914 529.916992L132.872559 529.916992zM215.867676 513.917969L254.99707 513.917969 254.99707 562.783203C244.372343 566.421242 232.693586 568.240234 219.960449 568.240234 205.987072 568.240234 195.186806 564.188843 187.559326 556.085938 179.931847 547.983032 176.118164 536.428298 176.118164 521.421387 176.118164 506.786548 180.293578 495.397176 188.644531 487.25293 196.995484 479.108683 208.694912 475.036621 223.743164 475.036621 229.448271 475.036621 234.832901 475.574051 239.897217 476.648926 244.961532 477.723801 249.374656 479.088045 253.136719 480.741699L245.385254 499.965332C238.85332 496.740707 231.680703 495.128418 223.867188 495.128418 216.715134 495.128418 211.185811 497.453834 207.279053 502.104736 203.372295 506.755638 201.418945 513.401161 201.418945 522.041504 201.418945 530.516481 203.186262 536.975971 206.720947 541.420166 210.255633 545.864361 215.350878 548.086426 222.006836 548.086426 225.644875 548.086426 228.993474 547.73503 232.052734 547.032227L232.052734 532.831543 215.867676 532.831543 215.867676 513.917969zM300.971191 534.009766L300.971191 567 276.476562 567 276.476562 476.338867 306.180176 476.338867C330.819622 476.338867 343.13916 485.268465 343.13916 503.12793 343.13916 513.628633 338.012909 521.752087 327.760254 527.498535L354.177246 567 326.395996 567 307.172363 534.009766 300.971191 534.009766zM300.971191 515.592285L305.560059 515.592285C314.117719 515.592285 318.396484 511.809608 318.396484 504.244141 318.396484 498.001596 314.2004 494.880371 305.808105 494.880371L300.971191 494.880371 300.971191 515.592285zM365.424805 567L365.424805 476.338867 390.043457 476.338867 390.043457 567 365.424805 567zM453.008789 495.128418C447.179658 495.128418 442.632178 497.515845 439.366211 502.290771 436.100244 507.065698 434.467285 513.649209 434.467285 522.041504 434.467285 539.487555 441.102473 548.210449 454.373047 548.210449 458.383158 548.210449 462.269187 547.652349 466.03125 546.536133 469.793313 545.419916 473.57599 544.076342 477.379395 542.505371L477.379395 563.217285C469.813927 566.565935 461.256395 568.240234 451.706543 568.240234 438.022555 568.240234 427.532344 564.271524 420.235596 556.333984 412.938847 548.396445 409.290527 536.924391 409.290527 521.91748 409.290527 512.532993 411.057844 504.285517 414.592529 497.174805 418.127215 490.064092 423.212125 484.59678 429.847412 480.772705 436.482699 476.94863 444.285762 475.036621 453.256836 475.036621 463.054736 475.036621 472.418412 477.165669 481.348145 481.423828L473.844727 500.709473C470.496077 499.138501 467.147478 497.815598 463.798828 496.740723 460.450179 495.665847 456.853535 495.128418 453.008789 495.128418zM575.133301 476.338867L575.133301 530.90918C575.133301 542.774148 571.774366 551.962126 565.056396 558.473389 558.338427 564.984652 548.65436 568.240234 536.003906 568.240234 523.642842 568.240234 514.144809 565.077668 507.509521 558.752441 500.874234 552.427214 497.556641 543.332253 497.556641 531.467285L497.556641 476.338867 522.175293 476.338867 522.175293 529.544922C522.175293 535.952832 523.374174 540.603664 525.771973 543.497559 528.169771 546.391453 531.704404 547.838379 536.375977 547.838379 541.37828 547.838379 545.005929 546.401788 547.259033 543.528564 549.512137 540.65534 550.638672 535.952832 550.638672 529.420898L550.638672 476.338867 575.133301 476.338867zM597.170898 567L597.170898 476.338867 621.665527 476.338867 621.665527 547.218262 656.578125 547.218262 656.578125 567 597.170898 567zM711.543945 567L687.049316 567 687.049316 496.368652 664.911133 496.368652 664.911133 476.338867 733.620117 476.338867 733.620117 496.368652 711.543945 496.368652 711.543945 567zM826.661133 476.338867L826.661133 530.90918C826.661133 542.774148 823.302198 551.962126 816.584229 558.473389 809.866259 564.984652 800.182192 568.240234 787.531738 568.240234 775.170674 568.240234 765.672641 565.077668 759.037354 558.752441 752.402066 552.427214 749.084473 543.332253 749.084473 531.467285L749.084473 476.338867 773.703125 476.338867 773.703125 529.544922C773.703125 535.952832 774.902006 540.603664 777.299805 543.497559 779.697603 546.391453 783.232236 547.838379 787.903809 547.838379 792.906112 547.838379 796.533762 546.401788 798.786865 543.528564 801.039969 540.65534 802.166504 535.952832 802.166504 529.420898L802.166504 476.338867 826.661133 476.338867zM873.193359 534.009766L873.193359 567 848.69873 567 848.69873 476.338867 878.402344 476.338867C903.04179 476.338867 915.361328 485.268465 915.361328 503.12793 915.361328 513.628633 910.235077 521.752087 899.982422 527.498535L926.399414 567 898.618164 567 879.394531 534.009766 873.193359 534.009766zM873.193359 515.592285L877.782227 515.592285C886.339887 515.592285 890.618652 511.809608 890.618652 504.244141 890.618652 498.001596 886.422568 494.880371 878.030273 494.880371L873.193359 494.880371 873.193359 515.592285zM991.473145 567L937.646973 567 937.646973 476.338867 991.473145 476.338867 991.473145 495.996582 962.141602 495.996582 962.141602 510.259277 989.302734 510.259277 989.302734 529.916992 962.141602 529.916992 962.141602 547.032227 991.473145 547.032227 991.473145 567z"/>
  </g>
</svg>
