<svg xmlns="http://www.w3.org/2000/svg" width="1062" height="735" viewBox="0 0 1062 735">
  <g fill="none" fill-rule="evenodd" transform="translate(-4)">
    <path fill="#FFF" fill-rule="nonzero" d="M11,8 L11,728 L1058,728 L1058,8 L11,8 Z M4,0 L1066,0 L1066,735 L4,735 L4,0 Z"/>
    <path fill="#FFF" d="M143.515625 569L134.006836 544.705566 103.390625 544.705566 93.9863281 569 85 569 115.198242 492.302734 122.669434 492.302734 152.710938 569 143.515625 569zM131.237793 536.711914L122.355957 513.044434C121.206537 510.048976 120.022304 506.374371 118.803223 502.020508 118.036943 505.364275 116.939786 509.03888 115.511719 513.044434L106.525391 536.711914 131.237793 536.711914zM164.212402 569L164.212402 492.616211 173.094238 492.616211 173.094238 560.954102 206.792969 560.954102 206.792969 569 164.212402 569zM220.75 569L220.75 492.616211 229.631836 492.616211 229.631836 560.954102 263.330566 560.954102 263.330566 569 220.75 569zM319.868164 569L277.287598 569 277.287598 492.616211 319.868164 492.616211 319.868164 500.505371 286.169434 500.505371 286.169434 525.113281 317.830566 525.113281 317.830566 532.950195 286.169434 532.950195 286.169434 561.058594 319.868164 561.058594 319.868164 569zM346.677734 537.234375L346.677734 569 337.795898 569 337.795898 492.616211 358.746582 492.616211C368.116095 492.616211 375.038633 494.409976 379.514404 497.997559 383.990175 501.585142 386.228027 506.983851 386.228027 514.193848 386.228027 524.29481 381.107961 531.121564 370.867676 534.674316L391.609375 569 381.10791 569 362.612793 537.234375 346.677734 537.234375zM346.677734 529.606445L358.851074 529.606445C365.120637 529.606445 369.718247 528.361259 372.644043 525.87085 375.569839 523.38044 377.032715 519.644882 377.032715 514.664062 377.032715 509.613582 375.543716 505.973807 372.565674 503.744629 369.587632 501.515451 364.807162 500.400879 358.224121 500.400879L346.677734 500.400879 346.677734 529.606445zM495.437012 530.07666C495.437012 542.685447 491.936558 552.324755 484.935547 558.994873 477.934535 565.664991 467.85114 569 454.685059 569L433.316406 569 433.316406 492.616211 456.931641 492.616211C469.087626 492.616211 478.544074 495.890267 485.30127 502.438477 492.058465 508.986686 495.437012 518.199322 495.437012 530.07666zM482.270996 530.494629C482.270996 512.208405 473.720138 503.06543 456.618164 503.06543L445.803223 503.06543 445.803223 558.498535 454.685059 558.498535C473.075776 558.498535 482.270996 549.163993 482.270996 530.494629zM556.049805 569L512.842285 569 512.842285 492.616211 556.049805 492.616211 556.049805 503.169922 525.329102 503.169922 525.329102 523.963867 554.116699 523.963867 554.116699 534.413086 525.329102 534.413086 525.329102 558.394043 556.049805 558.394043 556.049805 569zM602.354492 569L602.354492 492.616211 614.841309 492.616211 614.841309 558.289551 647.181641 558.289551 647.181641 569 602.354492 569zM661.29541 492.616211L662.079102 493.765625C660.233064 501.045284 657.16799 509.38716 652.883789 518.791504L644.001953 518.791504C646.405285 508.725373 648.146804 500.000362 649.226562 492.616211L661.29541 492.616211zM714.33252 569L706.70459 547.788086 677.499023 547.788086 670.027832 569 656.861816 569 685.44043 492.302734 699.024414 492.302734 727.603027 569 714.33252 569zM703.413086 537.025391L696.255371 516.231445C695.732908 514.838209 695.010177 512.643895 694.087158 509.648438 693.164139 506.65298 692.528485 504.458666 692.180176 503.06543 691.239741 507.349631 689.863941 512.034317 688.052734 517.119629L681.15625 537.025391 703.413086 537.025391zM777.92334 492.616211L790.880371 492.616211 764.130371 569 750.964355 569 724.318848 492.616211 737.171387 492.616211 753.106445 540.10791C753.942387 542.371919 754.830562 545.288963 755.770996 548.859131 756.71143 552.429298 757.320962 555.085115 757.599609 556.82666 758.052411 554.179512 758.749019 551.114438 759.689453 547.631348 760.629888 544.148257 761.396156 541.570809 761.988281 539.898926L777.92334 492.616211zM845.066895 569L837.438965 547.788086 808.233398 547.788086 800.762207 569 787.596191 569 816.174805 492.302734 829.758789 492.302734 858.337402 569 845.066895 569zM834.147461 537.025391L826.989746 516.231445C826.467283 514.838209 825.744552 512.643895 824.821533 509.648438 823.898514 506.65298 823.26286 504.458666 822.914551 503.06543 821.974116 507.349631 820.598316 512.034317 818.787109 517.119629L811.890625 537.025391 834.147461 537.025391zM933.056641 569L917.748535 569 880.183594 508.133301 879.765625 508.133301 880.026855 511.529297C880.514488 518.007845 880.758301 523.92901 880.758301 529.292969L880.758301 569 869.420898 569 869.420898 492.616211 884.572266 492.616211 922.032715 553.169434 922.346191 553.169434C922.27653 552.368323 922.137208 549.451278 921.928223 544.418213 921.719237 539.385147 921.614746 535.458022 921.614746 532.636719L921.614746 492.616211 933.056641 492.616211 933.056641 569zM980.60791 569L968.121094 569 968.121094 503.32666 945.655273 503.32666 945.655273 492.616211 1003.07373 492.616211 1003.07373 503.32666 980.60791 503.32666 980.60791 569zM132.066406 397L87.894043 397 87.894043 317.760742 132.066406 317.760742 132.066406 325.944824 97.1079102 325.944824 97.1079102 351.472656 129.952637 351.472656 129.952637 359.602539 97.1079102 359.602539 97.1079102 388.761719 132.066406 388.761719 132.066406 397zM194.341309 375.916504C194.341309 382.890172 191.812037 388.328105 186.753418 392.230469 181.694799 396.132832 174.829633 398.083984 166.157715 398.083984 156.763137 398.083984 149.536646 396.873547 144.478027 394.452637L144.478027 385.563965C147.729997 386.937019 151.270977 388.020992 155.101074 388.815918 158.931171 389.610844 162.725079 390.008301 166.48291 390.008301 172.625519 390.008301 177.250473 388.843029 180.35791 386.512451 183.465348 384.181873 185.019043 380.938986 185.019043 376.783691 185.019043 374.037584 184.468023 371.788339 183.365967 370.035889 182.263911 368.283439 180.421155 366.666511 177.837646 365.185059 175.254137 363.703606 171.324733 362.023447 166.049316 360.144531 158.678186 357.506823 153.411881 354.381366 150.250244 350.768066 147.088607 347.154767 145.507812 342.439482 145.507812 336.62207 145.507812 330.515594 147.802223 325.65578 152.391113 322.04248 156.980003 318.429181 163.050255 316.622559 170.602051 316.622559 178.479043 316.622559 185.7236 318.067857 192.335938 320.958496L189.463379 328.97998C182.923307 326.233873 176.563996 324.86084 170.385254 324.86084 165.5073 324.86084 161.695326 325.908681 158.949219 328.004395 156.203111 330.100108 154.830078 333.00877 154.830078 336.730469 154.830078 339.476576 155.335932 341.725821 156.347656 343.478271 157.35938 345.230722 159.066638 346.838616 161.469482 348.302002 163.872326 349.765388 167.548803 351.382315 172.499023 353.152832 180.809612 356.115737 186.527572 359.295393 189.653076 362.691895 192.77858 366.088396 194.341309 370.496555 194.341309 375.916504zM234.936523 397L225.722656 397 225.722656 325.944824 200.628418 325.944824 200.628418 317.760742 260.030762 317.760742 260.030762 325.944824 234.936523 325.944824 234.936523 397zM300.788574 397L300.788574 317.760742 310.002441 317.760742 310.002441 388.65332 344.960938 388.65332 344.960938 397 300.788574 397zM408.211426 397L398.347168 371.797363 366.586426 371.797363 356.830566 397 347.508301 397 378.835449 317.435547 386.585938 317.435547 417.750488 397 408.211426 397zM395.474609 363.504883L386.260742 338.952637C385.068353 335.845199 383.83985 332.033226 382.575195 327.516602 381.780269 330.985369 380.642097 334.797343 379.160645 338.952637L369.838379 363.504883 395.474609 363.504883zM490.214844 330.605957C483.89157 330.605957 478.995623 332.981666 475.526855 337.733154 472.058088 342.484643 470.32373 349.105915 470.32373 357.597168 470.32373 375.266202 476.954035 384.100586 490.214844 384.100586 495.779325 384.100586 502.518027 382.709487 510.431152 379.927246L510.431152 394.019043C503.927214 396.729017 496.664591 398.083984 488.643066 398.083984 477.116642 398.083984 468.300324 394.58817 462.193848 387.596436 456.087372 380.604701 453.03418 370.568913 453.03418 357.48877 453.03418 349.250447 454.533676 342.03299 457.532715 335.836182 460.531753 329.639373 464.840548 324.887956 470.459229 321.581787 476.077909 318.275618 482.663048 316.622559 490.214844 316.622559 497.911171 316.622559 505.643516 318.48338 513.412109 322.205078L507.992188 335.863281C505.029282 334.454095 502.048355 333.225591 499.049316 332.177734 496.050278 331.129878 493.105483 330.605957 490.214844 330.605957zM531.287109 397L531.287109 317.760742 548.088867 317.760742 548.088867 383.125 580.229004 383.125 580.229004 397 531.287109 397zM643.631348 397L597.995605 397 597.995605 317.760742 643.631348 317.760742 643.631348 331.527344 614.797363 331.527344 614.797363 348.925293 641.625977 348.925293 641.625977 362.691895 614.797363 362.691895 614.797363 383.125 643.631348 383.125 643.631348 397zM611.003418 311.419434L611.003418 309.956055C617.218293 302.729456 621.463856 297.291522 623.740234 293.64209L642.276367 293.64209 642.276367 294.780273C640.397452 296.659189 637.190697 299.450421 632.656006 303.154053 628.121315 306.857685 624.571302 309.612784 622.005859 311.419434L611.003418 311.419434zM748.160156 340.849609C748.160156 348.871134 745.423123 355.04075 739.948975 359.358643 734.474826 363.676535 726.643117 365.835449 716.453613 365.835449L707.131348 365.835449 707.131348 397 697.91748 397 697.91748 317.760742 718.458984 317.760742C738.259865 317.760742 748.160156 325.456954 748.160156 340.849609zM707.131348 357.922363L715.423828 357.922363C723.589885 357.922363 729.49754 356.603529 733.146973 353.96582 736.796405 351.328112 738.621094 347.100615 738.621094 341.283203 738.621094 336.043919 736.904802 332.141614 733.472168 329.576172 730.039534 327.010729 724.691931 325.728027 717.429199 325.728027L707.131348 325.728027 707.131348 357.922363zM837.523926 357.271973C837.523926 369.954653 834.317171 379.92721 827.903564 387.189941 821.489958 394.452673 812.574276 398.083984 801.15625 398.083984 789.485293 398.083984 780.47928 394.515905 774.137939 387.379639 767.796599 380.243373 764.625977 370.171452 764.625977 357.163574 764.625977 344.264096 767.805632 334.26444 774.165039 327.164307 780.524446 320.064173 789.557559 316.51416 801.264648 316.51416 812.646541 316.51416 821.535124 320.127405 827.930664 327.354004 834.326204 334.580603 837.523926 344.553159 837.523926 357.271973zM774.381836 357.271973C774.381836 368.003472 776.667213 376.142306 781.238037 381.688721 785.808861 387.235135 792.448199 390.008301 801.15625 390.008301 809.936567 390.008301 816.566872 387.244168 821.047363 381.71582 825.527854 376.187472 827.768066 368.039605 827.768066 357.271973 827.768066 346.61274 825.536888 338.528104 821.074463 333.017822 816.612038 327.507541 810.008833 324.752441 801.264648 324.752441 792.484331 324.752441 785.808861 327.525607 781.238037 333.072021 776.667213 338.618436 774.381836 346.685006 774.381836 357.271973zM919.028809 317.760742L919.028809 369.033203C919.028809 378.066451 916.300809 385.166478 910.844727 390.333496 905.388645 395.500514 897.891161 398.083984 888.352051 398.083984 878.812941 398.083984 871.432887 395.482448 866.21167 390.279297 860.990452 385.076146 858.379883 377.921921 858.379883 368.816406L858.379883 317.760742 867.59375 317.760742 867.59375 369.466797C867.59375 376.079135 869.400373 381.155744 873.013672 384.696777 876.626971 388.237811 881.938442 390.008301 888.948242 390.008301 895.632846 390.008301 900.78172 388.228778 904.39502 384.669678 908.008319 381.110578 909.814941 376.006869 909.814941 369.358398L909.814941 317.760742 919.028809 317.760742zM953.217773 364.046875L953.217773 397 944.003906 397 944.003906 317.760742 965.737793 317.760742C975.457568 317.760742 982.638893 319.621563 987.281982 323.343262 991.925072 327.06496 994.246582 332.66549 994.246582 340.14502 994.246582 350.623588 988.935112 357.705548 978.312012 361.391113L999.829102 397 988.935059 397 969.748535 364.046875 953.217773 364.046875zM953.217773 356.133789L965.846191 356.133789C972.35013 356.133789 977.119614 354.842054 980.154785 352.258545 983.189957 349.675036 984.70752 345.799831 984.70752 340.632812 984.70752 335.393528 983.162857 331.617687 980.073486 329.305176 976.984115 326.992664 972.024936 325.836426 965.195801 325.836426L953.217773 325.836426 953.217773 356.133789zM85.9492188 226L85.9492188 143.191406 108.322266 143.191406 108.322266 207.931641 140.210938 207.931641 140.210938 226 85.9492188 226zM165.244141 143.304688L166.09375 144.550781C162.619774 158.371163 159.278011 168.962854 156.068359 176.326172L140.322266 176.326172C142.889987 164.35606 144.740229 153.349009 145.873047 143.304688L165.244141 143.304688zM221.882812 226L217.804688 210.480469 190.900391 210.480469 186.708984 226 162.126953 226 189.144531 142.851562 218.994141 142.851562 246.351562 226 221.882812 226zM213.160156 192.128906L209.591797 178.535156C208.761064 175.514308 207.750983 171.606144 206.561523 166.810547 205.372064 162.01495 204.588544 158.578786 204.210938 156.501953 203.871092 158.427744 203.200851 161.599587 202.200195 166.017578 201.199539 170.435569 198.981137 179.139258 195.544922 192.128906L213.160156 192.128906zM289.226562 177.515625L324.966797 177.515625 324.966797 222.148438C315.262321 225.471371 304.59511 227.132812 292.964844 227.132812 280.201759 227.132812 270.336949 223.432329 263.370117 216.03125 256.403285 208.630171 252.919922 198.07624 252.919922 184.369141 252.919922 171.001886 256.733686 160.598996 264.361328 153.160156 271.98897 145.721317 282.675061 142.001953 296.419922 142.001953 301.630885 142.001953 306.549131 142.492834 311.174805 143.474609 315.800479 144.456385 319.831363 145.702466 323.267578 147.212891L316.1875 164.771484C310.221324 161.826157 303.669958 160.353516 296.533203 160.353516 290.000618 160.353516 284.950213 162.477518 281.381836 166.725586 277.813459 170.973654 276.029297 177.04358 276.029297 184.935547 276.029297 192.676471 277.643539 198.576477 280.87207 202.635742 284.100602 206.695007 288.754527 208.724609 294.833984 208.724609 298.156918 208.724609 301.215481 208.403649 304.009766 207.761719L304.009766 194.791016 289.226562 194.791016 289.226562 177.515625zM367.21875 195.867188L367.21875 226 344.845703 226 344.845703 143.191406 371.976562 143.191406C394.481883 143.191406 405.734375 151.347575 405.734375 167.660156 405.734375 177.25135 401.05213 184.671198 391.6875 189.919922L415.816406 226 390.441406 226 372.882812 195.867188 367.21875 195.867188zM367.21875 179.044922L371.410156 179.044922C379.226602 179.044922 383.134766 175.589878 383.134766 168.679688 383.134766 162.977836 379.302122 160.126953 371.636719 160.126953L367.21875 160.126953 367.21875 179.044922zM426.349609 226L426.349609 143.191406 448.835938 143.191406 448.835938 226 426.349609 226zM506.607422 160.353516C501.283177 160.353516 497.129572 162.534158 494.146484 166.895508 491.163397 171.256858 489.671875 177.270144 489.671875 184.935547 489.671875 200.870522 495.732361 208.837891 507.853516 208.837891 511.516294 208.837891 515.065738 208.32813 518.501953 207.308594 521.938168 206.289057 525.393212 205.061856 528.867188 203.626953L528.867188 222.544922C521.956997 225.603531 514.140669 227.132812 505.417969 227.132812 492.919208 227.132812 483.337598 223.507849 476.672852 216.257812 470.008105 209.007776 466.675781 198.529365 466.675781 184.822266 466.675781 176.250608 468.290023 168.71748 471.518555 162.222656 474.747086 155.727832 479.391571 150.734067 485.452148 147.241211 491.512726 143.748355 498.639933 142.001953 506.833984 142.001953 515.783248 142.001953 524.335897 143.946595 532.492188 147.835938L525.638672 165.451172C522.580063 164.016269 519.5215 162.807948 516.462891 161.826172 513.404282 160.844396 510.119158 160.353516 506.607422 160.353516zM618.414062 143.191406L618.414062 193.035156C618.414062 203.87245 615.346059 212.264619 609.209961 218.211914 603.073863 224.159209 594.228573 227.132812 582.673828 227.132812 571.383407 227.132812 562.708038 224.24417 556.647461 218.466797 550.586884 212.689424 547.556641 204.382216 547.556641 193.544922L547.556641 143.191406 570.042969 143.191406 570.042969 191.789062C570.042969 197.641956 571.13801 201.889961 573.328125 204.533203 575.51824 207.176446 578.746723 208.498047 583.013672 208.498047 587.582705 208.498047 590.896149 207.185886 592.954102 204.561523 595.012055 201.937161 596.041016 197.641957 596.041016 191.675781L596.041016 143.191406 618.414062 143.191406zM638.802734 226L638.802734 143.191406 661.175781 143.191406 661.175781 207.931641 693.064453 207.931641 693.064453 226 638.802734 226zM743.529297 226L721.15625 226 721.15625 161.486328 700.935547 161.486328 700.935547 143.191406 763.693359 143.191406 763.693359 161.486328 743.529297 161.486328 743.529297 226zM848.935547 143.191406L848.935547 193.035156C848.935547 203.87245 845.867544 212.264619 839.731445 218.211914 833.595347 224.159209 824.750058 227.132812 813.195312 227.132812 801.904891 227.132812 793.229522 224.24417 787.168945 218.466797 781.108368 212.689424 778.078125 204.382216 778.078125 193.544922L778.078125 143.191406 800.564453 143.191406 800.564453 191.789062C800.564453 197.641956 801.659494 201.889961 803.849609 204.533203 806.039724 207.176446 809.268208 208.498047 813.535156 208.498047 818.10419 208.498047 821.417633 207.185886 823.475586 204.561523 825.533539 201.937161 826.5625 197.641957 826.5625 191.675781L826.5625 143.191406 848.935547 143.191406zM891.697266 195.867188L891.697266 226 869.324219 226 869.324219 143.191406 896.455078 143.191406C918.960399 143.191406 930.212891 151.347575 930.212891 167.660156 930.212891 177.25135 925.530646 184.671198 916.166016 189.919922L940.294922 226 914.919922 226 897.361328 195.867188 891.697266 195.867188zM891.697266 179.044922L895.888672 179.044922C903.705117 179.044922 907.613281 175.589878 907.613281 168.679688 907.613281 162.977836 903.780637 160.126953 896.115234 160.126953L891.697266 160.126953 891.697266 179.044922zM999.992188 226L950.828125 226 950.828125 143.191406 999.992188 143.191406 999.992188 161.146484 973.201172 161.146484 973.201172 174.173828 998.009766 174.173828 998.009766 192.128906 973.201172 192.128906 973.201172 207.761719 999.992188 207.761719 999.992188 226z"/>
  </g>
</svg>
