<svg xmlns="http://www.w3.org/2000/svg" width="1063" height="735" viewBox="0 0 1063 735">
  <g fill="#FFF">
    <path d="M7.00659134,8 L7.00659134,728 L1054.99247,728 L1054.99247,8 L7.00659134,8 Z M0,0 L1063,0 L1063,735 L0,735 L0,0 Z"/>
    <path d="M176.25 259L166.296875 233.570312 134.25 233.570312 124.40625 259 115 259 146.609375 178.71875 154.429688 178.71875 185.875 259 176.25 259zM163.398438 225.203125L154.101562 200.429688C152.898431 197.294255 151.658861 193.447939 150.382812 188.890625 149.580725 192.390643 148.432299 196.236958 146.9375 200.429688L137.53125 225.203125 163.398438 225.203125zM233.859375 186.210938C225.072873 186.210938 218.136744 189.136689 213.050781 194.988281 207.964818 200.839873 205.421875 208.851512 205.421875 219.023438 205.421875 229.487031 207.873673 237.571586 212.777344 243.277344 217.681014 248.983101 224.67183 251.835938 233.75 251.835938 239.328153 251.835938 245.690068 250.833343 252.835938 248.828125L252.835938 256.976562C247.294243 259.054698 240.458374 260.09375 232.328125 260.09375 220.552024 260.09375 211.464876 256.520869 205.066406 249.375 198.667937 242.229131 195.46875 232.075587 195.46875 218.914062 195.46875 210.674438 197.009099 203.45576 200.089844 197.257812 203.170588 191.059865 207.618461 186.283871 213.433594 182.929688 219.248727 179.575504 226.093711 177.898438 233.96875 177.898438 242.354209 177.898438 249.68226 179.429672 255.953125 182.492188L252.015625 190.476562C245.963511 187.632798 239.911489 186.210938 233.859375 186.210938zM307.273438 186.210938C298.486935 186.210938 291.550807 189.136689 286.464844 194.988281 281.378881 200.839873 278.835938 208.851512 278.835938 219.023438 278.835938 229.487031 281.287736 237.571586 286.191406 243.277344 291.095077 248.983101 298.085892 251.835938 307.164062 251.835938 312.742215 251.835938 319.104131 250.833343 326.25 248.828125L326.25 256.976562C320.708306 259.054698 313.872436 260.09375 305.742188 260.09375 293.966087 260.09375 284.878938 256.520869 278.480469 249.375 272.081999 242.229131 268.882812 232.075587 268.882812 218.914062 268.882812 210.674438 270.423162 203.45576 273.503906 197.257812 276.584651 191.059865 281.032523 186.283871 286.847656 182.929688 292.662789 179.575504 299.507773 177.898438 307.382812 177.898438 315.768271 177.898438 323.096323 179.429672 329.367188 182.492188L325.429688 190.476562C319.377574 187.632798 313.325551 186.210938 307.273438 186.210938zM393.265625 259L348.695312 259 348.695312 179.046875 393.265625 179.046875 393.265625 187.304688 357.992188 187.304688 357.992188 213.0625 391.132812 213.0625 391.132812 221.265625 357.992188 221.265625 357.992188 250.6875 393.265625 250.6875 393.265625 259zM415.984375 259L415.984375 179.046875 425.28125 179.046875 425.28125 250.578125 460.554688 250.578125 460.554688 259 415.984375 259zM523.6875 259L479.117188 259 479.117188 179.046875 523.6875 179.046875 523.6875 187.304688 488.414062 187.304688 488.414062 213.0625 521.554688 213.0625 521.554688 221.265625 488.414062 221.265625 488.414062 250.6875 523.6875 250.6875 523.6875 259zM555.703125 225.75L555.703125 259 546.40625 259 546.40625 179.046875 568.335938 179.046875C578.143278 179.046875 585.389299 180.92446 590.074219 184.679688 594.759138 188.434915 597.101562 194.0859 597.101562 201.632812 597.101562 212.205782 591.742241 219.351544 581.023438 223.070312L602.734375 259 591.742188 259 572.382812 225.75 555.703125 225.75zM555.703125 217.765625L568.445312 217.765625C575.007845 217.765625 579.820297 216.462253 582.882812 213.855469 585.945328 211.248685 587.476562 207.338568 587.476562 202.125 587.476562 196.838515 585.917984 193.028658 582.800781 190.695312 579.683578 188.361967 574.679722 187.195312 567.789062 187.195312L555.703125 187.195312 555.703125 217.765625zM670.898438 259L660.945312 233.570312 628.898438 233.570312 619.054688 259 609.648438 259 641.257812 178.71875 649.078125 178.71875 680.523438 259 670.898438 259zM658.046875 225.203125L648.75 200.429688C647.546869 197.294255 646.307298 193.447939 645.03125 188.890625 644.229163 192.390643 643.080737 196.236958 641.585938 200.429688L632.179688 225.203125 658.046875 225.203125zM713.304688 259L704.007812 259 704.007812 187.304688 678.6875 187.304688 678.6875 179.046875 738.625 179.046875 738.625 187.304688 713.304688 187.304688 713.304688 259zM755.65625 259L755.65625 179.046875 764.953125 179.046875 764.953125 259 755.65625 259zM854.335938 259L843.726562 259 800.03125 191.898438 799.59375 191.898438C800.177086 199.773477 800.46875 206.992155 800.46875 213.554688L800.46875 259 791.882812 259 791.882812 179.046875 802.382812 179.046875 845.96875 245.875 846.40625 245.875C846.333333 244.89062 846.169272 241.727891 845.914062 236.386719 845.658853 231.045546 845.567708 227.226574 845.640625 224.929688L845.640625 179.046875 854.335938 179.046875 854.335938 259zM916.484375 217.109375L943.664062 217.109375 943.664062 255.992188C939.434875 257.341153 935.132834 258.361976 930.757812 259.054688 926.382791 259.747399 921.315133 260.09375 915.554688 260.09375 903.45046 260.09375 894.026075 256.493526 887.28125 249.292969 880.536425 242.092412 877.164062 232.002669 877.164062 219.023438 877.164062 210.710896 878.832015 203.428417 882.167969 197.175781 885.503923 190.923146 890.30726 186.147152 896.578125 182.847656 902.84899 179.548161 910.19527 177.898438 918.617188 177.898438 927.14848 177.898438 935.096317 179.46613 942.460938 182.601562L938.851562 190.804688C931.632776 187.742172 924.687533 186.210938 918.015625 186.210938 908.281201 186.210938 900.679715 189.109346 895.210938 194.90625 889.74216 200.703154 887.007812 208.742136 887.007812 219.023438 887.007812 229.815158 889.641901 237.999972 894.910156 243.578125 900.178412 249.156278 907.916616 251.945312 918.125 251.945312 923.666694 251.945312 929.080703 251.307298 934.367188 250.03125L934.367188 225.421875 916.484375 225.421875 916.484375 217.109375zM143.673828 593L133.170898 593 133.170898 537.760742 114.274414 537.760742 114.274414 528.751953 162.570312 528.751953 162.570312 537.760742 143.673828 537.760742 143.673828 593zM184.916992 558.634766L192.211914 558.634766C197.104517 558.634766 200.649403 557.726572 202.84668 555.910156 205.043956 554.093741 206.142578 551.398455 206.142578 547.824219 206.142578 544.191388 204.956067 541.583992 202.583008 540.001953 200.209949 538.419914 196.635766 537.628906 191.860352 537.628906L184.916992 537.628906 184.916992 558.634766zM184.916992 567.335938L184.916992 593 174.414062 593 174.414062 528.751953 192.563477 528.751953C200.854534 528.751953 206.992168 530.304672 210.976562 533.410156 214.960957 536.515641 216.953125 541.203094 216.953125 547.472656 216.953125 555.470743 212.79301 561.168928 204.472656 564.567383L222.62207 593 210.668945 593 195.288086 567.335938 184.916992 567.335938zM273.796875 593L267.380859 575.158203 242.81543 575.158203 236.53125 593 225.457031 593 249.495117 528.488281 260.920898 528.488281 284.958984 593 273.796875 593zM264.612305 566.105469L258.591797 548.615234C258.152342 547.443354 257.544437 545.597669 256.768066 543.078125 255.991695 540.558581 255.457033 538.712896 255.164062 537.541016 254.373043 541.144549 253.215828 545.08494 251.692383 549.362305L245.891602 566.105469 264.612305 566.105469zM348.96582 593L336.089844 593 304.493164 541.803711 304.141602 541.803711 304.361328 544.660156C304.771486 550.109402 304.976562 555.089821 304.976562 559.601562L304.976562 593 295.44043 593 295.44043 528.751953 308.18457 528.751953 339.693359 579.68457 339.957031 579.68457C339.898437 579.010739 339.781251 576.55715 339.605469 572.32373 339.429687 568.090311 339.341797 564.787121 339.341797 562.414062L339.341797 528.751953 348.96582 528.751953 348.96582 593zM404.974609 575.553711C404.974609 581.26663 402.9092 585.749007 398.77832 589.000977 394.64744 592.252946 388.949255 593.878906 381.683594 593.878906 374.417932 593.878906 368.470726 592.750988 363.841797 590.495117L363.841797 580.563477C366.771499 581.940437 369.884261 583.02441 373.180176 583.81543 376.476091 584.606449 379.544908 585.001953 382.386719 585.001953 386.546896 585.001953 389.615713 584.210945 391.593262 582.628906 393.570811 581.046867 394.55957 578.922865 394.55957 576.256836 394.55957 573.85448 393.651376 571.818368 391.834961 570.148438 390.018546 568.478507 386.268583 566.500988 380.584961 564.21582 374.725557 561.842762 370.594739 559.132828 368.192383 556.085938 365.790027 553.039047 364.588867 549.376975 364.588867 545.099609 364.588867 539.738254 366.493145 535.519547 370.301758 532.443359 374.110371 529.367172 379.222624 527.829102 385.638672 527.829102 391.791046 527.829102 397.914032 529.176744 404.007812 531.87207L400.667969 540.441406C394.95505 538.03905 389.857444 536.837891 385.375 536.837891 381.976546 536.837891 379.398446 537.577629 377.640625 539.057129 375.882804 540.536628 375.003906 542.492175 375.003906 544.923828 375.003906 546.593758 375.355465 548.021967 376.058594 549.208496 376.761722 550.395025 377.918937 551.51562 379.530273 552.570312 381.14161 553.625005 384.041971 555.016593 388.231445 556.745117 392.948266 558.708018 396.405262 560.539054 398.602539 562.238281 400.799816 563.937508 402.411128 565.856435 403.436523 567.995117 404.461919 570.1338 404.974609 572.653306 404.974609 575.553711zM429.826172 593L419.411133 593 419.411133 528.751953 455.666016 528.751953 455.666016 537.628906 429.826172 537.628906 429.826172 557.711914 454.040039 557.711914 454.040039 566.632812 429.826172 566.632812 429.826172 593zM526.352539 560.788086C526.352539 571.247123 523.737819 579.376924 518.508301 585.177734 513.278782 590.978545 505.874071 593.878906 496.293945 593.878906 486.596631 593.878906 479.147975 591.000517 473.947754 585.243652 468.747533 579.486788 466.147461 571.305717 466.147461 560.700195 466.147461 550.094674 468.762181 541.950224 473.991699 536.266602 479.221218 530.582979 486.684522 527.741211 496.381836 527.741211 505.932665 527.741211 513.315404 530.626924 518.530273 536.398438 523.745143 542.169951 526.352539 550.299752 526.352539 560.788086zM477.30957 560.788086C477.30957 568.698282 478.906234 574.696757 482.099609 578.783691 485.292985 582.870626 490.024383 584.914062 496.293945 584.914062 502.534211 584.914062 507.243636 582.892598 510.422363 578.849609 513.60109 574.80662 515.19043 568.786173 515.19043 560.788086 515.19043 552.907187 513.615738 546.930684 510.466309 542.858398 507.316879 538.786112 502.622102 536.75 496.381836 536.75 490.082976 536.75 485.329606 538.786112 482.121582 542.858398 478.913558 546.930684 477.30957 552.907187 477.30957 560.788086zM552.654297 558.634766L559.949219 558.634766C564.841821 558.634766 568.386708 557.726572 570.583984 555.910156 572.781261 554.093741 573.879883 551.398455 573.879883 547.824219 573.879883 544.191388 572.693371 541.583992 570.320312 540.001953 567.947254 538.419914 564.373071 537.628906 559.597656 537.628906L552.654297 537.628906 552.654297 558.634766zM552.654297 567.335938L552.654297 593 542.151367 593 542.151367 528.751953 560.300781 528.751953C568.591838 528.751953 574.729472 530.304672 578.713867 533.410156 582.698262 536.515641 584.69043 541.203094 584.69043 547.472656 584.69043 555.470743 580.530315 561.168928 572.209961 564.567383L590.359375 593 578.40625 593 563.025391 567.335938 552.654297 567.335938zM629.449219 593L610.816406 539.342773 610.464844 539.342773C610.962893 547.311563 611.211914 554.782192 611.211914 561.754883L611.211914 593 601.675781 593 601.675781 528.751953 616.485352 528.751953 634.327148 579.860352 634.59082 579.860352 652.959961 528.751953 667.813477 528.751953 667.813477 593 657.706055 593 657.706055 561.227539C657.706055 558.034164 657.78662 553.874049 657.947754 548.74707 658.108888 543.620092 658.248046 540.514654 658.365234 539.430664L658.013672 539.430664 638.72168 593 629.449219 593zM726.59082 593L720.174805 575.158203 695.609375 575.158203 689.325195 593 678.250977 593 702.289062 528.488281 713.714844 528.488281 737.75293 593 726.59082 593zM717.40625 566.105469L711.385742 548.615234C710.946287 547.443354 710.338383 545.597669 709.562012 543.078125 708.785641 540.558581 708.250978 538.712896 707.958008 537.541016 707.166988 541.144549 706.009773 545.08494 704.486328 549.362305L698.685547 566.105469 717.40625 566.105469zM764.142578 593L753.639648 593 753.639648 537.760742 734.743164 537.760742 734.743164 528.751953 783.039062 528.751953 783.039062 537.760742 764.142578 537.760742 764.142578 593zM794.882812 593L794.882812 528.751953 805.385742 528.751953 805.385742 593 794.882812 593zM881.389648 560.788086C881.389648 571.247123 878.774928 579.376924 873.54541 585.177734 868.315892 590.978545 860.911181 593.878906 851.331055 593.878906 841.633741 593.878906 834.185085 591.000517 828.984863 585.243652 823.784642 579.486788 821.18457 571.305717 821.18457 560.700195 821.18457 550.094674 823.79929 541.950224 829.028809 536.266602 834.258327 530.582979 841.721631 527.741211 851.418945 527.741211 860.969774 527.741211 868.352513 530.626924 873.567383 536.398438 878.782253 542.169951 881.389648 550.299752 881.389648 560.788086zM832.34668 560.788086C832.34668 568.698282 833.943343 574.696757 837.136719 578.783691 840.330094 582.870626 845.061492 584.914062 851.331055 584.914062 857.57132 584.914062 862.280746 582.892598 865.459473 578.849609 868.638199 574.80662 870.227539 568.786173 870.227539 560.788086 870.227539 552.907187 868.652848 546.930684 865.503418 542.858398 862.353988 538.786112 857.659211 536.75 851.418945 536.75 845.120086 536.75 840.366715 538.786112 837.158691 542.858398 833.950668 546.930684 832.34668 552.907187 832.34668 560.788086zM950.713867 593L937.837891 593 906.241211 541.803711 905.889648 541.803711 906.109375 544.660156C906.519533 550.109402 906.724609 555.089821 906.724609 559.601562L906.724609 593 897.188477 593 897.188477 528.751953 909.932617 528.751953 941.441406 579.68457 941.705078 579.68457C941.646484 579.010739 941.529298 576.55715 941.353516 572.32373 941.177733 568.090311 941.089844 564.787121 941.089844 562.414062L941.089844 528.751953 950.713867 528.751953 950.713867 593zM173.954102 431L168.260742 412.308594 139.632812 412.308594 133.939453 431 116 431 143.714844 352.152344 164.071289 352.152344 191.893555 431 173.954102 431zM164.286133 398.34375C159.022435 381.406816 156.059411 371.828462 155.396973 369.608398 154.734534 367.388335 154.260093 365.633796 153.973633 364.344727 152.791986 368.928083 149.408231 380.260977 143.822266 398.34375L164.286133 398.34375zM231.585938 386.90332L262.738281 386.90332 262.738281 427.616211C257.689428 429.263355 252.936057 430.418128 248.478027 431.080566 244.019997 431.743005 239.463565 432.074219 234.808594 432.074219 222.956321 432.074219 213.906118 428.591994 207.657715 421.627441 201.409311 414.662888 198.285156 404.663802 198.285156 391.629883 198.285156 378.954038 201.910608 369.071325 209.161621 361.981445 216.412634 354.891566 226.465431 351.34668 239.320312 351.34668 247.376993 351.34668 255.147098 352.957992 262.630859 356.180664L257.098633 369.500977C251.369438 366.636379 245.407583 365.204102 239.212891 365.204102 232.015589 365.204102 226.250673 367.62107 221.917969 372.455078 217.585265 377.289087 215.418945 383.788045 215.418945 391.952148 215.418945 400.474326 217.164533 406.982237 220.655762 411.476074 224.14699 415.969912 229.222623 418.216797 235.882812 418.216797 239.356137 418.216797 242.88312 417.858728 246.463867 417.142578L246.463867 400.760742 231.585938 400.760742 231.585938 386.90332zM298.080078 387.333008L303.451172 387.333008C308.71487 387.333008 312.599922 386.455738 315.106445 384.701172 317.612968 382.946606 318.866211 380.189472 318.866211 376.429688 318.866211 372.705711 317.586113 370.055997 315.025879 368.480469 312.465645 366.90494 308.500027 366.117188 303.128906 366.117188L298.080078 366.117188 298.080078 387.333008zM298.080078 400.868164L298.080078 431 281.429688 431 281.429688 352.474609 304.310547 352.474609C314.981173 352.474609 322.876602 354.417136 327.99707 358.302246 333.117539 362.187357 335.677734 368.086549 335.677734 376 335.677734 380.619164 334.406588 384.728009 331.864258 388.32666 329.321927 391.925311 325.723331 394.745107 321.068359 396.786133 332.884825 414.439216 340.583315 425.843724 344.164062 431L325.6875 431 306.942383 400.868164 298.080078 400.868164zM354.046875 431L354.046875 352.474609 370.697266 352.474609 370.697266 431 354.046875 431zM423.817383 365.204102C417.551075 365.204102 412.699236 367.558407 409.261719 372.26709 405.824202 376.975772 404.105469 383.537393 404.105469 391.952148 404.105469 409.462002 410.676041 418.216797 423.817383 418.216797 429.331733 418.216797 436.009726 416.83823 443.851562 414.081055L443.851562 428.045898C437.406218 430.731459 430.209024 432.074219 422.259766 432.074219 410.837182 432.074219 402.100291 428.609898 396.048828 421.681152 389.997366 414.752407 386.97168 404.807031 386.97168 391.844727 386.97168 383.680623 388.457667 376.528188 391.429688 370.387207 394.401708 364.246226 398.671684 359.537614 404.239746 356.26123 409.807808 352.984847 416.333621 351.34668 423.817383 351.34668 431.444374 351.34668 439.107058 353.190737 446.805664 356.878906L441.43457 370.414062C438.498358 369.017571 435.544286 367.800135 432.572266 366.761719 429.600246 365.723302 426.68198 365.204102 423.817383 365.204102zM524.47168 352.474609L524.47168 403.285156C524.47168 409.085967 523.173678 414.170551 520.577637 418.539062 517.981595 422.907574 514.230819 426.255522 509.325195 428.583008 504.419572 430.910493 498.618849 432.074219 491.922852 432.074219 481.825145 432.074219 473.983426 429.487168 468.397461 424.312988 462.811496 419.138809 460.018555 412.057988 460.018555 403.070312L460.018555 352.474609 476.615234 352.474609 476.615234 400.545898C476.615234 406.597361 477.83267 411.037421 480.267578 413.866211 482.702486 416.695001 486.730766 418.109375 492.352539 418.109375 497.795275 418.109375 501.742989 416.686049 504.195801 413.839355 506.648613 410.992662 507.875 406.525747 507.875 400.438477L507.875 352.474609 524.47168 352.474609zM543.700195 431L543.700195 352.474609 560.350586 352.474609 560.350586 417.25 592.201172 417.25 592.201172 431 543.700195 431zM636.136719 431L619.486328 431 619.486328 366.332031 598.163086 366.332031 598.163086 352.474609 657.459961 352.474609 657.459961 366.332031 636.136719 366.332031 636.136719 431zM733.460938 352.474609L733.460938 403.285156C733.460938 409.085967 732.162936 414.170551 729.566895 418.539062 726.970853 422.907574 723.220077 426.255522 718.314453 428.583008 713.40883 430.910493 707.608106 432.074219 700.912109 432.074219 690.814403 432.074219 682.972684 429.487168 677.386719 424.312988 671.800753 419.138809 669.007812 412.057988 669.007812 403.070312L669.007812 352.474609 685.604492 352.474609 685.604492 400.545898C685.604492 406.597361 686.821928 411.037421 689.256836 413.866211 691.691744 416.695001 695.720024 418.109375 701.341797 418.109375 706.784532 418.109375 710.732247 416.686049 713.185059 413.839355 715.63787 410.992662 716.864258 406.525747 716.864258 400.438477L716.864258 352.474609 733.460938 352.474609zM769.339844 387.333008L774.710938 387.333008C779.974636 387.333008 783.859688 386.455738 786.366211 384.701172 788.872734 382.946606 790.125977 380.189472 790.125977 376.429688 790.125977 372.705711 788.845879 370.055997 786.285645 368.480469 783.72541 366.90494 779.759792 366.117188 774.388672 366.117188L769.339844 366.117188 769.339844 387.333008zM769.339844 400.868164L769.339844 431 752.689453 431 752.689453 352.474609 775.570312 352.474609C786.240939 352.474609 794.136368 354.417136 799.256836 358.302246 804.377304 362.187357 806.9375 368.086549 806.9375 376 806.9375 380.619164 805.666354 384.728009 803.124023 388.32666 800.581693 391.925311 796.983096 394.745107 792.328125 396.786133 804.14459 414.439216 811.843081 425.843724 815.423828 431L796.947266 431 778.202148 400.868164 769.339844 400.868164zM873.37793 431L867.68457 412.308594 839.056641 412.308594 833.363281 431 815.423828 431 843.138672 352.152344 863.495117 352.152344 891.317383 431 873.37793 431zM863.709961 398.34375C858.446263 381.406816 855.483239 371.828462 854.820801 369.608398 854.158363 367.388335 853.683921 365.633796 853.397461 364.344727 852.215814 368.928083 848.832059 380.260977 843.246094 398.34375L863.709961 398.34375zM901.200195 431L901.200195 352.474609 917.850586 352.474609 917.850586 417.25 949.701172 417.25 949.701172 431 901.200195 431z"/>
  </g>
</svg>
