<svg xmlns="http://www.w3.org/2000/svg" width="1063" height="735" viewBox="0 0 1063 735">
  <g fill="#FFF">
    <path d="M7.00659134,8 L7.00659134,728 L1054.99247,728 L1054.99247,8 L7.00659134,8 Z M0,0 L1063,0 L1063,735 L0,735 L0,0 Z"/>
    <path d="M160.351562 169.15625C160.351562 175.119821 158.398457 179.690088 154.492188 182.867188 150.585918 186.044287 145.026078 187.632812 137.8125 187.632812L131.875 187.632812 131.875 209 122.539062 209 122.539062 151.890625 138.984375 151.890625C146.119827 151.890625 151.464826 153.348944 155.019531 156.265625 158.574237 159.182306 160.351562 163.479138 160.351562 169.15625zM131.875 179.78125L136.835938 179.78125C141.627628 179.78125 145.143218 178.947925 147.382812 177.28125 149.622407 175.614575 150.742188 173.010434 150.742188 169.46875 150.742188 166.187484 149.739593 163.739591 147.734375 162.125 145.729157 160.510409 142.604188 159.703125 138.359375 159.703125L131.875 159.703125 131.875 179.78125zM227.460938 180.367188C227.460938 189.664109 225.136742 196.890599 220.488281 202.046875 215.839821 207.203151 209.257855 209.78125 200.742188 209.78125 192.122353 209.78125 185.501325 207.222682 180.878906 202.105469 176.256487 196.988256 173.945312 189.716193 173.945312 180.289062 173.945312 170.861932 176.269508 163.622421 180.917969 158.570312 185.566429 153.518204 192.200478 150.992188 200.820312 150.992188 209.309938 150.992188 215.872373 153.557266 220.507812 158.6875 225.143252 163.817734 227.460938 171.044224 227.460938 180.367188zM183.867188 180.367188C183.867188 187.398473 185.286444 192.730451 188.125 196.363281 190.963556 199.996112 195.169243 201.8125 200.742188 201.8125 206.28909 201.8125 210.475246 200.015643 213.300781 196.421875 216.126316 192.828107 217.539062 187.476598 217.539062 180.367188 217.539062 173.361944 216.139337 168.049497 213.339844 164.429688 210.540351 160.809878 206.367215 159 200.820312 159 195.221326 159 190.996108 160.809878 188.144531 164.429688 185.292954 168.049497 183.867188 173.361944 183.867188 180.367188zM289.492188 151.890625L289.492188 188.84375C289.492188 193.062521 288.587249 196.75389 286.777344 199.917969 284.967439 203.082047 282.350278 205.516919 278.925781 207.222656 275.501285 208.928394 271.406274 209.78125 266.640625 209.78125 259.557256 209.78125 254.049499 207.906269 250.117188 204.15625 246.184876 200.406231 244.21875 195.250033 244.21875 188.6875L244.21875 151.890625 253.59375 151.890625 253.59375 188.023438C253.59375 192.737003 254.687489 196.21353 256.875 198.453125 259.062511 200.69272 262.421852 201.8125 266.953125 201.8125 275.755252 201.8125 280.15625 197.19015 280.15625 187.945312L280.15625 151.890625 289.492188 151.890625zM318.4375 178.453125L324.921875 178.453125C329.270855 178.453125 332.421865 177.645841 334.375 176.03125 336.328135 174.416659 337.304688 172.020849 337.304688 168.84375 337.304688 165.614567 336.250011 163.296882 334.140625 161.890625 332.031239 160.484368 328.854188 159.78125 324.609375 159.78125L318.4375 159.78125 318.4375 178.453125zM318.4375 186.1875L318.4375 209 309.101562 209 309.101562 151.890625 325.234375 151.890625C332.604204 151.890625 338.059878 153.27082 341.601562 156.03125 345.143247 158.79168 346.914062 162.958305 346.914062 168.53125 346.914062 175.640661 343.216183 180.705714 335.820312 183.726562L351.953125 209 341.328125 209 327.65625 186.1875 318.4375 186.1875zM435.78125 151.890625L435.78125 188.84375C435.78125 193.062521 434.876311 196.75389 433.066406 199.917969 431.256501 203.082047 428.63934 205.516919 425.214844 207.222656 421.790347 208.928394 417.695336 209.78125 412.929688 209.78125 405.846319 209.78125 400.338561 207.906269 396.40625 204.15625 392.473939 200.406231 390.507812 195.250033 390.507812 188.6875L390.507812 151.890625 399.882812 151.890625 399.882812 188.023438C399.882812 192.737003 400.976552 196.21353 403.164062 198.453125 405.351573 200.69272 408.710915 201.8125 413.242188 201.8125 422.044315 201.8125 426.445312 197.19015 426.445312 187.945312L426.445312 151.890625 435.78125 151.890625zM502.96875 209L491.523438 209 463.4375 163.492188 463.125 163.492188 463.320312 166.03125C463.684898 170.875024 463.867188 175.302063 463.867188 179.3125L463.867188 209 455.390625 209 455.390625 151.890625 466.71875 151.890625 494.726562 197.164062 494.960938 197.164062C494.908854 196.565101 494.804688 194.384133 494.648438 190.621094 494.492187 186.858054 494.414062 183.921886 494.414062 181.8125L494.414062 151.890625 502.96875 151.890625 502.96875 209zM555.351562 209L523.046875 209 523.046875 151.890625 555.351562 151.890625 555.351562 159.78125 532.382812 159.78125 532.382812 175.328125 553.90625 175.328125 553.90625 183.140625 532.382812 183.140625 532.382812 201.070312 555.351562 201.070312 555.351562 209zM143.975098 353L128.738281 353 128.738281 309.063965 114.967285 309.063965 114.967285 296.604492 157.70752 296.604492 157.70752 309.063965 143.975098 309.063965 143.975098 353zM187.206347 332.478516L187.206347 353 171.969531 353 171.969531 296.604492 190.446582 296.604492C205.773481 296.604492 213.436816 302.159124 213.436816 313.268555 213.436816 319.800488 210.248046 324.853661 203.87041 328.428223L220.303027 353 203.021777 353 191.063769 332.478516 187.206347 332.478516zM187.206347 321.021973L190.06084 321.021973C195.384108 321.021973 198.045703 318.668969 198.045703 313.962891 198.045703 310.079733 195.43554 308.138184 190.215137 308.138184L187.206347 308.138184 187.206347 321.021973zM266.234472 353L263.457129 342.430664 245.134375 342.430664 242.279882 353 225.538671 353 243.938574 296.373047 264.267187 296.373047 282.898535 353 266.234472 353zM260.294043 329.932617L257.863867 320.674805C257.298109 318.617503 256.610209 315.955908 255.800146 312.689941 254.990083 309.423975 254.456479 307.083829 254.199316 305.669434 253.96787 306.980964 253.511413 309.141098 252.829931 312.149902 252.14845 315.158706 250.637642 321.086219 248.297461 329.932617L260.294043 329.932617zM348.888574 353L328.907128 353 308.308496 313.268555 307.961328 313.268555C308.449937 319.517609 308.694238 324.287907 308.694238 327.57959L308.694238 353 295.193261 353 295.193261 296.604492 315.097558 296.604492 335.619042 335.795898 335.850488 335.795898C335.49046 330.112602 335.310449 325.548032 335.310449 322.102051L335.310449 296.604492 348.888574 296.604492 348.888574 353zM404.15498 335.873047C404.15498 339.37046 403.267782 342.475654 401.493359 345.188721 399.718936 347.901788 397.160205 350.010491 393.817089 351.514893 390.473973 353.019295 386.5523 353.771484 382.051952 353.771484 378.297376 353.771484 375.14718 353.507897 372.601269 352.980713 370.055358 352.453529 367.406621 351.534186 364.65498 350.222656L364.65498 336.644531C367.560919 338.136075 370.582536 339.299719 373.719921 340.135498 376.857307 340.971277 379.737486 341.38916 382.360546 341.38916 384.623578 341.38916 386.282253 340.996993 387.33662 340.212646 388.390988 339.4283 388.918163 338.418951 388.918163 337.18457 388.918163 336.413082 388.706007 335.73804 388.281689 335.159424 387.85737 334.580808 387.175899 333.995771 386.237255 333.404297 385.298611 332.812823 382.797741 331.604176 378.73457 329.77832 375.057142 328.106762 372.299113 326.486661 370.4604 324.917969 368.621686 323.349276 367.258744 321.549164 366.371532 319.517578 365.484321 317.485992 365.040722 315.081557 365.040722 312.304199 365.040722 307.109512 366.93084 303.059259 370.711132 300.15332 374.491424 297.247381 379.686034 295.794434 386.295116 295.794434 392.132711 295.794434 398.085939 297.144518 404.15498 299.844727L399.487499 311.609863C394.215663 309.192533 389.663951 307.983887 385.832226 307.983887 383.852073 307.983887 382.411983 308.331051 381.511913 309.025391 380.611844 309.71973 380.161816 310.581212 380.161816 311.609863 380.161816 312.715663 380.733994 313.705725 381.878368 314.580078 383.022743 315.454431 386.127936 317.048817 391.194042 319.363281 396.054418 321.549165 399.429628 323.895739 401.319775 326.403076 403.209921 328.910413 404.15498 332.067038 404.15498 335.873047zM434.078124 353L419.072753 353 419.072753 296.604492 452.400878 296.604492 452.400878 308.83252 434.078124 308.83252 434.078124 319.594727 450.973632 319.594727 450.973632 331.822754 434.078124 331.822754 434.078124 353zM520.628222 324.725098C520.628222 334.214403 518.300934 341.42771 513.646288 346.365234 508.991642 351.302759 502.176932 353.771484 493.201952 353.771484 484.355554 353.771484 477.572988 351.289901 472.854052 346.32666 468.135115 341.363419 465.775682 334.137254 465.775682 324.647949 465.775682 315.261509 468.122257 308.093205 472.815477 303.142822 477.508697 298.192439 484.329837 295.717285 493.2791 295.717285 502.25408 295.717285 509.055933 298.173153 513.684862 303.084961 518.313792 307.996769 520.628222 315.210076 520.628222 324.725098zM481.822557 324.725098C481.822557 335.628798 485.615651 341.080566 493.201952 341.080566 497.059393 341.080566 499.920286 339.756198 501.784716 337.107422 503.649146 334.458646 504.581347 330.331245 504.581347 324.725098 504.581347 319.093234 503.636288 314.933689 501.746141 312.246338 499.855995 309.558987 497.033676 308.215332 493.2791 308.215332 485.641367 308.215332 481.822557 313.718532 481.822557 324.725098zM552.248631 332.478516L552.248631 353 537.011815 353 537.011815 296.604492 555.488866 296.604492C570.815765 296.604492 578.4791 302.159124 578.4791 313.268555 578.4791 319.800488 575.29033 324.853661 568.912694 328.428223L585.345311 353 568.064061 353 556.106053 332.478516 552.248631 332.478516zM552.248631 321.021973L555.103124 321.021973C560.426392 321.021973 563.087987 318.668969 563.087987 313.962891 563.087987 310.079733 560.477824 308.138184 555.257421 308.138184L552.248631 308.138184 552.248631 321.021973zM621.247459 353L609.713768 312.381348 609.3666 312.381348C609.906642 319.299025 610.176659 324.673646 610.176659 328.505371L610.176659 353 596.675682 353 596.675682 296.604492 616.965721 296.604492 628.730858 336.644531 629.039452 336.644531 640.573143 296.604492 660.901756 296.604492 660.901756 353 646.899315 353 646.899315 328.273926C646.899315 326.988112 646.918602 325.56088 646.957176 323.992188 646.995751 322.423495 647.169333 318.578969 647.477928 312.458496L647.13076 312.458496 635.751366 353 621.247459 353zM713.853709 353L711.076365 342.430664 692.753612 342.430664 689.899119 353 673.157908 353 691.557811 296.373047 711.886424 296.373047 730.517772 353 713.853709 353zM707.91328 329.932617L705.483104 320.674805C704.917346 318.617503 704.229446 315.955908 703.419383 312.689941 702.60932 309.423975 702.075716 307.083829 701.818553 305.669434 701.587107 306.980964 701.130649 309.141098 700.449168 312.149902 699.767687 315.158706 698.256878 321.086219 695.916698 329.932617L707.91328 329.932617zM762.176756 353L746.939939 353 746.939939 309.063965 733.168943 309.063965 733.168943 296.604492 775.909178 296.604492 775.909178 309.063965 762.176756 309.063965 762.176756 353zM790.171189 353L790.171189 296.604492 805.485154 296.604492 805.485154 353 790.171189 353zM876.644138 324.725098C876.644138 334.214403 874.31685 341.42771 869.662205 346.365234 865.007559 351.302759 858.192849 353.771484 849.217869 353.771484 840.37147 353.771484 833.588905 351.289901 828.869968 346.32666 824.151032 341.363419 821.791599 334.137254 821.791599 324.647949 821.791599 315.261509 824.138174 308.093205 828.831394 303.142822 833.524614 298.192439 840.345754 295.717285 849.295017 295.717285 858.269997 295.717285 865.07185 298.173153 869.700779 303.084961 874.329708 307.996769 876.644138 315.210076 876.644138 324.725098zM837.838474 324.725098C837.838474 335.628798 841.631568 341.080566 849.217869 341.080566 853.07531 341.080566 855.936203 339.756198 857.800632 337.107422 859.665062 334.458646 860.597263 330.331245 860.597263 324.725098 860.597263 319.093234 859.652204 314.933689 857.762058 312.246338 855.871912 309.558987 853.049593 308.215332 849.295017 308.215332 841.657284 308.215332 837.838474 313.718532 837.838474 324.725098zM946.723044 353L926.741599 353 906.142966 313.268555 905.795798 313.268555C906.284408 319.517609 906.528708 324.287907 906.528708 327.57959L906.528708 353 893.027732 353 893.027732 296.604492 912.932029 296.604492 933.453513 335.795898 933.684958 335.795898C933.324931 330.112602 933.144919 325.548032 933.144919 322.102051L933.144919 296.604492 946.723044 296.604492 946.723044 353zM137.603516 601.451172L142.683594 601.451172C147.431664 601.451172 150.984363 600.513193 153.341797 598.637207 155.699231 596.761221 156.87793 594.030291 156.87793 590.444336 156.87793 586.825177 155.890147 584.152352 153.914551 582.425781 151.938955 580.69921 148.842795 579.835938 144.625977 579.835938L137.603516 579.835938 137.603516 601.451172zM172.466797 589.896484C172.466797 597.732461 170.018091 603.725565 165.120605 607.875977 160.22312 612.026388 153.258834 614.101562 144.227539 614.101562L137.603516 614.101562 137.603516 640 122.164062 640 122.164062 567.185547 145.422852 567.185547C154.254927 567.185547 160.970192 569.086407 165.568848 572.888184 170.167503 576.68996 172.466797 582.359337 172.466797 589.896484zM236.548437 640L194.61289 640 194.61289 567.185547 236.548437 567.185547 236.548437 579.835938 210.052343 579.835938 210.052343 595.823242 234.705664 595.823242 234.705664 608.473633 210.052343 608.473633 210.052343 627.25 236.548437 627.25 236.548437 640zM275.57832 599.508789L280.558788 599.508789C285.439672 599.508789 289.042175 598.695321 291.366405 597.068359 293.690636 595.441398 294.852734 592.884783 294.852734 589.398438 294.852734 585.945295 293.665734 583.488289 291.291698 582.027344 288.917663 580.566399 285.240454 579.835938 280.25996 579.835938L275.57832 579.835938 275.57832 599.508789zM275.57832 612.05957L275.57832 640 260.138866 640 260.138866 567.185547 281.355663 567.185547C291.250244 567.185547 298.57146 568.986798 303.31953 572.589355 308.067601 576.191913 310.441601 581.662073 310.441601 589 310.441601 593.283225 309.262902 597.093245 306.905468 600.430176 304.548034 603.767107 301.211154 606.381826 296.894726 608.274414 307.851812 624.643637 314.990412 635.218726 318.310741 640L301.177929 640 283.796093 612.05957 275.57832 612.05957zM351.065233 640L335.874804 640 335.874804 567.185547 377.611132 567.185547 377.611132 579.835938 351.065233 579.835938 351.065233 598.612305 375.768358 598.612305 375.768358 611.212891 351.065233 611.212891 351.065233 640zM466.346092 603.493164C466.346092 615.545959 463.357841 624.809538 457.381248 631.28418 451.404656 637.758821 442.838336 640.996094 431.68203 640.996094 420.525724 640.996094 411.959403 637.758821 405.982811 631.28418 400.006219 624.809538 397.017967 615.512756 397.017967 603.393555 397.017967 591.274353 400.014519 582.019075 406.007713 575.627441 412.000907 569.235808 420.59213 566.040039 431.781639 566.040039 442.971148 566.040039 451.529168 569.26071 457.455956 575.702148 463.382743 582.143587 466.346092 591.407166 466.346092 603.493164zM413.204491 603.493164C413.204491 611.62797 414.748421 617.753886 417.836327 621.871094 420.924233 625.988302 425.539421 628.046875 431.68203 628.046875 444.000451 628.046875 450.159569 619.862387 450.159569 603.493164 450.159569 587.090738 444.033653 578.889648 431.781639 578.889648 425.63903 578.889648 421.007241 580.956522 417.886131 585.090332 414.765022 589.224142 413.204491 595.358358 413.204491 603.493164zM505.276365 599.508789L510.256834 599.508789C515.137718 599.508789 518.740221 598.695321 521.064451 597.068359 523.388682 595.441398 524.550779 592.884783 524.550779 589.398438 524.550779 585.945295 523.363779 583.488289 520.989744 582.027344 518.615709 580.566399 514.9385 579.835938 509.958006 579.835938L505.276365 579.835938 505.276365 599.508789zM505.276365 612.05957L505.276365 640 489.836912 640 489.836912 567.185547 511.053709 567.185547C520.94829 567.185547 528.269506 568.986798 533.017576 572.589355 537.765647 576.191913 540.139647 581.662073 540.139647 589 540.139647 593.283225 538.960947 597.093245 536.603514 600.430176 534.24608 603.767107 530.909199 606.381826 526.592772 608.274414 537.549858 624.643637 544.688458 635.218726 548.008787 640L530.875975 640 513.494139 612.05957 505.276365 612.05957zM596.401951 640L578.870701 582.874023 578.422459 582.874023C579.053321 594.495175 579.368748 602.248027 579.368748 606.132812L579.368748 640 565.572849 640 565.572849 567.185547 586.590427 567.185547 603.822849 622.867188 604.121677 622.867188 622.399998 567.185547 643.417576 567.185547 643.417576 640 629.024021 640 629.024021 605.535156C629.024021 603.908195 629.048923 602.032237 629.098728 599.907227 629.148533 597.782216 629.372652 592.137741 629.771091 582.973633L629.322849 582.973633 610.546482 640 596.401951 640zM714.720896 640L709.441599 622.667969 682.8957 622.667969 677.616404 640 660.981638 640 686.680857 566.886719 705.556833 566.886719 731.355661 640 714.720896 640zM705.756052 609.71875C700.875168 594.013593 698.127637 585.131846 697.513376 583.073242 696.899115 581.014638 696.459178 579.387701 696.193552 578.192383 695.097843 582.442404 691.960179 592.951088 686.780466 609.71875L705.756052 609.71875zM813.516403 640L793.893356 640 762.217575 584.916016 761.769333 584.916016C762.400195 594.64458 762.715622 601.583964 762.715622 605.734375L762.715622 640 748.919724 640 748.919724 567.185547 768.393356 567.185547 800.019333 621.72168 800.367966 621.72168C799.869916 612.258742 799.620895 605.568379 799.620895 601.650391L799.620895 567.185547 813.516403 567.185547 813.516403 640zM868.334372 640L852.894918 640 852.894918 580.035156 833.122458 580.035156 833.122458 567.185547 888.106833 567.185547 888.106833 580.035156 868.334372 580.035156 868.334372 640zM949.648434 640L907.712887 640 907.712887 567.185547 949.648434 567.185547 949.648434 579.835938 923.15234 579.835938 923.15234 595.823242 947.80566 595.823242 947.80566 608.473633 923.15234 608.473633 923.15234 627.25 949.648434 627.25 949.648434 640zM172.777344 460.07959C172.777344 470.095916 170.058865 477.75331 164.621826 483.052002 159.184787 488.350694 151.361379 491 141.151367 491L124.342285 491 124.342285 430.321289 142.936035 430.321289C152.371304 430.321289 159.703587 432.936009 164.933105 438.165527 170.162624 443.395046 172.777344 450.69966 172.777344 460.07959zM165.306641 460.328613C165.306641 452.415162 163.32139 446.452494 159.35083 442.44043 155.38027 438.428365 149.479857 436.422363 141.649414 436.422363L131.397949 436.422363 131.397949 484.898926 139.989258 484.898926C148.400758 484.898926 154.723123 482.830668 158.956543 478.694092 163.189963 474.557515 165.306641 468.43575 165.306641 460.328613zM224.133301 491L190.307617 491 190.307617 430.321289 224.133301 430.321289 224.133301 436.588379 197.363281 436.588379 197.363281 456.136719 222.514648 456.136719 222.514648 462.362305 197.363281 462.362305 197.363281 484.691406 224.133301 484.691406 224.133301 491zM266.955078 491L266.955078 430.321289 279.821289 430.321289 279.821289 480.375 304.433105 480.375 304.433105 491 266.955078 491zM321.982324 430.321289L322.563379 431.234375C321.179908 436.685249 318.745037 443.311973 315.258691 451.114746L306.169336 451.114746C308.078525 442.924601 309.461975 435.993518 310.319727 430.321289L321.982324 430.321289zM367.007129 491L362.607715 476.556641 340.486133 476.556641 336.086719 491 322.224414 491 343.64043 430.072266 359.37041 430.072266 380.869434 491 367.007129 491zM359.536426 465.765625C355.469023 452.677994 353.179413 445.276539 352.667529 443.561035 352.155645 441.845532 351.789031 440.489751 351.567676 439.493652 350.654585 443.035337 348.039865 451.792573 343.723437 465.765625L359.536426 465.765625zM414.43916 456.925293L438.511426 456.925293 438.511426 488.385254C434.610039 489.658047 430.93698 490.550372 427.492139 491.062256 424.047297 491.57414 420.526418 491.830078 416.929395 491.830078 407.77082 491.830078 400.777482 489.139268 395.94917 483.757568 391.120858 478.375868 388.706738 470.649302 388.706738 460.577637 388.706738 450.782666 391.508224 443.146023 397.111279 437.66748 402.714335 432.188937 410.482405 429.449707 420.415723 429.449707 426.64134 429.449707 432.645511 430.694812 438.428418 433.185059L434.153516 443.478027C429.72641 441.264475 425.119523 440.157715 420.332715 440.157715 414.771164 440.157715 410.316456 442.025372 406.968457 445.760742 403.620459 449.496112 401.946484 454.518035 401.946484 460.82666 401.946484 467.41198 403.295348 472.440819 405.993115 475.91333 408.690883 479.385841 412.612963 481.12207 417.759473 481.12207 420.443405 481.12207 423.168801 480.84538 425.935742 480.291992L425.935742 467.633301 414.43916 467.633301 414.43916 456.925293zM470.420996 457.257324L474.571387 457.257324C478.63879 457.257324 481.640876 456.579434 483.577734 455.223633 485.514593 453.867832 486.483008 451.737319 486.483008 448.832031 486.483008 445.954413 485.493841 443.906907 483.515479 442.689453 481.537116 441.471999 478.472775 440.863281 474.322363 440.863281L470.420996 440.863281 470.420996 457.257324zM470.420996 467.716309L470.420996 491 457.554785 491 457.554785 430.321289 475.235449 430.321289C483.480933 430.321289 489.581946 431.822332 493.538672 434.824463 497.495397 437.826594 499.47373 442.385061 499.47373 448.5 499.47373 452.069354 498.491481 455.244371 496.526953 458.025146 494.562425 460.805922 491.781691 462.984855 488.184668 464.562012 497.315573 478.20303 503.264407 487.015605 506.031348 491L491.754004 491 477.269141 467.716309 470.420996 467.716309zM518.268066 491L518.268066 430.321289 531.134277 430.321289 531.134277 491 518.268066 491zM576.781641 440.157715C571.939494 440.157715 568.190345 441.976951 565.534082 445.615479 562.877819 449.254006 561.549707 454.324349 561.549707 460.82666 561.549707 474.357001 566.626967 481.12207 576.781641 481.12207 581.04273 481.12207 586.202997 480.056814 592.262598 477.92627L592.262598 488.717285C587.282104 490.792491 581.720636 491.830078 575.578027 491.830078 566.751486 491.830078 560.000251 489.153103 555.324121 483.799072 550.647991 478.445042 548.309961 470.759978 548.309961 460.743652 548.309961 454.435027 549.458224 448.908145 551.754785 444.162842 554.051346 439.417538 557.350874 435.779065 561.653467 433.247314 565.95606 430.715564 570.998734 429.449707 576.781641 429.449707 582.675225 429.449707 588.59639 430.87466 594.545313 433.724609L590.394922 444.183594C588.12603 443.104487 585.843338 442.163741 583.546777 441.361328 581.250216 440.558915 578.995193 440.157715 576.781641 440.157715zM659.159961 430.321289L659.159961 469.583984C659.159961 474.066429 658.15696 477.995426 656.150928 481.371094 654.144896 484.746762 651.246568 487.333813 647.455859 489.132324 643.66515 490.930836 639.182773 491.830078 634.008594 491.830078 626.20582 491.830078 620.146311 489.830993 615.829883 485.832764 611.513455 481.834534 609.355273 476.36299 609.355273 469.417969L609.355273 430.321289 622.17998 430.321289 622.17998 467.467285C622.17998 472.143415 623.120726 475.574371 625.002246 477.760254 626.883766 479.946137 629.996528 481.039062 634.340625 481.039062 638.546375 481.039062 641.596882 479.93922 643.492236 477.739502 645.387591 475.539784 646.335254 472.088077 646.335254 467.384277L646.335254 430.321289 659.159961 430.321289zM678.618359 491L678.618359 430.321289 691.48457 430.321289 691.48457 480.375 716.096387 480.375 716.096387 491 678.618359 491zM752.944922 491L740.078711 491 740.078711 441.029297 723.60166 441.029297 723.60166 430.321289 769.421973 430.321289 769.421973 441.029297 752.944922 441.029297 752.944922 491zM832.75 430.321289L832.75 469.583984C832.75 474.066429 831.746999 477.995426 829.740967 481.371094 827.734935 484.746762 824.836607 487.333813 821.045898 489.132324 817.255189 490.930836 812.772812 491.830078 807.598633 491.830078 799.795859 491.830078 793.73635 489.830993 789.419922 485.832764 785.103494 481.834534 782.945313 476.36299 782.945313 469.417969L782.945313 430.321289 795.77002 430.321289 795.77002 467.467285C795.77002 472.143415 796.710765 475.574371 798.592285 477.760254 800.473805 479.946137 803.586567 481.039062 807.930664 481.039062 812.136414 481.039062 815.186921 479.93922 817.082275 477.739502 818.97763 475.539784 819.925293 472.088077 819.925293 467.384277L819.925293 430.321289 832.75 430.321289zM865.074609 457.257324L869.225 457.257324C873.292403 457.257324 876.294489 456.579434 878.231348 455.223633 880.168206 453.867832 881.136621 451.737319 881.136621 448.832031 881.136621 445.954413 880.147455 443.906907 878.169092 442.689453 876.190729 441.471999 873.126388 440.863281 868.975977 440.863281L865.074609 440.863281 865.074609 457.257324zM865.074609 467.716309L865.074609 491 852.208398 491 852.208398 430.321289 869.889063 430.321289C878.134546 430.321289 884.23556 431.822332 888.192285 434.824463 892.149011 437.826594 894.127344 442.385061 894.127344 448.5 894.127344 452.069354 893.145094 455.244371 891.180566 458.025146 889.216038 460.805922 886.435304 462.984855 882.838281 464.562012 891.969186 478.20303 897.91802 487.015605 900.684961 491L886.407617 491 871.922754 467.716309 865.074609 467.716309zM947.867969 491L912.92168 491 912.92168 430.321289 947.867969 430.321289 947.867969 440.863281 925.787891 440.863281 925.787891 454.186035 946.332324 454.186035 946.332324 464.728027 925.787891 464.728027 925.787891 480.375 947.867969 480.375 947.867969 491z"/>
  </g>
</svg>
