<svg xmlns="http://www.w3.org/2000/svg" width="1062" height="735" viewBox="0 0 1062 735">
  <g fill="#FFF" fill-rule="evenodd" transform="translate(-4)">
    <path d="M124.570312 427.109375C117.059858 427.109375 111.153667 429.770807 106.851562 435.09375 102.549458 440.416693 100.398438 447.762974 100.398438 457.132812 100.398438 466.940153 102.467427 474.35935 106.605469 479.390625 110.74351 484.4219 116.731732 486.9375 124.570312 486.9375 127.960954 486.9375 131.242172 486.600264 134.414062 485.925781 137.585953 485.251299 140.8854 484.385422 144.3125 483.328125L144.3125 494.539062C138.041635 496.908866 130.932331 498.09375 122.984375 498.09375 111.281191 498.09375 102.294302 494.548213 96.0234375 487.457031 89.7525728 480.36585 86.6171875 470.22142 86.6171875 457.023438 86.6171875 448.710896 88.1393077 441.437531 91.1835938 435.203125 94.2278798 428.968719 98.6301795 424.192725 104.390625 420.875 110.15107 417.557275 116.914024 415.898438 124.679688 415.898438 132.846395 415.898438 140.393195 417.611962 147.320312 421.039062L142.617188 431.921875C139.919257 430.645827 137.066421 429.524744 134.058594 428.558594 131.050766 427.592443 127.888037 427.109375 124.570312 427.109375zM236.19375 497L223.06875 497 223.06875 460.960938 186.209375 460.960938 186.209375 497 173.139062 497 173.139062 417.046875 186.209375 417.046875 186.209375 449.75 223.06875 449.75 223.06875 417.046875 236.19375 417.046875 236.19375 497zM318.45 497L310.465625 474.796875 279.895312 474.796875 272.075 497 258.29375 497 288.207812 416.71875 302.426562 416.71875 332.340625 497 318.45 497zM307.020312 463.53125L299.528125 441.765625C298.981247 440.307284 298.224744 438.010432 297.258594 434.875 296.292443 431.739568 295.627085 429.442716 295.2625 427.984375 294.27812 432.468772 292.83803 437.372369 290.942187 442.695312L283.723437 463.53125 307.020312 463.53125zM421.104687 497L405.08125 497 365.760937 433.289062 365.323437 433.289062 365.596875 436.84375C366.107294 443.625034 366.3625 449.822889 366.3625 455.4375L366.3625 497 354.495312 497 354.495312 417.046875 370.354687 417.046875 409.565625 480.429688 409.89375 480.429688C409.820833 479.591142 409.675001 476.537787 409.45625 471.269531 409.237499 466.001276 409.128125 461.89064 409.128125 458.9375L409.128125 417.046875 421.104687 417.046875 421.104687 497zM486.517187 453.632812L515.939062 453.632812 515.939062 493.773438C511.126538 495.341154 506.505491 496.453122 502.075781 497.109375 497.646072 497.765628 492.860963 498.09375 487.720312 498.09375 475.616085 498.09375 466.282845 494.511755 459.720312 487.347656 453.15778 480.183558 449.876562 470.075586 449.876562 457.023438 449.876562 444.153581 453.577046 434.082068 460.978125 426.808594 468.379204 419.53512 478.569206 415.898438 491.548437 415.898438 499.897438 415.898438 507.808817 417.502588 515.282812 420.710938L510.689062 431.59375C504.199447 428.604152 497.709928 427.109375 491.220312 427.109375 482.68902 427.109375 475.944296 429.789036 470.985937 435.148438 466.027579 440.507839 463.548437 447.835891 463.548437 457.132812 463.548437 466.903695 465.781488 474.332006 470.247656 479.417969 474.713824 484.503932 481.139541 487.046875 489.525 487.046875 493.754188 487.046875 498.274976 486.518234 503.0875 485.460938L503.0875 464.84375 486.517187 464.84375 486.517187 453.632812zM591.960938 497L546.734375 497 546.734375 417.046875 591.960938 417.046875 591.960938 428.09375 559.804688 428.09375 559.804688 449.859375 589.9375 449.859375 589.9375 460.796875 559.804688 460.796875 559.804688 485.898438 591.960938 485.898438 591.960938 497zM617.560938 490.164062C617.560938 487.502591 618.253639 485.460945 619.639063 484.039062 621.024486 482.61718 623.029674 481.90625 625.654688 481.90625 628.316159 481.90625 630.339576 482.644524 631.725 484.121094 633.110424 485.597664 633.803125 487.611966 633.803125 490.164062 633.803125 492.752617 633.101309 494.803378 631.697656 496.316406 630.294003 497.829435 628.279701 498.585938 625.654688 498.585938 623.029674 498.585938 621.024486 497.838549 619.639063 496.34375 618.253639 494.848951 617.560938 492.789076 617.560938 490.164062zM617.560938 443.460938C617.560938 437.955702 620.258827 435.203125 625.654688 435.203125 628.389076 435.203125 630.430722 435.932284 631.779688 437.390625 633.128653 438.848966 633.803125 440.872383 633.803125 443.460938 633.803125 446.049492 633.101309 448.100253 631.697656 449.613281 630.294003 451.12631 628.279701 451.882812 625.654688 451.882812 623.029674 451.882812 621.024486 451.135424 619.639063 449.640625 618.253639 448.145826 617.560938 446.085951 617.560938 443.460938zM734.276563 497L717.323438 497 717.323438 431.15625 695.6125 431.15625 695.6125 417.046875 755.9875 417.046875 755.9875 431.15625 734.276563 431.15625 734.276563 497zM779.892188 497L779.892188 417.046875 796.845313 417.046875 796.845313 497 779.892188 497zM862.421875 497L843.171875 434.273438 842.679688 434.273438C843.372399 447.033918 843.71875 455.546854 843.71875 459.8125L843.71875 497 828.570313 497 828.570313 417.046875 851.648438 417.046875 870.570313 478.1875 870.898438 478.1875 890.96875 417.046875 914.046875 417.046875 914.046875 497 898.242188 497 898.242188 459.15625C898.242188 457.369783 898.269531 455.309908 898.324219 452.976562 898.378907 450.643217 898.624998 444.445363 899.0625 434.382812L898.570313 434.382812 877.953125 497 862.421875 497zM991.81875 497L945.771875 497 945.771875 417.046875 991.81875 417.046875 991.81875 430.9375 962.725 430.9375 962.725 448.492188 989.795313 448.492188 989.795313 462.382812 962.725 462.382812 962.725 483 991.81875 483 991.81875 497zM112.852051 644L89.4892578 644 89.4892578 556.194336 141.379883 556.194336 141.379883 575.23291 112.852051 575.23291 112.852051 591.989258 139.157715 591.989258 139.157715 611.027832 112.852051 611.027832 112.852051 644zM249.854101 599.977051C249.854101 614.751539 246.230602 625.982383 238.983496 633.669922 231.736389 641.35746 221.126144 645.201172 207.152441 645.201172 193.378935 645.201172 182.818738 641.337441 175.471533 633.609863 168.124328 625.882286 164.450781 614.631422 164.450781 599.856934 164.450781 585.242603 168.104309 574.081826 175.411474 566.374268 182.71864 558.66671 193.338895 554.812988 207.272558 554.812988 221.246261 554.812988 231.836487 558.636681 239.043554 566.28418 246.250622 573.931679 249.854101 585.162524 249.854101 599.977051zM189.435156 599.977051C189.435156 616.953698 195.340859 625.441895 207.152441 625.441895 213.15833 625.441895 217.612632 623.379903 220.515478 619.255859 223.418325 615.131815 224.869726 608.70561 224.869726 599.977051 224.869726 591.208452 223.398305 584.732199 220.45542 580.548096 217.512534 576.363993 213.118291 574.271973 207.272558 574.271973 195.380897 574.271973 189.435156 582.840246 189.435156 599.977051zM301.332714 612.048828L301.332714 644 277.60957 644 277.60957 556.194336 306.377636 556.194336C330.241037 556.194336 342.172558 564.842687 342.172558 582.139648 342.172558 592.309621 337.207764 600.177218 327.278027 605.742676L352.862988 644 325.956738 644 307.338573 612.048828 301.332714 612.048828zM301.332714 594.211426L305.77705 594.211426C314.065177 594.211426 318.209179 590.547888 318.209179 583.220703 318.209179 577.174774 314.145255 574.151855 306.017284 574.151855L301.332714 574.151855 301.332714 594.211426zM470.47451 644L466.150291 627.543945 437.622459 627.543945 433.178123 644 407.112694 644 435.760643 555.833984 467.411522 555.833984 496.419823 644 470.47451 644zM461.225487 608.084961L457.441795 593.670898C456.560932 590.467757 455.489897 586.323756 454.228661 581.23877 452.967424 576.153783 452.136622 572.510265 451.736229 570.308105 451.375876 572.350108 450.665189 575.713355 449.604149 580.397949 448.543108 585.082543 446.190837 594.311455 442.547264 608.084961L461.225487 608.084961zM554.444822 574.39209C548.799286 574.39209 544.395033 576.704323 541.231932 581.328857 538.06883 585.953392 536.487303 592.329549 536.487303 600.45752 536.487303 617.354088 542.913508 625.802246 555.766111 625.802246 559.64992 625.802246 563.413554 625.261724 567.057127 624.180664 570.7007 623.099604 574.364237 621.798347 578.04785 620.276855L578.04785 640.336426C570.720665 643.579606 562.432662 645.201172 553.183592 645.201172 539.930596 645.201172 529.770785 641.35746 522.703856 633.669922 515.636926 625.982383 512.103514 614.871655 512.103514 600.337402 512.103514 591.24849 513.815167 583.260777 517.238523 576.374023 520.66188 569.48727 525.586636 564.192157 532.012938 560.488525 538.439239 556.784894 545.996537 554.933105 554.685057 554.933105 564.174362 554.933105 573.243119 556.995097 581.8916 561.119141L574.62451 579.797363C571.38133 578.275871 568.138198 576.994634 564.895018 575.953613 561.651837 574.912592 558.168474 574.39209 554.444822 574.39209zM645.802341 644L622.079197 644 622.079197 575.593262 600.638279 575.593262 600.638279 556.194336 667.183201 556.194336 667.183201 575.593262 645.802341 575.593262 645.802341 644zM691.635447 644L691.635447 556.194336 715.478708 556.194336 715.478708 644 691.635447 644zM828.51738 599.977051C828.51738 614.751539 824.893881 625.982383 817.646774 633.669922 810.399668 641.35746 799.789422 645.201172 785.81572 645.201172 772.042213 645.201172 761.482016 641.337441 754.134811 633.609863 746.787607 625.882286 743.114059 614.631422 743.114059 599.856934 743.114059 585.242603 746.767587 574.081826 754.074753 566.374268 761.381918 558.66671 772.002173 554.812988 785.935837 554.812988 799.909539 554.812988 810.499766 558.636681 817.706833 566.28418 824.9139 573.931679 828.51738 585.162524 828.51738 599.977051zM768.098434 599.977051C768.098434 616.953698 774.004137 625.441895 785.81572 625.441895 791.821609 625.441895 796.27591 623.379903 799.178757 619.255859 802.081603 615.131815 803.533005 608.70561 803.533005 599.977051 803.533005 591.208452 802.061584 584.732199 799.118698 580.548096 796.175812 576.363993 791.781569 574.271973 785.935837 574.271973 774.044176 574.271973 768.098434 582.840246 768.098434 599.977051zM939.874411 644L908.764059 644 876.69277 582.139648 876.152243 582.139648C876.912989 591.869189 877.293356 599.296361 877.293356 604.421387L877.293356 644 856.272848 644 856.272848 556.194336 887.263083 556.194336 919.214254 617.213867 919.574606 617.213867C919.014056 608.36519 918.733786 601.258328 918.733786 595.893066L918.733786 556.194336 939.874411 556.194336 939.874411 644zM989.070797 613.009766L969.251461 613.009766 966.188473 556.194336 992.133785 556.194336 989.070797 613.009766zM966.428707 634.030273C966.428707 630.386701 967.509751 627.553965 969.671871 625.531982 971.833991 623.51 974.977026 622.499023 979.10107 622.499023 983.185075 622.499023 986.278062 623.51 988.380123 625.531982 990.482184 627.553965 991.533199 630.386701 991.533199 634.030273 991.533199 637.633807 990.442146 640.446523 988.260006 642.468506 986.077866 644.490489 983.024918 645.501465 979.10107 645.501465 975.137183 645.501465 972.034187 644.490489 969.791988 642.468506 967.54979 640.446523 966.428707 637.633807 966.428707 634.030273zM145.15625 349L137.171875 326.796875 106.601562 326.796875 98.78125 349 85 349 114.914062 268.71875 129.132812 268.71875 159.046875 349 145.15625 349zM133.726562 315.53125L126.234375 293.765625C125.687497 292.307284 124.930994 290.010432 123.964844 286.875 122.998693 283.739568 122.333335 281.442716 121.96875 279.984375 120.98437 284.468772 119.54428 289.372369 117.648438 294.695312L110.429688 315.53125 133.726562 315.53125zM254.210938 349L238.1875 349 198.867188 285.289062 198.429688 285.289062 198.703125 288.84375C199.213544 295.625034 199.46875 301.822889 199.46875 307.4375L199.46875 349 187.601562 349 187.601562 269.046875 203.460938 269.046875 242.671875 332.429688 243 332.429688C242.927083 331.591142 242.781251 328.537787 242.5625 323.269531 242.343749 318.001276 242.234375 313.89064 242.234375 310.9375L242.234375 269.046875 254.210938 269.046875 254.210938 349zM358.34375 308.257812C358.34375 321.455795 354.679724 331.545538 347.351562 338.527344 340.023401 345.509149 329.468819 349 315.6875 349L293.320312 349 293.320312 269.046875 318.039062 269.046875C330.763084 269.046875 340.661423 272.473924 347.734375 279.328125 354.807327 286.182326 358.34375 295.825459 358.34375 308.257812zM344.5625 308.695312C344.5625 289.554592 335.612069 279.984375 317.710938 279.984375L306.390625 279.984375 306.390625 338.007812 315.6875 338.007812C334.937596 338.007812 344.5625 328.237077 344.5625 308.695312zM474.625 279.109375C467.114546 279.109375 461.208355 281.770807 456.90625 287.09375 452.604145 292.416693 450.453125 299.762974 450.453125 309.132812 450.453125 318.940153 452.522115 326.35935 456.660156 331.390625 460.798198 336.4219 466.786419 338.9375 474.625 338.9375 478.015642 338.9375 481.296859 338.600264 484.46875 337.925781 487.640641 337.251299 490.940087 336.385422 494.367188 335.328125L494.367188 346.539062C488.096323 348.908866 480.987019 350.09375 473.039062 350.09375 461.335879 350.09375 452.34899 346.548213 446.078125 339.457031 439.80726 332.36585 436.671875 322.22142 436.671875 309.023438 436.671875 300.710896 438.193995 293.437531 441.238281 287.203125 444.282567 280.968719 448.684867 276.192725 454.445312 272.875 460.205758 269.557275 466.968711 267.898438 474.734375 267.898438 482.901083 267.898438 490.447882 269.611962 497.375 273.039062L492.671875 283.921875C489.973945 282.645827 487.121109 281.524744 484.113281 280.558594 481.105454 279.592443 477.942725 279.109375 474.625 279.109375zM529.59375 349L529.59375 269.046875 542.664062 269.046875 542.664062 337.789062 576.515625 337.789062 576.515625 349 529.59375 349zM608.296875 349L608.296875 269.046875 621.367188 269.046875 621.367188 349 608.296875 349zM695.039062 349L671.851562 282.226562 671.414062 282.226562C672.033857 292.143279 672.34375 301.440061 672.34375 310.117188L672.34375 349 660.476562 349 660.476562 269.046875 678.90625 269.046875 701.109375 332.648438 701.4375 332.648438 724.296875 269.046875 742.78125 269.046875 742.78125 349 730.203125 349 730.203125 309.460938C730.203125 305.486959 730.303384 300.309928 730.503906 293.929688 730.704428 287.549447 730.877603 283.684903 731.023438 282.335938L730.585938 282.335938 706.578125 349 695.039062 349zM831.4375 349L823.453125 326.796875 792.882812 326.796875 785.0625 349 771.28125 349 801.195312 268.71875 815.414062 268.71875 845.328125 349 831.4375 349zM820.007812 315.53125L812.515625 293.765625C811.968747 292.307284 811.212244 290.010432 810.246094 286.875 809.279943 283.739568 808.614585 281.442716 808.25 279.984375 807.26562 284.468772 805.82553 289.372369 803.929688 294.695312L796.710938 315.53125 820.007812 315.53125zM893.679688 349L880.609375 349 880.609375 280.257812 857.09375 280.257812 857.09375 269.046875 917.195312 269.046875 917.195312 280.257812 893.679688 280.257812 893.679688 349zM992.671875 349L947.445312 349 947.445312 269.046875 992.671875 269.046875 992.671875 280.09375 960.515625 280.09375 960.515625 301.859375 990.648438 301.859375 990.648438 312.796875 960.515625 312.796875 960.515625 337.898438 992.671875 337.898438 992.671875 349zM144.876953 206L140.517578 189.410156 111.757812 189.410156 107.277344 206 81 206 109.880859 117.117188 141.789062 117.117188 171.033203 206 144.876953 206zM135.552734 169.792969L131.738281 155.261719C130.850256 152.032536 129.770514 147.854843 128.499023 142.728516 127.227533 137.602188 126.389976 133.929048 125.986328 131.708984 125.623045 133.767588 124.906581 137.15818 123.836914 141.880859 122.767247 146.603539 120.395852 155.907483 116.722656 169.792969L135.552734 169.792969zM218.658203 154.171875L256.863281 154.171875 256.863281 201.882812C246.489531 205.434914 235.086651 207.210938 222.654297 207.210938 209.010999 207.210938 198.465858 203.255248 191.018555 195.34375 183.571252 187.432252 179.847656 176.150464 179.847656 161.498047 179.847656 147.208913 183.924438 136.088581 192.078125 128.136719 200.231812 120.184856 211.654874 116.208984 226.347656 116.208984 231.917997 116.208984 237.175431 116.733719 242.120117 117.783203 247.064803 118.832688 251.37368 120.164705 255.046875 121.779297L247.478516 140.548828C241.10088 137.400375 234.097694 135.826172 226.46875 135.826172 219.485642 135.826172 214.086933 138.096657 210.272461 142.637695 206.457989 147.178734 204.550781 153.667276 204.550781 162.103516 204.550781 170.378297 206.27635 176.6852 209.727539 181.024414 213.178728 185.363628 218.153613 187.533203 224.652344 187.533203 228.204445 187.533203 231.473943 187.190108 234.460938 186.503906L234.460938 172.638672 218.658203 172.638672 218.658203 154.171875zM303.822266 173.789062L303.822266 206 279.90625 206 279.90625 117.480469 308.908203 117.480469C332.965615 117.480469 344.994141 126.199132 344.994141 143.636719 344.994141 153.889374 339.988982 161.820935 329.978516 167.431641L355.771484 206 328.646484 206 309.876953 173.789062 303.822266 173.789062zM303.822266 155.806641L308.302734 155.806641C316.658245 155.806641 320.835938 152.113318 320.835938 144.726562 320.835938 138.63148 316.738973 135.583984 308.544922 135.583984L303.822266 135.583984 303.822266 155.806641zM368.824219 206L368.824219 117.480469 392.861328 117.480469 392.861328 206 368.824219 206zM456.410156 135.826172C450.718722 135.826172 446.278662 138.157203 443.089844 142.819336 439.901026 147.481469 438.306641 153.909464 438.306641 162.103516 438.306641 179.137455 444.785091 187.654297 457.742188 187.654297 461.657572 187.654297 465.451805 187.10938 469.125 186.019531 472.798195 184.929682 476.491518 183.617846 480.205078 182.083984L480.205078 202.306641C472.818322 205.576188 464.462937 207.210938 455.138672 207.210938 441.777928 207.210938 431.535517 203.335976 424.411133 195.585938 417.286748 187.835899 413.724609 176.634839 413.724609 161.982422 413.724609 152.819616 415.450178 144.766962 418.901367 137.824219 422.352556 130.881476 427.31735 125.543313 433.795898 121.80957 440.274446 118.075828 447.893185 116.208984 456.652344 116.208984 466.218798 116.208984 475.361285 118.28774 484.080078 122.445312L476.753906 141.275391C473.484359 139.741529 470.21486 138.449875 466.945312 137.400391 463.675765 136.350906 460.164081 135.826172 456.410156 135.826172zM577.720703 117.480469L577.720703 170.761719C577.720703 182.346412 574.441114 191.317351 567.881836 197.674805 561.322558 204.032258 551.867249 207.210938 539.515625 207.210938 527.446554 207.210938 518.172884 204.123078 511.694336 197.947266 505.215788 191.771453 501.976562 182.891334 501.976562 171.306641L501.976562 117.480469 526.013672 117.480469 526.013672 169.429688C526.013672 175.686229 527.184233 180.227199 529.525391 183.052734 531.866548 185.878269 535.317686 187.291016 539.878906 187.291016 544.763045 187.291016 548.305002 185.88836 550.504883 183.083008 552.704764 180.277655 553.804688 175.68623 553.804688 169.308594L553.804688 117.480469 577.720703 117.480469zM601.308594 206L601.308594 117.480469 625.224609 117.480469 625.224609 186.685547 659.3125 186.685547 659.3125 206 601.308594 206zM715.050781 206L691.134766 206 691.134766 137.037109 669.519531 137.037109 669.519531 117.480469 736.605469 117.480469 736.605469 137.037109 715.050781 137.037109 715.050781 206zM829.519531 117.480469L829.519531 170.761719C829.519531 182.346412 826.239942 191.317351 819.680664 197.674805 813.121386 204.032258 803.666077 207.210938 791.314453 207.210938 779.245382 207.210938 769.971712 204.123078 763.493164 197.947266 757.014616 191.771453 753.775391 182.891334 753.775391 171.306641L753.775391 117.480469 777.8125 117.480469 777.8125 169.429688C777.8125 175.686229 778.983061 180.227199 781.324219 183.052734 783.665376 185.878269 787.116514 187.291016 791.677734 187.291016 796.561873 187.291016 800.10383 185.88836 802.303711 183.083008 804.503592 180.277655 805.603516 175.68623 805.603516 169.308594L805.603516 117.480469 829.519531 117.480469zM877.023438 173.789062L877.023438 206 853.107422 206 853.107422 117.480469 882.109375 117.480469C906.166787 117.480469 918.195312 126.199132 918.195312 143.636719 918.195312 153.889374 913.190154 161.820935 903.179688 167.431641L928.972656 206 901.847656 206 883.078125 173.789062 877.023438 173.789062zM877.023438 155.806641L881.503906 155.806641C889.859417 155.806641 894.037109 152.113318 894.037109 144.726562 894.037109 138.63148 889.940145 135.583984 881.746094 135.583984L877.023438 135.583984 877.023438 155.806641zM994.580078 206L942.025391 206 942.025391 117.480469 994.580078 117.480469 994.580078 136.673828 965.941406 136.673828 965.941406 150.599609 992.460938 150.599609 992.460938 169.792969 965.941406 169.792969 965.941406 186.503906 994.580078 186.503906 994.580078 206z"/>
    <path fill-rule="nonzero" d="M11,8 L11,728 L1058,728 L1058,8 L11,8 Z M4,0 L1066,0 L1066,735 L4,735 L4,0 Z"/>
  </g>
</svg>
