<svg xmlns="http://www.w3.org/2000/svg" width="1064" height="735" viewBox="0 0 1064 735">
  <g fill="#FFF" fill-rule="evenodd">
    <path d="M102.266113,429.942871 C97.8796981,429.942871 94.4834105,431.590885 92.0771484,434.886963 C89.6708864,438.183041 88.4677734,442.776175 88.4677734,448.666504 C88.4677734,460.923401 93.0671741,467.051758 102.266113,467.051758 C106.126159,467.051758 110.800754,466.086761 116.290039,464.156738 L116.290039,473.932129 C111.778298,475.812021 106.740262,476.751953 101.175781,476.751953 C93.179973,476.751953 87.0641488,474.326929 82.828125,469.476807 C78.5921012,464.626685 76.4741211,457.664922 76.4741211,448.591309 C76.4741211,442.876436 77.5143125,437.869732 79.5947266,433.571045 C81.6751406,429.272358 84.6641244,425.97633 88.5617676,423.682861 C92.4594108,421.389393 97.0274803,420.242676 102.266113,420.242676 C107.605007,420.242676 112.968886,421.533516 118.35791,424.115234 L114.598145,433.589844 C112.542796,432.6123 110.474945,431.760095 108.394531,431.033203 C106.314117,430.306311 104.271332,429.942871 102.266113,429.942871 Z M129.18291,476 L129.18291,421.032227 L140.838184,421.032227 L140.838184,466.375 L163.133594,466.375 L163.133594,476 L129.18291,476 Z M173.883399,476 L173.883399,421.032227 L185.538672,421.032227 L185.538672,476 L173.883399,476 Z M223.847559,476 L210.613184,432.875488 L210.274805,432.875488 C210.751044,441.648319 210.98916,447.500962 210.98916,450.433594 L210.98916,476 L200.57461,476 L200.57461,421.032227 L216.44082,421.032227 L229.44961,463.066406 L229.675195,463.066406 L243.473535,421.032227 L259.339746,421.032227 L259.339746,476 L248.474024,476 L248.474024,449.982422 C248.474024,448.754226 248.492822,447.338061 248.53042,445.733887 C248.568018,444.129712 248.737206,439.868687 249.037988,432.950684 L248.69961,432.950684 L234.525293,476 L223.847559,476 Z M308.025586,476 L304.040235,462.916016 L284.000684,462.916016 L280.015332,476 L267.457715,476 L286.858106,420.806641 L301.107617,420.806641 L320.583203,476 L308.025586,476 Z M301.258008,453.140625 C297.573419,441.284771 295.499303,434.579923 295.035596,433.025879 C294.571889,431.471835 294.23978,430.243657 294.039258,429.341309 C293.212105,432.549658 290.843477,440.482684 286.933301,453.140625 L301.258008,453.140625 Z M344.529785,476 L332.874512,476 L332.874512,430.732422 L317.948242,430.732422 L317.948242,421.032227 L359.456055,421.032227 L359.456055,430.732422 L344.529785,430.732422 L344.529785,476 Z M369.115528,476 L369.115528,421.032227 L380.770801,421.032227 L380.770801,476 L369.115528,476 Z M445.698828,448.440918 C445.698828,454.907747 444.552111,460.328022 442.258643,464.701904 C439.965174,469.075787 436.600218,472.277822 432.163672,474.308105 L445.398047,489.083984 L430.471778,489.083984 L420.395606,476.751953 L419.53086,476.751953 C411.108943,476.751953 404.64221,474.30813 400.130469,469.42041 C395.618728,464.53269 393.362891,457.514531 393.362891,448.365723 C393.362891,439.216914 395.624994,432.230086 400.149268,427.405029 C404.673542,422.579973 411.159073,420.16748 419.606055,420.16748 C428.053037,420.16748 434.513503,422.598771 438.987647,427.461426 C443.46179,432.32408 445.698828,439.317174 445.698828,448.440918 Z M405.582129,448.440918 C405.582129,454.581899 406.747645,459.206365 409.078711,462.314453 C411.409778,465.422542 414.893792,466.976562 419.53086,466.976562 C428.83006,466.976562 433.47959,460.798076 433.47959,448.440918 C433.47959,436.058695 428.855125,429.867676 419.606055,429.867676 C414.968988,429.867676 411.47244,431.427963 409.116309,434.548584 C406.760177,437.669205 405.582129,442.299937 405.582129,448.440918 Z M503.032129,421.032227 L503.032129,456.599609 C503.032129,460.660177 502.123528,464.219386 500.306299,467.277344 C498.48907,470.335302 495.863527,472.678866 492.42959,474.308105 C488.995654,475.937345 484.935148,476.751953 480.24795,476.751953 C473.179555,476.751953 467.690352,474.941017 463.780176,471.319092 C459.87,467.697166 457.914942,462.740591 457.914942,456.449219 L457.914942,421.032227 L469.532618,421.032227 L469.532618,454.682129 C469.532618,458.918153 470.384823,462.026195 472.089258,464.006348 C473.793694,465.986501 476.61349,466.976562 480.548731,466.976562 C484.358646,466.976562 487.122046,465.980235 488.839014,463.987549 C490.555982,461.994863 491.414454,458.868023 491.414454,454.606934 L491.414454,421.032227 L503.032129,421.032227 Z M549.349317,476 L517.69209,476 L517.69209,421.032227 L549.349317,421.032227 L549.349317,430.582031 L529.347364,430.582031 L529.347364,442.650879 L547.958204,442.650879 L547.958204,452.200684 L529.347364,452.200684 L529.347364,466.375 L549.349317,466.375 L549.349317,476 Z M582.01543,472.014648 C582.01543,470.335278 582.397669,469.063237 583.162159,468.198486 C583.926648,467.333736 585.023236,466.901367 586.451954,466.901367 C587.905737,466.901367 589.039922,467.333736 589.854542,468.198486 C590.669161,469.063237 591.076465,470.335278 591.076465,472.014648 C591.076465,473.643888 590.662895,474.897131 589.835743,475.774414 C589.00859,476.651697 587.880672,477.090332 586.451954,477.090332 C585.173627,477.090332 584.114637,476.695561 583.274952,475.906006 C582.435267,475.116451 582.01543,473.819345 582.01543,472.014648 Z M582.01543,438.815918 C582.01543,435.432112 583.494257,433.740234 586.451954,433.740234 C589.534977,433.740234 591.076465,435.432112 591.076465,438.815918 C591.076465,440.445158 590.662895,441.698401 589.835743,442.575684 C589.00859,443.452967 587.880672,443.891602 586.451954,443.891602 C585.173627,443.891602 584.114637,443.49683 583.274952,442.707275 C582.435267,441.917721 582.01543,440.620614 582.01543,438.815918 Z M660.550684,476 L655.061426,460.735352 L634.044337,460.735352 L628.667872,476 L619.193262,476 L639.75918,420.806641 L649.534571,420.806641 L670.100489,476 L660.550684,476 Z M652.692774,452.990234 L647.541895,438.026367 C647.165917,437.023758 646.645821,435.444672 645.981592,433.289062 C645.317364,431.133453 644.85993,429.554367 644.609278,428.551758 C643.932517,431.634781 642.942455,435.006004 641.639063,438.665527 L636.676172,452.990234 L652.692774,452.990234 Z M697.798731,446.185059 L718.02627,446.185059 L718.02627,473.781738 C714.71766,474.859543 711.54069,475.624021 708.495264,476.075195 C705.449839,476.526369 702.160077,476.751953 698.62588,476.751953 C690.304223,476.751953 683.887621,474.289331 679.37588,469.364014 C674.864138,464.438696 672.608301,457.489465 672.608301,448.516113 C672.608301,439.668087 675.152384,432.743921 680.240626,427.743408 C685.328867,422.742895 692.334494,420.242676 701.257715,420.242676 C706.997653,420.242676 712.436726,421.345529 717.575098,423.55127 L714.416895,431.033203 C709.955284,428.977854 705.49374,427.950195 701.03213,427.950195 C695.166866,427.950195 690.529868,429.792462 687.120997,433.477051 C683.712126,437.16164 682.007715,442.199675 682.007715,448.591309 C682.007715,455.30879 683.542938,460.415754 686.613428,463.912354 C689.683919,467.408953 694.101599,469.157227 699.866602,469.157227 C702.774169,469.157227 705.882211,468.793786 709.190821,468.066895 L709.190821,453.892578 L697.798731,453.892578 L697.798731,446.185059 Z M730.723047,476 L730.723047,421.032227 L739.708887,421.032227 L739.708887,476 L730.723047,476 Z M785.416407,461.07373 C785.416407,465.96145 783.649335,469.796373 780.115137,472.578613 C776.58094,475.360854 771.705826,476.751953 765.489649,476.751953 C759.273472,476.751953 754.185307,475.786956 750.225001,473.856934 L750.225001,465.359863 C752.731524,466.537929 755.394664,467.465329 758.214503,468.14209 C761.034341,468.818851 763.659884,469.157227 766.091212,469.157227 C769.650474,469.157227 772.276018,468.480476 773.967921,467.126953 C775.659824,465.773431 776.505762,463.956229 776.505762,461.675293 C776.505762,459.619944 775.728752,457.877937 774.174708,456.449219 C772.620663,455.020501 769.412362,453.328623 764.549708,451.373535 C759.536662,449.343252 756.002517,447.024753 753.947169,444.417969 C751.89182,441.811185 750.864161,438.678078 750.864161,435.018555 C750.864161,430.431618 752.493376,426.822279 755.751856,424.19043 C759.010336,421.558581 763.384153,420.242676 768.873438,420.242676 C774.137136,420.242676 779.375691,421.395659 784.589258,423.70166 L781.731837,431.033203 C776.844117,428.977854 772.482832,427.950195 768.647852,427.950195 C765.740286,427.950195 763.534578,428.583083 762.030665,429.848877 C760.526751,431.114671 759.774805,432.78775 759.774805,434.868164 C759.774805,436.296882 760.075584,437.518794 760.677149,438.533936 C761.278715,439.549077 762.268776,440.507808 763.647364,441.410156 C765.025952,442.312505 767.507372,443.503085 771.0917,444.981934 C775.127202,446.661304 778.084855,448.227857 779.964747,449.681641 C781.844639,451.135424 783.223206,452.777172 784.100489,454.606934 C784.977772,456.436695 785.416407,458.592273 785.416407,461.07373 Z M827.251368,461.07373 C827.251368,465.96145 825.484296,469.796373 821.950098,472.578613 C818.415901,475.360854 813.540787,476.751953 807.32461,476.751953 C801.108433,476.751953 796.020268,475.786956 792.059962,473.856934 L792.059962,465.359863 C794.566485,466.537929 797.229625,467.465329 800.049464,468.14209 C802.869302,468.818851 805.494845,469.157227 807.926172,469.157227 C811.485435,469.157227 814.110978,468.480476 815.802881,467.126953 C817.494784,465.773431 818.340723,463.956229 818.340723,461.675293 C818.340723,459.619944 817.563713,457.877937 816.009669,456.449219 C814.455624,455.020501 811.247323,453.328623 806.384669,451.373535 C801.371623,449.343252 797.837478,447.024753 795.78213,444.417969 C793.726781,441.811185 792.699122,438.678078 792.699122,435.018555 C792.699122,430.431618 794.328337,426.822279 797.586817,424.19043 C800.845297,421.558581 805.219114,420.242676 810.708399,420.242676 C815.972097,420.242676 821.210652,421.395659 826.424219,423.70166 L823.566797,431.033203 C818.679078,428.977854 814.317793,427.950195 810.482813,427.950195 C807.575246,427.950195 805.369539,428.583083 803.865626,429.848877 C802.361712,431.114671 801.609766,432.78775 801.609766,434.868164 C801.609766,436.296882 801.910544,437.518794 802.51211,438.533936 C803.113676,439.549077 804.103737,440.507808 805.482325,441.410156 C806.860912,442.312505 809.342333,443.503085 812.926661,444.981934 C816.962163,446.661304 819.919815,448.227857 821.799708,449.681641 C823.6796,451.135424 825.058167,452.777172 825.93545,454.606934 C826.812733,456.436695 827.251368,458.592273 827.251368,461.07373 Z M886.193262,448.440918 C886.193262,457.389205 883.956224,464.344702 879.482081,469.307617 C875.007937,474.270533 868.672796,476.751953 860.476465,476.751953 C852.179875,476.751953 845.807135,474.289331 841.358057,469.364014 C836.908979,464.438696 834.684473,457.439336 834.684473,448.365723 C834.684473,439.29211 836.921511,432.32408 841.395655,427.461426 C845.869798,422.598771 852.25507,420.16748 860.551661,420.16748 C868.722926,420.16748 875.039269,422.636369 879.50088,427.574219 C883.96249,432.512069 886.193262,439.467566 886.193262,448.440918 Z M844.234278,448.440918 C844.234278,455.20853 845.600312,460.340559 848.332422,463.837158 C851.064533,467.333758 855.112506,469.082031 860.476465,469.082031 C865.815359,469.082031 869.844535,467.352556 872.564112,463.893555 C875.283689,460.434553 876.643458,455.283726 876.643458,448.440918 C876.643458,441.698371 875.296222,436.585141 872.60171,433.101074 C869.907197,429.617007 865.890555,427.875 860.551661,427.875 C855.162636,427.875 851.095864,429.617007 848.351221,433.101074 C845.606579,436.585141 844.234278,441.698371 844.234278,448.440918 Z M943.292872,476 L932.276758,476 L905.244044,432.19873 L904.943262,432.19873 L905.131251,434.642578 C905.482164,439.304711 905.657618,443.565736 905.657618,447.425781 L905.657618,476 L897.498926,476 L897.498926,421.032227 L908.402247,421.032227 L935.359766,464.60791 L935.585352,464.60791 C935.535222,464.03141 935.434962,461.932228 935.284571,458.310303 C935.13418,454.688377 935.058985,451.862315 935.058985,449.832031 L935.058985,421.032227 L943.292872,421.032227 L943.292872,476 Z M989.000391,461.07373 C989.000391,465.96145 987.233319,469.796373 983.699122,472.578613 C980.164924,475.360854 975.28981,476.751953 969.073633,476.751953 C962.857457,476.751953 957.769291,475.786956 953.808985,473.856934 L953.808985,465.359863 C956.315508,466.537929 958.978649,467.465329 961.798487,468.14209 C964.618325,468.818851 967.243869,469.157227 969.675196,469.157227 C973.234459,469.157227 975.860002,468.480476 977.551905,467.126953 C979.243808,465.773431 980.089747,463.956229 980.089747,461.675293 C980.089747,459.619944 979.312736,457.877937 977.758692,456.449219 C976.204648,455.020501 972.996347,453.328623 968.133692,451.373535 C963.120646,449.343252 959.586502,447.024753 957.531153,444.417969 C955.475804,441.811185 954.448145,438.678078 954.448145,435.018555 C954.448145,430.431618 956.077361,426.822279 959.33584,424.19043 C962.59432,421.558581 966.968137,420.242676 972.457422,420.242676 C977.721121,420.242676 982.959675,421.395659 988.173243,423.70166 L985.315821,431.033203 C980.428101,428.977854 976.066817,427.950195 972.231837,427.950195 C969.32427,427.950195 967.118563,428.583083 965.614649,429.848877 C964.110735,431.114671 963.35879,432.78775 963.35879,434.868164 C963.35879,436.296882 963.659568,437.518794 964.261133,438.533936 C964.862699,439.549077 965.852761,440.507808 967.231348,441.410156 C968.609936,442.312505 971.091356,443.503085 974.675684,444.981934 C978.711186,446.661304 981.668839,448.227857 983.548731,449.681641 C985.428623,451.135424 986.80719,452.777172 987.684473,454.606934 C988.561756,456.436695 989.000391,458.592273 989.000391,461.07373 Z"/>
    <path fill-rule="nonzero" d="M7.01318267,8 L7.01318267,728 L1055.98493,728 L1055.98493,8 L7.01318267,8 Z M0,0 L1064,0 L1064,735 L0,735 L0,0 Z"/>
    <path d="M137.598633 221L130.663086 198.230469 95.7890625 198.230469 88.8535156 221 67 221 100.761719 124.949219 125.55957 124.949219 159.452148 221 137.598633 221zM125.821289 181.21875C119.409148 160.586485 115.799646 148.918308 114.992676 146.213867 114.185706 143.509427 113.607749 141.372078 113.258789 139.801758 111.819329 145.385119 107.6973 159.190645 100.892578 181.21875L125.821289 181.21875zM206.12207 167.282227L244.071289 167.282227 244.071289 216.87793C237.920868 218.88445 232.130398 220.291174 226.699707 221.098145 221.269016 221.905115 215.718453 222.308594 210.047852 222.308594 195.609628 222.308594 184.584836 218.066611 176.973145 209.58252 169.361453 201.098428 165.555664 188.917723 165.555664 173.040039 165.555664 157.598556 169.972124 145.559613 178.805176 136.922852 187.638228 128.28609 199.884362 123.967773 215.543945 123.967773 225.358448 123.967773 234.823848 125.930644 243.94043 129.856445L237.201172 146.083008C230.22197 142.593407 222.959348 140.848633 215.413086 140.848633 206.645464 140.848633 199.622748 143.792939 194.344727 149.681641 189.066705 155.570342 186.427734 163.487255 186.427734 173.432617 186.427734 183.81418 188.554178 191.741997 192.807129 197.216309 197.06008 202.69062 203.243123 205.427734 211.356445 205.427734 215.587586 205.427734 219.884093 204.991541 224.246094 204.119141L224.246094 184.163086 206.12207 184.163086 206.12207 167.282227zM288.124023 167.805664L294.666992 167.805664C301.079134 167.805664 305.811834 166.73699 308.865234 164.599609 311.918635 162.462229 313.445312 159.103539 313.445312 154.523438 313.445312 149.986956 311.885921 146.759124 308.76709 144.839844 305.648259 142.920563 300.817416 141.960938 294.274414 141.960938L288.124023 141.960938 288.124023 167.805664zM288.124023 184.293945L288.124023 221 267.84082 221 267.84082 125.341797 295.713867 125.341797C308.71263 125.341797 318.330698 127.708147 324.568359 132.440918 330.806021 137.173689 333.924805 144.359978 333.924805 154 333.924805 159.626981 332.376318 164.632302 329.279297 169.016113 326.182276 173.399924 321.798531 176.834949 316.12793 179.321289 330.522533 200.825954 339.900694 214.718719 344.262695 221L321.754883 221 298.919922 184.293945 288.124023 184.293945zM357.301758 221L357.301758 125.341797 377.584961 125.341797 377.584961 221 357.301758 221zM443.294922 140.848633C435.66142 140.848633 429.750997 143.716605 425.563477 149.452637 421.375956 155.188668 419.282227 163.181915 419.282227 173.432617 419.282227 194.762802 427.286378 205.427734 443.294922 205.427734 450.012403 205.427734 458.147413 203.748389 467.700195 200.389648L467.700195 217.401367C459.848594 220.672868 451.081103 222.308594 441.397461 222.308594 427.482678 222.308594 416.839555 218.088421 409.467773 209.647949 402.095992 201.207477 398.410156 189.092201 398.410156 173.301758 398.410156 163.356396 400.22036 154.643429 403.84082 147.162598 407.461281 139.681766 412.662889 133.945821 419.445801 129.95459 426.228712 125.963359 434.17834 123.967773 443.294922 123.967773 452.585984 123.967773 461.920526 126.21417 471.298828 130.707031L464.755859 147.195312C461.179019 145.494132 457.580422 144.011074 453.959961 142.746094 450.3395 141.481113 446.784523 140.848633 443.294922 140.848633zM566.910156 125.341797L566.910156 187.238281C566.910156 194.304723 565.328955 200.498671 562.166504 205.820312 559.004053 211.141954 554.434926 215.220363 548.458984 218.055664 542.483043 220.890965 535.416707 222.308594 527.259766 222.308594 514.958923 222.308594 505.406284 219.157095 498.601562 212.854004 491.796841 206.550912 488.394531 197.925185 488.394531 186.976562L488.394531 125.341797 508.612305 125.341797 508.612305 183.901367C508.612305 191.273149 510.095363 196.681949 513.061523 200.12793 516.027684 203.57391 520.934862 205.296875 527.783203 205.296875 534.413445 205.296875 539.222479 203.563006 542.210449 200.095215 545.19842 196.627424 546.692383 191.185909 546.692383 183.770508L546.692383 125.341797 566.910156 125.341797zM591.333984 221L591.333984 125.341797 611.617188 125.341797 611.617188 204.25 650.416992 204.25 650.416992 221 591.333984 221zM702.255859 221L681.972656 221 681.972656 142.222656 655.99707 142.222656 655.99707 125.341797 728.231445 125.341797 728.231445 142.222656 702.255859 142.222656 702.255859 221zM821.814453 125.341797L821.814453 187.238281C821.814453 194.304723 820.233251 200.498671 817.070801 205.820312 813.90835 211.141954 809.339223 215.220363 803.363281 218.055664 797.38734 220.890965 790.321004 222.308594 782.164062 222.308594 769.86322 222.308594 760.310581 219.157095 753.505859 212.854004 746.701138 206.550912 743.298828 197.925185 743.298828 186.976562L743.298828 125.341797 763.516602 125.341797 763.516602 183.901367C763.516602 191.273149 764.99966 196.681949 767.96582 200.12793 770.931981 203.57391 775.839158 205.296875 782.6875 205.296875 789.317741 205.296875 794.126775 203.563006 797.114746 200.095215 800.102717 196.627424 801.59668 191.185909 801.59668 183.770508L801.59668 125.341797 821.814453 125.341797zM866.521484 167.805664L873.064453 167.805664C879.476595 167.805664 884.209295 166.73699 887.262695 164.599609 890.316096 162.462229 891.842773 159.103539 891.842773 154.523438 891.842773 149.986956 890.283381 146.759124 887.164551 144.839844 884.04572 142.920563 879.214876 141.960938 872.671875 141.960938L866.521484 141.960938 866.521484 167.805664zM866.521484 184.293945L866.521484 221 846.238281 221 846.238281 125.341797 874.111328 125.341797C887.110091 125.341797 896.728159 127.708147 902.96582 132.440918 909.203482 137.173689 912.322266 144.359978 912.322266 154 912.322266 159.626981 910.773779 164.632302 907.676758 169.016113 904.579737 173.399924 900.195992 176.834949 894.525391 179.321289 908.919994 200.825954 918.298155 214.718719 922.660156 221L900.152344 221 877.317383 184.293945 866.521484 184.293945zM990.791016 221L935.699219 221 935.699219 125.341797 990.791016 125.341797 990.791016 141.960938 955.982422 141.960938 955.982422 162.963867 988.370117 162.963867 988.370117 179.583008 955.982422 179.583008 955.982422 204.25 990.791016 204.25 990.791016 221zM115.632812 357L78.2255859 357 78.2255859 289.896484 115.632812 289.896484 115.632812 296.827148 86.0283203 296.827148 86.0283203 318.445312 113.842773 318.445312 113.842773 325.330078 86.0283203 325.330078 86.0283203 350.023438 115.632812 350.023438 115.632812 357zM161.658203 357L153.855469 357 153.855469 296.827148 132.604492 296.827148 132.604492 289.896484 182.90918 289.896484 182.90918 296.827148 161.658203 296.827148 161.658203 357zM266.147461 300.774414C260.792616 300.774414 256.646499 302.786275 253.708984 306.810059 250.77147 310.833842 249.302734 316.441045 249.302734 323.631836 249.302734 338.594801 254.917587 346.076172 266.147461 346.076172 270.859724 346.076172 276.566373 344.898124 283.267578 342.541992L283.267578 354.475586C277.759738 356.770519 271.609409 357.917969 264.816406 357.917969 255.05529 357.917969 247.589219 354.957549 242.417969 349.036621 237.246719 343.115693 234.661133 334.616917 234.661133 323.540039 234.661133 316.563442 235.930977 310.451361 238.470703 305.203613 241.010429 299.955866 244.659319 295.932143 249.41748 293.132324 254.175642 290.332506 259.752247 288.932617 266.147461 288.932617 272.665072 288.932617 279.213183 290.508448 285.791992 293.660156L281.202148 305.226562C278.693021 304.033197 276.168632 302.992843 273.628906 302.105469 271.08918 301.218095 268.59539 300.774414 266.147461 300.774414zM363.02832 357L348.845703 357 348.845703 328.038086 322.270508 328.038086 322.270508 357 308.041992 357 308.041992 289.896484 322.270508 289.896484 322.270508 316.196289 348.845703 316.196289 348.845703 289.896484 363.02832 289.896484 363.02832 357zM431.543945 357L426.678711 341.027344 402.214844 341.027344 397.349609 357 382.019531 357 405.703125 289.621094 423.098633 289.621094 446.874023 357 431.543945 357zM423.282227 329.09375C418.784157 314.62037 416.252119 306.435231 415.686035 304.538086 415.119952 302.640941 414.714519 301.141607 414.469727 300.040039 413.459956 303.956725 410.568383 313.641199 405.794922 329.09375L423.282227 329.09375zM525.349609 357L507.265625 357 478.074219 306.236328 477.661133 306.236328C478.242516 315.201868 478.533203 321.596986 478.533203 325.421875L478.533203 357 465.819336 357 465.819336 289.896484 483.765625 289.896484 512.911133 340.155273 513.232422 340.155273C512.773435 331.434527 512.543945 325.268898 512.543945 321.658203L512.543945 289.896484 525.349609 289.896484 525.349609 357zM578.213867 319.317383L604.834961 319.317383 604.834961 354.108398C600.520486 355.515958 596.458515 356.502764 592.648926 357.068848 588.839336 357.634931 584.945658 357.917969 580.967773 357.917969 570.839468 357.917969 563.105658 354.94225 557.766113 348.990723 552.426568 343.039196 549.756836 334.494522 549.756836 323.356445 549.756836 312.52436 552.854949 304.079132 559.05127 298.020508 565.24759 291.961884 573.838161 288.932617 584.823242 288.932617 591.708042 288.932617 598.34795 290.309557 604.743164 293.063477L600.015625 304.446289C595.119767 301.99836 590.025092 300.774414 584.731445 300.774414 578.581024 300.774414 573.654641 302.839823 569.952148 306.970703 566.249656 311.101583 564.398438 316.655239 564.398438 323.631836 564.398438 330.914424 565.890122 336.475729 568.873535 340.315918 571.856949 344.156106 576.194307 346.076172 581.885742 346.076172 584.853856 346.076172 587.867823 345.770185 590.927734 345.158203L590.927734 331.15918 578.213867 331.15918 578.213867 319.317383zM669.954102 357L631.307617 357 631.307617 289.896484 669.954102 289.896484 669.954102 301.554688 645.536133 301.554688 645.536133 316.288086 668.255859 316.288086 668.255859 327.946289 645.536133 327.946289 645.536133 345.25 669.954102 345.25 669.954102 357zM722.864258 357L706.708008 304.354492 706.294922 304.354492C706.876305 315.064181 707.166992 322.208966 707.166992 325.789062L707.166992 357 694.453125 357 694.453125 289.896484 713.822266 289.896484 729.703125 341.210938 729.978516 341.210938 746.823242 289.896484 766.192383 289.896484 766.192383 357 752.927734 357 752.927734 325.238281C752.927734 323.738925 752.950683 322.010101 752.996582 320.051758 753.042481 318.093415 753.249022 312.891644 753.616211 304.446289L753.203125 304.446289 735.899414 357 722.864258 357zM832.229492 357L793.583008 357 793.583008 289.896484 832.229492 289.896484 832.229492 301.554688 807.811523 301.554688 807.811523 316.288086 830.53125 316.288086 830.53125 327.946289 807.811523 327.946289 807.811523 345.25 832.229492 345.25 832.229492 357zM916.258789 357L898.174805 357 868.983398 306.236328 868.570312 306.236328C869.151696 315.201868 869.442383 321.596986 869.442383 325.421875L869.442383 357 856.728516 357 856.728516 289.896484 874.674805 289.896484 903.820312 340.155273 904.141602 340.155273C903.682615 331.434527 903.453125 325.268898 903.453125 321.658203L903.453125 289.896484 916.258789 289.896484 916.258789 357zM969.536133 357L955.307617 357 955.307617 301.738281 937.085938 301.738281 937.085938 289.896484 987.757812 289.896484 987.757812 301.738281 969.536133 301.738281 969.536133 357zM129.746094 587.585938C129.746094 592.367211 128.533215 596.612286 126.107422 600.321289 123.681628 604.030292 120.183617 606.913076 115.613281 608.969727 111.042946 611.026377 105.681671 612.054688 99.5292969 612.054688 94.3964587 612.054688 90.0898612 611.69434 86.609375 610.973633 83.1288888 610.252926 79.5078313 608.996103 75.7460938 607.203125L75.7460938 588.640625C79.7187699 590.679698 83.8495879 592.270502 88.1386719 593.413086 92.4277558 594.55567 96.3652164 595.126953 99.9511719 595.126953 103.044937 595.126953 105.312493 594.590826 106.753906 593.518555 108.19532 592.446284 108.916016 591.066415 108.916016 589.378906 108.916016 588.324213 108.625979 587.401371 108.045898 586.610352 107.465817 585.819332 106.534186 585.019535 105.250977 584.210938 103.967767 583.40234 100.548856 581.750012 94.9941406 579.253906 89.9667717 576.968739 86.1963016 574.753917 83.6826172 572.609375 81.1689327 570.464833 79.3056701 568.00392 78.0927734 565.226562 76.8798767 562.449205 76.2734375 559.162128 76.2734375 555.365234 76.2734375 548.263636 78.857396 542.726582 84.0253906 538.753906 89.1933852 534.78123 96.2948767 532.794922 105.330078 532.794922 113.310587 532.794922 121.449177 534.640607 129.746094 538.332031L123.365234 554.416016C116.158167 551.111312 109.935573 549.458984 104.697266 549.458984 101.990221 549.458984 100.021491 549.933589 98.7910156 550.882812 97.5605407 551.832036 96.9453125 553.009759 96.9453125 554.416016 96.9453125 555.927742 97.7275312 557.281244 99.2919922 558.476562 100.856453 559.671881 105.101528 561.851547 112.027344 565.015625 118.671908 568.003921 123.28612 571.211897 125.870117 574.639648 128.454114 578.0674 129.746094 582.382786 129.746094 587.585938zM191.966797 611L188.169922 596.550781 163.121094 596.550781 159.21875 611 136.332031 611 161.486328 533.585938 189.277344 533.585938 214.748047 611 191.966797 611zM183.845703 579.464844L180.523438 566.808594C179.749996 563.99608 178.809576 560.357444 177.702148 555.892578 176.594721 551.427712 175.865236 548.228525 175.513672 546.294922 175.197264 548.0879 174.573247 551.040995 173.641602 555.154297 172.709956 559.267599 170.644547 567.371033 167.445312 579.464844L183.845703 579.464844zM299.486328 611L272.169922 611 244.009766 556.683594 243.535156 556.683594C244.203128 565.226605 244.537109 571.748024 244.537109 576.248047L244.537109 611 226.080078 611 226.080078 533.902344 253.291016 533.902344 281.345703 587.480469 281.662109 587.480469C281.169919 579.710899 280.923828 573.470727 280.923828 568.759766L280.923828 533.902344 299.486328 533.902344 299.486328 611zM369.564453 587.585938C369.564453 592.367211 368.351575 596.612286 365.925781 600.321289 363.499988 604.030292 360.001976 606.913076 355.431641 608.969727 350.861305 611.026377 345.500031 612.054688 339.347656 612.054688 334.214818 612.054688 329.908221 611.69434 326.427734 610.973633 322.947248 610.252926 319.326191 608.996103 315.564453 607.203125L315.564453 588.640625C319.537129 590.679698 323.667947 592.270502 327.957031 593.413086 332.246115 594.55567 336.183576 595.126953 339.769531 595.126953 342.863297 595.126953 345.130852 594.590826 346.572266 593.518555 348.013679 592.446284 348.734375 591.066415 348.734375 589.378906 348.734375 588.324213 348.444339 587.401371 347.864258 586.610352 347.284177 585.819332 346.352545 585.019535 345.069336 584.210938 343.786126 583.40234 340.367215 581.750012 334.8125 579.253906 329.785131 576.968739 326.014661 574.753917 323.500977 572.609375 320.987292 570.464833 319.12403 568.00392 317.911133 565.226562 316.698236 562.449205 316.091797 559.162128 316.091797 555.365234 316.091797 548.263636 318.675755 542.726582 323.84375 538.753906 329.011745 534.78123 336.113236 532.794922 345.148438 532.794922 353.128946 532.794922 361.267537 534.640607 369.564453 538.332031L363.183594 554.416016C355.976526 551.111312 349.753932 549.458984 344.515625 549.458984 341.80858 549.458984 339.83985 549.933589 338.609375 550.882812 337.3789 551.832036 336.763672 553.009759 336.763672 554.416016 336.763672 555.927742 337.545891 557.281244 339.110352 558.476562 340.674813 559.671881 344.919887 561.851547 351.845703 565.015625 358.490268 568.003921 363.104479 571.211897 365.688477 574.639648 368.272474 578.0674 369.564453 582.382786 369.564453 587.585938zM462.839844 611L459.042969 596.550781 433.994141 596.550781 430.091797 611 407.205078 611 432.359375 533.585938 460.150391 533.585938 485.621094 611 462.839844 611zM454.71875 579.464844L451.396484 566.808594C450.623043 563.99608 449.682623 560.357444 448.575195 555.892578 447.467768 551.427712 446.738283 548.228525 446.386719 546.294922 446.070311 548.0879 445.446294 551.040995 444.514648 555.154297 443.583003 559.267599 441.517594 567.371033 438.318359 579.464844L454.71875 579.464844zM523.425781 611L502.595703 611 502.595703 550.935547 483.769531 550.935547 483.769531 533.902344 542.199219 533.902344 542.199219 550.935547 523.425781 550.935547 523.425781 611zM592.396484 611L571.566406 611 571.566406 550.935547 552.740234 550.935547 552.740234 533.902344 611.169922 533.902344 611.169922 550.935547 592.396484 550.935547 592.396484 611zM670.964844 611L625.191406 611 625.191406 533.902344 670.964844 533.902344 670.964844 550.619141 646.021484 550.619141 646.021484 562.748047 669.119141 562.748047 669.119141 579.464844 646.021484 579.464844 646.021484 594.019531 670.964844 594.019531 670.964844 611zM760.871094 611L733.554688 611 705.394531 556.683594 704.919922 556.683594C705.587894 565.226605 705.921875 571.748024 705.921875 576.248047L705.921875 611 687.464844 611 687.464844 533.902344 714.675781 533.902344 742.730469 587.480469 743.046875 587.480469C742.554685 579.710899 742.308594 573.470727 742.308594 568.759766L742.308594 533.902344 760.871094 533.902344 760.871094 611zM845.978516 570.816406C845.978516 583.683658 842.436559 593.597621 835.352539 600.558594 828.268519 607.519566 818.310611 611 805.478516 611L780.535156 611 780.535156 533.902344 807.21875 533.902344C819.593812 533.902344 829.147427 537.066375 835.879883 543.394531 842.612338 549.722688 845.978516 558.863221 845.978516 570.816406zM824.357422 571.554688C824.357422 564.488246 822.959975 559.250017 820.165039 555.839844 817.370103 552.42967 813.125028 550.724609 807.429688 550.724609L801.365234 550.724609 801.365234 593.914062 806.005859 593.914062C812.334016 593.914062 816.974595 592.077167 819.927734 588.40332 822.880874 584.729474 824.357422 579.113319 824.357422 571.554688zM883.625 582.945312L883.625 611 862.794922 611 862.794922 533.902344 888.054688 533.902344C909.007917 533.902344 919.484375 541.496018 919.484375 556.683594 919.484375 565.613326 915.125044 572.52146 906.40625 577.408203L928.871094 611 905.246094 611 888.898438 582.945312 883.625 582.945312zM883.625 567.283203L887.527344 567.283203C894.804724 567.283203 898.443359 564.066438 898.443359 557.632812 898.443359 552.324192 894.875036 549.669922 887.738281 549.669922L883.625 549.669922 883.625 567.283203zM984.658203 611L938.884766 611 938.884766 533.902344 984.658203 533.902344 984.658203 550.619141 959.714844 550.619141 959.714844 562.748047 982.8125 562.748047 982.8125 579.464844 959.714844 579.464844 959.714844 594.019531 984.658203 594.019531 984.658203 611z"/>
  </g>
</svg>
