<svg xmlns="http://www.w3.org/2000/svg" width="1064" height="735" viewBox="0 0 1064 735">
  <g fill="#FFF" fill-rule="evenodd">
    <path d="M102.64209,427.950195 C97.4786526,427.950195 93.4181463,429.77993 90.4604492,433.439453 C87.5027521,437.098977 86.0239258,442.149545 86.0239258,448.591309 C86.0239258,455.333855 87.4463562,460.434553 90.2912598,463.893555 C93.1361633,467.352556 97.2530655,469.082031 102.64209,469.082031 C104.973156,469.082031 107.228993,468.850181 109.409668,468.386475 C111.590343,467.922768 113.858712,467.327478 116.214844,466.600586 L116.214844,474.308105 C111.903624,475.937345 107.015978,476.751953 101.551758,476.751953 C93.5058191,476.751953 87.3273328,474.314396 83.0161133,469.439209 C78.7048938,464.564022 76.5493164,457.589726 76.5493164,448.516113 C76.5493164,442.801241 77.595774,437.800803 79.6887207,433.514648 C81.7816674,429.228494 84.8082484,425.944998 88.7685547,423.664062 C92.7288609,421.383127 97.3783913,420.242676 102.717285,420.242676 C108.331897,420.242676 113.520321,421.420724 118.282715,423.776855 L115.049316,431.258789 C113.194489,430.381506 111.233165,429.610762 109.165283,428.946533 C107.097402,428.282305 104.923026,427.950195 102.64209,427.950195 Z M129.258106,476 L129.258106,421.032227 L138.243945,421.032227 L138.243945,468.29248 L161.516895,468.29248 L161.516895,476 L129.258106,476 Z M172.191504,476 L172.191504,421.032227 L181.177344,421.032227 L181.177344,476 L172.191504,476 Z M220.651758,476 L204.710352,430.093262 L204.40957,430.093262 C204.835679,436.911004 205.048731,443.302542 205.048731,449.268066 L205.048731,476 L196.890039,476 L196.890039,421.032227 L209.560449,421.032227 L224.825098,464.758301 L225.050684,464.758301 L240.766504,421.032227 L253.474512,421.032227 L253.474512,476 L244.827051,476 L244.827051,448.816895 C244.827051,446.084785 244.895979,442.525575 245.033838,438.13916 C245.171697,433.752745 245.290755,431.095871 245.391016,430.168457 L245.090235,430.168457 L228.584863,476 L220.651758,476 Z M303.250684,476 L297.761426,460.735352 L276.744336,460.735352 L271.367871,476 L261.893262,476 L282.45918,420.806641 L292.234571,420.806641 L312.800488,476 L303.250684,476 Z M295.392774,452.990234 L290.241895,438.026367 C289.865916,437.023758 289.345821,435.444672 288.681592,433.289062 C288.017363,431.133453 287.55993,429.554367 287.309278,428.551758 C286.632516,431.634781 285.642455,435.006004 284.339063,438.665527 L279.376172,452.990234 L295.392774,452.990234 Z M334.867188,476 L325.881348,476 L325.881348,428.739746 L309.714356,428.739746 L309.714356,421.032227 L351.03418,421.032227 L351.03418,428.739746 L334.867188,428.739746 L334.867188,476 Z M360.656055,476 L360.656055,421.032227 L369.641895,421.032227 L369.641895,476 L360.656055,476 Z M434.156348,448.440918 C434.156348,455.108269 432.884307,460.722796 430.340186,465.284668 C427.796065,469.84654 424.092733,473.054841 419.230078,474.909668 L432.389258,489.083984 L420.282813,489.083984 L409.90586,476.751953 L408.439551,476.751953 C400.14296,476.751953 393.770221,474.289331 389.321143,469.364014 C384.872065,464.438696 382.647559,457.439336 382.647559,448.365723 C382.647559,439.29211 384.884597,432.32408 389.358741,427.461426 C393.832884,422.598771 400.218155,420.16748 408.514746,420.16748 C416.686011,420.16748 423.002354,422.636369 427.463965,427.574219 C431.925576,432.512069 434.156348,439.467566 434.156348,448.440918 Z M392.197364,448.440918 C392.197364,455.20853 393.563398,460.340559 396.295508,463.837158 C399.027618,467.333758 403.075592,469.082031 408.439551,469.082031 C413.778445,469.082031 417.80762,467.352556 420.527198,463.893555 C423.246775,460.434553 424.606543,455.283726 424.606543,448.440918 C424.606543,441.698371 423.259307,436.585141 420.564795,433.101074 C417.870283,429.617007 413.85364,427.875 408.514746,427.875 C403.125722,427.875 399.05895,429.617007 396.314307,433.101074 C393.569664,436.585141 392.197364,441.698371 392.197364,448.440918 Z M490.248926,421.032227 L490.248926,456.599609 C490.248926,460.660177 489.377923,464.21312 487.635889,467.258545 C485.893856,470.30397 483.374838,472.647534 480.07876,474.289307 C476.782682,475.931079 472.841234,476.751953 468.254297,476.751953 C461.436555,476.751953 456.135338,474.947284 452.350489,471.337891 C448.565639,467.728498 446.673243,462.765657 446.673243,456.449219 L446.673243,421.032227 L455.69668,421.032227 L455.69668,455.810059 C455.69668,460.346865 456.749404,463.693023 458.854883,465.848633 C460.960362,468.004243 464.193729,469.082031 468.555079,469.082031 C477.027126,469.082031 481.263086,464.63302 481.263086,455.734863 L481.263086,421.032227 L490.248926,421.032227 Z M536.603711,476 L505.51045,476 L505.51045,421.032227 L536.603711,421.032227 L536.603711,428.626953 L514.496289,428.626953 L514.496289,443.59082 L535.212598,443.59082 L535.212598,451.110352 L514.496289,451.110352 L514.496289,468.367676 L536.603711,468.367676 L536.603711,476 Z M569.34502,472.014648 C569.34502,470.335278 569.727259,469.063237 570.491749,468.198486 C571.256238,467.333736 572.352825,466.901367 573.781543,466.901367 C575.235327,466.901367 576.369511,467.333736 577.184131,468.198486 C577.998751,469.063237 578.406055,470.335278 578.406055,472.014648 C578.406055,473.643888 577.992485,474.897131 577.165333,475.774414 C576.33818,476.651697 575.210262,477.090332 573.781543,477.090332 C572.503217,477.090332 571.444227,476.695561 570.604542,475.906006 C569.764856,475.116451 569.34502,473.819345 569.34502,472.014648 Z M569.34502,438.815918 C569.34502,435.432112 570.823846,433.740234 573.781543,433.740234 C576.864567,433.740234 578.406055,435.432112 578.406055,438.815918 C578.406055,440.445158 577.992485,441.698401 577.165333,442.575684 C576.33818,443.452967 575.210262,443.891602 573.781543,443.891602 C572.503217,443.891602 571.444227,443.49683 570.604542,442.707275 C569.764856,441.917721 569.34502,440.620614 569.34502,438.815918 Z M647.880274,476 L642.391016,460.735352 L621.373926,460.735352 L615.997462,476 L606.522852,476 L627.08877,420.806641 L636.864161,420.806641 L657.430079,476 L647.880274,476 Z M640.022364,452.990234 L634.871485,438.026367 C634.495507,437.023758 633.975411,435.444672 633.311182,433.289062 C632.646954,431.133453 632.18952,429.554367 631.938868,428.551758 C631.262107,431.634781 630.272045,435.006004 628.968653,438.665527 L624.005762,452.990234 L640.022364,452.990234 Z M686.828321,446.185059 L707.05586,446.185059 L707.05586,473.781738 C703.74725,474.859543 700.57028,475.624021 697.524854,476.075195 C694.479429,476.526369 691.189667,476.751953 687.655469,476.751953 C679.333813,476.751953 672.917211,474.289331 668.405469,469.364014 C663.893728,464.438696 661.637891,457.489465 661.637891,448.516113 C661.637891,439.668087 664.181974,432.743921 669.270216,427.743408 C674.358457,422.742895 681.364084,420.242676 690.287305,420.242676 C696.027243,420.242676 701.466316,421.345529 706.604688,423.55127 L703.446485,431.033203 C698.984874,428.977854 694.52333,427.950195 690.061719,427.950195 C684.196456,427.950195 679.559458,429.792462 676.150587,433.477051 C672.741715,437.16164 671.037305,442.199675 671.037305,448.591309 C671.037305,455.30879 672.572528,460.415754 675.643018,463.912354 C678.713509,467.408953 683.131189,469.157227 688.896192,469.157227 C691.803759,469.157227 694.911801,468.793786 698.220411,468.066895 L698.220411,453.892578 L686.828321,453.892578 L686.828321,446.185059 Z M721.452637,476 L721.452637,421.032227 L730.438477,421.032227 L730.438477,476 L721.452637,476 Z M777.845997,461.07373 C777.845997,465.96145 776.078925,469.796373 772.544727,472.578613 C769.01053,475.360854 764.135416,476.751953 757.919239,476.751953 C751.703062,476.751953 746.614897,475.786956 742.654591,473.856934 L742.654591,465.359863 C745.161114,466.537929 747.824254,467.465329 750.644093,468.14209 C753.463931,468.818851 756.089474,469.157227 758.520802,469.157227 C762.080064,469.157227 764.705608,468.480476 766.397511,467.126953 C768.089414,465.773431 768.935352,463.956229 768.935352,461.675293 C768.935352,459.619944 768.158342,457.877937 766.604298,456.449219 C765.050253,455.020501 761.841952,453.328623 756.979298,451.373535 C751.966252,449.343252 748.432107,447.024753 746.376759,444.417969 C744.32141,441.811185 743.293751,438.678078 743.293751,435.018555 C743.293751,430.431618 744.922966,426.822279 748.181446,424.19043 C751.439926,421.558581 755.813743,420.242676 761.303028,420.242676 C766.566726,420.242676 771.805281,421.395659 777.018848,423.70166 L774.161427,431.033203 C769.273707,428.977854 764.912422,427.950195 761.077442,427.950195 C758.169876,427.950195 755.964168,428.583083 754.460255,429.848877 C752.956341,431.114671 752.204395,432.78775 752.204395,434.868164 C752.204395,436.296882 752.505174,437.518794 753.106739,438.533936 C753.708305,439.549077 754.698366,440.507808 756.076954,441.410156 C757.455542,442.312505 759.936962,443.503085 763.52129,444.981934 C767.556792,446.661304 770.514444,448.227857 772.394337,449.681641 C774.274229,451.135424 775.652796,452.777172 776.530079,454.606934 C777.407362,456.436695 777.845997,458.592273 777.845997,461.07373 Z M821.380958,461.07373 C821.380958,465.96145 819.613886,469.796373 816.079688,472.578613 C812.545491,475.360854 807.670377,476.751953 801.4542,476.751953 C795.238023,476.751953 790.149858,475.786956 786.189552,473.856934 L786.189552,465.359863 C788.696075,466.537929 791.359215,467.465329 794.179054,468.14209 C796.998892,468.818851 799.624435,469.157227 802.055763,469.157227 C805.615025,469.157227 808.240569,468.480476 809.932472,467.126953 C811.624375,465.773431 812.470313,463.956229 812.470313,461.675293 C812.470313,459.619944 811.693303,457.877937 810.139259,456.449219 C808.585214,455.020501 805.376913,453.328623 800.514259,451.373535 C795.501213,449.343252 791.967068,447.024753 789.91172,444.417969 C787.856371,441.811185 786.828712,438.678078 786.828712,435.018555 C786.828712,430.431618 788.457927,426.822279 791.716407,424.19043 C794.974887,421.558581 799.348704,420.242676 804.837989,420.242676 C810.101687,420.242676 815.340242,421.395659 820.553809,423.70166 L817.696388,431.033203 C812.808668,428.977854 808.447383,427.950195 804.612403,427.950195 C801.704837,427.950195 799.499129,428.583083 797.995216,429.848877 C796.491302,431.114671 795.739356,432.78775 795.739356,434.868164 C795.739356,436.296882 796.040135,437.518794 796.6417,438.533936 C797.243266,439.549077 798.233327,440.507808 799.611915,441.410156 C800.990502,442.312505 803.471923,443.503085 807.056251,444.981934 C811.091753,446.661304 814.049405,448.227857 815.929298,449.681641 C817.80919,451.135424 819.187757,452.777172 820.06504,454.606934 C820.942323,456.436695 821.380958,458.592273 821.380958,461.07373 Z M882.022852,448.440918 C882.022852,457.389205 879.785814,464.344702 875.311671,469.307617 C870.837527,474.270533 864.502386,476.751953 856.306056,476.751953 C848.009465,476.751953 841.636726,474.289331 837.187647,469.364014 C832.738569,464.438696 830.514063,457.439336 830.514063,448.365723 C830.514063,439.29211 832.751102,432.32408 837.225245,427.461426 C841.699388,422.598771 848.08466,420.16748 856.381251,420.16748 C864.552516,420.16748 870.868859,422.636369 875.33047,427.574219 C879.79208,432.512069 882.022852,439.467566 882.022852,448.440918 Z M840.063868,448.440918 C840.063868,455.20853 841.429903,460.340559 844.162013,463.837158 C846.894123,467.333758 850.942096,469.082031 856.306056,469.082031 C861.644949,469.082031 865.674125,467.352556 868.393702,463.893555 C871.113279,460.434553 872.473048,455.283726 872.473048,448.440918 C872.473048,441.698371 871.125812,436.585141 868.4313,433.101074 C865.736788,429.617007 861.720145,427.875 856.381251,427.875 C850.992227,427.875 846.925454,429.617007 844.180811,433.101074 C841.436169,436.585141 840.063868,441.698371 840.063868,448.440918 Z M940.822462,476 L929.806349,476 L902.773634,432.19873 L902.472852,432.19873 L902.660841,434.642578 C903.011754,439.304711 903.187208,443.565736 903.187208,447.425781 L903.187208,476 L895.028517,476 L895.028517,421.032227 L905.931837,421.032227 L932.889356,464.60791 L933.114942,464.60791 C933.064812,464.03141 932.964552,461.932228 932.814161,458.310303 C932.66377,454.688377 932.588575,451.862315 932.588575,449.832031 L932.588575,421.032227 L940.822462,421.032227 L940.822462,476 Z M988.229981,461.07373 C988.229981,465.96145 986.462909,469.796373 982.928712,472.578613 C979.394515,475.360854 974.519401,476.751953 968.303224,476.751953 C962.087047,476.751953 956.998881,475.786956 953.038575,473.856934 L953.038575,465.359863 C955.545098,466.537929 958.208239,467.465329 961.028077,468.14209 C963.847915,468.818851 966.473459,469.157227 968.904786,469.157227 C972.464049,469.157227 975.089592,468.480476 976.781495,467.126953 C978.473398,465.773431 979.319337,463.956229 979.319337,461.675293 C979.319337,459.619944 978.542326,457.877937 976.988282,456.449219 C975.434238,455.020501 972.225937,453.328623 967.363282,451.373535 C962.350236,449.343252 958.816092,447.024753 956.760743,444.417969 C954.705394,441.811185 953.677735,438.678078 953.677735,435.018555 C953.677735,430.431618 955.306951,426.822279 958.565431,424.19043 C961.82391,421.558581 966.197727,420.242676 971.687013,420.242676 C976.950711,420.242676 982.189265,421.395659 987.402833,423.70166 L984.545411,431.033203 C979.657691,428.977854 975.296407,427.950195 971.461427,427.950195 C968.55386,427.950195 966.348153,428.583083 964.844239,429.848877 C963.340325,431.114671 962.58838,432.78775 962.58838,434.868164 C962.58838,436.296882 962.889158,437.518794 963.490724,438.533936 C964.092289,439.549077 965.082351,440.507808 966.460938,441.410156 C967.839526,442.312505 970.320947,443.503085 973.905274,444.981934 C977.940776,446.661304 980.898429,448.227857 982.778321,449.681641 C984.658213,451.135424 986.03678,452.777172 986.914063,454.606934 C987.791346,456.436695 988.229981,458.592273 988.229981,461.07373 Z"/>
    <path fill-rule="nonzero" d="M7.01318267,8 L7.01318267,728 L1055.98493,728 L1055.98493,8 L7.01318267,8 Z M0,0 L1064,0 L1064,735 L0,735 L0,0 Z"/>
    <path d="M137.598633 221L130.663086 198.230469 95.7890625 198.230469 88.8535156 221 67 221 100.761719 124.949219 125.55957 124.949219 159.452148 221 137.598633 221zM125.821289 181.21875C119.409148 160.586485 115.799646 148.918308 114.992676 146.213867 114.185706 143.509427 113.607749 141.372078 113.258789 139.801758 111.819329 145.385119 107.6973 159.190645 100.892578 181.21875L125.821289 181.21875zM206.12207 167.282227L244.071289 167.282227 244.071289 216.87793C237.920868 218.88445 232.130398 220.291174 226.699707 221.098145 221.269016 221.905115 215.718453 222.308594 210.047852 222.308594 195.609628 222.308594 184.584836 218.066611 176.973145 209.58252 169.361453 201.098428 165.555664 188.917723 165.555664 173.040039 165.555664 157.598556 169.972124 145.559613 178.805176 136.922852 187.638228 128.28609 199.884362 123.967773 215.543945 123.967773 225.358448 123.967773 234.823848 125.930644 243.94043 129.856445L237.201172 146.083008C230.22197 142.593407 222.959348 140.848633 215.413086 140.848633 206.645464 140.848633 199.622748 143.792939 194.344727 149.681641 189.066705 155.570342 186.427734 163.487255 186.427734 173.432617 186.427734 183.81418 188.554178 191.741997 192.807129 197.216309 197.06008 202.69062 203.243123 205.427734 211.356445 205.427734 215.587586 205.427734 219.884093 204.991541 224.246094 204.119141L224.246094 184.163086 206.12207 184.163086 206.12207 167.282227zM288.124023 167.805664L294.666992 167.805664C301.079134 167.805664 305.811834 166.73699 308.865234 164.599609 311.918635 162.462229 313.445312 159.103539 313.445312 154.523438 313.445312 149.986956 311.885921 146.759124 308.76709 144.839844 305.648259 142.920563 300.817416 141.960938 294.274414 141.960938L288.124023 141.960938 288.124023 167.805664zM288.124023 184.293945L288.124023 221 267.84082 221 267.84082 125.341797 295.713867 125.341797C308.71263 125.341797 318.330698 127.708147 324.568359 132.440918 330.806021 137.173689 333.924805 144.359978 333.924805 154 333.924805 159.626981 332.376318 164.632302 329.279297 169.016113 326.182276 173.399924 321.798531 176.834949 316.12793 179.321289 330.522533 200.825954 339.900694 214.718719 344.262695 221L321.754883 221 298.919922 184.293945 288.124023 184.293945zM357.301758 221L357.301758 125.341797 377.584961 125.341797 377.584961 221 357.301758 221zM443.294922 140.848633C435.66142 140.848633 429.750997 143.716605 425.563477 149.452637 421.375956 155.188668 419.282227 163.181915 419.282227 173.432617 419.282227 194.762802 427.286378 205.427734 443.294922 205.427734 450.012403 205.427734 458.147413 203.748389 467.700195 200.389648L467.700195 217.401367C459.848594 220.672868 451.081103 222.308594 441.397461 222.308594 427.482678 222.308594 416.839555 218.088421 409.467773 209.647949 402.095992 201.207477 398.410156 189.092201 398.410156 173.301758 398.410156 163.356396 400.22036 154.643429 403.84082 147.162598 407.461281 139.681766 412.662889 133.945821 419.445801 129.95459 426.228712 125.963359 434.17834 123.967773 443.294922 123.967773 452.585984 123.967773 461.920526 126.21417 471.298828 130.707031L464.755859 147.195312C461.179019 145.494132 457.580422 144.011074 453.959961 142.746094 450.3395 141.481113 446.784523 140.848633 443.294922 140.848633zM566.910156 125.341797L566.910156 187.238281C566.910156 194.304723 565.328955 200.498671 562.166504 205.820312 559.004053 211.141954 554.434926 215.220363 548.458984 218.055664 542.483043 220.890965 535.416707 222.308594 527.259766 222.308594 514.958923 222.308594 505.406284 219.157095 498.601562 212.854004 491.796841 206.550912 488.394531 197.925185 488.394531 186.976562L488.394531 125.341797 508.612305 125.341797 508.612305 183.901367C508.612305 191.273149 510.095363 196.681949 513.061523 200.12793 516.027684 203.57391 520.934862 205.296875 527.783203 205.296875 534.413445 205.296875 539.222479 203.563006 542.210449 200.095215 545.19842 196.627424 546.692383 191.185909 546.692383 183.770508L546.692383 125.341797 566.910156 125.341797zM591.333984 221L591.333984 125.341797 611.617188 125.341797 611.617188 204.25 650.416992 204.25 650.416992 221 591.333984 221zM702.255859 221L681.972656 221 681.972656 142.222656 655.99707 142.222656 655.99707 125.341797 728.231445 125.341797 728.231445 142.222656 702.255859 142.222656 702.255859 221zM821.814453 125.341797L821.814453 187.238281C821.814453 194.304723 820.233251 200.498671 817.070801 205.820312 813.90835 211.141954 809.339223 215.220363 803.363281 218.055664 797.38734 220.890965 790.321004 222.308594 782.164062 222.308594 769.86322 222.308594 760.310581 219.157095 753.505859 212.854004 746.701138 206.550912 743.298828 197.925185 743.298828 186.976562L743.298828 125.341797 763.516602 125.341797 763.516602 183.901367C763.516602 191.273149 764.99966 196.681949 767.96582 200.12793 770.931981 203.57391 775.839158 205.296875 782.6875 205.296875 789.317741 205.296875 794.126775 203.563006 797.114746 200.095215 800.102717 196.627424 801.59668 191.185909 801.59668 183.770508L801.59668 125.341797 821.814453 125.341797zM866.521484 167.805664L873.064453 167.805664C879.476595 167.805664 884.209295 166.73699 887.262695 164.599609 890.316096 162.462229 891.842773 159.103539 891.842773 154.523438 891.842773 149.986956 890.283381 146.759124 887.164551 144.839844 884.04572 142.920563 879.214876 141.960938 872.671875 141.960938L866.521484 141.960938 866.521484 167.805664zM866.521484 184.293945L866.521484 221 846.238281 221 846.238281 125.341797 874.111328 125.341797C887.110091 125.341797 896.728159 127.708147 902.96582 132.440918 909.203482 137.173689 912.322266 144.359978 912.322266 154 912.322266 159.626981 910.773779 164.632302 907.676758 169.016113 904.579737 173.399924 900.195992 176.834949 894.525391 179.321289 908.919994 200.825954 918.298155 214.718719 922.660156 221L900.152344 221 877.317383 184.293945 866.521484 184.293945zM990.791016 221L935.699219 221 935.699219 125.341797 990.791016 125.341797 990.791016 141.960938 955.982422 141.960938 955.982422 162.963867 988.370117 162.963867 988.370117 179.583008 955.982422 179.583008 955.982422 204.25 990.791016 204.25 990.791016 221zM111.664062 357L77.4404297 357 77.4404297 295.607422 111.664062 295.607422 111.664062 301.948242 84.5791016 301.948242 84.5791016 321.726562 110.026367 321.726562 110.026367 328.025391 84.5791016 328.025391 84.5791016 350.617188 111.664062 350.617188 111.664062 357zM149.166016 357L142.027344 357 142.027344 301.948242 122.584961 301.948242 122.584961 295.607422 168.608398 295.607422 168.608398 301.948242 149.166016 301.948242 149.166016 357zM210.186523 357L210.186523 295.607422 217.325195 295.607422 217.325195 350.533203 244.410156 350.533203 244.410156 357 210.186523 357zM294.047852 357L259.824219 357 259.824219 295.607422 294.047852 295.607422 294.047852 301.948242 266.962891 301.948242 266.962891 321.726562 292.410156 321.726562 292.410156 328.025391 266.962891 328.025391 266.962891 350.617188 294.047852 350.617188 294.047852 357zM365.356445 305.55957C360.457332 305.55957 356.664076 307.400209 353.976562 311.081543 351.289049 314.762876 349.945312 319.892871 349.945312 326.47168 349.945312 340.161201 355.082305 347.005859 365.356445 347.005859 369.667665 347.005859 374.888641 345.928071 381.019531 343.772461L381.019531 354.69043C375.980444 356.79005 370.353547 357.839844 364.138672 357.839844 355.208289 357.839844 348.377628 355.131375 343.646484 349.714355 338.915341 344.297336 336.549805 336.521861 336.549805 326.387695 336.549805 320.004851 337.711577 314.412947 340.035156 309.611816 342.358736 304.810686 345.697081 301.129407 350.050293 298.567871 354.403505 296.006335 359.505505 294.725586 365.356445 294.725586 371.319366 294.725586 377.310191 296.167303 383.329102 299.050781L379.129883 309.632812C376.834298 308.54101 374.524751 307.589197 372.201172 306.777344 369.877593 305.965491 367.59604 305.55957 365.356445 305.55957zM449.985742 357L437.010156 357 437.010156 330.50293 412.69668 330.50293 412.69668 357 399.679102 357 399.679102 295.607422 412.69668 295.607422 412.69668 319.668945 437.010156 319.668945 437.010156 295.607422 449.985742 295.607422 449.985742 357zM508.663867 357L504.212695 342.386719 481.830859 342.386719 477.379688 357 463.354297 357 485.022266 295.355469 500.937305 295.355469 522.689258 357 508.663867 357zM501.105273 331.46875C496.990018 318.227147 494.673473 310.738615 494.155566 309.00293 493.63766 307.267244 493.266733 305.895513 493.042773 304.887695 492.118941 308.471047 489.473459 317.33131 485.10625 331.46875L501.105273 331.46875zM590.479688 357L573.934766 357 547.227734 310.556641 546.849805 310.556641C547.381708 318.759156 547.647656 324.610009 547.647656 328.109375L547.647656 357 536.01582 357 536.01582 295.607422 552.434766 295.607422 579.099805 341.588867 579.39375 341.588867C578.973826 333.610312 578.763867 327.969418 578.763867 324.666016L578.763867 295.607422 590.479688 295.607422 590.479688 357zM634.838477 322.524414L659.193945 322.524414 659.193945 354.354492C655.24666 355.642259 651.530389 356.545082 648.04502 357.062988 644.559651 357.580895 640.997349 357.839844 637.358008 357.839844 628.091685 357.839844 621.016073 355.117377 616.130957 349.672363 611.245841 344.227349 608.80332 336.409882 608.80332 326.219727 608.80332 316.309521 611.637765 308.583036 617.306738 303.040039 622.975712 297.497043 630.835171 294.725586 640.885352 294.725586 647.184211 294.725586 653.25902 295.985339 659.109961 298.504883L654.784766 308.918945C650.305577 306.679351 645.64449 305.55957 640.801367 305.55957 635.174386 305.55957 630.66727 307.4492 627.279883 311.228516 623.892496 315.007831 622.198828 320.088835 622.198828 326.47168 622.198828 333.134473 623.563561 338.222476 626.293066 341.73584 629.022572 345.249204 632.990794 347.005859 638.197852 347.005859 640.91336 347.005859 643.670819 346.725914 646.470313 346.166016L646.470313 333.358398 634.838477 333.358398 634.838477 322.524414zM714.764648 357L679.407227 357 679.407227 295.607422 714.764648 295.607422 714.764648 306.273438 692.424805 306.273438 692.424805 319.75293 713.210938 319.75293 713.210938 330.418945 692.424805 330.418945 692.424805 346.25 714.764648 346.25 714.764648 357zM759.16543 357L744.38418 308.834961 744.00625 308.834961C744.538154 318.633187 744.804102 325.169905 744.804102 328.445312L744.804102 357 733.172266 357 733.172266 295.607422 750.892969 295.607422 765.422266 342.554688 765.674219 342.554688 781.085352 295.607422 798.806055 295.607422 798.806055 357 786.670313 357 786.670313 327.941406C786.670313 326.569655 786.691308 324.987965 786.733301 323.196289 786.775293 321.404613 786.964256 316.645546 787.300195 308.918945L786.922266 308.918945 771.091211 357 759.16543 357zM855.216602 357L819.85918 357 819.85918 295.607422 855.216602 295.607422 855.216602 306.273438 832.876758 306.273438 832.876758 319.75293 853.662891 319.75293 853.662891 330.418945 832.876758 330.418945 832.876758 346.25 855.216602 346.25 855.216602 357zM928.088086 357L911.543164 357 884.836133 310.556641 884.458203 310.556641C884.990107 318.759156 885.256055 324.610009 885.256055 328.109375L885.256055 357 873.624219 357 873.624219 295.607422 890.043164 295.607422 916.708203 341.588867 917.002148 341.588867C916.582224 333.610312 916.372266 327.969418 916.372266 324.666016L916.372266 295.607422 928.088086 295.607422 928.088086 357zM972.824805 357L959.807227 357 959.807227 306.441406 943.136328 306.441406 943.136328 295.607422 989.495703 295.607422 989.495703 306.441406 972.824805 306.441406 972.824805 357zM125.938477 589.103516C125.938477 593.574892 124.804211 597.544823 122.535645 601.013428 120.267079 604.482032 116.99579 607.177969 112.72168 609.101318 108.44757 611.024668 103.433785 611.986328 97.6801758 611.986328 92.8800216 611.986328 88.8525553 611.649336 85.5976562 610.975342 82.3427572 610.301348 78.9563978 609.125985 75.4384766 607.449219L75.4384766 590.089844C79.1536644 591.996754 83.0167443 593.484451 87.027832 594.552979 91.0389198 595.621506 94.7211746 596.155762 98.074707 596.155762 100.967951 596.155762 103.088535 595.654383 104.436523 594.651611 105.784512 593.648839 106.458496 592.358406 106.458496 590.780273 106.458496 589.79394 106.187259 588.930912 105.644775 588.191162 105.102292 587.451412 104.231044 586.703454 103.031006 585.947266 101.830967 585.191077 98.6336523 583.645845 93.4389648 581.311523 88.7374439 579.174468 85.2113562 577.1032 82.8605957 575.097656 80.5098353 573.092112 78.7673397 570.790703 77.6330566 568.193359 76.4987736 565.596016 75.9316406 562.52199 75.9316406 558.971191 75.9316406 552.329882 78.3481204 547.151711 83.1811523 543.436523 88.0141843 539.721336 94.655394 537.86377 103.10498 537.86377 110.568234 537.86377 118.179323 539.589826 125.938477 543.041992L119.971191 558.083496C113.231249 554.992986 107.411971 553.447754 102.513184 553.447754 99.9815954 553.447754 98.140468 553.891597 96.9897461 554.779297 95.8390242 555.666997 95.2636719 556.768385 95.2636719 558.083496 95.2636719 559.49724 95.9951913 560.763015 97.458252 561.880859 98.9213127 562.998704 102.891244 565.037095 109.368164 567.996094 115.582062 570.790704 119.897205 573.790755 122.313721 576.996338 124.730237 580.20192 125.938477 584.237606 125.938477 589.103516zM184.320801 611L180.77002 597.487305 157.344727 597.487305 153.695312 611 132.291992 611 155.815918 538.603516 181.805664 538.603516 205.625488 611 184.320801 611zM176.726074 581.508789L173.619141 569.672852C172.89583 567.04263 172.016363 563.639832 170.980713 559.464355 169.945063 555.288879 169.26286 552.297047 168.934082 550.48877 168.638182 552.165536 168.05461 554.927227 167.18335 558.773926 166.312089 562.620625 164.380549 570.198837 161.388672 581.508789L176.726074 581.508789zM285.065918 611L259.52002 611 233.185059 560.204102 232.741211 560.204102C233.365889 568.193399 233.678223 574.292134 233.678223 578.500488L233.678223 611 216.41748 611 216.41748 538.899414 241.864746 538.899414 268.101074 589.004883 268.396973 589.004883C267.936684 581.738896 267.706543 575.90318 267.706543 571.497559L267.706543 538.899414 285.065918 538.899414 285.065918 611zM350.796387 589.103516C350.796387 593.574892 349.662121 597.544823 347.393555 601.013428 345.124989 604.482032 341.8537 607.177969 337.57959 609.101318 333.30548 611.024668 328.291695 611.986328 322.538086 611.986328 317.737932 611.986328 313.710465 611.649336 310.455566 610.975342 307.200667 610.301348 303.814308 609.125985 300.296387 607.449219L300.296387 590.089844C304.011575 591.996754 307.874654 593.484451 311.885742 594.552979 315.89683 595.621506 319.579085 596.155762 322.932617 596.155762 325.825861 596.155762 327.946445 595.654383 329.294434 594.651611 330.642422 593.648839 331.316406 592.358406 331.316406 590.780273 331.316406 589.79394 331.045169 588.930912 330.502686 588.191162 329.960202 587.451412 329.088955 586.703454 327.888916 585.947266 326.688877 585.191077 323.491562 583.645845 318.296875 581.311523 313.595354 579.174468 310.069266 577.1032 307.718506 575.097656 305.367745 573.092112 303.62525 570.790703 302.490967 568.193359 301.356684 565.596016 300.789551 562.52199 300.789551 558.971191 300.789551 552.329882 303.206031 547.151711 308.039062 543.436523 312.872094 539.721336 319.513304 537.86377 327.962891 537.86377 335.426144 537.86377 343.037233 539.589826 350.796387 543.041992L344.829102 558.083496C338.089159 554.992986 332.269881 553.447754 327.371094 553.447754 324.839506 553.447754 322.998378 553.891597 321.847656 554.779297 320.696934 555.666997 320.121582 556.768385 320.121582 558.083496 320.121582 559.49724 320.853101 560.763015 322.316162 561.880859 323.779223 562.998704 327.749154 565.037095 334.226074 567.996094 340.439972 570.790704 344.755115 573.790755 347.171631 576.996338 349.588147 580.20192 350.796387 584.237606 350.796387 589.103516zM438.415039 611L434.864258 597.487305 411.438965 597.487305 407.789551 611 386.38623 611 409.910156 538.603516 435.899902 538.603516 459.719727 611 438.415039 611zM430.820312 581.508789L427.713379 569.672852C426.990068 567.04263 426.110601 563.639832 425.074951 559.464355 424.039301 555.288879 423.357098 552.297047 423.02832 550.48877 422.73242 552.165536 422.148849 554.927227 421.277588 558.773926 420.406327 562.620625 418.474787 570.198837 415.48291 581.508789L430.820312 581.508789zM495.268555 611L475.788574 611 475.788574 554.828613 458.182617 554.828613 458.182617 538.899414 512.825195 538.899414 512.825195 554.828613 495.268555 554.828613 495.268555 611zM559.963379 611L540.483398 611 540.483398 554.828613 522.877441 554.828613 522.877441 538.899414 577.52002 538.899414 577.52002 554.828613 559.963379 554.828613 559.963379 611zM633.633789 611L590.827148 611 590.827148 538.899414 633.633789 538.899414 633.633789 554.532715 610.307129 554.532715 610.307129 565.875488 631.907715 565.875488 631.907715 581.508789 610.307129 581.508789 610.307129 595.120117 633.633789 595.120117 633.633789 611zM717.907227 611L692.361328 611 666.026367 560.204102 665.58252 560.204102C666.207197 568.193399 666.519531 574.292134 666.519531 578.500488L666.519531 611 649.258789 611 649.258789 538.899414 674.706055 538.899414 700.942383 589.004883 701.238281 589.004883C700.777992 581.738896 700.547852 575.90318 700.547852 571.497559L700.547852 538.899414 717.907227 538.899414 717.907227 611zM797.692871 573.420898C797.692871 585.454162 794.380486 594.725553 787.755615 601.235352 781.130745 607.74515 771.818257 611 759.817871 611L736.491211 611 736.491211 538.899414 761.445312 538.899414C773.018287 538.899414 781.952687 541.858369 788.248779 547.776367 794.544872 553.694366 797.692871 562.242457 797.692871 573.420898zM777.473145 574.111328C777.473145 567.502897 776.166273 562.604183 773.55249 559.415039 770.938708 556.225896 766.968777 554.631348 761.642578 554.631348L755.971191 554.631348 755.971191 595.021484 760.311035 595.021484C766.229033 595.021484 770.568834 593.303647 773.330566 589.86792 776.092299 586.432193 777.473145 581.180048 777.473145 574.111328zM833.09375 584.763672L833.09375 611 813.61377 611 813.61377 538.899414 837.236328 538.899414C856.831478 538.899414 866.628906 546.000906 866.628906 560.204102 866.628906 568.555055 862.552124 575.015439 854.398438 579.585449L875.407227 611 853.313477 611 838.025391 584.763672 833.09375 584.763672zM833.09375 570.116699L836.743164 570.116699C843.548862 570.116699 846.95166 567.108429 846.95166 561.091797 846.95166 556.127254 843.614617 553.64502 836.94043 553.64502L833.09375 553.64502 833.09375 570.116699zM927.772949 611L884.966309 611 884.966309 538.899414 927.772949 538.899414 927.772949 554.532715 904.446289 554.532715 904.446289 565.875488 926.046875 565.875488 926.046875 581.508789 904.446289 581.508789 904.446289 595.120117 927.772949 595.120117 927.772949 611zM987.675781 585.552734L971.401367 585.552734 968.88623 538.899414 990.190918 538.899414 987.675781 585.552734zM969.083496 602.813477C969.083496 599.8216 969.971183 597.495532 971.746582 595.835205 973.521982 594.174878 976.102848 593.344727 979.489258 593.344727 982.84279 593.344727 985.38256 594.174878 987.108643 595.835205 988.834725 597.495532 989.697754 599.8216 989.697754 602.813477 989.697754 605.772476 988.801848 608.082104 987.01001 609.742432 985.218171 611.402759 982.711279 612.23291 979.489258 612.23291 976.234359 612.23291 973.68637 611.402759 971.845215 609.742432 970.00406 608.082104 969.083496 605.772476 969.083496 602.813477z"/>
  </g>
</svg>
