<svg xmlns="http://www.w3.org/2000/svg" width="1064" height="735" viewBox="0 0 1064 735">
  <g fill="#FFF" fill-rule="evenodd">
    <path d="M115.347168,411.428223 C108.340297,411.428223 102.915058,414.060765 99.0712891,419.325928 C95.2275198,424.591091 93.3056641,431.928176 93.3056641,441.337402 C93.3056641,460.916602 100.652759,470.706055 115.347168,470.706055 C121.513214,470.706055 128.980425,469.164566 137.749023,466.081543 L137.749023,481.696777 C130.541956,484.699722 122.494185,486.201172 113.605469,486.201172 C100.832944,486.201172 91.0635104,482.327431 84.296875,474.579834 C77.5302396,466.832237 74.1469727,455.711498 74.1469727,441.217285 C74.1469727,432.088333 75.8085771,424.090611 79.1318359,417.223877 C82.4550947,410.357143 87.2297052,405.092059 93.4558105,401.428467 C99.6819159,397.764874 106.978962,395.933105 115.347168,395.933105 C123.875531,395.933105 132.443805,397.995097 141.052246,402.119141 L135.046387,417.253906 C131.763167,415.692375 128.459978,414.33106 125.136719,413.169922 C121.81346,412.008783 118.550309,411.428223 115.347168,411.428223 Z M230.697441,485 L212.139336,485 L212.139336,447.103027 L177.36541,447.103027 L177.36541,485 L158.747246,485 L158.747246,397.194336 L177.36541,397.194336 L177.36541,431.60791 L212.139336,431.60791 L212.139336,397.194336 L230.697441,397.194336 L230.697441,485 Z M308.931504,485 L302.565293,464.099609 L270.554062,464.099609 L264.187851,485 L244.128281,485 L275.118515,396.833984 L297.880723,396.833984 L328.991074,485 L308.931504,485 Z M298.120957,448.484375 C292.235185,429.545804 288.921986,418.835462 288.18126,416.353027 C287.440533,413.870593 286.910021,411.908699 286.589707,410.467285 C285.268411,415.592311 281.484758,428.264547 275.238633,448.484375 L298.120957,448.484375 Z M420.257851,485 L396.594765,485 L358.3975,418.575195 L357.856972,418.575195 C358.617718,430.306699 358.998086,438.67478 358.998086,443.679688 L358.998086,485 L342.361855,485 L342.361855,397.194336 L365.844765,397.194336 L403.981972,462.958496 L404.402383,462.958496 C403.801794,451.547306 403.501504,443.479516 403.501504,438.754883 L403.501504,397.194336 L420.257851,397.194336 L420.257851,485 Z M478.011933,435.691895 L512.845918,435.691895 L512.845918,481.216309 C507.200382,483.058115 501.885249,484.349362 496.900361,485.090088 C491.915473,485.830814 486.820553,486.201172 481.615449,486.201172 C468.362453,486.201172 458.242681,482.307412 451.25583,474.519775 C444.268978,466.732139 440.775605,455.551342 440.775605,440.977051 C440.775605,426.803152 444.82952,415.752481 452.93747,407.824707 C461.045421,399.896933 472.286276,395.933105 486.660371,395.933105 C495.669205,395.933105 504.357595,397.734845 512.725801,401.338379 L506.539765,416.23291 C500.133483,413.029769 493.467046,411.428223 486.540254,411.428223 C478.492362,411.428223 472.046137,414.130832 467.201386,419.536133 C462.356636,424.941433 459.934297,432.20845 459.934297,441.337402 C459.934297,450.866747 461.886181,458.143774 465.790009,463.168701 C469.693838,468.193629 475.369318,470.706055 482.816621,470.706055 C486.700429,470.706055 490.644238,470.305668 494.648164,469.504883 L494.648164,451.187012 L478.011933,451.187012 L478.011933,435.691895 Z M586.635644,485 L536.066308,485 L536.066308,397.194336 L586.635644,397.194336 L586.635644,412.449219 L554.684472,412.449219 L554.684472,431.728027 L584.413476,431.728027 L584.413476,446.98291 L554.684472,446.98291 L554.684472,469.625 L586.635644,469.625 L586.635644,485 Z M639.622812,478.633789 C639.622812,475.951158 640.233402,473.919196 641.454599,472.537842 C642.675797,471.156487 644.427488,470.46582 646.709726,470.46582 C649.032003,470.46582 650.843753,471.156487 652.145029,472.537842 C653.446305,473.919196 654.096933,475.951158 654.096933,478.633789 C654.096933,481.236341 653.436295,483.238274 652.115,484.639648 C650.793704,486.041023 648.991964,486.741699 646.709726,486.741699 C644.667724,486.741699 642.97609,486.11109 641.634775,484.849854 C640.29346,483.588617 639.622812,481.516616 639.622812,478.633789 Z M639.622812,425.602051 C639.622812,420.19675 641.985093,417.494141 646.709726,417.494141 C651.634555,417.494141 654.096933,420.19675 654.096933,425.602051 C654.096933,428.204603 653.436295,430.206536 652.115,431.60791 C650.793704,433.009284 648.991964,433.709961 646.709726,433.709961 C644.667724,433.709961 642.97609,433.079352 641.634775,431.818115 C640.29346,430.556878 639.622812,428.484878 639.622812,425.602051 Z M741.73791,485 L727.383906,485 L727.383906,409.506348 L701.55871,409.506348 L701.55871,397.194336 L767.563105,397.194336 L767.563105,409.506348 L741.73791,409.506348 L741.73791,485 Z M783.33623,485 L783.33623,397.194336 L797.690234,397.194336 L797.690234,485 L783.33623,485 Z M861.149882,485 L835.685038,411.668457 L835.20457,411.668457 C835.885237,422.559136 836.225566,432.768995 836.225566,442.29834 L836.225566,485 L823.192851,485 L823.192851,397.194336 L843.432597,397.194336 L867.816386,467.04248 L868.176738,467.04248 L893.28123,397.194336 L913.581034,397.194336 L913.581034,485 L899.767558,485 L899.767558,441.577637 C899.767558,437.213357 899.877664,431.527867 900.09788,424.520996 C900.318096,417.514125 900.50828,413.270027 900.668437,411.788574 L900.187968,411.788574 L873.822245,485 L861.149882,485 Z M988.69205,485 L939.023593,485 L939.023593,397.194336 L988.69205,397.194336 L988.69205,409.326172 L953.377597,409.326172 L953.377597,433.229492 L986.469882,433.229492 L986.469882,445.241211 L953.377597,445.241211 L953.377597,472.808105 L988.69205,472.808105 L988.69205,485 Z"/>
    <path fill-rule="nonzero" d="M7.01318267,8 L7.01318267,728 L1055.98493,728 L1055.98493,8 L7.01318267,8 Z M0,0 L1064,0 L1064,735 L0,735 L0,0 Z"/>
    <path d="M137.598633 194L130.663086 171.230469 95.7890625 171.230469 88.8535156 194 67 194 100.761719 97.9492188 125.55957 97.9492188 159.452148 194 137.598633 194zM125.821289 154.21875C119.409148 133.586485 115.799646 121.918308 114.992676 119.213867 114.185706 116.509427 113.607749 114.372078 113.258789 112.801758 111.819329 118.385119 107.6973 132.190645 100.892578 154.21875L125.821289 154.21875zM206.12207 140.282227L244.071289 140.282227 244.071289 189.87793C237.920868 191.88445 232.130398 193.291174 226.699707 194.098145 221.269016 194.905115 215.718453 195.308594 210.047852 195.308594 195.609628 195.308594 184.584836 191.066611 176.973145 182.58252 169.361453 174.098428 165.555664 161.917723 165.555664 146.040039 165.555664 130.598556 169.972124 118.559613 178.805176 109.922852 187.638228 101.28609 199.884362 96.9677734 215.543945 96.9677734 225.358448 96.9677734 234.823848 98.9306444 243.94043 102.856445L237.201172 119.083008C230.22197 115.593407 222.959348 113.848633 215.413086 113.848633 206.645464 113.848633 199.622748 116.792939 194.344727 122.681641 189.066705 128.570342 186.427734 136.487255 186.427734 146.432617 186.427734 156.81418 188.554178 164.741997 192.807129 170.216309 197.06008 175.69062 203.243123 178.427734 211.356445 178.427734 215.587586 178.427734 219.884093 177.991541 224.246094 177.119141L224.246094 157.163086 206.12207 157.163086 206.12207 140.282227zM288.124023 140.805664L294.666992 140.805664C301.079134 140.805664 305.811834 139.73699 308.865234 137.599609 311.918635 135.462229 313.445312 132.103539 313.445312 127.523438 313.445312 122.986956 311.885921 119.759124 308.76709 117.839844 305.648259 115.920563 300.817416 114.960938 294.274414 114.960938L288.124023 114.960938 288.124023 140.805664zM288.124023 157.293945L288.124023 194 267.84082 194 267.84082 98.3417969 295.713867 98.3417969C308.71263 98.3417969 318.330698 100.708147 324.568359 105.440918 330.806021 110.173689 333.924805 117.359978 333.924805 127 333.924805 132.626981 332.376318 137.632302 329.279297 142.016113 326.182276 146.399924 321.798531 149.834949 316.12793 152.321289 330.522533 173.825954 339.900694 187.718719 344.262695 194L321.754883 194 298.919922 157.293945 288.124023 157.293945zM357.301758 194L357.301758 98.3417969 377.584961 98.3417969 377.584961 194 357.301758 194zM443.294922 113.848633C435.66142 113.848633 429.750997 116.716605 425.563477 122.452637 421.375956 128.188668 419.282227 136.181915 419.282227 146.432617 419.282227 167.762802 427.286378 178.427734 443.294922 178.427734 450.012403 178.427734 458.147413 176.748389 467.700195 173.389648L467.700195 190.401367C459.848594 193.672868 451.081103 195.308594 441.397461 195.308594 427.482678 195.308594 416.839555 191.088421 409.467773 182.647949 402.095992 174.207477 398.410156 162.092201 398.410156 146.301758 398.410156 136.356396 400.22036 127.643429 403.84082 120.162598 407.461281 112.681766 412.662889 106.945821 419.445801 102.95459 426.228712 98.963359 434.17834 96.9677734 443.294922 96.9677734 452.585984 96.9677734 461.920526 99.2141702 471.298828 103.707031L464.755859 120.195312C461.179019 118.494132 457.580422 117.011074 453.959961 115.746094 450.3395 114.481113 446.784523 113.848633 443.294922 113.848633zM566.910156 98.3417969L566.910156 160.238281C566.910156 167.304723 565.328955 173.498671 562.166504 178.820312 559.004053 184.141954 554.434926 188.220363 548.458984 191.055664 542.483043 193.890965 535.416707 195.308594 527.259766 195.308594 514.958923 195.308594 505.406284 192.157095 498.601562 185.854004 491.796841 179.550912 488.394531 170.925185 488.394531 159.976562L488.394531 98.3417969 508.612305 98.3417969 508.612305 156.901367C508.612305 164.273149 510.095363 169.681949 513.061523 173.12793 516.027684 176.57391 520.934862 178.296875 527.783203 178.296875 534.413445 178.296875 539.222479 176.563006 542.210449 173.095215 545.19842 169.627424 546.692383 164.185909 546.692383 156.770508L546.692383 98.3417969 566.910156 98.3417969zM591.333984 194L591.333984 98.3417969 611.617188 98.3417969 611.617188 177.25 650.416992 177.25 650.416992 194 591.333984 194zM702.255859 194L681.972656 194 681.972656 115.222656 655.99707 115.222656 655.99707 98.3417969 728.231445 98.3417969 728.231445 115.222656 702.255859 115.222656 702.255859 194zM821.814453 98.3417969L821.814453 160.238281C821.814453 167.304723 820.233251 173.498671 817.070801 178.820312 813.90835 184.141954 809.339223 188.220363 803.363281 191.055664 797.38734 193.890965 790.321004 195.308594 782.164062 195.308594 769.86322 195.308594 760.310581 192.157095 753.505859 185.854004 746.701138 179.550912 743.298828 170.925185 743.298828 159.976562L743.298828 98.3417969 763.516602 98.3417969 763.516602 156.901367C763.516602 164.273149 764.99966 169.681949 767.96582 173.12793 770.931981 176.57391 775.839158 178.296875 782.6875 178.296875 789.317741 178.296875 794.126775 176.563006 797.114746 173.095215 800.102717 169.627424 801.59668 164.185909 801.59668 156.770508L801.59668 98.3417969 821.814453 98.3417969zM866.521484 140.805664L873.064453 140.805664C879.476595 140.805664 884.209295 139.73699 887.262695 137.599609 890.316096 135.462229 891.842773 132.103539 891.842773 127.523438 891.842773 122.986956 890.283381 119.759124 887.164551 117.839844 884.04572 115.920563 879.214876 114.960938 872.671875 114.960938L866.521484 114.960938 866.521484 140.805664zM866.521484 157.293945L866.521484 194 846.238281 194 846.238281 98.3417969 874.111328 98.3417969C887.110091 98.3417969 896.728159 100.708147 902.96582 105.440918 909.203482 110.173689 912.322266 117.359978 912.322266 127 912.322266 132.626981 910.773779 137.632302 907.676758 142.016113 904.579737 146.399924 900.195992 149.834949 894.525391 152.321289 908.919994 173.825954 918.298155 187.718719 922.660156 194L900.152344 194 877.317383 157.293945 866.521484 157.293945zM990.791016 194L935.699219 194 935.699219 98.3417969 990.791016 98.3417969 990.791016 114.960938 955.982422 114.960938 955.982422 135.963867 988.370117 135.963867 988.370117 152.583008 955.982422 152.583008 955.982422 177.25 990.791016 177.25 990.791016 194zM134.625 341L123.960938 313.753906 89.625 313.753906 79.078125 341 69 341 102.867188 254.984375 111.246094 254.984375 144.9375 341 134.625 341zM120.855469 304.789062L110.894531 278.246094C109.605462 274.886702 108.277351 270.765649 106.910156 265.882812 106.050777 269.632831 104.820321 273.753884 103.21875 278.246094L93.140625 304.789062 120.855469 304.789062zM237.033156 341L225.665969 341 178.849562 269.105469 178.380812 269.105469C179.005816 277.543011 179.318312 285.277309 179.318312 292.308594L179.318312 341 170.119094 341 170.119094 255.335938 181.369094 255.335938 228.068312 326.9375 228.537062 326.9375C228.458937 325.882807 228.283158 322.494169 228.009719 316.771484 227.73628 311.0488 227.638625 306.957044 227.71675 304.496094L227.71675 255.335938 237.033156 255.335938 237.033156 341zM342.371 297.347656C342.371 311.488352 338.533148 322.298791 330.857328 329.779297 323.181508 337.259803 312.136697 341 297.722562 341L273.992094 341 273.992094 255.335938 300.242094 255.335938C313.562473 255.335938 323.913932 259.027307 331.296781 266.410156 338.679631 273.793006 342.371 284.105403 342.371 297.347656zM331.824125 297.699219C331.824125 286.527288 329.021419 278.109403 323.415922 272.445312 317.810425 266.781222 309.48043 263.949219 298.425687 263.949219L283.953031 263.949219 283.953031 332.386719 296.081937 332.386719C307.956997 332.386719 316.882689 329.466826 322.859281 323.626953 328.835874 317.78708 331.824125 309.144588 331.824125 297.699219zM454.956203 269.222656C448.120231 269.222656 442.827315 271.79099 439.077296 276.927734 435.327278 282.064479 433.452296 289.22261 433.452296 298.402344 433.452296 317.504002 440.620193 327.054688 454.956203 327.054688 460.971858 327.054688 468.256941 325.550796 476.811671 322.542969L476.811671 337.777344C469.780386 340.707046 461.928902 342.171875 453.256984 342.171875 440.795984 342.171875 431.264829 338.392616 424.663234 330.833984 418.061638 323.275353 414.76089 312.425852 414.76089 298.285156 414.76089 289.378862 416.381968 281.576205 419.624171 274.876953 422.866375 268.177701 427.524532 263.041033 433.598781 259.466797 439.67303 255.89256 446.792099 254.105469 454.956203 254.105469 463.276557 254.105469 471.635848 256.117167 480.034328 260.140625L474.174953 274.90625C470.971811 273.382805 467.749187 272.054693 464.506984 270.921875 461.26478 269.789057 458.081218 269.222656 454.956203 269.222656zM508.551218 341L508.551218 255.335938 526.71528 255.335938 526.71528 326 561.461374 326 561.461374 341 508.551218 341zM589.861076 341L589.861076 255.335938 608.025139 255.335938 608.025139 341 589.861076 341zM679.37406 341L658.74906 273.792969 658.221716 273.792969C658.963907 287.464912 659.334997 296.585915 659.334997 301.15625L659.334997 341 643.104529 341 643.104529 255.335938 667.831091 255.335938 688.104529 320.84375 688.456091 320.84375 709.959997 255.335938 734.68656 255.335938 734.68656 341 717.752966 341 717.752966 300.453125C717.752966 298.539053 717.782263 296.332044 717.840857 293.832031 717.899451 291.332019 718.16312 284.69146 718.631872 273.910156L718.104529 273.910156 696.014685 341 679.37406 341zM822.207356 341L815.996419 320.609375 784.76595 320.609375 778.555012 341 758.9847 341 789.219075 254.984375 811.426106 254.984375 841.777669 341 822.207356 341zM811.660481 305.375C805.918265 286.898345 802.685875 276.449231 801.963216 274.027344 801.240556 271.605457 800.722983 269.691413 800.410481 268.285156 799.121412 273.285181 795.430043 285.648339 789.336262 305.375L811.660481 305.375zM890.743777 341L872.579715 341 872.579715 270.453125 849.317996 270.453125 849.317996 255.335938 914.005496 255.335938 914.005496 270.453125 890.743777 270.453125 890.743777 341zM990.041917 341L940.70598 341 940.70598 255.335938 990.041917 255.335938 990.041917 270.21875 958.870042 270.21875 958.870042 289.027344 987.873949 289.027344 987.873949 303.910156 958.870042 303.910156 958.870042 326 990.041917 326 990.041917 341zM101.460938 644L74.109375 644 74.109375 541.203125 134.859375 541.203125 134.859375 563.492188 101.460938 563.492188 101.460938 583.109375 132.257812 583.109375 132.257812 605.398438 101.460938 605.398438 101.460938 644zM252.621875 592.460938C252.621875 609.757899 248.37973 622.906205 239.895312 631.90625 231.410895 640.906295 218.989144 645.40625 202.629687 645.40625 186.504607 645.40625 174.141449 640.882858 165.539844 631.835938 156.938238 622.789017 152.6375 609.617274 152.6375 592.320312 152.6375 575.210852 156.914801 562.144576 165.469531 553.121094 174.024261 544.097611 186.457731 539.585938 202.770312 539.585938 219.129769 539.585938 231.528083 544.062455 239.965625 553.015625 248.403167 561.968795 252.621875 575.117101 252.621875 592.460938zM181.8875 592.460938C181.8875 612.336037 188.801493 622.273438 202.629687 622.273438 209.660972 622.273438 214.875764 619.859399 218.274219 615.03125 221.672673 610.203101 223.371875 602.679739 223.371875 592.460938 223.371875 582.195261 221.649236 574.613306 218.203906 569.714844 214.758576 564.816382 209.614097 562.367188 202.770312 562.367188 188.848368 562.367188 181.8875 572.398337 181.8875 592.460938zM303.657812 606.59375L303.657812 644 275.884375 644 275.884375 541.203125 309.564062 541.203125C337.501702 541.203125 351.470312 551.328024 351.470312 571.578125 351.470312 583.484435 345.65787 592.69528 334.032812 599.210938L363.985937 644 332.485937 644 310.689062 606.59375 303.657812 606.59375zM303.657812 585.710938L308.860937 585.710938C318.564111 585.710938 323.415625 581.421918 323.415625 572.84375 323.415625 565.76559 318.65786 562.226562 309.142187 562.226562L303.657812 562.226562 303.657812 585.710938zM483.214062 644L478.151562 624.734375 444.753124 624.734375 439.549999 644 409.034374 644 442.573437 540.78125 479.628124 540.78125 513.589062 644 483.214062 644zM472.385937 601.953125L467.956249 585.078125C466.924994 581.328106 465.6711 576.476592 464.19453 570.523438 462.717961 564.570283 461.745314 560.3047 461.276562 557.726562 460.854685 560.117199 460.022662 564.05466 458.780468 569.539062 457.538274 575.023465 454.784396 585.828044 450.518749 601.953125L472.385937 601.953125zM572.289062 562.507812C565.679653 562.507812 560.523455 565.214817 556.820312 570.628906 553.117168 576.042996 551.265624 583.507765 551.265624 593.023438 551.265624 612.804786 558.788986 622.695312 573.835937 622.695312 578.382834 622.695312 582.78904 622.062506 587.054687 620.796875 591.320333 619.531244 595.609352 618.007821 599.921874 616.226562L599.921874 639.710938C591.343706 643.507831 581.640678 645.40625 570.812499 645.40625 555.296796 645.40625 543.402384 640.906295 535.128905 631.90625 526.855426 622.906205 522.718749 609.898523 522.718749 592.882812 522.718749 582.242134 524.722635 572.890665 528.730468 564.828125 532.7383 556.765585 538.503868 550.566428 546.027343 546.230469 553.550818 541.89451 562.398386 539.726562 572.570312 539.726562 583.679742 539.726562 594.296823 542.140601 604.421874 546.96875L595.914062 568.835938C592.117168 567.054679 588.320331 565.554694 584.523437 564.335938 580.726543 563.117181 576.648458 562.507812 572.289062 562.507812zM670.012499 644L642.239061 644 642.239061 563.914062 617.137499 563.914062 617.137499 541.203125 695.043749 541.203125 695.043749 563.914062 670.012499 563.914062 670.012499 644zM714.439061 644L714.439061 541.203125 742.353124 541.203125 742.353124 644 714.439061 644zM865.459373 592.460938C865.459373 609.757899 861.217228 622.906205 852.732811 631.90625 844.248394 640.906295 831.826643 645.40625 815.467186 645.40625 799.342105 645.40625 786.978948 640.882858 778.377342 631.835938 769.775737 622.789017 765.474998 609.617274 765.474998 592.320312 765.474998 575.210852 769.752299 562.144576 778.30703 553.121094 786.86176 544.097611 799.295229 539.585938 815.607811 539.585938 831.967268 539.585938 844.365581 544.062455 852.803123 553.015625 861.240666 561.968795 865.459373 575.117101 865.459373 592.460938zM794.724998 592.460938C794.724998 612.336037 801.638992 622.273438 815.467186 622.273438 822.498471 622.273438 827.713263 619.859399 831.111717 615.03125 834.510172 610.203101 836.209373 602.679739 836.209373 592.460938 836.209373 582.195261 834.486734 574.613306 831.041405 569.714844 827.596075 564.816382 822.451595 562.367188 815.607811 562.367188 801.685866 562.367188 794.724998 572.398337 794.724998 592.460938zM986.596873 644L950.174998 644 912.628123 571.578125 911.995311 571.578125C912.88594 582.968807 913.331248 591.664032 913.331248 597.664062L913.331248 644 888.721873 644 888.721873 541.203125 925.003123 541.203125 962.409373 612.640625 962.831248 612.640625C962.174995 602.281198 961.846873 593.960969 961.846873 587.679688L961.846873 541.203125 986.596873 541.203125 986.596873 644z"/>
  </g>
</svg>
