<svg xmlns="http://www.w3.org/2000/svg" viewBox="0 0 444 347"><g fill="#FFF" fill-rule="evenodd"><path d="M0 0h444v347H0V0zm4.073 4.07v338.86h435.85V4.07H4.073z"/><path fill-rule="nonzero" d="M84.322 105.326c0 5.16-1.863 9.185-5.587 12.073-3.724 2.888-8.778 4.332-15.163 4.332-6.916 0-12.237-.896-15.961-2.688v-6.577c2.394 1.016 5.001 1.818 7.82 2.406 2.82.588 5.614.883 8.38.883 4.523 0 7.928-.863 10.216-2.587 2.287-1.725 3.431-4.125 3.431-7.2 0-2.032-.405-3.697-1.217-4.994-.811-1.296-2.168-2.493-4.07-3.59-1.902-1.096-4.795-2.339-8.679-3.73-5.427-1.951-9.304-4.264-11.631-6.938-2.328-2.674-3.492-6.164-3.492-10.469 0-4.519 1.69-8.115 5.068-10.789 3.378-2.674 7.847-4.01 13.407-4.01 5.8 0 11.133 1.069 16.001 3.208l-2.115 5.936c-4.815-2.032-9.497-3.048-14.046-3.048-3.59 0-6.397.775-8.419 2.326-2.022 1.55-3.033 3.703-3.033 6.458 0 2.032.373 3.696 1.118 4.993.744 1.297 2.001 2.487 3.77 3.57 1.77 1.083 4.476 2.28 8.12 3.59 6.12 2.192 10.329 4.545 12.63 7.059 2.301 2.513 3.452 5.775 3.452 9.786zm68.015-13.797c0 9.385-2.36 16.765-7.082 22.14-4.722 5.374-11.286 8.062-19.692 8.062-8.593 0-15.223-2.64-19.892-7.922-4.669-5.28-7.003-12.734-7.003-22.36 0-9.546 2.34-16.946 7.023-22.2 4.682-5.255 11.332-7.882 19.951-7.882 8.38 0 14.924 2.674 19.633 8.022 4.708 5.348 7.062 12.728 7.062 22.14zm-46.486 0c0 7.941 1.682 13.964 5.047 18.069 3.365 4.104 8.253 6.157 14.665 6.157 6.464 0 11.345-2.046 14.644-6.137 3.299-4.091 4.948-10.12 4.948-18.09 0-7.887-1.643-13.87-4.928-17.948-3.286-4.078-8.147-6.117-14.585-6.117-6.464 0-11.379 2.053-14.744 6.157-3.365 4.105-5.047 10.074-5.047 17.909zm115.06 29.4h-6.703l-11.771-39.267c-.559-1.738-1.184-3.93-1.876-6.578-.691-2.647-1.05-4.238-1.077-4.773-.585 3.53-1.516 7.394-2.793 11.592l-11.412 39.026h-6.704l-15.522-58.64h7.182l9.218 36.219c1.277 5.08 2.208 9.68 2.793 13.797.718-4.893 1.782-9.68 3.192-14.359l10.455-35.657h7.182l10.974 35.978c1.276 4.145 2.354 8.824 3.232 14.038.505-3.797 1.463-8.423 2.873-13.877l9.177-36.139h7.183l-15.602 58.64zm30.189 0v-58.64h6.783v58.64H251.1zm73.801 0h-7.74l-31.883-49.214h-.32c.426 5.776.64 11.07.64 15.883v33.33h-6.266V62.29h7.662l31.802 49.013h.32c-.054-.722-.173-3.041-.36-6.958-.186-3.918-.252-6.719-.2-8.403V62.289h6.345v58.64zm47.147-30.724h19.832v28.518a63.481 63.481 0 0 1-9.417 2.246c-3.193.508-6.89.762-11.093.762-8.832 0-15.709-2.64-20.63-7.922-4.922-5.28-7.382-12.68-7.382-22.2 0-6.097 1.217-11.438 3.65-16.023 2.435-4.586 5.94-8.09 10.515-10.509 4.576-2.42 9.936-3.63 16.081-3.63 6.225 0 12.024 1.15 17.398 3.45l-2.634 6.016c-5.267-2.246-10.335-3.37-15.203-3.37-7.102 0-12.649 2.126-16.64 6.378-3.99 4.252-5.985 10.148-5.985 17.688 0 7.915 1.922 13.918 5.766 18.009 3.844 4.091 9.49 6.137 16.94 6.137 4.043 0 7.993-.468 11.85-1.404V96.3h-13.048v-6.096zM47.234 175.691v-35.835h9.68v35.835h-9.68zm53.412 0H88.014l-13.022-25.247h-.22c.31 3.971.464 7.002.464 9.094v16.153h-8.535v-35.835h12.583l12.973 24.903h.146c-.227-3.612-.341-6.512-.341-8.702v-16.201h8.584v35.835zm43.73 0h-12.631l-13.022-25.247h-.22c.31 3.971.464 7.002.464 9.094v16.153h-8.535v-35.835h12.583l12.973 24.903h.146c-.228-3.612-.341-6.512-.341-8.702v-16.201h8.583v35.835zm43.146-17.967c0 6.03-1.472 10.613-4.414 13.75-2.943 3.138-7.25 4.707-12.924 4.707-5.593 0-9.88-1.577-12.863-4.73-2.984-3.155-4.475-7.746-4.475-13.776 0-5.964 1.483-10.52 4.45-13.665 2.967-3.145 7.28-4.718 12.936-4.718 5.674 0 9.974 1.56 12.9 4.681s4.39 7.705 4.39 13.751zm-24.532 0c0 6.928 2.398 10.393 7.194 10.393 2.438 0 4.247-.842 5.425-2.525 1.179-1.683 1.768-4.306 1.768-7.868 0-3.579-.597-6.222-1.792-7.93-1.195-1.707-2.979-2.56-5.353-2.56-4.828 0-7.242 3.496-7.242 10.49zm52.583-17.868h10.778l-11.68 35.835h-11.34L191.7 139.856h10.827l4.853 18.162c1.008 4.036 1.56 6.847 1.658 8.432.114-1.144.342-2.574.683-4.29.341-1.715.642-3.063.902-4.044l4.95-18.26zm36.585 35.835l-1.755-6.716H238.82l-1.805 6.716h-10.583l11.632-35.983h12.85l11.779 35.983h-10.535zm-3.755-14.658l-1.536-5.883a216.74 216.74 0 0 1-1.305-5.073c-.512-2.076-.85-3.563-1.012-4.461-.146.833-.435 2.206-.866 4.117-.43 1.912-1.385 5.679-2.865 11.3h7.584zm32.465 14.658h-9.632v-27.918h-8.706v-7.917h27.019v7.917h-8.681v27.918zm15.858 0v-35.835h9.681v35.835h-9.68zm52.826-17.967c0 6.03-1.47 10.613-4.413 13.75-2.943 3.138-7.25 4.707-12.924 4.707-5.593 0-9.88-1.577-12.864-4.73-2.983-3.155-4.474-7.746-4.474-13.776 0-5.964 1.483-10.52 4.45-13.665 2.967-3.145 7.279-4.718 12.936-4.718 5.674 0 9.974 1.56 12.9 4.681s4.39 7.705 4.39 13.751zm-24.531 0c0 6.928 2.398 10.393 7.194 10.393 2.438 0 4.247-.842 5.425-2.525 1.179-1.683 1.768-4.306 1.768-7.868 0-3.579-.597-6.222-1.792-7.93-1.195-1.707-2.98-2.56-5.353-2.56-4.828 0-7.242 3.496-7.242 10.49zm66.994 17.967h-12.632l-13.021-25.247h-.22c.31 3.971.464 7.002.464 9.094v16.153h-8.535v-35.835h12.583l12.972 24.903h.147c-.228-3.612-.342-6.512-.342-8.702v-16.201h8.584v35.835zM78.256 235.016h-4.522v-18.397H53.251v18.397h-4.523v-39.093h4.523v16.632h20.483v-16.632h4.522v39.093zm37.839 0l-4.842-12.434H95.665l-4.789 12.434h-4.575l15.376-39.253h3.804l15.296 39.253h-4.682zm-6.252-16.525l-4.522-12.113c-.585-1.533-1.188-3.413-1.809-5.642-.39 1.712-.949 3.592-1.676 5.642l-4.575 12.113h12.582zm23.527.268v16.257h-4.522v-39.093h10.667c4.77 0 8.296.918 10.575 2.754 2.278 1.836 3.418 4.6 3.418 8.29 0 5.17-2.607 8.663-7.821 10.481l10.56 17.568h-5.346l-9.417-16.257h-8.114zm0-3.904h6.198c3.193 0 5.534-.638 7.023-1.912 1.49-1.275 2.235-3.187 2.235-5.736 0-2.585-.758-4.447-2.275-5.588-1.516-1.141-3.95-1.712-7.302-1.712h-5.879v14.948zm54.093-18.932h4.868l-14.02 39.093h-4.469l-13.939-39.093h4.788l8.939 25.296a71.228 71.228 0 0 1 2.447 8.476 71.036 71.036 0 0 1 2.5-8.637l8.886-25.135zm34.62 39.093h-21.681v-39.093h21.68v4.038h-17.158v12.594h16.12v4.01h-16.12v14.387h17.158v4.064zm33.289-10.402c0 3.44-1.241 6.124-3.724 8.049-2.483 1.925-5.853 2.888-10.11 2.888-4.61 0-8.157-.597-10.64-1.792v-4.385c1.596.677 3.334 1.212 5.214 1.604 1.88.393 3.742.589 5.587.589 3.014 0 5.284-.575 6.81-1.725 1.525-1.15 2.287-2.75 2.287-4.8 0-1.355-.27-2.464-.81-3.329-.542-.864-1.446-1.662-2.714-2.393-1.268-.73-3.197-1.56-5.786-2.487-3.618-1.301-6.203-2.843-7.755-4.626-1.552-1.782-2.327-4.108-2.327-6.978 0-3.013 1.126-5.41 3.378-7.193 2.252-1.783 5.232-2.674 8.938-2.674 3.866 0 7.422.713 10.668 2.139l-1.41 3.957c-3.21-1.355-6.331-2.032-9.364-2.032-2.394 0-4.265.517-5.613 1.551-1.348 1.034-2.022 2.469-2.022 4.305 0 1.355.248 2.464.745 3.329.497.865 1.335 1.658 2.514 2.38 1.18.722 2.984 1.52 5.413 2.393 4.08 1.462 6.886 3.03 8.42 4.706 1.534 1.676 2.3 3.85 2.3 6.524zm22.649 10.402h-4.523v-35.055h-12.316v-4.038h29.156v4.038H278.02v35.055zm20.893 0v-39.093h4.522v39.093h-4.522zm48.293 0h-5.16l-21.256-32.809h-.212c.283 3.85.425 7.38.425 10.589v22.22h-4.176v-39.093h5.107l21.202 32.676h.213c-.036-.482-.115-2.028-.24-4.64-.124-2.611-.168-4.478-.133-5.602v-22.434h4.23v39.093zm30.523-20.482h13.221v19.011a42.321 42.321 0 0 1-6.278 1.498c-2.128.338-4.593.508-7.395.508-5.888 0-10.472-1.76-13.753-5.281-3.281-3.52-4.922-8.454-4.922-14.8 0-4.065.812-7.625 2.434-10.683 1.623-3.057 3.96-5.392 7.01-7.005 3.05-1.614 6.624-2.42 10.72-2.42 4.15 0 8.017.766 11.6 2.3l-1.757 4.01c-3.511-1.497-6.89-2.246-10.135-2.246-4.735 0-8.433 1.417-11.093 4.252-2.66 2.834-3.99 6.765-3.99 11.792 0 5.276 1.281 9.278 3.844 12.006 2.562 2.727 6.327 4.09 11.292 4.09 2.696 0 5.33-.311 7.901-.935v-12.033h-8.699v-4.064zM75.81 263.119c0 4.367-1.281 7.741-3.844 10.12-2.563 2.38-6.203 3.57-10.92 3.57h-2.953v12.969H47.584v-39.093h13.46c4.913 0 8.602 1.079 11.067 3.236s3.698 5.223 3.698 9.198zm-17.717 5.08h1.915c1.579 0 2.834-.445 3.765-1.337.93-.89 1.396-2.12 1.396-3.69 0-2.638-1.454-3.957-4.363-3.957h-2.713v8.984zm36.239 7.354v14.225H83.823v-39.093h12.743c10.57 0 15.854 3.85 15.854 11.552 0 4.527-2.199 8.03-6.597 10.508l11.332 17.033h-11.917l-8.247-14.225h-2.66zm0-7.942H96.3c3.67 0 5.506-1.63 5.506-4.893 0-2.692-1.8-4.038-5.4-4.038H94.33v8.931zm64.57 2.567c0 6.578-1.605 11.578-4.815 15-3.21 3.423-7.91 5.135-14.099 5.135-6.1 0-10.778-1.72-14.033-5.16-3.254-3.441-4.881-8.45-4.881-15.028 0-6.507 1.618-11.476 4.855-14.907 3.236-3.432 7.94-5.148 14.112-5.148 6.19 0 10.88 1.703 14.073 5.107 3.192 3.405 4.788 8.405 4.788 15.001zm-26.762 0c0 7.558 2.616 11.338 7.848 11.338 2.66 0 4.633-.918 5.919-2.755 1.286-1.836 1.929-4.697 1.929-8.583 0-3.904-.652-6.787-1.956-8.65-1.303-1.863-3.25-2.794-5.839-2.794-5.267 0-7.9 3.814-7.9 11.444zm61.032 7.728c0 2.424-.612 4.577-1.835 6.457-1.224 1.881-2.988 3.343-5.294 4.386-2.306 1.042-5.01 1.564-8.114 1.564-2.589 0-4.761-.183-6.517-.548-1.756-.366-3.582-1.003-5.48-1.912v-9.412a31.197 31.197 0 0 0 6.251 2.42c2.164.579 4.15.868 5.96.868 1.56 0 2.704-.271 3.43-.815.728-.544 1.092-1.243 1.092-2.1 0-.534-.147-1.002-.44-1.403-.292-.401-.762-.807-1.41-1.217-.647-.41-2.371-1.247-5.173-2.513-2.536-1.159-4.438-2.282-5.706-3.37-1.268-1.087-2.208-2.334-2.82-3.743-.612-1.408-.918-3.075-.918-5 0-3.6 1.303-6.408 3.91-8.423 2.607-2.014 6.19-3.021 10.748-3.021 4.025 0 8.13.936 12.316 2.807l-3.219 8.156c-3.635-1.676-6.774-2.514-9.417-2.514-1.365 0-2.358.24-2.979.722-.62.482-.931 1.079-.931 1.792 0 .766.395 1.453 1.184 2.059.789.606 2.93 1.711 6.424 3.315 3.352 1.516 5.68 3.142 6.983 4.88 1.304 1.738 1.955 3.926 1.955 6.565zm36.053-14.787c0 4.367-1.281 7.741-3.844 10.12-2.563 2.38-6.203 3.57-10.92 3.57h-2.953v12.969H201v-39.093h13.461c4.912 0 8.601 1.079 11.066 3.236s3.698 5.223 3.698 9.198zm-17.717 5.08h1.915c1.579 0 2.834-.445 3.765-1.337.93-.89 1.396-2.12 1.396-3.69 0-2.638-1.454-3.957-4.362-3.957h-2.714v8.984zm48.822 21.579h-23.09v-39.093h23.09v8.477h-12.583v6.15h11.652v8.476h-11.652v7.38h12.583v8.61zm19.134-14.225v14.225h-10.508v-39.093h12.742c10.57 0 15.855 3.85 15.855 11.552 0 4.527-2.2 8.03-6.597 10.508l11.332 17.033H290.37l-8.246-14.225h-2.66zm0-7.942h1.968c3.671 0 5.507-1.63 5.507-4.893 0-2.692-1.8-4.038-5.4-4.038h-2.075v8.931zm28.178 22.167v-39.093h10.561v39.093h-10.56zm37.942 0h-10.508v-30.456h-9.497v-8.637h29.475v8.637h-9.47v30.456zm30.732-24.6l6.704-14.493h11.385L381.61 274.51v15.268h-10.59v-14.947l-12.795-24.146h11.438l6.65 14.493z"/></g></svg>
