<svg xmlns="http://www.w3.org/2000/svg" width="1063" height="735" viewBox="0 0 1063 735">
  <g fill="#FFF">
    <path d="M126.100586,688 L126.100586,613.043945 L146.352051,613.043945 L146.352051,671.64502 L175.216797,671.64502 L175.216797,688 L126.100586,688 Z M235.522637,688 L231.83123,673.952148 L207.478203,673.952148 L203.684258,688 L181.433281,688 L205.888848,612.736328 L232.907891,612.736328 L257.671074,688 L235.522637,688 Z M227.627129,657.34082 L224.397148,645.036133 C223.645191,642.301744 222.730894,638.764182 221.654228,634.42334 C220.577563,630.082498 219.868341,626.972177 219.526543,625.092285 C219.218924,626.835458 218.612241,629.706523 217.706475,633.705566 C216.800708,637.70461 214.792672,645.582949 211.682305,657.34082 L227.627129,657.34082 Z M352.084023,636.884277 C352.084023,645.258343 349.614566,651.726784 344.675576,656.289795 C339.736586,660.852806 332.721276,663.134277 323.629433,663.134277 L317.938515,663.134277 L317.938515,688 L297.687051,688 L297.687051,613.043945 L323.629433,613.043945 C333.097254,613.043945 340.206558,615.111796 344.957558,619.247559 C349.708559,623.383321 352.084023,629.262169 352.084023,636.884277 Z M317.938515,646.625488 L321.629922,646.625488 C324.671929,646.625488 327.090118,645.771005 328.88456,644.062012 C330.679003,642.353019 331.576211,639.994644 331.576211,636.986816 C331.576211,631.928197 328.773504,629.398926 323.168008,629.398926 L317.938515,629.398926 L317.938515,646.625488 Z M386.601289,660.724609 L386.601289,688 L366.349824,688 L366.349824,613.043945 L390.907929,613.043945 C411.279125,613.043945 421.46457,620.426684 421.46457,635.192383 C421.46457,643.874067 417.226331,650.590308 408.749726,655.341309 L430.590547,688 L407.621797,688 L391.728242,660.724609 L386.601289,660.724609 Z M386.601289,645.497559 L390.395234,645.497559 C397.470465,645.497559 401.008027,642.370148 401.008027,636.115234 C401.008027,630.954076 397.538823,628.373535 390.600312,628.373535 L386.601289,628.373535 L386.601289,645.497559 Z M509.866113,650.419434 C509.866113,663.031801 506.772882,672.619108 500.586328,679.181641 C494.399773,685.744173 485.342247,689.025391 473.413476,689.025391 C461.655605,689.025391 452.640803,685.727084 446.368798,679.130371 C440.096794,672.533658 436.96084,662.929262 436.96084,650.316895 C436.96084,637.841246 440.079705,628.313754 446.317529,621.734131 C452.555353,615.154508 461.621425,611.864746 473.516015,611.864746 C485.444786,611.864746 494.485223,615.128874 500.637597,621.657227 C506.789972,628.18558 509.866113,637.772886 509.866113,650.419434 Z M458.288965,650.419434 C458.288965,664.911694 463.330418,672.157715 473.413476,672.157715 C478.540455,672.157715 482.342907,670.397479 484.820947,666.876953 C487.298987,663.356428 488.537988,657.870643 488.537988,650.419434 C488.537988,642.934045 487.281897,637.405535 484.769677,633.83374 C482.257458,630.261945 478.506275,628.476074 473.516015,628.476074 C463.364597,628.476074 458.288965,635.790454 458.288965,650.419434 Z M574.734941,665.236328 C574.734941,669.884789 573.555754,674.011945 571.197343,677.61792 C568.838933,681.223895 565.438088,684.026601 560.994707,686.026123 C556.551325,688.025645 551.338975,689.025391 545.3575,689.025391 C540.36724,689.025391 536.18027,688.675052 532.796464,687.974365 C529.412658,687.273678 525.892186,686.051767 522.234941,684.308594 L522.234941,666.261719 C526.097265,668.244151 530.113338,669.790766 534.283281,670.901611 C538.453224,672.012457 542.28131,672.567871 545.767656,672.567871 C548.775483,672.567871 550.980051,672.046636 552.381425,671.00415 C553.7828,669.961665 554.483476,668.620125 554.483476,666.979492 C554.483476,665.954096 554.201497,665.056889 553.637529,664.287842 C553.073561,663.518795 552.167809,662.741215 550.920244,661.955078 C549.672679,661.168941 546.348738,659.562512 540.94832,657.135742 C536.0606,654.914051 532.394865,652.760753 529.951005,650.675781 C527.507146,648.59081 525.69564,646.198256 524.516435,643.498047 C523.33723,640.797838 522.747636,637.602069 522.747636,633.910645 C522.747636,627.006313 525.259818,621.623066 530.284257,617.760742 C535.308697,613.898418 542.212924,611.967285 550.997148,611.967285 C558.755976,611.967285 566.668494,613.761701 574.734941,617.350586 L568.531328,632.987793 C561.524457,629.774886 555.474713,628.168457 550.381914,628.168457 C547.750065,628.168457 545.836021,628.629878 544.639726,629.552734 C543.443431,630.475591 542.845293,631.620599 542.845293,632.987793 C542.845293,634.457527 543.605783,635.773432 545.126787,636.935547 C546.64779,638.097662 550.774946,640.216781 557.508379,643.292969 C563.968372,646.198257 568.454411,649.317122 570.96663,652.649658 C573.47885,655.982194 574.734941,660.177709 574.734941,665.236328 Z M643.038828,636.884277 C643.038828,645.258343 640.56937,651.726784 635.63038,656.289795 C630.691391,660.852806 623.67608,663.134277 614.584238,663.134277 L608.89332,663.134277 L608.89332,688 L588.641855,688 L588.641855,613.043945 L614.584238,613.043945 C624.052059,613.043945 631.161362,615.111796 635.912363,619.247559 C640.663363,623.383321 643.038828,629.262169 643.038828,636.884277 Z M608.89332,646.625488 L612.584726,646.625488 C615.626733,646.625488 618.044922,645.771005 619.839365,644.062012 C621.633807,642.353019 622.531015,639.994644 622.531015,636.986816 C622.531015,631.928197 619.728309,629.398926 614.122812,629.398926 L608.89332,629.398926 L608.89332,646.625488 Z M701.806581,688 L657.304628,688 L657.304628,613.043945 L701.806581,613.043945 L701.806581,629.296387 L677.556093,629.296387 L677.556093,641.088379 L700.012148,641.088379 L700.012148,657.34082 L677.556093,657.34082 L677.556093,671.491211 L701.806581,671.491211 L701.806581,688 Z M667.763613,607.04541 L667.763613,605.558594 C673.027311,599.918917 676.368342,596.278817 677.786806,594.638184 C679.20527,592.99755 680.375913,591.527839 681.298769,590.229004 L703.242128,590.229004 L703.242128,591.305664 C700.50774,593.493175 696.748012,596.278792 691.962831,599.662598 C687.177651,603.046404 683.554641,605.507317 681.093691,607.04541 L667.763613,607.04541 Z M737.503046,660.724609 L737.503046,688 L717.251581,688 L717.251581,613.043945 L741.809687,613.043945 C762.180883,613.043945 772.366328,620.426684 772.366328,635.192383 C772.366328,643.874067 768.128089,650.590308 759.651484,655.341309 L781.492304,688 L758.523554,688 L742.629999,660.724609 L737.503046,660.724609 Z M737.503046,645.497559 L741.296992,645.497559 C748.372222,645.497559 751.909785,642.370148 751.909785,636.115234 C751.909785,630.954076 748.440581,628.373535 741.50207,628.373535 L737.503046,628.373535 L737.503046,645.497559 Z M790.631152,688 L790.631152,613.043945 L810.985156,613.043945 L810.985156,688 L790.631152,688 Z M862.575175,688 L842.32371,688 L842.32371,629.604004 L824.020488,629.604004 L824.020488,613.043945 L880.827128,613.043945 L880.827128,629.604004 L862.575175,629.604004 L862.575175,688 Z M938.364413,688 L893.86246,688 L893.86246,613.043945 L938.364413,613.043945 L938.364413,629.296387 L914.113925,629.296387 L914.113925,641.088379 L936.56998,641.088379 L936.56998,657.34082 L914.113925,657.34082 L914.113925,671.491211 L938.364413,671.491211 L938.364413,688 Z M904.321445,607.04541 L904.321445,605.558594 C909.585143,599.918917 912.926174,596.278817 914.344638,594.638184 C915.763102,592.99755 916.933745,591.527839 917.856601,590.229004 L939.79996,590.229004 L939.79996,591.305664 C937.065571,593.493175 933.305843,596.278792 928.520663,599.662598 C923.735483,603.046404 920.112472,605.507317 917.651523,607.04541 L904.321445,607.04541 Z"/>
    <path d="M7.00659134,8 L7.00659134,728 L1054.99247,728 L1054.99247,8 L7.00659134,8 Z M0,0 L1063,0 L1063,735 L0,735 L0,0 Z"/>
    <path d="M230.234375 193.414062C230.234375 208.492263 224.76568 220.249958 213.828125 228.6875 202.89057 237.125042 188.046969 241.34375 169.296875 241.34375 148.984273 241.34375 133.35943 238.726589 122.421875 233.492188L122.421875 214.273438C129.45316 217.242202 137.109334 219.585929 145.390625 221.304688 153.671916 223.023446 161.874959 223.882812 170 223.882812 183.281316 223.882812 193.281216 221.363306 200 216.324219 206.718784 211.285131 210.078125 204.273482 210.078125 195.289062 210.078125 189.351533 208.886731 184.4883 206.503906 180.699219 204.121082 176.910137 200.136747 173.414079 194.550781 170.210938 188.964816 167.007796 180.468807 163.37502 169.0625 159.3125 153.12492 153.609346 141.738315 146.851602 134.902344 139.039062 128.066372 131.226523 124.648438 121.031313 124.648438 108.453125 124.648438 95.249934 129.609325 84.7422266 139.53125 76.9296875 149.453175 69.1171484 162.578043 65.2109375 178.90625 65.2109375 195.937585 65.2109375 211.601491 68.3359062 225.898438 74.5859375L219.6875 91.9296875C205.546804 85.9921578 191.796942 83.0234375 178.4375 83.0234375 167.890572 83.0234375 159.648467 85.2890398 153.710938 89.8203125 147.773408 94.3515852 144.804688 100.640585 144.804688 108.6875 144.804688 114.62503 145.898427 119.488262 148.085938 123.277344 150.273448 127.066425 153.964818 130.542953 159.160156 133.707031 164.355495 136.87111 172.304634 140.367168 183.007812 144.195312 200.976652 150.601595 213.33981 157.476526 220.097656 164.820312 226.855503 172.164099 230.234375 181.695254 230.234375 193.414062zM380.78125 239L285.273438 239 285.273438 67.671875 380.78125 67.671875 380.78125 85.3671875 305.195312 85.3671875 305.195312 140.5625 376.210938 140.5625 376.210938 158.140625 305.195312 158.140625 305.195312 221.1875 380.78125 221.1875 380.78125 239zM514.570312 239L456.445312 87.125 455.507812 87.125C456.601568 99.1563102 457.148438 113.453042 457.148438 130.015625L457.148438 239 438.75 239 438.75 67.671875 468.75 67.671875 523.007812 209 523.945312 209 578.671875 67.671875 608.4375 67.671875 608.4375 239 588.515625 239 588.515625 128.609375C588.515625 115.953062 589.062495 102.203199 590.15625 87.359375L589.21875 87.359375 530.625 239 514.570312 239zM770.9375 239L675.429688 239 675.429688 67.671875 770.9375 67.671875 770.9375 85.3671875 695.351562 85.3671875 695.351562 140.5625 766.367188 140.5625 766.367188 158.140625 695.351562 158.140625 695.351562 221.1875 770.9375 221.1875 770.9375 239zM848.828125 167.75L848.828125 239 828.90625 239 828.90625 67.671875 875.898438 67.671875C896.914168 67.671875 912.441356 71.6952723 922.480469 79.7421875 932.519581 87.7891027 937.539062 99.8983566 937.539062 116.070312 937.539062 138.726676 926.054802 154.039023 903.085938 162.007812L949.609375 239 926.054688 239 884.570312 167.75 848.828125 167.75zM848.828125 150.640625L876.132812 150.640625C890.195383 150.640625 900.50778 147.847684 907.070312 142.261719 913.632845 136.675753 916.914062 128.296931 916.914062 117.125 916.914062 105.796818 913.574252 97.6328375 906.894531 92.6328125 900.21481 87.6327875 889.492261 85.1328125 874.726562 85.1328125L848.828125 85.1328125 848.828125 150.640625zM139.26709 506.953125L139.26709 550 127.230957 550 127.230957 446.489258 155.62207 446.489258C168.319074 446.489258 177.700084 448.92006 183.765381 453.781738 189.830678 458.643416 192.863281 465.959424 192.863281 475.72998 192.863281 489.4182 185.924874 498.66941 172.047852 503.483887L200.155762 550 185.924805 550 160.861328 506.953125 139.26709 506.953125zM139.26709 496.616211L155.763672 496.616211C164.259808 496.616211 170.490215 494.928809 174.455078 491.553955 178.419942 488.179101 180.402344 483.116896 180.402344 476.367188 180.402344 469.523078 178.384542 464.590673 174.348877 461.569824 170.313212 458.548976 163.835006 457.038574 154.914062 457.038574L139.26709 457.038574 139.26709 496.616211zM294.567383 550L236.864746 550 236.864746 446.489258 294.567383 446.489258 294.567383 457.180176 248.900879 457.180176 248.900879 490.527344 291.806152 490.527344 291.806152 501.147461 248.900879 501.147461 248.900879 539.238281 294.567383 539.238281 294.567383 550zM254.918945 436.435547C257.184582 433.5091 259.627184 429.969096 262.246826 425.81543 264.866468 421.661763 266.93147 418.050959 268.441895 414.98291L282.743652 414.98291 282.743652 416.469727C280.666819 419.537776 277.575216 423.31378 273.46875 427.797852 269.362284 432.281923 265.79868 435.751127 262.777832 438.205566L254.918945 438.205566 254.918945 436.435547zM381.828125 455.76416C370.452743 455.76416 361.472933 459.551964 354.888428 467.127686 348.303922 474.703407 345.011719 485.075618 345.011719 498.244629 345.011719 511.791246 348.185922 522.257857 354.534424 529.644775 360.882926 537.031694 369.933535 540.725098 381.686523 540.725098 388.908239 540.725098 397.144648 539.427096 406.395996 536.831055L406.395996 547.380371C399.221481 550.070814 390.371472 551.416016 379.845703 551.416016 364.599859 551.416016 352.835246 546.790411 344.551514 537.539062 336.267781 528.287714 332.125977 515.142501 332.125977 498.103027 332.125977 487.435656 334.120179 478.090047 338.108643 470.065918 342.097107 462.041789 347.855512 455.858583 355.384033 451.516113 362.912554 447.173644 371.774363 445.002441 381.969727 445.002441 392.825901 445.002441 402.31311 446.984843 410.431641 450.949707L405.333984 461.286621C397.498659 457.604962 389.663451 455.76416 381.828125 455.76416zM535.924805 498.103027C535.924805 514.670493 531.7358 527.697706 523.357666 537.185059 514.979532 546.672411 503.33292 551.416016 488.41748 551.416016 473.171636 551.416016 461.407024 546.755011 453.123291 537.432861 444.839558 528.110712 440.697754 514.953698 440.697754 497.961426 440.697754 481.110756 444.851358 468.048142 453.158691 458.773193 461.466025 449.498245 473.266037 444.86084 488.559082 444.86084 503.42732 444.86084 515.038532 449.580845 523.393066 459.020996 531.7476 468.461147 535.924805 481.488361 535.924805 498.103027zM453.441895 498.103027C453.441895 512.121652 456.427298 522.753463 462.398193 529.998779 468.369089 537.244095 477.042098 540.866699 488.41748 540.866699 499.887264 540.866699 508.548473 537.255895 514.401367 530.03418 520.254261 522.812464 523.180664 512.168853 523.180664 498.103027 523.180664 484.178804 520.266061 473.617793 514.436768 466.419678 508.607474 459.221562 499.981665 455.622559 488.559082 455.622559 477.089298 455.622559 468.369089 459.245162 462.398193 466.490479 456.427298 473.735795 453.441895 484.273206 453.441895 498.103027zM579.005859 550L579.005859 446.489258 591.041992 446.489258 591.041992 539.09668 636.708496 539.09668 636.708496 550 579.005859 550zM703.224609 550L691.188477 550 691.188477 457.180176 658.407715 457.180176 658.407715 446.489258 736.005371 446.489258 736.005371 457.180176 703.224609 457.180176 703.224609 550zM829.28418 550L771.581543 550 771.581543 446.489258 829.28418 446.489258 829.28418 457.180176 783.617676 457.180176 783.617676 490.527344 826.522949 490.527344 826.522949 501.147461 783.617676 501.147461 783.617676 539.238281 829.28418 539.238281 829.28418 550zM884.259766 506.953125L884.259766 550 872.223633 550 872.223633 446.489258 900.614746 446.489258C913.31175 446.489258 922.692759 448.92006 928.758057 453.781738 934.823354 458.643416 937.855957 465.959424 937.855957 475.72998 937.855957 489.4182 930.91755 498.66941 917.040527 503.483887L945.148438 550 930.91748 550 905.854004 506.953125 884.259766 506.953125zM884.259766 496.616211L900.756348 496.616211C909.252484 496.616211 915.48289 494.928809 919.447754 491.553955 923.412617 488.179101 925.39502 483.116896 925.39502 476.367188 925.39502 469.523078 923.377217 464.590673 919.341553 461.569824 915.305888 458.548976 908.827681 457.038574 899.906738 457.038574L884.259766 457.038574 884.259766 496.616211zM127.0625 378L127.0625 298.046875 144.015625 298.046875 144.015625 364 176.445312 364 176.445312 378 127.0625 378zM196.507812 298.046875L197.273438 299.25C195.450512 306.432328 192.24221 315.164011 187.648438 325.445312L175.671875 325.445312C178.187513 314.653592 180.010411 305.520871 181.140625 298.046875L196.507812 298.046875zM211.648438 378L211.648438 298.046875 228.601562 298.046875 228.601562 378 211.648438 378zM322.65625 378L301.109375 378 266.328125 317.515625 265.835938 317.515625C266.528649 328.19797 266.875 335.817686 266.875 340.375L266.875 378 251.726562 378 251.726562 298.046875 273.109375 298.046875 307.835938 357.929688 308.21875 357.929688C307.671872 347.539011 307.398438 340.19273 307.398438 335.890625L307.398438 298.046875 322.65625 298.046875 322.65625 378zM416.710938 378L395.164062 378 360.382812 317.515625 359.890625 317.515625C360.583337 328.19797 360.929688 335.817686 360.929688 340.375L360.929688 378 345.78125 378 345.78125 298.046875 367.164062 298.046875 401.890625 357.929688 402.273438 357.929688C401.72656 347.539011 401.453125 340.19273 401.453125 335.890625L401.453125 298.046875 416.710938 298.046875 416.710938 378zM512.40625 337.914062C512.40625 351.148504 509.125033 361.320277 502.5625 368.429688 495.999967 375.539098 486.593811 379.09375 474.34375 379.09375 462.093689 379.09375 452.687533 375.539098 446.125 368.429688 439.562467 361.320277 436.28125 351.112046 436.28125 337.804688 436.28125 324.497329 439.571582 314.334671 446.152344 307.316406 452.733106 300.298142 462.166605 296.789062 474.453125 296.789062 486.739645 296.789062 496.136686 300.325485 502.644531 307.398438 509.152376 314.47139 512.40625 324.643163 512.40625 337.914062zM454.054688 337.914062C454.054688 346.846399 455.749983 353.572894 459.140625 358.09375 462.531267 362.614606 467.598925 364.875 474.34375 364.875 487.869859 364.875 494.632812 355.888111 494.632812 337.914062 494.632812 319.903556 487.906317 310.898438 474.453125 310.898438 467.7083 310.898438 462.622413 313.167946 459.195312 317.707031 455.768212 322.246116 454.054688 328.981726 454.054688 337.914062zM576.492188 298.046875L593.609375 298.046875 566.429688 378 547.945312 378 520.820312 298.046875 537.9375 298.046875 552.976562 345.625C553.815108 348.432306 554.680985 351.704408 555.574219 355.441406 556.467452 359.178404 557.023436 361.776034 557.242188 363.234375 557.643231 359.880192 559.010405 354.010459 561.34375 345.625L576.492188 298.046875zM651.132812 378L645.335938 358.96875 616.1875 358.96875 610.390625 378 592.125 378 620.34375 297.71875 641.070312 297.71875 669.398438 378 651.132812 378zM641.289062 344.75C635.929661 327.505122 632.912764 317.752615 632.238281 315.492188 631.563799 313.23176 631.080731 311.445319 630.789062 310.132812 629.585931 314.799503 626.140653 326.33845 620.453125 344.75L641.289062 344.75zM705.484375 378L688.53125 378 688.53125 312.15625 666.820312 312.15625 666.820312 298.046875 727.195312 298.046875 727.195312 312.15625 705.484375 312.15625 705.484375 378zM742.5 378L742.5 298.046875 759.453125 298.046875 759.453125 378 742.5 378zM855.148438 337.914062C855.148438 351.148504 851.86722 361.320277 845.304688 368.429688 838.742155 375.539098 829.335999 379.09375 817.085938 379.09375 804.835876 379.09375 795.42972 375.539098 788.867188 368.429688 782.304655 361.320277 779.023438 351.112046 779.023438 337.804688 779.023438 324.497329 782.313769 314.334671 788.894531 307.316406 795.475293 300.298142 804.908793 296.789062 817.195312 296.789062 829.481832 296.789062 838.878874 300.325485 845.386719 307.398438 851.894564 314.47139 855.148438 324.643163 855.148438 337.914062zM796.796875 337.914062C796.796875 346.846399 798.492171 353.572894 801.882812 358.09375 805.273454 362.614606 810.341112 364.875 817.085938 364.875 830.612047 364.875 837.375 355.888111 837.375 337.914062 837.375 319.903556 830.648505 310.898438 817.195312 310.898438 810.450487 310.898438 805.3646 313.167946 801.9375 317.707031 798.5104 322.246116 796.796875 328.981726 796.796875 337.914062zM945.648438 378L924.101562 378 889.320312 317.515625 888.828125 317.515625C889.520837 328.19797 889.867188 335.817686 889.867188 340.375L889.867188 378 874.71875 378 874.71875 298.046875 896.101562 298.046875 930.828125 357.929688 931.210938 357.929688C930.66406 347.539011 930.390625 340.19273 930.390625 335.890625L930.390625 298.046875 945.648438 298.046875 945.648438 378z"/>
  </g>
</svg>
