<svg xmlns="http://www.w3.org/2000/svg" width="1064" height="735" viewBox="0 0 1064 735">
  <g fill="#FFF" fill-rule="evenodd">
    <path fill-rule="nonzero" d="M7.01318267,8 L7.01318267,728 L1055.98493,728 L1055.98493,8 L7.01318267,8 Z M0,0 L1064,0 L1064,735 L0,735 L0,0 Z"/>
    <path d="M120.724121 199.391602C120.724121 206.417027 118.19607 211.952128 113.139893 215.99707 108.083715 220.042012 101.049524 222.064453 92.0371094 222.064453 83.7343335 222.064453 76.3896804 220.503271 70.0029297 217.380859L70.0029297 202.052734C75.254258 204.394543 79.6983054 206.044429 83.3352051 207.002441 86.9721048 207.960454 90.2984875 208.439453 93.3144531 208.439453 96.9336118 208.439453 99.7100326 207.747566 101.643799 206.36377 103.577565 204.979974 104.544434 202.922051 104.544434 200.189941 104.544434 198.664218 104.118657 197.307053 103.26709 196.118408 102.415523 194.929763 101.164803 193.785487 99.5148926 192.685547 97.864982 191.585606 94.5031178 189.829276 89.4291992 187.416504 84.6746182 185.181141 81.1087358 183.034515 78.7314453 180.976562 76.3541548 178.91861 74.455899 176.523614 73.0366211 173.791504 71.6173432 171.059394 70.9077148 167.866066 70.9077148 164.211426 70.9077148 157.327928 73.2406179 151.917012 77.9064941 147.978516 82.5723703 144.040019 89.0211177 142.070801 97.2529297 142.070801 101.297872 142.070801 105.156476 142.5498 108.828857 143.507812 112.501239 144.465825 116.342102 145.814119 120.351562 147.552734L115.029297 160.379395C110.877909 158.676261 107.445082 157.487634 104.730713 156.813477 102.016344 156.13932 99.3463673 155.802246 96.7207031 155.802246 93.5982917 155.802246 91.2032961 156.529615 89.5356445 157.984375 87.867993 159.439135 87.0341797 161.337391 87.0341797 163.679199 87.0341797 165.133959 87.3712531 166.40242 88.0454102 167.484619 88.7195672 168.566819 89.79288 169.61352 91.2653809 170.624756 92.7378817 171.635991 96.2239308 173.454414 101.723633 176.080078 108.997432 179.557309 113.982571 183.043358 116.679199 186.53833 119.375827 190.033302 120.724121 194.317683 120.724121 199.391602zM165.845703 221L149.34668 221 149.34668 156.919922 128.217285 156.919922 128.217285 143.188477 186.975098 143.188477 186.975098 156.919922 165.845703 156.919922 165.845703 221zM216.449219 177.72998L221.771484 177.72998C226.987331 177.72998 230.837064 176.860686 233.320801 175.12207 235.804537 173.383455 237.046387 170.651386 237.046387 166.925781 237.046387 163.235659 235.777926 160.610034 233.240967 159.048828 230.704007 157.487622 226.774441 156.707031 221.452148 156.707031L216.449219 156.707031 216.449219 177.72998zM216.449219 191.14209L216.449219 221 199.950195 221 199.950195 143.188477 222.623047 143.188477C233.196667 143.188477 241.02032 145.113343 246.094238 148.963135 251.168157 152.812926 253.705078 158.658489 253.705078 166.5 253.705078 171.077171 252.445488 175.148664 249.92627 178.7146 247.407051 182.280535 243.841169 185.074697 239.228516 187.097168 250.937559 204.589768 258.566063 215.890599 262.114258 221L243.805664 221 225.230957 191.14209 216.449219 191.14209zM317.720703 221L272.907227 221 272.907227 143.188477 317.720703 143.188477 317.720703 156.707031 289.40625 156.707031 289.40625 173.791504 315.751465 173.791504 315.751465 187.310059 289.40625 187.310059 289.40625 207.375 317.720703 207.375 317.720703 221zM403.983398 221L383.013672 221 349.164062 162.135742 348.685059 162.135742C349.359216 172.531953 349.696289 179.947569 349.696289 184.382812L349.696289 221 334.953613 221 334.953613 143.188477 355.763672 143.188477 389.560059 201.467285 389.932617 201.467285C389.400388 191.35493 389.134277 184.205425 389.134277 180.018555L389.134277 143.188477 403.983398 143.188477 403.983398 221zM454.10791 177.304199L484.977051 177.304199 484.977051 217.646973C479.974096 219.279142 475.263938 220.423418 470.846436 221.079834 466.428933 221.73625 461.913923 222.064453 457.30127 222.064453 445.556745 222.064453 436.588817 218.613885 430.397217 211.712646 424.205617 204.811408 421.109863 194.903222 421.109863 181.987793 421.109863 169.427183 424.702357 159.634312 431.887451 152.608887 439.072546 145.583461 449.033953 142.070801 461.771973 142.070801 469.755411 142.070801 477.454878 143.667465 484.870605 146.86084L479.388672 160.060059C473.71156 157.221503 467.803904 155.802246 461.665527 155.802246 454.533656 155.802246 448.821148 158.197242 444.527832 162.987305 440.234516 167.777368 438.087891 174.217245 438.087891 182.307129 438.087891 190.751833 439.81761 197.20058 443.2771 201.653564 446.73659 206.106549 451.76608 208.333008 458.365723 208.333008 461.807472 208.333008 465.302391 207.978194 468.850586 207.268555L468.850586 191.035645 454.10791 191.035645 454.10791 177.304199zM534.516113 221L518.01709 221 518.01709 156.919922 496.887695 156.919922 496.887695 143.188477 555.645508 143.188477 555.645508 156.919922 534.516113 156.919922 534.516113 221zM632.381348 221L615.935547 221 615.935547 187.416504 585.119629 187.416504 585.119629 221 568.620605 221 568.620605 143.188477 585.119629 143.188477 585.119629 173.685059 615.935547 173.685059 615.935547 143.188477 632.381348 143.188477 632.381348 221zM697.833984 221L653.020508 221 653.020508 143.188477 697.833984 143.188477 697.833984 156.707031 669.519531 156.707031 669.519531 173.791504 695.864746 173.791504 695.864746 187.310059 669.519531 187.310059 669.519531 207.375 697.833984 207.375 697.833984 221zM784.09668 221L763.126953 221 729.277344 162.135742 728.79834 162.135742C729.472497 172.531953 729.80957 179.947569 729.80957 184.382812L729.80957 221 715.066895 221 715.066895 143.188477 735.876953 143.188477 769.67334 201.467285 770.045898 201.467285C769.513669 191.35493 769.247559 184.205425 769.247559 180.018555L769.247559 143.188477 784.09668 143.188477 784.09668 221zM804.682617 221L804.682617 143.188477 821.181641 143.188477 821.181641 221 804.682617 221zM910.797363 221L889.827637 221 855.978027 162.135742 855.499023 162.135742C856.17318 172.531953 856.510254 179.947569 856.510254 184.382812L856.510254 221 841.767578 221 841.767578 143.188477 862.577637 143.188477 896.374023 201.467285 896.746582 201.467285C896.214353 191.35493 895.948242 184.205425 895.948242 180.018555L895.948242 143.188477 910.797363 143.188477 910.797363 221zM960.921875 177.304199L991.791016 177.304199 991.791016 217.646973C986.788061 219.279142 982.077903 220.423418 977.6604 221.079834 973.242898 221.73625 968.727888 222.064453 964.115234 222.064453 952.37071 222.064453 943.402782 218.613885 937.211182 211.712646 931.019582 204.811408 927.923828 194.903222 927.923828 181.987793 927.923828 169.427183 931.516321 159.634312 938.701416 152.608887 945.886511 145.583461 955.847918 142.070801 968.585938 142.070801 976.569376 142.070801 984.268843 143.667465 991.68457 146.86084L986.202637 160.060059C980.525525 157.221503 974.617869 155.802246 968.479492 155.802246 961.347621 155.802246 955.635113 158.197242 951.341797 162.987305 947.048481 167.777368 944.901855 174.217245 944.901855 182.307129 944.901855 190.751833 946.631574 197.20058 950.091064 201.653564 953.550554 206.106549 958.580045 208.333008 965.179688 208.333008 968.621436 208.333008 972.116356 207.978194 975.664551 207.268555L975.664551 191.035645 960.921875 191.035645 960.921875 177.304199zM117.802734 395L111.458008 377.356445 87.1655273 377.356445 80.9511719 395 70 395 93.7709961 331.205078 105.069824 331.205078 128.84082 395 117.802734 395zM108.720215 368.404297L102.766602 351.108398C102.332029 349.949538 101.730879 348.124361 100.963135 345.632812 100.19539 343.141264 99.6666681 341.316087 99.3769531 340.157227 98.5947227 343.720721 97.4503656 347.617329 95.9438477 351.847168L90.2075195 368.404297 108.720215 368.404297zM164.133594 360.538574L187.513477 360.538574 187.513477 392.436035C183.689239 393.68181 180.017156 394.565427 176.497119 395.086914 172.977082 395.608401 169.17463 395.869141 165.089648 395.869141 155.471111 395.869141 148.054518 393.022734 142.839648 387.329834 137.624779 381.636934 135.017383 373.604707 135.017383 363.23291 135.017383 353.005971 137.957946 345.002714 143.83916 339.2229 149.720375 333.443086 157.817787 330.553223 168.131641 330.553223 174.766114 330.553223 181.052835 331.827949 186.991992 334.377441L183.341602 343.025391C178.184675 340.649728 173.027825 339.461914 167.870898 339.461914 161.091568 339.461914 155.731921 341.591287 151.791797 345.850098 147.851673 350.108908 145.881641 355.932092 145.881641 363.319824 145.881641 371.084186 147.656118 376.98704 151.205127 381.028564 154.754136 385.070089 159.860286 387.09082 166.523731 387.09082 169.884424 387.09082 173.476836 386.67074 177.301074 385.830566L177.301074 369.447266 164.133594 369.447266 164.133594 360.538574zM215.853125 361.016602L223.066992 361.016602C227.905233 361.016602 231.410731 360.118499 233.583594 358.322266 235.756456 356.526033 236.842871 353.860695 236.842871 350.326172 236.842871 346.733706 235.669543 344.155281 233.322852 342.59082 230.97616 341.026359 227.44169 340.244141 222.719336 340.244141L215.853125 340.244141 215.853125 361.016602zM215.853125 369.621094L215.853125 395 205.466895 395 205.466895 331.46582 223.414649 331.46582C231.613583 331.46582 237.683021 333.001287 241.623145 336.072266 245.563268 339.143245 247.533301 343.778615 247.533301 349.978516 247.533301 357.887735 243.41941 363.522607 235.191504 366.883301L253.139258 395 241.318945 395 226.108984 369.621094 215.853125 369.621094zM265.052149 395L265.052149 331.46582 275.438379 331.46582 275.438379 395 265.052149 395zM321.943067 339.461914C315.974938 339.461914 311.281625 341.576802 307.862988 345.806641 304.444352 350.036479 302.735059 355.874149 302.735059 363.319824 302.735059 371.113157 304.379167 377.008769 307.667432 381.006836 310.955697 385.004903 315.714194 387.003906 321.943067 387.003906 324.637416 387.003906 327.244812 386.735924 329.765332 386.199951 332.285853 385.663978 334.907734 384.975916 337.631055 384.135742L337.631055 393.044434C332.647957 394.927581 326.998599 395.869141 320.682813 395.869141 311.382962 395.869141 304.241594 393.051705 299.258496 387.416748 294.275398 381.781791 291.783887 373.720593 291.783887 363.23291 291.783887 356.627408 292.993429 350.847681 295.412549 345.893555 297.831669 340.939428 301.329925 337.144219 305.907422 334.507812 310.484919 331.871406 315.859051 330.553223 322.029981 330.553223 328.519596 330.553223 334.516607 331.914863 340.021192 334.638184L336.283887 343.286133C334.139996 342.27213 331.87301 341.38127 329.482862 340.613525 327.092713 339.845781 324.579473 339.461914 321.943067 339.461914zM403.821778 331.46582L403.821778 372.576172C403.821778 377.269555 402.815033 381.376203 400.801514 384.89624 398.787995 388.416277 395.876403 391.125072 392.066651 393.022705 388.256899 394.920338 383.701199 395.869141 378.399414 395.869141 370.519167 395.869141 364.391786 393.783224 360.01709 389.611328 355.642394 385.439432 353.455078 379.703162 353.455078 372.402344L353.455078 331.46582 363.884766 331.46582 363.884766 371.663574C363.884766 376.907416 365.101551 380.775053 367.535156 383.266602 369.968762 385.75815 373.70603 387.003906 378.747071 387.003906 388.539437 387.003906 393.435547 381.861542 393.435547 371.57666L393.435547 331.46582 403.821778 331.46582zM422.774707 395L422.774707 331.46582 433.160938 331.46582 433.160938 386.091309 460.06084 386.091309 460.06084 395 422.774707 395zM493.876075 395L483.489844 395 483.489844 340.374512 464.803321 340.374512 464.803321 331.46582 512.562598 331.46582 512.562598 340.374512 493.876075 340.374512 493.876075 395zM574.798731 331.46582L574.798731 372.576172C574.798731 377.269555 573.791986 381.376203 571.778467 384.89624 569.764948 388.416277 566.853356 391.125072 563.043604 393.022705 559.233852 394.920338 554.678152 395.869141 549.376368 395.869141 541.49612 395.869141 535.36874 393.783224 530.994043 389.611328 526.619347 385.439432 524.432032 379.703162 524.432032 372.402344L524.432032 331.46582 534.861719 331.46582 534.861719 371.663574C534.861719 376.907416 536.078504 380.775053 538.51211 383.266602 540.945716 385.75815 544.682983 387.003906 549.724024 387.003906 559.51639 387.003906 564.4125 381.861542 564.4125 371.57666L564.4125 331.46582 574.798731 331.46582zM604.137891 361.016602L611.351758 361.016602C616.189999 361.016602 619.695497 360.118499 621.86836 358.322266 624.041222 356.526033 625.127637 353.860695 625.127637 350.326172 625.127637 346.733706 623.954309 344.155281 621.607618 342.59082 619.260926 341.026359 615.726456 340.244141 611.004102 340.244141L604.137891 340.244141 604.137891 361.016602zM604.137891 369.621094L604.137891 395 593.751661 395 593.751661 331.46582 611.699414 331.46582C619.898349 331.46582 625.967787 333.001287 629.907911 336.072266 633.848034 339.143245 635.818067 343.778615 635.818067 349.978516 635.818067 357.887735 631.704176 363.522607 623.47627 366.883301L641.424024 395 629.603711 395 614.39375 369.621094 604.137891 369.621094zM689.275879 395L653.336915 395 653.336915 331.46582 689.275879 331.46582 689.275879 340.244141 663.723145 340.244141 663.723145 357.540039 687.667969 357.540039 687.667969 366.231445 663.723145 366.231445 663.723145 386.178223 689.275879 386.178223 689.275879 395zM741.826758 395L731.527442 395 731.527442 331.46582 767.379493 331.46582 767.379493 340.244141 741.826758 340.244141 741.826758 360.104004 765.771583 360.104004 765.771583 368.925781 741.826758 368.925781 741.826758 395zM838.002833 363.145996C838.002833 373.488821 835.417165 381.528292 830.245753 387.264648 825.07434 393.001005 817.751903 395.869141 808.278223 395.869141 798.688657 395.869141 791.322764 393.022734 786.180323 387.329834 781.037882 381.636934 778.4667 373.546765 778.4667 363.059082 778.4667 352.571399 781.052367 344.517443 786.22378 338.896973 791.395192 333.276502 798.775571 330.466309 808.365137 330.466309 817.809846 330.466309 825.110554 333.319958 830.267481 339.027344 835.424408 344.734729 838.002833 352.774199 838.002833 363.145996zM789.504786 363.145996C789.504786 370.968301 791.083709 376.900126 794.241602 380.94165 797.399496 384.983175 802.078322 387.003906 808.278223 387.003906 814.449153 387.003906 819.106251 385.004903 822.249659 381.006836 825.393066 377.008769 826.964747 371.055215 826.964747 363.145996 826.964747 355.352663 825.407552 349.442566 822.293116 345.415527 819.17868 341.388489 814.536067 339.375 808.365137 339.375 802.136265 339.375 797.43571 341.388489 794.263331 345.415527 791.090952 349.442566 789.504786 355.352663 789.504786 363.145996zM864.734571 361.016602L871.948438 361.016602C876.786679 361.016602 880.292177 360.118499 882.46504 358.322266 884.637902 356.526033 885.724317 353.860695 885.724317 350.326172 885.724317 346.733706 884.550989 344.155281 882.204298 342.59082 879.857606 341.026359 876.323136 340.244141 871.600782 340.244141L864.734571 340.244141 864.734571 361.016602zM864.734571 369.621094L864.734571 395 854.348341 395 854.348341 331.46582 872.296094 331.46582C880.495029 331.46582 886.564467 333.001287 890.504591 336.072266 894.444714 339.143245 896.414747 343.778615 896.414747 349.978516 896.414747 357.887735 892.300856 363.522607 884.07295 366.883301L902.020704 395 890.200391 395 874.99043 369.621094 864.734571 369.621094zM979.168262 395L972.823536 377.356445 948.531055 377.356445 942.3167 395 931.365528 395 955.136524 331.205078 966.435352 331.205078 990.206348 395 979.168262 395zM970.085743 368.404297L964.13213 351.108398C963.697557 349.949538 963.096408 348.124361 962.328663 345.632812 961.560918 343.141264 961.032196 341.316087 960.742481 340.157227 959.960251 343.720721 958.815894 347.617329 957.309376 351.847168L951.573048 368.404297 970.085743 368.404297zM128.384766 567L110.550781 567 110.550781 540.226562 89.9316406 540.226562 89.9316406 567 72.0976562 567 72.0976562 501.324219 89.9316406 501.324219 89.9316406 525.671875 110.550781 525.671875 110.550781 501.324219 128.384766 501.324219 128.384766 567zM184.572266 567L145.580078 567 145.580078 501.324219 184.572266 501.324219 184.572266 515.564453 163.324219 515.564453 163.324219 525.896484 183 525.896484 183 540.136719 163.324219 540.136719 163.324219 552.535156 184.572266 552.535156 184.572266 567zM239.367188 567L236.132812 554.691406 214.794922 554.691406 211.470703 567 191.974609 567 213.402344 501.054688 237.076172 501.054688 258.773438 567 239.367188 567zM232.449219 540.136719L229.619141 529.355469C228.960283 526.959623 228.159184 523.860045 227.21582 520.056641 226.272456 516.253236 225.651043 513.528003 225.351562 511.880859 225.08203 513.408211 224.55046 515.923811 223.756836 519.427734 222.963212 522.931658 221.20379 529.834584 218.478516 540.136719L232.449219 540.136719zM268.871094 567L268.871094 501.324219 286.615234 501.324219 286.615234 552.669922 311.90625 552.669922 311.90625 567 268.871094 567zM352.550781 567L334.806641 567 334.806641 515.833984 318.769531 515.833984 318.769531 501.324219 368.542969 501.324219 368.542969 515.833984 352.550781 515.833984 352.550781 567zM437.21875 567L419.384766 567 419.384766 540.226562 398.765625 540.226562 398.765625 567 380.931641 567 380.931641 501.324219 398.765625 501.324219 398.765625 525.671875 419.384766 525.671875 419.384766 501.324219 437.21875 501.324219 437.21875 567zM454.414062 567L454.414062 501.324219 472.248047 501.324219 472.248047 567 454.414062 567zM528.435547 567L489.443359 567 489.443359 501.324219 528.435547 501.324219 528.435547 515.564453 507.1875 515.564453 507.1875 525.896484 526.863281 525.896484 526.863281 540.136719 507.1875 540.136719 507.1875 552.535156 528.435547 552.535156 528.435547 567zM560.679688 543.101562L560.679688 567 542.935547 567 542.935547 501.324219 564.453125 501.324219C582.302173 501.324219 591.226562 507.792904 591.226562 520.730469 591.226562 528.337278 587.513058 534.221984 580.085938 538.384766L599.222656 567 579.097656 567 565.171875 543.101562 560.679688 543.101562zM560.679688 529.759766L564.003906 529.759766C570.203156 529.759766 573.302734 527.019559 573.302734 521.539062 573.302734 517.016904 570.263051 514.755859 564.183594 514.755859L560.679688 514.755859 560.679688 529.759766zM652.570312 567L635.095703 567 635.095703 501.324219 673.908203 501.324219 673.908203 515.564453 652.570312 515.564453 652.570312 528.097656 672.246094 528.097656 672.246094 542.337891 652.570312 542.337891 652.570312 567zM743.527344 501.324219L743.527344 540.855469C743.527344 549.450564 741.0941 556.106422 736.227539 560.823242 731.360978 565.540063 724.345749 567.898438 715.181641 567.898438 706.227169 567.898438 699.346704 565.607445 694.540039 561.025391 689.733374 556.443336 687.330078 549.854861 687.330078 541.259766L687.330078 501.324219 705.164062 501.324219 705.164062 539.867188C705.164062 544.509138 706.032543 547.878245 707.769531 549.974609 709.506519 552.070974 712.06704 553.119141 715.451172 553.119141 719.074888 553.119141 721.702791 552.078461 723.334961 549.99707 724.967131 547.91568 725.783203 544.509138 725.783203 539.777344L725.783203 501.324219 743.527344 501.324219zM789.292969 567L771.548828 567 771.548828 515.833984 755.511719 515.833984 755.511719 501.324219 805.285156 501.324219 805.285156 515.833984 789.292969 515.833984 789.292969 567zM873.511719 501.324219L873.511719 540.855469C873.511719 549.450564 871.078475 556.106422 866.211914 560.823242 861.345353 565.540063 854.330124 567.898438 845.166016 567.898438 836.211544 567.898438 829.331079 565.607445 824.524414 561.025391 819.717749 556.443336 817.314453 549.854861 817.314453 541.259766L817.314453 501.324219 835.148438 501.324219 835.148438 539.867188C835.148438 544.509138 836.016918 547.878245 837.753906 549.974609 839.490894 552.070974 842.051415 553.119141 845.435547 553.119141 849.059263 553.119141 851.687166 552.078461 853.319336 549.99707 854.951506 547.91568 855.767578 544.509138 855.767578 539.777344L855.767578 501.324219 873.511719 501.324219zM908.046875 543.101562L908.046875 567 890.302734 567 890.302734 501.324219 911.820312 501.324219C929.66936 501.324219 938.59375 507.792904 938.59375 520.730469 938.59375 528.337278 934.880245 534.221984 927.453125 538.384766L946.589844 567 926.464844 567 912.539062 543.101562 908.046875 543.101562zM908.046875 529.759766L911.371094 529.759766C917.570343 529.759766 920.669922 527.019559 920.669922 521.539062 920.669922 517.016904 917.630239 514.755859 911.550781 514.755859L908.046875 514.755859 908.046875 529.759766zM994.556641 567L955.564453 567 955.564453 501.324219 994.556641 501.324219 994.556641 515.564453 973.308594 515.564453 973.308594 525.896484 992.984375 525.896484 992.984375 540.136719 973.308594 540.136719 973.308594 552.535156 994.556641 552.535156 994.556641 567z"/>
  </g>
</svg>
