<svg xmlns="http://www.w3.org/2000/svg" width="1064" height="735" viewBox="0 0 1064 735">
  <g fill="#FFF" fill-rule="evenodd">
    <path fill-rule="nonzero" d="M7.01318267,8 L7.01318267,728 L1055.98493,728 L1055.98493,8 L7.01318267,8 Z M0,0 L1064,0 L1064,735 L0,735 L0,0 Z"/>
    <path d="M98.9052734 160.263184L106.375977 160.263184C113.697302 160.263184 119.101057 159.042981 122.587402 156.602539 126.073748 154.162097 127.816895 150.327175 127.816895 145.097656 127.816895 139.917943 126.036395 136.232433 122.475342 134.041016 118.914289 131.849598 113.398475 130.753906 105.927734 130.753906L98.9052734 130.753906 98.9052734 160.263184zM98.9052734 179.089355L98.9052734 221 75.7460938 221 75.7460938 111.77832 107.571289 111.77832C122.41316 111.77832 133.394984 114.480198 140.51709 119.884033 147.639196 125.287869 151.200195 133.493109 151.200195 144.5 151.200195 150.924837 149.432147 156.639868 145.895996 161.645264 142.359846 166.65066 137.354525 170.57274 130.879883 173.411621 147.315512 197.965455 158.023413 213.828089 163.003906 221L137.304688 221 111.231934 179.089355 98.9052734 179.089355zM243.65332 221L180.75 221 180.75 111.77832 243.65332 111.77832 243.65332 130.753906 203.90918 130.753906 203.90918 154.734863 240.88916 154.734863 240.88916 173.710449 203.90918 173.710449 203.90918 201.875 243.65332 201.875 243.65332 221zM367.333984 221L337.899414 221 290.385742 138.374023 289.713379 138.374023C290.659673 152.96687 291.132812 163.375945 291.132812 169.601562L291.132812 221 270.438965 221 270.438965 111.77832 299.649414 111.77832 347.088379 193.58252 347.611328 193.58252C346.864254 179.388113 346.490723 169.352568 346.490723 163.475586L346.490723 111.77832 367.333984 111.77832 367.333984 221zM421.611816 221L398.826172 221 398.826172 111.77832 461.430664 111.77832 461.430664 130.753906 421.611816 130.753906 421.611816 158.918457 458.666504 158.918457 458.666504 177.819336 421.611816 177.819336 421.611816 221zM585.933105 166.239746C585.933105 184.318938 581.450728 198.214307 572.48584 207.92627 563.520951 217.638232 550.67147 222.494141 533.937012 222.494141 517.202553 222.494141 504.353072 217.638232 495.388184 207.92627 486.423295 198.214307 481.940918 184.269134 481.940918 166.090332 481.940918 147.91153 486.435746 134.028612 495.425537 124.441162 504.415328 114.853712 517.302162 110.060059 534.086426 110.060059 550.870689 110.060059 563.707719 114.891065 572.5979 124.553223 581.488082 134.21538 585.933105 148.110749 585.933105 166.239746zM506.220703 166.239746C506.220703 178.441956 508.536598 187.630828 513.168457 193.806641 517.800316 199.982453 524.723098 203.070312 533.937012 203.070312 552.414643 203.070312 561.65332 190.79358 561.65332 166.239746 561.65332 141.636107 552.464447 129.334473 534.086426 129.334473 524.872513 129.334473 517.924828 132.434783 513.243164 138.635498 508.5615 144.836213 506.220703 154.037537 506.220703 166.239746zM635.728516 160.263184L643.199219 160.263184C650.520544 160.263184 655.924299 159.042981 659.410645 156.602539 662.89699 154.162097 664.640137 150.327175 664.640137 145.097656 664.640137 139.917943 662.859637 136.232433 659.298584 134.041016 655.737531 131.849598 650.221717 130.753906 642.750977 130.753906L635.728516 130.753906 635.728516 160.263184zM635.728516 179.089355L635.728516 221 612.569336 221 612.569336 111.77832 644.394531 111.77832C659.236402 111.77832 670.218226 114.480198 677.340332 119.884033 684.462438 125.287869 688.023438 133.493109 688.023438 144.5 688.023438 150.924837 686.255389 156.639868 682.719238 161.645264 679.183088 166.65066 674.177767 170.57274 667.703125 173.411621 684.138754 197.965455 694.846655 213.828089 699.827148 221L674.12793 221 648.055176 179.089355 635.728516 179.089355zM763.966309 129.483887C755.250445 129.483887 748.501977 132.758512 743.720703 139.307861 738.939429 145.85721 736.548828 154.983828 736.548828 166.687988 736.548828 191.042602 745.687897 203.219727 763.966309 203.219727 771.636269 203.219727 780.92475 201.302265 791.832031 197.467285L791.832031 216.891113C782.867143 220.626484 772.856501 222.494141 761.799805 222.494141 745.91203 222.494141 733.759808 217.675585 725.342773 208.03833 716.925739 198.401075 712.717285 184.567961 712.717285 166.538574 712.717285 155.183049 714.784159 145.234662 718.917969 136.693115 723.051778 128.151569 728.990928 121.602318 736.735596 117.045166 744.480263 112.488014 753.557077 110.209473 763.966309 110.209473 774.57476 110.209473 785.232857 112.774388 795.940918 117.904297L788.470215 136.730469C784.38621 134.788076 780.277364 133.094734 776.143555 131.650391 772.009745 130.206047 767.950704 129.483887 763.966309 129.483887zM881.969238 221L819.065918 221 819.065918 111.77832 881.969238 111.77832 881.969238 130.753906 842.225098 130.753906 842.225098 154.734863 879.205078 154.734863 879.205078 173.710449 842.225098 173.710449 842.225098 201.875 881.969238 201.875 881.969238 221zM931.914062 160.263184L939.384766 160.263184C946.706091 160.263184 952.109846 159.042981 955.596191 156.602539 959.082537 154.162097 960.825684 150.327175 960.825684 145.097656 960.825684 139.917943 959.045184 136.232433 955.484131 134.041016 951.923078 131.849598 946.407264 130.753906 938.936523 130.753906L931.914062 130.753906 931.914062 160.263184zM931.914062 179.089355L931.914062 221 908.754883 221 908.754883 111.77832 940.580078 111.77832C955.421949 111.77832 966.403773 114.480198 973.525879 119.884033 980.647985 125.287869 984.208984 133.493109 984.208984 144.5 984.208984 150.924837 982.440936 156.639868 978.904785 161.645264 975.368635 166.65066 970.363314 170.57274 963.888672 173.411621 980.324301 197.965455 991.032202 213.828089 996.012695 221L970.313477 221 944.240723 179.089355 931.914062 179.089355zM77.0102539 395L77.0102539 334.321289 86.9296875 334.321289 86.9296875 386.491699 112.620605 386.491699 112.620605 395 77.0102539 395zM125.738086 334.321289L126.360645 335.234375C124.894166 341.017282 122.459294 347.644006 119.055957 355.114746L112.000293 355.114746C113.909482 347.118287 115.292932 340.187204 116.150684 334.321289L125.738086 334.321289zM169.775977 395L163.716406 378.149414 140.515723 378.149414 134.580664 395 124.12168 395 146.824317 334.072266 157.615332 334.072266 180.317969 395 169.775977 395zM161.10166 369.599609L155.415625 353.081055C155.000584 351.974278 154.426452 350.231132 153.693213 347.851562 152.959974 345.471993 152.455014 343.728847 152.17832 342.62207 151.431246 346.025408 150.338321 349.746887 148.899512 353.786621L143.420996 369.599609 161.10166 369.599609zM214.145899 362.087402L236.475 362.087402 236.475 392.55127C232.822638 393.741054 229.315593 394.584958 225.95376 395.083008 222.591927 395.581057 218.960371 395.830078 215.058985 395.830078 205.872741 395.830078 198.789478 393.111599 193.808985 387.674561 188.828491 382.237522 186.338281 374.566293 186.338281 364.660645 186.338281 354.893343 189.146684 347.249783 194.763574 341.729736 200.380464 336.209689 208.113948 333.449707 217.964258 333.449707 224.300553 333.449707 230.304724 334.667143 235.976953 337.102051L232.490625 345.361328C227.56547 343.092437 222.640389 341.958008 217.715235 341.958008 211.240593 341.958008 206.121829 343.991679 202.358789 348.059082 198.59575 352.126485 196.714258 357.687953 196.714258 364.743652 196.714258 372.159054 198.408984 377.796612 201.798486 381.656494 205.187989 385.516377 210.064649 387.446289 216.428613 387.446289 219.638265 387.446289 223.06922 387.045089 226.721582 386.242676L226.721582 370.595703 214.145899 370.595703 214.145899 362.087402zM263.662305 362.543945L270.551953 362.543945C275.172745 362.543945 278.520693 361.686206 280.595899 359.970703 282.671104 358.2552 283.708692 355.709652 283.708692 352.333984 283.708692 348.902978 282.588097 346.440437 280.346875 344.946289 278.105653 343.452141 274.730036 342.705078 270.219922 342.705078L263.662305 342.705078 263.662305 362.543945zM263.662305 370.761719L263.662305 395 253.742871 395 253.742871 334.321289 270.883985 334.321289C278.714427 334.321289 284.511082 335.787746 288.274121 338.720703 292.037161 341.65366 293.918653 346.0807 293.918653 352.001953 293.918653 359.555702 289.989655 364.937321 282.131543 368.146973L299.272656 395 287.983594 395 273.457227 370.761719 263.662305 370.761719zM310.771485 395L310.771485 334.321289 320.690918 334.321289 320.690918 395 310.771485 395zM365.226856 341.958008C359.526957 341.958008 355.04458 343.977844 351.77959 348.017578 348.5146 352.057312 346.882129 357.632614 346.882129 364.743652 346.882129 372.186723 348.452345 377.817364 351.592823 381.635742 354.7333 385.454121 359.277933 387.363281 365.226856 387.363281 367.800111 387.363281 370.29032 387.107343 372.697559 386.595459 375.104797 386.083575 377.608841 385.426436 380.209766 384.624023L380.209766 393.132324C375.450628 394.930836 370.055174 395.830078 364.023242 395.830078 355.141362 395.830078 348.320955 393.139268 343.561817 387.757568 338.802678 382.375868 336.423145 374.676971 336.423145 364.660645 336.423145 358.352019 337.578325 352.832055 339.888721 348.100586 342.199117 343.369117 345.540148 339.744479 349.911914 337.226562 354.283681 334.708646 359.416279 333.449707 365.309864 333.449707 371.507811 333.449707 377.235293 334.75015 382.492481 337.351074L378.923145 345.610352C376.875609 344.641922 374.71051 343.791101 372.427783 343.057861 370.145057 342.324622 367.744772 341.958008 365.226856 341.958008zM443.546973 334.321289L443.546973 373.583984C443.546973 378.066429 442.585475 381.988509 440.662452 385.350342 438.739428 388.712175 435.958694 391.299226 432.320166 393.111572 428.681639 394.923919 424.33069 395.830078 419.267188 395.830078 411.741109 395.830078 405.889116 393.837911 401.711035 389.853516 397.532955 385.869121 395.443946 380.39066 395.443946 373.417969L395.443946 334.321289 405.404883 334.321289 405.404883 372.712402C405.404883 377.720565 406.566981 381.414376 408.891211 383.793945 411.215442 386.173515 414.784742 387.363281 419.599219 387.363281 428.951479 387.363281 433.627539 382.452035 433.627539 372.629395L433.627539 334.321289 443.546973 334.321289zM461.769434 395L461.769434 334.321289 471.688868 334.321289 471.688868 386.491699 497.379786 386.491699 497.379786 395 461.769434 395zM529.796582 395L519.877149 395 519.877149 342.82959 502.030469 342.82959 502.030469 334.321289 547.643262 334.321289 547.643262 342.82959 529.796582 342.82959 529.796582 395zM607.203614 334.321289L607.203614 373.583984C607.203614 378.066429 606.242116 381.988509 604.319092 385.350342 602.396068 388.712175 599.615334 391.299226 595.976807 393.111572 592.33828 394.923919 587.98733 395.830078 582.923829 395.830078 575.397749 395.830078 569.545757 393.837911 565.367676 389.853516 561.189595 385.869121 559.100586 380.39066 559.100586 373.417969L559.100586 334.321289 569.061524 334.321289 569.061524 372.712402C569.061524 377.720565 570.223622 381.414376 572.547852 383.793945 574.872082 386.173515 578.441383 387.363281 583.25586 387.363281 592.60812 387.363281 597.28418 382.452035 597.28418 372.629395L597.28418 334.321289 607.203614 334.321289zM635.345508 362.543945L642.235157 362.543945C646.855948 362.543945 650.203896 361.686206 652.279102 359.970703 654.354308 358.2552 655.391895 355.709652 655.391895 352.333984 655.391895 348.902978 654.271301 346.440437 652.030079 344.946289 649.788857 343.452141 646.413239 342.705078 641.903126 342.705078L635.345508 342.705078 635.345508 362.543945zM635.345508 370.761719L635.345508 395 625.426075 395 625.426075 334.321289 642.567188 334.321289C650.397631 334.321289 656.194285 335.787746 659.957325 338.720703 663.720364 341.65366 665.601856 346.0807 665.601856 352.001953 665.601856 359.555702 661.672859 364.937321 653.814747 368.146973L670.95586 395 659.666797 395 645.14043 370.761719 635.345508 370.761719zM716.778419 395L682.454688 395 682.454688 334.321289 716.778419 334.321289 716.778419 342.705078 692.374122 342.705078 692.374122 359.223633 715.242774 359.223633 715.242774 367.524414 692.374122 367.524414 692.374122 386.574707 716.778419 386.574707 716.778419 395zM797.549512 352.666016C797.549512 359.00231 795.474338 363.858219 791.323926 367.233887 787.173515 370.609555 781.266185 372.297363 773.601758 372.297363L767.293165 372.297363 767.293165 395 757.373731 395 757.373731 334.321289 774.846876 334.321289C782.428294 334.321289 788.107355 335.870753 791.884229 338.969727 795.661104 342.0687 797.549512 346.634084 797.549512 352.666016zM767.293165 363.955078L772.564161 363.955078C777.655332 363.955078 781.390646 363.06967 783.770216 361.298828 786.149785 359.527986 787.339551 356.761087 787.339551 352.998047 787.339551 349.511701 786.274295 346.910816 784.143751 345.195312 782.013206 343.479809 778.692927 342.62207 774.182813 342.62207L767.293165 342.62207 767.293165 363.955078zM866.240723 364.577637C866.240723 374.455616 863.771266 382.133762 858.832276 387.612305 853.893287 393.090848 846.899948 395.830078 837.852051 395.830078 828.693477 395.830078 821.658635 393.111599 816.747315 387.674561 811.835995 382.237522 809.380372 374.510955 809.380372 364.494629 809.380372 354.478303 811.84983 346.786322 816.788819 341.418457 821.727809 336.050592 828.776485 333.366699 837.935059 333.366699 846.955287 333.366699 853.927873 336.092095 858.853028 341.542969 863.778183 346.993842 866.240723 354.671988 866.240723 364.577637zM819.922364 364.577637C819.922364 372.048377 821.430324 377.713604 824.44629 381.573486 827.462255 385.433369 831.930798 387.363281 837.852051 387.363281 843.745636 387.363281 848.193426 385.454121 851.195557 381.635742 854.197688 377.817364 855.698731 372.131385 855.698731 364.577637 855.698731 357.134566 854.211523 351.490091 851.237061 347.644043 848.2626 343.797995 843.828643 341.875 837.935059 341.875 831.986136 341.875 827.496842 343.797995 824.467042 347.644043 821.437241 351.490091 819.922364 357.134566 819.922364 364.577637zM929.536427 334.321289L929.536427 373.583984C929.536427 378.066429 928.574929 381.988509 926.651905 385.350342 924.728881 388.712175 921.948147 391.299226 918.30962 393.111572 914.671093 394.923919 910.320143 395.830078 905.256641 395.830078 897.730562 395.830078 891.87857 393.837911 887.700489 389.853516 883.522408 385.869121 881.433399 380.39066 881.433399 373.417969L881.433399 334.321289 891.394337 334.321289 891.394337 372.712402C891.394337 377.720565 892.556434 381.414376 894.880665 383.793945 897.204895 386.173515 900.774195 387.363281 905.588673 387.363281 914.940933 387.363281 919.616993 382.452035 919.616993 372.629395L919.616993 334.321289 929.536427 334.321289zM957.678321 362.543945L964.56797 362.543945C969.188761 362.543945 972.536709 361.686206 974.611915 359.970703 976.687121 358.2552 977.724708 355.709652 977.724708 352.333984 977.724708 348.902978 976.604114 346.440437 974.362891 344.946289 972.121669 343.452141 968.746052 342.705078 964.235938 342.705078L957.678321 342.705078 957.678321 362.543945zM957.678321 370.761719L957.678321 395 947.758888 395 947.758888 334.321289 964.900001 334.321289C972.730444 334.321289 978.527098 335.787746 982.290138 338.720703 986.053177 341.65366 987.934669 346.0807 987.934669 352.001953 987.934669 359.555702 984.005672 364.937321 976.147559 368.146973L993.288673 395 981.99961 395 967.473243 370.761719 957.678321 370.761719zM126.778809 508.749023L126.778809 544.413086C126.778809 552.167356 124.583599 558.172098 120.193115 562.42749 115.802631 566.682883 109.473674 568.810547 101.206055 568.810547 93.1275638 568.810547 86.9201877 566.743673 82.5837402 562.609863 78.2472928 558.476054 76.0791016 552.532103 76.0791016 544.777832L76.0791016 508.749023 92.168457 508.749023 92.168457 543.521484C92.168457 547.709331 92.9519778 550.748851 94.519043 552.640137 96.0861081 554.531422 98.3961436 555.477051 101.449219 555.477051 104.718441 555.477051 107.089267 554.538177 108.561768 552.6604 110.034268 550.782624 110.770508 547.709331 110.770508 543.44043L110.770508 508.749023 126.778809 508.749023zM198.434766 568L177.441602 568 155.8 526.256836 155.435254 526.256836C155.948603 532.822298 156.205273 537.83413 156.205273 541.29248L156.205273 568 142.020703 568 142.020703 508.749023 162.932812 508.749023 184.493359 549.924805 184.736523 549.924805C184.358266 543.953746 184.169141 539.158058 184.169141 535.537598L184.169141 508.749023 198.434766 508.749023 198.434766 568zM274.75498 568L271.837012 556.895508 252.586523 556.895508 249.5875 568 231.998633 568 251.330176 508.505859 272.688086 508.505859 292.262793 568 274.75498 568zM268.513769 543.764648L265.960547 534.038086C265.366143 531.876617 264.643412 529.080258 263.792334 525.648926 262.941255 522.217594 262.380633 519.758959 262.110449 518.272949 261.867284 519.650886 261.387715 521.920394 260.671728 525.081543 259.955742 528.242692 258.368437 534.470331 255.909765 543.764648L268.513769 543.764648zM331.41582 508.749023L349.328906 508.749023 329.916308 568 311.071094 568 291.739551 508.749023 309.733691 508.749023 317.798633 538.779785C319.473771 545.453321 320.392382 550.10041 320.554492 552.721191 320.743621 550.829906 321.121872 548.465834 321.689258 545.628906 322.256643 542.791978 322.756476 540.562996 323.188769 538.941895L331.41582 508.749023zM393.709961 568L358.532226 568 358.532226 508.749023 393.709961 508.749023 393.709961 521.596191 374.540527 521.596191 374.540527 530.91748 392.291504 530.91748 392.291504 543.764648 374.540527 543.764648 374.540527 554.950195 393.709961 554.950195 393.709961 568zM463.299023 568L442.305859 568 420.664258 526.256836 420.299511 526.256836C420.81286 532.822298 421.069531 537.83413 421.069531 541.29248L421.069531 568 406.884961 568 406.884961 508.749023 427.79707 508.749023 449.357617 549.924805 449.600781 549.924805C449.222524 543.953746 449.033398 539.158058 449.033398 535.537598L449.033398 508.749023 463.299023 508.749023 463.299023 568zM478.905664 568L478.905664 508.749023 494.995019 508.749023 494.995019 568 478.905664 568zM526.609961 546.439453L526.609961 568 510.60166 568 510.60166 508.749023 530.014257 508.749023C546.117203 508.749023 554.168554 514.584903 554.168554 526.256836 554.168554 533.1195 550.818327 538.428529 544.117773 542.184082L561.382421 568 543.226171 568 530.662695 546.439453 526.609961 546.439453zM526.609961 534.402832L529.608984 534.402832C535.201785 534.402832 537.998144 531.930689 537.998144 526.986328 537.998144 522.906555 535.255821 520.866699 529.771093 520.866699L526.609961 520.866699 526.609961 534.402832zM644.227539 537.118164C644.227539 547.006885 641.505479 554.62595 636.061279 559.975586 630.617078 565.325222 622.964242 568 613.102539 568L593.933105 568 593.933105 508.749023 614.439941 508.749023C623.950405 508.749023 631.292536 511.18064 636.466552 516.043945 641.640569 520.907251 644.227539 527.93192 644.227539 537.118164zM627.611328 537.685547C627.611328 532.254856 626.537364 528.22918 624.389404 525.608398 622.241444 522.987617 618.979025 521.677246 614.60205 521.677246L609.941406 521.677246 609.941406 554.869141 613.507812 554.869141C618.371118 554.869141 621.937488 553.457452 624.207031 550.634033 626.476573 547.810614 627.611328 543.494495 627.611328 537.685547zM708.021191 508.749023L708.021191 544.413086C708.021191 552.167356 705.825982 558.172098 701.435498 562.42749 697.045013 566.682883 690.716056 568.810547 682.448437 568.810547 674.369946 568.810547 668.16257 566.743673 663.826123 562.609863 659.489675 558.476054 657.321484 552.532103 657.321484 544.777832L657.321484 508.749023 673.410839 508.749023 673.410839 543.521484C673.410839 547.709331 674.19436 550.748851 675.761425 552.640137 677.32849 554.531422 679.638526 555.477051 682.691601 555.477051 685.960823 555.477051 688.331649 554.538177 689.80415 552.6604 691.276651 550.782624 692.01289 547.709331 692.01289 543.44043L692.01289 508.749023 708.021191 508.749023zM739.271386 546.439453L739.271386 568 723.263085 568 723.263085 508.749023 742.675683 508.749023C758.778628 508.749023 766.82998 514.584903 766.82998 526.256836 766.82998 533.1195 763.479753 538.428529 756.779199 542.184082L774.043847 568 755.887597 568 743.324121 546.439453 739.271386 546.439453zM739.271386 534.402832L742.27041 534.402832C747.863211 534.402832 750.65957 531.930689 750.65957 526.986328 750.65957 522.906555 747.917247 520.866699 742.432519 520.866699L739.271386 520.866699 739.271386 534.402832zM818.587011 568L815.669042 556.895508 796.418554 556.895508 793.419531 568 775.830663 568 795.162206 508.505859 816.520117 508.505859 836.094824 568 818.587011 568zM812.3458 543.764648L809.792578 534.038086C809.198173 531.876617 808.475443 529.080258 807.624365 525.648926 806.773286 522.217594 806.212663 519.758959 805.94248 518.272949 805.699315 519.650886 805.219746 521.920394 804.503759 525.081543 803.787772 528.242692 802.200467 534.470331 799.741796 543.764648L812.3458 543.764648zM845.298144 508.749023L865.967089 508.749023C874.018562 508.749023 879.996285 509.944568 883.900439 512.335693 887.804592 514.726819 889.75664 518.448542 889.75664 523.500977 889.75664 526.824235 888.905574 529.661121 887.203417 532.011719 885.50126 534.362316 883.25877 535.875322 880.475878 536.550781L880.475878 536.956055C884.150376 537.928716 886.811645 539.549793 888.459765 541.819336 890.107885 544.088879 890.931933 547.033836 890.931933 550.654297 890.931933 556.030951 888.91234 560.266016 884.873095 563.359619 880.83385 566.453222 875.32894 568 868.358202 568L845.298144 568 845.298144 508.749023zM861.306445 531.484863L866.129199 531.484863C868.42576 531.484863 870.20219 531.012049 871.458544 530.066406 872.714898 529.120764 873.343066 527.71583 873.343066 525.851562 873.343066 522.528304 870.830396 520.866699 865.80498 520.866699L861.306445 520.866699 861.306445 531.484863zM861.306445 543.197266L861.306445 555.63916 866.939745 555.63916C871.938143 555.63916 874.437304 553.531759 874.437304 549.316895 874.437304 547.344554 873.76861 545.831548 872.431201 544.777832 871.093791 543.724116 869.155253 543.197266 866.615527 543.197266L861.306445 543.197266zM904.025878 568L904.025878 508.749023 920.034179 508.749023 920.034179 555.071777 942.851074 555.071777 942.851074 568 904.025878 568zM990.312206 568L955.134472 568 955.134472 508.749023 990.312206 508.749023 990.312206 521.596191 971.142773 521.596191 971.142773 530.91748 988.893749 530.91748 988.893749 543.764648 971.142773 543.764648 971.142773 554.950195 990.312206 554.950195 990.312206 568z"/>
  </g>
</svg>
