<svg xmlns="http://www.w3.org/2000/svg" width="1064" height="735" viewBox="0 0 1064 735">
  <g fill="#FFF">
    <path d="M7.01318267,8 L7.01318267,728 L1055.98493,728 L1055.98493,8 L7.01318267,8 Z M0,0 L1064,0 L1064,735 L0,735 L0,0 Z"/>
    <path d="M140.444824 172.166504C140.444824 185.680569 136.598427 196.031214 128.905518 203.21875 121.212608 210.406286 110.103914 214 95.5791016 214L72.3320312 214 72.3320312 131.905273 98.105957 131.905273C111.507717 131.905273 121.914514 135.442836 129.32666 142.518066 136.738807 149.593297 140.444824 159.476011 140.444824 172.166504zM122.36377 172.615723C122.36377 154.983799 114.577389 146.167969 99.0043945 146.167969L89.7392578 146.167969 89.7392578 199.625 97.2075195 199.625C113.978437 199.625 122.36377 190.621998 122.36377 172.615723zM160.46552 214L160.46552 131.905273 177.872747 131.905273 177.872747 214 160.46552 214zM232.707896 167.898926L265.276255 167.898926 265.276255 210.462402C259.997909 212.184416 255.028476 213.391679 250.367808 214.084229 245.70714 214.776778 240.943598 215.123047 236.077037 215.123047 223.686024 215.123047 214.224449 211.48254 207.692027 204.201416 201.159605 196.920292 197.893443 186.466702 197.893443 172.840332 197.893443 159.588313 201.683688 149.256385 209.264293 141.844238 216.844897 134.432092 227.354639 130.726074 240.793834 130.726074 249.216727 130.726074 257.340018 132.410628 265.163951 135.779785L259.380259 149.705566C253.390646 146.71076 247.157798 145.213379 240.681529 145.213379 233.157077 145.213379 227.130119 147.740209 222.600474 152.793945 218.070829 157.847682 215.806041 164.642047 215.806041 173.177246 215.806041 182.086796 217.630974 188.89052 221.280894 193.588623 224.930815 198.286726 230.237158 200.635742 237.200084 200.635742 240.831287 200.635742 244.518587 200.261397 248.262095 199.512695L248.262095 182.38623 232.707896 182.38623 232.707896 167.898926zM287.823807 214L287.823807 131.905273 305.231034 131.905273 305.231034 214 287.823807 214zM360.571554 214L343.164327 214 343.164327 146.392578 320.871847 146.392578 320.871847 131.905273 382.864034 131.905273 382.864034 146.392578 360.571554 146.392578 360.571554 214zM440.73141 214L434.779262 194.458984 404.850063 194.458984 398.897914 214 380.143031 214 409.117641 131.568359 430.399379 131.568359 459.486293 214 440.73141 214zM430.623988 179.859375C425.121031 162.152581 422.023324 152.138846 421.330775 149.817871 420.638226 147.496896 420.142219 145.662604 419.842738 144.314941 418.607381 149.106632 415.069818 160.954658 409.229945 179.859375L430.623988 179.859375zM472.82486 214L472.82486 131.905273 490.232087 131.905273 490.232087 199.625 523.530427 199.625 523.530427 214 472.82486 214zM540.799658 214L540.799658 131.905273 558.206884 131.905273 558.206884 214 540.799658 214zM630.336956 191.202148C630.336956 198.614295 627.669746 204.45408 622.335247 208.72168 617.000747 212.989279 609.579353 215.123047 600.070842 215.123047 591.311033 215.123047 583.562087 213.475928 576.823772 210.181641L576.823772 194.009766C582.364164 196.480481 587.052838 198.221186 590.889934 199.231934 594.72703 200.242681 598.236516 200.748047 601.418499 200.748047 605.236877 200.748047 608.166128 200.018074 610.20634 198.558105 612.246552 197.098137 613.266643 194.926935 613.266643 192.044434 613.266643 190.434725 612.817429 189.002855 611.918987 187.748779 611.020545 186.494704 609.700978 185.287441 607.960247 184.126953 606.219515 182.966466 602.672594 181.113457 597.319377 178.567871 592.303076 176.209461 588.540907 173.944672 586.032756 171.773438 583.524606 169.602203 581.521859 167.075372 580.024456 164.192871 578.527052 161.31037 577.778362 157.941263 577.778362 154.085449 577.778362 146.823043 580.239682 141.114279 585.162395 136.958984 590.085108 132.80369 596.888833 130.726074 605.573772 130.726074 609.841371 130.726074 613.912376 131.23144 617.786907 132.242188 621.661438 133.252935 625.713725 134.675447 629.943889 136.509766L624.328655 150.04248C619.94875 148.245596 616.32696 146.99154 613.463176 146.280273 610.599392 145.569007 607.782445 145.213379 605.012249 145.213379 601.717961 145.213379 599.191131 145.980787 597.431682 147.515625 595.672233 149.050463 594.792522 151.05321 594.792522 153.523926 594.792522 155.058764 595.14815 156.397048 595.859416 157.538818 596.570683 158.680588 597.703077 159.784907 599.256633 160.851807 600.810189 161.918707 604.488131 163.837226 610.290569 166.607422 617.964761 170.27606 623.224311 173.954002 626.069377 177.641357 628.914444 181.328713 630.336956 185.848932 630.336956 191.202148zM698.48021 214L692.528062 194.458984 662.598863 194.458984 656.646714 214 637.891831 214 666.866441 131.568359 688.148179 131.568359 717.235093 214 698.48021 214zM688.372788 179.859375C682.869831 162.152581 679.772125 152.138846 679.079575 149.817871 678.387026 147.496896 677.891019 145.662604 677.591538 144.314941 676.356181 149.106632 672.818618 160.954658 666.978745 179.859375L688.372788 179.859375zM754.213797 214L736.80657 214 736.80657 146.392578 714.51409 146.392578 714.51409 131.905273 776.506277 131.905273 776.506277 146.392578 754.213797 146.392578 754.213797 214zM792.147091 214L792.147091 131.905273 809.554317 131.905273 809.554317 214 792.147091 214zM907.739076 172.840332C907.739076 186.429267 904.369969 196.873499 897.631654 204.17334 890.893339 211.473181 881.235233 215.123047 868.657045 215.123047 856.078857 215.123047 846.42075 211.473181 839.682435 204.17334 832.94412 196.873499 829.575013 186.391833 829.575013 172.728027 829.575013 159.064222 832.953479 148.629349 839.710511 141.423096 846.467544 134.216842 856.153726 130.61377 868.769349 130.61377 881.384972 130.61377 891.03372 134.244918 897.715883 141.507324 904.398045 148.76973 907.739076 159.213962 907.739076 172.840332zM847.824525 172.840332C847.824525 182.011927 849.56523 188.918597 853.046693 193.560547 856.528156 198.202497 861.731554 200.523438 868.657045 200.523438 882.54546 200.523438 889.489564 191.295828 889.489564 172.840332 889.489564 154.347401 882.582895 145.101074 868.769349 145.101074 861.843859 145.101074 856.621743 147.431373 853.102845 152.092041 849.583948 156.752709 847.824525 163.668737 847.824525 172.840332zM1000.58936 214L978.465338 214 942.752448 151.895508 942.247077 151.895508C942.958343 162.863987 943.313971 170.687802 943.313971 175.367188L943.313971 214 927.759772 214 927.759772 131.905273 949.715338 131.905273 985.372077 193.39209 985.765143 193.39209C985.203617 182.723091 984.922858 175.180035 984.922858 170.762695L984.922858 131.905273 1000.58936 131.905273 1000.58936 214zM159.363281 361.050781C159.363281 374.996163 155.876988 385.835899 148.904297 393.570312 141.931606 401.304726 132.058658 405.171875 119.285156 405.171875 106.355404 405.171875 96.4238628 401.334023 89.4902344 393.658203 82.556606 385.982383 79.0898438 375.074289 79.0898438 360.933594 79.0898438 346.792898 82.576137 335.933632 89.5488281 328.355469 96.5215192 320.777306 106.472592 316.988281 119.402344 316.988281 132.136782 316.988281 141.980434 320.835899 148.933594 328.53125 155.886754 336.226601 159.363281 347.066336 159.363281 361.050781zM93.9726562 361.050781C93.9726562 371.597709 96.1015412 379.595676 100.359375 385.044922 104.617209 390.494168 110.925739 393.21875 119.285156 393.21875 127.60551 393.21875 133.884744 390.523464 138.123047 385.132812 142.361349 379.742161 144.480469 371.714897 144.480469 361.050781 144.480469 350.542916 142.38088 342.574246 138.181641 337.144531 133.982401 331.714817 127.722698 329 119.402344 329 111.003864 329 104.666037 331.714817 100.388672 337.144531 96.1113067 342.574246 93.9726562 350.542916 93.9726562 361.050781zM195.460202 404L181.573484 404 181.573484 318.335938 229.913327 318.335938 229.913327 330.171875 195.460202 330.171875 195.460202 356.949219 227.745359 356.949219 227.745359 368.84375 195.460202 368.84375 195.460202 404zM354.032514 404L341.913373 370.298828 295.512006 370.298828 283.641889 404 262.72392 404 308.129194 282.144531 329.711225 282.144531 375.116498 404 354.032514 404zM336.683881 353.199219L325.311811 320.162109C324.481729 317.948557 323.333465 314.462263 321.866987 309.703125 320.400508 304.943987 319.39059 301.457693 318.837201 299.244141 317.343053 306.050815 315.157203 313.493775 312.279584 321.573242L301.322553 353.199219 336.683881 353.199219zM416.209858 404L396.537006 404 396.537006 282.642578 465.018452 282.642578 465.018452 299.410156 416.209858 299.410156 416.209858 337.344727 461.947163 337.344727 461.947163 354.195312 416.209858 354.195312 416.209858 404zM512.254389 339.087891L526.033686 339.087891C535.275269 339.087891 541.971165 337.372413 546.121577 333.941406 550.271988 330.5104 552.347163 325.419305 552.347163 318.667969 552.347163 311.805955 550.105974 306.880874 545.62353 303.892578 541.141085 300.904282 534.389851 299.410156 525.369624 299.410156L512.254389 299.410156 512.254389 339.087891zM512.254389 355.523438L512.254389 404 492.415522 404 492.415522 282.642578 526.697749 282.642578C542.358634 282.642578 553.951943 285.575492 561.478022 291.441406 569.004101 297.307321 572.767084 306.161399 572.767084 318.003906 572.767084 333.111404 564.90909 343.874642 549.192866 350.293945L583.475092 404 560.896967 404 531.844233 355.523438 512.254389 355.523438zM606.472749 404L606.472749 282.642578 626.311616 282.642578 626.311616 404 606.472749 404zM715.383491 297.916016C703.983694 297.916016 695.01894 301.955689 688.48896 310.035156 681.958979 318.114624 678.694038 329.265228 678.694038 343.487305 678.694038 358.373447 681.834469 369.634727 688.115425 377.271484 694.39638 384.908241 703.485645 388.726562 715.383491 388.726562 720.530001 388.726562 725.51042 388.214686 730.324897 387.190918 735.139374 386.16715 740.147462 384.852873 745.349311 383.248047L745.349311 400.264648C735.831034 403.861672 725.040127 405.660156 712.976264 405.660156 695.212504 405.660156 681.57169 400.278537 672.053413 389.515137 662.535136 378.751737 657.776069 363.353941 657.776069 343.321289 657.776069 330.704038 660.08643 319.66411 664.707221 310.201172 669.328013 300.738234 676.010075 293.488957 684.753608 288.453125 693.497141 283.417293 703.762338 280.899414 715.549507 280.899414 727.945402 280.899414 739.400365 283.5003 749.914741 288.702148L742.776069 305.220703C738.680996 303.283844 734.350799 301.582201 729.785346 300.115723 725.219894 298.649244 720.419323 297.916016 715.383491 297.916016zM852.184858 404L840.065718 370.298828 793.66435 370.298828 781.794233 404 760.876264 404 806.281538 282.144531 827.863569 282.144531 873.268843 404 852.184858 404zM834.836225 353.199219L823.464155 320.162109C822.634073 317.948557 821.48581 314.462263 820.019331 309.703125 818.552852 304.943987 817.542934 301.457693 816.989546 299.244141 815.495398 306.050815 813.309547 313.493775 810.431929 321.573242L799.474897 353.199219 834.836225 353.199219zM995.792866 404L971.471577 404 911.78896 307.295898 911.124897 307.295898 911.539936 312.691406C912.31468 322.984426 912.702046 332.391884 912.702046 340.914062L912.702046 404 894.68935 404 894.68935 282.642578 918.761616 282.642578 978.278218 378.848633 978.776265 378.848633C978.665587 377.57584 978.444235 372.941283 978.112202 364.944824 977.780169 356.948365 977.614155 350.709007 977.614155 346.226562L977.614155 282.642578 995.792866 282.642578 995.792866 404zM137.907227 560L133.477539 543.142578 104.253906 543.142578 99.7011719 560 73 560 102.34668 469.683594 134.769531 469.683594 164.485352 560 137.907227 560zM128.432617 523.208984L124.556641 508.443359C123.654292 505.162093 122.557135 500.917018 121.265137 495.708008 119.973138 490.498997 119.122072 486.766613 118.711914 484.510742 118.342772 486.60255 117.614752 490.047828 116.527832 494.84668 115.440913 499.645532 113.031269 509.099539 109.298828 523.208984L128.432617 523.208984zM212.048454 507.335938L250.869743 507.335938 250.869743 555.816406C240.328675 559.425799 228.741876 561.230469 216.109001 561.230469 202.24565 561.230469 191.530425 557.210978 183.963005 549.171875 176.395584 541.132772 172.61193 529.66902 172.61193 514.780273 172.61193 500.26067 176.754467 488.960978 185.039665 480.880859 193.324863 472.800741 204.932168 468.760742 219.86193 468.760742 225.522115 468.760742 230.864347 469.29394 235.888786 470.360352 240.913225 471.426763 245.291599 472.780265 249.02404 474.420898L241.33361 493.493164C234.853109 490.293929 227.736969 488.694336 219.984977 488.694336 212.889239 488.694336 207.403454 491.001442 203.527458 495.615723 199.651462 500.230004 197.713493 506.823199 197.713493 515.395508 197.713493 523.803753 199.466893 530.21238 202.973747 534.621582 206.4806 539.030784 211.535726 541.235352 218.139274 541.235352 221.748667 541.235352 225.0709 540.886722 228.106071 540.189453L228.106071 526.100586 212.048454 526.100586 212.048454 507.335938zM297.756087 527.269531L297.756087 560 273.45433 560 273.45433 470.052734 302.924056 470.052734C327.369491 470.052734 339.592025 478.912021 339.592025 496.630859 339.592025 507.04888 334.506138 515.10837 324.334212 520.80957L350.543197 560 322.980697 560 303.908431 527.269531 297.756087 527.269531zM297.756087 508.99707L302.308822 508.99707C310.799099 508.99707 315.044173 505.244178 315.044173 497.738281 315.044173 491.544891 310.881129 488.448242 302.554916 488.448242L297.756087 488.448242 297.756087 508.99707zM362.976416 560L362.976416 470.052734 387.401221 470.052734 387.401221 560 362.976416 560zM451.144987 488.694336C445.361755 488.694336 440.850082 491.062965 437.609831 495.800293 434.369581 500.537621 432.74948 507.069294 432.74948 515.395508 432.74948 532.704188 439.332422 541.358398 452.498503 541.358398 456.477039 541.358398 460.332469 540.804693 464.064909 539.697266 467.79735 538.589838 471.550242 537.256844 475.323698 535.698242L475.323698 556.24707C467.817802 559.569353 459.327652 561.230469 449.852995 561.230469 436.276756 561.230469 425.869145 557.293008 418.629851 549.417969 411.390557 541.542929 407.770964 530.161207 407.770964 515.272461 407.770964 505.961868 409.524364 497.779332 413.031218 490.724609 416.538071 483.669887 421.582943 478.245624 428.165984 474.45166 434.749024 470.657696 442.490646 468.760742 451.391081 468.760742 461.111833 468.760742 470.401779 470.873026 479.261198 475.097656L471.816862 494.231445C468.49458 492.672844 465.172348 491.360357 461.850066 490.293945 458.527783 489.227534 454.95946 488.694336 451.144987 488.694336zM573.582113 470.052734L573.582113 524.193359C573.582113 535.964903 570.249627 545.080534 563.584555 551.540527 556.919482 558.000521 547.311668 561.230469 534.760824 561.230469 522.497091 561.230469 513.073845 558.092805 506.490805 551.817383 499.907764 545.541961 496.616293 536.518614 496.616293 524.74707L496.616293 470.052734 521.041098 470.052734 521.041098 522.839844C521.041098 529.197297 522.230539 533.811509 524.609457 536.682617 526.988375 539.553725 530.495176 540.989258 535.129965 540.989258 540.09288 540.989258 543.691965 539.563979 545.927328 536.713379 548.162691 533.862779 549.280355 529.197298 549.280355 522.716797L549.280355 470.052734 573.582113 470.052734zM596.720411 560L596.720411 470.052734 621.022169 470.052734 621.022169 540.374023 655.659864 540.374023 655.659864 560 596.720411 560zM711.467107 560L687.165349 560 687.165349 489.924805 665.201482 489.924805 665.201482 470.052734 733.369451 470.052734 733.369451 489.924805 711.467107 489.924805 711.467107 560zM826.952084 470.052734L826.952084 524.193359C826.952084 535.964903 823.619598 545.080534 816.954526 551.540527 810.289453 558.000521 800.681639 561.230469 788.130795 561.230469 775.867062 561.230469 766.443816 558.092805 759.860776 551.817383 753.277735 545.541961 749.986264 536.518614 749.986264 524.74707L749.986264 470.052734 774.411069 470.052734 774.411069 522.839844C774.411069 529.197297 775.60051 533.811509 777.979428 536.682617 780.358346 539.553725 783.865147 540.989258 788.499936 540.989258 793.462851 540.989258 797.061936 539.563979 799.297299 536.713379 801.532662 533.862779 802.650327 529.197298 802.650327 522.716797L802.650327 470.052734 826.952084 470.052734zM874.39214 527.269531L874.39214 560 850.090382 560 850.090382 470.052734 879.560109 470.052734C904.005543 470.052734 916.228077 478.912021 916.228077 496.630859 916.228077 507.04888 911.142191 515.10837 900.970265 520.80957L927.179249 560 899.616749 560 880.544484 527.269531 874.39214 527.269531zM874.39214 508.99707L878.944874 508.99707C887.435151 508.99707 891.680226 505.244178 891.680226 497.738281 891.680226 491.544891 887.517181 488.448242 879.190968 488.448242L874.39214 488.448242 874.39214 508.99707zM993.014812 560L939.612469 560 939.612469 470.052734 993.014812 470.052734 993.014812 489.555664 963.914226 489.555664 963.914226 503.706055 990.861492 503.706055 990.861492 523.208984 963.914226 523.208984 963.914226 540.189453 993.014812 540.189453 993.014812 560zM292.311124 658.248047C292.311124 663.189478 291.241798 667.696269 289.103116 671.768555 286.964433 675.840841 284.029892 678.897451 280.299405 680.938477 276.568918 682.979502 272.213492 684 267.232999 684L257.56503 684 266.647061 641.167969 275.582608 641.167969C281.090448 641.167969 285.255446 642.608384 288.077725 645.489258 290.900005 648.370132 292.311124 652.623019 292.311124 658.248047zM267.174405 681.363281C271.58849 681.363281 275.44099 680.440439 278.732022 678.594727 282.023054 676.749014 284.571857 674.058611 286.378507 670.523438 288.185156 666.988264 289.088467 662.964866 289.088467 658.453125 289.088467 648.726514 284.440076 643.863281 275.143155 643.863281L269.107999 643.863281 261.051358 681.363281 267.174405 681.363281zM315.165298 651.539062C318.680941 651.539062 321.40064 652.598622 323.324478 654.717773 325.248316 656.836925 326.21022 659.7617 326.21022 663.492188 326.21022 667.339863 325.511985 670.93846 324.115494 674.288086 322.719002 677.637712 320.809842 680.191397 318.387954 681.949219 315.966067 683.70704 313.173127 684.585938 310.009048 684.585938 306.41528 684.585938 303.685815 683.516612 301.820572 681.37793 299.955328 679.239247 299.02272 676.177754 299.02272 672.193359 299.02272 668.462872 299.735604 664.966813 301.161392 661.705078 302.58718 658.443343 304.510989 655.933603 306.932876 654.175781 309.354763 652.41796 312.098877 651.539062 315.165298 651.539062zM314.930923 654.058594C312.509036 654.058594 310.331323 654.825188 308.39772 656.358398 306.464117 657.891609 304.921163 660.088853 303.768814 662.950195 302.616464 665.811538 302.040298 668.843734 302.040298 672.046875 302.040298 678.726596 304.794177 682.066406 310.302017 682.066406 312.782498 682.066406 314.984625 681.309578 316.908462 679.795898 318.8323 678.282219 320.365488 676.055679 321.508072 673.116211 322.650655 670.176743 323.221939 666.949236 323.221939 663.433594 323.221939 660.425766 322.509055 658.111336 321.083267 656.490234 319.657479 654.869133 317.606718 654.058594 314.930923 654.058594zM354.45502 684L352.697207 663.902344C352.423768 659.527322 352.287051 656.929692 352.287051 656.109375L352.11127 656.109375C351.447204 657.906259 350.040968 660.738262 347.89252 664.605469L337.462832 684 334.035098 684 333.44916 652.154297 336.144473 652.154297 336.525332 676.207031 336.437441 680.806641 336.613223 680.806641C337.804635 678.18944 339.269464 675.289078 341.007754 672.105469L351.935488 652.154297 354.191348 652.154297 356.066348 672.105469C356.339787 674.976577 356.476504 677.876938 356.476504 680.806641L356.652285 680.806641 357.35541 679.019531 360.314395 672.105469 369.689395 652.154297 372.501895 652.154297 357.619082 684 354.45502 684zM395.121694 684L399.486928 663.726562C399.897087 661.929679 400.102163 660.406256 400.102163 659.15625 400.102163 657.593742 399.677362 656.373051 398.827749 655.494141 397.978135 654.61523 396.664672 654.175781 394.887319 654.175781 392.699808 654.175781 390.644165 654.830072 388.720327 656.138672 386.796489 657.447272 385.175412 659.278309 383.857046 661.631836 382.53868 663.985363 381.527948 666.783187 380.824819 670.025391L377.836538 684 374.965444 684 381.733022 652.154297 384.135366 652.154297 383.051382 658.628906 383.227163 658.628906C386.430304 653.980446 390.492763 651.65625 395.414663 651.65625 397.953738 651.65625 399.858016 652.281244 401.127553 653.53125 402.397091 654.781256 403.03185 656.578113 403.03185 658.921875 403.03185 660.289069 402.797478 662.066395 402.328725 664.253906L397.992788 684 395.121694 684zM413.229775 684L410.475869 684 420.261025 638.414062 423.014931 638.414062 413.229775 684zM443.20309 651.539062C446.718732 651.539062 449.438432 652.598622 451.36227 654.717773 453.286107 656.836925 454.248012 659.7617 454.248012 663.492188 454.248012 667.339863 453.549777 670.93846 452.153285 674.288086 450.756794 677.637712 448.847633 680.191397 446.425746 681.949219 444.003859 683.70704 441.210918 684.585938 438.04684 684.585938 434.453072 684.585938 431.723607 683.516612 429.858363 681.37793 427.99312 679.239247 427.060512 676.177754 427.060512 672.193359 427.060512 668.462872 427.773395 664.966813 429.199184 661.705078 430.624972 658.443343 432.548781 655.933603 434.970668 654.175781 437.392555 652.41796 440.136668 651.539062 443.20309 651.539062zM442.968715 654.058594C440.546828 654.058594 438.369115 654.825188 436.435512 656.358398 434.501908 657.891609 432.958955 660.088853 431.806605 662.950195 430.654256 665.811538 430.07809 668.843734 430.07809 672.046875 430.07809 678.726596 432.831969 682.066406 438.339809 682.066406 440.82029 682.066406 443.022416 681.309578 444.946254 679.795898 446.870092 678.282219 448.403279 676.055679 449.545863 673.116211 450.688447 670.176743 451.25973 666.949236 451.25973 663.433594 451.25973 660.425766 450.546847 658.111336 449.121059 656.490234 447.69527 654.869133 445.644509 654.058594 442.968715 654.058594zM478.332655 651.65625C482.863928 651.65625 485.58851 653.7949 486.506483 658.072266L486.682264 658.072266 488.41078 652.154297 490.75453 652.154297 484.045546 684 481.643202 684 482.961561 675.972656 482.78578 675.972656C481.145147 678.746108 479.318993 680.874993 477.307264 682.359375 475.295536 683.843757 472.981106 684.585938 470.363905 684.585938 464.875596 684.585938 462.131483 680.93363 462.131483 673.628906 462.131483 669.781231 462.863898 666.109392 464.328749 662.613281 465.7936 659.11717 467.751588 656.417002 470.202772 654.512695 472.653956 652.608389 475.36389 651.65625 478.332655 651.65625zM471.037733 681.949219C472.776023 681.949219 474.509404 681.343756 476.237928 680.132812 477.966453 678.921869 479.519172 677.300791 480.896132 675.269531 482.273092 673.238271 483.322886 670.9922 484.045546 668.53125 484.768205 666.0703 485.12953 663.990243 485.12953 662.291016 485.12953 660.748039 484.875626 659.366217 484.367811 658.145508 483.859996 656.924799 483.108051 655.958011 482.111952 655.245117 481.115853 654.532223 479.875631 654.175781 478.391249 654.175781 475.969362 654.175781 473.781883 654.976554 471.828749 656.578125 469.875614 658.179696 468.274067 660.577132 467.024061 663.770508 465.774055 666.963883 465.149061 670.142562 465.149061 673.306641 465.149061 676.275405 465.637338 678.458001 466.613905 679.854492 467.590472 681.250984 469.065067 681.949219 471.037733 681.949219zM513.550111 651.65625C518.042321 651.65625 520.766903 653.7949 521.723939 658.072266L521.841126 658.072266C522.075502 656.783197 523.471973 650.230528 526.030579 638.414062L528.93097 638.414062 519.263001 684 516.860658 684 518.179017 675.972656 518.003236 675.972656C514.624313 681.714872 510.483729 684.585938 505.581361 684.585938 500.093052 684.585938 497.348939 680.93363 497.348939 673.628906 497.348939 669.859356 498.047174 666.246111 499.443665 662.789062 500.840157 659.332014 502.768848 656.612315 505.229798 654.629883 507.690748 652.647451 510.464158 651.65625 513.550111 651.65625zM506.255189 681.949219C507.993479 681.949219 509.736625 681.338873 511.484681 680.118164 513.232737 678.897455 514.795221 677.256846 516.172181 675.196289 517.549141 673.135732 518.58917 670.879895 519.292298 668.428711 519.995427 665.977527 520.346986 663.931649 520.346986 662.291016 520.346986 659.830066 519.746406 657.862312 518.545228 656.387695 517.34405 654.913079 515.698559 654.175781 513.608704 654.175781 511.186817 654.175781 508.999339 654.98632 507.046204 656.607422 505.09307 658.228524 503.491523 660.596664 502.241517 663.711914 500.991511 666.827164 500.366517 670.025374 500.366517 673.306641 500.366517 679.068388 502.329388 681.949219 506.255189 681.949219zM567.520178 652.154297L566.992835 654.527344 558.701819 654.527344 554.746741 673.130859C554.317051 675.064463 554.10221 676.666009 554.10221 677.935547 554.10221 680.650404 555.332666 682.007812 557.793616 682.007812 559.121748 682.007812 560.606108 681.753909 562.246741 681.246094L562.246741 683.765625C560.274075 684.312503 558.613935 684.585938 557.266272 684.585938 555.332669 684.585938 553.838543 684.053716 552.78385 682.989258 551.729157 681.924799 551.201819 680.376963 551.201819 678.345703 551.201819 676.919915 551.485019 674.908216 552.051428 672.310547L555.830725 654.527344 550.498694 654.527344 550.90885 652.564453 556.299475 652.066406 559.141272 644.654297 560.7526 644.654297 559.141272 652.154297 567.520178 652.154297zM589.641931 684L594.007165 663.726562C594.417324 661.929679 594.6224 660.406256 594.6224 659.15625 594.6224 657.593742 594.197599 656.373051 593.347986 655.494141 592.498372 654.61523 591.184909 654.175781 589.407556 654.175781 587.220045 654.175781 585.164402 654.830072 583.240564 656.138672 581.316726 657.447272 579.695649 659.283191 578.377283 661.646484 577.058917 664.009777 576.048185 666.802718 575.345056 670.025391L572.356775 684 569.485681 684 579.212243 638.414062 582.024743 638.414062 579.505212 650.455078C578.645833 654.361348 578.001308 657.08593 577.571618 658.628906L577.7474 658.628906C579.270845 656.421864 581.092116 654.708014 583.211267 653.487305 585.330418 652.266595 587.571607 651.65625 589.9349 651.65625 592.356787 651.65625 594.231768 652.291009 595.5599 653.560547 596.888031 654.830084 597.552087 656.617176 597.552087 658.921875 597.552087 660.289069 597.317715 662.066395 596.848962 664.253906L592.513025 684 589.641931 684zM616.509777 684.585938C613.130854 684.585938 610.494162 683.516612 608.599621 681.37793 606.70508 679.239247 605.757824 676.255879 605.757824 672.427734 605.757824 668.89256 606.451177 665.503922 607.837902 662.261719 609.224628 659.019515 611.133789 656.441416 613.565441 654.527344 615.997094 652.613272 618.677731 651.65625 621.607434 651.65625 623.834007 651.65625 625.611333 652.251947 626.939465 653.443359 628.267596 654.634772 628.931652 656.255849 628.931652 658.306641 628.931652 661.841815 627.334989 664.5371 624.141613 666.392578 620.948238 668.248056 616.207074 669.175781 609.91798 669.175781L608.951184 669.175781C608.833996 670.035161 608.775402 670.992182 608.775402 672.046875 608.775402 675.269547 609.498051 677.725577 610.943371 679.415039 612.388691 681.104501 614.468748 681.949219 617.183605 681.949219 619.761743 681.949219 622.457029 681.236335 625.269543 679.810547L625.269543 682.564453C622.535154 683.912116 619.615262 684.585938 616.509777 684.585938zM621.255871 654.175781C618.697265 654.175781 616.319359 655.3037 614.122082 657.55957 611.924805 659.815441 610.337907 662.828106 609.36134 666.597656L610.796887 666.597656C620.894593 666.597656 625.943371 663.960964 625.943371 658.6875 625.943371 657.3789 625.518571 656.299809 624.668957 655.450195 623.819343 654.600582 622.681659 654.175781 621.255871 654.175781zM670.479845 651.597656C671.827508 651.597656 673.028668 651.734374 674.083361 652.007812L673.468126 654.732422C672.550153 654.439452 671.446648 654.292969 670.157579 654.292969 668.321633 654.292969 666.573603 654.917963 664.913439 656.167969 663.253274 657.417975 661.759149 659.292956 660.431017 661.792969 659.102885 664.292981 658.126333 666.998032 657.501329 669.908203L654.571642 684 651.700548 684 658.468126 652.154297 660.811876 652.154297 659.962267 658.130859 660.138048 658.130859C661.563837 656.294913 662.764996 654.971684 663.741564 654.161133 664.718131 653.350582 665.75816 652.720705 666.861681 652.271484 667.965202 651.822263 669.171245 651.597656 670.479845 651.597656zM686.185582 684.585938C682.806659 684.585938 680.169966 683.516612 678.275426 681.37793 676.380885 679.239247 675.433629 676.255879 675.433629 672.427734 675.433629 668.89256 676.126981 665.503922 677.513707 662.261719 678.900433 659.019515 680.809593 656.441416 683.241246 654.527344 685.672899 652.613272 688.353536 651.65625 691.283238 651.65625 693.509812 651.65625 695.287138 652.251947 696.61527 653.443359 697.943401 654.634772 698.607457 656.255849 698.607457 658.306641 698.607457 661.841815 697.010793 664.5371 693.817418 666.392578 690.624043 668.248056 685.882879 669.175781 679.593785 669.175781L678.626988 669.175781C678.5098 670.035161 678.451207 670.992182 678.451207 672.046875 678.451207 675.269547 679.173856 677.725577 680.619176 679.415039 682.064495 681.104501 684.144553 681.949219 686.85941 681.949219 689.437548 681.949219 692.132834 681.236335 694.945348 679.810547L694.945348 682.564453C692.210959 683.912116 689.291066 684.585938 686.185582 684.585938zM690.931676 654.175781C688.373069 654.175781 685.995163 655.3037 683.797887 657.55957 681.60061 659.815441 680.013712 662.828106 679.037145 666.597656L680.472691 666.597656C690.570398 666.597656 695.619176 663.960964 695.619176 658.6875 695.619176 657.3789 695.194375 656.299809 694.344762 655.450195 693.495148 654.600582 692.357464 654.175781 690.931676 654.175781zM716.246788 684.46875C711.754578 684.46875 709.029996 682.3301 708.07296 678.052734L707.955772 678.052734C707.701865 679.458991 706.246801 686.246033 703.590538 698.414062L700.690147 698.414062 710.533897 652.154297 712.936241 652.154297 711.617881 660.181641 711.793663 660.181641C713.571015 657.193344 715.480176 655.005866 717.521202 653.619141 719.562228 652.232415 721.793651 651.539062 724.215538 651.539062 726.85227 651.539062 728.883499 652.442374 730.309288 654.249023 731.735076 656.055673 732.44796 658.814435 732.44796 662.525391 732.44796 666.334003 731.744842 669.957014 730.338585 673.394531 728.932328 676.832048 727.003636 679.5371 724.552452 681.509766 722.101268 683.482432 719.332741 684.46875 716.246788 684.46875zM723.571006 654.175781C721.871779 654.175781 720.172577 654.747065 718.47335 655.889648 716.774123 657.032232 715.19699 658.667958 713.741905 660.796875 712.28682 662.925792 711.207729 665.245105 710.5046 667.754883 709.801472 670.264661 709.449913 672.300773 709.449913 673.863281 709.449913 676.3047 710.050493 678.262688 711.251671 679.737305 712.452848 681.211921 714.09834 681.949219 716.188194 681.949219 718.610081 681.949219 720.807325 681.128914 722.779991 679.488281 724.752657 677.847648 726.354203 675.469742 727.584678 672.354492 728.815153 669.239242 729.430381 666.060563 729.430381 662.818359 729.430381 657.056612 727.477276 654.175781 723.571006 654.175781zM756.356822 651.539062C759.872464 651.539062 762.592164 652.598622 764.516001 654.717773 766.439839 656.836925 767.401743 659.7617 767.401743 663.492188 767.401743 667.339863 766.703508 670.93846 765.307017 674.288086 763.910526 677.637712 762.001365 680.191397 759.579478 681.949219 757.157591 683.70704 754.36465 684.585938 751.200572 684.585938 747.606804 684.585938 744.877339 683.516612 743.012095 681.37793 741.146851 679.239247 740.214243 676.177754 740.214243 672.193359 740.214243 668.462872 740.927127 664.966813 742.352915 661.705078 743.778704 658.443343 745.702513 655.933603 748.1244 654.175781 750.546287 652.41796 753.2904 651.539062 756.356822 651.539062zM756.122447 654.058594C753.700559 654.058594 751.522847 654.825188 749.589243 656.358398 747.65564 657.891609 746.112687 660.088853 744.960337 662.950195 743.807988 665.811538 743.231822 668.843734 743.231822 672.046875 743.231822 678.726596 745.9857 682.066406 751.49354 682.066406 753.974021 682.066406 756.176148 681.309578 758.099986 679.795898 760.023823 678.282219 761.557011 676.055679 762.699595 673.116211 763.842179 670.176743 764.413462 666.949236 764.413462 663.433594 764.413462 660.425766 763.700579 658.111336 762.27479 656.490234 760.849002 654.869133 758.798241 654.058594 756.122447 654.058594zM793.185605 651.597656C794.533268 651.597656 795.734428 651.734374 796.789121 652.007812L796.173887 654.732422C795.255913 654.439452 794.152409 654.292969 792.86334 654.292969 791.027393 654.292969 789.279364 654.917963 787.619199 656.167969 785.959035 657.417975 784.464909 659.292956 783.136777 661.792969 781.808646 664.292981 780.832093 666.998032 780.20709 669.908203L777.277402 684 774.406309 684 781.173887 652.154297 783.517637 652.154297 782.668027 658.130859 782.843809 658.130859C784.269597 656.294913 785.470757 654.971684 786.447324 654.161133 787.423892 653.350582 788.46392 652.720705 789.567441 652.271484 790.670963 651.822263 791.877005 651.597656 793.185605 651.597656zM816.684311 652.154297L816.156967 654.527344 807.865952 654.527344 803.910874 673.130859C803.481184 675.064463 803.266342 676.666009 803.266342 677.935547 803.266342 680.650404 804.496799 682.007812 806.957749 682.007812 808.28588 682.007812 809.77024 681.753909 811.410874 681.246094L811.410874 683.765625C809.438208 684.312503 807.778068 684.585938 806.430405 684.585938 804.496802 684.585938 803.002676 684.053716 801.947983 682.989258 800.89329 681.924799 800.365952 680.376963 800.365952 678.345703 800.365952 676.919915 800.649152 674.908216 801.215561 672.310547L804.994858 654.527344 799.662827 654.527344 800.072983 652.564453 805.463608 652.066406 808.305405 644.654297 809.916733 644.654297 808.305405 652.154297 816.684311 652.154297z"/>
  </g>
</svg>
