<svg xmlns="http://www.w3.org/2000/svg" width="1062" height="735" viewBox="0 0 1062 735">
  <g fill="none" fill-rule="evenodd" transform="translate(-4)">
    <path fill="#FFF" fill-rule="nonzero" d="M11,8 L11,728 L1058,728 L1058,8 L11,8 Z M4,0 L1066,0 L1066,735 L4,735 L4,0 Z"/>
    <path fill="#FFF" d="M93.78125 279L93.78125 193.335938 111.945312 193.335938 111.945312 279 93.78125 279zM209.503906 279L186.417969 279 149.152344 214.195312 148.625 214.195312C149.367191 225.640682 149.738281 233.804663 149.738281 238.6875L149.738281 279 133.507812 279 133.507812 193.335938 156.417969 193.335938 193.625 257.496094 194.035156 257.496094C193.449216 246.363226 193.15625 238.492211 193.15625 233.882812L193.15625 193.335938 209.503906 193.335938 209.503906 279zM279.933594 193.335938L298.273438 193.335938 269.152344 279 249.347656 279 220.285156 193.335938 238.625 193.335938 254.738281 244.3125C255.636723 247.320328 256.564448 250.826152 257.521484 254.830078 258.47852 258.834004 259.074218 261.61718 259.308594 263.179688 259.738283 259.58592 261.203112 253.29692 263.703125 244.3125L279.933594 193.335938zM358.390625 279L309.054688 279 309.054688 193.335938 358.390625 193.335938 358.390625 208.21875 327.21875 208.21875 327.21875 227.027344 356.222656 227.027344 356.222656 241.910156 327.21875 241.910156 327.21875 264 358.390625 264 358.390625 279zM426.828125 255.210938C426.828125 262.945351 424.04495 269.03904 418.478516 273.492188 412.912082 277.945335 405.168018 280.171875 395.246094 280.171875 386.105423 280.171875 378.019566 278.453142 370.988281 275.015625L370.988281 258.140625C376.76956 260.718763 381.662089 262.535151 385.666016 263.589844 389.669942 264.644537 393.332015 265.171875 396.652344 265.171875 400.636739 265.171875 403.693349 264.410164 405.822266 262.886719 407.951183 261.363274 409.015625 259.097671 409.015625 256.089844 409.015625 254.410148 408.54688 252.916022 407.609375 251.607422 406.67187 250.298822 405.294931 249.039069 403.478516 247.828125 401.6621 246.617181 397.960965 244.683607 392.375 242.027344 387.140599 239.566394 383.214857 237.203136 380.597656 234.9375 377.980456 232.671864 375.890633 230.035171 374.328125 227.027344 372.765617 224.019516 371.984375 220.503926 371.984375 216.480469 371.984375 208.902306 374.552709 202.945334 379.689453 198.609375 384.826198 194.273416 391.925736 192.105469 400.988281 192.105469 405.441429 192.105469 409.689433 192.632807 413.732422 193.6875 417.775411 194.742193 422.003884 196.226553 426.417969 198.140625L420.558594 212.261719C415.988258 210.386709 412.208999 209.078129 409.220703 208.335938 406.232407 207.593746 403.292983 207.222656 400.402344 207.222656 396.964827 207.222656 394.328134 208.023429 392.492188 209.625 390.656241 211.226571 389.738281 213.316393 389.738281 215.894531 389.738281 217.496102 390.109371 218.892572 390.851562 220.083984 391.593754 221.275397 392.775383 222.427729 394.396484 223.541016 396.017586 224.654302 399.855438 226.656236 405.910156 229.546875 413.918009 233.375019 419.406235 237.212871 422.375 241.060547 425.343765 244.908222 426.828125 249.624972 426.828125 255.210938zM475.402344 279L457.238281 279 457.238281 208.453125 433.976562 208.453125 433.976562 193.335938 498.664062 193.335938 498.664062 208.453125 475.402344 208.453125 475.402344 279zM511.847656 279L511.847656 193.335938 530.011719 193.335938 530.011719 279 511.847656 279zM569.738281 231.363281L575.597656 231.363281C581.339872 231.363281 585.578111 230.40626 588.3125 228.492188 591.046889 226.578115 592.414062 223.570333 592.414062 219.46875 592.414062 215.40623 591.017592 212.515634 588.224609 210.796875 585.431627 209.078116 581.105498 208.21875 575.246094 208.21875L569.738281 208.21875 569.738281 231.363281zM569.738281 246.128906L569.738281 279 551.574219 279 551.574219 193.335938 576.535156 193.335938C588.175839 193.335938 596.789035 195.455057 602.375 199.693359 607.960965 203.931662 610.753906 210.367144 610.753906 219 610.753906 224.039088 609.367201 228.521465 606.59375 232.447266 603.820299 236.373067 599.894557 239.449208 594.816406 241.675781 607.707096 260.93369 616.105449 273.374972 620.011719 279L599.855469 279 579.40625 246.128906 569.738281 246.128906zM733.039062 235.347656C733.039062 249.449289 729.025431 260.249962 720.998047 267.75 712.970663 275.250037 701.378982 279 686.222656 279L661.964844 279 661.964844 193.335938 688.859375 193.335938C702.84382 193.335938 713.703086 197.027307 721.4375 204.410156 729.171914 211.793006 733.039062 222.105403 733.039062 235.347656zM714.171875 235.816406C714.171875 217.417877 706.046956 208.21875 689.796875 208.21875L680.128906 208.21875 680.128906 264 687.921875 264C705.421963 264 714.171875 254.605563 714.171875 235.816406zM803.234375 279L797.023438 258.609375 765.792969 258.609375 759.582031 279 740.011719 279 770.246094 192.984375 792.453125 192.984375 822.804688 279 803.234375 279zM792.6875 243.375C786.945284 224.898345 783.712894 214.449231 782.990234 212.027344 782.267575 209.605457 781.750002 207.691413 781.4375 206.285156 780.148431 211.285181 776.457062 223.648339 770.363281 243.375L792.6875 243.375zM909.582031 279L886.496094 279 849.230469 214.195312 848.703125 214.195312C849.445316 225.640682 849.816406 233.804663 849.816406 238.6875L849.816406 279 833.585938 279 833.585938 193.335938 856.496094 193.335938 893.703125 257.496094 894.113281 257.496094C893.527341 246.363226 893.234375 238.492211 893.234375 233.882812L893.234375 193.335938 909.582031 193.335938 909.582031 279zM981.710938 255.210938C981.710938 262.945351 978.927762 269.03904 973.361328 273.492188 967.794894 277.945335 960.050831 280.171875 950.128906 280.171875 940.988236 280.171875 932.902379 278.453142 925.871094 275.015625L925.871094 258.140625C931.652373 260.718763 936.544902 262.535151 940.548828 263.589844 944.552754 264.644537 948.214827 265.171875 951.535156 265.171875 955.519551 265.171875 958.576161 264.410164 960.705078 262.886719 962.833995 261.363274 963.898438 259.097671 963.898438 256.089844 963.898438 254.410148 963.429692 252.916022 962.492188 251.607422 961.554683 250.298822 960.177743 249.039069 958.361328 247.828125 956.544913 246.617181 952.843778 244.683607 947.257812 242.027344 942.023411 239.566394 938.097669 237.203136 935.480469 234.9375 932.863268 232.671864 930.773445 230.035171 929.210938 227.027344 927.64843 224.019516 926.867188 220.503926 926.867188 216.480469 926.867188 208.902306 929.435521 202.945334 934.572266 198.609375 939.70901 194.273416 946.808548 192.105469 955.871094 192.105469 960.324241 192.105469 964.572245 192.632807 968.615234 193.6875 972.658223 194.742193 976.886697 196.226553 981.300781 198.140625L975.441406 212.261719C970.871071 210.386709 967.091812 209.078129 964.103516 208.335938 961.115219 207.593746 958.175796 207.222656 955.285156 207.222656 951.847639 207.222656 949.210947 208.023429 947.375 209.625 945.539053 211.226571 944.621094 213.316393 944.621094 215.894531 944.621094 217.496102 944.992184 218.892572 945.734375 220.083984 946.476566 221.275397 947.658195 222.427729 949.279297 223.541016 950.900399 224.654302 954.738251 226.656236 960.792969 229.546875 968.800821 233.375019 974.289048 237.212871 977.257812 241.060547 980.226577 244.908222 981.710938 249.624972 981.710938 255.210938zM90.387207 402L90.387207 338.46582 100.773438 338.46582 100.773438 393.091309 127.67334 393.091309 127.67334 402 90.387207 402zM140.581055 338.46582L141.23291 339.421875C139.697421 345.476918 137.147967 352.415488 133.584473 360.237793L126.196777 360.237793C128.195811 351.86503 129.644364 344.607778 130.54248 338.46582L140.581055 338.46582zM188.602051 402L152.663086 402 152.663086 338.46582 188.602051 338.46582 188.602051 347.244141 163.049316 347.244141 163.049316 364.540039 186.994141 364.540039 186.994141 373.231445 163.049316 373.231445 163.049316 393.178223 188.602051 393.178223 188.602051 402zM257.265137 402L244.532227 402 213.286621 351.372559 212.938965 351.372559 213.15625 354.197266C213.561851 359.585964 213.764648 364.511045 213.764648 368.972656L213.764648 402 204.334473 402 204.334473 338.46582 216.937012 338.46582 248.095703 388.83252 248.356445 388.83252C248.298502 388.166175 248.182618 385.739848 248.008789 381.553467 247.83496 377.367085 247.748047 374.100598 247.748047 371.753906L247.748047 338.46582 257.265137 338.46582 257.265137 402zM297.985352 402L287.599121 402 287.599121 347.374512 268.912598 347.374512 268.912598 338.46582 316.671875 338.46582 316.671875 347.374512 297.985352 347.374512 297.985352 402zM338.79248 368.016602L346.006348 368.016602C350.844588 368.016602 354.350087 367.118499 356.522949 365.322266 358.695812 363.526033 359.782227 360.860695 359.782227 357.326172 359.782227 353.733706 358.608898 351.155281 356.262207 349.59082 353.915516 348.026359 350.381046 347.244141 345.658691 347.244141L338.79248 347.244141 338.79248 368.016602zM338.79248 376.621094L338.79248 402 328.40625 402 328.40625 338.46582 346.354004 338.46582C354.552938 338.46582 360.622376 340.001287 364.5625 343.072266 368.502624 346.143245 370.472656 350.778615 370.472656 356.978516 370.472656 364.887735 366.358765 370.522607 358.130859 373.883301L376.078613 402 364.258301 402 349.04834 376.621094 338.79248 376.621094zM423.230469 402L387.291504 402 387.291504 338.46582 423.230469 338.46582 423.230469 347.244141 397.677734 347.244141 397.677734 364.540039 421.622559 364.540039 421.622559 373.231445 397.677734 373.231445 397.677734 393.178223 423.230469 393.178223 423.230469 402zM481.029297 357.673828C481.029297 364.308301 478.856467 369.392723 474.510742 372.927246 470.165017 376.461769 463.979695 378.229004 455.95459 378.229004L449.349121 378.229004 449.349121 402 438.962891 402 438.962891 338.46582 457.258301 338.46582C465.196492 338.46582 471.142802 340.0882 475.097412 343.333008 479.052022 346.577816 481.029297 351.358041 481.029297 357.673828zM449.349121 369.494141L454.868164 369.494141C460.19892 369.494141 464.110014 368.567067 466.601562 366.712891 469.093111 364.858715 470.338867 361.961608 470.338867 358.021484 470.338867 354.371075 469.223481 351.647795 466.992676 349.851562 464.76187 348.05533 461.285343 347.157227 456.562988 347.157227L449.349121 347.157227 449.349121 369.494141zM506.10498 368.016602L513.318848 368.016602C518.157088 368.016602 521.662587 367.118499 523.835449 365.322266 526.008312 363.526033 527.094727 360.860695 527.094727 357.326172 527.094727 353.733706 525.921398 351.155281 523.574707 349.59082 521.228016 348.026359 517.693546 347.244141 512.971191 347.244141L506.10498 347.244141 506.10498 368.016602zM506.10498 376.621094L506.10498 402 495.71875 402 495.71875 338.46582 513.666504 338.46582C521.865438 338.46582 527.934876 340.001287 531.875 343.072266 535.815124 346.143245 537.785156 350.778615 537.785156 356.978516 537.785156 364.887735 533.671265 370.522607 525.443359 373.883301L543.391113 402 531.570801 402 516.36084 376.621094 506.10498 376.621094zM590.542969 402L554.604004 402 554.604004 338.46582 590.542969 338.46582 590.542969 347.244141 564.990234 347.244141 564.990234 364.540039 588.935059 364.540039 588.935059 373.231445 564.990234 373.231445 564.990234 393.178223 590.542969 393.178223 590.542969 402zM659.206055 402L646.473145 402 615.227539 351.372559 614.879883 351.372559 615.097168 354.197266C615.502769 359.585964 615.705566 364.511045 615.705566 368.972656L615.705566 402 606.275391 402 606.275391 338.46582 618.87793 338.46582 650.036621 388.83252 650.297363 388.83252C650.23942 388.166175 650.123536 385.739848 649.949707 381.553467 649.775878 377.367085 649.688965 374.100598 649.688965 371.753906L649.688965 338.46582 659.206055 338.46582 659.206055 402zM713.919434 402L677.980469 402 677.980469 338.46582 713.919434 338.46582 713.919434 347.244141 688.366699 347.244141 688.366699 364.540039 712.311523 364.540039 712.311523 373.231445 688.366699 373.231445 688.366699 393.178223 713.919434 393.178223 713.919434 402zM779.453613 338.46582L779.453613 379.576172C779.453613 384.269555 778.446869 388.376203 776.43335 391.89624 774.41983 395.416277 771.508238 398.125072 767.698486 400.022705 763.888734 401.920338 759.333034 402.869141 754.03125 402.869141 746.151002 402.869141 740.023622 400.783224 735.648926 396.611328 731.274229 392.439432 729.086914 386.703162 729.086914 379.402344L729.086914 338.46582 739.516602 338.46582 739.516602 378.663574C739.516602 383.907416 740.733386 387.775053 743.166992 390.266602 745.600598 392.75815 749.337865 394.003906 754.378906 394.003906 764.171273 394.003906 769.067383 388.861542 769.067383 378.57666L769.067383 338.46582 779.453613 338.46582zM808.092773 368.016602L815.306641 368.016602C820.144881 368.016602 823.65038 367.118499 825.823242 365.322266 827.996105 363.526033 829.08252 360.860695 829.08252 357.326172 829.08252 353.733706 827.909191 351.155281 825.5625 349.59082 823.215809 348.026359 819.681339 347.244141 814.958984 347.244141L808.092773 347.244141 808.092773 368.016602zM808.092773 376.621094L808.092773 402 797.706543 402 797.706543 338.46582 815.654297 338.46582C823.853231 338.46582 829.922669 340.001287 833.862793 343.072266 837.802917 346.143245 839.772949 350.778615 839.772949 356.978516 839.772949 364.887735 835.659058 370.522607 827.431152 373.883301L845.378906 402 833.558594 402 818.348633 376.621094 808.092773 376.621094zM856.591797 402L856.591797 338.46582 866.978027 338.46582 866.978027 402 856.591797 402zM925.167969 402L918.823242 384.356445 894.530762 384.356445 888.316406 402 877.365234 402 901.13623 338.205078 912.435059 338.205078 936.206055 402 925.167969 402zM916.085449 375.404297L910.131836 358.108398C909.697263 356.949538 909.096114 355.124361 908.328369 352.632812 907.560624 350.141264 907.031902 348.316087 906.742188 347.157227 905.959957 350.720721 904.8156 354.617329 903.309082 358.847168L897.572754 375.404297 916.085449 375.404297zM962.324707 402L951.938477 402 951.938477 347.374512 933.251953 347.374512 933.251953 338.46582 981.01123 338.46582 981.01123 347.374512 962.324707 347.374512 962.324707 402zM179.268555 503.654297C179.268555 520.095785 174.742721 532.763627 165.690918 541.658203 156.639115 550.552779 143.915121 555 127.518555 555L95.6464844 555 95.6464844 456.486328 129.742188 456.486328C145.554767 456.486328 157.762164 460.529256 166.364746 468.615234 174.967328 476.701212 179.268555 488.380783 179.268555 503.654297zM151.641602 504.597656C151.641602 495.568314 149.855975 488.875022 146.284668 484.517578 142.713361 480.160134 137.289099 477.981445 130.011719 477.981445L122.262695 477.981445 122.262695 533.167969 128.192383 533.167969C136.278361 533.167969 142.207989 530.820824 145.981445 526.126465 149.754902 521.432105 151.641602 514.255908 151.641602 504.597656zM259.469957 555L200.981676 555 200.981676 456.486328 259.469957 456.486328 259.469957 477.84668 227.597887 477.84668 227.597887 493.344727 257.111558 493.344727 257.111558 514.705078 227.597887 514.705078 227.597887 533.302734 259.469957 533.302734 259.469957 555zM345.19675 525.082031C345.19675 531.191437 343.64696 536.615699 340.547336 541.35498 337.447711 546.094262 332.978029 549.777819 327.138156 552.405762 321.298283 555.033705 314.447765 556.347656 306.586398 556.347656 300.027771 556.347656 294.524897 555.887212 290.077609 554.966309 285.630321 554.045406 281.003414 552.439465 276.19675 550.148438L276.19675 526.429688C281.272947 529.035169 286.551214 531.067864 292.031711 532.527832 297.512207 533.9878 302.543406 534.717773 307.125461 534.717773 311.078605 534.717773 313.976037 534.032722 315.817843 532.662598 317.659649 531.292474 318.580539 529.529308 318.580539 527.373047 318.580539 526.025384 318.209937 524.846196 317.468722 523.835449 316.727508 522.824702 315.53709 521.80274 313.897433 520.769531 312.257777 519.736323 307.889168 517.625016 300.791476 514.435547 294.367616 511.51561 289.549793 508.685561 286.337863 505.945312 283.125933 503.205064 280.745097 500.060565 279.195285 496.511719 277.645472 492.962873 276.870578 488.76272 276.870578 483.911133 276.870578 474.836869 280.172302 467.761744 286.775851 462.685547 293.3794 457.60935 302.453528 455.071289 313.998507 455.071289 324.195824 455.071289 334.595134 457.429664 345.19675 462.146484L337.043429 482.698242C327.834399 478.475565 319.883306 476.364258 313.189914 476.364258 309.730912 476.364258 307.215312 476.970697 305.643039 478.183594 304.070765 479.39649 303.28464 480.901358 303.28464 482.698242 303.28464 484.629892 304.284142 486.359367 306.283175 487.886719 308.282209 489.41407 313.706471 492.199199 322.556125 496.242188 331.046401 500.060566 336.942339 504.159646 340.244113 508.539551 343.545887 512.919455 345.19675 518.433561 345.19675 525.082031zM430.602484 555L404.390569 555 404.390569 456.486328 462.609319 456.486328 462.609319 477.84668 430.602484 477.84668 430.602484 496.646484 460.116155 496.646484 460.116155 518.006836 430.602484 518.006836 430.602484 555zM541.3283 555L482.840018 555 482.840018 456.486328 541.3283 456.486328 541.3283 477.84668 509.456229 477.84668 509.456229 493.344727 538.969901 493.344727 538.969901 514.705078 509.456229 514.705078 509.456229 533.302734 541.3283 533.302734 541.3283 555zM605.559975 555L585.412514 484.045898 584.806069 484.045898C585.749433 496.129943 586.221108 505.518521 586.221108 512.211914L586.221108 555 562.637124 555 562.637124 456.486328 598.080483 456.486328 618.632241 526.429688 619.171303 526.429688 639.318764 456.486328 674.829506 456.486328 674.829506 555 650.369546 555 650.369546 511.807617C650.369546 509.561512 650.403237 507.068373 650.47062 504.328125 650.538003 501.587877 650.841223 494.872124 651.380288 484.180664L650.773842 484.180664 630.895913 555 605.559975 555zM743.036768 555L722.889307 484.045898 722.282862 484.045898C723.226226 496.129943 723.697901 505.518521 723.697901 512.211914L723.697901 555 700.113916 555 700.113916 456.486328 735.557276 456.486328 756.109034 526.429688 756.648096 526.429688 776.795557 456.486328 812.306299 456.486328 812.306299 555 787.846338 555 787.846338 511.807617C787.846338 509.561512 787.880029 507.068373 787.947413 504.328125 788.014796 501.587877 788.318015 494.872124 788.857081 484.180664L788.250635 484.180664 768.372706 555 743.036768 555zM896.07899 555L837.590709 555 837.590709 456.486328 896.07899 456.486328 896.07899 477.84668 864.20692 477.84668 864.20692 493.344727 893.720592 493.344727 893.720592 514.705078 864.20692 514.705078 864.20692 533.302734 896.07899 533.302734 896.07899 555zM981.805783 525.082031C981.805783 531.191437 980.255994 536.615699 977.156369 541.35498 974.056744 546.094262 969.587062 549.777819 963.747189 552.405762 957.907316 555.033705 951.056799 556.347656 943.195432 556.347656 936.636805 556.347656 931.13393 555.887212 926.686643 554.966309 922.239355 554.045406 917.612448 552.439465 912.805783 550.148438L912.805783 526.429688C917.88198 529.035169 923.160248 531.067864 928.640744 532.527832 934.12124 533.9878 939.15244 534.717773 943.734494 534.717773 947.687639 534.717773 950.585071 534.032722 952.426877 532.662598 954.268683 531.292474 955.189572 529.529308 955.189572 527.373047 955.189572 526.025384 954.81897 524.846196 954.077756 523.835449 953.336541 522.824702 952.146123 521.80274 950.506467 520.769531 948.86681 519.736323 944.498201 517.625016 937.40051 514.435547 930.97665 511.51561 926.158827 508.685561 922.946896 505.945312 919.734966 503.205064 917.354131 500.060565 915.804318 496.511719 914.254506 492.962873 913.479611 488.76272 913.479611 483.911133 913.479611 474.836869 916.781336 467.761744 923.384885 462.685547 929.988433 457.60935 939.062561 455.071289 950.607541 455.071289 960.804858 455.071289 971.204168 457.429664 981.805783 462.146484L973.652463 482.698242C964.443432 478.475565 956.49234 476.364258 949.798947 476.364258 946.339946 476.364258 943.824346 476.970697 942.252072 478.183594 940.679799 479.39649 939.893674 480.901358 939.893674 482.698242 939.893674 484.629892 940.893176 486.359367 942.892209 487.886719 944.891242 489.41407 950.315505 492.199199 959.165158 496.242188 967.655435 500.060566 973.551372 504.159646 976.853146 508.539551 980.154921 512.919455 981.805783 518.433561 981.805783 525.082031z"/>
  </g>
</svg>
