<svg xmlns="http://www.w3.org/2000/svg" width="1063" height="735" viewBox="0 0 1063 735">
  <g fill="#FFF">
    <path d="M126.358398,530.07959 C126.358398,540.095916 123.577665,547.75331 118.016113,553.052002 C112.454562,558.350694 104.444388,561 93.9853516,561 L77.0102539,561 L77.0102539,500.321289 L95.7700195,500.321289 C105.426643,500.321289 112.938775,502.922175 118.306641,508.124023 C123.674506,513.325872 126.358398,520.644321 126.358398,530.07959 Z M115.899414,530.411621 C115.899414,515.885181 109.106676,508.62207 95.5209961,508.62207 L86.9296875,508.62207 L86.9296875,552.657715 L93.9853516,552.657715 C108.5948,552.657715 115.899414,545.242424 115.899414,530.411621 Z M173.714355,561 L139.390625,561 L139.390625,500.321289 L173.714355,500.321289 L173.714355,508.705078 L149.310059,508.705078 L149.310059,525.223633 L172.178711,525.223633 L172.178711,533.524414 L149.310059,533.524414 L149.310059,552.574707 L173.714355,552.574707 L173.714355,561 Z M221.817383,544.522949 C221.817383,549.918484 219.866719,554.15184 215.965332,557.223145 C212.063945,560.294449 206.682326,561.830078 199.820312,561.830078 C192.958299,561.830078 187.341493,560.764822 182.969727,558.634277 L182.969727,549.254395 C185.736667,550.554857 188.676498,551.57861 191.789307,552.325684 C194.902115,553.072758 197.800442,553.446289 200.484375,553.446289 C204.413431,553.446289 207.311758,552.699226 209.179443,551.205078 C211.047128,549.71093 211.980957,547.704928 211.980957,545.187012 C211.980957,542.91812 211.123218,540.995125 209.407715,539.417969 C207.692211,537.840812 204.15058,535.973155 198.782715,533.814941 C193.248833,531.573719 189.347505,529.014337 187.078613,526.136719 C184.809722,523.2591 183.675293,519.800476 183.675293,515.760742 C183.675293,510.69724 185.473778,506.712905 189.070801,503.807617 C192.667824,500.902329 197.496063,499.449707 203.555664,499.449707 C209.36624,499.449707 215.14906,500.722481 220.904297,503.268066 L217.75,511.361328 C212.354465,509.092437 207.54006,507.958008 203.306641,507.958008 C200.096989,507.958008 197.662118,508.65665 196.001953,510.053955 C194.341789,511.45126 193.511719,513.298166 193.511719,515.594727 C193.511719,517.171883 193.843747,518.520746 194.507812,519.641357 C195.171878,520.761968 196.264804,521.820308 197.786621,522.816406 C199.308439,523.812505 202.047669,525.126782 206.004395,526.759277 C210.459169,528.613128 213.724111,530.34244 215.799316,531.947266 C217.874522,533.552091 219.396317,535.36441 220.364746,537.384277 C221.333175,539.404144 221.817383,541.783678 221.817383,544.522949 Z M270.335449,561 L254.19043,561 L254.19043,500.321289 L290.049805,500.321289 L290.049805,513.478027 L270.335449,513.478027 L270.335449,525.057617 L288.51416,525.057617 L288.51416,538.214355 L270.335449,538.214355 L270.335449,561 Z M337.036133,561 L301.010742,561 L301.010742,500.321289 L337.036133,500.321289 L337.036133,513.478027 L317.404785,513.478027 L317.404785,523.023926 L335.583496,523.023926 L335.583496,536.180664 L317.404785,536.180664 L317.404785,547.635742 L337.036133,547.635742 L337.036133,561 Z M375.099121,561 L362.689453,517.296387 L362.315918,517.296387 C362.896976,524.739458 363.1875,530.522278 363.1875,534.64502 L363.1875,561 L348.661133,561 L348.661133,500.321289 L370.492188,500.321289 L383.150879,543.402344 L383.48291,543.402344 L395.892578,500.321289 L417.765137,500.321289 L417.765137,561 L402.699219,561 L402.699219,534.395996 C402.699219,533.012526 402.71997,531.476896 402.761475,529.789062 C402.802979,528.101229 402.989744,523.964714 403.321777,517.379395 L402.948242,517.379395 L390.70459,561 L375.099121,561 Z M458.276855,561 L445.867188,517.296387 L445.493652,517.296387 C446.07471,524.739458 446.365234,530.522278 446.365234,534.64502 L446.365234,561 L431.838867,561 L431.838867,500.321289 L453.669922,500.321289 L466.328613,543.402344 L466.660645,543.402344 L479.070312,500.321289 L500.942871,500.321289 L500.942871,561 L485.876953,561 L485.876953,534.395996 C485.876953,533.012526 485.897705,531.476896 485.939209,529.789062 C485.980713,528.101229 486.167479,523.964714 486.499512,517.379395 L486.125977,517.379395 L473.882324,561 L458.276855,561 Z M551.041992,561 L515.016602,561 L515.016602,500.321289 L551.041992,500.321289 L551.041992,513.478027 L531.410645,513.478027 L531.410645,523.023926 L549.589355,523.023926 L549.589355,536.180664 L531.410645,536.180664 L531.410645,547.635742 L551.041992,547.635742 L551.041992,561 Z M602.344727,542.572266 C602.344727,546.335305 601.390146,549.676336 599.480957,552.595459 C597.571768,555.514582 594.818703,557.783439 591.22168,559.4021 C587.624656,561.02076 583.405135,561.830078 578.562988,561.830078 C574.523255,561.830078 571.133803,561.546471 568.394531,560.979248 C565.65526,560.412025 562.805353,559.422859 559.844727,558.011719 L559.844727,543.402344 C562.97137,545.007169 566.222477,546.259191 569.598145,547.158447 C572.973812,548.057703 576.07274,548.507324 578.89502,548.507324 C581.329928,548.507324 583.114578,548.085372 584.249023,547.241455 C585.383469,546.397538 585.950684,545.31153 585.950684,543.983398 C585.950684,543.153316 585.722414,542.427005 585.265869,541.804443 C584.809324,541.181882 584.076096,540.552412 583.066162,539.916016 C582.056229,539.279619 579.365419,537.979176 574.993652,536.014648 C571.036927,534.216137 568.069427,532.47299 566.091064,530.785156 C564.112702,529.097322 562.646245,527.160493 561.69165,524.974609 C560.737056,522.788726 560.259766,520.201675 560.259766,517.213379 C560.259766,511.624158 562.293437,507.266292 566.36084,504.139648 C570.428243,501.013005 576.01738,499.449707 583.128418,499.449707 C589.409374,499.449707 595.814746,500.902329 602.344727,503.807617 L597.322754,516.466309 C591.650525,513.865384 586.753113,512.564941 582.630371,512.564941 C580.499827,512.564941 578.950363,512.938473 577.981934,513.685547 C577.013504,514.432621 576.529297,515.359532 576.529297,516.466309 C576.529297,517.656093 577.144932,518.721349 578.376221,519.662109 C579.607509,520.602869 582.94854,522.318347 588.399414,524.808594 C593.628932,527.160494 597.260488,529.685289 599.294189,532.383057 C601.327891,535.080824 602.344727,538.477193 602.344727,542.572266 Z M646.176758,528.543945 L653.066406,528.543945 C657.687198,528.543945 661.035146,527.686206 663.110352,525.970703 C665.185557,524.2552 666.223145,521.709652 666.223145,518.333984 C666.223145,514.902978 665.10255,512.440437 662.861328,510.946289 C660.620106,509.452141 657.244489,508.705078 652.734375,508.705078 L646.176758,508.705078 L646.176758,528.543945 Z M646.176758,536.761719 L646.176758,561 L636.257324,561 L636.257324,500.321289 L653.398438,500.321289 C661.22888,500.321289 667.025535,501.787746 670.788574,504.720703 C674.551614,507.65366 676.433105,512.0807 676.433105,518.001953 C676.433105,525.555702 672.504108,530.937321 664.645996,534.146973 L681.787109,561 L670.498047,561 L655.97168,536.761719 L646.176758,536.761719 Z M738.149414,500.321289 L738.149414,539.583984 C738.149414,544.066429 737.187917,547.988509 735.264893,551.350342 C733.341869,554.712175 730.561135,557.299226 726.922607,559.111572 C723.28408,560.923919 718.933131,561.830078 713.869629,561.830078 C706.34355,561.830078 700.491557,559.837911 696.313477,555.853516 C692.135396,551.869121 690.046387,546.39066 690.046387,539.417969 L690.046387,500.321289 L700.007324,500.321289 L700.007324,538.712402 C700.007324,543.720565 701.169422,547.414376 703.493652,549.793945 C705.817883,552.173515 709.387183,553.363281 714.20166,553.363281 C723.55392,553.363281 728.22998,548.452035 728.22998,538.629395 L728.22998,500.321289 L738.149414,500.321289 Z M763.591309,528.543945 L770.480957,528.543945 C775.101748,528.543945 778.449697,527.686206 780.524902,525.970703 C782.600108,524.2552 783.637695,521.709652 783.637695,518.333984 C783.637695,514.902978 782.517101,512.440437 780.275879,510.946289 C778.034657,509.452141 774.659039,508.705078 770.148926,508.705078 L763.591309,508.705078 L763.591309,528.543945 Z M763.591309,536.761719 L763.591309,561 L753.671875,561 L753.671875,500.321289 L770.812988,500.321289 C778.643431,500.321289 784.440085,501.787746 788.203125,504.720703 C791.966165,507.65366 793.847656,512.0807 793.847656,518.001953 C793.847656,525.555702 789.918659,530.937321 782.060547,534.146973 L799.20166,561 L787.912598,561 L773.38623,536.761719 L763.591309,536.761719 Z M845.644531,561 L839.584961,544.149414 L816.384277,544.149414 L810.449219,561 L799.990234,561 L822.692871,500.072266 L833.483887,500.072266 L856.186523,561 L845.644531,561 Z M836.970215,535.599609 L831.28418,519.081055 C830.869139,517.974278 830.295007,516.231132 829.561768,513.851562 C828.828528,511.471993 828.323569,509.728847 828.046875,508.62207 C827.299801,512.025408 826.206876,515.746887 824.768066,519.786621 L819.289551,535.599609 L836.970215,535.599609 Z M864.196777,561 L864.196777,500.321289 L874.116211,500.321289 L874.116211,552.491699 L899.807129,552.491699 L899.807129,561 L864.196777,561 Z M944.589844,561 L910.266113,561 L910.266113,500.321289 L944.589844,500.321289 L944.589844,508.705078 L920.185547,508.705078 L920.185547,525.223633 L943.054199,525.223633 L943.054199,533.524414 L920.185547,533.524414 L920.185547,552.574707 L944.589844,552.574707 L944.589844,561 Z M992.692871,544.522949 C992.692871,549.918484 990.742207,554.15184 986.84082,557.223145 C982.939434,560.294449 977.557814,561.830078 970.695801,561.830078 C963.833787,561.830078 958.216981,560.764822 953.845215,558.634277 L953.845215,549.254395 C956.612156,550.554857 959.551986,551.57861 962.664795,552.325684 C965.777603,553.072758 968.675931,553.446289 971.359863,553.446289 C975.288919,553.446289 978.187247,552.699226 980.054932,551.205078 C981.922617,549.71093 982.856445,547.704928 982.856445,545.187012 C982.856445,542.91812 981.998706,540.995125 980.283203,539.417969 C978.5677,537.840812 975.026069,535.973155 969.658203,533.814941 C964.124321,531.573719 960.222993,529.014337 957.954102,526.136719 C955.68521,523.2591 954.550781,519.800476 954.550781,515.760742 C954.550781,510.69724 956.349266,506.712905 959.946289,503.807617 C963.543312,500.902329 968.371552,499.449707 974.431152,499.449707 C980.241728,499.449707 986.024548,500.722481 991.779785,503.268066 L988.625488,511.361328 C983.229953,509.092437 978.415549,507.958008 974.182129,507.958008 C970.972477,507.958008 968.537606,508.65665 966.877441,510.053955 C965.217277,511.45126 964.387207,513.298166 964.387207,515.594727 C964.387207,517.171883 964.719235,518.520746 965.383301,519.641357 C966.047367,520.761968 967.140292,521.820308 968.662109,522.816406 C970.183927,523.812505 972.923157,525.126782 976.879883,526.759277 C981.334658,528.613128 984.599599,530.34244 986.674805,531.947266 C988.75001,533.552091 990.271805,535.36441 991.240234,537.384277 C992.208664,539.404144 992.692871,541.783678 992.692871,544.522949 Z"/>
    <path d="M7.00659134,8 L7.00659134,728 L1054.99247,728 L1054.99247,8 L7.00659134,8 Z M0,0 L1063,0 L1063,735 L0,735 L0,0 Z"/>
    <path d="M75.2490234 214L75.2490234 156.176758 90.9506836 156.176758 90.9506836 214 75.2490234 214zM158.503418 214L138.016113 214 116.895996 173.262695 116.540039 173.262695C117.041018 179.669954 117.291504 184.561018 117.291504 187.936035L117.291504 214 103.44873 214 103.44873 156.176758 123.856934 156.176758 144.897949 196.360352 145.135254 196.360352C144.766111 190.533174 144.581543 185.853045 144.581543 182.319824L144.581543 156.176758 158.503418 156.176758 158.503418 214zM226.056152 214L205.568848 214 184.44873 173.262695 184.092773 173.262695C184.593753 179.669954 184.844238 184.561018 184.844238 187.936035L184.844238 214 171.001465 214 171.001465 156.176758 191.409668 156.176758 212.450684 196.360352 212.687988 196.360352C212.318846 190.533174 212.134277 185.853045 212.134277 182.319824L212.134277 156.176758 226.056152 156.176758 226.056152 214zM292.659668 185.009277C292.659668 194.738818 290.273461 202.13474 285.500977 207.197266 280.728492 212.259791 273.741257 214.791016 264.539062 214.791016 255.468705 214.791016 248.514428 212.246607 243.676025 207.157715 238.837622 202.068822 236.418457 194.659717 236.418457 184.930176 236.418457 175.306104 238.824439 167.956324 243.636475 162.880615 248.44851 157.804906 255.442337 155.26709 264.618164 155.26709 273.820359 155.26709 280.79441 157.785131 285.540527 162.821289 290.286645 167.857447 292.659668 175.253369 292.659668 185.009277zM252.871582 185.009277C252.871582 196.189021 256.760703 201.778809 264.539062 201.778809 268.49416 201.778809 271.427481 200.420912 273.339111 197.705078 275.250742 194.989244 276.206543 190.757353 276.206543 185.009277 276.206543 179.234834 275.237559 174.969984 273.299561 172.2146 271.361563 169.459215 268.467793 168.081543 264.618164 168.081543 256.78707 168.081543 252.871582 173.724065 252.871582 185.009277zM335.572266 156.176758L353.053711 156.176758 334.108887 214 315.717773 214 296.852051 156.176758 314.412598 156.176758 322.283203 185.483887C323.917977 191.996615 324.814452 196.531725 324.972656 199.089355 325.157227 197.243643 325.526364 194.936537 326.080078 192.167969 326.633792 189.3994 327.12158 187.224129 327.543457 185.64209L335.572266 156.176758zM394.779785 214L391.932129 203.163086 373.145508 203.163086 370.21875 214 353.053711 214 371.919434 155.939453 392.762695 155.939453 411.865723 214 394.779785 214zM388.688965 190.348633L386.197266 180.856445C385.617185 178.74706 384.911869 176.018083 384.081299 172.669434 383.250728 169.320784 382.703615 166.921394 382.439941 165.471191 382.202636 166.815925 381.734623 169.030746 381.035889 172.115723 380.337155 175.200699 378.788098 181.278275 376.388672 190.348633L388.688965 190.348633zM443.625 214L428.002441 214 428.002441 168.95166 413.882812 168.95166 413.882812 156.176758 457.705078 156.176758 457.705078 168.95166 443.625 168.95166 443.625 214zM465.971191 214L465.971191 156.176758 481.672852 156.176758 481.672852 214 465.971191 214zM548.276367 185.009277C548.276367 194.738818 545.890161 202.13474 541.117676 207.197266 536.345191 212.259791 529.357956 214.791016 520.155762 214.791016 511.085404 214.791016 504.131128 212.246607 499.292725 207.157715 494.454322 202.068822 492.035156 194.659717 492.035156 184.930176 492.035156 175.306104 494.441138 167.956324 499.253174 162.880615 504.06521 157.804906 511.059036 155.26709 520.234863 155.26709 529.437058 155.26709 536.411109 157.785131 541.157227 162.821289 545.903344 167.857447 548.276367 175.253369 548.276367 185.009277zM508.488281 185.009277C508.488281 196.189021 512.377403 201.778809 520.155762 201.778809 524.11086 201.778809 527.04418 200.420912 528.955811 197.705078 530.867441 194.989244 531.823242 190.757353 531.823242 185.009277 531.823242 179.234834 530.854258 174.969984 528.91626 172.2146 526.978262 169.459215 524.084492 168.081543 520.234863 168.081543 512.403769 168.081543 508.488281 173.724065 508.488281 185.009277zM613.772461 214L593.285156 214 572.165039 173.262695 571.809082 173.262695C572.310061 179.669954 572.560547 184.561018 572.560547 187.936035L572.560547 214 558.717773 214 558.717773 156.176758 579.125977 156.176758 600.166992 196.360352 600.404297 196.360352C600.035154 190.533174 599.850586 185.853045 599.850586 182.319824L599.850586 156.176758 613.772461 156.176758 613.772461 214zM697.167969 184.534668C697.167969 194.079638 694.577418 201.376684 689.39624 206.426025 684.215062 211.475367 676.759814 214 667.030273 214L651.012207 214 651.012207 156.176758 668.730957 156.176758C677.722213 156.176758 684.709448 158.668432 689.692871 163.651855 694.676294 168.635279 697.167969 175.596147 697.167969 184.534668zM690.048828 184.771973C690.048828 177.230919 688.157001 171.548847 684.373291 167.725586 680.589581 163.902325 674.966834 161.990723 667.504883 161.990723L657.73584 161.990723 657.73584 208.186035 665.922852 208.186035C673.938517 208.186035 679.963359 206.215108 683.997559 202.273193 688.031758 198.331279 690.048828 192.497597 690.048828 184.771973zM712.061523 214L712.061523 156.176758 718.785156 156.176758 718.785156 214 712.061523 214zM762.076172 183.704102L781.73291 183.704102 781.73291 211.824707C778.674301 212.800298 775.563004 213.538572 772.398926 214.039551 769.234847 214.54053 765.569845 214.791016 761.403809 214.791016 752.649859 214.791016 745.834009 212.187282 740.956055 206.979736 736.078101 201.772191 733.63916 194.475145 733.63916 185.088379 733.63916 179.07663 734.845447 173.809837 737.258057 169.287842 739.670666 164.765847 743.144509 161.31178 747.679688 158.925537 752.214866 156.539295 757.527802 155.346191 763.618652 155.346191 769.788605 155.346191 775.536594 156.479969 780.862793 158.747559L778.252441 164.680176C773.031712 162.465321 768.008813 161.35791 763.183594 161.35791 756.143519 161.35791 750.646016 163.454081 746.690918 167.646484 742.73582 171.838888 740.758301 177.652795 740.758301 185.088379 740.758301 192.893105 742.663311 198.81248 746.473389 202.84668 750.283466 206.88088 755.879846 208.897949 763.262695 208.897949 767.270528 208.897949 771.186016 208.436528 775.009277 207.513672L775.009277 189.71582 762.076172 189.71582 762.076172 183.704102zM797.615234 214L797.615234 156.176758 804.338867 156.176758 804.338867 214 797.615234 214zM839.996582 214L833.272949 214 833.272949 162.148926 814.960938 162.148926 814.960938 156.176758 858.308594 156.176758 858.308594 162.148926 839.996582 162.148926 839.996582 214zM899.701172 214L892.50293 195.608887 869.326172 195.608887 862.207031 214 855.404297 214 878.264648 155.939453 883.92041 155.939453 906.662109 214 899.701172 214zM890.406738 189.557617L883.683105 171.641113C882.812984 169.373524 881.916509 166.591813 880.993652 163.295898 880.413571 165.827161 879.583013 168.608872 878.501953 171.641113L871.699219 189.557617 890.406738 189.557617zM916.611816 214L916.611816 156.176758 923.335449 156.176758 923.335449 207.90918 948.845703 207.90918 948.845703 214 916.611816 214zM992.888184 214L960.654297 214 960.654297 156.176758 992.888184 156.176758 992.888184 162.148926 967.37793 162.148926 967.37793 180.777344 991.345703 180.777344 991.345703 186.709961 967.37793 186.709961 967.37793 207.988281 992.888184 207.988281 992.888184 214zM120.113281 393L80.7163086 393 80.7163086 322.327148 120.113281 322.327148 120.113281 329.626465 88.934082 329.626465 88.934082 352.394531 118.228027 352.394531 118.228027 359.645508 88.934082 359.645508 88.934082 385.652344 120.113281 385.652344 120.113281 393zM157.52832 393L149.310547 393 149.310547 329.626465 126.929199 329.626465 126.929199 322.327148 179.909668 322.327148 179.909668 329.626465 157.52832 329.626465 157.52832 393zM215.439453 393L215.439453 322.327148 230.424805 322.327148 230.424805 393 215.439453 393zM311.910645 393L292.864746 393 262.120605 339.536133 261.685547 339.536133C262.297855 348.978563 262.604004 355.713847 262.604004 359.742188L262.604004 393 249.213867 393 249.213867 322.327148 268.114746 322.327148 298.810547 375.259277 299.148926 375.259277C298.665525 366.074661 298.423828 359.581074 298.423828 355.77832L298.423828 322.327148 311.910645 322.327148 311.910645 393zM389.335938 356.986816C389.335938 368.620664 386.024691 377.531219 379.4021 383.71875 372.779508 389.906281 363.216371 393 350.712402 393L330.699707 393 330.699707 322.327148 352.887695 322.327148C364.424862 322.327148 373.383757 325.372528 379.764648 331.463379 386.14554 337.55423 389.335938 346.061957 389.335938 356.986816zM373.770508 357.373535C373.770508 342.194748 367.06745 334.605469 353.661133 334.605469L345.685059 334.605469 345.685059 380.625 352.114258 380.625C366.55183 380.625 373.770508 372.874589 373.770508 357.373535zM445.685059 393L404.98291 393 404.98291 322.327148 445.685059 322.327148 445.685059 334.605469 419.968262 334.605469 419.968262 350.122559 443.896484 350.122559 443.896484 362.400879 419.968262 362.400879 419.968262 380.625 445.685059 380.625 445.685059 393zM416.584473 316.671387L416.584473 315.366211C422.127469 308.920866 425.914052 304.070817 427.944336 300.815918L444.476562 300.815918 444.476562 301.831055C442.800773 303.506844 439.940694 305.996321 435.89624 309.299561 431.851786 312.6028 428.685558 315.060051 426.397461 316.671387L416.584473 316.671387zM476.414062 355.584961L481.344727 355.584961C485.953148 355.584961 489.401356 354.67457 491.689453 352.85376 493.977551 351.03295 495.121582 348.382342 495.121582 344.901855 495.121582 341.389143 494.162851 338.79493 492.245361 337.119141 490.327871 335.443351 487.322774 334.605469 483.22998 334.605469L476.414062 334.605469 476.414062 355.584961zM510.251953 344.370117C510.251953 351.975624 507.875268 357.79246 503.121826 361.820801 498.368384 365.849141 491.608931 367.863281 482.843262 367.863281L476.414062 367.863281 476.414062 393 461.428711 393 461.428711 322.327148 484.003418 322.327148C492.575726 322.327148 499.093484 324.172101 503.556885 327.862061 508.020286 331.55202 510.251953 337.054651 510.251953 344.370117zM565.295898 393L524.59375 393 524.59375 322.327148 565.295898 322.327148 565.295898 334.605469 539.579102 334.605469 539.579102 350.122559 563.507324 350.122559 563.507324 362.400879 539.579102 362.400879 539.579102 380.625 565.295898 380.625 565.295898 393zM643.736328 393L624.69043 393 593.946289 339.536133 593.51123 339.536133C594.123538 348.978563 594.429688 355.713847 594.429688 359.742188L594.429688 393 581.039551 393 581.039551 322.327148 599.94043 322.327148 630.63623 375.259277 630.974609 375.259277C630.491209 366.074661 630.249512 359.581074 630.249512 355.77832L630.249512 322.327148 643.736328 322.327148 643.736328 393zM721.161621 356.986816C721.161621 368.620664 717.850375 377.531219 711.227783 383.71875 704.605191 389.906281 695.042055 393 682.538086 393L662.525391 393 662.525391 322.327148 684.713379 322.327148C696.250546 322.327148 705.209441 325.372528 711.590332 331.463379 717.971223 337.55423 721.161621 346.061957 721.161621 356.986816zM705.596191 357.373535C705.596191 342.194748 698.893133 334.605469 685.486816 334.605469L677.510742 334.605469 677.510742 380.625 683.939941 380.625C698.377514 380.625 705.596191 372.874589 705.596191 357.373535zM778.09082 393L772.966797 376.177734 747.20166 376.177734 742.077637 393 725.932129 393 750.875488 322.037109 769.196289 322.037109 794.236328 393 778.09082 393zM769.389648 363.609375C764.65232 348.366135 761.985599 339.745615 761.389404 337.747559 760.79321 335.749502 760.366212 334.170416 760.108398 333.010254 759.044917 337.135275 755.999537 347.33488 750.972168 363.609375L769.389648 363.609375zM866.827637 393L847.781738 393 817.037598 339.536133 816.602539 339.536133C817.214847 348.978563 817.520996 355.713847 817.520996 359.742188L817.520996 393 804.130859 393 804.130859 322.327148 823.031738 322.327148 853.727539 375.259277 854.065918 375.259277C853.582517 366.074661 853.34082 359.581074 853.34082 355.77832L853.34082 322.327148 866.827637 322.327148 866.827637 393zM915.635742 333.783691C909.996066 333.783691 905.62941 335.902567 902.535645 340.140381 899.441879 344.378195 897.89502 350.283654 897.89502 357.856934 897.89502 373.615801 903.808535 381.495117 915.635742 381.495117 920.598658 381.495117 926.608851 380.254407 933.666504 377.772949L933.666504 390.341309C927.865694 392.758313 921.388219 393.966797 914.233887 393.966797 903.953562 393.966797 896.090359 390.848908 890.644043 384.613037 885.197727 378.377166 882.474609 369.426328 882.474609 357.760254 882.474609 350.412561 883.811998 343.975369 886.486816 338.448486 889.161634 332.921603 893.004614 328.683853 898.015869 325.735107 903.027125 322.786362 908.900357 321.312012 915.635742 321.312012 922.500034 321.312012 929.39645 322.971663 936.325195 326.291016L931.491211 338.472656C928.84862 337.215814 926.189955 336.120122 923.515137 335.185547 920.840319 334.250972 918.21388 333.783691 915.635742 333.783691zM990.402344 393L949.700195 393 949.700195 322.327148 990.402344 322.327148 990.402344 334.605469 964.685547 334.605469 964.685547 350.122559 988.61377 350.122559 988.61377 362.400879 964.685547 362.400879 964.685547 380.625 990.402344 380.625 990.402344 393z"/>
  </g>
</svg>
