<svg xmlns="http://www.w3.org/2000/svg" width="1063" height="735" viewBox="0 0 1063 735">
  <g fill="#FFF">
    <path d="M93.890625,516.943359 L103.455078,516.943359 C109.869824,516.943359 114.517564,515.752616 117.398438,513.371094 C120.279311,510.989571 121.719727,507.455753 121.719727,502.769531 C121.719727,498.006487 120.164078,494.587901 117.052734,492.513672 C113.941391,490.439443 109.25524,489.402344 102.994141,489.402344 L93.890625,489.402344 L93.890625,516.943359 Z M93.890625,528.351562 L93.890625,562 L80.1201172,562 L80.1201172,477.763672 L103.916016,477.763672 C114.786513,477.763672 122.833633,479.799459 128.057617,483.871094 C133.281602,487.942729 135.893555,494.088501 135.893555,502.308594 C135.893555,512.794974 130.439182,520.265928 119.530273,524.72168 L143.326172,562 L127.654297,562 L107.488281,528.351562 L93.890625,528.351562 Z M223.890312,477.763672 L223.890312,532.269531 C223.890312,538.492219 222.555528,543.936988 219.885918,548.604004 C217.216308,553.271019 213.355995,556.862455 208.304863,559.378418 C203.253731,561.894381 197.21359,563.152344 190.184258,563.152344 C179.736289,563.152344 171.612347,560.386746 165.812187,554.855469 C160.012028,549.324191 157.111992,541.718798 157.111992,532.039062 L157.111992,477.763672 L170.940117,477.763672 L170.940117,531.05957 C170.940117,538.012079 172.553382,543.139957 175.779961,546.443359 C179.00654,549.746761 183.961568,551.398438 190.645195,551.398438 C203.628333,551.398438 210.119805,544.580472 210.119805,530.944336 L210.119805,477.763672 L223.890312,477.763672 Z M261.529648,516.943359 L271.094101,516.943359 C277.508847,516.943359 282.156587,515.752616 285.037461,513.371094 C287.918335,510.989571 289.35875,507.455753 289.35875,502.769531 C289.35875,498.006487 287.803101,494.587901 284.691758,492.513672 C281.580414,490.439443 276.894263,489.402344 270.633164,489.402344 L261.529648,489.402344 L261.529648,516.943359 Z M261.529648,528.351562 L261.529648,562 L247.75914,562 L247.75914,477.763672 L271.555039,477.763672 C282.425536,477.763672 290.472656,479.799459 295.69664,483.871094 C300.920625,487.942729 303.532578,494.088501 303.532578,502.308594 C303.532578,512.794974 298.078205,520.265928 287.169297,524.72168 L310.965195,562 L295.29332,562 L275.127305,528.351562 L261.529648,528.351562 Z M377.758828,562 L369.346719,538.607422 L337.138711,538.607422 L328.899453,562 L314.379922,562 L345.896523,477.417969 L360.876992,477.417969 L392.393594,562 L377.758828,562 Z M365.716836,526.738281 L357.823281,503.806641 C357.247106,502.270175 356.450077,499.850277 355.432168,496.546875 C354.414259,493.243473 353.713257,490.823575 353.32914,489.287109 C352.292026,494.011742 350.774788,499.178032 348.777383,504.786133 L341.171914,526.738281 L365.716836,526.738281 Z M405.833711,562 L405.833711,477.763672 L419.604218,477.763672 L419.604218,550.188477 L455.269258,550.188477 L455.269258,562 L405.833711,562 Z M594.04207,562 L567.134843,562 L559.068437,525.297852 C558.684321,523.761386 558.079346,520.707705 557.253496,516.136719 C556.427645,511.565732 555.822671,507.74383 555.438554,504.670898 C555.131261,507.167656 554.631917,510.26935 553.940507,513.976074 C553.249098,517.682798 552.567301,521.091781 551.895097,524.203125 C551.222893,527.314469 548.428488,539.913301 543.511796,562 L516.60457,562 L495.747148,477.763672 L517.699296,477.763672 L526.860429,519.99707 C528.934658,529.331101 530.355868,536.763644 531.124101,542.294922 C531.623453,538.376934 532.51651,533.057 533.8033,526.334961 C535.090091,519.612922 536.290437,514.043316 537.404375,509.625977 L544.836992,477.763672 L565.924882,477.763672 L573.127031,509.625977 C574.356204,514.734726 575.604564,520.630826 576.872148,527.314453 C578.139732,533.99808 578.984776,538.99152 579.407304,542.294922 C579.906656,538.031229 581.270249,530.637097 583.498125,520.112305 L592.832109,477.763672 L614.784257,477.763672 L594.04207,562 Z M705.661875,519.766602 C705.661875,533.940501 702.185672,544.714807 695.233164,552.089844 C688.280655,559.464881 678.10172,563.152344 664.696054,563.152344 C651.482446,563.152344 641.351526,559.445675 634.302988,552.032227 C627.25445,544.618778 623.730234,533.825266 623.730234,519.651367 C623.730234,505.631115 627.235244,494.924028 634.245371,487.529785 C641.255497,480.135542 651.444034,476.438477 664.811289,476.438477 C678.216955,476.438477 688.376684,480.106734 695.290781,487.443359 C702.204878,494.779985 705.661875,505.554291 705.661875,519.766602 Z M647.698984,519.766602 C647.698984,536.053141 653.364617,544.196289 664.696054,544.196289 C670.457802,544.196289 674.731034,542.218119 677.515878,538.261719 C680.300723,534.305319 681.693125,528.140341 681.693125,519.766602 C681.693125,511.35445 680.281518,505.141459 677.458261,501.127441 C674.635005,497.113424 670.41939,495.106445 664.811289,495.106445 C653.403028,495.106445 647.698984,503.326415 647.698984,519.766602 Z M759.89496,562 L742.667421,501.329102 L742.148867,501.329102 C742.955511,511.661836 743.358828,519.68975 743.358828,525.413086 L743.358828,562 L723.192812,562 L723.192812,477.763672 L753.499453,477.763672 L771.072695,537.570312 L771.533632,537.570312 L788.761171,477.763672 L819.125429,477.763672 L819.125429,562 L798.21039,562 L798.21039,525.067383 C798.21039,523.1468 798.239198,521.014986 798.296816,518.671875 C798.354433,516.328764 798.613708,510.586309 799.074648,501.444336 L798.556093,501.444336 L781.559023,562 L759.89496,562 Z M889.606562,562 L839.594843,562 L839.594843,477.763672 L889.606562,477.763672 L889.606562,496.02832 L862.353632,496.02832 L862.353632,509.280273 L887.58996,509.280273 L887.58996,527.544922 L862.353632,527.544922 L862.353632,543.447266 L889.606562,543.447266 L889.606562,562 Z M986.879687,562 L957.033984,562 L926.266406,502.654297 L925.747851,502.654297 C926.477672,511.988328 926.842577,519.113582 926.842577,524.030273 L926.842577,562 L906.676562,562 L906.676562,477.763672 L936.407031,477.763672 L967.059374,536.302734 L967.405077,536.302734 C966.867314,527.81376 966.598437,520.995794 966.598437,515.848633 L966.598437,477.763672 L986.879687,477.763672 L986.879687,562 Z"/>
    <path d="M7.00659134,8 L7.00659134,728 L1054.99247,728 L1054.99247,8 L7.00659134,8 Z M0,0 L1063,0 L1063,735 L0,735 L0,0 Z"/>
    <path d="M126.358398 183.07959C126.358398 193.095916 123.577665 200.75331 118.016113 206.052002 112.454562 211.350694 104.444388 214 93.9853516 214L77.0102539 214 77.0102539 153.321289 95.7700195 153.321289C105.426643 153.321289 112.938775 155.922175 118.306641 161.124023 123.674506 166.325872 126.358398 173.644321 126.358398 183.07959zM115.899414 183.411621C115.899414 168.885181 109.106676 161.62207 95.5209961 161.62207L86.9296875 161.62207 86.9296875 205.657715 93.9853516 205.657715C108.5948 205.657715 115.899414 198.242424 115.899414 183.411621zM139.390625 214L139.390625 153.321289 149.310059 153.321289 149.310059 214 139.390625 214zM190.149902 181.087402L212.479004 181.087402 212.479004 211.55127C208.826642 212.741054 205.319597 213.584958 201.957764 214.083008 198.59593 214.581057 194.964375 214.830078 191.062988 214.830078 181.876744 214.830078 174.793482 212.111599 169.812988 206.674561 164.832495 201.237522 162.342285 193.566293 162.342285 183.660645 162.342285 173.893343 165.150688 166.249783 170.767578 160.729736 176.384468 155.209689 184.117952 152.449707 193.968262 152.449707 200.304556 152.449707 206.308728 153.667143 211.980957 156.102051L208.494629 164.361328C203.569474 162.092437 198.644393 160.958008 193.719238 160.958008 187.244597 160.958008 182.125833 162.991679 178.362793 167.059082 174.599753 171.126485 172.718262 176.687953 172.718262 183.743652 172.718262 191.159054 174.412988 196.796612 177.80249 200.656494 181.191993 204.516377 186.068653 206.446289 192.432617 206.446289 195.642269 206.446289 199.073224 206.045089 202.725586 205.242676L202.725586 189.595703 190.149902 189.595703 190.149902 181.087402zM227.046875 214L227.046875 153.321289 236.966309 153.321289 236.966309 214 227.046875 214zM273.946289 214L264.026855 214 264.026855 161.82959 246.180176 161.82959 246.180176 153.321289 291.792969 153.321289 291.792969 161.82959 273.946289 161.82959 273.946289 214zM338.733887 214L332.674316 197.149414 309.473633 197.149414 303.538574 214 293.07959 214 315.782227 153.072266 326.573242 153.072266 349.275879 214 338.733887 214zM330.05957 188.599609L324.373535 172.081055C323.958494 170.974278 323.384362 169.231132 322.651123 166.851562 321.917884 164.471993 321.412925 162.728847 321.13623 161.62207 320.389156 165.025408 319.296231 168.746887 317.857422 172.786621L312.378906 188.599609 330.05957 188.599609zM357.286133 214L357.286133 153.321289 367.205566 153.321289 367.205566 205.491699 392.896484 205.491699 392.896484 214 357.286133 214zM423.98291 214L423.98291 153.321289 440.459961 153.321289 440.459961 214 423.98291 214zM511.348633 214L489.849609 214 467.686523 171.250977 467.312988 171.250977C467.838707 177.974643 468.101562 183.107241 468.101562 186.648926L468.101562 214 453.575195 214 453.575195 153.321289 474.991211 153.321289 497.071289 195.489258 497.320312 195.489258C496.932941 189.374318 496.739258 184.463072 496.739258 180.755371L496.739258 153.321289 511.348633 153.321289 511.348633 214zM582.237305 214L560.738281 214 538.575195 171.250977 538.20166 171.250977C538.727379 177.974643 538.990234 183.107241 538.990234 186.648926L538.990234 214 524.463867 214 524.463867 153.321289 545.879883 153.321289 567.959961 195.489258 568.208984 195.489258C567.821613 189.374318 567.62793 184.463072 567.62793 180.755371L567.62793 153.321289 582.237305 153.321289 582.237305 214zM652.129883 183.577637C652.129883 193.787649 649.625839 201.548802 644.617676 206.861328 639.609513 212.173855 632.277229 214.830078 622.620605 214.830078 613.102329 214.830078 605.804632 212.16002 600.727295 206.819824 595.649958 201.479628 593.111328 193.704641 593.111328 183.494629 593.111328 173.395295 595.636124 165.682562 600.685791 160.356201 605.735458 155.02984 613.074659 152.366699 622.703613 152.366699 632.360237 152.366699 639.678686 155.009088 644.65918 160.293945 649.639673 165.578802 652.129883 173.339955 652.129883 183.577637zM610.376953 183.577637C610.376953 195.309466 614.45813 201.175293 622.620605 201.175293 626.771017 201.175293 629.849192 199.75034 631.855225 196.900391 633.861257 194.050441 634.864258 189.609568 634.864258 183.577637 634.864258 177.518036 633.847422 173.042576 631.813721 170.151123 629.780019 167.25967 626.743347 165.813965 622.703613 165.813965 614.485799 165.813965 610.376953 171.73513 610.376953 183.577637zM697.161621 153.321289L715.506348 153.321289 695.625977 214 676.32666 214 656.529297 153.321289 674.957031 153.321289 683.216309 184.075684C684.931812 190.910028 685.872558 195.669095 686.038574 198.353027 686.23226 196.416169 686.619626 193.995132 687.200684 191.089844 687.781741 188.184556 688.293618 185.901864 688.736328 184.241699L697.161621 153.321289zM759.292969 214L756.304688 202.62793 736.590332 202.62793 733.519043 214 715.506348 214 735.303711 153.072266 757.17627 153.072266 777.222656 214 759.292969 214zM752.901367 189.180664L750.286621 179.219727C749.677894 177.006174 748.937748 174.142433 748.066162 170.628418 747.194576 167.114403 746.620444 164.596525 746.34375 163.074707 746.094725 164.485847 745.603601 166.810042 744.870361 170.047363 744.137122 173.284684 742.511569 179.662387 739.993652 189.180664L752.901367 189.180664zM810.550293 214L794.15625 214 794.15625 166.727051 779.339355 166.727051 779.339355 153.321289 825.325684 153.321289 825.325684 166.727051 810.550293 166.727051 810.550293 214zM834 214L834 153.321289 850.477051 153.321289 850.477051 214 834 214zM920.369629 183.577637C920.369629 193.787649 917.865585 201.548802 912.857422 206.861328 907.849259 212.173855 900.516975 214.830078 890.860352 214.830078 881.342075 214.830078 874.044378 212.16002 868.967041 206.819824 863.889704 201.479628 861.351074 193.704641 861.351074 183.494629 861.351074 173.395295 863.87587 165.682562 868.925537 160.356201 873.975204 155.02984 881.314405 152.366699 890.943359 152.366699 900.599983 152.366699 907.918432 155.009088 912.898926 160.293945 917.879419 165.578802 920.369629 173.339955 920.369629 183.577637zM878.616699 183.577637C878.616699 195.309466 882.697876 201.175293 890.860352 201.175293 895.010763 201.175293 898.088939 199.75034 900.094971 196.900391 902.101003 194.050441 903.104004 189.609568 903.104004 183.577637 903.104004 177.518036 902.087168 173.042576 900.053467 170.151123 898.019765 167.25967 894.983093 165.813965 890.943359 165.813965 882.725545 165.813965 878.616699 171.73513 878.616699 183.577637zM989.100098 214L967.601074 214 945.437988 171.250977 945.064453 171.250977C945.590172 177.974643 945.853027 183.107241 945.853027 186.648926L945.853027 214 931.32666 214 931.32666 153.321289 952.742676 153.321289 974.822754 195.489258 975.071777 195.489258C974.684406 189.374318 974.490723 184.463072 974.490723 180.755371L974.490723 153.321289 989.100098 153.321289 989.100098 214zM102.787109 384L94.4863281 384 94.4863281 319.986328 71.8789062 319.986328 71.8789062 312.613281 125.394531 312.613281 125.394531 319.986328 102.787109 319.986328 102.787109 384zM226.097656 348.208984C226.097656 359.634823 223.208688 368.619108 217.430664 375.162109 211.65264 381.705111 203.620494 384.976562 193.333984 384.976562 182.819609 384.976562 174.706083 381.762076 168.993164 375.333008 163.280245 368.903939 160.423828 359.830137 160.423828 348.111328 160.423828 336.490176 163.288383 327.481477 169.017578 321.084961 174.746773 314.688445 182.884713 311.490234 193.431641 311.490234 203.685598 311.490234 211.693331 314.74541 217.455078 321.255859 223.216826 327.766309 226.097656 336.750594 226.097656 348.208984zM169.212891 348.208984C169.212891 357.877001 171.271789 365.209285 175.389648 370.206055 179.507508 375.202824 185.488893 377.701172 193.333984 377.701172 201.24418 377.701172 207.217428 375.210962 211.253906 370.230469 215.290385 365.249975 217.308594 357.909554 217.308594 348.208984 217.308594 338.606072 215.298523 331.322616 211.27832 326.358398 207.258118 321.394181 201.309284 318.912109 193.431641 318.912109 185.521445 318.912109 179.507508 321.410457 175.389648 326.407227 171.271789 331.403996 169.212891 338.671176 169.212891 348.208984zM368.275391 384L327.162109 384 327.162109 312.613281 368.275391 312.613281 368.275391 325.015625 342.298828 325.015625 342.298828 340.689453 366.46875 340.689453 366.46875 353.091797 342.298828 353.091797 342.298828 371.5 368.275391 371.5 368.275391 384zM440.392578 384L423.205078 327.994141 422.765625 327.994141C423.384118 339.387427 423.693359 346.988262 423.693359 350.796875L423.693359 384 410.167969 384 410.167969 312.613281 430.773438 312.613281 447.667969 367.203125 447.960938 367.203125 465.880859 312.613281 486.486328 312.613281 486.486328 384 472.375 384 472.375 350.210938C472.375 348.615877 472.399414 346.776703 472.448242 344.693359 472.497071 342.610016 472.716795 337.076217 473.107422 328.091797L472.667969 328.091797 454.259766 384 440.392578 384zM546.591797 346.207031L551.572266 346.207031C556.227237 346.207031 559.710275 345.287444 562.021484 343.448242 564.332694 341.60904 565.488281 338.931658 565.488281 335.416016 565.488281 331.867821 564.519866 329.247404 562.583008 327.554688 560.646149 325.861971 557.610698 325.015625 553.476562 325.015625L546.591797 325.015625 546.591797 346.207031zM580.771484 334.878906C580.771484 342.561236 578.370792 348.436829 573.569336 352.505859 568.76788 356.57489 561.940148 358.609375 553.085938 358.609375L546.591797 358.609375 546.591797 384 531.455078 384 531.455078 312.613281 554.257812 312.613281C562.91671 312.613281 569.500303 314.476869 574.008789 318.204102 578.517275 321.931334 580.771484 327.489546 580.771484 334.878906zM686.042969 348.208984C686.042969 360.02545 683.113311 369.10739 677.253906 375.455078 671.394502 381.802766 662.996148 384.976562 652.058594 384.976562 641.121039 384.976562 632.722686 381.802766 626.863281 375.455078 621.003877 369.10739 618.074219 359.992898 618.074219 348.111328 618.074219 336.229758 621.012015 327.155956 626.887695 320.889648 632.763376 314.623341 641.186143 311.490234 652.15625 311.490234 663.126357 311.490234 671.516573 314.647755 677.327148 320.962891 683.137724 327.278026 686.042969 336.359967 686.042969 348.208984zM633.943359 348.208984C633.943359 356.184285 635.457016 362.190084 638.484375 366.226562 641.511734 370.263041 646.036428 372.28125 652.058594 372.28125 664.135477 372.28125 670.173828 364.257242 670.173828 348.208984 670.173828 332.128175 664.168029 324.087891 652.15625 324.087891 646.134084 324.087891 641.593114 326.114238 638.533203 330.166992 635.473292 334.219747 633.943359 340.233684 633.943359 348.208984zM796.392578 384L779.15625 384 769.488281 346.5C769.130207 345.165358 768.519861 342.406596 767.657227 338.223633 766.794592 334.040669 766.298178 331.23308 766.167969 329.800781 765.972655 331.558603 765.484379 334.382468 764.703125 338.272461 763.921871 342.162454 763.319664 344.937492 762.896484 346.597656L753.277344 384 736.089844 384 717.876953 312.613281 732.769531 312.613281 741.900391 351.578125C743.495451 358.772171 744.651038 365.005833 745.367188 370.279297 745.562501 368.423819 746.010088 365.551126 746.709961 361.661133 747.409834 357.771139 748.069007 354.751964 748.6875 352.603516L759.087891 312.613281 773.394531 312.613281 783.794922 352.603516C784.250653 354.393889 784.820309 357.128237 785.503906 360.806641 786.187503 364.485044 786.708332 367.642565 787.066406 370.279297 787.391929 367.740222 787.912757 364.574563 788.628906 360.782227 789.345056 356.98989 789.996091 353.921887 790.582031 351.578125L799.664062 312.613281 814.556641 312.613281 796.392578 384zM891.654297 384L850.541016 384 850.541016 312.613281 891.654297 312.613281 891.654297 325.015625 865.677734 325.015625 865.677734 340.689453 889.847656 340.689453 889.847656 353.091797 865.677734 353.091797 865.677734 371.5 891.654297 371.5 891.654297 384zM948.683594 344.302734L953.566406 344.302734C958.351586 344.302734 961.883452 343.505216 964.162109 341.910156 966.440767 340.315096 967.580078 337.808611 967.580078 334.390625 967.580078 331.005191 966.416353 328.596361 964.088867 327.164062 961.761382 325.731764 958.156274 325.015625 953.273438 325.015625L948.683594 325.015625 948.683594 344.302734zM948.683594 356.607422L948.683594 384 933.546875 384 933.546875 312.613281 954.347656 312.613281C964.048226 312.613281 971.225888 314.379214 975.880859 317.911133 980.535831 321.443052 982.863281 326.805954 982.863281 334 982.863281 338.19924 981.707694 341.934554 979.396484 345.206055 977.085275 348.477555 973.813823 351.041006 969.582031 352.896484 980.324272 368.944742 987.3229 379.312477 990.578125 384L973.78125 384 956.740234 356.607422 948.683594 356.607422z"/>
  </g>
</svg>
