<?xml version="1.0" encoding="UTF-8"?>
<svg width="1063px" height="817px" viewBox="0 0 1063 817" version="1.1" xmlns="http://www.w3.org/2000/svg" xmlns:xlink="http://www.w3.org/1999/xlink">
    <!-- Generator: Sketch 55.2 (78181) - https://sketchapp.com -->
    <title>Group</title>
    <desc>Created with Sketch.</desc>
    <defs>
        <path d="M169.6875,391 L160.800781,368.294922 L132.1875,368.294922 L123.398438,391 L115,391 L143.222656,319.320312 L150.205078,319.320312 L178.28125,391 L169.6875,391 Z M158.212891,360.824219 L149.912109,338.705078 C148.837885,335.905585 147.731125,332.471375 146.591797,328.402344 C145.875647,331.527359 144.850267,334.96157 143.515625,338.705078 L135.117188,360.824219 L158.212891,360.824219 Z M261.472266,391 L261.472266,319.613281 L269.773047,319.613281 L269.773047,383.480469 L301.267187,383.480469 L301.267187,391 L261.472266,391 Z M376.871484,391 L337.076563,391 L337.076563,319.613281 L376.871484,319.613281 L376.871484,326.986328 L345.377344,326.986328 L345.377344,349.984375 L374.967188,349.984375 L374.967188,357.308594 L345.377344,357.308594 L345.377344,383.578125 L376.871484,383.578125 L376.871484,391 Z M447.788281,353.597656 L472.055859,353.597656 L472.055859,388.314453 C468.279799,389.518886 464.438691,390.430335 460.532422,391.048828 C456.626152,391.667321 452.101458,391.976562 446.958203,391.976562 C436.150857,391.976562 427.736228,388.762076 421.714063,382.333008 C415.691897,375.903939 412.680859,366.89524 412.680859,355.306641 C412.680859,347.884729 414.170102,341.382515 417.148633,335.799805 C420.127163,330.217094 424.415857,325.952814 430.014844,323.006836 C435.61383,320.060858 442.173009,318.587891 449.692578,318.587891 C457.309804,318.587891 464.406087,319.987616 470.981641,322.787109 L467.758984,330.111328 C461.31364,327.376939 455.11253,326.009766 449.155469,326.009766 C440.464019,326.009766 433.676978,328.59763 428.794141,333.773438 C423.911304,338.949245 421.469922,346.126907 421.469922,355.306641 C421.469922,364.942105 423.821786,372.249975 428.525586,377.230469 C433.229385,382.210962 440.138496,384.701172 449.253125,384.701172 C454.201066,384.701172 459.035002,384.131516 463.755078,382.992188 L463.755078,361.019531 L447.788281,361.019531 L447.788281,353.597656 Z M557.767578,391 L548.880859,368.294922 L520.267578,368.294922 L511.478516,391 L503.080078,391 L531.302734,319.320312 L538.285156,319.320312 L566.361328,391 L557.767578,391 Z M546.292969,360.824219 L537.992188,338.705078 C536.917963,335.905585 535.811204,332.471375 534.671875,328.402344 C533.955726,331.527359 532.930345,334.96157 531.595703,338.705078 L523.197266,360.824219 L546.292969,360.824219 Z M628.440234,326.009766 C620.595143,326.009766 614.402171,328.622044 609.861133,333.84668 C605.320094,339.071315 603.049609,346.224564 603.049609,355.306641 C603.049609,364.649135 605.238715,371.867488 609.616992,376.961914 C613.995269,382.056341 620.237069,384.603516 628.342578,384.603516 C633.323072,384.603516 639.003354,383.708342 645.383594,381.917969 L645.383594,389.193359 C640.435652,391.048837 634.332198,391.976562 627.073047,391.976562 C616.558671,391.976562 608.445146,388.78649 602.732227,382.40625 C597.019307,376.02601 594.162891,366.960345 594.162891,355.208984 C594.162891,347.852177 595.538202,341.406929 598.288867,335.873047 C601.039532,330.339165 605.010846,326.074885 610.20293,323.080078 C615.395013,320.085271 621.506605,318.587891 628.537891,318.587891 C636.024907,318.587891 642.567811,319.955064 648.166797,322.689453 L644.651172,329.818359 C639.247499,327.279284 633.843907,326.009766 628.440234,326.009766 Z M702.823828,355.306641 L721.866797,319.613281 L730.851172,319.613281 L707.023047,363.314453 L707.023047,391 L698.624609,391 L698.624609,363.705078 L674.845312,319.613281 L683.927344,319.613281 L702.823828,355.306641 Z M876.005078,355.208984 C876.005078,366.634823 873.11611,375.619108 867.338086,382.162109 C861.560062,388.705111 853.527916,391.976562 843.241406,391.976562 C832.727031,391.976562 824.613505,388.762076 818.900586,382.333008 C813.187667,375.903939 810.33125,366.830137 810.33125,355.111328 C810.33125,343.490176 813.195805,334.481477 818.925,328.084961 C824.654195,321.688445 832.792135,318.490234 843.339063,318.490234 C853.59302,318.490234 861.600752,321.74541 867.3625,328.255859 C873.124248,334.766309 876.005078,343.750594 876.005078,355.208984 Z M819.120313,355.208984 C819.120313,364.877001 821.179211,372.209285 825.29707,377.206055 C829.414929,382.202824 835.396315,384.701172 843.241406,384.701172 C851.151602,384.701172 857.12485,382.210962 861.161328,377.230469 C865.197807,372.249975 867.216016,364.909554 867.216016,355.208984 C867.216016,345.606072 865.205945,338.322616 861.185742,333.358398 C857.16554,328.394181 851.216706,325.912109 843.339063,325.912109 C835.428867,325.912109 829.414929,328.410457 825.29707,333.407227 C821.179211,338.403996 819.120313,345.671176 819.120313,355.208984 Z M923.923828,391 L915.623047,391 L915.623047,319.613281 L955.417969,319.613281 L955.417969,326.986328 L923.923828,326.986328 L923.923828,353.109375 L953.513672,353.109375 L953.513672,360.482422 L923.923828,360.482422 L923.923828,391 Z" id="path-1"></path>
        <path d="M143.673828,692 L133.170898,692 L133.170898,636.760742 L114.274414,636.760742 L114.274414,627.751953 L162.570312,627.751953 L162.570312,636.760742 L143.673828,636.760742 L143.673828,692 Z M184.916992,657.634766 L192.211914,657.634766 C197.104517,657.634766 200.649403,656.726572 202.84668,654.910156 C205.043956,653.093741 206.142578,650.398455 206.142578,646.824219 C206.142578,643.191388 204.956067,640.583992 202.583008,639.001953 C200.209949,637.419914 196.635766,636.628906 191.860352,636.628906 L184.916992,636.628906 L184.916992,657.634766 Z M184.916992,666.335938 L184.916992,692 L174.414062,692 L174.414062,627.751953 L192.563477,627.751953 C200.854534,627.751953 206.992168,629.304672 210.976562,632.410156 C214.960957,635.515641 216.953125,640.203094 216.953125,646.472656 C216.953125,654.470743 212.79301,660.168928 204.472656,663.567383 L222.62207,692 L210.668945,692 L195.288086,666.335938 L184.916992,666.335938 Z M273.796875,692 L267.380859,674.158203 L242.81543,674.158203 L236.53125,692 L225.457031,692 L249.495117,627.488281 L260.920898,627.488281 L284.958984,692 L273.796875,692 Z M264.612305,665.105469 L258.591797,647.615234 C258.152342,646.443354 257.544437,644.597669 256.768066,642.078125 C255.991695,639.558581 255.457033,637.712896 255.164062,636.541016 C254.373043,640.144549 253.215828,644.08494 251.692383,648.362305 L245.891602,665.105469 L264.612305,665.105469 Z M348.96582,692 L336.089844,692 L304.493164,640.803711 L304.141602,640.803711 L304.361328,643.660156 C304.771486,649.109402 304.976562,654.089821 304.976562,658.601562 L304.976562,692 L295.44043,692 L295.44043,627.751953 L308.18457,627.751953 L339.693359,678.68457 L339.957031,678.68457 C339.898437,678.010739 339.781251,675.55715 339.605469,671.32373 C339.429687,667.090311 339.341797,663.787121 339.341797,661.414062 L339.341797,627.751953 L348.96582,627.751953 L348.96582,692 Z M404.974609,674.553711 C404.974609,680.26663 402.9092,684.749007 398.77832,688.000977 C394.64744,691.252946 388.949255,692.878906 381.683594,692.878906 C374.417932,692.878906 368.470726,691.750988 363.841797,689.495117 L363.841797,679.563477 C366.771499,680.940437 369.884261,682.02441 373.180176,682.81543 C376.476091,683.606449 379.544908,684.001953 382.386719,684.001953 C386.546896,684.001953 389.615713,683.210945 391.593262,681.628906 C393.570811,680.046867 394.55957,677.922865 394.55957,675.256836 C394.55957,672.85448 393.651376,670.818368 391.834961,669.148438 C390.018546,667.478507 386.268583,665.500988 380.584961,663.21582 C374.725557,660.842762 370.594739,658.132828 368.192383,655.085938 C365.790027,652.039047 364.588867,648.376975 364.588867,644.099609 C364.588867,638.738254 366.493145,634.519547 370.301758,631.443359 C374.110371,628.367172 379.222624,626.829102 385.638672,626.829102 C391.791046,626.829102 397.914032,628.176744 404.007812,630.87207 L400.667969,639.441406 C394.95505,637.03905 389.857444,635.837891 385.375,635.837891 C381.976546,635.837891 379.398446,636.577629 377.640625,638.057129 C375.882804,639.536628 375.003906,641.492175 375.003906,643.923828 C375.003906,645.593758 375.355465,647.021967 376.058594,648.208496 C376.761722,649.395025 377.918937,650.51562 379.530273,651.570312 C381.14161,652.625005 384.041971,654.016593 388.231445,655.745117 C392.948266,657.708018 396.405262,659.539054 398.602539,661.238281 C400.799816,662.937508 402.411128,664.856435 403.436523,666.995117 C404.461919,669.1338 404.974609,671.653306 404.974609,674.553711 Z M429.826172,692 L419.411133,692 L419.411133,627.751953 L455.666016,627.751953 L455.666016,636.628906 L429.826172,636.628906 L429.826172,656.711914 L454.040039,656.711914 L454.040039,665.632812 L429.826172,665.632812 L429.826172,692 Z M526.352539,659.788086 C526.352539,670.247123 523.737819,678.376924 518.508301,684.177734 C513.278782,689.978545 505.874071,692.878906 496.293945,692.878906 C486.596631,692.878906 479.147975,690.000517 473.947754,684.243652 C468.747533,678.486788 466.147461,670.305717 466.147461,659.700195 C466.147461,649.094674 468.762181,640.950224 473.991699,635.266602 C479.221218,629.582979 486.684522,626.741211 496.381836,626.741211 C505.932665,626.741211 513.315404,629.626924 518.530273,635.398438 C523.745143,641.169951 526.352539,649.299752 526.352539,659.788086 Z M477.30957,659.788086 C477.30957,667.698282 478.906234,673.696757 482.099609,677.783691 C485.292985,681.870626 490.024383,683.914062 496.293945,683.914062 C502.534211,683.914062 507.243636,681.892598 510.422363,677.849609 C513.60109,673.80662 515.19043,667.786173 515.19043,659.788086 C515.19043,651.907187 513.615738,645.930684 510.466309,641.858398 C507.316879,637.786112 502.622102,635.75 496.381836,635.75 C490.082976,635.75 485.329606,637.786112 482.121582,641.858398 C478.913558,645.930684 477.30957,651.907187 477.30957,659.788086 Z M552.654297,657.634766 L559.949219,657.634766 C564.841821,657.634766 568.386708,656.726572 570.583984,654.910156 C572.781261,653.093741 573.879883,650.398455 573.879883,646.824219 C573.879883,643.191388 572.693371,640.583992 570.320312,639.001953 C567.947254,637.419914 564.373071,636.628906 559.597656,636.628906 L552.654297,636.628906 L552.654297,657.634766 Z M552.654297,666.335938 L552.654297,692 L542.151367,692 L542.151367,627.751953 L560.300781,627.751953 C568.591838,627.751953 574.729472,629.304672 578.713867,632.410156 C582.698262,635.515641 584.69043,640.203094 584.69043,646.472656 C584.69043,654.470743 580.530315,660.168928 572.209961,663.567383 L590.359375,692 L578.40625,692 L563.025391,666.335938 L552.654297,666.335938 Z M629.449219,692 L610.816406,638.342773 L610.464844,638.342773 C610.962893,646.311563 611.211914,653.782192 611.211914,660.754883 L611.211914,692 L601.675781,692 L601.675781,627.751953 L616.485352,627.751953 L634.327148,678.860352 L634.59082,678.860352 L652.959961,627.751953 L667.813477,627.751953 L667.813477,692 L657.706055,692 L657.706055,660.227539 C657.706055,657.034164 657.78662,652.874049 657.947754,647.74707 C658.108888,642.620092 658.248046,639.514654 658.365234,638.430664 L658.013672,638.430664 L638.72168,692 L629.449219,692 Z M726.59082,692 L720.174805,674.158203 L695.609375,674.158203 L689.325195,692 L678.250977,692 L702.289062,627.488281 L713.714844,627.488281 L737.75293,692 L726.59082,692 Z M717.40625,665.105469 L711.385742,647.615234 C710.946287,646.443354 710.338383,644.597669 709.562012,642.078125 C708.785641,639.558581 708.250978,637.712896 707.958008,636.541016 C707.166988,640.144549 706.009773,644.08494 704.486328,648.362305 L698.685547,665.105469 L717.40625,665.105469 Z M764.142578,692 L753.639648,692 L753.639648,636.760742 L734.743164,636.760742 L734.743164,627.751953 L783.039062,627.751953 L783.039062,636.760742 L764.142578,636.760742 L764.142578,692 Z M794.882812,692 L794.882812,627.751953 L805.385742,627.751953 L805.385742,692 L794.882812,692 Z M881.389648,659.788086 C881.389648,670.247123 878.774928,678.376924 873.54541,684.177734 C868.315892,689.978545 860.911181,692.878906 851.331055,692.878906 C841.633741,692.878906 834.185085,690.000517 828.984863,684.243652 C823.784642,678.486788 821.18457,670.305717 821.18457,659.700195 C821.18457,649.094674 823.79929,640.950224 829.028809,635.266602 C834.258327,629.582979 841.721631,626.741211 851.418945,626.741211 C860.969774,626.741211 868.352513,629.626924 873.567383,635.398438 C878.782253,641.169951 881.389648,649.299752 881.389648,659.788086 Z M832.34668,659.788086 C832.34668,667.698282 833.943343,673.696757 837.136719,677.783691 C840.330094,681.870626 845.061492,683.914062 851.331055,683.914062 C857.57132,683.914062 862.280746,681.892598 865.459473,677.849609 C868.638199,673.80662 870.227539,667.786173 870.227539,659.788086 C870.227539,651.907187 868.652848,645.930684 865.503418,641.858398 C862.353988,637.786112 857.659211,635.75 851.418945,635.75 C845.120086,635.75 840.366715,637.786112 837.158691,641.858398 C833.950668,645.930684 832.34668,651.907187 832.34668,659.788086 Z M950.713867,692 L937.837891,692 L906.241211,640.803711 L905.889648,640.803711 L906.109375,643.660156 C906.519533,649.109402 906.724609,654.089821 906.724609,658.601562 L906.724609,692 L897.188477,692 L897.188477,627.751953 L909.932617,627.751953 L941.441406,678.68457 L941.705078,678.68457 C941.646484,678.010739 941.529298,675.55715 941.353516,671.32373 C941.177733,667.090311 941.089844,663.787121 941.089844,661.414062 L941.089844,627.751953 L950.713867,627.751953 L950.713867,692 Z" id="path-2"></path>
        <path d="M173.954102,543 L168.260742,524.308594 L139.632812,524.308594 L133.939453,543 L116,543 L143.714844,464.152344 L164.071289,464.152344 L191.893555,543 L173.954102,543 Z M164.286133,510.34375 C159.022435,493.406816 156.059411,483.828462 155.396973,481.608398 C154.734534,479.388335 154.260093,477.633796 153.973633,476.344727 C152.791986,480.928083 149.408231,492.260977 143.822266,510.34375 L164.286133,510.34375 Z M230.383789,498.90332 L261.536133,498.90332 L261.536133,539.616211 C256.487279,541.263355 251.733909,542.418128 247.275879,543.080566 C242.817849,543.743005 238.261417,544.074219 233.606445,544.074219 C221.754173,544.074219 212.70397,540.591994 206.455566,533.627441 C200.207163,526.662888 197.083008,516.663802 197.083008,503.629883 C197.083008,490.954038 200.70846,481.071325 207.959473,473.981445 C215.210485,466.891566 225.263282,463.34668 238.118164,463.34668 C246.174845,463.34668 253.94495,464.957992 261.428711,468.180664 L255.896484,481.500977 C250.167289,478.636379 244.205435,477.204102 238.010742,477.204102 C230.813441,477.204102 225.048524,479.62107 220.71582,484.455078 C216.383116,489.289087 214.216797,495.788045 214.216797,503.952148 C214.216797,512.474326 215.962385,518.982237 219.453613,523.476074 C222.944842,527.969912 228.020475,530.216797 234.680664,530.216797 C238.153989,530.216797 241.680972,529.858728 245.261719,529.142578 L245.261719,512.760742 L230.383789,512.760742 L230.383789,498.90332 Z M297.87793,499.333008 L303.249023,499.333008 C308.512722,499.333008 312.397774,498.455738 314.904297,496.701172 C317.41082,494.946606 318.664062,492.189472 318.664062,488.429688 C318.664062,484.705711 317.383965,482.055997 314.82373,480.480469 C312.263496,478.90494 308.297878,478.117188 302.926758,478.117188 L297.87793,478.117188 L297.87793,499.333008 Z M297.87793,512.868164 L297.87793,543 L281.227539,543 L281.227539,464.474609 L304.108398,464.474609 C314.779025,464.474609 322.674454,466.417136 327.794922,470.302246 C332.91539,474.187357 335.475586,480.086549 335.475586,488 C335.475586,492.619164 334.20444,496.728009 331.662109,500.32666 C329.119779,503.925311 325.521182,506.745107 320.866211,508.786133 C332.682676,526.439216 340.381167,537.843724 343.961914,543 L325.485352,543 L306.740234,512.868164 L297.87793,512.868164 Z M354.844727,543 L354.844727,464.474609 L371.495117,464.474609 L371.495117,543 L354.844727,543 Z M425.615234,477.204102 C419.348927,477.204102 414.497088,479.558407 411.05957,484.26709 C407.622053,488.975772 405.90332,495.537393 405.90332,503.952148 C405.90332,521.462002 412.473893,530.216797 425.615234,530.216797 C431.129585,530.216797 437.807578,528.83823 445.649414,526.081055 L445.649414,540.045898 C439.204069,542.731459 432.006876,544.074219 424.057617,544.074219 C412.635034,544.074219 403.898142,540.609898 397.84668,533.681152 C391.795217,526.752407 388.769531,516.807031 388.769531,503.844727 C388.769531,495.680623 390.255519,488.528188 393.227539,482.387207 C396.199559,476.246226 400.469536,471.537614 406.037598,468.26123 C411.605659,464.984847 418.131473,463.34668 425.615234,463.34668 C433.242226,463.34668 440.904909,465.190737 448.603516,468.878906 L443.232422,482.414062 C440.296209,481.017571 437.342137,479.800135 434.370117,478.761719 C431.398097,477.723302 428.479832,477.204102 425.615234,477.204102 Z M527.269531,464.474609 L527.269531,515.285156 C527.269531,521.085967 525.97153,526.170551 523.375488,530.539062 C520.779447,534.907574 517.02867,538.255522 512.123047,540.583008 C507.217423,542.910493 501.4167,544.074219 494.720703,544.074219 C484.622996,544.074219 476.781278,541.487168 471.195312,536.312988 C465.609347,531.138809 462.816406,524.057988 462.816406,515.070312 L462.816406,464.474609 L479.413086,464.474609 L479.413086,512.545898 C479.413086,518.597361 480.630522,523.037421 483.06543,525.866211 C485.500338,528.695001 489.528618,530.109375 495.150391,530.109375 C500.593126,530.109375 504.540841,528.686049 506.993652,525.839355 C509.446464,522.992662 510.672852,518.525747 510.672852,512.438477 L510.672852,464.474609 L527.269531,464.474609 Z M547.498047,543 L547.498047,464.474609 L564.148438,464.474609 L564.148438,529.25 L595.999023,529.25 L595.999023,543 L547.498047,543 Z M638.732422,543 L622.082031,543 L622.082031,478.332031 L600.758789,478.332031 L600.758789,464.474609 L660.055664,464.474609 L660.055664,478.332031 L638.732422,478.332031 L638.732422,543 Z M737.056641,464.474609 L737.056641,515.285156 C737.056641,521.085967 735.758639,526.170551 733.162598,530.539062 C730.566556,534.907574 726.81578,538.255522 721.910156,540.583008 C717.004533,542.910493 711.20381,544.074219 704.507812,544.074219 C694.410106,544.074219 686.568387,541.487168 680.982422,536.312988 C675.396456,531.138809 672.603516,524.057988 672.603516,515.070312 L672.603516,464.474609 L689.200195,464.474609 L689.200195,512.545898 C689.200195,518.597361 690.417631,523.037421 692.852539,525.866211 C695.287447,528.695001 699.315727,530.109375 704.9375,530.109375 C710.380236,530.109375 714.32795,528.686049 716.780762,525.839355 C719.233573,522.992662 720.459961,518.525747 720.459961,512.438477 L720.459961,464.474609 L737.056641,464.474609 Z M773.935547,499.333008 L779.306641,499.333008 C784.570339,499.333008 788.455391,498.455738 790.961914,496.701172 C793.468437,494.946606 794.72168,492.189472 794.72168,488.429688 C794.72168,484.705711 793.441582,482.055997 790.881348,480.480469 C788.321114,478.90494 784.355496,478.117188 778.984375,478.117188 L773.935547,478.117188 L773.935547,499.333008 Z M773.935547,512.868164 L773.935547,543 L757.285156,543 L757.285156,464.474609 L780.166016,464.474609 C790.836642,464.474609 798.732071,466.417136 803.852539,470.302246 C808.973007,474.187357 811.533203,480.086549 811.533203,488 C811.533203,492.619164 810.262057,496.728009 807.719727,500.32666 C805.177396,503.925311 801.578799,506.745107 796.923828,508.786133 C808.740293,526.439216 816.438784,537.843724 820.019531,543 L801.542969,543 L782.797852,512.868164 L773.935547,512.868164 Z M878.973633,543 L873.280273,524.308594 L844.652344,524.308594 L838.958984,543 L821.019531,543 L848.734375,464.152344 L869.09082,464.152344 L896.913086,543 L878.973633,543 Z M869.305664,510.34375 C864.041966,493.406816 861.078942,483.828462 860.416504,481.608398 C859.754066,479.388335 859.279624,477.633796 858.993164,476.344727 C857.811518,480.928083 854.427762,492.260977 848.841797,510.34375 L869.305664,510.34375 Z M907.795898,543 L907.795898,464.474609 L924.446289,464.474609 L924.446289,529.25 L956.296875,529.25 L956.296875,543 L907.795898,543 Z" id="path-3"></path>
    </defs>
    <g id="Page-1" stroke="none" stroke-width="1" fill="none" fill-rule="evenodd">
        <g id="Group" fill="#FFFFFF" fill-rule="nonzero">
            <path d="M7.00659134,8.89251701 L7.00659134,809.219048 L1054.99247,809.219048 L1054.99247,8.89251701 L7.00659134,8.89251701 Z M0,0 L1063,0 L1063,817 L0,817 L0,0 Z" id="Rectangle"></path>
            <path d="M544.070064,109.246635 C546.726744,109.473844 549.351626,109.981663 551.900436,110.761527 C553.917868,111.442377 554.653034,111.953015 554.07174,112.29344 C551.821601,113.521494 549.903436,115.273495 548.481059,117.399818 C547.181629,119.38553 546.038426,121.468336 545.061683,123.6296 C544.121354,125.757257 543.181026,127.799808 542.2236,129.774275 C541.309921,131.697813 539.964553,133.386643 538.291317,134.71044 C537.07701,135.652966 535.661464,136.305197 534.153872,136.616821 C532.698999,136.92107 531.208939,137.024169 529.725779,136.923204 C528.278803,136.821837 526.846349,136.57084 525.451559,136.174268 C524.226779,135.820614 523.022478,135.40012 521.844117,134.914695 C519.979383,137.51201 518.370532,140.282271 517.039893,143.187028 C516.697955,143.970006 516.01408,144.072133 515.005364,143.510432 C513.996648,142.94873 513.620516,142.335965 513.876969,141.689157 C515.52445,137.511412 518.034887,133.724718 521.245726,130.574274 C524.191968,127.611255 527.427921,124.948412 530.905464,122.625345 C534.719191,120.191318 538.721042,118.062644 542.873282,116.259394 C539.750177,116.347967 536.649696,116.816699 533.640965,117.655137 C530.653577,118.623606 527.785854,119.925504 525.092524,121.535985 C521.767611,123.579331 518.86599,126.237015 516.544083,129.365764 C516.544083,128.582786 516.441502,127.510447 516.424405,126.148746 C516.438902,124.645516 516.657442,123.151136 517.074086,121.706197 C517.58265,119.998141 518.343211,118.374757 519.330875,116.889181 C520.546827,115.114924 522.133049,113.622806 523.981227,112.514717 C526.905053,110.677874 530.229997,109.568624 533.675159,109.280677 C537.12999,108.918185 540.612912,108.906779 544.070064,109.246635 Z M446.104928,169.246577 C444.342433,169.148891 442.602692,169.679972 441.198123,170.744448 C440.039587,171.744277 439.408802,173.220065 439.488434,174.744444 C439.460535,176.193196 439.98604,177.598483 440.958766,178.676355 C442.528051,180.144931 444.392913,181.264701 446.429769,181.961459 C448.363257,181.29205 450.117578,180.191716 451.558833,178.74444 C452.53779,177.64211 453.068217,176.215686 453.046262,174.744444 C453.111502,173.200818 452.439436,171.71745 451.233993,170.744448 C449.763968,169.641166 447.940646,169.10869 446.104928,169.246577 L446.104928,169.246577 Z M414.749246,169.433811 C412.648629,169.305 410.605432,170.146288 409.209856,171.71466 C407.814607,173.541928 407.123143,175.806419 407.260811,178.097633 C407.140846,180.137005 407.779956,182.14887 409.055984,183.748691 C410.475512,185.233481 412.491427,186.002518 414.544083,185.842306 C415.992369,185.857036 417.424949,185.542681 418.732819,184.923158 C419.954438,184.376726 421.009953,183.519611 421.793161,182.438054 C422.507449,181.445618 422.890231,180.254713 422.887362,179.033802 C422.904628,177.361676 422.554517,175.706007 421.861549,174.182743 C421.224004,172.814668 420.232755,171.639829 418.989273,170.778491 C417.751965,169.899826 416.269061,169.429538 414.749246,169.433811 Z M674.844117,169.433811 C672.30372,169.316943 669.942464,170.734147 668.860208,173.025297 C667.612135,175.425295 666.979551,179.289121 666.979551,184.582733 C666.979551,189.876345 667.612135,193.757192 668.860208,196.174211 C670.064641,198.341466 672.35625,199.686562 674.844117,199.686562 C677.331983,199.686562 679.623592,198.341466 680.828025,196.174211 C682.081797,193.723149 682.702984,189.876345 682.69174,184.633796 C682.69174,179.40827 682.076098,175.561465 680.828025,173.127425 C679.774478,170.790411 677.397787,169.327559 674.82702,169.433811 L674.844117,169.433811 Z M616.20181,169.433811 C613.660227,169.312272 611.296563,170.730922 610.217901,173.025297 C608.952732,175.425295 608.337244,179.289121 608.337244,184.582733 C608.337244,189.876345 608.952732,193.757192 610.217901,196.174211 C611.374588,198.401855 613.682978,199.800915 616.20181,199.800915 C618.720642,199.800915 621.029032,198.401855 622.185719,196.174211 C623.43949,193.723149 624.060677,189.876345 624.049433,184.633796 C624.049433,179.40827 623.433791,175.561465 622.185719,173.127425 C621.138237,170.793106 618.767719,169.329886 616.20181,169.433811 L616.20181,169.433811 Z M445.232987,185.501881 C443.192557,186.272202 441.347877,187.481051 439.830372,189.042303 C438.70325,190.314196 438.093564,191.959136 438.120684,193.655064 C438.027994,195.452084 438.803052,197.185088 440.206504,198.31889 C441.911599,199.543554 443.989009,200.144781 446.087831,200.021016 C448.166723,200.156164 450.226407,199.553054 451.900771,198.31889 C453.297198,197.129596 454.061207,195.363176 453.969494,193.535916 C453.982064,191.915727 453.319748,190.362778 452.140127,189.246558 C450.134953,187.564966 447.817049,186.292576 445.318471,185.501881 L445.232987,185.501881 Z M644.907476,165.893389 C647.838431,165.722365 650.72631,166.658446 652.994301,168.514663 C654.979774,170.337737 656.050613,172.943764 655.917868,175.62955 C655.882503,178.030439 655.210095,180.379328 653.968823,182.438054 C652.077505,185.38653 649.813588,188.080917 647.232652,190.455068 L638.684211,198.829528 L638.684211,199.016761 L657.490781,199.016761 L657.490781,202.863566 L633.401274,202.863566 L633.401274,199.306123 L643.043916,189.655068 L644.360375,188.310389 C645.953258,186.734474 647.454524,185.069358 648.856856,183.323159 C649.69407,182.18565 650.378062,180.943888 650.891385,179.629546 C651.361526,178.395426 651.599154,177.085602 651.592357,175.76572 C651.696976,174.052462 651.077054,172.373732 649.882668,171.135937 C648.527131,169.93941 646.750108,169.327243 644.941669,169.433811 C643.471736,169.420559 642.011703,169.674358 640.633255,170.182747 C638.985284,170.84412 637.45094,171.757208 636.085484,172.889127 L633.879987,170.080619 C636.929736,167.408883 640.845225,165.922138 644.907476,165.893389 L644.907476,165.893389 Z M586.248072,165.893389 C589.179466,165.718965 592.068563,166.65544 594.334898,168.514663 C596.320371,170.337737 597.39121,172.943764 597.258465,175.62955 C597.2231,178.030439 596.550692,180.379328 595.30942,182.438054 C593.420521,185.383431 591.16268,188.077424 588.590345,190.455068 L580.041904,198.829528 L580.041904,199.016761 L598.848475,199.016761 L598.848475,202.863566 L574.741871,202.863566 L574.741871,199.306123 L584.384512,189.655068 C586.451023,187.665372 588.392353,185.550724 590.197452,183.323159 C591.058603,182.189431 591.765681,180.947502 592.300369,179.629546 C592.778727,178.397709 593.016637,177.086324 593.001341,175.76572 C593.114535,174.051219 592.493379,172.369149 591.291653,171.135937 C589.9404,169.943685 588.170391,169.331817 586.367751,169.433811 C584.892268,169.420767 583.426665,169.674527 582.042239,170.182747 C580.353952,170.836553 578.779024,171.749762 577.37479,172.889127 L575.169293,170.080619 C578.233961,167.400054 582.168707,165.912915 586.248072,165.893389 Z M394.198793,166.404027 L394.198793,202.863566 L390.146832,202.863566 L390.146832,176.889123 C390.146832,174.727423 390.146832,172.684872 390.334898,170.744448 C390.112638,170.982746 389.856185,171.221043 389.582635,171.476362 L389.035535,171.969979 L383.205498,176.701889 L381,173.927424 L390.693932,166.472112 L394.198793,166.404027 Z M446.156219,165.893389 C448.98886,165.737151 451.789445,166.554382 454.089172,168.20828 C456.042632,169.749409 457.136059,172.129118 457.029836,174.608274 C457.031972,176.392775 456.429625,178.125858 455.320148,179.527418 C453.872225,181.264447 452.040844,182.645014 449.968823,183.561457 C452.383811,184.570914 454.548472,186.092835 456.311767,188.021027 C457.548215,189.54698 458.207704,191.45646 458.175327,193.416767 C458.287948,196.18645 457.115352,198.853918 454.995307,200.650802 C452.518808,202.571128 449.427077,203.532643 446.292994,203.357183 C443.078384,203.56662 439.889713,202.664754 437.26584,200.803994 C435.130384,199.021218 433.964504,196.3402 434.120013,193.569958 C434.120013,189.382728 436.667449,186.148689 441.779417,183.816776 C439.818853,182.821205 438.120555,181.381122 436.821321,179.612525 C435.806569,178.103873 435.28141,176.321476 435.316795,174.506147 C435.224261,172.05372 436.317689,169.705653 438.257459,168.191259 C440.544519,166.539519 443.335681,165.727527 446.156219,165.893389 Z M474.810593,165.893389 C477.768252,165.70796 480.69727,166.563499 483.085484,168.310408 C485.069125,169.948713 486.164447,172.419623 486.043245,174.982742 C486.141324,177.078877 485.438888,179.134294 484.077104,180.735928 C482.601141,182.311964 480.640183,183.353981 478.50352,183.697627 L478.50352,183.901882 C480.942925,184.030512 483.259909,185.006207 485.051626,186.659326 C486.510256,188.267586 487.272155,190.384126 487.171639,192.548683 C487.338661,195.647676 485.987929,198.63532 483.5471,200.565696 C480.526616,202.588555 476.92303,203.569179 473.288971,203.357183 C471.499677,203.351138 469.714504,203.185942 467.954744,202.863566 C466.324931,202.56784 464.743176,202.052465 463.253101,201.331653 L463.253101,197.450805 C466.450945,198.999531 469.955233,199.819396 473.51123,199.850803 C479.837077,199.850803 483,197.38272 483,192.446555 C483,188.021027 479.512236,185.808263 472.536708,185.808263 L468.792491,185.808263 L468.792491,182.25082 L472.451224,182.25082 C474.877927,182.391087 477.282896,181.72666 479.289977,180.36146 C480.942871,179.141076 481.878402,177.182599 481.786121,175.135933 C481.850309,173.528085 481.161985,171.98149 479.922561,170.948703 C478.486038,169.868311 476.710578,169.331393 474.913175,169.433811 C473.378743,169.419441 471.851044,169.637538 470.382501,170.080619 C468.664602,170.65607 467.031646,171.457488 465.526986,172.463595 L463.406973,169.672109 C464.95181,168.472821 466.684756,167.535418 468.536038,166.897643 C470.549768,166.212853 472.66563,165.87328 474.793496,165.893389 L474.810593,165.893389 Z M616.20181,165.893389 C619.859604,165.721475 623.322836,167.53994 625.246061,170.642321 C627.309085,173.865012 628.340597,178.511817 628.340597,184.582733 C628.340597,190.880599 627.348978,195.595488 625.348642,198.693357 C623.267651,201.63937 619.869439,203.384033 616.251928,203.363843 C612.634417,203.3433 609.256241,201.560486 607.20885,198.59123 C605.157224,195.40258 604.131411,190.733081 604.131411,184.582733 C604.131411,178.239476 605.123031,173.530261 607.106269,170.455087 C609.072742,167.388236 612.553834,165.622817 616.20181,165.842325 L616.20181,165.893389 Z M414.749246,165.893389 C417.066388,165.842438 419.342326,166.508521 421.263158,167.79977 C423.219618,169.179685 424.714648,171.112849 425.554475,173.348701 C426.616271,176.094213 427.127409,179.020258 427.059001,181.961459 C427.059001,196.225275 421.519611,203.357183 410.440831,203.357183 C408.886492,203.408498 407.332612,203.242338 405.824673,202.863566 L405.824673,199.306123 C407.303518,199.75556 408.843469,199.97376 410.389541,199.952931 C413.830058,200.185366 417.184018,198.814502 419.467985,196.242296 C421.496815,193.76854 422.636607,189.984146 422.887362,184.889115 L422.596715,184.889115 C421.69353,186.255789 420.4269,187.34593 418.937982,188.038049 C417.333565,188.784216 415.579513,189.156759 413.808917,189.127409 C410.947387,189.265704 408.156068,188.218198 406.098223,186.233795 C404.094121,184.030092 403.065096,181.116169 403.243044,178.148696 C403.061298,174.859426 404.198974,171.63292 406.405967,169.178492 C408.602115,166.968342 411.628737,165.776633 414.749246,165.893389 L414.749246,165.893389 Z M674.844117,165.893389 C678.516724,165.733201 681.98695,167.571456 683.905464,170.693384 C685.968488,173.916076 687,178.56288 687,184.633796 C687,190.931663 686.008381,195.646552 684.008046,198.744421 C682.021296,201.833458 678.503201,203.601031 674.82702,203.357183 C671.18639,203.515091 667.74761,201.689187 665.851157,198.59123 C663.788133,195.40258 662.756621,190.733081 662.756621,184.582733 C662.756621,178.233803 663.765337,173.518914 665.748575,170.455087 C667.706913,167.388195 671.183451,165.621764 674.82702,165.842325 L674.844117,165.893389 Z M596.181361,121.161517 C596.509251,121.498221 596.509251,122.033323 596.181361,122.370026 L530.717399,187.544432 L596.181361,252.786923 C596.516564,253.120643 596.516564,253.661711 596.181361,253.995432 C595.846158,254.329153 595.302686,254.329153 594.967482,253.995432 L529.50352,188.752941 L465.680858,252.225221 C465.46402,252.441101 465.147971,252.525411 464.851764,252.446394 C464.555557,252.367376 464.324193,252.137036 464.244824,251.842139 C464.165456,251.547242 464.250141,251.232591 464.46698,251.016712 L528.289641,187.544432 L464.535367,124.004067 C464.200164,123.670347 464.200164,123.129279 464.535367,122.795558 C464.87057,122.461837 465.414042,122.461837 465.749246,122.795558 L529.50352,186.335923 L595.03587,121.161517 C595.364151,120.876797 595.85308,120.876797 596.181361,121.161517 Z M534.786457,231.084816 C534.600262,231.273304 534.439355,231.484991 534.307744,231.714602 C534.196677,231.860382 534.147559,232.043758 534.170969,232.22524 C534.359035,234.233749 534.957425,234.931621 535.880657,234.301834 C536.803889,233.672047 537.590345,233.535877 537.778411,233.84226 C538.735836,234.897578 538.462286,235.782684 536.940664,236.514598 C535.419041,237.246512 535.230976,238.557149 536.120013,240.446509 C536.432034,241.215065 536.967928,241.873077 537.658733,242.335869 C538.265289,242.667979 538.950029,242.83253 539.641971,242.812464 C540.428428,242.812464 540.975528,243.340123 541.351659,244.310335 C541.628234,245.048468 541.828728,245.812679 541.95005,246.591184 C542.036315,247.417326 542.036315,248.250146 541.95005,249.076288 C541.916592,249.968888 541.731612,250.84941 541.40295,251.680541 C541.137961,252.209679 541.094913,252.821934 541.283272,253.382667 C541.416993,253.801557 541.651801,254.181433 541.967147,254.489049 C542.960572,253.209137 543.739956,251.777965 544.275226,250.250755 C544.840532,248.672239 545.124056,247.007421 545.112974,245.331611 C545.106723,238.886987 540.983262,233.160201 534.854844,231.084816 L534.786457,231.084816 Z M527.947704,230.438008 C526.597638,230.615819 525.279561,230.982561 524.032518,231.527369 C522.812461,232.065189 521.663942,232.751253 520.613141,233.56992 C519.573057,234.398197 518.647508,235.359715 517.860543,236.429492 C517.021292,237.504186 516.336533,238.690053 515.826014,239.952892 L518.168287,240.157148 C519.177003,240.259275 519.775394,240.548637 519.877975,241.025232 C520.018977,241.595121 519.83525,242.196127 519.399262,242.591188 C518.882873,243.249045 518.62732,244.072891 518.681193,244.906079 C518.576411,245.850155 519.16751,246.732883 520.083138,246.999694 C520.912466,247.142039 521.514413,247.864068 521.502179,248.70182 C521.503406,249.528314 521.606764,250.351518 521.809923,251.152882 C521.95879,251.710235 522.056078,252.279989 522.10057,252.855008 C522.387784,253.593582 522.824212,254.265604 523.382836,254.829474 C524.23768,255.884792 524.887362,256.412451 525.314784,256.412451 C525.742206,256.412451 525.896078,255.799686 525.725109,254.608198 C525.593744,253.792123 525.530839,252.966579 525.537043,252.140115 C525.588845,251.653668 525.668763,251.170598 525.7764,250.693308 C525.8407,250.253956 525.943678,249.821084 526.084143,249.399692 C526.243904,248.215755 527.066233,247.225401 528.204157,246.846503 C529.141619,246.678898 529.921142,246.032169 530.255783,245.144377 C530.805775,244.193667 530.923877,243.055004 530.580624,242.012465 C530.195381,241.287009 529.599614,240.693877 528.870935,240.310339 C528.172612,239.932204 527.415557,239.673297 526.631244,239.544382 C526.136054,239.475553 525.645162,239.378945 525.160912,239.255021 C524.667905,239.075515 524.147134,238.983343 523.622192,238.982681 C523.173294,238.959896 522.723542,239.00582 522.288636,239.118851 C521.896006,239.180321 521.499848,239.031611 521.245726,238.727362 C520.878766,238.451119 520.653422,238.027352 520.630238,237.569916 C520.630238,237.195448 521.023466,236.650768 521.809923,235.969918 C522.474233,235.451404 523.051357,234.830866 523.519611,234.131621 C523.744859,233.682017 524.110919,233.317576 524.562521,233.093325 C525.105591,232.829524 525.597567,232.472258 526.015756,232.038006 C526.324404,231.764895 526.669636,231.535759 527.041569,231.357156 C527.433514,231.170095 527.739181,230.841435 527.896413,230.438008 L527.947704,230.438008 Z M533.965806,256.599685 C533.194108,256.698535 532.440179,256.904804 531.726115,257.21245 C531.12048,257.493828 530.491172,257.721655 529.845458,257.893301 C529.315454,258.01245 528.853838,258.14862 528.426416,258.267768 C528.001491,258.405919 527.556956,258.474891 527.109956,258.472024 C526.766613,258.466424 526.439393,258.616781 526.220919,258.880534 C525.970245,259.199588 525.648271,259.456027 525.28059,259.629469 C526.818643,260.113178 528.420606,260.365605 530.033523,260.378405 C531.527961,260.382101 533.014614,260.164106 534.444519,259.731597 C535.839255,259.313507 537.160127,258.681834 538.359705,257.859258 C537.922911,257.195287 537.190217,256.782988 536.393564,256.752876 C535.575005,256.614469 534.743983,256.563117 533.914516,256.599685 L533.965806,256.599685 Z M530.033523,227.663521 C532.384443,227.663521 534.71091,228.138543 536.872276,229.059286 C538.973671,229.955002 540.883093,231.243505 542.497151,232.855027 C544.111948,234.465141 545.40564,236.365329 546.309755,238.455022 C548.179445,242.850464 548.179445,247.812757 546.309755,252.2082 C544.487801,256.427249 541.110069,259.79004 536.872276,261.603935 C532.457305,263.465355 527.472966,263.465355 523.057995,261.603935 C520.995543,260.692677 519.122554,259.40528 517.535702,257.808194 C515.888162,256.213788 514.564669,254.318237 513.637613,252.225221 C511.767924,247.829778 511.767924,242.867486 513.637613,238.472043 C515.459567,234.252994 518.837299,230.890202 523.075092,229.076307 C525.256386,228.140657 527.607098,227.65985 529.982233,227.663521 L530.033523,227.663521 Z" id="Shape"></path>
            <g id="ALEGACYOF">
                <use xlink:href="#path-1"></use>
                <use xlink:href="#path-1"></use>
            </g>
            <g id="TRANSFORMATION">
                <use xlink:href="#path-2"></use>
                <use xlink:href="#path-2"></use>
            </g>
            <g id="AGRICULTURAL">
                <use xlink:href="#path-3"></use>
                <use xlink:href="#path-3"></use>
            </g>
        </g>
    </g>
</svg>