<?xml version="1.0" encoding="UTF-8"?>
<svg width="1101px" height="817px" viewBox="0 0 1101 817" version="1.1" xmlns="http://www.w3.org/2000/svg" xmlns:xlink="http://www.w3.org/1999/xlink">
    <!-- Generator: Sketch 55.2 (78181) - https://sketchapp.com -->
    <title>Group</title>
    <desc>Created with Sketch.</desc>
    <defs>
        <path d="M56.1293945,231.529297 C56.1293945,238.755896 53.6635989,244.314108 48.7319336,248.204102 C43.8002683,252.094095 36.7446748,254.039062 27.5649414,254.039062 L19.1665039,254.039062 L19.1665039,282.115234 L10.8657227,282.115234 L10.8657227,210.728516 L29.371582,210.728516 C47.2102129,210.728516 56.1293945,217.66204 56.1293945,231.529297 Z M19.1665039,246.910156 L26.637207,246.910156 C33.9940146,246.910156 39.3162271,245.722017 42.6040039,243.345703 C45.8917808,240.969389 47.5356445,237.160833 47.5356445,231.919922 C47.5356445,227.199846 45.989436,223.684256 42.8969727,221.373047 C39.8045093,219.061837 34.9868491,217.90625 28.4438477,217.90625 L19.1665039,217.90625 L19.1665039,246.910156 Z M79.0708008,282.115234 L79.0708008,210.728516 L87.371582,210.728516 L87.371582,274.595703 L118.865723,274.595703 L118.865723,282.115234 L79.0708008,282.115234 Z M191.904785,210.728516 L191.904785,256.919922 C191.904785,265.057983 189.447127,271.454404 184.531738,276.109375 C179.616349,280.764346 172.861859,283.091797 164.268066,283.091797 C155.674273,283.091797 149.025577,280.74807 144.321777,276.060547 C139.617978,271.373023 137.266113,264.927775 137.266113,256.724609 L137.266113,210.728516 L145.566895,210.728516 L145.566895,257.310547 C145.566895,263.267608 147.194482,267.84113 150.449707,271.03125 C153.704932,274.22137 158.49004,275.816406 164.805176,275.816406 C170.827341,275.816406 175.465967,274.213232 178.721191,271.006836 C181.976416,267.80044 183.604004,263.202504 183.604004,257.212891 L183.604004,210.728516 L191.904785,210.728516 Z M259.084473,263.121094 C259.084473,269.403677 256.80585,274.302717 252.248535,277.818359 C247.691221,281.334002 241.506387,283.091797 233.693848,283.091797 C225.230264,283.091797 218.719912,282.001313 214.162598,279.820312 L214.162598,271.8125 C217.0923,273.049485 220.282372,274.026038 223.73291,274.742188 C227.183448,275.458337 230.601383,275.816406 233.986816,275.816406 C239.520698,275.816406 243.687323,274.766612 246.486816,272.666992 C249.28631,270.567372 250.686035,267.645852 250.686035,263.902344 C250.686035,261.428373 250.189621,259.402026 249.196777,257.823242 C248.203934,256.244458 246.543794,254.787767 244.216309,253.453125 C241.888823,252.118483 238.348819,250.604826 233.596191,248.912109 C226.955533,246.535795 222.211115,243.720068 219.362793,240.464844 C216.514471,237.209619 215.090332,232.961615 215.090332,227.720703 C215.090332,222.219374 217.157369,217.841162 221.291504,214.585938 C225.425639,211.330713 230.894334,209.703125 237.697754,209.703125 C244.794144,209.703125 251.320771,211.005195 257.277832,213.609375 L254.689941,220.835938 C248.797985,218.361967 243.068875,217.125 237.502441,217.125 C233.107888,217.125 229.673678,218.069001 227.199707,219.957031 C224.725736,221.845062 223.48877,224.465478 223.48877,227.818359 C223.48877,230.29233 223.944494,232.318677 224.855957,233.897461 C225.76742,235.476245 227.30549,236.924798 229.470215,238.243164 C231.634939,239.56153 234.947081,241.018221 239.406738,242.613281 C246.893755,245.282565 252.045071,248.14712 254.86084,251.207031 C257.676609,254.266942 259.084473,258.238257 259.084473,263.121094 Z M372.643066,245.738281 C372.643066,257.522194 369.444856,266.530893 363.04834,272.764648 C356.651823,278.998404 347.447814,282.115234 335.436035,282.115234 L315.660645,282.115234 L315.660645,210.728516 L337.535645,210.728516 C348.63596,210.728516 357.262176,213.804657 363.414551,219.957031 C369.566925,226.109406 372.643066,234.70307 372.643066,245.738281 Z M363.854004,246.03125 C363.854004,236.721308 361.518415,229.706404 356.847168,224.986328 C352.175921,220.266252 345.234258,217.90625 336.021973,217.90625 L323.961426,217.90625 L323.961426,274.9375 L334.068848,274.9375 C343.96473,274.9375 351.402807,272.504256 356.383301,267.637695 C361.363794,262.771135 363.854004,255.569058 363.854004,246.03125 Z M436.355957,282.115234 L396.561035,282.115234 L396.561035,210.728516 L436.355957,210.728516 L436.355957,218.101562 L404.861816,218.101562 L404.861816,241.099609 L434.45166,241.099609 L434.45166,248.423828 L404.861816,248.423828 L404.861816,274.693359 L436.355957,274.693359 L436.355957,282.115234 Z M533.459473,227.525391 C533.459473,232.082705 532.181816,235.809881 529.626465,238.707031 C527.071114,241.604181 523.44973,243.541011 518.762207,244.517578 L518.762207,244.908203 C524.491402,245.624353 528.739407,247.447251 531.506348,250.376953 C534.273289,253.306655 535.656738,257.147763 535.656738,261.900391 C535.656738,268.70381 533.296736,273.936505 528.57666,277.598633 C523.856584,281.26076 517.150922,283.091797 508.459473,283.091797 C504.683412,283.091797 501.224788,282.806969 498.083496,282.237305 C494.942204,281.66764 491.890477,280.666674 488.928223,279.234375 L488.928223,271.519531 C492.020686,273.049487 495.316552,274.213212 498.815918,275.010742 C502.315284,275.808272 505.627426,276.207031 508.752441,276.207031 C521.089743,276.207031 527.258301,271.373095 527.258301,261.705078 C527.258301,253.046181 520.454983,248.716797 506.848145,248.716797 L499.816895,248.716797 L499.816895,241.734375 L506.945801,241.734375 C512.512235,241.734375 516.922998,240.505546 520.178223,238.047852 C523.433447,235.590157 525.061035,232.18036 525.061035,227.818359 C525.061035,224.335269 523.864758,221.600921 521.472168,219.615234 C519.079578,217.629547 515.83254,216.636719 511.730957,216.636719 C508.605941,216.636719 505.660007,217.059892 502.893066,217.90625 C500.126125,218.752608 496.968605,220.315093 493.42041,222.59375 L489.318848,217.125 C492.24855,214.813791 495.625795,212.99903 499.450684,211.680664 C503.275573,210.362298 507.303853,209.703125 511.535645,209.703125 C518.469273,209.703125 523.856589,211.290023 527.697754,214.463867 C531.538919,217.637711 533.459473,221.991509 533.459473,227.525391 Z M576.713379,238.511719 C584.232948,238.511719 590.14923,240.375307 594.462402,244.102539 C598.775575,247.829771 600.932129,252.932259 600.932129,259.410156 C600.932129,266.799516 598.580264,272.593729 593.876465,276.792969 C589.172665,280.992208 582.686728,283.091797 574.418457,283.091797 C566.378052,283.091797 560.242046,281.806002 556.010254,279.234375 L556.010254,271.421875 C558.288911,272.886726 561.120914,274.034176 564.506348,274.864258 C567.891781,275.69434 571.228336,276.109375 574.516113,276.109375 C580.245309,276.109375 584.696761,274.758477 587.870605,272.056641 C591.044449,269.354804 592.631348,265.448593 592.631348,260.337891 C592.631348,250.376903 586.527893,245.396484 574.320801,245.396484 C571.228337,245.396484 567.094264,245.868485 561.918457,246.8125 L557.719238,244.126953 L560.404785,210.728516 L595.902832,210.728516 L595.902832,218.199219 L567.338379,218.199219 L565.531738,239.634766 C569.275247,238.886064 573.002423,238.511719 576.713379,238.511719 Z M703.35791,282.115234 L694.471191,259.410156 L665.85791,259.410156 L657.068848,282.115234 L648.67041,282.115234 L676.893066,210.435547 L683.875488,210.435547 L711.95166,282.115234 L703.35791,282.115234 Z M691.883301,251.939453 L683.58252,229.820312 C682.508295,227.020819 681.401536,223.586609 680.262207,219.517578 C679.546058,222.642594 678.520677,226.076804 677.186035,229.820312 L668.787598,251.939453 L691.883301,251.939453 Z M785.527832,282.115234 L776.055176,282.115234 L737.041504,222.203125 L736.650879,222.203125 C737.171715,229.23441 737.432129,235.679658 737.432129,241.539062 L737.432129,282.115234 L729.766113,282.115234 L729.766113,210.728516 L739.141113,210.728516 L778.057129,270.396484 L778.447754,270.396484 C778.382649,269.517574 778.236167,266.693709 778.008301,261.924805 C777.780435,257.155901 777.699056,253.746104 777.76416,251.695312 L777.76416,210.728516 L785.527832,210.728516 L785.527832,282.115234 Z M853.439941,263.121094 C853.439941,269.403677 851.161318,274.302717 846.604004,277.818359 C842.046689,281.334002 835.861855,283.091797 828.049316,283.091797 C819.585732,283.091797 813.075381,282.001313 808.518066,279.820312 L808.518066,271.8125 C811.447769,273.049485 814.637841,274.026038 818.088379,274.742188 C821.538917,275.458337 824.956852,275.816406 828.342285,275.816406 C833.876167,275.816406 838.042792,274.766612 840.842285,272.666992 C843.641778,270.567372 845.041504,267.645852 845.041504,263.902344 C845.041504,261.428373 844.54509,259.402026 843.552246,257.823242 C842.559403,256.244458 840.899263,254.787767 838.571777,253.453125 C836.244292,252.118483 832.704288,250.604826 827.95166,248.912109 C821.311002,246.535795 816.566583,243.720068 813.718262,240.464844 C810.86994,237.209619 809.445801,232.961615 809.445801,227.720703 C809.445801,222.219374 811.512837,217.841162 815.646973,214.585938 C819.781108,211.330713 825.249803,209.703125 832.053223,209.703125 C839.149612,209.703125 845.67624,211.005195 851.633301,213.609375 L849.04541,220.835938 C843.153454,218.361967 837.424344,217.125 831.85791,217.125 C827.463357,217.125 824.029146,218.069001 821.555176,219.957031 C819.081205,221.845062 817.844238,224.465478 817.844238,227.818359 C817.844238,230.29233 818.299963,232.318677 819.211426,233.897461 C820.122889,235.476245 821.660959,236.924798 823.825684,238.243164 C825.990408,239.56153 829.302549,241.018221 833.762207,242.613281 C841.249224,245.282565 846.400539,248.14712 849.216309,251.207031 C852.032078,254.266942 853.439941,258.238257 853.439941,263.121094 Z M954.88916,282.115234 L946.002441,259.410156 L917.38916,259.410156 L908.600098,282.115234 L900.20166,282.115234 L928.424316,210.435547 L935.406738,210.435547 L963.48291,282.115234 L954.88916,282.115234 Z M943.414551,251.939453 L935.11377,229.820312 C934.039545,227.020819 932.932786,223.586609 931.793457,219.517578 C931.077308,222.642594 930.051927,226.076804 928.717285,229.820312 L920.318848,251.939453 L943.414551,251.939453 Z M935.553223,205.015625 L930.182129,205.015625 C928.066233,203.322908 925.559748,200.914078 922.662598,197.789062 C919.765448,194.664047 917.665859,192.076182 916.36377,190.025391 L916.36377,189 L926.275879,189 C927.317551,191.246105 928.766104,193.842108 930.621582,196.788086 C932.47706,199.734064 934.120924,202.069653 935.553223,203.794922 L935.553223,205.015625 Z" id="path-1"></path>
        <path d="M21.8862305,583.115234 L14.0673828,583.115234 L14.0673828,541.992676 L0,541.992676 L0,535.286133 L35.9536133,535.286133 L35.9536133,541.992676 L21.8862305,541.992676 L21.8862305,583.115234 Z M52.5894748,557.532227 L58.0201389,557.532227 C61.6624097,557.532227 64.3013807,556.856127 65.9371311,555.503906 C67.5728814,554.151686 68.3907444,552.145196 68.3907444,549.484375 C68.3907444,546.779934 67.5074524,544.838873 65.740842,543.661133 C63.9742316,542.483393 61.3134509,541.894531 57.7584201,541.894531 L52.5894748,541.894531 L52.5894748,557.532227 Z M52.5894748,564.009766 L52.5894748,583.115234 L44.7706272,583.115234 L44.7706272,535.286133 L58.2818576,535.286133 C64.454089,535.286133 69.0232165,536.442046 71.9893772,538.753906 C74.9555378,541.065767 76.4385959,544.555315 76.4385959,549.222656 C76.4385959,555.176788 73.3416217,559.41877 67.1475803,561.94873 L80.6588108,583.115234 L71.7603733,583.115234 L60.310178,564.009766 L52.5894748,564.009766 Z M118.75561,583.115234 L113.979243,569.833008 L95.691645,569.833008 L91.0134223,583.115234 L82.7692817,583.115234 L100.664301,535.089844 L109.170161,535.089844 L127.06518,583.115234 L118.75561,583.115234 Z M111.918207,563.09375 L107.436274,550.073242 C107.109124,549.200842 106.656573,547.826832 106.078608,545.951172 C105.500643,544.075511 105.102616,542.701502 104.884516,541.829102 C104.295646,544.511732 103.434164,547.445134 102.300043,550.629395 L97.981684,563.09375 L111.918207,563.09375 Z M174.714714,583.115234 L165.129264,583.115234 L141.607292,545.002441 L141.345573,545.002441 L141.509147,547.128906 C141.814487,551.185567 141.967155,554.893212 141.967155,558.251953 L141.967155,583.115234 L134.868034,583.115234 L134.868034,535.286133 L144.355339,535.286133 L167.811882,573.202637 L168.008171,573.202637 C167.964551,572.701007 167.877312,570.874446 167.746452,567.7229 C167.615592,564.571355 167.550163,562.112314 167.550163,560.345703 L167.550163,535.286133 L174.714714,535.286133 L174.714714,583.115234 Z M216.410145,570.127441 C216.410145,574.380392 214.872563,577.717273 211.797352,580.138184 C208.722142,582.559094 204.480159,583.769531 199.071278,583.769531 C193.662397,583.769531 189.235032,582.929859 185.789052,581.250488 L185.789052,573.856934 C187.970052,574.882004 190.28733,575.688962 192.740956,576.277832 C195.194581,576.866702 197.479145,577.161133 199.594716,577.161133 C202.691736,577.161133 204.9763,576.572272 206.448475,575.394531 C207.920651,574.216791 208.656727,572.635589 208.656727,570.650879 C208.656727,568.862459 207.980627,567.346686 206.628407,566.103516 C205.276187,564.860345 202.484548,563.388192 198.253407,561.687012 C193.891406,559.920401 190.816242,557.903006 189.027821,555.634766 C187.239401,553.366525 186.345204,550.640315 186.345204,547.456055 C186.345204,543.464824 187.762833,540.32423 190.598134,538.03418 C193.433434,535.744129 197.239223,534.599121 202.015614,534.599121 C206.595715,534.599121 211.153938,535.602366 215.690419,537.608887 L213.204091,543.988281 C208.95114,542.199861 205.156256,541.305664 201.819325,541.305664 C199.289365,541.305664 197.370113,541.856358 196.061513,542.957764 C194.752912,544.059169 194.098622,545.514965 194.098622,547.325195 C194.098622,548.568366 194.360338,549.631587 194.883778,550.514893 C195.407218,551.398198 196.268701,552.232418 197.468251,553.017578 C198.667801,553.802738 200.826959,554.838698 203.94579,556.125488 C207.457201,557.586759 210.030743,558.949863 211.666493,560.214844 C213.302243,561.479824 214.501776,562.908358 215.265126,564.500488 C216.028476,566.092619 216.410145,567.968251 216.410145,570.127441 Z M234.910753,583.115234 L227.157335,583.115234 L227.157335,535.286133 L254.147081,535.286133 L254.147081,541.894531 L234.910753,541.894531 L234.910753,556.845215 L252.936632,556.845215 L252.936632,563.486328 L234.910753,563.486328 L234.910753,583.115234 Z M306.769271,559.135254 C306.769271,566.921426 304.822757,572.973611 300.929671,577.291992 C297.036585,581.610373 291.524189,583.769531 284.392318,583.769531 C277.173206,583.769531 271.628096,581.62673 267.75682,577.341064 C263.885544,573.055398 261.949935,566.965046 261.949935,559.069824 C261.949935,551.174602 263.896449,545.111512 267.789535,540.880371 C271.68262,536.64923 277.238636,534.533691 284.457747,534.533691 C291.567809,534.533691 297.063848,536.681945 300.946029,540.978516 C304.82821,545.275087 306.769271,551.327272 306.769271,559.135254 Z M270.259505,559.135254 C270.259505,565.023955 271.448133,569.489487 273.825423,572.531982 C276.202714,575.574478 279.724977,577.095703 284.392318,577.095703 C289.037849,577.095703 292.543754,575.590835 294.91014,572.581055 C297.276526,569.571274 298.459701,565.089385 298.459701,559.135254 C298.459701,553.268363 297.28743,548.819188 294.942855,545.787598 C292.598279,542.756007 289.103278,541.240234 284.457747,541.240234 C279.768596,541.240234 276.229976,542.756007 273.841781,545.787598 C271.453585,548.819188 270.259505,553.268363 270.259505,559.135254 Z M326.349468,557.532227 L331.780132,557.532227 C335.422403,557.532227 338.061374,556.856127 339.697125,555.503906 C341.332875,554.151686 342.150738,552.145196 342.150738,549.484375 C342.150738,546.779934 341.267446,544.838873 339.500836,543.661133 C337.734225,542.483393 335.073444,541.894531 331.518414,541.894531 L326.349468,541.894531 L326.349468,557.532227 Z M326.349468,564.009766 L326.349468,583.115234 L318.530621,583.115234 L318.530621,535.286133 L332.041851,535.286133 C338.214083,535.286133 342.78321,536.442046 345.749371,538.753906 C348.715531,541.065767 350.198589,544.555315 350.198589,549.222656 C350.198589,555.176788 347.101615,559.41877 340.907574,561.94873 L354.418804,583.115234 L345.520367,583.115234 L334.070171,564.009766 L326.349468,564.009766 Z M383.519021,583.115234 L369.647928,543.17041 L369.386209,543.17041 C369.756979,549.102731 369.942361,554.664199 369.942361,559.85498 L369.942361,583.115234 L362.84324,583.115234 L362.84324,535.286133 L373.868142,535.286133 L387.150369,573.333496 L387.346658,573.333496 L401.021463,535.286133 L412.07908,535.286133 L412.07908,583.115234 L404.554666,583.115234 L404.554666,559.462402 C404.554666,557.085112 404.614642,553.988138 404.734597,550.171387 C404.854552,546.354636 404.958148,544.04281 405.045388,543.23584 L404.78367,543.23584 L390.421853,583.115234 L383.519021,583.115234 Z M455.835547,583.115234 L451.05918,569.833008 L432.771582,569.833008 L428.093359,583.115234 L419.849219,583.115234 L437.744238,535.089844 L446.250098,535.089844 L464.145117,583.115234 L455.835547,583.115234 Z M448.998145,563.09375 L444.516211,550.073242 C444.189061,549.200842 443.73651,547.826832 443.158545,545.951172 C442.58058,544.075511 442.182553,542.701502 441.964453,541.829102 C441.375583,544.511732 440.514101,547.445134 439.37998,550.629395 L435.061621,563.09375 L448.998145,563.09375 Z M483.790744,583.115234 L475.971897,583.115234 L475.971897,541.992676 L461.904514,541.992676 L461.904514,535.286133 L497.858127,535.286133 L497.858127,541.992676 L483.790744,541.992676 L483.790744,583.115234 Z M506.675141,583.115234 L506.675141,535.286133 L514.493989,535.286133 L514.493989,583.115234 L506.675141,583.115234 Z M571.074674,559.135254 C571.074674,566.921426 569.128161,572.973611 565.235075,577.291992 C561.341989,581.610373 555.829593,583.769531 548.697721,583.769531 C541.47861,583.769531 535.933499,581.62673 532.062223,577.341064 C528.190947,573.055398 526.255339,566.965046 526.255339,559.069824 C526.255339,551.174602 528.201852,545.111512 532.094938,540.880371 C535.988024,536.64923 541.544039,534.533691 548.763151,534.533691 C555.873213,534.533691 561.369251,536.681945 565.251432,540.978516 C569.133613,545.275087 571.074674,551.327272 571.074674,559.135254 Z M534.564909,559.135254 C534.564909,565.023955 535.753536,569.489487 538.130827,572.531982 C540.508117,575.574478 544.03038,577.095703 548.697721,577.095703 C553.343252,577.095703 556.849158,575.590835 559.215544,572.581055 C561.581929,569.571274 562.765104,565.089385 562.765104,559.135254 C562.765104,553.268363 561.592834,548.819188 559.248258,545.787598 C556.903683,542.756007 553.408682,541.240234 548.763151,541.240234 C544.074,541.240234 540.53538,542.756007 538.147184,545.787598 C535.758989,548.819188 534.564909,553.268363 534.564909,559.135254 Z M622.682704,583.115234 L613.097255,583.115234 L589.575282,545.002441 L589.313563,545.002441 L589.477138,547.128906 C589.782478,551.185567 589.935145,554.893212 589.935145,558.251953 L589.935145,583.115234 L582.836024,583.115234 L582.836024,535.286133 L592.323329,535.286133 L615.779872,573.202637 L615.976161,573.202637 C615.932541,572.701007 615.845302,570.874446 615.714442,567.7229 C615.583582,564.571355 615.518153,562.112314 615.518153,560.345703 L615.518153,535.286133 L622.682704,535.286133 L622.682704,583.115234 Z M682.387294,583.115234 L677.610927,569.833008 L659.323329,569.833008 L654.645106,583.115234 L646.400966,583.115234 L664.295985,535.089844 L672.801845,535.089844 L690.696864,583.115234 L682.387294,583.115234 Z M675.549891,563.09375 L671.067958,550.073242 C670.740808,549.200842 670.288257,547.826832 669.710292,545.951172 C669.132327,544.075511 668.7343,542.701502 668.5162,541.829102 C667.92733,544.511732 667.065848,547.445134 665.931727,550.629395 L661.613368,563.09375 L675.549891,563.09375 Z M716.574306,557.172363 L734.174891,557.172363 L734.174891,581.185059 C731.295971,582.122889 728.531594,582.788084 725.881679,583.180664 C723.231763,583.573244 720.369243,583.769531 717.294032,583.769531 C710.05311,583.769531 704.469833,581.62673 700.544032,577.341064 C696.618231,573.055398 694.65536,567.008665 694.65536,559.200684 C694.65536,551.501752 696.869043,545.476828 701.296474,541.125732 C705.723905,536.774636 711.819709,534.599121 719.584071,534.599121 C724.578562,534.599121 729.311262,535.558747 733.782313,537.478027 L731.034266,543.988281 C727.152086,542.199861 723.269963,541.305664 719.387782,541.305664 C714.284241,541.305664 710.249451,542.908675 707.28329,546.114746 C704.317129,549.320817 702.834071,553.704562 702.834071,559.266113 C702.834071,565.111195 704.169914,569.554916 706.84164,572.597412 C709.513365,575.639908 713.357321,577.161133 718.373622,577.161133 C720.903583,577.161133 723.607983,576.844892 726.486903,576.212402 L726.486903,563.878906 L716.574306,563.878906 L716.574306,557.172363 Z M753.476649,557.532227 L758.907313,557.532227 C762.549584,557.532227 765.188555,556.856127 766.824306,555.503906 C768.460056,554.151686 769.277919,552.145196 769.277919,549.484375 C769.277919,546.779934 768.394627,544.838873 766.628016,543.661133 C764.861406,542.483393 762.200625,541.894531 758.645595,541.894531 L753.476649,541.894531 L753.476649,557.532227 Z M753.476649,564.009766 L753.476649,583.115234 L745.657802,583.115234 L745.657802,535.286133 L759.169032,535.286133 C765.341263,535.286133 769.910391,536.442046 772.876552,538.753906 C775.842712,541.065767 777.32577,544.555315 777.32577,549.222656 C777.32577,555.176788 774.228796,559.41877 768.034755,561.94873 L781.545985,583.115234 L772.647548,583.115234 L761.197352,564.009766 L753.476649,564.009766 Z M788.481532,583.115234 L788.481532,535.286133 L796.30038,535.286133 L796.30038,583.115234 L788.481532,583.115234 Z M829.276942,541.305664 C824.784081,541.305664 821.250913,542.897771 818.677333,546.082031 C816.103752,549.266292 814.816981,553.660942 814.816981,559.266113 C814.816981,565.133005 816.054681,569.571274 818.530116,572.581055 C821.005552,575.590835 824.587791,577.095703 829.276942,577.095703 C831.305273,577.095703 833.268144,576.893964 835.165614,576.490479 C837.063085,576.086993 839.03686,575.569014 841.087001,574.936523 L841.087001,581.643066 C837.33568,583.060717 833.082793,583.769531 828.328212,583.769531 C821.3272,583.769531 815.951115,581.64854 812.199794,577.406494 C808.448473,573.164448 806.572841,567.095905 806.572841,559.200684 C806.572841,554.228002 807.483395,549.876972 809.30453,546.147461 C811.125666,542.41795 813.759184,539.560882 817.205165,537.576172 C820.651146,535.591461 824.696841,534.599121 829.342372,534.599121 C834.227813,534.599121 838.742416,535.624176 842.886317,537.674316 L840.072841,544.18457 C838.4589,543.42122 836.752293,542.750573 834.952968,542.172607 C833.153642,541.594642 831.261653,541.305664 829.276942,541.305664 Z M893.856044,559.135254 C893.856044,566.921426 891.90953,572.973611 888.016444,577.291992 C884.123358,581.610373 878.610962,583.769531 871.479091,583.769531 C864.259979,583.769531 858.714869,581.62673 854.843593,577.341064 C850.972317,573.055398 849.036708,566.965046 849.036708,559.069824 C849.036708,551.174602 850.983222,545.111512 854.876308,540.880371 C858.769393,536.64923 864.325409,534.533691 871.54452,534.533691 C878.654582,534.533691 884.150621,536.681945 888.032802,540.978516 C891.914983,545.275087 893.856044,551.327272 893.856044,559.135254 Z M857.346278,559.135254 C857.346278,565.023955 858.534906,569.489487 860.912196,572.531982 C863.289487,575.574478 866.81175,577.095703 871.479091,577.095703 C876.124622,577.095703 879.630527,575.590835 881.996913,572.581055 C884.363299,569.571274 885.546474,565.089385 885.546474,559.135254 C885.546474,553.268363 884.374203,548.819188 882.029628,545.787598 C879.685052,542.756007 876.190051,541.240234 871.54452,541.240234 C866.855369,541.240234 863.316749,542.756007 860.928554,545.787598 C858.540358,548.819188 857.346278,553.268363 857.346278,559.135254 Z M904.128505,583.115234 L904.128505,535.286133 L911.947352,535.286133 L911.947352,576.408691 L932.197841,576.408691 L932.197841,583.115234 L904.128505,583.115234 Z M967.497157,583.115234 L940.441981,583.115234 L940.441981,535.286133 L967.497157,535.286133 L967.497157,541.894531 L948.260829,541.894531 L948.260829,554.915039 L966.286708,554.915039 L966.286708,561.458008 L948.260829,561.458008 L948.260829,576.474121 L967.497157,576.474121 L967.497157,583.115234 Z" id="path-2"></path>
        <path d="M8.34033203,434.115234 L8.34033203,384.144531 L18.9360352,384.144531 L18.9360352,425.365234 L39.2045898,425.365234 L39.2045898,434.115234 L8.34033203,434.115234 Z M61.8686523,384.144531 L62.347168,384.896484 C61.2078394,389.385439 59.2026511,394.842741 56.331543,401.268555 L48.8461914,401.268555 C50.4184649,394.523729 51.5577764,388.815779 52.2641602,384.144531 L61.8686523,384.144531 Z M107.159668,434.115234 L103.536621,422.220703 L85.3188477,422.220703 L81.6958008,434.115234 L70.2797852,434.115234 L87.9165039,383.939453 L100.870605,383.939453 L118.575684,434.115234 L107.159668,434.115234 Z M101.007324,413.333984 C97.6576981,402.555936 95.7721375,396.460619 95.3505859,395.047852 C94.9290344,393.635084 94.6271168,392.518559 94.4448242,391.698242 C93.6928673,394.614923 91.5395686,401.826765 87.9848633,413.333984 L101.007324,413.333984 Z M162.567871,384.144531 L173.266113,384.144531 L156.278809,434.115234 L144.726074,434.115234 L127.772949,384.144531 L138.471191,384.144531 L147.870605,413.880859 C148.394697,415.635425 148.93587,417.68049 149.494141,420.016113 C150.052412,422.351737 150.399902,423.975256 150.536621,424.886719 C150.787273,422.790354 151.641757,419.121771 153.100098,413.880859 L162.567871,384.144531 Z M219.343262,434.115234 L215.720215,422.220703 L197.502441,422.220703 L193.879395,434.115234 L182.463379,434.115234 L200.100098,383.939453 L213.054199,383.939453 L230.759277,434.115234 L219.343262,434.115234 Z M213.190918,413.333984 C209.841292,402.555936 207.955731,396.460619 207.53418,395.047852 C207.112628,393.635084 206.810711,392.518559 206.628418,391.698242 C205.876461,394.614923 203.723162,401.826765 200.168457,413.333984 L213.190918,413.333984 Z M293.379395,434.115234 L279.912598,434.115234 L258.174316,396.3125 L257.866699,396.3125 C258.299644,402.988966 258.516113,407.751288 258.516113,410.599609 L258.516113,434.115234 L249.04834,434.115234 L249.04834,384.144531 L262.412598,384.144531 L284.116699,421.571289 L284.355957,421.571289 C284.014158,415.077116 283.843262,410.485691 283.843262,407.796875 L283.843262,384.144531 L293.379395,384.144531 L293.379395,434.115234 Z M337.234863,434.115234 L326.63916,434.115234 L326.63916,392.962891 L313.069824,392.962891 L313.069824,384.144531 L350.804199,384.144531 L350.804199,392.962891 L337.234863,392.962891 L337.234863,434.115234 Z M363.487793,419.623047 L363.487793,411.078125 L381.842285,411.078125 L381.842285,419.623047 L363.487793,419.623047 Z M421.186035,406.053711 L441.010254,406.053711 L441.010254,431.961914 C437.797347,433.010096 434.772475,433.744952 431.935547,434.166504 C429.098619,434.588055 426.199071,434.798828 423.236816,434.798828 C415.694461,434.798828 409.935241,432.582867 405.958984,428.150879 C401.982728,423.718891 399.994629,417.355836 399.994629,409.061523 C399.994629,400.995077 402.301735,394.706077 406.916016,390.194336 C411.530297,385.682595 417.927531,383.426758 426.10791,383.426758 C431.234889,383.426758 436.179501,384.452138 440.941895,386.50293 L437.421387,394.979492 C433.775535,393.156566 429.981628,392.245117 426.039551,392.245117 C421.45945,392.245117 417.790867,393.783188 415.033691,396.859375 C412.276516,399.935562 410.897949,404.071263 410.897949,409.266602 C410.897949,414.689806 412.008778,418.831203 414.230469,421.690918 C416.45216,424.550633 419.682108,425.980469 423.92041,425.980469 C426.130708,425.980469 428.375151,425.752606 430.653809,425.296875 L430.653809,414.87207 L421.186035,414.87207 L421.186035,406.053711 Z M495.495605,434.115234 L491.872559,422.220703 L473.654785,422.220703 L470.031738,434.115234 L458.615723,434.115234 L476.252441,383.939453 L489.206543,383.939453 L506.911621,434.115234 L495.495605,434.115234 Z M489.343262,413.333984 C485.993636,402.555936 484.108075,396.460619 483.686523,395.047852 C483.264972,393.635084 482.963054,392.518559 482.780762,391.698242 C482.028805,394.614923 479.875506,401.826765 476.320801,413.333984 L489.343262,413.333984 Z M535.796387,406.327148 L539.214355,406.327148 C542.563982,406.327148 545.036288,405.768886 546.631348,404.652344 C548.226408,403.535802 549.023926,401.781262 549.023926,399.388672 C549.023926,397.018868 548.209318,395.332687 546.580078,394.330078 C544.950838,393.327469 542.427263,392.826172 539.009277,392.826172 L535.796387,392.826172 L535.796387,406.327148 Z M535.796387,414.94043 L535.796387,434.115234 L525.200684,434.115234 L525.200684,384.144531 L539.76123,384.144531 C546.551629,384.144531 551.575993,385.380684 554.834473,387.853027 C558.092952,390.32537 559.722168,394.079402 559.722168,399.115234 C559.722168,402.054702 558.913257,404.669422 557.29541,406.959473 C555.677564,409.249523 553.387547,411.043939 550.425293,412.342773 C557.944862,423.576554 562.843901,430.833968 565.122559,434.115234 L553.364746,434.115234 L541.436035,414.94043 L535.796387,414.94043 Z M624.871582,408.651367 C624.871582,416.87732 622.530297,423.177712 617.847656,427.552734 C613.165016,431.927756 606.403202,434.115234 597.562012,434.115234 L583.411621,434.115234 L583.411621,384.144531 L599.100098,384.144531 C607.257691,384.144531 613.592263,386.29783 618.104004,390.604492 C622.615745,394.911154 624.871582,400.926719 624.871582,408.651367 Z M613.865723,408.924805 C613.865723,398.192329 609.126187,392.826172 599.646973,392.826172 L594.007324,392.826172 L594.007324,425.365234 L598.553223,425.365234 C608.761607,425.365234 613.865723,419.885146 613.865723,408.924805 Z M676.007324,434.115234 L647.228027,434.115234 L647.228027,384.144531 L676.007324,384.144531 L676.007324,392.826172 L657.82373,392.826172 L657.82373,403.797852 L674.742676,403.797852 L674.742676,412.479492 L657.82373,412.479492 L657.82373,425.365234 L676.007324,425.365234 L676.007324,434.115234 Z M770.075684,408.651367 C770.075684,416.87732 767.734398,423.177712 763.051758,427.552734 C758.369117,431.927756 751.607303,434.115234 742.766113,434.115234 L728.615723,434.115234 L728.615723,384.144531 L744.304199,384.144531 C752.461792,384.144531 758.796364,386.29783 763.308105,390.604492 C767.819847,394.911154 770.075684,400.926719 770.075684,408.651367 Z M759.069824,408.924805 C759.069824,398.192329 754.330288,392.826172 744.851074,392.826172 L739.211426,392.826172 L739.211426,425.365234 L743.757324,425.365234 C753.965709,425.365234 759.069824,419.885146 759.069824,408.924805 Z M821.211426,434.115234 L792.432129,434.115234 L792.432129,384.144531 L821.211426,384.144531 L821.211426,392.826172 L803.027832,392.826172 L803.027832,403.797852 L819.946777,403.797852 L819.946777,412.479492 L803.027832,412.479492 L803.027832,425.365234 L821.211426,425.365234 L821.211426,434.115234 Z M873.819824,434.115234 L873.819824,384.144531 L884.415527,384.144531 L884.415527,425.365234 L904.684082,425.365234 L904.684082,434.115234 L873.819824,434.115234 Z M955.956543,434.115234 L952.333496,422.220703 L934.115723,422.220703 L930.492676,434.115234 L919.07666,434.115234 L936.713379,383.939453 L949.66748,383.939453 L967.372559,434.115234 L955.956543,434.115234 Z M949.804199,413.333984 C946.454573,402.555936 944.569013,396.460619 944.147461,395.047852 C943.725909,393.635084 943.423992,392.518559 943.241699,391.698242 C942.489742,394.614923 940.336444,401.826765 936.781738,413.333984 L949.804199,413.333984 Z" id="path-3"></path>
    </defs>
    <g id="Page-1" stroke="none" stroke-width="1" fill="none" fill-rule="evenodd">
        <g id="Group" fill="#FFFFFF" fill-rule="nonzero">
            <path d="M7,9 L7,809 L1092,809 L1092,9 L7,9 Z M0,0 L1101,0 L1101,817 L0,817 L0,0 Z" id="Rectangle"></path>
            <g id="Group-2" transform="translate(63.948730, 108.884766)">
                <path d="M475.121333,0.361869053 C477.778014,0.589078496 480.402895,1.09689755 482.951705,1.87676122 C484.969137,2.55761163 485.704303,3.06824944 485.123009,3.40867464 C482.872871,4.63672869 480.954706,6.38872922 479.532329,8.51505273 C478.232898,10.5007642 477.089696,12.5835706 476.112952,14.744834 C475.172624,16.8724915 474.232295,18.9150428 473.27487,20.889509 C472.36119,22.8130472 471.015822,24.5018777 469.342587,25.8256744 C468.128279,26.7681999 466.712733,27.4204309 465.205141,27.7320556 C463.750269,28.0363047 462.260209,28.1394029 460.777049,28.0384383 C459.330072,27.937071 457.897618,27.6860742 456.502828,27.2895028 C455.278049,26.9358479 454.073747,26.5153544 452.895386,26.0299296 C451.030653,28.6272442 449.421801,31.3975055 448.091162,34.3022621 C447.749225,35.08524 447.065349,35.1873676 446.056633,34.625666 C445.047917,34.0639644 444.671786,33.451199 444.928239,32.8043912 C446.575719,28.626646 449.086157,24.8399528 452.296995,21.6895082 C455.243237,18.7264889 458.47919,16.0636467 461.956734,13.7405796 C465.770461,11.3065525 469.772312,9.17787809 473.924551,7.37462829 C470.801447,7.46320166 467.700965,7.93193308 464.692235,8.77037163 C461.704847,9.73884059 458.837124,11.0407381 456.143794,12.651219 C452.818881,14.6945658 449.917259,17.3522496 447.595353,20.4809987 C447.595353,19.6980207 447.492771,18.6256813 447.475674,17.2639805 C447.490172,15.7607506 447.708711,14.2663703 448.125356,12.8214316 C448.633919,11.1133756 449.39448,9.48999178 450.382144,8.00441492 C451.598096,6.23015788 453.184318,4.73804058 455.032496,3.62995103 C457.956323,1.79310875 461.281266,0.683858464 464.726429,0.395911573 C468.18126,0.0334198376 471.664182,0.0220135323 475.121333,0.361869053 Z M377.156197,60.3618116 C375.393703,60.2641257 373.653961,60.7952061 372.249392,61.8596825 C371.090857,62.8595118 370.460072,64.3352998 370.539704,65.8596786 C370.511805,67.3084305 371.037309,68.7137175 372.010036,69.7915898 C373.57932,71.2601656 375.444183,72.3799358 377.481038,73.076693 C379.414527,72.4072841 381.168848,71.3069504 382.610103,69.8596748 C383.58906,68.7573443 384.119486,67.3309202 384.097532,65.8596786 C384.162772,64.3160526 383.490705,62.8326843 382.285262,61.8596825 C380.815237,60.7564001 378.991916,60.2239248 377.156197,60.3618116 L377.156197,60.3618116 Z M345.800515,60.5490454 C343.699898,60.4202339 341.656702,61.261522 340.261125,62.8298943 C338.865877,64.657162 338.174413,66.9216538 338.312081,69.2128669 C338.192115,71.252239 338.831225,73.2641044 340.107253,74.8639253 C341.526781,76.3487157 343.542696,77.1177526 345.595353,76.9575403 C347.043638,76.9722708 348.476219,76.657915 349.784089,76.0383923 C351.005707,75.4919606 352.061223,74.6348453 352.844431,73.5532883 C353.558718,72.5608526 353.941501,71.369947 353.938631,70.1490362 C353.955898,68.4769106 353.605787,66.8212409 352.912818,65.297977 C352.275274,63.9299019 351.284025,62.755063 350.040542,61.893725 C348.803235,61.0150601 347.32033,60.5447727 345.800515,60.5490454 Z M605.895386,60.5490454 C603.35499,60.4321777 600.993734,61.8493815 599.911477,64.1405313 C598.663405,66.540529 598.03082,70.4043551 598.03082,75.6979671 C598.03082,80.991579 598.663405,84.8724264 599.911477,87.2894453 C601.115911,89.4566999 603.40752,90.8017966 605.895386,90.8017966 C608.383253,90.8017966 610.674862,89.4566999 611.879295,87.2894453 C613.133066,84.8383839 613.754253,80.991579 613.743009,75.7490309 C613.743009,70.523504 613.127367,66.6766991 611.879295,64.2426589 C610.825748,61.9056449 608.449056,60.4427935 605.878289,60.5490454 L605.895386,60.5490454 Z M547.25308,60.5490454 C544.711497,60.4275067 542.347832,61.846156 541.269171,64.1405313 C540.004002,66.540529 539.388514,70.4043551 539.388514,75.6979671 C539.388514,80.991579 540.004002,84.8724264 541.269171,87.2894453 C542.425858,89.5170897 544.734248,90.9161495 547.25308,90.9161495 C549.771912,90.9161495 552.080302,89.5170897 553.236989,87.2894453 C554.49076,84.8383839 555.111947,80.991579 555.100703,75.7490309 C555.100703,70.523504 554.485061,66.6766991 553.236989,64.2426589 C552.189507,61.9083403 549.818989,60.4451201 547.25308,60.5490454 L547.25308,60.5490454 Z M376.284256,76.6171151 C374.243826,77.3874364 372.399146,78.5962853 370.881642,80.1575373 C369.754519,81.42943 369.144833,83.0743702 369.171953,84.7702988 C369.079264,86.5673188 369.854322,88.3003226 371.257773,89.4341241 C372.962869,90.6587883 375.040278,91.2600152 377.139101,91.1362502 C379.217993,91.271398 381.277676,90.6682882 382.952041,89.4341241 C384.348468,88.2448306 385.112477,86.4784099 385.020763,84.65115 C385.033334,83.0309611 384.371017,81.4780122 383.191397,80.3617924 C381.186223,78.6802006 378.868318,77.4078108 376.369741,76.6171151 L376.284256,76.6171151 Z M575.958745,57.0086233 C578.8897,56.8375993 581.77758,57.7736804 584.045571,59.6298974 C586.031044,61.4529717 587.101882,64.0589988 586.969137,66.7447842 C586.933773,69.1456731 586.261365,71.4945628 585.020093,73.5532883 C583.128774,76.5017647 580.864857,79.1961514 578.283921,81.5703019 L569.73548,89.9447619 L569.73548,90.1319958 L588.542051,90.1319958 L588.542051,93.9788006 L564.452543,93.9788006 L564.452543,90.4213572 L574.095185,80.7703026 L575.411645,79.4256231 C577.004527,77.8497084 578.505794,76.1845926 579.908125,74.4383938 C580.74534,73.300884 581.429331,72.0591227 581.942654,70.7447803 C582.412796,69.5106604 582.650423,68.2008363 582.643626,66.8809543 C582.748246,65.1676967 582.128323,63.4889662 580.933938,62.2511715 C579.5784,61.0546446 577.801378,60.4424778 575.992939,60.5490454 C574.523006,60.5357935 573.062973,60.7895923 571.684525,61.2979809 C570.036553,61.9593539 568.50221,62.8724424 567.136754,64.0043613 L564.931256,61.1958533 C567.981005,58.5241169 571.896495,57.0373727 575.958745,57.0086233 L575.958745,57.0086233 Z M517.299342,57.0086233 C520.230736,56.8341993 523.119833,57.7706748 525.386167,59.6298974 C527.371641,61.4529717 528.442479,64.0589988 528.309734,66.7447842 C528.274369,69.1456731 527.601962,71.4945628 526.36069,73.5532883 C524.471791,76.4986653 522.21395,79.1926585 519.641615,81.5703019 L511.093174,89.9447619 L511.093174,90.1319958 L529.899744,90.1319958 L529.899744,93.9788006 L505.79314,93.9788006 L505.79314,90.4213572 L515.435782,80.7703026 C517.502293,78.7806059 519.443622,76.6659583 521.248722,74.4383938 C522.109873,73.3046657 522.816951,72.0627361 523.351638,70.7447803 C523.829996,69.5129436 524.067907,68.2015588 524.05261,66.8809543 C524.165805,65.1664538 523.544649,63.4843833 522.342922,62.2511715 C520.991669,61.0589198 519.22166,60.4470518 517.41902,60.5490454 C515.943537,60.5360015 514.477934,60.7897616 513.093509,61.2979809 C511.405221,61.9517878 509.830294,62.864996 508.42606,64.0043613 L506.220562,61.1958533 C509.28523,58.5152888 513.219977,57.0281496 517.299342,57.0086233 Z M325.250063,57.5192611 L325.250063,93.9788006 L321.198102,93.9788006 L321.198102,68.0043574 C321.198102,65.8426574 321.198102,63.8001061 321.386167,61.8596825 C321.163908,62.0979801 320.907455,62.3362778 320.633904,62.5915967 L320.086804,63.0852132 L314.256767,67.8171236 L312.05127,65.0426581 L321.745202,57.5873461 L325.250063,57.5192611 Z M377.207488,57.0086233 C380.040129,56.8523857 382.840715,57.6696162 385.140442,59.3235147 C387.093901,60.8646431 388.187328,63.2443524 388.081105,65.7235086 C388.083242,67.5080093 387.480895,69.2410924 386.371417,70.6426528 C384.923495,72.3796809 383.092113,73.7602483 381.020093,74.6766915 C383.43508,75.6861488 385.599741,77.2080697 387.363036,79.1362617 C388.599485,80.662214 389.258974,82.5716945 389.226596,84.5320012 C389.339218,87.3016841 388.166622,89.9691519 386.046576,91.7660368 C383.570077,93.6863629 380.478347,94.6478771 377.344263,94.4724172 C374.129653,94.6818539 370.940982,93.7799882 368.317109,91.9192281 C366.181654,90.1364523 365.015774,87.4554343 365.171283,84.6851925 C365.171283,80.4979625 367.718718,77.263923 372.830686,74.9320104 C370.870122,73.9364392 369.171824,72.4963562 367.87259,70.7277591 C366.857839,69.2191075 366.332679,67.4367102 366.368065,65.621381 C366.27553,63.1689541 367.368958,60.8208871 369.308728,59.3064934 C371.595789,57.6547529 374.38695,56.8427613 377.207488,57.0086233 Z M405.861863,57.0086233 C408.819522,56.823194 411.748539,57.6787329 414.136754,59.4256422 C416.120394,61.0639474 417.215717,63.5348571 417.094515,66.0979763 C417.192593,68.1941119 416.490158,70.2495287 415.128373,71.8511623 C413.652411,73.4271984 411.691453,74.469215 409.554789,74.8128615 L409.554789,75.0171167 C411.994195,75.1457463 414.311178,76.1214409 416.102895,77.7745608 C417.561526,79.3828199 418.323425,81.4993602 418.222909,83.6639169 C418.38993,86.76291 417.039198,89.7505548 414.59837,91.6809305 C411.577885,93.7037898 407.974299,94.6844133 404.34024,94.4724172 C402.550947,94.4663722 400.765774,94.3011766 399.006013,93.9788006 C397.376201,93.6830745 395.794446,93.1676989 394.30437,92.4468872 L394.30437,88.5660399 C397.502214,90.114765 401.006502,90.9346302 404.5625,90.9660376 C410.888346,90.9660376 414.05127,88.4979548 414.05127,83.5617893 C414.05127,79.1362617 410.563506,76.9234978 403.587978,76.9234978 L399.84376,76.9234978 L399.84376,73.3660544 L403.502493,73.3660544 C405.929196,73.5063215 408.334166,72.8418943 410.341246,71.4766945 C411.994141,70.2563108 412.929672,68.2978334 412.837391,66.2511676 C412.901579,64.6433193 412.213254,63.0967241 410.973831,62.0639376 C409.537307,60.9835453 407.761848,60.4466273 405.964444,60.5490454 C404.430013,60.5346755 402.902314,60.7527728 401.43377,61.1958533 C399.715872,61.7713041 398.082915,62.5727219 396.578256,63.5788298 L394.458242,60.7873431 C396.00308,59.5880553 397.736026,58.6506529 399.587307,58.0128776 C401.601037,57.3280873 403.7169,56.9885143 405.844766,57.0086233 L405.861863,57.0086233 Z M547.25308,57.0086233 C550.910874,56.8367093 554.374106,58.655174 556.297331,61.7575549 C558.360354,64.9802469 559.391866,69.6270509 559.391866,75.6979671 C559.391866,81.9958334 558.400247,86.7107225 556.399912,89.8085919 C554.318921,92.7546046 550.920709,94.4992678 547.303198,94.4790774 C543.685687,94.4585344 540.307511,92.6757199 538.26012,89.7064643 C536.208494,86.5178149 535.182681,81.8483158 535.182681,75.6979671 C535.182681,69.3547107 536.1743,64.6454954 538.157538,61.570321 C540.124011,58.5034707 543.605103,56.7380511 547.25308,56.9575595 L547.25308,57.0086233 Z M345.800515,57.0086233 C348.117657,56.9576727 350.393596,57.6237557 352.314427,58.9150044 C354.270887,60.2949199 355.765918,62.2280838 356.605745,64.4639353 C357.667541,67.2094479 358.178679,70.1354926 358.110271,73.076693 C358.110271,87.3405091 352.570881,94.4724172 341.492101,94.4724172 C339.937762,94.5237326 338.383882,94.3575726 336.875943,93.9788006 L336.875943,90.4213572 C338.354787,90.8707945 339.894739,91.0889942 341.44081,91.0681651 C344.881328,91.3006008 348.235288,89.9297359 350.519255,87.3575304 C352.548085,84.8837739 353.687877,81.0993803 353.938631,76.0043498 L353.647984,76.0043498 C352.7448,77.371023 351.478169,78.4611639 349.989251,79.1532829 C348.384834,79.8994504 346.630783,80.271993 344.860187,80.2426436 C341.998657,80.3809383 339.207338,79.333432 337.149493,77.3490293 C335.14539,75.1453261 334.116365,72.2314036 334.294313,69.2639307 C334.112567,65.97466 335.250244,62.7481546 337.457237,60.2937265 C339.653385,58.0835765 342.680006,56.8918669 345.800515,57.0086233 L345.800515,57.0086233 Z M605.895386,57.0086233 C609.567993,56.848435 613.038219,58.6866901 614.956734,61.8086187 C617.019758,65.0313106 618.05127,69.6781147 618.05127,75.7490309 C618.05127,82.0468972 617.05965,86.7617863 615.059315,89.8596556 C613.072565,92.9486923 609.55447,94.7162652 605.878289,94.4724172 C602.23766,94.6303257 598.798879,92.8044216 596.902426,89.7064643 C594.839402,86.5178149 593.80789,81.8483158 593.80789,75.6979671 C593.80789,69.349037 594.816606,64.6341479 596.799845,61.570321 C598.758182,58.5034295 602.234721,56.7369987 605.878289,56.9575595 L605.895386,57.0086233 Z M527.232631,12.2767513 C527.56052,12.6134551 527.56052,13.1485569 527.232631,13.4852607 L461.768668,78.6596664 L527.232631,143.902157 C527.567834,144.235878 527.567834,144.776946 527.232631,145.110666 C526.897427,145.444387 526.353955,145.444387 526.018752,145.110667 L460.554789,79.8681758 L396.732128,143.340455 C396.515289,143.556335 396.19924,143.640645 395.903033,143.561628 C395.606826,143.482611 395.375462,143.25227 395.296094,142.957373 C395.216725,142.662477 395.301411,142.347825 395.518249,142.131946 L459.340911,78.6596664 L395.586637,15.1193017 C395.251433,14.785581 395.251433,14.2445129 395.586637,13.9107922 C395.92184,13.5770716 396.465312,13.5770716 396.800515,13.9107922 L460.554789,77.4511569 L526.087139,12.2767513 C526.41542,11.9920314 526.90435,11.9920314 527.232631,12.2767513 Z M465.837726,122.20005 C465.651532,122.388538 465.490624,122.600225 465.359013,122.829837 C465.247946,122.975617 465.198829,123.158993 465.222238,123.340475 C465.410304,125.348983 466.008695,126.046855 466.931927,125.417068 C467.855158,124.787282 468.641615,124.651112 468.829681,124.957494 C469.787106,126.012812 469.513556,126.897918 467.991933,127.629832 C466.470311,128.361746 466.282245,129.672383 467.171283,131.561743 C467.483303,132.330299 468.019198,132.988312 468.710002,133.451103 C469.316558,133.783214 470.001299,133.947765 470.693241,133.927699 C471.479697,133.927699 472.026798,134.455358 472.402929,135.425569 C472.679503,136.163703 472.879997,136.927914 473.00132,137.706418 C473.087584,138.53256 473.087584,139.36538 473.00132,140.191522 C472.967862,141.084122 472.782882,141.964644 472.45422,142.795775 C472.189231,143.324914 472.146183,143.937169 472.334541,144.497901 C472.468262,144.916792 472.703071,145.296668 473.018417,145.604283 C474.011841,144.324372 474.791226,142.893199 475.326496,141.365989 C475.891801,139.787473 476.175326,138.122656 476.164243,136.446845 C476.157993,130.002221 472.034531,124.275435 465.906114,122.20005 L465.837726,122.20005 Z M458.998973,121.553242 C457.648908,121.731053 456.33083,122.097795 455.083787,122.642603 C453.86373,123.180424 452.715211,123.866487 451.664411,124.685154 C450.624327,125.513431 449.698778,126.474949 448.911813,127.544726 C448.072562,128.61942 447.387803,129.805287 446.877284,131.068127 L449.219556,131.272382 C450.228273,131.374509 450.826663,131.663871 450.929245,132.140466 C451.070246,132.710356 450.886519,133.311361 450.450532,133.706422 C449.934143,134.364279 449.678589,135.188125 449.732463,136.021314 C449.62768,136.965389 450.21878,137.848117 451.134407,138.114929 C451.963736,138.257273 452.565683,138.979303 452.553449,139.817055 C452.554675,140.643548 452.658033,141.466752 452.861192,142.268116 C453.010059,142.825469 453.107348,143.395224 453.151839,143.970242 C453.439053,144.708816 453.875481,145.380839 454.434106,145.944708 C455.28895,147.000026 455.938631,147.527685 456.366053,147.527685 C456.793475,147.527685 456.947347,146.91492 456.776378,145.723432 C456.645014,144.907358 456.582108,144.081813 456.588313,143.255349 C456.640115,142.768903 456.720033,142.285833 456.827669,141.808542 C456.89197,141.369191 456.994948,140.936319 457.135413,140.514926 C457.295173,139.330989 458.117503,138.340636 459.255426,137.961737 C460.192889,137.794132 460.972412,137.147403 461.307052,136.259611 C461.857045,135.308901 461.975147,134.170239 461.631893,133.127699 C461.246651,132.402243 460.650884,131.809112 459.922205,131.425573 C459.223882,131.047439 458.466826,130.788532 457.682513,130.659617 C457.187323,130.590787 456.696432,130.49418 456.212181,130.370255 C455.719175,130.190749 455.198404,130.098577 454.673462,130.097915 C454.224564,130.07513 453.774812,130.121055 453.339905,130.234085 C452.947276,130.295555 452.551118,130.146845 452.296995,129.842596 C451.930035,129.566354 451.704691,129.142587 451.681508,128.68515 C451.681508,128.310683 452.074736,127.766002 452.861192,127.085152 C453.525503,126.566638 454.102627,125.946101 454.570881,125.246856 C454.796128,124.797251 455.162188,124.43281 455.61379,124.208559 C456.156861,123.944758 456.648836,123.587493 457.067025,123.153241 C457.375673,122.88013 457.720905,122.650993 458.092838,122.47239 C458.484784,122.285329 458.790451,121.956669 458.947683,121.553242 L458.998973,121.553242 Z M465.017076,147.714919 C464.245377,147.813769 463.491449,148.020039 462.777384,148.327685 C462.17175,148.609063 461.542442,148.83689 460.896727,149.008535 C460.366724,149.127684 459.905108,149.263854 459.477686,149.383003 C459.052761,149.521154 458.608226,149.590125 458.161226,149.587258 C457.817883,149.581659 457.490662,149.732015 457.272188,149.995768 C457.021514,150.314822 456.69954,150.571262 456.33186,150.744704 C457.869913,151.228413 459.471876,151.480839 461.084793,151.493639 C462.579231,151.497336 464.065883,151.27934 465.495788,150.846831 C466.890524,150.428742 468.211396,149.797068 469.410975,148.974493 C468.97418,148.310522 468.241487,147.898223 467.444833,147.868111 C466.626274,147.729704 465.795253,147.678351 464.965785,147.714919 L465.017076,147.714919 Z M461.084793,118.778756 C463.435713,118.778756 465.762179,119.253777 467.923546,120.17452 C470.024941,121.070236 471.934362,122.35874 473.54842,123.970261 C475.163218,125.580376 476.456909,127.480564 477.361025,129.570256 C479.230714,133.965699 479.230714,138.927991 477.361025,143.323434 C475.539071,147.542483 472.161339,150.905275 467.923546,152.71917 C463.508575,154.580589 458.524236,154.580589 454.109265,152.71917 C452.046813,151.807911 450.173824,150.520514 448.586972,148.923429 C446.939431,147.329022 445.615939,145.433472 444.688883,143.340455 C442.819193,138.945013 442.819193,133.98272 444.688883,129.587277 C446.510837,125.368228 449.888569,122.005437 454.126362,120.191541 C456.307655,119.255891 458.658367,118.775084 461.033502,118.778756 L461.084793,118.778756 Z" id="Shape"></path>
                <g id="PLUSDE35ANSÀ">
                    <use xlink:href="#path-1"></use>
                    <use xlink:href="#path-1"></use>
                </g>
                <g id="TRANSFORMATIONAGRICOLE">
                    <use xlink:href="#path-2"></use>
                    <use xlink:href="#path-2"></use>
                </g>
                <g id="L’AVANT-GARDEDELA">
                    <use xlink:href="#path-3"></use>
                    <use xlink:href="#path-3"></use>
                </g>
            </g>
        </g>
    </g>
</svg>