<svg xmlns="http://www.w3.org/2000/svg" width="1062" height="735" viewBox="0 0 1062 735">
  <g fill="none" fill-rule="evenodd" transform="translate(-4)">
    <path fill="#FFF" fill-rule="nonzero" d="M11,8 L11,728 L1058,728 L1058,8 L11,8 Z M4,0 L1066,0 L1066,735 L4,735 L4,0 Z"/>
    <path fill="#FFF" d="M94.9492188 279L94.9492188 184.055664 115.081055 184.055664 115.081055 279 94.9492188 279zM223.208496 279L197.621582 279 156.318848 207.174805 155.734375 207.174805C156.55697 219.860089 156.968262 228.908502 156.968262 234.320312L156.968262 279 138.979492 279 138.979492 184.055664 164.371582 184.055664 205.609375 255.166504 206.063965 255.166504C205.414548 242.827575 205.089844 234.103867 205.089844 228.995117L205.089844 184.055664 223.208496 184.055664 223.208496 279zM301.268066 184.055664L321.594727 184.055664 289.318848 279 267.368652 279 235.157715 184.055664 255.484375 184.055664 273.343262 240.554688C274.339035 243.888363 275.367264 247.773985 276.427979 252.21167 277.488693 256.649355 278.148924 259.734041 278.408691 261.46582 278.884931 257.482727 280.50845 250.51242 283.279297 240.554688L301.268066 184.055664zM388.224609 279L333.543945 279 333.543945 184.055664 388.224609 184.055664 388.224609 200.550781 353.675781 200.550781 353.675781 221.396973 385.821777 221.396973 385.821777 237.89209 353.675781 237.89209 353.675781 262.375 388.224609 262.375 388.224609 279zM464.076172 252.633789C464.076172 261.206098 460.991486 267.959936 454.822021 272.895508 448.652557 277.831079 440.069554 280.298828 429.072754 280.298828 418.941844 280.298828 409.980019 278.393899 402.187012 274.583984L402.187012 255.880859C408.594596 258.738296 414.017149 260.751459 418.454834 261.92041 422.892519 263.089361 426.951316 263.673828 430.631348 263.673828 435.047385 263.673828 438.435128 262.829598 440.794678 261.141113 443.154227 259.452628 444.333984 256.941586 444.333984 253.60791 444.333984 251.746247 443.814458 250.090258 442.775391 248.639893 441.736323 247.189527 440.210215 245.793301 438.197021 244.451172 436.183828 243.109043 432.081737 240.965998 425.890625 238.021973 420.089164 235.29442 415.738133 232.675143 412.837402 230.164062 409.936672 227.652982 407.620451 224.730648 405.888672 221.396973 404.156892 218.063297 403.291016 214.166852 403.291016 209.70752 403.291016 201.308389 406.137585 194.706079 411.830811 189.900391 417.524036 185.094703 425.392691 182.691895 435.437012 182.691895 440.372583 182.691895 445.080788 183.276361 449.561768 184.445312 454.042747 185.614264 458.729305 187.259429 463.621582 189.380859L457.127441 205.031738C452.061986 202.953603 447.873308 201.503259 444.561279 200.680664 441.249251 199.858069 437.99139 199.446777 434.787598 199.446777 430.977683 199.446777 428.055349 200.334301 426.020508 202.109375 423.985667 203.884449 422.968262 206.200669 422.968262 209.058105 422.968262 210.833179 423.379553 212.380934 424.202148 213.701416 425.024744 215.021898 426.334382 216.299066 428.131104 217.532959 429.927825 218.766852 434.181444 220.985661 440.89209 224.189453 449.76746 228.432313 455.850244 232.685932 459.140625 236.950439 462.431006 241.214946 464.076172 246.442677 464.076172 252.633789zM517.912598 279L497.780762 279 497.780762 200.810547 471.999023 200.810547 471.999023 184.055664 543.694336 184.055664 543.694336 200.810547 517.912598 200.810547 517.912598 279zM558.306152 279L558.306152 184.055664 578.437988 184.055664 578.437988 279 558.306152 279zM686.56543 279L660.978516 279 619.675781 207.174805 619.091309 207.174805C619.913904 219.860089 620.325195 228.908502 620.325195 234.320312L620.325195 279 602.336426 279 602.336426 184.055664 627.728516 184.055664 668.966309 255.166504 669.420898 255.166504C668.771481 242.827575 668.446777 234.103867 668.446777 228.995117L668.446777 184.055664 686.56543 184.055664 686.56543 279zM746.506348 225.683105L784.172363 225.683105 784.172363 274.908691C778.067841 276.900238 772.320584 278.296464 766.93042 279.097412 761.540256 279.89836 756.031115 280.298828 750.402832 280.298828 736.072357 280.298828 725.129839 276.088502 717.574951 267.667725 710.020063 259.246947 706.242676 247.157143 706.242676 231.397949 706.242676 216.071701 710.626177 204.122601 719.393311 195.550293 728.160444 186.977984 740.315189 182.691895 755.85791 182.691895 765.59917 182.691895 774.993933 184.640117 784.04248 188.536621L777.353516 204.64209C770.426398 201.178531 763.217974 199.446777 755.728027 199.446777 747.025835 199.446777 740.055527 202.369111 734.816895 208.213867 729.578262 214.058623 726.958984 221.916455 726.958984 231.787598 726.958984 242.091686 729.069559 249.960341 733.290771 255.393799 737.511984 260.827257 743.648886 263.543945 751.70166 263.543945 755.901225 263.543945 760.165668 263.111007 764.495117 262.245117L764.495117 242.437988 746.506348 242.437988 746.506348 225.683105zM841.320801 279L841.320801 184.055664 861.452637 184.055664 861.452637 279 841.320801 279zM969.580078 279L943.993164 279 902.69043 207.174805 902.105957 207.174805C902.928552 219.860089 903.339844 228.908502 903.339844 234.320312L903.339844 279 885.351074 279 885.351074 184.055664 910.743164 184.055664 951.980957 255.166504 952.435547 255.166504C951.78613 242.827575 951.461426 234.103867 951.461426 228.995117L951.461426 184.055664 969.580078 184.055664 969.580078 279zM106.257812 378.088867L115.579102 378.088867C121.83076 378.088867 126.360338 376.928397 129.167969 374.607422 131.9756 372.286447 133.379395 368.842471 133.379395 364.275391 133.379395 359.63344 131.863296 356.301768 128.831055 354.280273 125.798813 352.258779 121.231801 351.248047 115.129883 351.248047L106.257812 351.248047 106.257812 378.088867zM106.257812 389.207031L106.257812 422 92.8374023 422 92.8374023 339.905273 116.02832 339.905273C126.622449 339.905273 134.464981 341.889303 139.556152 345.857422 144.647324 349.825541 147.192871 355.815064 147.192871 363.826172 147.192871 374.04595 141.877169 381.326964 131.245605 385.669434L154.436523 422 139.163086 422 119.509766 389.207031 106.257812 389.207031zM234.691406 339.905273L234.691406 393.025391C234.691406 399.089874 233.390557 404.396217 230.788818 408.94458 228.18708 413.492943 224.424911 416.99307 219.502197 419.445068 214.579484 421.897066 208.692905 423.123047 201.842285 423.123047 191.659943 423.123047 183.742541 420.427761 178.089844 415.037109 172.437146 409.646457 169.61084 402.234422 169.61084 392.800781L169.61084 339.905273 183.087402 339.905273 183.087402 391.846191C183.087402 398.621941 184.659652 403.61945 187.804199 406.838867 190.948746 410.058284 195.777799 411.667969 202.291504 411.667969 214.944562 411.667969 221.270996 405.023341 221.270996 391.733887L221.270996 339.905273 234.691406 339.905273zM273.112793 378.088867L282.434082 378.088867C288.685741 378.088867 293.215318 376.928397 296.022949 374.607422 298.83058 372.286447 300.234375 368.842471 300.234375 364.275391 300.234375 359.63344 298.718277 356.301768 295.686035 354.280273 292.653793 352.258779 288.086782 351.248047 281.984863 351.248047L273.112793 351.248047 273.112793 378.088867zM273.112793 389.207031L273.112793 422 259.692383 422 259.692383 339.905273 282.883301 339.905273C293.477429 339.905273 301.319962 341.889303 306.411133 345.857422 311.502304 349.825541 314.047852 355.815064 314.047852 363.826172 314.047852 374.04595 308.73215 381.326964 298.100586 385.669434L321.291504 422 306.018066 422 286.364746 389.207031 273.112793 389.207031zM388.125977 422L379.927734 399.202148 348.538574 399.202148 340.508789 422 326.358398 422 357.07373 339.568359 371.67334 339.568359 402.388672 422 388.125977 422zM376.390137 387.634766L368.697266 365.286133C368.135739 363.788729 367.358973 361.430355 366.366943 358.210938 365.374914 354.99152 364.691734 352.633146 364.317383 351.135742 363.306636 355.740257 361.827972 360.775201 359.881348 366.240723L352.469238 387.634766 376.390137 387.634766zM417.226074 422L417.226074 339.905273 430.646484 339.905273 430.646484 410.48877 465.404785 410.48877 465.404785 422 417.226074 422zM593.177734 422L578.578125 422 564.652344 373.035156C564.053382 370.901357 563.304692 367.822367 562.40625 363.798096 561.507808 359.773824 560.965007 356.975594 560.777832 355.40332 560.403481 357.799166 559.79517 360.906231 558.952881 364.724609 558.110591 368.542988 557.408694 371.388011 556.847168 373.259766L543.258301 422 528.658691 422 518.045898 380.896484 507.264648 339.905273 520.96582 339.905273 532.70166 387.74707C534.535979 395.421262 535.846187 402.196911 536.632324 408.074219 537.04411 404.892237 537.66178 401.335957 538.485352 397.405273 539.308923 393.47459 540.057614 390.292655 540.731445 387.859375L554.095703 339.905273 567.403809 339.905273 581.10498 388.083984C582.415208 392.538759 583.800286 399.202104 585.260254 408.074219 585.82178 402.721002 587.169423 395.907919 589.303223 387.634766L600.98291 339.905273 614.571777 339.905273 593.177734 422zM701.958008 380.840332C701.958008 394.204657 698.616977 404.592736 691.934814 412.004883 685.252652 419.417029 675.791077 423.123047 663.549805 423.123047 651.158792 423.123047 641.641065 419.445105 634.996338 412.089111 628.351611 404.733118 625.029297 394.279527 625.029297 380.728027 625.029297 367.176527 628.370328 356.76973 635.05249 349.507324 641.734653 342.244918 651.271097 338.61377 663.662109 338.61377 675.865946 338.61377 685.299446 342.30107 691.962891 349.675781 698.626335 357.050493 701.958008 367.438572 701.958008 380.840332zM639.291992 380.840332C639.291992 390.947804 641.332174 398.612523 645.412598 403.834717 649.493022 409.056911 655.538697 411.667969 663.549805 411.667969 671.523477 411.667969 677.541077 409.084987 681.602783 403.918945 685.66449 398.752904 687.695312 391.06011 687.695312 380.840332 687.695312 370.770295 685.683207 363.133652 681.658936 357.930176 677.634664 352.726699 671.635782 350.125 663.662109 350.125 655.613567 350.125 649.539815 352.726699 645.440674 357.930176 641.341532 363.133652 639.291992 370.770295 639.291992 380.840332zM759.078125 422L735.269531 353.437988 734.820312 353.437988C735.456709 363.620331 735.774902 373.166134 735.774902 382.075684L735.774902 422 723.589844 422 723.589844 339.905273 742.513184 339.905273 765.311035 405.210449 765.647949 405.210449 789.119629 339.905273 808.099121 339.905273 808.099121 422 795.184082 422 795.184082 381.401855C795.184082 377.321431 795.287027 372.005729 795.49292 365.45459 795.698813 358.90345 795.876627 354.935391 796.026367 353.550293L795.577148 353.550293 770.92627 422 759.078125 422zM880.155762 422L833.717773 422 833.717773 339.905273 880.155762 339.905273 880.155762 351.248047 847.138184 351.248047 847.138184 373.59668 878.078125 373.59668 878.078125 384.827148 847.138184 384.827148 847.138184 410.601074 880.155762 410.601074 880.155762 422zM970.293457 422L953.84082 422 913.467285 356.58252 913.018066 356.58252 913.298828 360.232422C913.822919 367.195347 914.084961 373.559216 914.084961 379.324219L914.084961 422 901.899902 422 901.899902 339.905273 918.184082 339.905273 958.445312 404.98584 958.782227 404.98584C958.707356 404.124833 958.557618 400.989692 958.333008 395.580322 958.108397 390.170953 957.996094 385.95021 957.996094 382.917969L957.996094 339.905273 970.293457 339.905273 970.293457 422zM135.598633 553L92.7919922 553 92.7919922 480.899414 135.598633 480.899414 135.598633 496.532715 112.271973 496.532715 112.271973 507.875488 133.872559 507.875488 133.872559 523.508789 112.271973 523.508789 112.271973 537.120117 135.598633 537.120117 135.598633 553zM220.87207 553L195.326172 553 168.991211 502.204102 168.547363 502.204102C169.172041 510.193399 169.484375 516.292134 169.484375 520.500488L169.484375 553 152.223633 553 152.223633 480.899414 177.670898 480.899414 203.907227 531.004883 204.203125 531.004883C203.742836 523.738896 203.512695 517.90318 203.512695 513.497559L203.512695 480.899414 220.87207 480.899414 220.87207 553zM272.265137 553L252.785156 553 252.785156 496.828613 235.179199 496.828613 235.179199 480.899414 289.821777 480.899414 289.821777 496.828613 272.265137 496.828613 272.265137 553zM323.608887 526.763672L323.608887 553 304.128906 553 304.128906 480.899414 327.751465 480.899414C347.346615 480.899414 357.144043 488.000906 357.144043 502.204102 357.144043 510.555055 353.067261 517.015439 344.913574 521.585449L365.922363 553 343.828613 553 328.540527 526.763672 323.608887 526.763672zM323.608887 512.116699L327.258301 512.116699C334.063999 512.116699 337.466797 509.108429 337.466797 503.091797 337.466797 498.127254 334.129753 495.64502 327.455566 495.64502L323.608887 495.64502 323.608887 512.116699zM419.288086 553L376.481445 553 376.481445 480.899414 419.288086 480.899414 419.288086 496.532715 395.961426 496.532715 395.961426 507.875488 417.562012 507.875488 417.562012 523.508789 395.961426 523.508789 395.961426 537.120117 419.288086 537.120117 419.288086 553zM488.237793 503.831543C488.237793 511.886596 485.86241 518.108621 481.111572 522.497803 476.360735 526.886985 469.612674 529.081543 460.867188 529.081543L455.393066 529.081543 455.393066 553 435.913086 553 435.913086 480.899414 460.867188 480.899414C469.974329 480.899414 476.812803 482.888489 481.382812 486.866699 485.952822 490.844909 488.237793 496.499801 488.237793 503.831543zM455.393066 513.20166L458.943848 513.20166C461.869969 513.20166 464.196036 512.379728 465.922119 510.73584 467.648202 509.091951 468.51123 506.823419 468.51123 503.930176 468.51123 499.064266 465.815294 496.631348 460.42334 496.631348L455.393066 496.631348 455.393066 513.20166zM523.208496 526.763672L523.208496 553 503.728516 553 503.728516 480.899414 527.351074 480.899414C546.946224 480.899414 556.743652 488.000906 556.743652 502.204102 556.743652 510.555055 552.66687 517.015439 544.513184 521.585449L565.521973 553 543.428223 553 528.140137 526.763672 523.208496 526.763672zM523.208496 512.116699L526.85791 512.116699C533.663608 512.116699 537.066406 509.108429 537.066406 503.091797 537.066406 498.127254 533.729363 495.64502 527.055176 495.64502L523.208496 495.64502 523.208496 512.116699zM618.887695 553L576.081055 553 576.081055 480.899414 618.887695 480.899414 618.887695 496.532715 595.561035 496.532715 595.561035 507.875488 617.161621 507.875488 617.161621 523.508789 595.561035 523.508789 595.561035 537.120117 618.887695 537.120117 618.887695 553zM704.161133 553L678.615234 553 652.280273 502.204102 651.836426 502.204102C652.461103 510.193399 652.773438 516.292134 652.773438 520.500488L652.773438 553 635.512695 553 635.512695 480.899414 660.959961 480.899414 687.196289 531.004883 687.492188 531.004883C687.031899 523.738896 686.801758 517.90318 686.801758 513.497559L686.801758 480.899414 704.161133 480.899414 704.161133 553zM766.551758 553L723.745117 553 723.745117 480.899414 766.551758 480.899414 766.551758 496.532715 743.225098 496.532715 743.225098 507.875488 764.825684 507.875488 764.825684 523.508789 743.225098 523.508789 743.225098 537.120117 766.551758 537.120117 766.551758 553zM844.477051 480.899414L844.477051 524.297852C844.477051 533.733771 841.805772 541.040746 836.463135 546.218994 831.120497 551.397243 823.418996 553.986328 813.358398 553.986328 803.527946 553.986328 795.974392 551.471217 790.69751 546.440918 785.420628 541.410619 782.782227 534.177619 782.782227 524.741699L782.782227 480.899414 802.36084 480.899414 802.36084 523.212891C802.36084 528.308945 803.314281 532.007638 805.221191 534.309082 807.128102 536.610526 809.939109 537.76123 813.654297 537.76123 817.632507 537.76123 820.517488 536.618745 822.309326 534.33374 824.101165 532.048735 824.99707 528.308945 824.99707 523.114258L824.99707 480.899414 844.477051 480.899414zM883.097168 526.763672L883.097168 553 863.617188 553 863.617188 480.899414 887.239746 480.899414C906.834896 480.899414 916.632324 488.000906 916.632324 502.204102 916.632324 510.555055 912.555542 517.015439 904.401855 521.585449L925.410645 553 903.316895 553 888.028809 526.763672 883.097168 526.763672zM883.097168 512.116699L886.746582 512.116699C893.55228 512.116699 896.955078 509.108429 896.955078 503.091797 896.955078 498.127254 893.618035 495.64502 886.943848 495.64502L883.097168 495.64502 883.097168 512.116699zM983.116211 531.103516C983.116211 535.574892 981.981945 539.544823 979.713379 543.013428 977.444813 546.482032 974.173524 549.177969 969.899414 551.101318 965.625304 553.024668 960.61152 553.986328 954.85791 553.986328 950.057756 553.986328 946.03029 553.649336 942.775391 552.975342 939.520492 552.301348 936.134132 551.125985 932.616211 549.449219L932.616211 532.089844C936.331399 533.996754 940.194479 535.484451 944.205566 536.552979 948.216654 537.621506 951.898909 538.155762 955.252441 538.155762 958.145685 538.155762 960.266269 537.654383 961.614258 536.651611 962.962246 535.648839 963.63623 534.358406 963.63623 532.780273 963.63623 531.79394 963.364993 530.930912 962.82251 530.191162 962.280027 529.451412 961.408779 528.703454 960.20874 527.947266 959.008702 527.191077 955.811387 525.645845 950.616699 523.311523 945.915178 521.174468 942.389091 519.1032 940.03833 517.097656 937.68757 515.092112 935.945074 512.790703 934.810791 510.193359 933.676508 507.596016 933.109375 504.52199 933.109375 500.971191 933.109375 494.329882 935.525855 489.151711 940.358887 485.436523 945.191919 481.721336 951.833128 479.86377 960.282715 479.86377 967.745968 479.86377 975.357058 481.589826 983.116211 485.041992L977.148926 500.083496C970.408983 496.992986 964.589705 495.447754 959.690918 495.447754 957.15933 495.447754 955.318202 495.891597 954.16748 496.779297 953.016759 497.666997 952.441406 498.768385 952.441406 500.083496 952.441406 501.49724 953.172926 502.763015 954.635986 503.880859 956.099047 504.998704 960.068978 507.037095 966.545898 509.996094 972.759797 512.790704 977.074939 515.790755 979.491455 518.996338 981.907971 522.20192 983.116211 526.237606 983.116211 531.103516z"/>
  </g>
</svg>
