<svg xmlns="http://www.w3.org/2000/svg" viewBox="0 0 1303 926"><g fill="#FFF"><path d="M8 8v910h1287V8H8zM0 0h1303v926H0V0z"/><path d="M102.455 228.483c-2.846 0-5.086-.409-6.72-1.226v-6.585c2.149.606 4.389.909 6.72.909 2.997 0 5.275-.909 6.834-2.725 1.56-1.816 2.339-4.435 2.339-7.856v-66.39h7.72v65.754c0 5.752-1.453 10.21-4.36 13.374-2.906 3.163-7.084 4.745-12.533 4.745zm92.137-50.769c0 10.626-2.686 18.982-8.06 25.067-5.374 6.085-12.843 9.127-22.41 9.127-9.778 0-17.324-2.99-22.637-8.968-5.313-5.98-7.97-14.418-7.97-25.316 0-10.808 2.665-19.186 7.993-25.135 5.328-5.949 12.896-8.923 22.705-8.923 9.536 0 16.983 3.027 22.342 9.082 5.358 6.055 8.037 14.41 8.037 25.066zm-52.903 0c0 8.992 1.915 15.81 5.745 20.458 3.83 4.647 9.392 6.97 16.688 6.97 7.357 0 12.912-2.316 16.666-6.948 3.754-4.632 5.63-11.458 5.63-20.48 0-8.93-1.869-15.704-5.608-20.32-3.738-4.617-9.27-6.926-16.597-6.926-7.357 0-12.95 2.324-16.78 6.97-3.829 4.648-5.744 11.406-5.744 20.276zM209.396 211v-66.39h7.72V211h-7.72zm77.788 0h-8.81l-36.283-55.718h-.363c.484 6.539.727 12.533.727 17.982V211h-7.13v-66.39h8.719l36.192 55.492h.363c-.06-.818-.197-3.444-.409-7.88-.211-4.434-.287-7.605-.227-9.513V144.61h7.22V211zm69.84-55.627c-5.297 0-9.4 1.99-12.306 5.971-2.906 3.981-4.36 9.529-4.36 16.643 0 14.804 5.556 22.205 16.666 22.205 4.663 0 10.308-1.165 16.938-3.496v11.806c-5.449 2.271-11.534 3.406-18.254 3.406-9.658 0-17.044-2.929-22.16-8.787-5.117-5.858-7.675-14.266-7.675-25.225 0-6.902 1.256-12.95 3.77-18.141 2.512-5.192 6.122-9.173 10.83-11.943 4.707-2.77 10.224-4.155 16.551-4.155 6.449 0 12.927 1.559 19.436 4.677l-4.541 11.443a75.167 75.167 0 0 0-7.493-3.088c-2.512-.877-4.98-1.316-7.402-1.316zM413.696 211H399.62v-54.674h-18.028V144.61h50.133v11.716h-18.028V211zm68.887 0l-4.813-15.803h-24.204L448.753 211h-15.167l23.432-66.662h17.21L497.75 211h-15.167zm-8.173-27.61c-4.45-14.319-6.956-22.417-7.516-24.294-.56-1.877-.96-3.36-1.203-4.45-1 3.875-3.86 13.456-8.583 28.745h17.302zM536.036 211v-66.39h7.72V211h-7.72zm77.788 0h-8.81l-36.283-55.718h-.363c.485 6.539.727 12.533.727 17.982V211h-7.13v-66.39h8.72l36.191 55.492h.363c-.06-.818-.197-3.444-.408-7.88-.212-4.434-.288-7.605-.227-9.513V144.61h7.22V211zm79.876-17.665c0 5.843-2.119 10.4-6.357 13.669-4.239 3.27-9.99 4.904-17.256 4.904-7.871 0-13.926-1.014-18.164-3.042v-7.448c2.724 1.15 5.691 2.059 8.9 2.725 3.21.666 6.388 1 9.536 1 5.147 0 9.022-.977 11.625-2.93 2.604-1.953 3.906-4.67 3.906-8.151 0-2.3-.462-4.185-1.385-5.654-.924-1.468-2.468-2.823-4.632-4.064-2.165-1.241-5.457-2.649-9.877-4.223-6.176-2.21-10.588-4.829-13.237-7.856-2.649-3.027-3.973-6.978-3.973-11.852 0-5.116 1.922-9.188 5.767-12.215 3.844-3.028 8.93-4.541 15.258-4.541 6.6 0 12.669 1.21 18.209 3.633l-2.407 6.72c-5.48-2.3-10.807-3.45-15.984-3.45-4.087 0-7.28.877-9.582 2.633-2.3 1.756-3.45 4.193-3.45 7.31 0 2.302.423 4.186 1.27 5.654.848 1.469 2.279 2.816 4.292 4.042s5.093 2.58 9.24 4.064c6.964 2.483 11.755 5.147 14.373 7.992 2.619 2.846 3.928 6.54 3.928 11.08zm63.71-48.725v42.958c0 7.569-2.285 13.517-6.856 17.847-4.572 4.329-10.853 6.493-18.846 6.493-7.992 0-14.175-2.18-18.55-6.539-4.374-4.36-6.561-10.353-6.561-17.982V144.61h7.72v43.322c0 5.54 1.513 9.793 4.54 12.76 3.028 2.967 7.478 4.45 13.351 4.45 5.6 0 9.915-1.49 12.942-4.473 3.027-2.982 4.54-7.258 4.54-12.828v-43.23h7.72zm59.67 19.345c0 6.72-2.294 11.89-6.88 15.508-4.586 3.617-11.148 5.426-19.685 5.426h-7.81V211h-7.72v-66.39h17.21c16.59 0 24.885 6.449 24.885 19.345zm-34.376 14.304h6.948c6.842 0 11.791-1.105 14.849-3.315s4.586-5.752 4.586-10.626c0-4.39-1.438-7.659-4.314-9.808-2.876-2.15-7.356-3.224-13.441-3.224h-8.628v26.973zm90.366-14.304c0 6.72-2.293 11.89-6.88 15.508-4.586 3.617-11.147 5.426-19.685 5.426h-7.81V211h-7.72v-66.39h17.21c16.59 0 24.885 6.449 24.885 19.345zm-34.375 14.304h6.948c6.841 0 11.791-1.105 14.849-3.315 3.057-2.21 4.586-5.752 4.586-10.626 0-4.39-1.438-7.659-4.314-9.808-2.876-2.15-7.356-3.224-13.441-3.224h-8.628v26.973zm105.896-.545c0 10.626-2.686 18.982-8.06 25.067-5.374 6.085-12.843 9.127-22.41 9.127-9.778 0-17.324-2.99-22.637-8.968-5.313-5.98-7.97-14.418-7.97-25.316 0-10.808 2.665-19.186 7.993-25.135 5.328-5.949 12.896-8.923 22.705-8.923 9.536 0 16.983 3.027 22.342 9.082 5.358 6.055 8.037 14.41 8.037 25.066zm-52.903 0c0 8.992 1.915 15.81 5.745 20.458 3.83 4.647 9.392 6.97 16.688 6.97 7.357 0 12.912-2.316 16.666-6.948 3.754-4.632 5.63-11.458 5.63-20.48 0-8.93-1.869-15.704-5.608-20.32-3.738-4.617-9.27-6.926-16.597-6.926-7.357 0-12.95 2.324-16.78 6.97-3.829 4.648-5.744 11.406-5.744 20.276zm75.427 5.677V211h-7.72v-66.39h18.21c8.143 0 14.16 1.56 18.05 4.678 3.89 3.118 5.835 7.81 5.835 14.077 0 8.78-4.45 14.713-13.35 17.8L1006.167 211h-9.127l-16.075-27.61h-13.85zm0-6.63h10.58c5.45 0 9.446-1.083 11.989-3.247 2.543-2.165 3.814-5.411 3.814-9.74 0-4.39-1.294-7.554-3.883-9.491-2.588-1.938-6.743-2.907-12.465-2.907h-10.035v25.385zM1037.319 211h-7.72v-59.533h-21.025v-6.857h49.77v6.857h-21.025V211zm31.015 0v-66.39h7.72V211h-7.72zm77.788 0h-8.81l-36.283-55.718h-.363c.484 6.539.727 12.533.727 17.982V211h-7.13v-66.39h8.719l36.192 55.492h.363c-.06-.818-.197-3.444-.409-7.88-.211-4.434-.287-7.605-.227-9.513V144.61h7.22V211zm47.453-34.784h22.569v32.286a72.555 72.555 0 0 1-10.717 2.543c-3.633.576-7.84.863-12.624.863-10.05 0-17.876-2.99-23.477-8.968-5.6-5.98-8.4-14.357-8.4-25.135 0-6.902 1.384-12.95 4.154-18.141 2.77-5.192 6.759-9.158 11.966-11.898 5.207-2.74 11.307-4.11 18.3-4.11 7.084 0 13.684 1.302 19.799 3.906l-2.997 6.812c-5.994-2.543-11.761-3.815-17.301-3.815-8.083 0-14.395 2.407-18.936 7.22-4.541 4.814-6.812 11.489-6.812 20.026 0 8.961 2.187 15.757 6.562 20.39 4.374 4.631 10.8 6.947 19.276 6.947 4.602 0 9.098-.53 13.487-1.59v-20.434h-14.849v-6.902zM162.993 326.359l25.102-53.988h42.633l-47.913 88.752V418h-39.644v-55.682l-47.912-89.947h42.832l24.902 53.988zm305.654 18.627c0 24.504-6.01 43.131-18.029 55.881-12.02 12.75-29.617 19.125-52.793 19.125-22.844 0-40.358-6.408-52.544-19.224-12.185-12.817-18.278-31.477-18.278-55.98 0-24.24 6.06-42.75 18.179-55.533 12.119-12.783 29.733-19.175 52.842-19.175 23.176 0 40.74 6.342 52.694 19.025 11.953 12.684 17.93 31.31 17.93 55.881zm-100.207 0c0 28.157 9.795 42.235 29.385 42.235 9.961 0 17.349-3.42 22.163-10.26 4.815-6.84 7.222-17.498 7.222-31.975 0-14.543-2.44-25.284-7.321-32.223-4.881-6.94-12.17-10.41-21.865-10.41-19.722 0-29.584 14.211-29.584 42.633zm340.319-72.615v87.656c0 19.059-5.396 33.818-16.187 44.277-10.79 10.459-26.346 15.688-46.667 15.688-19.855 0-35.112-5.08-45.77-15.24-10.658-10.16-15.988-24.77-15.988-43.828V272.37h39.545v85.465c0 10.293 1.926 17.764 5.778 22.412 3.851 4.649 9.529 6.973 17.033 6.973 8.035 0 13.862-2.308 17.481-6.923 3.62-4.615 5.43-12.169 5.43-22.661V272.37h39.345zM967.995 418h-51.598l-53.19-102.598h-.897c1.261 16.137 1.892 28.455 1.892 36.955V418H829.34V272.371h51.398l52.992 101.203h.598c-.93-14.676-1.394-26.463-1.394-35.361V272.37h35.062V418zm179.947-85.266h62.854v78.493c-17.067 5.843-35.826 8.765-56.28 8.765-22.445 0-39.793-6.508-52.045-19.523-12.252-13.016-18.378-31.576-18.378-55.682 0-23.508 6.707-41.803 20.12-54.885 13.415-13.082 32.208-19.623 56.38-19.623 9.164 0 17.813.864 25.948 2.59 8.135 1.727 15.224 3.918 21.267 6.574l-12.452 30.88c-10.492-5.18-22.013-7.77-34.564-7.77-11.488 0-20.37 3.735-26.646 11.206-6.275 7.47-9.413 18.145-9.413 32.024 0 13.614 2.84 23.99 8.517 31.128 5.678 7.139 13.862 10.708 24.554 10.708 5.843 0 11.222-.564 16.136-1.693v-22.81h-25.998v-30.382zM157.658 581h-55.725v-98.514h55.725v13.612h-39.62v26.818h37.127v13.477h-37.128v30.928h39.621V581zm103.365 0H241.28l-48.448-78.501h-.539l.337 4.38c.629 8.355.943 15.992.943 22.91V581h-14.622v-98.514h19.541l48.314 78.097h.404c-.09-1.033-.27-4.795-.54-11.287-.269-6.49-.403-11.556-.403-15.194v-51.616h14.756V581zm60.039 0h-16.105v-84.7h-28.975v-13.814h74.054V496.3h-28.974V581zm60.172-52.693h11.186c7.502 0 12.937-1.393 16.307-4.178 3.369-2.785 5.053-6.918 5.053-12.399 0-5.57-1.819-9.568-5.458-11.994-3.638-2.425-9.119-3.638-16.441-3.638h-10.647v32.209zm0 13.341V581H365.13v-98.514h27.829c12.713 0 22.124 2.381 28.233 7.143 6.11 4.762 9.164 11.95 9.164 21.562 0 12.264-6.378 21.001-19.136 26.212L439.049 581H420.72l-23.584-39.352h-15.903zM509.06 581h-55.726v-98.514h55.726v13.612h-39.622v26.818h37.128v13.477h-37.128v30.928h39.622V581zm86.52-68.73c0 10.287-3.37 18.17-10.108 23.65-6.739 5.481-16.33 8.222-28.773 8.222h-10.242V581h-16.104v-98.514h28.368c12.308 0 21.528 2.516 27.66 7.547 6.132 5.031 9.198 12.444 9.198 22.237zm-49.123 18.328h8.558c8.265 0 14.33-1.438 18.193-4.313 3.863-2.875 5.795-7.367 5.795-13.476 0-5.66-1.73-9.883-5.189-12.668-3.459-2.786-8.85-4.178-16.171-4.178h-11.186v34.635zm84.902-2.291h11.186c7.502 0 12.937-1.393 16.307-4.178 3.369-2.785 5.053-6.918 5.053-12.399 0-5.57-1.819-9.568-5.458-11.994-3.638-2.425-9.119-3.638-16.441-3.638h-10.647v32.209zm0 13.341V581h-16.104v-98.514h27.829c12.713 0 22.124 2.381 28.233 7.143 6.11 4.762 9.164 11.95 9.164 21.562 0 12.264-6.378 21.001-19.136 26.212L689.174 581h-18.328l-23.584-39.352h-15.903zM759.185 581h-55.726v-98.514h55.726v13.612h-39.622v26.818h37.128v13.477h-37.128v30.928h39.622V581zm103.365 0h-19.743l-48.449-78.501h-.539l.337 4.38c.63 8.355.944 15.992.944 22.91V581h-14.622v-98.514h19.54l48.314 78.097h.404c-.09-1.033-.27-4.795-.539-11.287-.27-6.49-.404-11.556-.404-15.194v-51.616h14.757V581zm81.735 0H888.56v-98.514h55.725v13.612h-39.62v26.818h37.127v13.477h-37.128v30.928h39.621V581zm98.514-98.514v63.744c0 7.278-1.561 13.645-4.683 19.103-3.122 5.459-7.637 9.659-13.544 12.601-5.907 2.942-12.971 4.414-21.192 4.414-12.219 0-21.72-3.235-28.503-9.703-6.783-6.47-10.175-15.364-10.175-26.684v-63.475h16.172v62.33c0 8.13 1.887 14.127 5.66 17.99 3.774 3.864 9.568 5.796 17.385 5.796 15.184 0 22.775-7.974 22.775-23.921v-62.195h16.105zm41.305 45.82h11.186c7.502 0 12.938-1.392 16.307-4.177 3.369-2.785 5.053-6.918 5.053-12.399 0-5.57-1.819-9.568-5.458-11.994-3.638-2.425-9.119-3.638-16.441-3.638h-10.647v32.209zm0 13.342V581H1068v-98.514h27.83c12.712 0 22.123 2.381 28.233 7.143 6.109 4.762 9.164 11.95 9.164 21.562 0 12.264-6.38 21.001-19.137 26.212L1141.919 581h-18.328l-23.584-39.352h-15.903zm128.904 12.601c0 8.76-3.167 15.633-9.501 20.62-6.334 4.986-15.071 7.479-26.212 7.479-11.14 0-20.26-1.73-27.358-5.189v-15.228c4.493 2.111 9.266 3.773 14.32 4.986 5.053 1.213 9.759 1.82 14.116 1.82 6.379 0 11.084-1.214 14.117-3.64 3.032-2.425 4.548-5.682 4.548-9.77 0-3.683-1.392-6.806-4.178-9.366-2.785-2.56-8.535-5.593-17.25-9.097-8.984-3.638-15.318-7.794-19.002-12.466-3.683-4.671-5.525-10.287-5.525-16.845 0-8.221 2.92-14.69 8.76-19.407 5.84-4.716 13.678-7.075 23.516-7.075 9.434 0 18.823 2.067 28.166 6.2l-5.12 13.14c-8.76-3.684-16.577-5.526-23.45-5.526-5.21 0-9.164 1.134-11.86 3.403-2.695 2.268-4.042 5.267-4.042 8.995 0 2.56.539 4.75 1.617 6.57 1.078 1.82 2.852 3.538 5.323 5.155 2.47 1.617 6.918 3.75 13.342 6.401 7.232 3.01 12.533 5.818 15.902 8.423 3.37 2.606 5.84 5.548 7.412 8.827 1.573 3.28 2.359 7.143 2.359 11.59zM106.544 770v-98.514h11.455V770h-11.455zm118.427 0h-13.073l-53.838-82.679h-.54c.72 9.703 1.079 18.598 1.079 26.684V770h-10.58v-98.514h12.938l53.704 82.342h.54c-.09-1.213-.293-5.11-.607-11.69-.315-6.582-.427-11.287-.337-14.117v-56.535h10.714V770zm130.86 0l-12.264-31.333h-39.486L291.952 770h-11.59l38.948-98.918h9.635L367.69 770h-11.859zm-15.835-41.643l-11.455-30.524c-1.482-3.863-3.01-8.603-4.582-14.218-.988 4.313-2.403 9.052-4.245 14.218l-11.59 30.524h31.872zm84.803-9.972h33.49v47.909a107.662 107.662 0 0 1-15.903 3.773c-5.39.854-11.635 1.28-18.733 1.28-14.914 0-26.526-4.435-34.837-13.307-8.31-8.873-12.465-21.305-12.465-37.297 0-10.242 2.055-19.215 6.165-26.92 4.11-7.703 10.029-13.588 17.755-17.654 7.727-4.065 16.779-6.098 27.156-6.098 10.512 0 20.304 1.932 29.379 5.795l-4.448 10.108c-8.894-3.774-17.452-5.66-25.672-5.66-11.995 0-21.36 3.57-28.1 10.713-6.737 7.143-10.107 17.048-10.107 29.716 0 13.297 3.246 23.382 9.737 30.255 6.492 6.873 16.026 10.31 28.604 10.31 6.828 0 13.5-.787 20.013-2.359v-30.322h-22.034v-10.242zm71.596 10.646V770h-11.456v-98.514h27.021c12.084 0 21.012 2.314 26.785 6.94 5.772 4.628 8.658 11.59 8.658 20.89 0 13.027-6.603 21.831-19.81 26.413L554.343 770H540.8l-23.854-40.969h-20.551zm0-9.838h15.7c8.086 0 14.015-1.606 17.789-4.818 3.773-3.211 5.66-8.03 5.66-14.453 0-6.514-1.92-11.208-5.761-14.083s-10.007-4.313-18.497-4.313h-14.891v37.667zM573.246 770v-98.514h11.455V770h-11.455zm83.657-89.687c-10.826 0-19.372 3.605-25.639 10.815-6.266 7.21-9.4 17.082-9.4 29.615 0 12.893 3.021 22.854 9.063 29.884 6.042 7.03 14.656 10.546 25.842 10.546 6.873 0 14.711-1.235 23.516-3.706v10.04c-6.828 2.56-15.25 3.84-25.268 3.84-14.51 0-25.707-4.402-33.59-13.206-7.885-8.805-11.826-21.316-11.826-37.533 0-10.152 1.898-19.046 5.693-26.683 3.796-7.637 9.277-13.522 16.442-17.654 7.165-4.133 15.599-6.2 25.302-6.2 10.332 0 19.361 1.887 27.088 5.66l-4.852 9.838c-7.457-3.504-14.914-5.256-22.37-5.256zm122.268-8.827v63.744c0 11.231-3.392 20.058-10.175 26.482-6.783 6.424-16.104 9.636-27.964 9.636s-21.034-3.235-27.526-9.703c-6.49-6.47-9.736-15.364-9.736-26.684v-63.475h11.455v64.284c0 8.22 2.246 14.532 6.738 18.934 4.492 4.402 11.096 6.604 19.81 6.604 8.311 0 14.712-2.213 19.205-6.638 4.492-4.424 6.738-10.77 6.738-19.035v-64.149h11.455zM808.248 770v-98.514h11.455v88.137h43.462V770h-54.917zm102.188 0H898.98v-88.339h-31.198v-10.175h73.852v10.175h-31.198V770zm123.413-98.514v63.744c0 11.231-3.392 20.058-10.175 26.482-6.783 6.424-16.105 9.636-27.964 9.636-11.86 0-21.035-3.235-27.526-9.703-6.491-6.47-9.737-15.364-9.737-26.684v-63.475h11.455v64.284c0 8.22 2.246 14.532 6.739 18.934 4.492 4.402 11.095 6.604 19.81 6.604 8.31 0 14.712-2.213 19.204-6.638 4.492-4.424 6.739-10.77 6.739-19.035v-64.149h11.455zm40.532 57.545V770h-11.455v-98.514h27.02c12.084 0 21.012 2.314 26.785 6.94 5.772 4.628 8.659 11.59 8.659 20.89 0 13.027-6.604 21.831-19.81 26.413L1132.33 770h-13.544l-23.853-40.969h-20.552zm0-9.838h15.7c8.086 0 14.016-1.606 17.79-4.818 3.773-3.211 5.66-8.03 5.66-14.453 0-6.514-1.921-11.208-5.762-14.083-3.84-2.875-10.006-4.313-18.497-4.313h-14.891v37.667zM1206.149 770h-54.917v-98.514h54.917v10.175h-43.461v31.737h40.833v10.108h-40.833v36.252h43.461V770z"/></g></svg>
