<svg xmlns="http://www.w3.org/2000/svg" width="1114" height="735" viewBox="0 0 1114 735">
  <g fill="#FFF">
    <path d="M7,8 L7,728 L1105,728 L1105,8 L7,8 Z M0,0 L1114,0 L1114,735 L0,735 L0,0 Z"/>
    <path d="M118.992188 259L118.992188 179.046875 128.289062 179.046875 128.289062 250.578125 163.5625 250.578125 163.5625 259 118.992188 259zM226.695312 259L182.125 259 182.125 179.046875 226.695312 179.046875 226.695312 187.304688 191.421875 187.304688 191.421875 213.0625 224.5625 213.0625 224.5625 221.265625 191.421875 221.265625 191.421875 250.6875 226.695312 250.6875 226.695312 259zM316.539062 192.007812C310.158822 192.007812 305.218768 194.404924 301.71875 199.199219 298.218732 203.993514 296.46875 210.674436 296.46875 219.242188 296.46875 237.070402 303.158787 245.984375 316.539062 245.984375 322.153674 245.984375 328.953085 244.580743 336.9375 241.773438L336.9375 255.992188C330.374967 258.726576 323.046915 260.09375 314.953125 260.09375 303.322859 260.09375 294.427114 256.566442 288.265625 249.511719 282.104136 242.456996 279.023438 232.330795 279.023438 219.132812 279.023438 210.820271 280.536443 203.537792 283.5625 197.285156 286.588557 191.032521 290.93617 186.238298 296.605469 182.902344 302.274768 179.56639 308.919233 177.898438 316.539062 177.898438 324.304726 177.898438 332.106732 179.776023 339.945312 183.53125L334.476562 197.3125C331.486964 195.890618 328.479182 194.651047 325.453125 193.59375 322.427068 192.536453 319.455744 192.007812 316.539062 192.007812zM389.789062 259L372.835938 259 372.835938 193.15625 351.125 193.15625 351.125 179.046875 411.5 179.046875 411.5 193.15625 389.789062 193.15625 389.789062 259zM469.929688 259L464.132812 239.96875 434.984375 239.96875 429.1875 259 410.921875 259 439.140625 178.71875 459.867188 178.71875 488.195312 259 469.929688 259zM460.085938 225.75C454.726536 208.505122 451.709639 198.752615 451.035156 196.492188 450.360674 194.23176 449.877606 192.445319 449.585938 191.132812 448.382806 195.799503 444.937528 207.33845 439.25 225.75L460.085938 225.75zM588.539062 259L578.585938 233.570312 546.539062 233.570312 536.695312 259 527.289062 259 558.898438 178.71875 566.71875 178.71875 598.164062 259 588.539062 259zM575.6875 225.203125L566.390625 200.429688C565.187494 197.294255 563.947923 193.447939 562.671875 188.890625 561.869788 192.390643 560.721362 196.236958 559.226562 200.429688L549.820312 225.203125 575.6875 225.203125zM674.53125 179.046875L674.53125 230.78125C674.53125 239.895879 671.778673 247.05987 666.273438 252.273438 660.768202 257.487005 653.203173 260.09375 643.578125 260.09375 633.953077 260.09375 626.506537 257.468776 621.238281 252.21875 615.970026 246.968724 613.335938 239.750046 613.335938 230.5625L613.335938 179.046875 622.632812 179.046875 622.632812 231.21875C622.632812 237.890658 624.455711 243.013003 628.101562 246.585938 631.747414 250.158872 637.106735 251.945312 644.179688 251.945312 650.924513 251.945312 656.119773 250.149758 659.765625 246.558594 663.411477 242.96743 665.234375 237.817742 665.234375 231.109375L665.234375 179.046875 674.53125 179.046875zM785.484375 202.34375C785.484375 210.43754 782.722684 216.662739 777.199219 221.019531 771.675754 225.376324 763.773489 227.554688 753.492188 227.554688L744.085938 227.554688 744.085938 259 734.789062 259 734.789062 179.046875 755.515625 179.046875C775.494892 179.046875 785.484375 186.812422 785.484375 202.34375zM744.085938 219.570312L752.453125 219.570312C760.69275 219.570312 766.653627 218.239597 770.335938 215.578125 774.018248 212.916653 775.859375 208.651071 775.859375 202.78125 775.859375 197.494765 774.127621 193.557305 770.664062 190.96875 767.200504 188.380195 761.804724 187.085938 754.476562 187.085938L744.085938 187.085938 744.085938 219.570312zM807.21875 259L807.21875 179.046875 816.515625 179.046875 816.515625 250.578125 851.789062 250.578125 851.789062 259 807.21875 259zM929.632812 179.046875L929.632812 230.78125C929.632812 239.895879 926.880236 247.05987 921.375 252.273438 915.869764 257.487005 908.304736 260.09375 898.679688 260.09375 889.054639 260.09375 881.608099 257.468776 876.339844 252.21875 871.071588 246.968724 868.4375 239.750046 868.4375 230.5625L868.4375 179.046875 877.734375 179.046875 877.734375 231.21875C877.734375 237.890658 879.557273 243.013003 883.203125 246.585938 886.848977 250.158872 892.208298 251.945312 899.28125 251.945312 906.026075 251.945312 911.221336 250.149758 914.867188 246.558594 918.513039 242.96743 920.335938 237.817742 920.335938 231.109375L920.335938 179.046875 929.632812 179.046875zM1000.91406 237.726562C1000.91406 244.763056 998.362005 250.24998 993.257812 254.1875 988.15362 258.12502 981.226606 260.09375 972.476562 260.09375 962.997348 260.09375 955.705755 258.872408 950.601562 256.429688L950.601562 247.460938C953.882829 248.846361 957.45571 249.9401 961.320312 250.742188 965.184915 251.544275 969.013002 251.945312 972.804688 251.945312 979.002635 251.945312 983.669255 250.769543 986.804688 248.417969 989.94012 246.066394 991.507812 242.794292 991.507812 238.601562 991.507812 235.830715 990.951828 233.561207 989.839844 231.792969 988.727859 230.024731 986.868503 228.393237 984.261719 226.898438 981.654935 225.403638 977.690131 223.708343 972.367188 221.8125 964.92965 219.151028 959.615901 215.997414 956.425781 212.351562 953.235661 208.705711 951.640625 203.947946 951.640625 198.078125 951.640625 191.916636 953.955706 187.013039 958.585938 183.367188 963.216169 179.721336 969.341108 177.898438 976.960938 177.898438 984.908894 177.898438 992.218717 179.356756 998.890625 182.273438L995.992188 190.367188C989.393196 187.59634 982.976594 186.210938 976.742188 186.210938 971.820288 186.210938 967.973972 187.268219 965.203125 189.382812 962.432278 191.497406 961.046875 194.432273 961.046875 198.1875 961.046875 200.958347 961.557287 203.227856 962.578125 204.996094 963.598963 206.764332 965.321602 208.386711 967.746094 209.863281 970.170585 211.339851 973.880183 212.971345 978.875 214.757812 987.260459 217.747411 993.029932 220.955712 996.183594 224.382812 999.337255 227.809913 1000.91406 232.257785 1000.91406 237.726562zM170.453125 603L161.898438 579.210938 129.144531 579.210938 120.765625 603 106 603 138.050781 516.984375 153.285156 516.984375 185.335938 603 170.453125 603zM158.207031 567.140625L150.179688 543.820312C149.593747 542.257805 148.783208 539.796892 147.748047 536.4375 146.712885 533.078108 146.000002 530.617195 145.609375 529.054688 144.554682 533.859399 143.011729 539.113253 140.980469 544.816406L133.246094 567.140625 158.207031 567.140625zM231.947917 556.535156L263.471354 556.535156 263.471354 599.542969C258.315078 601.222665 253.363956 602.414059 248.617839 603.117188 243.871721 603.820316 238.744819 604.171875 233.236979 604.171875 220.268164 604.171875 210.268264 600.334023 203.236979 592.658203 196.205694 584.982383 192.690104 574.152414 192.690104 560.167969 192.690104 546.378837 196.654908 535.58793 204.584635 527.794922 212.514363 520.001914 223.432222 516.105469 237.338542 516.105469 246.283899 516.105469 254.760377 517.824202 262.768229 521.261719L257.846354 532.921875C250.893194 529.718734 243.940139 528.117188 236.986979 528.117188 227.846308 528.117188 220.619818 530.988253 215.307292 536.730469 209.994765 542.472685 207.338542 550.324169 207.338542 560.285156 207.338542 570.753959 209.731096 578.712863 214.516276 584.162109 219.301456 589.611355 226.186153 592.335938 235.170573 592.335938 239.701846 592.335938 244.545547 591.769537 249.701823 590.636719L249.701823 568.546875 231.947917 568.546875 231.947917 556.535156zM300.708333 557.179688L310.434896 557.179688C316.958366 557.179688 321.684881 555.968762 324.614583 553.546875 327.544285 551.124988 329.009115 547.531274 329.009115 542.765625 329.009115 537.921851 327.427099 534.445323 324.263021 532.335938 321.098943 530.226552 316.333365 529.171875 309.966146 529.171875L300.708333 529.171875 300.708333 557.179688zM300.708333 568.78125L300.708333 603 286.704427 603 286.704427 517.335938 310.903646 517.335938C321.958389 517.335938 330.141901 519.406229 335.454427 523.546875 340.766954 527.687521 343.423177 533.937458 343.423177 542.296875 343.423177 552.960991 337.876358 560.558571 326.782552 565.089844L350.981771 603 335.044271 603 314.536458 568.78125 300.708333 568.78125zM366.070312 603L366.070312 517.335938 380.074219 517.335938 380.074219 603 366.070312 603zM462.076823 543.234375C462.076823 552.179732 459.147165 559.035132 453.28776 563.800781 447.428356 568.56643 439.088596 570.949219 428.268229 570.949219L419.361979 570.949219 419.361979 603 405.358073 603 405.358073 517.335938 430.026042 517.335938C440.72922 517.335938 448.746718 519.523416 454.078776 523.898438 459.410834 528.273459 462.076823 534.718707 462.076823 543.234375zM419.361979 559.171875L426.803385 559.171875C433.990921 559.171875 439.264306 557.921888 442.623698 555.421875 445.98309 552.921862 447.66276 549.015652 447.66276 543.703125 447.66276 538.781225 446.158869 535.109387 443.151042 532.6875 440.143214 530.265613 435.455761 529.054688 429.088542 529.054688L419.361979 529.054688 419.361979 559.171875zM495.856771 557.179688L505.583333 557.179688C512.106803 557.179688 516.833319 555.968762 519.763021 553.546875 522.692723 551.124988 524.157552 547.531274 524.157552 542.765625 524.157552 537.921851 522.575537 534.445323 519.411458 532.335938 516.24738 530.226552 511.481803 529.171875 505.114583 529.171875L495.856771 529.171875 495.856771 557.179688zM495.856771 568.78125L495.856771 603 481.852865 603 481.852865 517.335938 506.052083 517.335938C517.106826 517.335938 525.290338 519.406229 530.602865 523.546875 535.915391 527.687521 538.571615 533.937458 538.571615 542.296875 538.571615 552.960991 533.024795 560.558571 521.93099 565.089844L546.130208 603 530.192708 603 509.684896 568.78125 495.856771 568.78125zM609.675781 603L561.21875 603 561.21875 517.335938 609.675781 517.335938 609.675781 529.171875 575.222656 529.171875 575.222656 552.492188 607.507812 552.492188 607.507812 564.210938 575.222656 564.210938 575.222656 591.105469 609.675781 591.105469 609.675781 603zM702.22526 603L685.057292 603 642.928385 534.738281 642.459635 534.738281 642.752604 538.546875C643.299482 545.812536 643.572917 552.453095 643.572917 558.46875L643.572917 603 630.858073 603 630.858073 517.335938 647.85026 517.335938 689.861979 585.246094 690.213542 585.246094C690.135416 584.347652 689.979168 581.0762 689.744792 575.431641 689.510415 569.787081 689.393229 565.382828 689.393229 562.21875L689.393229 517.335938 702.22526 517.335938 702.22526 603zM775.966146 603L727.509115 603 727.509115 517.335938 775.966146 517.335938 775.966146 529.171875 741.513021 529.171875 741.513021 552.492188 773.798177 552.492188 773.798177 564.210938 741.513021 564.210938 741.513021 591.105469 775.966146 591.105469 775.966146 603zM864.296875 517.335938L864.296875 572.765625C864.296875 579.093782 862.939467 584.630836 860.224609 589.376953 857.509752 594.123071 853.58401 597.775378 848.447266 600.333984 843.310521 602.892591 837.168004 604.171875 830.019531 604.171875 819.394478 604.171875 811.132842 601.359403 805.234375 595.734375 799.335908 590.109347 796.386719 582.375049 796.386719 572.53125L796.386719 517.335938 810.449219 517.335938 810.449219 571.535156C810.449219 578.605504 812.089827 583.820296 815.371094 587.179688 818.65236 590.539079 823.691372 592.21875 830.488281 592.21875 843.691472 592.21875 850.292969 585.285226 850.292969 571.417969L850.292969 517.335938 864.296875 517.335938zM902.88151 557.179688L912.608073 557.179688C919.131543 557.179688 923.858058 555.968762 926.78776 553.546875 929.717463 551.124988 931.182292 547.531274 931.182292 542.765625 931.182292 537.921851 929.600276 534.445323 926.436198 532.335938 923.27212 530.226552 918.506542 529.171875 912.139323 529.171875L902.88151 529.171875 902.88151 557.179688zM902.88151 568.78125L902.88151 603 888.877604 603 888.877604 517.335938 913.076823 517.335938C924.131566 517.335938 932.315078 519.406229 937.627604 523.546875 942.940131 527.687521 945.596354 533.937458 945.596354 542.296875 945.596354 552.960991 940.049535 560.558571 928.955729 565.089844L953.154948 603 937.217448 603 916.709635 568.78125 902.88151 568.78125zM1017.63802 579.738281C1017.63802 587.355507 1014.88414 593.33201 1009.3763 597.667969 1003.86846 602.003928 996.270882 604.171875 986.583333 604.171875 976.895785 604.171875 968.966177 602.667984 962.794271 599.660156L962.794271 586.417969C966.70054 588.253915 970.850889 589.699213 975.245443 590.753906 979.639996 591.808599 983.731752 592.335938 987.520833 592.335938 993.067736 592.335938 997.159492 591.281261 999.796224 589.171875 1002.43296 587.062489 1003.7513 584.230487 1003.7513 580.675781 1003.7513 577.47264 1002.54038 574.757824 1000.11849 572.53125 997.696602 570.304676 992.696652 567.667984 985.11849 564.621094 977.305951 561.457015 971.798193 557.84377 968.595052 553.78125 965.391911 549.71873 963.790365 544.835966 963.790365 539.132812 963.790365 531.984339 966.329402 526.359396 971.407552 522.257812 976.485702 518.156229 983.302041 516.105469 991.856771 516.105469 1000.05994 516.105469 1008.22392 517.902326 1016.34896 521.496094L1011.89583 532.921875C1004.27861 529.718734 997.481801 528.117188 991.505208 528.117188 986.973936 528.117188 983.53647 529.103506 981.192708 531.076172 978.848947 533.048838 977.677083 535.656234 977.677083 538.898438 977.677083 541.125011 978.145829 543.029289 979.083333 544.611328 980.020838 546.193367 981.563791 547.687493 983.71224 549.09375 985.860688 550.500007 989.727837 552.355457 995.313802 554.660156 1001.6029 557.277357 1006.21222 559.718739 1009.14193 561.984375 1012.07163 564.250011 1014.22005 566.808579 1015.58724 569.660156 1016.95443 572.511733 1017.63802 575.871074 1017.63802 579.738281zM169.585938 375.355469C169.585938 383.304727 166.873562 389.418761 161.44873 393.697754 156.023899 397.976747 148.262746 400.116211 138.165039 400.116211L128.926758 400.116211 128.926758 431 119.795898 431 119.795898 352.474609 140.152344 352.474609C159.774838 352.474609 169.585938 360.101486 169.585938 375.355469zM128.926758 392.274414L137.144531 392.274414C145.23702 392.274414 151.091453 390.967461 154.708008 388.353516 158.324562 385.73957 160.132812 381.550159 160.132812 375.785156 160.132812 370.593073 158.431983 366.725924 155.030273 364.183594 151.628564 361.641263 146.329138 360.370117 139.131836 360.370117L128.926758 360.370117 128.926758 392.274414zM195.152344 398.34375L195.152344 431 186.021484 431 186.021484 352.474609 207.55957 352.474609C217.19178 352.474609 224.308408 354.318666 228.909668 358.006836 233.510928 361.695005 235.811523 367.24508 235.811523 374.657227 235.811523 385.041393 230.547904 392.059552 220.020508 395.711914L241.34375 431 230.547852 431 211.53418 398.34375 195.152344 398.34375zM195.152344 390.501953L207.666992 390.501953C214.112337 390.501953 218.838852 389.221855 221.84668 386.661621 224.854507 384.101387 226.358398 380.261093 226.358398 375.140625 226.358398 369.948542 224.827652 366.206717 221.766113 363.915039 218.704575 361.623361 213.790073 360.477539 207.022461 360.477539L195.152344 360.477539 195.152344 390.501953zM297.793945 431L254.019531 431 254.019531 352.474609 297.793945 352.474609 297.793945 360.584961 263.150391 360.584961 263.150391 385.882812 295.699219 385.882812 295.699219 393.939453 263.150391 393.939453 263.150391 422.835938 297.793945 422.835938 297.793945 431zM359.507812 410.106445C359.507812 417.017287 357.001327 422.406231 351.988281 426.273438 346.975235 430.140644 340.171918 432.074219 331.578125 432.074219 322.268183 432.074219 315.106796 430.874686 310.09375 428.475586L310.09375 419.666992C313.316422 421.027676 316.825502 422.101884 320.621094 422.889648 324.416686 423.677413 328.176414 424.071289 331.900391 424.071289 337.987661 424.071289 342.570948 422.916515 345.650391 420.606934 348.729833 418.297352 350.269531 415.083679 350.269531 410.96582 350.269531 408.244453 349.723476 406.015471 348.631348 404.278809 347.53922 402.542146 345.713066 400.939786 343.152832 399.47168 340.592598 398.003573 336.698594 396.338551 331.470703 394.476562 324.165979 391.862617 318.947119 388.765317 315.813965 385.18457 312.680811 381.603823 311.114258 376.931018 311.114258 371.166016 311.114258 365.114553 313.387998 360.298521 317.935547 356.717773 322.483096 353.137026 328.49866 351.34668 335.982422 351.34668 343.78845 351.34668 350.967741 352.778957 357.520508 355.643555L354.673828 363.592773C348.192676 360.871406 341.890656 359.510742 335.767578 359.510742 330.93357 359.510742 327.155938 360.549143 324.43457 362.625977 321.713203 364.70281 320.352539 367.585268 320.352539 371.273438 320.352539 373.994805 320.853836 376.223787 321.856445 377.960449 322.859054 379.697112 324.550932 381.29052 326.932129 382.740723 329.313326 384.190925 332.956681 385.793285 337.862305 387.547852 346.098023 390.484064 351.76447 393.635074 354.861816 397.000977 357.959163 400.366879 359.507812 404.735325 359.507812 410.106445zM466.822266 390.985352C466.822266 403.947656 463.304234 413.857225 456.268066 420.714355 449.231898 427.571486 439.107488 431 425.894531 431L404.141602 431 404.141602 352.474609 428.204102 352.474609C440.414449 352.474609 449.903286 355.858365 456.670898 362.625977 463.43851 369.393589 466.822266 378.846619 466.822266 390.985352zM457.154297 391.307617C457.154297 381.066681 454.585149 373.350286 449.446777 368.158203 444.308405 362.96612 436.672577 360.370117 426.539062 360.370117L413.272461 360.370117 413.272461 423.104492 424.390625 423.104492C435.276096 423.104492 443.45798 420.427924 448.936523 415.074707 454.415066 409.72149 457.154297 401.799206 457.154297 391.307617zM528.106445 431L484.332031 431 484.332031 352.474609 528.106445 352.474609 528.106445 360.584961 493.462891 360.584961 493.462891 385.882812 526.011719 385.882812 526.011719 393.939453 493.462891 393.939453 493.462891 422.835938 528.106445 422.835938 528.106445 431zM589.820312 410.106445C589.820312 417.017287 587.313827 422.406231 582.300781 426.273438 577.287735 430.140644 570.484418 432.074219 561.890625 432.074219 552.580683 432.074219 545.419296 430.874686 540.40625 428.475586L540.40625 419.666992C543.628922 421.027676 547.138002 422.101884 550.933594 422.889648 554.729186 423.677413 558.488914 424.071289 562.212891 424.071289 568.300161 424.071289 572.883448 422.916515 575.962891 420.606934 579.042333 418.297352 580.582031 415.083679 580.582031 410.96582 580.582031 408.244453 580.035976 406.015471 578.943848 404.278809 577.85172 402.542146 576.025566 400.939786 573.465332 399.47168 570.905098 398.003573 567.011094 396.338551 561.783203 394.476562 554.478479 391.862617 549.259619 388.765317 546.126465 385.18457 542.993311 381.603823 541.426758 376.931018 541.426758 371.166016 541.426758 365.114553 543.700498 360.298521 548.248047 356.717773 552.795596 353.137026 558.81116 351.34668 566.294922 351.34668 574.10095 351.34668 581.280241 352.778957 587.833008 355.643555L584.986328 363.592773C578.505176 360.871406 572.203156 359.510742 566.080078 359.510742 561.24607 359.510742 557.468438 360.549143 554.74707 362.625977 552.025703 364.70281 550.665039 367.585268 550.665039 371.273438 550.665039 373.994805 551.166336 376.223787 552.168945 377.960449 553.171554 379.697112 554.863432 381.29052 557.244629 382.740723 559.625826 384.190925 563.269181 385.793285 568.174805 387.547852 576.410523 390.484064 582.07697 393.635074 585.174316 397.000977 588.271663 400.366879 589.820312 404.735325 589.820312 410.106445zM625.323242 454.095703C621.563458 454.095703 618.287123 453.701827 615.494141 452.914062L615.494141 439.056641C618.358738 439.77279 620.972644 440.130859 623.335938 440.130859 626.9883 440.130859 629.602206 438.993989 631.177734 436.720215 632.753263 434.44644 633.541016 430.892602 633.541016 426.058594L633.541016 352.474609 650.191406 352.474609 650.191406 425.951172C650.191406 435.117884 648.096701 442.100236 643.907227 446.898438 639.717752 451.696639 633.523153 454.095703 625.323242 454.095703zM715.181641 431L669.957031 431 669.957031 352.474609 715.181641 352.474609 715.181641 366.117188 686.607422 366.117188 686.607422 383.358398 713.194336 383.358398 713.194336 397.000977 686.607422 397.000977 686.607422 417.25 715.181641 417.25 715.181641 431zM795.479492 352.474609L795.479492 403.285156C795.479492 409.085967 794.181491 414.170551 791.585449 418.539062 788.989408 422.907574 785.238631 426.255522 780.333008 428.583008 775.427384 430.910493 769.626661 432.074219 762.930664 432.074219 752.832957 432.074219 744.991239 429.487168 739.405273 424.312988 733.819308 419.138809 731.026367 412.057988 731.026367 403.070312L731.026367 352.474609 747.623047 352.474609 747.623047 400.545898C747.623047 406.597361 748.840483 411.037421 751.275391 413.866211 753.710299 416.695001 757.738579 418.109375 763.360352 418.109375 768.803087 418.109375 772.750802 416.686049 775.203613 413.839355 777.656425 410.992662 778.882812 406.525747 778.882812 400.438477L778.882812 352.474609 795.479492 352.474609zM884.371094 431L863.208984 431 829.048828 371.595703 828.56543 371.595703C829.245772 382.087292 829.585938 389.570941 829.585938 394.046875L829.585938 431 814.708008 431 814.708008 352.474609 835.708984 352.474609 869.81543 411.288086 870.191406 411.288086C869.654294 401.082957 869.385742 393.86786 869.385742 389.642578L869.385742 352.474609 884.371094 352.474609 884.371094 431zM949.361328 431L904.136719 431 904.136719 352.474609 949.361328 352.474609 949.361328 366.117188 920.787109 366.117188 920.787109 383.358398 947.374023 383.358398 947.374023 397.000977 920.787109 397.000977 920.787109 417.25 949.361328 417.25 949.361328 431zM1012.0957 409.193359C1012.0957 416.283239 1009.54446 421.86912 1004.44189 425.951172 999.33933 430.033224 992.240605 432.074219 983.145508 432.074219 974.76656 432.074219 967.354524 430.498714 960.90918 427.347656L960.90918 411.878906C966.208685 414.242199 970.693504 415.907222 974.36377 416.874023 978.034035 417.840825 981.390935 418.324219 984.43457 418.324219 988.086932 418.324219 990.888825 417.625984 992.840332 416.229492 994.791839 414.833001 995.767578 412.756199 995.767578 409.999023 995.767578 408.459302 995.337895 407.089687 994.478516 405.890137 993.619136 404.690586 992.356942 403.535813 990.691895 402.425781 989.026847 401.31575 985.63414 399.543306 980.513672 397.108398 975.715471 394.852528 972.116874 392.686208 969.717773 390.609375 967.318673 388.532542 965.403002 386.115574 963.970703 383.358398 962.538404 380.601223 961.822266 377.378599 961.822266 373.69043 961.822266 366.74378 964.176572 361.283223 968.885254 357.308594 973.593936 353.333965 980.101846 351.34668 988.40918 351.34668 992.491231 351.34668 996.385235 351.830073 1000.09131 352.796875 1003.79738 353.763677 1007.67348 355.12434 1011.71973 356.878906L1006.34863 369.823242C1002.15916 368.104484 998.694838 366.904951 995.955566 366.224609 993.216295 365.544267 990.521823 365.204102 987.87207 365.204102 984.721013 365.204102 982.304045 365.938144 980.621094 367.40625 978.938143 368.874356 978.09668 370.790027 978.09668 373.15332 978.09668 374.621427 978.436846 375.901524 979.117188 376.993652 979.797529 378.08578 980.880689 379.142085 982.366699 380.162598 983.852709 381.183111 987.37074 383.018216 992.920898 385.667969 1000.26143 389.177101 1005.2923 392.695132 1008.01367 396.222168 1010.73504 399.749204 1012.0957 404.072891 1012.0957 409.193359z"/>
  </g>
</svg>
