<svg xmlns="http://www.w3.org/2000/svg" viewBox="0 0 100 101" xmlns:xlink="http://www.w3.org/1999/xlink">
  <defs>
    <path id="a" d="M.275.637h.795V.04H.275v.597z"/>
  </defs>
  <g fill="none" fill-rule="evenodd">
    <g fill="#666">
      <path d="M49.768 100.172C22.325 100.172 0 77.846 0 50.404S22.325.637 49.768.637c27.442 0 49.767 22.325 49.767 49.767 0 27.442-22.325 49.768-49.767 49.768m0-99.226C22.496.946.31 23.133.31 50.404c0 27.27 22.186 49.457 49.458 49.457 27.27 0 49.456-22.18 49.456-49.45C99.224 23.14 77.04.95 49.768.95"/>
      <path d="M86.455 24.337c.075.12.267.405.412.446.063.017.107-.018.108-.02.11-.09.08-.253.174-.352.1-.1.29-.03.38-.18.06-.1-.03-.25-.12-.37-.31-.41-.47-.9-.76-1.31-.19-.24-.19-.24-.19-.26 0-.04.05-.07.05-.12-.01-.05-.05-.13-.08-.18-.15-.25-.53-.85-.81-.8h-.01c0 .02 0 .02-.01.05-.11.05-.16-.07-.25-.08-.12.03-.07.16-.13.24.04.13.14.22.22.33 0 .01.01.01.02.03-.03.03-.03.03-.01.07v.01l.12.17c-.06.1-.18.14-.22.25-.04.11-.01.19.03.26.09.21.29.33.43.49.1.12.16.26.26.38.06.08.11.15.18.28.12.22.15.36.13.57-.01.05-.01.1.01.14m-3.04-6.43l-.01-.01c.02.12.18.52.38.89.05.09.05.09.33.49.02.03.04.04.05.05.04-.03.02-.05-.09-.22-.02-.01-.13-.14-.17-.24-.03-.07-.01-.15-.03-.22-.02-.09-.02-.09-.31-.57-.05-.08-.05-.08-.17-.15"/>
      <path d="M84.538 18.73c-.15-.268-.134-.61-.384-.83l-.007-.008-.044-.004c-.074-.007-.08-.007-.14-.007-.104.01-.104.01-.16.06.046.35.652.64.307.99.008.08.123.31.267.35.08.11.203.17.295.26l.006.01c.193.11.235.17.275.23l-.028.04c-.122-.17-.172-.21-.25-.24l-.024.04c.03.08.03.09.1.21l.02.02c.44.23.5.61.52.74l.03.04c.12.13.18.18.23.22l.03-.01v-.09c.14.06.14.33.33.27.02-.06.02-.06-.03-.13-.11-.13-.23-.26-.17-.39.06.1.53.95.72 1.21l.01.01c.08.03.15.07.22.09h.01l.05-.03c0-.14 0-.14.01-.18l.05-.01c.25.43.25.43.3.5l.01.02c.07.03.07.03.2.18l.01.01c.31.12.35.64.35.65-.02-.02-.06-.03-.09-.02l-.03.03c-.02 0-.06-.01-.08-.03l-.01-.01c.03.19.14.38.19.48l.01.01c.22.22.33.38.32.49-.21-.29-.24-.31-.3-.35l-.01.02c.02.05.03.11.2.4l.01.01c.08.09.22.1.28.21-.02.02-.05.03-.08.03.09.36.18.61.36.69l.01-.03c-.02-.08-.06-.14-.09-.22l.04-.02c.05.03.05.03.22.15.01.03.03.07.05.1l.01.02c.08.05.33.21.27 1.01-.01.2-.01.37.2.48.38-.12.11-.55.26-.8.06-.01.13-.02.3.05l.26.08.2-.46h.09c.01-.02.01-.2-.28-.41-.34-.24-.29-.67-.47-.99 0-.01-.23-.43-.34-.46-.15.11-.37-.21-.95-1.05l-.01-.02c-.17-.05-.47-.4-.91-.92-.83-.98-1.17-.95-1.2-.94-.24-.43-.33-.92-.58-1.34-.07-.13-.07-.13-.41-.34l-.01-.01c0 .01.01.03.01.04-.01.1-.19.16-.42-.02m-.81-1.48c-.06-.08-.08-.08-.1-.08 0 0-.01 0-.02.01-.06.07.4.63.52.63 0 0 .04-.01-.05-.11-.13-.14-.23-.3-.35-.45m-.82-1.45c-.04-.03-.07-.04-.08-.04v.01s.09.31.61.8l.06.05c.03.03.05.04.05.01-.23-.25-.31-.34-.33-.37-.1-.13-.18-.28-.28-.42l-.02-.03zm-10.36-4.1l.04.06c.14.1.32.08.46.16l.01.01h.01c.05.01.09.01.19-.01.21-.02.27.01.27.01.11.15.07.19-.05.23-.16.05-.16.11-.03.31l.02.02h.04c.01 0 .02-.02.02-.03.27.06.39.11.6.23v.01l.02.01.02.01c.14.08.18.11.24.16l.02.02c.07-.09.26.09.29.21l-.01.02c-.06 0-.12-.08-.19-.02 0 .05.02.29.49.3h.04c.19 0 .34.01.52.14.16.11.27.17.34.09.03-.03.03-.03.07-.04.37.04.37.04.38.01.1.06.13.06.16.02.06-.08-.02-.15.01-.22.04-.01.04-.75.04-.76-.04-.17-.15-.36-.35-.58-.06-.07-.06-.07-1.53-1.1l-.02-.01c.01.05.04.09.05.14-.17-.06-.29-.22-.48-.26l-.02.01c-.02.14.17.16.17.29l-.02.01h-.02c-.01 0-.03.01-.04.01 0 .07.06.13.04.21l-.03.01c-.06-.09-.12-.15-.24-.26l-.02-.01c-.15-.02-.23.1-.24.14-.02.16.16.2.18.33-.24.04-.28-.23-.46-.29-.01.03-.02.04.13.28.05.08.05.08.07.12h-.01c.02.03.02.03.03.07-.07.08-.23-.07-.26-.19-.25-.27-.91-.6-1.05-.57-.09.02-.01.14.1.35.11.19.11.19.03.41m-3.34-2.85l.04-.08h-.01c.17-.27-.22-.93-.22-.93h-.02c-.22-.08-1.3-.26-1.31-.26l.03.18c-.03.06-.09.12-.15.14l-.08-.05c.03-.05.04-.13.03-.19h-.07c-.04.01-.09.02-.12.01h-.03c-.23-.05-.31-.06-.44-.36.11.07.11.07.19.16l.02.01h.01c.03.01.08.02.11.05l.03.01c.17.07.17.07.31.03.01-.08.01-.08-.38-.55l-.01-.01-.2-.11c.12.02.12.02.29.13.06.02.06.02.53.23.06.02.07.03.07.03l.02.01.01.01.01.01.02.01.02.01.01.01.02.01.32.25h.01l.23.07.17-.1c-.03-.16-.26-.15-.26-.34l-.03-.01c-.66-.44-.66-.44-2.35-1.2l.01.01c-.07-.01-.15-.04-.2-.08.29.04.55.19.83.25-.02-.03-.04-.08-.07-.11l-.01-.01c-.38-.19-.77-.37-1.15-.56l.01.01c-.05.04-.13.06-.19.06h-.05c-.04-.01-.09-.04-.13-.05h-.02c-.18-.07-.18-.07-.28-.15.04.01.09.01.13.03.05.01.11.02.16.02l-.02-.01-.33-.2-.02-.01c-.04-.02-.08-.04-.11-.06.19-.06.42.14.51.23l.03.01c.14.03.28-.02.42.02l-.07-.11c.05-.01.11-.02.15-.05h-.01c-.27-.19-.59-.29-.87-.47l.08-.05c-.06-.12-.06-.12-.3-.3l-.02-.01c-1.05-.34-1.05-.34-1.2-.41.09.02.09.02.32.11 0 0-.35-.42-2.1-.83l-.04-.01c-.05-.02-.11-.04-.15-.07-.05-.03-.12-.07-.18-.1l.07-.07c.06.017.14.04.19.05l-.02-.01c.15.06.24.1.38.18l.02.01c.23.08 1.24.47 1.24.47l-.21-.09c-1.17-.54-1.92-.8-2.24-.91l.01.01.09.05c-.09-.01-.18-.02-.36-.07s-.18-.05-.31-.1l.2.03.02.01h.04-.01l-.08-.03h-.01l-.02-.01c-.48-.14-.69-.17-.74-.16.06.03.13.07.19.1-.05-.01-.05-.01-1.39-.49l-.02-.02c.07.01.16.02.23.04-.06-.02-.13-.05-.19-.07-.07-.01-.16-.03-.22-.04h-.02l-.05-.02-.12-.03-.09-.1c-.2-.08-.41-.09-.61-.16h-.03c-.93-.27-.93-.27-1.49-.395l-.02-.005c-.28-.04-.55-.114-.83-.17-.18-.04-.37-.04-.55-.094l-.04-.01c-.3-.04-.3-.04-.81-.09h-.17c.23.04.48-.01.69.11h-.01c-.06-.01-.14-.01-.2-.02.05.01.11.03.16.04.38.06 1.08.22 1.16.25-.65-.15-1.04-.24-2.04-.37l-.06-.01-.23-.02h-.02.01l.06.01-.11-.02c.1.02.1.02.308.05l.066.01h-.01l.21.03-.02.01h-.01.02l.01.01.05.01c.06.01.15.03.21.04l-.09-.01c-.31-.06-.41-.08-.69-.11l-.1-.07h-.08l-.08.01-.14-.03c.06 0 .15 0 .21.01-.18-.04-.31-.07-1.2-.13-.04 0-.08-.01-.12 0h-.03c-.3-.02-.47-.01-.72-.02h-.11l.06.01h-.01c-.02.01-.04 0-.06 0h-.04c.03.01.07.01.11.02h.01l.64.08.2.03c-.05 0-.12-.01-.17-.01h-.05c-.2-.02-.2-.02-.26-.02h.02c.17.03.23.04.33.05h.01l.03.01h.02c.21.03.41.06.72.13-.12-.01-.12-.01-.3-.05h-.05c-.08-.01-.17-.03-.25-.04L51.34 1h.002l-.2-.03c-.2-.04-.2-.04-.24-.026h.02c.58.104.58.104.64.12-.07-.02-.16-.03-.23-.04h-.01.02l.06.01c-.17-.04-.34-.06-.51-.09.15.04.3.07.44.12-.52-.15-.55-.13-.59-.1l.06.07h.01c.18.03.18.03.37.1-.2-.06-.2-.06-.41-.1.11.08.23.13.35.2l-.01.01-.03-.01c-.06-.02-.15-.02-.21-.02-.02.03-.02.03-.09.28.2.2.52.17.7.4-.15.13-.36.13-.52.24l-.06.08c-.13-.03-.27 0-.4-.02-.05.04-.1.1-.13.15.03.05.03.05.99.51.22-.08.59-.07.59-.07-.33.16-.76-.07-1.04.28l.02.06h.01c.22.09.45.1.67.16-.07.07-.11.11-.23.11l.04.02c.26.15.89.34 1 .27l-.01-.01.02-.1c.23-.01.69.03.7.03.23-.22.23-.22 2.64 1.08l.01.01.03.01h.01c.21.11.28.15.27.23l.02.01c.41.26.94.85.94.85h.01c.27-.01.35-.02.41.22l-.08.1h-.04l-.01.01c.02.16.17.25.22.39l.01.01.05.03c-.01.05-.03.11-.05.15l.02.01.47.33h.04l.01-.01h.01V7c.224-.08.23-.09.29-.2-.02-.06-.065-.14-.11-.18.124 0 .124 0 .43.15-.23.59.945.23 1.11.78v.01c-.38.04-.69-.32-1.09-.2-.03-.02-.07-.05-.1-.08h-.01c-.11.06-.11.06-.14.15l.02.01c.14.11.14.11.4.34-.05.02-.12.04-.17.04v.01h-.02v.02c.01.21.22.33.27.52h.012c.04.01.1.03.14.04l.03.01c.38.14.38.14.52.16h.053c.27-.02.27-.027.4-.117-.03-.09-.1-.15-.14-.228H60c-.23-.08-.23-.08-.73-.43.01 0 .76.24.84.36h.01c.194.1.7.89.738.98-.22.11-.47-.09-.69.06l.03.02.09.056c-.05.25.08.48.033.72l-.02.01h-.01l-.01.01.02.03v.01l.02.01.01.01.02.01.02.01v.01l.03.02-.02-.03c.08.11.09.12.12.22.05.13.07.17.16.28.08.12.11.16.23.25v-.01l.01-.06.1.01c.03.15-.02.43-.07.48l.02.02c.16.19.36.34.5.54h.02c.35.13.58.38.6.43l.01-.03.04-.09.58 1.13.02.01.11-.04c.02-.06.04-.16.05-.22l.11.01c.06.25.22.46.22.73l.02.01c.8.33 1.18 1.14 1.86 1.6.37.25.49.75.92.93.45.2.85.02 1.07-.08.22.13.31.4.55.51l.08.01c.45 0 .54.45.82.65h.01c.2-.16.2-.16-.11-2.07l-.01-.01c-.05-.07-.12-.16-.2-.32l-.05-.08v.01c-.12-.16-.12-.16-.44-.34l-.01-.1c.27-.09.27-.09.33-.19.08-.55.08-.55-.55-1.73l-.04-.03v.01c-.2-.14-.2-.14-.27-.2l.09-.06c.04.02.08.04.11.07l.03-.03c.01-.03.02-.08.01-.11l-.09-.15V12c-.02-.06-.05-.13-.07-.19l.02-.004.01.006.01-.007c.01-.05.04-.12.08-.16l.01.013.01.002.02.01v.006l.04.02h.01v-.01l.01.003h.01v.01h.01l.09.05.1.04c.03-.02.07-.03.1-.05-.02-.15-.08-.28-.11-.43.02-.02.05-.03.06-.05.08.27.12.29.25.34.14.01.16.01.27.08v-.02c0-.29.07-.65.38-.77-.41-1.12-.41-1.12-.83-1.62v.01h.01c.68.4.93.55.93.15 0-.04-.03-.09-.04-.13.21-.09.44-.12.64-.24 0-.06-.02-.14-.04-.2"/>
      <path d="M51.59 1.04h-.003l.01.002m.953-.05L52.542.99l.003-.002.017.005.04.006c-.006-.01-.01-.01-.042-.02.012 0 .03-.01.04-.01h.037l.09.01h-.012l.03.01c-.014 0-.028-.01-.04-.01l.05.01h-.052l.063.01c-.012 0-.025-.01-.037-.01h-.01l.16.03-.48-.08.13.01m7.01 1.43h.01c-.01-.01-.02-.01-.08-.04l-.01-.01h-.01c-.19-.06-.38-.11-.57-.17l-.03-.01h-.05l.23.07c.12.04.38.11.48.14m-.59-.2H59c.002 0 0 0 0 0h.028l-.134-.05-.01-.01c-.13-.04-.262-.09-.395-.12h-.04c.11.04.23.09.49.16h.02zm-1.04-.33l-.01-.01h-.04c.02.01.03.01.05.01l.27.08.01.01.05.01h.03l-.22-.06-.14-.03m1.97.59h-.02c.52.23.59.22.6.22-.01-.01-.01-.01-.56-.21l-.04-.01zm4.04 1.77h.02c.01 0 .02 0 .09.01.12.01.23.03.27.02.01-.01.04-.02-.1-.09h-.01l-.01-.01c-.09-.03-.18-.04-.26-.07-.05-.02-.09-.04-.2-.1h-.01c-.08-.03-.12-.04-.17-.04-.08 0-.01.05.17.14.14.08.17.1.18.12h-.01l.04.02zM53.59 1h-.02c-.11-.01-.18-.02-.19-.02.05.01.1.015.15.023h.13s-.02-.01-.08-.02m-.99-.1l.5.053.22.03.14.01-.16-.02c-.23-.03-.69-.08-.7-.08M50.62.83h-.013c-.023-.002-.045-.005-.07-.006h-.002c.014.005.028.006.04.008h.007c.13.018.13.02.138.017l-.08-.01.022.01-.04-.01m.298 2.03c-.07 0-.14.03-.213.03h-.005c-.035-.02-.044-.02-.077-.02h-.015c.105.12.176.09.202.07h.013c.113.02.177 0 .193-.06-.033-.02-.052-.02-.097-.03m6.28 3.02c-.08-.01-.17-.04-.26-.04-.1 0-.12.04-.08.12l.01.01c.07-.01.14.01.21-.01.04.03.1.04.14.06h.01c.06-.03.06-.06.03-.1-.01-.02-.02-.04-.04-.05l-.01-.02zm1.32 1.17l-.02-.04h-.02c-.07 0-.09.07-.05.2l.01.02h.02c.09 0 .16-.05.08-.19m-11.9-4.13c0-.04.03-.07.01-.11 0-.01-.02-.05-.07-.06-.11 0-.14.03-.16.04-.07.06-.14.19-.14.22-.01.09.25.01.37-.1l.01-.01zm-1.06-.06c.06 0 .11-.02.16-.02.1.01.1.01.13 0 .09-.02.13-.07.14-.08.06-.07.01-.12 0-.12H46c-.06-.01-.1.03-.16.03-.05-.01-.07-.05-.12-.05-.008-.01-.01 0-.017 0-.217 0-.4.14-.41.17 0 0-.004.02.036.03l.23.01m-.19-.34c.02.01.03.01.01.05-.02.03-.06.04-.06.08v.02c0 .01.03.05.1 0 .04-.03.1-.07.2-.07-.01.02.03 0 .04.02 0 0 .15-.08.24-.11l.03-.02.02-.03c.01-.04.01-.07.02-.1s.03-.06.04-.08v-.01c-.01-.04-.07-.01-.09-.03-.03-.03.01-.08-.02-.11-.02-.02-.04-.02-.06-.02-.04 0-.22.03-.35.15-.03.02-.04.06-.06.09-.03.03-.06.05-.09.09l-.02.02c-.01.02.01.03.02.03m.77-.78c.01.01.01.03.03.03.02 0 .06-.02.08-.03l.04-.02c.02-.01.04-.03.06-.05.03-.03.06-.04.09-.07.03-.03 0-.03-.01-.03-.06 0-.17.04-.26.09-.05.03-.1.06-.11.08-.02.02.04 0 .06.01m-1.81.68c.05-.02.06-.02.07-.01-.01.02-.03.03-.03.05.01.01.01.01.21-.01.09-.01.13-.01.13.02v.01c-.03.03-.1.09-.12.17-.05.19.33-.02.33-.03.01-.01.05-.03.07-.06.03-.03.04-.08.07-.11.05-.05.11-.09.16-.14 0 0 .04-.04.06-.08.03-.04-.01-.04-.03-.04-.03 0-.04 0-.05-.01 0-.06.05-.07.07-.11.03-.05.02-.06.01-.07-.03-.03-.06.01-.09 0 0-.05.05-.07.04-.12 0-.03-.05-.03-.06-.03-.15.01-.48.13-.52.17l-.02.08c.01.01.05.01.06.01-.05.03-.07.11-.15.11-.06 0-.2.02-.33.13-.04.03-.03.07.1.04"/>
      <path d="M44.172 2.8c.027.004.04 0 .112-.02.04-.012.078-.018.116-.03.022-.006.037-.017.042-.02.008-.005.014-.01.02-.016.028-.027.077-.09-.054-.09-.103 0-.184.04-.215.056l-.012.006c-.01.03-.03.056-.03.088 0 .02.01.023.03.026h.01m-.85.255l.01-.006c.01-.01.02-.02.03-.02.05-.04.06-.06.07-.09.01-.02.01-.03.02-.04.05-.05.1-.08.15-.13 0-.01.01-.01.01-.01.01-.01.01-.02.01-.03h-.01c0-.01-.01-.01-.02-.02 0-.01 0-.01-.01-.01s-.01 0-.03.01h-.01l-.11.08c-.06.04-.14.1-.17.14-.06.08.03.1.1.09h.01zm.31.335c-.01.032.05.025.05.06-.02.076-.07.135-.1.207l-.01.025c-.02.008-.08-.015-.09-.046-.02-.057.04-.107.02-.164-.01-.043-.09-.04-.26.112-.07.063-.1.09-.1.144 0 .028 0 .04-.03.077 0-.04-.04-.065-.05-.098-.01-.025-.01-.048.01-.102.07-.29.07-.292.04-.3-.02-.003-.14.017-.25.128-.23.232-.23.233-.19.31.01.023.01.023-.02.08-.04.064-.04.08-.03.102.03.103.07.114.08.118.08.023.16-.024.23-.03.16-.01.22.016.22.046 0 .02-.03.06-.12.14-.02.02-.06.05-.09.08-.11.13.06.12.13.12h.01l.54-.03.02-.02v-.01c.01-.08.17-.24.22-.27l.01-.01c.05-.03.11-.05.16-.1.07-.07.11-.16.17-.23 0 0 0-.01.01-.01l.28-.39c.02-.09-.12-.02-.18-.05h-.01c-.08.03-.16.1-.21.15-.05-.04.01-.12-.06-.16-.02-.02-.05-.01-.13-.01-.02 0-.02 0-.12-.03-.05.01-.11.11-.11.11m-1.48.67h-.01c-.07 0-.38.18-.48.28-.06.06-.02.07-.01.08.07.02.13-.02.19-.02h.01c.02 0 .03.03.05.03.09-.01.22-.12.25-.15.05-.04.2-.18.02-.23"/>
      <path d="M44.023 3.988c-.046.01-.193.104-.2.13l.004.005c.048.007.087-.03.136-.024-.003.01-.007.02-.007.03.003.04.073.03.134.02.06-.02.12-.02.175-.04.026-.01.088-.04.12-.08.047-.06-.01-.06-.028-.06-.068 0-.11.01-.164.04-.046.02-.088.04-.18.02 0-.02.037-.05.01-.06"/>
      <path d="M44.62 3.98c-.164.016-.272.156-.43.19h.002l-.025.006c-.007.012-.07.024-.098.03-.08.013-.17.03-.19.098v.003c.05.053.08.098.03.224-.02.04-.01.04-.01.05.02.01.08-.03.08.01 0 .07-.14.16-.05.18.11.01.1-.17.23-.14.05.02.09.05.14.06.01.01.05.01.1 0l.09-.02c.05-.01.13-.04.19-.13l.02-.03.01-.01.06-.15c.02-.04.05-.07.07-.11.01-.02 0-.03-.01-.04-.04-.03-.04-.03-.05-.13-.01-.05-.03-.06-.1-.06-.04 0-.05.01-.1.01m2.17-2.03c.1-.02.11-.02.14-.01l.01.02c-.15.04-.31.07-.46.13h-.01l-.01.01c-.05.06-.02.14-.07.2.04.02.09.01.14.02-.04.03-.09.05-.13.08l-.01.01c.1.13.09.13.24.14.13.01.24-.09.37-.09.01.09.01.09.34-.15-.07.08-.07.1-.08.16v.01c.34-.34.48-.32.52-.29-.21.11-.27.15-.4.28v.01c.07.11.2.08.3.12 0 .01.01.01.02.01.09.01.12-.09.2-.1.01.03.01.03-.1.1-.12.07-.09.27-.09.27 0 .01 0 .01.15.05 0 .01-.01.02-.01.03-.21.05-.21-.23-.37-.27-.27-.07-.53-.05-.28.39-.17-.02-.34-.03-.55.11-.06.04-.11.11-.18.12-.06.02-.09-.06-.14-.05-.1.02-.18.11-.14.16.04.05.12.06.23.06.09 0 .13.1.2.13 0 0 .21.07.42-.05.08-.04.1-.04.15-.01.17.17.31.16.44-.01.06-.07.09-.1.15-.11 0 0 0-.01.01-.01.01.01.02.02.03.04l-.01.01s.05.12.17.12H48c.087.01.15.16.243.08.214-.18.214-.18.29-.12-.018.11-.14.11-.182.19v.01c.03.02.05.02.12.01.18-.04.33-.16.53-.12.08-.07.18-.08.26-.14.04-.03.18-.15.12-.26-.01-.02-.04-.07-.1-.08-.07-.01-.13.04-.2.03 0-.06-.01-.08.36-.32l-.01-.01c.03-.05-.05-.12.02-.17 0 0 .32-.07.4-.09h.01c0-.03 0-.03.17-.34v-.1c-.02-.02-.05-.01-.08-.02v-.01c-.05-.01-.29-.13-.3-.14l.02.01c.19.08.39.12.32-.12.07-.08.19-.06.19-.06h.01c0-.01 0-.01.06-.02.25-.08.3-.14.19-.22h.01l.04-.01c.06-.08.04-.21.14-.28.06-.03.06-.1.09-.15-.1-.08-.23.05-.33-.03.07 0 .07-.01.08-.03.1-.01.12-.02.16-.04.01 0 .01-.02.02-.02-.02-.03-.03-.05-.16-.1-.24-.07-.49-.05-.72-.11h-.05L49.7.81 49.6.8v.015c-.015 0-.033.004-.046.007l.008.02c-.093-.03-.093-.03-.14-.01.006.02.005.02.046.048-.13-.038-.13-.038-.14-.036-.17.046-.17.046-.24.084v.05c-.01-.01-.022-.024-.028-.036-.16-.004-.16-.004-.31.044l-.01.003V1l-.013.02h-.048L48.66 1h-.013l-.537.12h-.005c0 .01 0 .017.002.025h.048c.007.01.02.015.028.02l-.03.013-.01.002c-.02.022-.02.052-.04.073l-.005.008c.025 0 .046-.01.07-.02-.08.05-.106.05-.135.05l-.006-.01c-.006.02-.01.03-.005.05l.05.02c.032.12.036.13.113.12.136-.02.217-.14.34-.18-.098.07-.19.14-.29.21l-.013.01h.01c.025 0 .048-.01.07-.02.08-.01.135.09.218.05.19-.08.19-.08.216-.08 0 .03 0 .03-.03.06H48.7c.1.04.43-.11.58-.19-.03.03-.04.07-.08.08l-.01-.01.02.04.008.01.004.01c-.554.11-.555.14-.56.2.12.11.12.11.11.2-.04-.04-.07-.08-.12-.11h.005c-.09-.15-.09-.15-.2-.15h-.01c-.074-.01-.146.02-.22.03l-.01-.02-.02-.01h-.01l-.114.25c.067.04.168.03.196.13-.03.05-.04.07.01.15-.08.01-.16.04-.25.03l-.01-.02c.15-.18.15-.18.12-.2-.11-.05-.11-.05-.11-.09l-.02-.01c-.06.01-.06.01-.07.01.03-.09.09-.16.14-.24l-.01-.02h-.06c-.11-.03-.13.09-.2.12l-.02-.02c.03-.05.08-.08.11-.13l-.01-.03v-.04c-.06.02-.06.02-.08.01v-.1c.01-.07.07-.11.1-.17-.01-.02-.06-.07-.2-.01h-.01c.01.01.02.02.02.04 0 0-.07.03-.13.03v-.02c-.02.01-.21.05-.27.14-.03.05-.05.05-.08.04V1.4c-.03 0-.04 0-.1.03l-.01.01c-.04.06-.08.07-.28.13l-.01.01-.01.02.02.01-.01.02c.01.01.02.02.03.04l-.05.02c-.01-.01-.02-.03-.02-.05-.12-.04-.4.25-.41.38l.33-.01zm2.31 1.65V3.6l-.02-.02c-.01 0-.01.003-.02.013l-.01.003c-.02.062-.02.062-.11.133-.02.01-.04.02-.05.04-.01 0-.01.01 0 .03.09.12.19.05.21-.08.01-.07-.01-.11-.02-.12zm-.33 5.59c.07.01.24-.1.33-.19.06-.05.07-.1.07-.18 0-.1 0-.14.04-.2s.11-.06.17-.1l.01-.01c-.04-.16-.04-.16-.08-.16 0 0-.01 0-.01.01 0 0-.19.06-.26.18-.07.11-.03.26-.15.35-.01.01-.13.1-.16.17-.03.08.01.13.03.15v.01zm.31.26c0-.04-.01-.06-.03-.08l-.02-.01c-.03.01-.04.02-.06.07-.02.04-.03.07-.05.08-.05.04-.12.03-.16.07l-.01.01c-.03.04-.02.09-.01.14v.03c.07-.06.18-.09.25-.16.01-.01.06-.06.07-.14m.88 1.13c.03.03.06.02.15.01.14-.02.28.03.41-.02 0 0 .29-.11.33-.24.01-.04 0-.07-.01-.08-.03-.08-.12-.11-.16-.18-.06-.14-.01-.3-.11-.43-.05-.08-.21-.08-.29-.08-.24 0-.47.09-.49.13-.01 0-.22.39-.16.53 0 .03.02.06.05.1 0 0 .25.26.27.27m1.12-.52c.03.01.07.02.1.02.02.01.05.01.09.01.08 0 .1-.04.1-.07.01-.1-.2-.26-.38-.26-.06.01-.08.02-.11.06h-.01c0 .06-.01.11-.01.17 0 .01 0 .03.01.04.01.01.02.02.05.03.05.01.09.01.14.02m-4.21 4.36c-.3.01-.53.01-.86.31-.1.09-.21.26-.15.33.01.01.03.04.08.05.1.03.19.02.29.04.06.02.11.07.18.08.03.01.03.01.06.01s.08-.01.13-.04c.08-.06.1-.16.18-.23.13-.11.3-.15.44-.26.02-.02.05-.06.07-.08.04-.07-.01-.13-.05-.16 0 0-.09-.04-.35-.05m1.22 1.29l.02.03c.03.04.13.18.19.13.01 0 .01-.01.01-.01.05-.08.01-.18.05-.26.03-.07.1-.11.17-.15.07-.04.13-.08.14-.14.02-.08-.27-.34-.28-.35 0 0-.07-.06-.19-.06-.06.01-.1.02-.15.07-.04.05-.03.12-.06.17-.03.07-.1.1-.15.16-.01.01-.01.02-.01.03 0 .01.01.02.01.03.02.02.04.05.07.09.06.09.09.19.14.28l.01.02m1.29-1.3c.03.02.06.03.1.02.12-.02.18-.22.19-.35.01-.11.01-.21-.43-.21h-.03V14c-.23.03-.29.22-.17.34.06.06.33.2.34.2m10.57 16.6c.01.02.03.04.05.05.11.064.24.04.35.1.11.06.16.19.27.25.04.02.11.026.15.03.1-.03.36-.486.38-.595 0 0 .04-.22-.3-.02-.15.086-.27.14-.38.1-.03-.145-.11-.19-.43-.277-.35-.09-.49-.15-.37-.39l.04-.09c-.16.08-.26.14-.31.24-.07.13.08.33.18.44.07.08.23.2.35.16M61.22 30c.1-.08.09-.24.22-.302l.08-.03c-.127-.033-.127-.033-.18-.033-.156.008-.235.07-.28.12-.02.02-.07.126-.07.127-.01.04.003.07.015.105l.002.01c.08.032.147.06.214.004m-1.34-2c.22.22 1 .27.98.01 0 0-.01-.09-.08-.12-.18-.08-.37-.12-.55-.19-.11-.04-.24-.03-.34-.12-.23-.22-.32-.32-.77-.33-.06 0-.2.01-.17.13.05.1.24.41.69.52.15.04.15.04.26.14m6.22 1.95c.04.02.04.02.19.5.06.18.16 0 .19-.06.54.34.54.34.6.29.13-.09.21-.82.21-.87-.01-.21-.13-.31-.27-.38-.08-.53-.08-.53-.15-.62-.16-.2-.44-.2-.62-.37.04-.12.16-.19.21-.31.02-.1-.11-.14-.22-.16-.02-.12-.06-.21-.16-.33v-.01c-.23-.04-.52-.1-.57.32-.01.13-.03.16-.13.16-.1-.01-.57-.32-.57-.32-.02-.06-.02-.06.3-.4l.02-.02c-.24-.2-.54-.04-.8-.14l-.01-.03.05-.03.01-.01-.01-.02-.03-.04.01-.02v-.01c-.05-.15-.01-.3.12-.44h.01l-.01-.02c-.03-.37.4-.7.08-1.09l-.01-.01c-.05.01-.05.01-.65.59-.06.06-.18.18-.25.37l-.02.07c-.05.16-.16.58-.22.88-.08.48-.11.61-.2.81-.44.88-.44.88-.39 1.15.07.4.07.41 1.73.45.59.01.59.01.64.17.04.13-.01.28.07.4.07.1.17.1.27.09h.03c-.04-.08-.12-.22-.08-.33.08-.21.46-.25.67-.17m-48.77-4.88c0 .04.02.11.15.06l.03-.02c.04-.04.07-.18.13-.49.04-.2.1-.51.17-.67.07-.15.21-.25.26-.41.01-.01.01-.02.01-.04.02-.06-.04-.11-.02-.17.03-.14.09-.28.1-.43.01-.06 0-.08-.02-.11-.03.02-.47.31-.6.61-.08.16-.02.32-.03.49 0 .11-.04.21-.05.32v.05c0 .1.02.21 0 .32-.02.17-.11.33-.1.51M14.07 19c-.2.21-.33.33-.71.564-.23.145-.32.31-.5.705l-.01.01c.07-.05.11-.12.18-.17-.07.13-.084.18-.087.22v.01c.25-.31.61-.52.86-.84.1-.13.07-.16.06-.17.13-.16.2-.28.2-.35l-.01-.01zm.19-.2c-.06.08-.13.227-.13.293 0 .1.22-.14.22-.14.092-.11.142-.24.15-.37v-.01c-.05.04-.11.07-.15.11-.05.04-.07.07-.1.11m-.49-1.92c.054-.06.183-.2.202-.23.01-.01 0-.04-.02-.05-.04 0-.12.06-.28.2l-.01.01c-.02.02-.04.04-.05.07l-.05.05c-.13.13-.32.35-.32.41v.006c.01 0 .01-.01.02-.01 0 .01-.01.02-.04.07s-.03.06-.03.06c.05-.02.565-.58.57-.59"/>
      <path d="M75.44 76.92c-.535-.2-.535-.2-.672-.395-.41-.88-.672-1.205-1.324-1.28h-.006c-.698-.05-1.882-.27-1.89-.273-.786-1.39-.787-1.39-2.024-1.45-.523-.062-.892-.59-1.47-.485.612-.8.61-.8.595-1.193-.46-.23-.57-.285-.43-1.125v-.02c.06-.49.02-.58-.16-1.02-.48-1.05-.48-1.05-2.91-1.05-.86 0-.86 0-2.03-2.15l-.49-.13c-.07-.13-.18-.3-.28-.4-.29-.56-.29-.56-.28-1.22-.09.03-.2.09-.29.11.24-.05.32-.27.35-.39v-.03h-.01c-.03-.03-.03-.03-.04-.03-.1.01-.28.2-.35.34-.29.37-.29.37-.58.5l-.23-.1c.03-.15.12-.35.21-.47l-.09-.25c-.27-.09-.27-.09-.9.31-.05-.15-.15-.34-.24-.46l-.21.04v.02c0 .98-.43 1.06-.83.71-.44-.38-.44-.38-1.25-.27h-.05c-.32 0-.32 0-1.04-.27l-.06-.19c-.1-.13-.23-.29-.34-.42-1.88.53-1.88.53-2.05.69-.06-.13-.16-.31-.23-.43.25-.39.38-.58.65-.56l.01-.02.04-.2.03-.01c-.18-.19-3.27 1.13-3.29 1.15L50 66.68c-.456-.08-.616-.54-.97-.747l.006-.03c-.413-.224-.413-.224-2.214.11l-.236.016h-.032c-.14.04-.32.13-.434.22-.02-.02-2.065-1.86-1.34-3.47-.215-.67.49-1.46-.28-2.05.036-.08.084-.2.135-.28l-.026-.02c-.02-.01-2.28-.88-3.92.14l-.18-.21c.04-.15.11-.34.17-.48.21-.6.74-2.4.74-2.41l.03-.14v-.05h-.01c.04-.7 1.26-1.38.51-1.99-.49-.4-1.54-.31-2.69.24v.01c-.59 3.87-3.87 2.44-4.47 1.61-.53-.73-.89-1.78-1.08-3.12l.05-.01c-.01-.43 0-.67.02-1.02.1-.47.11-.96.25-1.42v-.02C33.4 49.51 35.99 48.03 37 48c0-.03.055 0 .08 0 .22.03 1.49.23 1.497.23.08.14.23.4.63.51h.126c.14-.01.25-.1.39-.11.22-.02.59.34.64.04.02-.13-.05-.18-.15-.24-.33-.19-.41-.71.11-.898.016-.01 1.88-.42 2.62.22.14.11.165.14.34.47l.02-.01c1.176-.45 1.176-.45 1.912.31.62.65.153 1.57.563 2.27-.033.05-.033.055-.033.06l.015.01c.055.04.12.104.16.16.12.15.026.36.14.51.117.16.356.13.464.3.14.22.186.48.29.714l.02.005c.15.12.155.34.326.43l.015-.02c1.095-1.93.05-4.3-.156-4.5-.22-.22-.64-1.78-.24-2.51.2-.37 2.19-2.11 3.04-2.66 1.85-1.18 1.85-1.18 1.3-2.13h-.01c-.16-.11-.16-.1 0-.56.22-.65.56-1.27.72-1.94.17-.11.64-.39.55-1.2-.11-1 .69-.86 1.05-.75.34.08.37.05.83-.45.32-.33.48-.44.72-.13l.02-.03c.19-.2.55-.17.64-.5.01-.06 0-.14-.02-.19h-.02c-.12.05-.12.05-.4.22-.02-.19-.27-.21-.28-.4 0-.03-.01-.07-.01-.1l.21-.95.02-.05c.78-1.73 3.11-1 4.02-2.52.35.39.36.4.58.47-1.1.46-2.76 1.17-1.06 1.69.3.09.43-.2.66-.28l-.01-.02c.05-.82 1.76-1.11 1.78-1.12h.09c.32-.01.42-.05.47-.28 0-.06 0-.06.15-.59.04.01.1.02.14.03l.05.14c.49.06.73-.36.56-.61-.29-.41-.29-.41-.21-.54l-.03-.01c-.23-.06-.85-.23-.8.8.01.38-.29.36-.97.31h-.1c-.09 0-.21-.01-.3-.03-.14-.24-.14-.24-.67-.34-.73-1.8-.73-1.8-.97-1.94 1.27-.9.6-1.25.09-1.37-.36-.09-.73.01-.92.06-1.22.32-1.83 1.43-2.76 2.12.25-.3.25-.4.29-.9.32-.03.4-.04.74-.64.11-.19.18-.3.25-.37l1.47-1.14c.02-.01 1.67-.47 3.36.01h-.01.03v.01l.01.02.01-.01.02-.02.02-.02c1.22-.75 1.22-.75 1.35-.9v-.01c.02-.09.09-.2.15-.27.4.06.4.06.56.02h.02c.01 0 1.04-.45 1.04-.68 0-.01-.47-1.38-.49-1.4h-.01c-.43-.23-.73-.66-1.24-.75-.4.05-.4.05-1.1.74-.19 0-.19 0-.43-.13.11-.25.13-.31.88-.56.31-.09 1.02-.28.69-.58-.58-.52-1.48-.39-2.05-.95-.51-.5-.6-.53-.89-.61-.04-.07-.11-.17-.16-.23l.12-.08c.08.03.18.08.24.14l-.01-.06.02-.04h.01v-.05h-.01c-.01-.02-.01-.02-.1-.54-2.49-2.82-2.49-2.91-2.5-3.15-.09-.11-.16-.11-.23-.1-.29 2.22-1.13 2.31-1.42 2.16-.02-.09-.03-.21-.04-.29-.61-.42-.61-.42-1.2-.25.09-.14.09-.14-.07-.77.14-.14.14-.14-.08-.78-1.55-.04-3.12-.03-4.72-.02v.02c.07.8.07.8.05.81l-.11-.01-.01.02-.02.02-.01.01.01.01c-.15.28-.39.51-.48.82l.01.01c2.73 1.22.8 3.61-.04 3.78-.76.15-.92.19.06 2.85-.21.16-.87.62-.87.82-.21-.02-.41-.02-.62-.03l.02-.11c.1-.27.1-.27-.03-.48-.12-.02-1.2-.35-.63-.97.46.01.46.01.51-.04v-.01c-.22-.3-.22-.3-.89.04-.01-.08-.02-.19-.02-.27l-.04-1.12c-.16-.32.23-.56.12-.87h-.01c-.98-.38-2.1-.21-3.01-.82l-.01.01c-.63-.28-1.04-.88-1.69-1.13-.52-.19-1.07.01-1.6-.09-.26-.44-.01-.96-.24-1.41 0 0-.23.02-.05-.06-.12-.07-.14-.08-.33-.09h-.07c-.81-.02-.01-1.64 0-1.65.3-.52.81-.86 1.11-1.37.72-.77.72-.77.93-.76.01 0 .87-.13.65-.54-.03-.05-.05-.13-.06-.18V14c.27-.145.37-.603.79-.483.12.033.43.12.77-.103.01 0 .92-.98.95-1.064h-.02l-.29-.04h-.02c-.11 0-.16 0-.38-.006h-.01c-.17.007-.17.007-.44-.37-.16-.07-.21-.092-.49-.19.52-.02.78.62 1.32.52.02 0 1.12-.79.93-.914-.05-.03-.14-.013-.19-.01.09-.412.6-.03.61-.022-.03.11-.04.17-.19.354-.13.11-.32.15-.41.31-.02.03-.05.07-.06.105-.17.36-.13.756-.22 1.127-.07.3-.5.24-.56.55.01.02.03.05.04.07.11.02.11.02.25-.008.35-.07.36.49.72.4.39-.09.66-.47 1.09-.464.18 0 .3.036.45.08 1.22.38 1.12-.26 1.11-.27-.01-.01-1.16-1.27-1.98-1.24-.06.006-.15.02-.19-.012-.18-.12-.17-.36-.32-.497.08.01.08.01.27.43.31-.154-.02-.5.1-.73l.06.06c.09.09.11.11.12.196.19.17.49.43.48.07 0-.03-.02-.06-.03-.09-.12-.05-.12-.05-.11-.41 0-.13 0-.17-.09-.31.13.13.18.32.3.45h.01c.04-.01.1-.01.13 0l.01-.01c.99-.91.99-.91 1.01-1 .07-.36-.45-.38-.4-.72.04-.3.46-.28.48-.59 0-.03-.01-.07-.01-.09-.02-.1-.02-.1-.45-.42-.01-.15-.04-.54.81-.49-.15.14-.15.14-.15.15h.1c.11.03.11.03.45.3.03-.02.07-.03.09-.05.11-.08.07-.25.18-.34.11-.09.27.02.38-.08-.09-.17-.34-.22-.36-.45l.08-.03c.79.59.79.59.85.58.02.05.02.05-.21.47l-.01-.01-.02.08c.11.17.43.19.47-.02.01-.05.01-.13.01-.18.33.04.31.18.29.27-.11.04-.24.05-.35.1l-.01.08c.16.18.38.18.47.17.03-.05.06-.13.07-.19.09.01.18.01.27.02 0 .02.01.06.02.09-.07.06-.15.1-.21.18.01.05.04.11.07.15.8-.06.8-.06.97.16.14.18.13.45.35.58.16.1.08.33-.22.69-.16.21-.52.2-.6.5h.01c.14.16.37.53.37.53-.13.01-.21.12-.31.17-.05-.01-.11-.04-.15-.07l-.01.02-.06.07c-.18-.02-.24 0-.33.23-.27-.24-.27-.24-1.01-.33l-.02.03c-.12.23-.54.29-.43.64.02.02.04.04.07.06.02.01.05.02.08.03.13.09-.03.26.1.35.08.05.08.05.44.02h.04c.94-.07.94-.07.98-.19.11-.31.15-.32.46-.14.18.11.4.24.57.39.28.24.45.57.79.75-.03.05-.05.13-.04.18.12.09.29.08.42.16.17.14.54.51.54.52l.01-.03c.06-.11.07-.14.17-.17l.08-.05c.11.03.11.03.15.11H54c.11.04.156.07.26.2.07.09.12.15.21.19l1.03.25c.44.02.7.41 1.085.54l.07.01c.19-.02.19-.02.27-.09-.13-.42-.22-.51-.423-.44-.02.05-.044.12-.06.17l-.084.02c-.342-.34-.53-.82-.94-1.1-1.09-.73-1.09-.73-1.18-.85.11-.02.18-.04.43.17l2.276 1.2c.02-.05.04-.13.04-.19-.47-.11-.47-.11-.41-.75.08-.05.172-.08.25-.14l-1.1-1.22h-.1c-.28-.45-.894-.55-1.11-1.07-.093-.24-.1-.32-.03-.38.02-.02.227-.07.455.04.32.14.54.42.82.63.52.44 1.01.87.99.21 0-.06-.01-.13-.01-.19.09-.11.29-.03.37-.19.01-.03.01-.03-.11-.37.12-.23.4-.32.5-.57h-.01c0-.05.01-.11 0-.15-.04-.07-.04-.07-.35-.03h-.05c-.14-.01-.21-.02-.48-.1-.2-.49-.77-.37-1.08-.66-.09-.11-.13-.25-.23-.34l-.01.01c-.03.04-.07.11-.11.15-.06 0-.13-.01-.18-.01-.02.02-.04.05-.05.07-.25-.1-.31-.36-.48-.53l-.07-.05c-.18.08-.18.08-.8-.1-.01-.14-.03-.32.57-.33-.06-.18-.14-.28-.41-.29-.05-.03-.12-.07-.17-.11l.12-.03h-.01.02l.09-.04.06-.01h.06l-.05-.03c-.52-.41-.52-.41-.77-.39.04-.05.08-.12.09-.17-.2-.33-.61-.32-.82-.32-.05 0-.12-.03-.16-.06-.15-.1-.18-.32-.36-.39-.25-.12-.25-.12-.92.13h-.03c.11-.16-.13-.56-.22-.63l-.08-.01c-.06 0-.06 0-.26.05.04-.04.09-.08.13-.11v-.01c-.07-.08-.17-.11-.25-.18-.19-.15-.45-.05-.66-.17.71-.07.13-.49.12-.5-.14-.09-1.43-.43-1.39-.01.04.44.15.45.85.54-.05.46-.64.17-.88.43l-.09-.02c.02-.07.02-.07.26-.46-.02-.04-.06-.09-.1-.12h-.01c-.04-.08-.05-.17-.08-.26-.06-.09-.08-.12-.03-.25h-.01c-.75-.28-1.66.37-1.76.653.02.035.05.09.04.135v.01c.03.12.11.21.15.32-.63.05-.09.54-.08.55l-.05.07c-.16-.027-.23-.17-.36-.24-.02-.113-.01-.23-.02-.345.07-.04.16-.03.22-.086v-.01c-.18-.35-.18-.35-.19-.4.25-.3.75-.34.82-.81-.2-.05-.57-.07-.57-.07-.96.13-2.16 1.84-1.73 2.14.23.16.46-.05.69.02-.2.24-.47-.06-.68.1v.01c.04.59.24.59 1 .57V8c-.32.18-.32.18-.33.224h.01c.42.134.85-.155 1.26.04l.08.01h.01l.01-.002.01-.04c.57.1.56.22.48.37-.42-.39-.86-.32-.87-.32-.01-.02-.04-.046-.05-.066l-.03-.02c-.18.04-.23.11-.19.34-.02.02-.06.033-.07.06-.07.184.23.23.16.41-.07.2-.35.16-.43.36-.02.06-.03.15-.04.22-.03.23-.18.386-.34.24 0-.04.01-.105.04-.14l.02-.01.01-.01.02-.01-.01.006c0-.04 0-.09-.01-.125h-.02c-.46.15-.1 1.01-.62.94l-.29-.67.07-.06v-.01c.05-.14.05-.14.3-.32v-.01c.03-.11.03-.13.02-.19 0-.01 0 0 0 0-.15-.14-.18-.39-.4-.46-.22-.07-.34.21-.55.16l-.01.02c-.01.1-.02.2-.04.3l-.08.01c-.09-.08-.09-.08-.09-.39l-.01.01-.07.01c-.03-.43-.03-.46-.26-.39l-.01.01-.05.07-.09-.02v-.09l.08-.05V8.4l.01-.09c.05-.02.12-.05.16-.09 0 0 .23-.26.26-.5-.04-.03-.1-.07-.13-.11h-.01V7.6l-.01.004h-.09c-.03-.22.11-.425.04-.646l-.52-.27c-.05.02-.05.02-.25.17v.01l.01.03c-.04.05-.1.12-.14.167l-.02.002-.03-.07c-.08.02-.64.275-.59.62l.11.06v.1c-.43-.14-.42.434-.41.44.04.12.16.16.24.25l-.02.09.01.005c.15.026.3-.027.45-.03.05.096.05.096-.29.63l.01.005c.11.01.21-.02.32-.01-.27.64-.72.7-.72.7-.28.016-.28.016-.46.74-.06-.03-.15-.06-.21-.07-.06.04-.14.084-.2.11-.02-.304-.02-.304.47-.844-.02-.024-.05-.06-.07-.09-.54.018-.54.018-.49-.17l.02-.01.01-.003c.06-.024.14-.036.21-.03.37.167 1.1-.45 1.1-.456l-.02.004v-.01l.01-.01c-.04-.05-.09-.11-.12-.16l-.07-.09c-.07 0-.15.02-.21.045-.13-.08-.13-.08-.44-.47-.32-.02-1.17.696-1.17.704l.02.11c.19 0 .19 0 .28.12.07.008.17.03.23.06-.11.253-.51.166-.57.487-.04.23 0 .24.44.27-.21.168-.6-.04-.6-.04l-.01.005-.02-.01-.01.01c-.05.01-.05.01-.64.05-.75.06-1.66-.28-1.65-.75 0-.07-.01-.16-.03-.23-.34-.1-1.31.34-1.42.59.03.02.03.02 1.08-.19-.31.26-.81.11-1.05.5l-.02.01c-.19.29-.32.63-.5.93-.01-.11-.01-.11.16-.57-.4-.47-.61-.71-2.27-.29l-.06-.1c.03-.05.03-.05.77-.47l.01-.01c.04-.06.08-.16.08-.23-.09-.08-.15-.17-.24-.25-.38.06-.38.06-.54 0-.42-.38-.42-.38-.46-.37l.01-.02H33l.01-.01-.04.02-.11-.02c-.02-.06-.04-.15-.05-.21-.16-.1-.37-.01-.53-.11-.27.09-.42.44-.77.34.09-.25.475-.53.68-.68l-.03.01c-.415.17-.704.53-1.12.7L31 8.58c.19-.31.616-.88.62-.88-.276.034-.43.275-.668.38l-.012.013c-.2.18-.47.13-.71.2l-.01.01c-.203.14-.26.17-.45.24-.13.04-.13.04-.4.09.156-.08.34-.09.5-.17.13-.04.13-.04.83-.44l.03-.02v-.008c-.012-.014-.03-.026-.104-.025-.11 0-.16.02-.22.05l-.25.1-.06.02c-.48.133-.91.39-1.38.545l.04-.02c.12-.07.24-.14.35-.25-.09-.005-.09-.005-.26.04l-.07.01h-.01l-.02.01c-1.07.653-1.1.575-1.22.284.08-.13.22-.21.3-.35-.04-.08-.06-.12-.22-.1 0-.11.01-.13-.09-.36-.226-.04-.226-.04-.57.11l-.08.03-.078-.03c-.01-.12-.01-.12.19-.38l-.09.02-.01-.09c-.14-.04-.15-.04-.28 0 .03-.11.124-.19.164-.3-.05-.01-.12-.01-.17-.01l.23-.32h-.02c-.12.04-1.064.41-1.35.56l-.01.01L23 8.85c-.398.12-.696.37-.698.37-.45.3-1.897 1.58-2.01 1.8h.054c0 .01 0 .01-.61.34l.04-.07h-.003c.088-.09.12-.13.5-.41l.007-.01c-.264-.01-1.606.98-1.62.99h.01c-.274.34-.72.5-.903.93.15.06.15.06.598-.17l-.01.09-.12.09-.013.01c-.874.81-.874.81-1.61 1.26.017-.09.017-.09.08-.17l-.015.02c-1.635 1.38-1.79 1.546-2.264 2.1h.008l.12-.08.01-.01.02-.02.02-.02c-.09.13-.22.23-.32.36l.01-.02-.29.27-.01.015c-.02.024-.04.06-.06.083.05.06.14.066.24.07l.07-.065c.4.09.98.115 1.71.136.25-.24.67-.57 1.23-.8-.01.03-.03.07-.05.09-.31.24-.67.42-.98.68.25.04.56.04.88.05v-.02l-.03-.09c.16-.22.42-.42.6-.47.05.03.1.07.13.12-.04.16-.14.29-.19.45.05.02.1.02.14.02l.09-.02c1.31.04 1.31.04.02.02-.29.32-.2.34-.08.34.12-.01.19.13.31.09.07-.03.08-.03.1-.02.18.01.25.29.47.2.15-.06.24-.29.43-.18 0 .24-.26.28-.34.45-.09.19.11.35.04.53l-.05.09c-.06.08-.06.1-.08.14l.02.02.03-.01.03.02c-.03.39-.03.39.09.4.22.01.03.39-.04.51-.13.17-.27.36-.34.67-.01.06-.05.27.06.36.06.05.06.08.03.16-.12.33-.12.33-.12.36 0 .02.02.04.04.05.07-.01.12-.07.17-.1.2.13-.25.26-.18.46.16.05.16.05.15.07-.02.19-.15.33-.22.51-.03.07.03.14.01.21-.02.1-.13.16-.14.27-.02.1.01.13.02.14.16-.04.24-.23.42-.23.01 0 .39.15.41.2-.39 2.3-.39 2.3-.38 2.34.05.02.05.02.34.04l.01.11c-.67.76-.18 1.09.49 1.56.05.33.05.33.21.38.05.19-.04.38.02.57.07.01.16.03.23.03.08.17.05.35.08.52l.01.03h.01c.27.64.27.64-.22 1.84.06-.69-.11-1.37-.13-2.06l-.63-1.39c-.01 0-.57-.31-.77-.15v.02c-.02 1.16.79 2.13.76 3.3-.01.68-.74 3.39-.93 3.7l-.04.07-.02.03c-.2.35-.27.46-.35.74l-.01.04c-.56 2.38-.56 2.38.2 6.05.21.78.18 1.6.51 2.36.18.41.64.53.91.86.34.42 1.07.5 1.06 1.23 0 .01.29 2 .29 2.01.21.5.02 1.17.64 1.49.5.26.75.87.76.88.03.08.06.2.05.28-.02.23-.36.07-.39.3-.02.12-.02.12.25.71.05.1.17.37.78.97.72.79.67.9.53 1.19-.09.18-.07.34.06.45.71.64 1.29 1.53 1.3 1.54.3.47.33.5.46.61l.07-.03c.01-.11.01-.19.05-.32.27-.88-.78-1.14-.86-1.86-.03-.69-.03-.69-.49-1.64l-.59-1.2-.01-.01c-.02-.02-1.92-2.64-1.48-3.99l.02.01.01-.01.1-.03c.5.26.82 1.09.82 1.1-.29.55 1.06 2.33 1.37 2.49v-.01l.09.08.04.05.01.01.99 1.78c.23.79.99 1.16 1.41 1.8l.97 1.56h.04c.1 0 .18-.01.26-.01l.01.01c.3.54-.3 1.17.17 1.7.02.02 1.64 1.8 3.59 2.58l.27.1c2.54.94 2.54.94 3.02 1.04 2.12.44 2.12.44 2.23.63.07 0 .18-.04.25-.01.79.37 1.54.86 2.34 1.22l.02-.01c.49.14.9.46 1.38.63.13-.08.29-.2.4-.29.36.38.46.96.95 1.23v.02c.19.57.64 1.01.83 1.58 1.47.59 2.42 2.21 4.24 2.1l-.01-.03c-.05-.15-.12-.34-.18-.49.62-.7.74-.7 1.01-.69.19.22 1.33 2.55 1.34 2.82-.04.4.04.8.02 1.2l-.03-.01c-.26.57-2.75 3.62-2.77 3.64l.02.01c.81 1.34.81 1.34.85 1.36-.67 1.88-.67 1.88-.56 2.12-.04.3-.06.45.33.68.38.22.38.22.64.6.3.45.96 1.73 1.08 2.2l1.39 2.69c.86.6 1.91.91 2.61 1.75.49.58.38 1.63.32 1.73l.01.01c.23.88-.28 1.66-.32 2.5l-.02.04-.01.01v.01l-.03.07c-.71 1.73-.71 3.71-1.8 5.32-.69 1.26-.68 2.05-.65 2.33l-.17.2c.1-.05.24-.13.31-.22 0 .15-.02.35-.08.49l-.19.02h-.01l-.03.22.01-.01.09.23c-.04-.06-.08-.16-.14-.2 0 .08.02.2-.02.27h.01c-.13.07-.28.19-.39.3.02.02.04.06.06.09v-.01l.12.21-.06-.02v.01l-.09.03h-.01c-.02.08-.08.19-.06.27h.01l.02-.01-.07.12.01.01h.01l-.03.12-.01.17h.01l.06.04v.04c0 .02 0 .02-.006.02l-.03-.02-.04.04.05.01-.03.02.01.04h.08l-.1.05-.01.01.07-.01c.08-.01.2-.01.28-.02l.01-.04.15-.11-.07-.01.11-.01h.01l.15-.16c.44-.34.72-.46.73-.46.14-.07.31-.17.42-.27l-.12-.21c.37-.47.96-.69 1.35-1.14.06.02.13.05.19.07l.16-.18c-.07-.01-.16-.02-.24-.03 0-.14.06-.33.15-.44l.04.04-.01.03h.01c.01 0 3.01-1.28 3.41-1.72-.02-.07-.05-.16-.07-.23.09-.11.17-.3.2-.44.61-.21 1.26-.29 1.84-.59.32-.19.61-.37.93-.75 1.94-.77 2.74-2.8 4.36-3.93.4-.38.4-.38.85-.44 2.99-1.39 2.99-1.39 3.8-2.32 1.35-1.55 1.35-1.55 1.7-2.28.777-1.65.98-2.09 1.42-2.06v-.01c2.4-1.91 2.71-2.62 3.33-4.03.35-.82.3-.96.19-1.27M51.75 11c.04-.06.17-.01.23.01-.08.01-.16.01-.238-.01m.67-.07c.07-.04.12-.1.14-.13.08-.09.12-.12.19-.11.15.02.22.18.35.24.09.04.19.05.28.1l.03.015c.12.08.13.18.13.2 0 .02 0 .08-.06.11-.11.05-.2-.05-.31-.06-.22 0-.2.32-.42.303.01-.05.04-.1.02-.14l-.22-.34c-.02-.03-.05-.044-.07-.06-.12-.07-.25-.07-.38-.06.25-.04.26-.044.31-.072M33 54.173l.464-.08c-.16.03-.32.09-.46.08M50.2 99.83l-.012.006h-.003c-.006-.008-.01-.01-.017-.01.01-.004.02-.01.03-.01.008 0 .008.006.006.01l-.003.003m4.27-34.12c-.01.2-.06.23-.24.24-.09-.01-.14-.04-.19-.14-.01-.03-.02-.07-.03-.11l-.07-.4c-.01-.08.03-.22.03-.22.03-.09.08-.17.11-.26.02.06.04.09.14.15.09.06.31.22.27.7m6.18 26.89c-.06.08-.18.15-.28.22-.16.1-.26.18-.5.37l-.05.04c.08-.11.14-.16.3-.29.15-.12.28-.25.42-.36.13-.1.16-.11.18-.11.03.01-.04.12-.04.12"/>
    </g>
    <path fill="#F49A00" d="M63 66.295s-.844.24-.884.764c-.04.52.442.56-.12.84-.563.28-.764.32-.482.68.28.36.12.6.44.64.323.04.443.08.443.4s.442.24.362.6c-.09.36-.21.72-.25.92-.04.2-.12.64.12.96.24.32.16.76.64.64s.6-.24.88-.36c.28-.13.52-.25.8-.25s.76 0 .64-.28.64-.36.64-.36.48.32.6-.2c.12-.53.24-.61.16-.97-.08-.37-.52-.65-.08-1.17.44-.53.72-1.21.72-1.21L63 66.29z"/>
    <path fill="#666" d="M15.4 17.58c-.012.044-.017.06-.227.246l-.008.015c-.05.1-.045.11-.034.13h.02c.05-.01.15-.04.59-.45.01.02.01.03.05.02.2-.05.34-.21.53-.29.25-.1.25-.1.28-.03.02.06.05.07.08.06.03-.01.03-.01.58-.48.01 0 .02-.01.02-.01h.01l.13-.1-.12.08-.04.03c-.22.14-.22.14-.22-.01-.32 0-.62-.01-.91-.02-.51.47-.67.77-.69.84m41.74-.85c-.05.01-.07.06-.08.1h.21c-.04-.1-.12-.1-.12-.1m-2.69-.25c.02-.12-.05-.17-.53-.22-.22-.03-.22-.03-.49-.11-.09-.03-.16.07-.25.03-.08-.03-.1-.1-.11-.19-.01-.17-.02-.24-.16-.32-.38-.22-.38-.22-.39-.23-.4-.38-.4-.38-.57-.41-.11-.22-.39-.35-.53-.35-.05.01-.05.01-.1.05l.02.01c.53.46-.03.49-.03.49-.14 0-.09-.15-.07-.22l-.03-.01v.01c-.09.21-.09.21-.31.17-.36.05-.65-.25-1.01-.23h-.03c-.1 0-.18-.05-.28-.07h-.02c-.2.02-.27.3-.29.42-.03.18.12.31.15.47.08.46.07.47-.39.81l.03.01c.15.08.28-.11.42-.02.1.06.09.22.09.34l4.71-.03c0-.16.19-.22.21-.37m-36.81.31h-.13c.01.04.05.03.13.01m-3.45-.11l-1.4 1.71c.02.01.05.03.07.03-.01.03-.02.06-.03.08.02 0 .02 0 .42-.41.01.02.03.04.02.06-.02.19-.17.31-.22.48.06 0 .09 0 .28-.21l.01-.01c.04-.07.08-.14.22-.27.01.1-.06.17-.09.26.06.01.07.01.24-.12-.54.59-.54.59-.66.75-.1.13-1.05 1.11-1.05 1.12v-.08l-.01.02c-.13.14-.84.88-1.13 1-.14-.04-.53.44-.53.45-.14.18-.14.18-.53.5l-.03-.03c-.4.24-.6.68-.94.98-.21.18-.33.45-.55.62l-.01.03c-.04.09-.04.09-.05.14.14-.04.28-.24.34-.34.26-.4.93-1.03.93-1.03.01.05.01.05-.05.15l-.01.04c.23-.19.42-.43.66-.61l.04.01c.05-.03.1-.07.16-.1l.03.03c-.04.15-.04.15-.08.23h.01c.05-.01.08-.02.25-.21l.01-.01c.03-.07.03-.08 0-.12l1.88-1.76c.73-.66 1.6-1.17 2.23-1.94-.02-.04-.04-.08-.06-.11.37-.36.37-.36.43-.37l.01-.01c.29-.3.64-.53.94-.82-.71-.04-1.3-.06-1.73-.08m-.64.43c0 .03-.01.05-.08.15-.07.11-.08.14-.09.16-.01.03.01.03.06-.01.12-.09.22-.2.33-.3.04-.03.07-.06.11-.11.1-.1.19-.21.28-.32l-.28-.02c-.11.15-.22.31-.33.46m29.51-10.5c0 .01.01.01.01.02.21-.19.51-.28.64-.56 0-.03 0-.05.13-.02.15.03.19.03.26 0 .04-.02.27-.16.39-.3.02-.03.07-.08.15-.12l.05-.02c.06-.03.09-.04.14-.08l.01-.01c.05-.05.09-.1.14-.15.06-.06.14-.09.19-.15l.01-.01c.02-.07-.01-.09-.02-.1-.06-.05-.14.02-.2-.02-.07-.04-.09-.13-.17-.16-.03-.02-.28-.04-.44-.04-.17 0-.24.02-.28.04-.1.04-.16.13-.26.18-.07.03-.15 0-.22.03-.02.01-.06.03-.1.09-.04.06-.03.14-.06.2-.04.07-.11.11-.15.18l-.01.02-.03.08c-.03.12-.05.24-.1.35-.03.09 0 .18 0 .27 0 .06-.03.12-.04.19-.01.02-.01.02 0 .05.02.01.02.01.04.01m-.06-1.2l.07-.04.05-.34V5c-.01-.05-.09-.05-.12-.05-.05 0-.08 0-.16.013l-.04.003c-.17.04-.33.13-.49.176-.14.04-.14.04-.19.025-.05-.01-.08-.015-.11-.003l-.47.28c-.04.024-.05.045-.05.056v.006l.06.032c-.03.066-.03.066.21.056h.01c-.05.074-.07.165-.12.24-.06.106-.21.16-.26.15-.06-.007-.06-.083-.11-.11-.05-.03-.11.023-.16-.015-.03-.03-.01-.07-.02-.1-.03-.14-.41.24-.45.3-.06.09 0 .11.03.13.07.03.07.06.01.16 0 .02 0 .02.23.04.09.01.09.01.13.27.01.06-.01.12.01.17.02.06.11.03.14.09.03.07-.04.14 0 .21.04.06.42-.07.47-.36l.05-.02c.01.02 0 .04 0 .07 0 .06 0 .06.48-.11.08-.03.14-.08.19-.13v.01c.05-.04.12-.1.17-.17.03-.04.31-.66.31-.66.03-.09.02-.12 0-.15-.17.15-.17.15-.17.24-.03.02-.04.03-.06.05.02-.13-.14-.26-.28-.23.07-.06.1-.08.2-.09.11-.02.13-.03.45-.21m-1.9-1.06c.31-.1.67-.34.85-.46 0-.01.22-.28-.17-.11-.16.06-.2.07-.25.04-.01-.09.08-.18.08-.19.16-.17.36-.29.52-.46v-.01c-.28.12-.58.2-.85.35-.05.03-.05.03.01.13-.06.11-.2.12-.25.12h-.01c-.03.03-.03.03-.09.22-.15.06-.24.05-.34.01-.04-.02-.09-.01-.13-.02-.01-.07.05-.11.04-.17v.01c.26-.19.27-.22.27-.27-.04-.03-.05-.04-.24-.02.1-.07.09-.08.09-.11-.09-.03-.39.07-.45.09-.49.17-.55.21-.59.27l.02.03c-.02.03-.04.05-.09.06l.02-.03-.01-.02c-.24 0-.86.36-.89.45.07.11.19-.02.27.05 0 .03-.02.05-.01.08.07.01.15-.02.6-.22-.15.1-.16.13-.17.16.16.2.46-.25.55 0-.31 0-.6.14-.91.16-.02.01-.18.11-.2.2.01.02.02.03.2-.01-.04.07-.05.07-.05.12.03.02.04.02.11.01.23-.05.23-.05.27-.06.35-.08.67-.26 1.02-.32.25-.05.51-.03.76-.11m.04-1.11c.06-.05.1-.12.037-.13-.15 0-.39.18-.39.18-.02.03.16.06.3-.03.01 0 .03-.01.05-.03m.76-.36c-.01.09.6-.01.79-.21.1-.04.22-.05.32-.1.01-.01.016-.01.02-.02-.01-.01-.01-.01-.03-.01-.03 0-.05 0-.164.02-.09.01-.09.01-.38.03-.02 0-.05-.02-.07-.02-.03 0-.07.02-.09.03-.4.22-.4.26-.41.29m.79-.43c.07.01.14-.02.21-.02.06.01.116.04.177.04h.05c.1-.01.27-.08.35-.12.11-.06.16-.1.17-.12 0-.01-.008-.01-.038-.01-.08 0-.46.06-.46.06-.028 0-.095.02-.195.05-.09.03-.09.03-.1.03-.02 0-.04-.02-.06-.01h-.01c-.01 0-.03.01-.08.04l.01-.01c-.02.02-.03.03-.04.05 0 .01.01.02.02.02m-.71.27c.1-.05.19-.11.21-.13.03-.03.01-.03-.01-.03-.08 0-.08 0-.12.02-.05.02-.15.06-.15.08.01.01.02 0 .03 0-.002.01-.01.01.01.02.007 0 .01.01.01.01s-.01.01-.04.02c-.043.02-.05.03-.05.04.03 0 .08-.02.11-.03M38.68 4l-.02.01c.024.06.085.05.21.01.005 0 .43-.15.796-.35l.02-.01c-.01-.01-.02-.01-.03-.01-.02 0-.04.007-.082.026-.01 0-.69.23-.89.328m.04-.224l-.04.02c.07-.03.08-.03.11-.03.01.02 0 .04.02.06-.04.03-.04.03-.06.056h.01c.49-.154.922-.45 1.42-.587-.11.09-.275.1-.355.24 0 0 .41-.06 1.04-.42.06-.04.06-.04.45-.18l.02-.01c.03-.04.07-.08.1-.12v-.02c0-.01.01-.02.01-.03-.05 0-.1.02-.14.03 0 0-.27.11-.52.12-.28.02-.28.02-1.29.38-.2.07-.41.08-.61.16-.07.03-.07.03-.5.29l-.01.01c.15-.01.28-.09.43-.08l-.11.06M33.43 7.3c.174-.05.33-.15.496-.227.15-.07.32-.02.47-.09.2-.09.333-.26.504-.384.17-.12.385-.16.57-.26.18-.09.33-.22.513-.31.276-.12.57-.2.847-.31.08-.04.08-.04.79-.26l.01-.01c.08-.06.1-.1.106-.12.03-.08-.016-.15-.01-.23.01-.09.097-.13.12-.21 0 0-.124-.13-.432.04-.15.08-.153.08-.18.06 0 0 .02-.23-.002-.3-.03-.01-.04-.02-.15-.02-.57.01-.66.04-.69.06h-.01c-.54.31-.63.44-.69.52-.05.06-.05.06-.35.21-.12.06-.133.07-.443.25-.42.24-.85.47-1.27.73-.05.03-.09.06-.14.08l-.03.04c.18.08.18.08.19.1.02.12-.13.14-.14.25.01.02.04.03.06.04-.01.16-.26.16-.25.34.04 0 .04 0 .09-.02"/>
    <path fill="#666" d="M37.896 5.577c-.008-.01-.015-.026-.026-.032-.09-.05-1.435.404-1.567.468l-1.194.713c-.1.066-.08.095-.04.177-.09.087-.08.107-.07.146.25.09.5-.1.76-.01-.95.17-.97.17-1.23.46l-.01.01c.38.2.38.2.9.17.31-.02.84.06.71.26-.1-.02-1.16-.07-1.17-.07-.24.02-.58.14-.7.2-.01 0-.92.5.07.77-.01.02-.01.05 0 .07.15 0 .27-.13.42-.12.03.08-.13.25-.22.35-.13.13-.13.13.06.34.11.06.38 0 .52-.07.05-.03.11-.05.16-.07.22-.07.43.04.65-.01.44-.11.8-.2 1.28-.54.23-.17.23-.17.29-.11-.01.05-.09.11-.03.15.09.06.19-.03.28.03.01 0 .02.02.03.02-.02.58.9.23 1.5.01l.03-.01c-.05-.06-.05-.09 0-.18l.02-.02c-.13.01-.12-.13-.19-.2-.01-.02-.04-.03-.06-.05-.01-.01-.01-.02-.02-.03.09-.05.48-.05.55 0 0 .04-.01.07-.01.11.02.01.05.01.07.01h.01c.05-.11.15-.18.22-.28.03-.06.09-.14-.21-.49l-.49-.31c-.26-.05.08-.28.35-.47l.02-.01s.05-.39.21-.71c.05-.13.06-.17.08-.23.1-.06.81-.57.81-.57.24-.22-.3-.25-.31-.25-.1 0-.17.02-.25.07l-.01.01-.15.42c-.17.01-.24-.16-.38-.2h-.01c-.15.05-.75.65-.76.91-.02.3-.21.31-.25.3-.08-.12.02-.29.1-.42.11-.17.37-.58-.1-.51l-.02.01c-.06.29-.36.36-.55.41.1-.08.22-.18.21-.27-.22-.14-.23-.14-.29-.13-.22.02-.37.19-.58.23 0-.01-.01-.02-.02-.03.17-.16.45-.19.53-.45"/>
    <path fill="#666" d="M39.712 5.52c.038.004.108-.042.16-.08v-.002c.004 0 .1-.13.042-.14-.006 0-.015.002-.03.01-.066.033-.226.194-.172.212m3.665-.723l.004-.002c.01 0 .01 0 .01-.002.03-.018.06-.04.08-.06l.01-.003c.03-.05.04-.076.03-.107v-.005c-.09.043-.13.096-.15.145v.006h.01l.02.02v.01l.01-.01zm-2.845 2.885c-.017-.045-.042-.065-.085-.066-.038.002-.066.012-.115.044l-.005.004c-.002 0-.003.003-.004.005-.016.02-.055.07-.043.13.02.09.14.08.212-.03.02-.03.03-.06.036-.08l.01-.01-.005-.01m-.68 1.35l.006-.01c-.01-.01-.06-.02-.13-.02-.23 0-.26.15-.26.15-.02.06.05.15.3-.04.01-.01.04-.02.06-.06l.01-.03m-.94.18c-.06 0-.07 0-.1.01-.02.01-.05.03-.04.09.03.17.23.09.29.01.03-.06.02-.11.02-.13l-.01-.01h-.01l-.01.01v-.01c-.05.01-.07.02-.16.02m9.88 41.92c.02.04.02.09.05.13.04.04.11.06.13.06.15.02.32-.02.44-.1l.04-.02c-.11-.08-.22-.15-.39-.16-.11 0-.18.02-.28.09m1.46.48c.01-.31-.33-.8-.49-.82-.05 0-.04.05-.04.07h-.01c.12.19.27.57.29 1.01v.04c.09-.05.23-.11.24-.32m-.94.92c-.02 0-.04.01-.06.04l-.01.01v.01c-.01.24-.03.31-.05.38-.06-.03-.12-.06-.19.04l-.01.01V53c-.01.18-.01.18.29.52.1.12.1.3.2.425.07.1.13.13.3.15l.06.01c-.11-.16-.13-.24-.18-.54-.03-.17-.17-1.01-.36-1.06m1.63-.106c-.02-.01-.19-.11-.35-.11-.24.01-.21.16-.19.21v.02h.02c.24.01.34.08.35.26v.01c.02.04.03.05.05.07.08.08.17.05.18-.16 0-.13-.04-.24-.06-.29l-.01-.01zm-.93.07c-.19.16-.13.41.1.45h.02l.01-.09c0-.18-.07-.29-.1-.33h-.01l-.03-.05zM51 54.02l-.007.01c-.075.046-.075.046-.09.09l-.01.026c.464.25.598.065.64 0l.02-.03c-.13-.07-.21-.1-.404-.1l-.11.006m.38-1.053c-.1.01-.14.09-.18.17.09.05.12.08.16.42.02.22.04.29.11.34h.01s.21-.04.22-.32c.01-.28-.16-.6-.33-.61m.58 1.58c0-.01.01-.02.01-.04.01-.05-.03-.11-.08-.18-.05-.08-.07-.1-.08-.14l-.01-.02h-.05c-.06 0-.07.02-.09.09-.01.05-.04.1-.04.16-.02.12.06.32.31.12m.83.52l-.01-.01h-.01c-.08.01-.1.02-.16.09-.03.03-.06.05-.08.08-.02.03-.03.05-.04.07-.01.02-.03.1 0 .19.05.12.23.24.35-.07.01-.04.01-.09-.09-.16l-.02-.02c.06-.07.09-.11.05-.17m.81 1.52c.01-.18-.31-.32-.49-.33-.02 0-.06 0-.07.03l-.01-.01c-.05.23.04.37.08.43.2.24.47.01.49-.13m-1.02.81c-.08-.09-.08-.09-1.62-.82-.31-.15-.47-.47-.77-.63-.81-.43-1.66-.75-2.49-1.12-.87-.39-1.41-.42-1.81-.44-.58.01-.75.12-.82.17l-1.11.9c-.02.02-.18.17-.15.28v.01c.94.68 1.51-1.14 2.43-.43.24.18.55.26.78.47l.01.01c.23-.07.74-.02.87.27.23.54.66.56 1.08.59.17.44.71.45 1 .38.09.55.09.55.15.58.15.11.28-.02.43-.02.13 0 .23.08.36.1.17.03 1.24-.1 1.6-.3l.03-.02z"/>
    <path fill="#666" d="M45.204 55.907c-.03.023-.05.062-.063.113 0 .018 0 .03-.01.04l-.02.016c.06.118.06.118.09.158.01.002.24.14.43-.056l.01-.01c-.03-.255-.16-.313-.26-.316-.09.004-.17.054-.17.055m1.44 2.388c-.01.056.02.104.04.155l.01.02c.22.04.26-.043.27-.176v-.073c-.05 0-.1-.01-.15-.01h-.06v.02c-.05.02-.07.03-.08.08"/>
    <path fill="#F49A00" d="M49.633 58.802c-.466.015-.346.562-.324.6.21.36 1.77.362 1.81.146v-.032c-.44-.314-1.06-.692-1.49-.714m3.42.533c.05.004.12.008.17.007.29-.007.56-.175.85-.174.37.002.62.48 1.04.267.32-.158.49-.246 1.42-.237.27.002.72.416.81.042.08-.35-.62-1.224-1.97-1.242h-.08c-.95-.003-1.12-.114-1.3-.232-.33-.213-.44-.254-.59-.268-.2.01-.51.358.05.568.27.102.36.164.39.37-.03-.008-.05-.013-.08-.015-.16-.01-.31.09-.47.07-.18-.02-.33-.12-.51-.12-.05 0-.08.03-.1.08-.09.34-.09.34-.25.33-.18-.01-.16.06-.06.2.22.34.57.37.64.38"/>
    <path fill="#666" d="M58.134 59.085c-.012.013-.05.064-.033.157l.09.193.02.023c.13.177 1.04.277 1.12-.096.04-.178-.16-.476-.49-.506-.26.006-.32.027-.36.04-.14.045-.23.116-.29.164v-.002l-.03.027zm1.796.505c-.02.002-.037-.007-.057-.008-.024 0-.04.005-.067.018l-.014.007-.02.1-.01.04-.005.027c.058.022.237.088.396-.093l.043-.05c-.075 0-.11.01-.234-.02v-.01h-.032"/>
    <path fill="#F49A00" d="M61.534 59.652c-.03-.08-.042-.112-.067-.315-.027-.21-.046-.245-.097-.258l-.044.02h-.01s0 .01-.002.01c-.01.12-.04.24-.05.37-.023.27.062.33.252.17l.018-.02zm-.1.665c.02.01.118.054.247-.004l.02-.006.01-.053c.01-.086 0-.19-.12-.194-.06.003-.11.03-.15.083l-.01.01c.01.052 0 .103.01.153l.01.01z"/>
    <path fill="#666" d="M61.937 60.277c-.03 0-.055.007-.094.026l-.016.03v.06c-.002 0-.002.004-.002.006-.003.12.005.18.065.2h.01c.065-.03.136-.11.144-.2.002-.03.002-.12-.107-.13m.17.77v.01h.006c.158.27.252.31.323.32.12-.02.16-.15.17-.19.042-.18-.237-.36-.428-.36-.033 0-.053 0-.077.01-.02.02-.04.05-.02.1h-.01l.05.08"/>
    <path fill="#F49A00" d="M62.946 62.58c-.01-.097-.08-.256-.237-.264h-.01l-.04.01c.02-.025.06-.06.07-.147.03-.21-.13-.59-.25-.59-.03 0-.04.01-.06.05.02.12.02.18-.02.33-.02.05-.03.12-.02.17.02.09.09.15.18.21h.01l.01-.01c-.03.03-.05.06-.07.1l-.02.06c-.01.16.27.18.41.06l.01-.01zm-.18.914c.048-.108.07-.162.084-.27.022-.174-.033-.355-.114-.373-.01 0-.01 0-.022.01-.007.02-.02.05-.034.06-.01.01-.03.04-.057.13-.006.03-.028.11-.022.21.01.13.06.21.15.23l.02.01zm-.174.012l-.03.03-.007.004c-.048.114-.04.185-.013.26l.01.027c.124-.068.146-.118.184-.256l.006-.01c-.06-.07-.076-.08-.098-.08-.018.01-.03.01-.052.04m.988.56l.012.03c.05-.04.116-.11.127-.21.01-.08-.04-.22-.15-.23-.14.01-.06.3.01.42"/>
    <path fill="#666" d="M49.47 100.226l1.697-.71c.033-.02.073-.034.123-.045.074-.01.09-.02.11-.03.067-.02.122-.03.172-.03h.044c.033-.01.067-.02.102-.02l.845-.12-.02.02 1.163-.19-1.664.69-.122.13-.1.04c-.012.01-.033.01-.055.01-.052.01-.1.02-.15.04-.095.03-.19.05-.29.06l-.627.19.137-.14-1.366.15z"/>
    <g transform="translate(50.318 99.59)">
      <mask id="b" fill="#fff">
        <use xlink:href="#a"/>
      </mask>
      <path fill="#666" d="M.286.593H.284L.274.077C.56.067.657.064.898.047l.13-.008.043.51C1.04.55.76.58.38.59H.29z" mask="url(#b)"/>
    </g>
    <path fill="#666" d="M45.166 3.132c-.015-.002-.03-.002-.044-.002-.173.007-.36.07-.366.174-.004.085.12.242.206.258.15.028.438-.035.55-.12.01-.006.022-.017.03-.025.022-.026.033-.04.02-.184 0-.022-.023-.047-.042-.06-.004-.002-.035-.02-.164-.02-.03 0-.07.002-.102 0-.03-.005-.058-.017-.088-.02"/>
    <path fill="#666" d="M48.153 3.848c-.05-.007-.51-.014-.808.15-.056.03-.204.102-.38.11-.113.004-.212-.06-.323-.068-.15-.008-.3.027-.45.017l-.048-.007c-.117-.025 0-.173-.053-.25-.04-.07-.14-.065-.2-.118.03-.05.06-.05.24-.05h.01c.17 0 .21-.017.26-.055V3.55c-.29-.07-.29-.07-.29-.073-.12-.157-.12-.157-.15-.16-.36.02-.45.14-.5.212 0 0-.01.01-.01.02-.05.14.12.27.05.41-.02.03-.04.04-.09.07-.1.04-.28.12-.26.42 0 0 .02.17.1.21.07.03.12-.05.18-.05.11.01.2.07.3.09.12.02.2-.02.31-.14.17-.19.21-.13.22-.08-.01.01-.04.04-.12.23.02.02.04.05.34.04l1.12-.08c.11-.01.12-.15.22-.16.01.07-.03.14.02.21.34-.11.72.01 1.03-.24v-.02c-.02 0-.04-.01-.05-.02-.02-.06-.02-.06.12-.27.08-.12-.65-.35-.74-.36m.24 17.62c.08-.01.48-.12.52-.32.02-.1-.05-.23-.1-.29-.04-.05-.33-.32-.44-.35h-.01c-.06.05-.02.14-.07.21-.08.11-.26.07-.33.2-.02.04-.06.12.05.29.08.12.23.25.39.24m39.02-3.24c.01.01.19.25.23.3l-.01-.01c.08.1.59.72.64.77h.01l-.13-.17 1.36 1.69c-.34-.46-.91-1.21-1.51-1.94l-.66-.79c-.14-.18-.22-.26-.38-.44l-.1-.11c.18.21.38.45.6.73-.01-.02-.02-.03-.03-.04m2.18 3.04c0-.02-.05-.11-.1-.17v-.01c-.04-.06-.09-.11-.1-.11 0 0 .03.07.08.15 0 0 .12.14.14.14m5.46 15.91l-.01-.01c-.04-.07-.05-.07-.06-.08H95c-.032.01.04.29.08.31.017.01.04-.03-.002-.21l-.005-.02m.2-.76c-.026-.05-.027-.06-.015-.09.007-.02.018-.05-.016-.12-.098-.07-.098-.07-.12-.07-.01 0-.02 0-.03.02-.02.05 0 .1-.03.15-.01.02-.035.02-.04.05-.002.04.02.09.05.16v-.01c.056.1.055.22.12.32.034.04.06.06.16.07.02 0 .037.02.06.01.01 0 .02-.01.022-.02.012-.05-.006-.15-.025-.22-.03-.13-.1-.29-.13-.25m.03-.37c-.02 0-.03.01-.01.22v.01c.04.14.06.13.08.09.02-.04.03-.04.07.03l.02.04-.03-.1c-.03-.1-.1-.3-.15-.31m.09-2.7l-.02-.04-.03-.08v-.01c-.03-.02-.03-.06-.05-.09l-.02-.02v.03c.01.09.04.18.05.27 0 .04 0 .06-.01.07-.01.03-.02.06.02.19.04.15.32.92.36 1.03l.01.02c0-.01 0-.04.01-.05.02-.01.04.01.05 0 .02-.07-.03-.21-.41-1.32zm.97 2.86c-.29-.91-.37-1.18-.5-1.32-.01 0-.01.03 0 .13.02.18.01.23 0 .26-.04.06-.04.07-.02.13l.58 1.81c.02.08.07.21.12.28h.01c.02-.44-.14-.85-.2-1.27l-.01-.01zm.31-1.54l-.01-.02s0-.01-.01-.01c-.01.02.14.48.16.51-.01-.08-.07-.24-.09-.3l-.06-.18m1.27 5.73c-.01-.04-.01-.07-.03-.15-.01-.06-.05-.21-.06-.22-.01.01.02.22.07.36l.01.01zM85.33 15.8l.32.35-.02-.015s-.18-.19-.2-.2l.16.18.01.01c.02.025.14.15.18.185l1.03 1.12c-.81-.96-1.26-1.41-2.32-2.46.38.38.66.67.83.84m-.83-.844c-.47-.46-1.1-1.06-1.91-1.79l-.02-.02-.39-.33c.24.22.47.44.71.66.46.42.98.9 1.61 1.47m5.64 6.7l-.01-.02.01.01.01.017m-.02-.02c-.15-.22-.29-.423-.43-.624l-.03-.02c.12.23.3.43.45.64m-.4-.6l-.2-.28.18.26.03.03M73.8 7l.006.004H73.8zm15.72 13.83l-.016-.02.038.052-.022-.032M72.03 94.893l-.24-.456c.854-.48 3.05-1.708 4.96-2.898l.28.43c-.97.65-1.89 1.22-2.82 1.74-.618.35-1.08.6-1.49.82-.328.17-.456.24-.69.35"/>
    <path fill="#666" d="M77.026 91.986l-.28-.433c4.996-3.35 8.364-7.13 10.383-9.402l.02-.02.16.12-.14-.13c.02-.02 2.54-2.96 3.82-5.54 1.43-2.88 2.5-4.34 3.15-5.22.21-.28.37-.51.47-.68l.48-.83.02.99-.05.1c-.42.87-1.01 2.01-1.98 3.89-1.24 2.21-1.3 2.29-4.28 6.38-1.55 1.98-1.62 2.05-5.19 5.63-1.89 1.77-1.89 1.77-5.99 4.78-.21.14-.42.27-.63.4"/>
    <path fill="#666" d="M98.556 42.035l.176 1.124c.002.01.273 2.05.278 2.51 0 .02.01.06-.007.08L99 45.73v-.006c-.03-.23-.03-.23-.122-.63-.04-.196-.133-.37-.152-.57l-.008-.08c-.05-.104-.05-.104-.1-.495v-.03l-.022-.16-.008-.06c-.118-.11-.057-.3-.17-.41-.18-.15-.18-.15-.205-.21h-.002c0 .02-.01.05-.01.07-.49-1-.15-2.2-.77-3.16-.02-.48-.05-.68-.13-.97V39v.03V39h-.09c-.13-.15-.13-.15-.18-.185-.03.075-.03.075-.05.24-.06 0-.14-.004-.17.09l-.02.077c-.04-.003-.11-.016-.15-.034-.04.036-.06.1-.13.11h-.01c-.35-.09-.35-.09-.39.1-.02.01-.05.022-.07.03l-.05-.057-.65.81c-.16.32-.09.7-.24 1.02-.31.02-.27-.37-.5-.44-.4.22-.4.22-.41.22-.1-.15-.92-1.46.38-1.4h.01c.33-.07.33-1.3.33-1.54-.01-.73-.35-1.41-.37-2.14-.01-.27-.13-.52-.12-.8l.04-.02h.03c.9-.55-.94-1.47-.2-2.21.13-.09.2-.13.57.49l.04.07h.01c-.01-.79-.03-.89-.14-1.49.07.02.1.08.16.1.28.47.28.47.55 1.08l.01.02c.07.17.1.34.17.5l.02.04v-.08c.08.08 1.68 2.53 1.84 4.48-.07-.05-.09-.15-.18-.19-.07.09-.07.09-.08.21v.03l.01.02c.17.58.57 1.36.57 1.37 0 0-.07-.94-.41-2.39l-.01-.03c-.11-.38-.26-.76-.34-1.15.03.04.03.04.15.31 0-.01-.37-1.36-1.07-2.56-.12-.29-.16-.42-.3-.82l-.02-.05-.03.01c-.85-1.51-.92-1.86-1.03-2.34.25.44.93 1.6 1.77 3.57.24.58.35 1.04.35 1.04h-.01l.01.04c.17.42.24.87.43 1.28 0 .01.22.75.34 1.2-.03-.12-.06-.24-.1-.35.06.27.14.53.21.79-.32-1.4-.53-2.01-1.06-3.6-1.81-4.73-1.88-4.92-3.04-7.1l-.7-1.28c-.79-1.28-1.81-2.9-2.74-4.28-.28-.35-.28-.36-.3-.37.02.28.23.47.33.71l.01.04c-.22-.14-.31-.38-.48-.56.03.14.19.62.2.62-.41-.42-.58-.6-.71-.91l-.02-.02c.13.15.25.32.39.47-.03-.2-.17-.34-.23-.52h.02c-.24-.26-.41-.53-.44-.6.13.12.23.28.36.41l.03-.05c-.15-.29-.39-.53-.55-.82l.05-.03c-.21-.36-.39-.59-.69-.96l-.03-.04h-.02c-2.22-2.71-2.22-2.71-4.95-5.33l-.01-.02-.18-.17c-.37-.33-.69-.63-.99-.89l.28.24c-.08-.08-.16-.16-.25-.23v-.02c-.26-.23-.34-.3-.6-.51-.97-.85-1.6-1.33-2.61-2.03-.74-.5-1.6-1.07-2.47-1.63.07.04.13.09.2.14-.21-.13-.81-.48-.81-.49l.01.01c.49.39 1.01.73 1.51 1.11l.01.01.01.01.08.06c-.17-.16-.48-.42-.48-.42l-.04-.03c.1.05.24.13.51.33l-.17-.1.02.02c.23.22.52.36.78.54-.05-.04-.13-.08-.19-.11l3.23 2.7c.19.33.53.53.79.81h.01c.04.04.1.1.14.15-.05.01-.05.01-.05 0-.11-.09-.22-.19-.33-.27.06.1.06.1.27.3.18.18.21.2.32.29l-.03.1c.13.13.28.22.37.37-.06-.04-.11-.13-.2-.14 1.06 1.41 3.11 3.42 3.12 3.42-.01-.03-.02-.09 0-.12.93.99.93.99.98 1.03.16.12.16.12.28.19l.02.01c-.05-.21-.2-.37-.3-.55l-.01-.01c-.14-.21-.14-.21-.2-.38-.04-.14-.04-.14-.46-.62.2.19.38.39.57.59l.01.01.03.02c.64.62 2.13 2.32 2.42 2.73-.27-.28-.27-.28-.29-.29h.01l-.03.01V20v.01c.11.22.28.41.39.63v.002l.17.25.07.08c-.27-.27-.27-.27-.44-.56l.08.07c-.12-.26-1.48-1.9-1.55-1.97l.02.03c.1.14.1.16.12.22.11.26.65 1.34 1.33 2.07.14.07.14.07.86 1.13l.02.03c.11.18.26.33.38.5h-.04l.03.04.04.09c-.06-.01-.14-.05-.19-.09-.01.12-.01.14-.02.38-.01.07.04.14.03.22l-.1-.07c.11.38.42.65.56 1.01-.2-.09-.2-.342-.37-.46.05.58.61.97.58 1.58l-.09.02c.4 1.02.4 1.02.4 1.06 1.29-.04 2.07-.09 2.27-.15-.2.06-.98.11-2.27.17 0 .2.08.4.06.6l-.08.04c-.08-.09-.19-.22-.26-.31l-.11-.01c0 .12 0 .12.37.8l-.16.14-.36-.18c-.12.14-.13.14-.13.14-.06.495.31.876.57 1.01h.01v-.01l.02-.055.1.13.01.01h.01v-.01c1.62 1.26 2.26 4.02 2.03 4.29-.54-.35-1.24-.05-1.76-.46-.45.55 1.24 6.96 1.84 7 .38.02.38.02.77.88.05.03.13.06.18.09 0 .05-.74 6.4-.74 6.41l-.01.02c-.17.49-.11 1.05-.47 1.48l-.11.092c-.14.04-.31.14-.4.24l-.01-.02-.01.01c-.02.03-1.57 4.1-1.54 6.81-.05 3.76-.65 4.78-1.14 5.6l-.02.02-.01.03c-.04.09-.1.22-.12.33v.03l.02.01c.79 1.02.16 2.19.36 3.27.07.02.16.05.23.08.06.28.08.39.1 1.07.03.02.06.03.09.05H90c-.03.45-.03.45.23 3.96.134.04.13.04.45-.04h.02c.02.04.04.09.07.13 1.61-1.23 1.67-.86 1.74-.43.62-.28.726-1.55 1.6-1.2.09.01.21-.01.29-.05-.05.59-.26 1.2-.26 1.2v.2c.14.06.14.06.42-.04l.12.1c.39.35.52.54.41.85.49-1.02.74-1.68 1.17-2.87l.76-2.17c.45-1.6 1.04-3.73 1.4-5.35.77-4.8.91-5.66.98-10.11-.25-5.37-.25-5.47-.69-8.05"/>
    <path fill="#666" d="M97.78 38.31c-.03-.116-.03-.116-.067-.22l-.01-.04c-.003-.01-.007-.02-.008-.032.203.882.453 2.074.86 4.017l-.775-3.726z"/>
    <path fill="#F49A00" d="M63.004 64.17c.043-.025.092-.03.14-.03.04 0 .05-.01.045.027-.02.07-.1.08-.1.153 0 .026.01.053.01.08 0 .018-.02.015-.02.034-.01.04.01.088.03.126 0 .013.02.013.02.027 0 .005-.03.04-.03.056-.01.033-.01.07-.01.103-.04-.015-.1.047-.14.053h-.19c-.05 0-.11.01-.16.01-.03 0-.05-.02-.08-.02h-.07c-.03.01-.11.04-.05-.01.01-.01.03-.01.04-.02.01-.01.02-.03.03-.04.04-.02.08-.03.12-.06.02-.02 0-.02.04-.03.03-.01.05.01.08-.02.03-.04.01-.07 0-.11-.01-.04 0-.05.01-.08.02-.08 0-.17-.09-.18-.03-.01-.06.01-.05-.03 0-.01.04-.02.05-.03.03-.01.11-.03.12-.02.04-.03.05-.04.09-.04.04 0 .08.02.11-.01"/>
    <path fill="#BC8FB4" d="M46.308 62.95c-.01-.02.014-.106.03-.077.007.01-.022.065-.03.078m.315-.71c-.006-.02.018-.06.027-.04.008.02-.005.04-.027.04m-1.358 1.02c-.014-.04.048-.05 0 0m.405-1.91c-.01 0-.02-.01-.03-.01.016-.01.03-.05.053-.04.025.01-.003.05-.022.06m10.45 2c-.05 0-.11-.02-.15-.06-.03-.02-.04-.05-.06-.07 0 0-.01.01-.02 0 0 0 0-.01-.01-.02s-.03-.04-.04-.05c-.01-.03-.01-.09.01-.08.07.01.06.12.11.15.03.02.08.01.11.03.02.02.04.06.05.08.01.02.02.02.01.04m.38.02c-.05-.06.01-.12-.05-.17-.02-.01-.07-.01-.04-.06.02-.04.03 0 .05.02.02.02.04.03.06.04.05.03.03 0 .03.05 0 .01.01.03 0 .05 0 .01-.02 0-.03.01 0 .03.03.06-.01.07m-1.3-.4c-.01-.02-.03-.03-.04-.06l.01-.06c.02-.01.05.06.06.07.02.03.05.04.06.07.02.05 0 .07-.04.04h.02c-.01-.01-.03-.02-.05-.04"/>
    <path fill="#F49A00" d="M63.593 62.87l.002.012h.004c.15.27.25.313.32.32.12-.015.16-.146.17-.186.04-.177-.24-.352-.43-.36-.04.002-.05.006-.08.018-.03.028-.04.05-.03.107l-.01.01c.01.03.02.06.04.08"/>
  </g>
</svg>
