<?xml version="1.0" encoding="utf-8"?>
<!-- Generator: Adobe Illustrator 16.0.0, SVG Export Plug-In . SVG Version: 6.00 Build 0)  -->
<!DOCTYPE svg PUBLIC "-//W3C//DTD SVG 1.1//EN" "http://www.w3.org/Graphics/SVG/1.1/DTD/svg11.dtd">
<svg version="1.1" id="Layer_1" xmlns="http://www.w3.org/2000/svg" xmlns:xlink="http://www.w3.org/1999/xlink" x="0px" y="0px"
	 width="204.415px" height="5.473px" viewBox="0 0 204.415 5.473" style="enable-background:new 0 0 204.415 5.473;"
	 xml:space="preserve" preserveAspectRatio="xMinYMax slice">
<g>
	<path d="M204.411,0.286l-0.605,1.121c-0.129,0.231-0.281,0.45-0.452,0.646c-0.818,0.955-2.05,1.509-3.393,1.509
		c-1.337,0-2.565-0.555-3.389-1.509c-0.176-0.206-0.324-0.428-0.444-0.646l-0.611-1.121l-0.604,1.122
		c-0.128,0.228-0.281,0.443-0.451,0.645c-0.819,0.955-2.058,1.509-3.394,1.509c-1.331,0-2.57-0.555-3.39-1.509
		c-0.175-0.203-0.328-0.424-0.438-0.646l-0.616-1.121l-0.611,1.122c-0.128,0.233-0.28,0.455-0.438,0.645
		c-0.825,0.955-2.062,1.509-3.394,1.509c-1.337,0-2.576-0.551-3.401-1.512c-0.164-0.198-0.311-0.415-0.439-0.644l-0.611-1.121
		l-0.604,1.122c-0.127,0.233-0.28,0.449-0.451,0.645c-0.817,0.955-2.057,1.509-3.394,1.509c-1.336,0-2.575-0.555-3.387-1.509
		c-0.177-0.211-0.336-0.428-0.446-0.646l-0.61-1.121l-0.61,1.121c-0.127,0.231-0.275,0.45-0.446,0.646
		c-0.818,0.955-2.057,1.509-3.395,1.509c-1.331,0-2.568-0.555-3.387-1.509c-0.17-0.2-0.323-0.42-0.446-0.646l-0.61-1.115
		l-0.611,1.115c-0.116,0.218-0.268,0.435-0.445,0.646c-0.818,0.955-2.05,1.509-3.388,1.509c-1.336,0-2.576-0.555-3.395-1.509
		c-0.183-0.211-0.328-0.428-0.444-0.646l-0.61-1.124l-0.612,1.125c-0.127,0.233-0.28,0.455-0.444,0.645
		c-0.819,0.955-2.058,1.509-3.394,1.509c-1.338,0-2.577-0.555-3.388-1.505c-0.171-0.199-0.323-0.418-0.445-0.649l-0.612-1.121
		l-0.609,1.122c-0.134,0.239-0.287,0.455-0.446,0.645c-0.776,0.9-1.904,1.426-3.24,1.472c-1.247-0.091-2.846-0.586-3.603-1.472
		c-0.176-0.2-0.323-0.417-0.452-0.646l-0.61-1.121l-0.604,1.121c-0.122,0.231-0.275,0.45-0.445,0.646
		c-0.819,0.955-2.058,1.509-3.394,1.509c-1.338,0-2.577-0.555-3.394-1.509c-0.177-0.211-0.33-0.433-0.446-0.648l-0.61-1.117
		l-0.604,1.121c-0.122,0.229-0.275,0.45-0.446,0.646c-0.819,0.955-2.058,1.509-3.394,1.509c-1.338,0-2.577-0.555-3.395-1.509
		c-0.171-0.195-0.323-0.417-0.445-0.646l-0.61-1.124l-0.604,1.125c-0.129,0.233-0.28,0.455-0.446,0.645
		c-0.817,0.955-2.056,1.509-3.393,1.509c-1.336,0-2.57-0.555-3.394-1.512c-0.165-0.192-0.318-0.408-0.445-0.644l-0.612-1.121
		l-0.609,1.117c-0.118,0.217-0.263,0.438-0.446,0.648c-0.812,0.955-2.052,1.509-3.389,1.509c-1.335,0-2.569-0.555-3.394-1.509
		c-0.177-0.203-0.323-0.42-0.438-0.646l-0.611-1.121l-0.61,1.121c-0.128,0.23-0.281,0.45-0.452,0.646
		c-0.818,0.955-2.058,1.509-3.395,1.509c-1.33,0-2.569-0.555-3.387-1.509c-0.171-0.2-0.324-0.42-0.446-0.646l-0.61-1.121
		l-0.604,1.122c-0.134,0.228-0.274,0.443-0.451,0.645c-0.817,0.955-2.057,1.509-3.395,1.509c-1.33,0-2.569-0.555-3.381-1.505
		c-0.17-0.192-0.318-0.415-0.451-0.649l-0.611-1.121L79.23,1.406c-0.134,0.233-0.287,0.455-0.445,0.645
		c-0.825,0.955-2.063,1.509-3.395,1.509c-1.337,0-2.576-0.551-3.4-1.512c-0.17-0.198-0.317-0.415-0.439-0.644L70.94,0.283
		l-0.61,1.122c-0.128,0.233-0.275,0.449-0.445,0.645c-0.812,0.955-2.052,1.509-3.394,1.509c-1.337,0-2.57-0.555-3.388-1.509
		c-0.171-0.2-0.317-0.417-0.446-0.646l-0.61-1.121l-0.61,1.121c-0.122,0.23-0.275,0.45-0.445,0.646
		c-0.819,0.955-2.051,1.509-3.389,1.509c-1.336,0-2.568-0.555-3.393-1.509c-0.17-0.2-0.324-0.42-0.446-0.646l-0.611-1.115
		l-0.61,1.116c-0.129,0.228-0.28,0.443-0.445,0.645c-0.818,0.955-2.057,1.509-3.388,1.509c-1.344,0-2.583-0.555-3.395-1.509
		c-0.171-0.2-0.323-0.417-0.446-0.646l-0.61-1.124L43.65,1.409c-0.126,0.233-0.28,0.455-0.451,0.646
		c-0.812,0.954-2.045,1.508-3.389,1.508c-1.336,0-2.575-0.555-3.387-1.505c-0.176-0.199-0.323-0.418-0.451-0.649l-0.611-1.121
		l-0.604,1.121c-0.123,0.229-0.274,0.45-0.445,0.646c-0.819,0.954-2.058,1.508-3.395,1.508c-1.336,0-2.569-0.555-3.394-1.508
		c-0.171-0.201-0.317-0.417-0.446-0.646l-0.61-1.121l-0.604,1.117c-0.128,0.238-0.274,0.457-0.452,0.648
		c-0.812,0.955-2.051,1.509-3.388,1.509s-2.576-0.555-3.394-1.509c-0.176-0.211-0.33-0.433-0.445-0.648l-0.612-1.117l-0.604,1.122
		c-0.129,0.233-0.28,0.449-0.453,0.646c-0.811,0.954-2.051,1.508-3.387,1.508c-1.331,0-2.57-0.555-3.394-1.508
		C9.566,1.85,9.42,1.633,9.298,1.408l-0.61-1.121L8.077,1.409c-0.134,0.233-0.28,0.455-0.451,0.646
		C6.807,3.008,5.575,3.562,4.238,3.562c-1.336,0-2.866-0.971-3.394-1.655C0.317,1.223,0,0,0,0v3.906l0.391,0.375
		c1.166,0.918,2.312,1.191,3.898,1.191c1.576,0,3.071-0.508,4.243-1.425L8.7,3.906l0.171,0.141c1.173,0.917,2.689,1.425,4.265,1.425
		c1.581,0,3.098-0.508,4.27-1.425l0.177-0.141l0.174,0.141c1.172,0.917,2.681,1.425,4.268,1.425c1.581,0,3.101-0.508,4.267-1.425
		l0.177-0.141l0.183,0.141c1.172,0.917,2.686,1.425,4.266,1.425c1.588,0,3.102-0.508,4.268-1.425l0.176-0.141l0.184,0.141
		c1.171,0.917,2.684,1.425,4.265,1.425c1.577,0,3.095-0.508,4.268-1.425l0.183-0.141l0.178,0.141
		c1.166,0.917,2.685,1.425,4.272,1.425c1.575,0,3.094-0.508,4.266-1.425l0.176-0.141l0.177,0.141
		c1.172,0.917,2.692,1.425,4.272,1.425c1.581,0,3.095-0.508,4.268-1.425l0.177-0.141l0.177,0.141
		c1.173,0.917,2.687,1.425,4.268,1.425c1.586,0,3.1-0.508,4.272-1.425l0.177-0.141l0.184,0.141c1.166,0.917,2.678,1.425,4.266,1.425
		c1.574,0,3.095-0.508,4.267-1.425l0.177-0.141l0.177,0.141c1.178,0.917,2.691,1.425,4.266,1.425c1.582,0,3.102-0.508,4.274-1.425
		l0.176-0.141l0.183,0.141c1.166,0.917,2.681,1.425,4.26,1.425c1.582,0,3.102-0.508,4.273-1.425l0.184-0.141l0.177,0.141
		c1.166,0.917,2.685,1.425,4.266,1.425c1.581,0,3.102-0.508,4.267-1.425l0.177-0.141l0.184,0.141
		c1.171,0.917,2.686,1.425,4.267,1.425s3.095-0.508,4.267-1.425l0.183-0.141l0.178,0.141c1.172,0.917,2.679,1.425,4.267,1.425
		c1.581,0,3.095-0.508,4.266-1.425l0.184-0.141l0.177,0.141c1.171,0.917,2.686,1.425,4.267,1.425s3.101-0.508,4.267-1.425
		l0.176-0.141l0.184,0.141c0.934,0.732,2.643,1.275,4.346,1.386l0.091,0.019c0.037-0.003,0.166-0.049,0.166-0.049l0.268-0.021
		c1.465-0.111,2.759-0.573,3.723-1.333l0.182-0.141l0.178,0.141c1.172,0.917,2.686,1.425,4.267,1.425s3.094-0.508,4.267-1.425
		l0.184-0.141l0.177,0.141c1.172,0.917,2.691,1.425,4.272,1.425c1.575,0,3.088-0.508,4.267-1.425l0.177-0.141l0.183,0.141
		c1.166,0.917,2.686,1.425,4.26,1.425c1.582,0,3.102-0.508,4.273-1.425l0.177-0.141l0.183,0.141c1.167,0.917,2.68,1.425,4.26,1.425
		c1.587,0,3.101-0.508,4.272-1.425l0.177-0.141l0.178,0.141c1.171,0.917,2.685,1.425,4.273,1.425c1.575,0,3.094-0.508,4.267-1.425
		l0.177-0.141l0.184,0.141c1.171,0.917,2.679,1.425,4.26,1.425c1.581,0,3.1-0.508,4.272-1.425l0.177-0.141l0.177,0.141
		c1.178,0.917,2.691,1.425,4.267,1.425c1.579,0,3.1-0.508,4.273-1.425l0.177-0.141L204.411,0.286z"/>
</g>
</svg>
