<?xml version="1.0" encoding="UTF-8" standalone="no"?>
<svg width="185px" height="41px" viewBox="0 0 185 41" version="1.1" xmlns="http://www.w3.org/2000/svg" xmlns:xlink="http://www.w3.org/1999/xlink">
    <!-- Generator: Sketch 42 (36781) - http://www.bohemiancoding.com/sketch -->
    <title>farmer-crop</title>
    <desc>Created with Sketch.</desc>
    <defs>
        <polygon id="path-1" points="0.309402937 41.3738774 21 41.3738774 174.872282 41.3738774 174.872282 0.711750689 0.309402937 0.711750689"></polygon>
    </defs>
    <g id="Stories" stroke="none" stroke-width="1" fill="none" fill-rule="evenodd">
        <g id="Desktop-HD" transform="translate(-1953.000000, -311.000000)">
            <g id="farmer-crop" transform="translate(1963.000000, 311.000000)">
                <mask id="mask-2" fill="white">
                    <use xlink:href="#path-1"></use>
                </mask>
                <g id="Clip-3"></g>
                <path d="M10.7923808,16.9730787 L11.9023531,16.9730787 L11.9023531,16.1997895 L10.7923808,16.1997895 L10.7923808,16.9730787 Z M7.59450516,16.9730787 L8.70447746,16.9730787 L8.70447746,16.1997895 L7.59450516,16.1997895 L7.59450516,16.9730787 Z M23.4353366,4.66086384 L23.8995444,4.66086384 C23.9263653,6.45110902 23.9779439,8.56355805 23.9779439,10.3497757 C23.965565,11.0827895 23.4394629,11.8137895 22.6307099,11.8137895 L21.45678,11.8137895 L21.45678,13.9242247 L21.2607812,14.0007481 L21.2607812,15.6057261 C21.4712221,15.597671 21.6754735,15.5956572 21.8859143,15.5876021 L21.7765676,17.1704286 L21.2607812,17.434233 L21.2607812,40 L20.2498399,40 L20.2498399,17.9537867 L18.4610927,18.8700539 C18.4280824,18.8881779 18.3847563,18.9002605 18.3558723,18.9002605 L13.0081991,19.3010016 L12.6574643,16.3186021 C12.6327066,21.9511283 12.1932566,25.7934093 11.9828157,31.1500484 L11.887911,33.5182468 L12.5646228,33.5403983 L11.7249225,37.6444699 L11.71667,37.8196682 L13.0762829,38.2022853 C13.6436479,38.3855388 13.616827,39.981876 13.2784711,40 L8.1082284,40 C7.88334554,40 7.84827207,39.0782771 7.82970376,38.5184479 L8.05046033,28.1918143 L7.81938803,28.1898005 L7.12823427,33.5222743 L7.45421127,33.5182468 L6.55055352,38.0633349 L6.97762465,38.2163817 C7.38612746,38.3976214 7.37168545,39.9838898 7.12204484,40 L2.77087089,40 C2.59550352,40 2.60994554,39.4065222 2.62851385,38.9232165 L2.47171479,33.5403983 L2.88228075,33.5283156 L3.18143685,27.3037399 C3.31760446,27.3097812 3.44139319,27.3097812 3.5548662,27.3097812 C4.14079953,27.3057536 4.4564608,26.9694534 4.5245446,26.3512247 L4.64833333,24.6918749 C4.66277535,24.28912 4.71435399,23.9588611 4.34711408,23.7333184 C4.20888333,23.6507536 4.24395681,23.6608225 4.11810493,23.6084644 L4.08715775,19.0734451 L4.24395681,18.2135636 L6.41232277,17.9054561 L6.8620885,15.4023349 L12.3851291,15.4023349 C12.4820969,13.547649 11.9890052,12.0373184 11.4133876,10.9317564 C12.5893805,12.4018115 13.4703437,14.242401 14.3244859,15.8111311 C16.3112951,15.7768969 18.2754096,15.7064148 20.2498399,15.6359327 L20.2498399,14.0007481 L20.0538411,13.9242247 L20.0538411,11.8137895 L18.8778481,11.8137895 C18.0670319,11.8137895 17.5409298,11.0787619 17.5306141,10.3437344 C17.5306141,10.3437344 17.6028242,5.10993546 17.6090136,4.66086384 L18.0752845,4.66086384 L18.30842,10.3215828 C18.30842,10.4484506 18.692165,10.7505167 18.8778481,10.7505167 L19.3998239,10.7505167 L19.5545599,4.66086384 L20.0208308,4.66086384 L20.1755667,10.7505167 L21.3350545,10.7505167 L21.4877272,4.66086384 L21.9560613,4.66086384 L22.108734,10.7505167 L22.6307099,10.7505167 C22.8184561,10.7505167 23.200138,10.4484506 23.200138,10.3215828 L23.4353366,4.66086384 Z M4.0978861,24.4194112 C4.09169667,24.9570889 4.0298023,25.7545435 3.96997108,26.2881936 C3.93077131,26.6204663 3.82761404,26.7634443 3.53052108,26.7654581 C3.11789197,26.7674718 2.50720089,26.7191412 1.99966709,26.6446316 C1.74590019,26.6063699 1.53133305,26.5822046 1.41373376,26.5681082 C1.18678775,26.4472817 1.0217361,26.2801385 0.970157465,26.0606371 C0.840179296,23.7689622 0.755590329,21.2195242 0.629738451,18.9278492 C0.947462864,16.4408382 0.755590329,12.52002 2.366907,10.6472101 C2.81460958,10.1256426 3.36959573,9.71483271 4.02567601,9.47922114 C4.91282859,9.90412747 7.30607742,11.3480035 7.66093845,14.6747583 L6.23530488,14.6747583 L5.77109714,17.2624581 L4.38260019,17.4577941 L4.8179239,15.0936233 L4.27119033,15.0009897 L3.52845793,19.0265242 L3.56559455,23.9804085 C3.75746709,24.0549181 3.7533408,24.0388079 3.9390239,24.1254002 C4.0751915,24.1958823 4.10613869,24.2421991 4.0978861,24.4194112 Z M8.63206106,14.6763693 C8.36797843,11.8993749 6.84950331,10.2460663 5.62812115,9.34993684 C6.95266059,9.72047128 8.86932279,11.2167054 9.89470613,10.3064795 C10.5260287,11.1482371 11.3616026,12.6404437 11.4276233,14.6763693 L8.63206106,14.6763693 Z M10.2033527,4.99414345 C9.4647466,5.12101122 8.35683744,5.5660553 4.45336608,5.57813794 C2.04980153,5.63250984 0.362148474,5.41904979 0.310569836,4.96997816 C0.265180634,4.54104428 1.54639401,4.02753188 3.72301256,3.598598 C3.97677946,3.49388174 4.08818932,3.26833904 4.08612617,2.94009386 L3.956148,1.74995337 C3.76014918,-0.0322367137 10.6428027,-0.753167843 10.8573698,1.03103601 L11.0038532,2.26547954 C11.0781264,2.66823436 11.327767,2.805171 11.6867543,2.78301948 C13.8035417,2.76892307 15.070313,3.01460351 15.1157022,3.42944097 C15.1652177,3.88254015 13.5291433,4.4463969 11.129705,4.8894272 C11.0946316,5.74729497 10.972906,6.64745199 10.7438968,7.11263381 C10.3931621,7.82550984 9.51426209,8.51220681 8.51157336,8.74580461 C8.02260786,8.81830048 7.90088228,8.81830048 7.4036642,8.74580461 C6.37209143,8.51220681 5.41272876,7.82550984 4.9753419,7.11263381 C4.80203768,6.83070544 4.65968063,6.37357871 4.53382876,5.87819028 C8.22685927,5.84194235 10.2033527,4.99414345 10.2033527,4.99414345 Z" id="Combined-Shape" fill="#FEFEFE" mask="url(#mask-2)"></path>
                <path d="M139.591462,18.0962598 C139.591462,18.3459678 139.422284,18.549359 139.213906,18.549359 C139.005529,18.549359 138.836351,18.3459678 138.836351,18.0962598 C138.836351,17.8485656 139.005529,17.6471882 139.213906,17.6471882 C139.422284,17.6471882 139.591462,17.8485656 139.591462,18.0962598 M139.213906,16.6020394 C138.415469,16.6020394 137.763515,17.2726262 137.763515,18.0962598 C137.763515,18.9219072 138.415469,19.5945077 139.213906,19.5945077 C140.014407,19.5945077 140.664298,18.9219072 140.664298,18.0962598 C140.664298,17.2726262 140.014407,16.6020394 139.213906,16.6020394" id="Fill-7" fill="#FEFEFE" mask="url(#mask-2)"></path>
                <path d="M135.048209,25.4334457 C136.550179,26.7705917 138.945491,29.3522501 138.600946,31.9802253 C137.693162,31.1505504 135.995193,29.1770518 135.048209,25.4334457 M134.522107,23.6452143 L133.457524,22.8960904 L133.680344,24.1587267 C134.8976,31.0438204 138.493662,33.2690408 138.646335,33.3616744 L139.21989,33.7020022 L139.434457,33.0817598 C141.08291,28.3272391 134.790316,23.8345091 134.522107,23.6452143" id="Fill-8" fill="#FEFEFE" mask="url(#mask-2)"></path>
                <path d="M89.7114113,29.4080317 C89.608254,31.357365 89.1027834,34.7747397 86.8601442,35.974949 C86.9323543,34.8009187 87.3883094,32.3058526 89.7114113,29.4080317 L89.7114113,29.4080317 Z M89.8620209,27.6157727 C85.2797747,32.4931336 85.7749296,36.6475496 85.7996874,36.8207342 L85.88015,37.4288939 L86.4825885,37.2536956 C91.2154444,35.8843292 90.813131,28.264208 90.7924996,27.9399904 L90.7182263,26.7035331 L89.8620209,27.6157727 Z" id="Fill-9" fill="#FEFEFE" mask="url(#mask-2)"></path>
                <path d="M103.230585,34.3852758 C102.324864,33.5556008 100.624832,31.5821022 99.6778485,27.8384961 C101.179818,29.1736284 103.57513,31.7552868 103.230585,34.3852758 L103.230585,34.3852758 Z M104.066159,35.4868102 C105.714612,30.7322895 99.4199553,26.2395595 99.1517464,26.0502647 L98.0871633,25.3011408 L98.309983,26.5657909 C99.5272388,33.4488708 103.125365,35.6740912 103.278037,35.764711 L103.851592,36.1070526 L104.066159,35.4868102 Z" id="Fill-10" fill="#FEFEFE" mask="url(#mask-2)"></path>
                <path d="M108.497177,27.2446342 C108.398146,29.3168077 107.90918,32.9234771 105.757319,34.2163201 C105.82334,32.9758353 106.254538,30.3236948 108.497177,27.2446342 M109.580328,25.6718766 L109.506055,24.348827 L108.633344,25.3637691 C104.193455,30.5250722 104.672105,34.9050309 104.694799,35.0902981 L104.771136,35.7206094 L105.392143,35.5252733 C109.990894,34.0693146 109.598896,26.0142182 109.580328,25.6718766" id="Fill-11" fill="#FEFEFE" mask="url(#mask-2)"></path>
                <path d="M154.230924,14.0391091 C154.230924,14.2868033 154.059683,14.4901945 153.851305,14.4901945 C153.642927,14.4901945 153.473749,14.2868033 153.473749,14.0391091 C153.473749,13.7934287 153.647054,13.5860099 153.851305,13.5860099 C154.059683,13.5860099 154.230924,13.7894011 154.230924,14.0391091 M153.851305,12.5408612 C153.052868,12.5408612 152.400914,13.2134617 152.400914,14.0391091 C152.400914,14.8647565 153.052868,15.5353433 153.851305,15.5353433 C154.651806,15.5353433 155.30376,14.8647565 155.30376,14.0391091 C155.30376,13.2134617 154.651806,12.5408612 153.851305,12.5408612" id="Fill-12" fill="#FEFEFE" mask="url(#mask-2)"></path>
                <path d="M155.679665,16.5130306 C155.890106,16.5130306 156.059283,16.7164218 156.059283,16.9661298 C156.059283,17.213824 155.890106,17.4152014 155.679665,17.4152014 C155.471287,17.4152014 155.302109,17.213824 155.302109,16.9661298 C155.302109,16.7164218 155.471287,16.5130306 155.679665,16.5130306 M155.679665,15.465868 C154.879164,15.465868 154.231337,16.1384686 154.231337,16.9661298 C154.231337,17.7917771 154.879164,18.4623639 155.679665,18.4623639 C156.480165,18.4623639 157.130056,17.7917771 157.130056,16.9661298 C157.130056,16.1384686 156.480165,15.465868 155.679665,15.465868" id="Fill-13" fill="#FEFEFE" mask="url(#mask-2)"></path>
                <path d="M121.303327,28.172984 C120.397607,27.3433091 118.697575,25.3698105 117.748528,21.6262044 C119.250498,22.9633504 121.647873,25.5450088 121.303327,28.172984 M117.222426,19.837973 L116.157842,19.088849 L116.380662,20.3534992 C117.599981,27.2365791 121.196044,29.4617994 121.348717,29.5524193 L121.924334,29.8947609 L122.136838,29.2745185 C123.785291,24.5199978 117.490634,20.0272678 117.222426,19.837973" id="Fill-14" fill="#FEFEFE" mask="url(#mask-2)"></path>
                <path d="M73.2041838,33.2919978 L73.2784571,34.5264413 C73.2846465,34.6331713 73.3795512,36.3630033 72.9999324,38.318378 C72.8555123,39.075557 71.5949303,39.5628904 71.7702977,38.8963311 C72.0446961,37.8511824 72.1540428,36.7959647 72.1973688,35.9924689 C71.0750177,37.3860006 70.2683277,38.8278628 69.7917411,40.2918766 L68.7704841,39.9737003 C69.4183118,37.9820777 70.6231888,36.0387857 72.3479785,34.2022237 L73.2041838,33.2919978 Z" id="Fill-15" fill="#FEFEFE" mask="url(#mask-2)"></path>
                <path d="M122.294463,21.5889496 C122.294463,21.8366438 122.125285,22.040035 121.914844,22.040035 C121.708529,22.040035 121.539351,21.8366438 121.539351,21.5889496 C121.539351,21.3432691 121.712655,21.1358504 121.914844,21.1358504 C122.121158,21.1358504 122.294463,21.3432691 122.294463,21.5889496 M123.367298,21.5889496 C123.367298,20.7633022 122.715344,20.0907017 121.914844,20.0907017 C121.116406,20.0907017 120.466516,20.7633022 120.466516,21.5889496 C120.466516,22.414597 121.116406,23.0851837 121.914844,23.0851837 C122.715344,23.0851837 123.367298,22.414597 123.367298,21.5889496" id="Fill-16" fill="#FEFEFE" mask="url(#mask-2)"></path>
                <path d="M81.2754155,37.4276857 C81.0422801,37.2182532 80.8153341,37.0289584 80.6090195,36.8618152 C80.6647244,37.0631926 80.7224925,37.2625562 80.78645,37.4599061 L79.6599726,37.4377545 C79.4928578,36.871884 79.3484376,36.2818482 79.2329014,35.6716747 L78.9977028,34.4553551 L80.0540334,35.1360107 C80.1427486,35.1944102 81.4961721,36.0744295 82.8227747,37.4377545 C83.5902648,38.2251402 82.1274946,38.1888923 81.2754155,37.4276857" id="Fill-17" fill="#FEFEFE" mask="url(#mask-2)"></path>
                <path d="M64.1094257,37.4631281 C63.7504384,37.124814 63.4017668,36.8247617 63.0922949,36.5750537 C63.1768839,36.8751061 63.2676623,37.1711309 63.3646301,37.4591006 L62.2092686,37.3684807 C62.0132698,36.7361556 61.8482182,36.073624 61.7161769,35.386927 L61.4809783,34.1706074 L62.5373088,34.8512631 C62.6239609,34.905635 64.1878252,35.9225909 65.6031431,37.4631281 C66.0776665,37.9826818 64.7778848,38.0974669 64.1094257,37.4631281" id="Fill-18" fill="#FEFEFE" mask="url(#mask-2)"></path>
                <path d="M80.6104637,29.9882 C82.1495703,31.2347262 84.6521658,33.6754204 84.2911154,36.148335 C83.3730156,35.3911559 81.5987104,33.5404975 80.6104637,29.9882 M80.0534144,28.2644094 L78.9970839,27.5817399 L79.2322825,28.7960457 C80.486675,35.3025499 84.1920844,37.3988887 84.3488834,37.485481 L84.8976801,37.7855333 L85.1163736,37.2095939 C86.8287844,32.6906848 80.3319391,28.4396077 80.0534144,28.2644094" id="Fill-19" fill="#FEFEFE" mask="url(#mask-2)"></path>
                <path d="M50.2657191,39.3194251 C50.9259257,38.125257 51.7057947,37.180797 52.7559358,36.0671799 L53.610078,35.1549402 L53.6864144,36.3893837 C53.6905407,36.4699347 53.7854454,38.125257 53.4347107,40.0383424 C53.3810689,40.336381 52.1700024,40.9022515 52.2133285,40.6686537 C52.3660013,39.8893231 52.5723158,38.4595435 52.6053262,37.8533975 C52.0276454,38.5723149 51.5324905,39.3033149 51.1239877,40.0443837 L50.2657191,39.3194251 Z" id="Fill-20" fill="#FEFEFE" mask="url(#mask-2)"></path>
                <path d="M137.764134,15.1738708 C137.764134,15.4175375 137.59083,15.6249562 137.384515,15.6249562 C137.182327,15.6249562 137.009023,15.4175375 137.009023,15.1738708 C137.009023,14.9281904 137.182327,14.7207716 137.384515,14.7207716 C137.59083,14.7207716 137.764134,14.9281904 137.764134,15.1738708 M138.83697,15.1738708 C138.83697,14.3462096 138.185016,13.6756229 137.384515,13.6756229 C136.586078,13.6756229 135.936187,14.3462096 135.936187,15.1738708 C135.936187,15.9995182 136.586078,16.670105 137.384515,16.670105 C138.185016,16.670105 138.83697,15.9995182 138.83697,15.1738708" id="Fill-21" fill="#FEFEFE" mask="url(#mask-2)"></path>
                <path d="M126.569919,21.0303287 C126.470888,23.1025022 125.981923,26.7111854 123.827999,28.0020146 C123.894019,26.7615298 124.32728,24.111403 126.569919,21.0303287 M127.65307,19.4575711 L127.578797,18.1345215 L126.706087,19.1494636 C122.266197,24.3127804 122.744847,28.6907253 122.765479,28.8739788 L122.843878,29.5063039 L123.464885,29.308954 C128.0657,27.8570229 127.671639,19.7999127 127.65307,19.4575711" id="Fill-22" fill="#FEFEFE" mask="url(#mask-2)"></path>
                <path d="M141.360403,15.1738708 C141.360403,15.4175375 141.187099,15.6249562 140.980784,15.6249562 C140.77447,15.6249562 140.605292,15.421565 140.605292,15.1738708 C140.605292,14.9241628 140.77447,14.7207716 140.980784,14.7207716 C141.187099,14.7207716 141.360403,14.9281904 141.360403,15.1738708 M142.433239,15.1738708 C142.433239,14.3462096 141.781285,13.6756229 140.980784,13.6756229 C140.182347,13.6756229 139.532456,14.3462096 139.532456,15.1738708 C139.532456,15.9995182 140.182347,16.670105 140.980784,16.670105 C141.781285,16.670105 142.433239,15.9995182 142.433239,15.1738708" id="Fill-23" fill="#FEFEFE" mask="url(#mask-2)"></path>
                <path d="M126.839985,28.7610061 C126.307693,30.5754165 125.222479,33.1852678 123.210912,34.2384716 C123.695751,33.1268683 124.739703,31.1694799 126.839985,28.7610061 M128.344018,27.0070088 L128.573027,25.4040446 L127.423855,26.5700198 C122.726073,31.3426645 121.830667,34.8486452 121.795594,34.9976645 L121.597532,35.8112292 L122.435169,35.6279758 C127.201035,34.5848408 128.298629,27.3151163 128.344018,27.0070088" id="Fill-24" fill="#FEFEFE" mask="url(#mask-2)"></path>
                <path d="M126.201235,37.9212617 C126.481823,37.2547025 126.684011,36.5861295 126.830494,35.9960937 C125.607049,37.5748926 124.82718,38.8657218 124.301078,39.8766364 C123.822428,39.8162231 123.413925,39.7658788 123.160158,39.7316446 C123.865754,38.3139477 125.113957,36.2840634 127.294702,33.7487218 L128.365475,32.5042094 L128.239623,34.1232837 C128.229307,34.2642479 128.089013,35.939708 127.416428,37.7863388 L126.201235,37.9212617 Z" id="Fill-25" fill="#FEFEFE" mask="url(#mask-2)"></path>
                <path d="M144.467294,24.9378559 C144.240348,26.9959331 143.5265,30.5764234 141.292113,31.7041369 C141.43447,30.4777485 142.028656,27.8578284 144.467294,24.9378559 M145.643287,23.4456493 L145.653603,22.128641 L144.721061,23.0791424 C139.963447,27.914214 140.167699,32.318338 140.178014,32.5036052 L140.215151,33.1319028 L140.842347,32.9808697 C145.527751,31.8612113 145.641224,23.7900047 145.643287,23.4456493" id="Fill-26" fill="#FEFEFE" mask="url(#mask-2)"></path>
                <path d="M151.514999,17.0007667 C153.016969,18.3358989 155.412281,20.9195711 155.067736,23.5495601 C154.159952,22.7198851 152.45992,20.7443727 151.514999,17.0007667 M150.988897,15.2125353 L149.924314,14.4634113 L150.147134,15.7260477 C151.364389,22.6131551 154.962515,24.8383755 155.115188,24.9289953 L155.686679,25.2713369 L155.90331,24.6510945 C157.551763,19.8945601 151.257106,15.40183 150.988897,15.2125353" id="Fill-27" fill="#FEFEFE" mask="url(#mask-2)"></path>
                <path d="M135.013961,32.6193972 C136.357069,33.726973 138.409899,35.8515047 137.949817,38.237827 C137.22359,37.6779978 135.868103,36.1998876 135.013961,32.6193972 M134.496112,30.927827 L133.474855,30.2975157 L133.681169,31.4594634 C134.910804,38.4170529 137.976638,39.4964358 138.104553,39.5387251 L138.597645,39.699827 L138.779202,39.2225625 C140.491612,34.6935846 134.739563,31.0788601 134.496112,30.927827" id="Fill-28" fill="#FEFEFE" mask="url(#mask-2)"></path>
                <path d="M156.058458,10.9791793 C156.058458,11.2268736 155.88928,11.4302647 155.678839,11.4302647 C155.472525,11.4302647 155.303347,11.2268736 155.303347,10.9791793 C155.303347,10.7314851 155.472525,10.5280939 155.678839,10.5280939 C155.88928,10.5280939 156.058458,10.7314851 156.058458,10.9791793 M157.131294,10.9791793 C157.131294,10.153532 156.47934,9.48294518 155.678839,9.48294518 C154.880402,9.48294518 154.230511,10.153532 154.230511,10.9791793 C154.230511,11.8048267 154.880402,12.4754135 155.678839,12.4754135 C156.47934,12.4754135 157.131294,11.8048267 157.131294,10.9791793" id="Fill-29" fill="#FEFEFE" mask="url(#mask-2)"></path>
                <path d="M135.048209,18.1355284 C136.550179,19.4706606 138.945491,22.052319 138.600946,24.682308 C137.693162,23.8526331 135.995193,21.8771207 135.048209,18.1355284 M134.522107,16.347297 L133.457524,15.598173 L133.680344,16.8608094 C134.8976,23.7438893 138.493662,25.9711234 138.646335,26.063757 L139.21989,26.4040848 L139.434457,25.7838424 C141.08291,21.0293218 134.790316,16.5365917 134.522107,16.347297" id="Fill-30" fill="#FEFEFE" mask="url(#mask-2)"></path>
                <path d="M143.868982,17.5396526 C143.769951,19.6138399 143.280985,23.2225231 141.127061,24.5113386 C141.193082,23.2708537 141.624279,20.620727 143.868982,17.5396526 L143.868982,17.5396526 Z M144.003086,15.6587876 C139.563197,20.8200906 140.041847,25.2000493 140.062478,25.3853165 L140.140878,26.0156278 L140.761885,25.8202917 C145.362699,24.3683606 144.968638,16.3112504 144.95007,15.9689088 L144.87786,14.6458592 L144.003086,15.6587876 Z" id="Fill-31" fill="#FEFEFE" mask="url(#mask-2)"></path>
                <path d="M141.29397,37.9055543 C141.572494,36.856378 142.315227,34.9050309 144.310289,32.2911521 C144.040017,34.0753559 143.303474,36.7738132 141.29397,37.9055543 M139.478402,40.8194854 L140.747236,39.2668656 C145.457397,37.9055543 145.539923,30.8956066 145.539923,30.5955543 L145.546113,29.1496645 L144.59294,30.2572402 C139.478402,36.0991989 139.478402,40.8194854 139.478402,40.8194854" id="Fill-32" fill="#FEFEFE" mask="url(#mask-2)"></path>
                <path d="M121.291155,39.7836 C121.076588,39.7976964 120.855831,39.8117928 120.635075,39.8258893 C120.490654,39.8339444 120.119288,39.5117405 120.063583,39.346611 C119.609691,37.9752309 118.540982,36.841476 117.71366,36.1286 C117.849828,36.7206496 117.996311,37.2502722 118.148984,37.7255229 L117.01838,37.6933025 C116.783182,36.9059168 116.566552,35.9977047 116.380868,34.9505421 L116.176617,33.7865807 L117.195811,34.416892 C117.377368,34.5276496 120.744421,36.654195 121.291155,39.7836" id="Fill-33" fill="#FEFEFE" mask="url(#mask-2)"></path>
                <path d="M157.825336,14.0391091 C157.825336,14.2868033 157.656158,14.4901945 157.44778,14.4901945 C157.243529,14.4901945 157.070225,14.2827758 157.070225,14.0391091 C157.070225,13.7934287 157.243529,13.5860099 157.44778,13.5860099 C157.656158,13.5860099 157.825336,13.7894011 157.825336,14.0391091 M158.898172,14.0391091 C158.898172,13.2134617 158.248281,12.5408612 157.44778,12.5408612 C156.649343,12.5408612 155.997389,13.2134617 155.997389,14.0391091 C155.997389,14.8647565 156.649343,15.5353433 157.44778,15.5353433 C158.248281,15.5353433 158.898172,14.8647565 158.898172,14.0391091" id="Fill-34" fill="#FEFEFE" mask="url(#mask-2)"></path>
                <path d="M151.514999,24.3006978 C153.016969,25.63583 155.412281,28.2195022 155.067736,30.8494912 C154.159952,30.0178025 152.461983,28.0443039 151.514999,24.3006978 M150.988897,22.5124664 L149.924314,21.7633424 L150.147134,23.0259788 C151.364389,29.9110725 154.962515,32.1383066 155.115188,32.2289264 L155.686679,32.571268 L155.90331,31.9510256 C157.551763,27.1944912 151.257106,22.7017612 150.988897,22.5124664" id="Fill-35" fill="#FEFEFE" mask="url(#mask-2)"></path>
                <path d="M160.909945,30.9989132 C160.786156,32.8697094 160.249738,35.9507837 158.099941,37.1006488 C158.225793,36.0333485 158.760147,33.8564587 160.909945,30.9989132 L160.909945,30.9989132 Z M161.058491,29.1240895 C156.618602,34.2833788 156.985842,37.8074835 157.002347,37.954489 L157.078684,38.5727176 L157.687312,38.3975193 C162.422231,37.0261391 162.024044,29.7382906 162.005475,29.4301832 L161.922949,28.1192163 L161.058491,29.1240895 Z" id="Fill-36" fill="#FEFEFE" mask="url(#mask-2)"></path>
                <path d="M160.934084,23.805108 C160.707138,25.8631851 159.993289,29.4436755 157.758903,30.5734028 C157.90126,29.3450006 158.495446,26.7230667 160.934084,23.805108 L160.934084,23.805108 Z M161.189914,21.9463945 C156.430237,26.7814661 156.634488,31.1855901 156.644804,31.3728711 L156.679878,31.9991548 L157.307074,31.8501355 C161.994541,30.7264496 162.110077,22.6572567 162.11214,22.3129014 L162.122456,20.9979069 L161.189914,21.9463945 Z" id="Fill-37" fill="#FEFEFE" mask="url(#mask-2)"></path>
                <path d="M117.75513,29.0205815 C118.943502,30.2207909 120.563071,32.3171298 120.187578,34.5725567 C119.560382,33.8677358 118.518494,32.2849094 117.75513,29.0205815 M117.231091,27.1437441 L116.150002,26.3483033 L116.381075,27.6512152 C117.60452,34.552419 120.119494,35.9399094 120.226778,35.9942813 L120.771448,36.2782234 L120.983952,35.7123529 C122.686048,31.2155953 117.45391,27.3068598 117.231091,27.1437441" id="Fill-38" fill="#FEFEFE" mask="url(#mask-2)"></path>
                <path d="M151.480751,31.4590606 C152.949711,32.6149669 155.33058,34.914697 154.880815,37.3755289 C154.047304,36.7895207 152.40504,35.2107218 151.480751,31.4590606 M150.960838,29.7916556 L149.941644,29.1673857 L150.147959,30.3253058 C151.37553,37.2748402 154.878752,38.6079587 155.029361,38.6603168 L155.530706,38.8415565 L155.716389,38.3522094 C157.432926,33.8232314 151.224921,29.9547713 150.960838,29.7916556" id="Fill-39" fill="#FEFEFE" mask="url(#mask-2)"></path>
                <path d="M160.333708,16.4069047 C160.234677,18.4790782 159.745712,22.0877614 157.593851,23.3785906 C157.659872,22.1381058 158.091069,19.4859653 160.333708,16.4069047 L160.333708,16.4069047 Z M160.469876,14.5260397 C156.029987,19.6873427 156.508637,24.0673014 156.531331,24.2505548 L156.607668,24.8828799 L157.228674,24.68553 C161.827426,23.2335989 161.435428,15.1764887 161.41686,14.8341471 L161.342587,13.5131113 L160.469876,14.5260397 Z" id="Fill-40" fill="#FEFEFE" mask="url(#mask-2)"></path>
                <path d="M101.42327,38.1808372 C101.04984,37.0249309 100.327739,36.0301264 99.6943536,35.3232917 C99.9047945,36.2596967 100.125551,37.0470824 100.348371,37.7076003 L99.2218933,37.7035727 C98.8979795,36.684603 98.5864445,35.4239804 98.309983,33.8633055 L98.0747844,32.5281733 L99.1682515,33.359862 C99.3188612,33.4746471 101.963814,35.5367518 102.607515,38.432559 C102.700357,38.8473964 101.571816,38.6419915 101.42327,38.1808372" id="Fill-41" fill="#FEFEFE" mask="url(#mask-2)"></path>
                <path d="M106.315194,40.3402072 L104.726572,40.6704661 C106.507067,39.6454551 107.823353,36.9047085 108.489749,35.2594551 C106.639108,37.33767 105.211411,39.4581741 104.582152,40.5053366 L103.777525,39.8266948 C104.532636,38.5076727 106.172837,36.0166342 109.354207,32.7825129 L110.668431,31.4453669 L110.264055,33.2577636 C110.210413,33.495389 109.160272,38.0122843 106.315194,40.3402072" id="Fill-42" fill="#FEFEFE" mask="url(#mask-2)"></path>
                <path d="M89.4172068,39.5673207 C89.5946373,39.1504694 89.7411206,39.1061664 89.8649093,38.6812601 C90.1042342,37.8395025 90.2465913,37.0178826 90.3270539,36.3634061 C89.1778819,37.5736843 87.8409636,39.7546017 87.3519981,40.829957 L86.7474964,39.7405052 C87.3850084,38.1435824 88.6744744,36.3976402 90.6014523,34.6033675 L91.5216152,33.7475135 L91.5092363,34.9879983 C91.5071732,35.0866733 91.4782892,36.5386044 91.0780389,38.2563537 C90.9418713,38.8343069 89.4172068,39.5673207 89.4172068,39.5673207" id="Fill-43" fill="#FEFEFE" mask="url(#mask-2)"></path>
                <path d="M174.872489,41 C173.909,38.2350882 170.224222,36.4195904 165.813217,36.4195904 C161.825156,36.4195904 158.437471,38.1172019 157.112932,40.487414 C155.786329,38.1172019 152.398644,36.4195904 148.408521,36.4195904 C144.42665,36.4195904 141.045154,38.1091468 139.712362,40.4692901 C138.381634,38.1091468 135.000138,36.4195904 131.016204,36.4195904 C127.02608,36.4195904 123.640459,38.1172019 122.311793,40.487414 C120.987253,38.1172019 117.601632,36.4195904 113.609445,36.4195904 C109.619322,36.4195904 106.231637,38.1172019 104.907097,40.487414 C103.580495,38.1172019 100.194873,36.4195904 96.2026861,36.4195904 C92.2125627,36.4195904 88.8269408,38.1172019 87.4982751,40.487414 C86.1737357,38.1172019 82.7881138,36.4195904 78.7979904,36.4195904 C74.8140563,36.4195904 71.4325608,38.1091468 70.1018319,40.4713039 C68.7690399,38.1091468 65.3896075,36.4195904 61.4056735,36.4195904 C57.4134868,36.4195904 54.0299281,38.1172019 52.7012624,40.487414 C51.376723,38.1172019 47.9911012,36.4195904 43.9968514,36.4195904 C39.5218887,36.4195904 35.7772796,38.1706474 34.8839375,41 L36.2187927,41 C37.1430819,38.8492893 40.2646211,37.625841 43.9968514,37.625841 C47.7249554,37.625841 50.8403051,38.8553306 51.7728469,41 L53.6338042,41 C54.566346,38.8573444 57.6796326,37.625841 61.4056735,37.625841 C65.1234617,37.625841 68.2284958,38.8633857 69.167227,41 L71.0364368,41 C71.9772312,38.8633857 75.0802021,37.625841 78.7979904,37.625841 C82.5054629,37.625841 85.6043075,38.8714408 86.5533544,41 L88.4452589,41 C89.3943058,38.8714408 92.4952136,37.625841 96.2026861,37.625841 C99.9039692,37.625841 102.996624,38.8815096 103.953924,41 L105.86027,41 C106.819633,38.8835234 109.912288,37.625841 113.609445,37.625841 C117.300412,37.625841 120.388941,38.8895647 121.354493,41 L123.275282,41 C124.240834,38.8915785 127.3273,37.625841 131.016204,37.625841 C134.696856,37.625841 137.777132,38.8956061 138.74681,41 L140.679978,41 C141.651719,38.8956061 144.727869,37.625841 148.408521,37.625841 C152.08092,37.625841 155.155007,38.9036612 156.137064,41 L158.0888,41 C159.070857,38.9036612 162.142881,37.625841 165.813217,37.625841 C169.479426,37.625841 172.545261,38.9117163 173.53557,41" id="Fill-44" fill="#FEFEFE" mask="url(#mask-2)"></path>
            </g>
            <rect id="Rectangle" fill="#FFFFFF" x="1953" y="351" width="46" height="1"></rect>
        </g>
    </g>
</svg>