<?xml version="1.0" encoding="UTF-8" standalone="no"?>
<svg width="159px" height="101px" viewBox="0 0 159 101" version="1.1" xmlns="http://www.w3.org/2000/svg" xmlns:xlink="http://www.w3.org/1999/xlink">
    <!-- Generator: Sketch 42 (36781) - http://www.bohemiancoding.com/sketch -->
    <title>fishing-boat</title>
    <desc>Created with Sketch.</desc>
    <defs></defs>
    <g id="Stories" stroke="none" stroke-width="1" fill="none" fill-rule="evenodd">
        <g id="Desktop-HD" transform="translate(-1615.000000, -306.000000)" fill="#FEFEFE">
            <g id="fishing-boat" transform="translate(1615.000000, 306.000000)">
                <g>
                    <path d="M78.7914657,29.7176656 C78.4653061,30.3501577 78.032282,31.4716088 78,33 L79.4471243,33 C79.5818182,30.9148265 80.367718,29.6735016 81,29 C80.3142857,29.2776025 79.322449,30.4022082 78.7914657,29.7176656 L78.7914657,29.7176656 Z" id="Fill-1"></path>
                    <path d="M83.0113184,29.8118519 C82.7555827,29.4489235 82.4411135,29.1632449 82.0679107,29 C81.563781,29.2958814 80.2018966,30.2972139 80,32.6059633 L80.8112573,32.6059633 L81.0743347,34.4016572 L81.8647905,34.5386663 L81.6163965,32.8989296 L81.9284185,32.8318825 L82.3505659,35.6259939 L82.3297645,39.0657972 C82.219639,39.1168112 82.2245335,39.1066084 82.1168553,39.1663677 C82.0397675,39.2144667 82.0214133,39.2494477 82.0250841,39.3718814 C82.0299786,39.7435551 82.0654634,40.2974217 82.0997247,40.6661803 C82.1217498,40.8979297 82.1804833,40.9985002 82.3493423,40.9999578 C82.5830529,41.0014153 82.9317834,40.9649767 83.2205567,40.9139627 C83.3649434,40.8877269 83.4860814,40.8702364 83.5533802,40.8614911 C83.6806363,40.7784111 83.7760783,40.6618076 83.8066687,40.5102231 C83.8800857,38.9185853 83.9265831,37.1491272 84,35.5589469 C83.8176812,33.8332151 83.9278067,31.1119809 83.0113184,29.8118519" id="Fill-3"></path>
                    <path d="M77.5187658,26.8033458 C77.5200198,26.8060916 77.5200198,26.8088374 77.5212738,26.8129561 C79.8912959,26.7951083 80.5634292,26.4916955 81.013608,26.4038293 C81.013608,26.4038293 79.8122952,26.9818239 77.5676711,27.0079092 C77.6429098,27.3442719 77.7306884,27.6572951 77.8347688,27.8481294 C78.1006125,28.3355121 78.6837132,28.8023011 79.3119572,28.9629315 C79.6129124,29.0123562 79.6881512,29.0123562 79.9853444,28.9629315 C80.5947787,28.8023011 81.1289742,28.3355121 81.3421508,27.8481294 C81.4813426,27.5309875 81.5540734,26.9172972 81.576645,26.3338109 C83.0362777,26.031771 84.0294299,25.6473565 83.9993343,25.3370791 C83.9717468,25.0542599 83.2018031,24.8881379 81.9139656,24.8977483 C81.6970271,24.9128502 81.5452955,24.8181195 81.5001523,24.5449107 L81.4111197,23.7033175 C81.2807058,22.4869203 77.0974286,22.9770487 77.2165567,24.193446 L77.2955574,25.0048351 C77.2968114,25.2272464 77.2290965,25.3823851 77.0748569,25.4524034 C75.7506541,25.7462059 74.9719325,26.0962977 75.000774,26.3887273 C75.0308696,26.694886 76.0578792,26.8404143 77.5187658,26.8033458" id="Fill-5"></path>
                    <path d="M77.28235,34.3899832 L77.9524044,34.3899832 L77.9524044,33.8295923 L77.28235,33.8295923 L77.28235,34.3899832 Z M79.2133012,34.3899832 L79.8833555,34.3899832 L79.8833555,33.8295923 L79.2133012,33.8295923 L79.2133012,34.3899832 Z M76.8265573,33.9151015 C76.8343486,36.2116354 76.9213518,38.0989464 77.0187434,40 L81.6597786,40 C81.6506887,39.7098794 81.6221205,39.4716751 81.8428749,39.3098183 C81.9246838,39.2487403 81.9052055,39.2548481 81.9792231,39.2166743 L82,35.9184608 L81.9052055,35.293938 L80.5962621,35.0694763 L80.3261627,33.250878 L76.9901752,33.250878 C76.9330388,31.9010536 77.2304078,30.8031761 77.5784205,30 C76.868111,31.0688655 75.8214758,33.5471064 75.8214758,33.5471064 L76.1162477,33.5333639 C76.1162477,33.5333639 75.8292671,33.7242327 74.0554411,33.5364178 C74.017783,33.5089327 73.9775278,33.4845015 73.9398697,33.4554894 C73.8178055,33.3669262 73.7437879,33.1913269 73.6632775,33.0569553 C73.6061411,32.9653382 73.5490047,32.8706673 73.4918683,32.7790502 C73.4399261,32.693541 73.3918795,32.568331 73.2996821,32.537792 C73.2685168,32.5255764 73.2334558,32.5255764 73.2035891,32.5469537 C73.1633339,32.5729119 73.1464527,32.6339899 73.1386613,32.6904871 C73.1113917,32.8889907 73.1399599,33.1058177 73.1451541,33.3073752 C72.9867304,33.3058482 72.8309038,33.3043213 72.6737787,33.3012674 C72.5659986,33.2997404 72.4582186,33.2966865 72.3504385,33.2890518 C72.2738238,33.2844709 72.1712379,33.2890518 72.1439683,33.3928844 C72.1257885,33.467705 72.1076087,33.5394717 72.0907275,33.6158192 C72.0634579,33.7395022 72.0400839,33.8647122 72.0232027,33.9899221 C72.0011272,34.1609406 71.9894402,34.3380669 72.0128142,34.5090854 C72.0387853,34.6953733 72.1166986,34.8679188 72.2842122,34.9015117 L73.4360304,35.1305543 C73.6489934,35.1000153 73.8619564,35.0679493 74.0749194,35.0358833 L74.0801136,35.0343564 L76.6148928,36.0848985 L76.8265573,33.9151015 Z" id="Fill-30"></path>
                    <path d="M42.1887462,81 C42.1560226,81 42.1232991,80.9897581 42.0943514,80.9692743 C42.0037323,80.9092861 41.973526,80.7746783 42.0251285,80.6693331 L63.9297619,22.1091085 C63.9574511,22.0520466 64.0065364,22.0125421 64.0619147,22.0023002 C64.1185516,21.9935214 64.1751885,22.0096159 64.2179808,22.0549728 C67.4701971,25.3733465 75.8688192,36.4506866 75.9531453,36.5633475 C76.0223681,36.6525983 76.0135579,36.7915954 75.9355249,36.8720674 C75.8574918,36.9525394 75.7379251,36.9437607 75.6699608,36.8530468 C75.5868933,36.7433122 67.4903347,26.0639428 64.1399477,22.561215 L42.3523639,80.8902654 C42.3171231,80.9604956 42.2541933,81 42.1887462,81" id="Fill-31"></path>
                    <polygon id="Fill-32" points="116.029275 45.9184013 115.416021 45.4288093 118.603213 39.8742714 70.4338043 39.8742714 74.117028 46 73.0077422 45.6663197 69 39 120 39"></polygon>
                    <path d="M145.706592,27 L145,26.6851052 C145.021761,26.6291238 147.135138,21.1499535 152.252812,22.4291264 C152.849319,21.2003367 155.260949,16.8561873 159,18.2851102 L158.747828,19.0730471 C155.089421,17.6665167 152.826278,23.0309254 152.804517,23.0855072 L152.671391,23.4101987 L152.357776,23.3178296 C147.649721,21.921096 145.784676,26.7928692 145.706592,27" id="Fill-33"></path>
                    <path d="M149.380549,5 C147.433005,0.931934432 142.814613,3.87761171 142.766963,3.90602661 L142.490837,4.0875662 L142.308789,3.76237353 C139.579295,-1.10762347 135.522929,1.70545097 135.351877,1.82858218 L135,1.00612888 C135.046428,0.971399562 139.614727,-2.20159686 142.719313,2.90361231 C143.836035,2.28479908 148.012137,0.351007724 150,4.50747518 L149.380549,5 Z" id="Fill-34"></path>
                    <path d="M18,87.0994608 C19.0576693,87.0994608 19.944245,87.9967046 20.2529313,88.3502097 C20.7255324,87.8169563 22.4843264,86 24.4883944,86 C26.8346494,86 28,88.5 28,88.5 C28,88.5 26.8346494,91 24.4883944,91 C22.4843264,91 20.7255324,89.1815458 20.2529313,88.6482924 C19.944245,89.0032954 19.0576693,89.9005392 18,89.9005392 C19.0349366,88.9703415 19.124671,88.037148 18,87.0994608" id="Fill-35"></path>
                    <path d="M9,76.0994608 C10.0576693,76.0994608 10.9430486,76.9967046 11.2529313,77.3502097 C11.7255324,76.8169563 13.4843264,75 15.4883944,75 C17.8346494,75 19,77.5 19,77.5 C19,77.5 17.8346494,80 15.4883944,80 C13.4843264,80 11.7255324,78.1815458 11.2529313,77.6482924 C10.944245,78.0032954 10.0576693,78.9005392 9,78.9005392 C10.0349366,77.9703415 10.124671,77.037148 9,76.0994608" id="Fill-36"></path>
                    <path d="M21,80.6597671 C21.7403962,80.6597671 22.3602067,81.1979301 22.577261,81.4100906 C22.9088717,81.0905563 24.1400517,80 25.5424634,80 C27.1848407,80 28,81.4993532 28,81.4993532 C28,81.4993532 27.1848407,83 25.5424634,83 C24.1400517,83 22.9088717,81.9094437 22.577261,81.5886158 C22.3602067,81.8020699 21.7403962,82.3402329 21,82.3402329 C21.7247201,81.7826649 21.7874246,81.2225097 21,80.6597671" id="Fill-37"></path>
                    <path d="M0,91.6597671 C0.74039621,91.6597671 1.36020672,92.1979301 1.57726098,92.4100906 C1.90887166,92.0905563 3.13884582,91 4.54246339,91 C6.18484065,91 7,92.4993532 7,92.4993532 C7,92.4993532 6.18484065,94 4.54246339,94 C3.14005168,94 1.90887166,92.9094437 1.57726098,92.5886158 C1.36020672,92.8020699 0.74039621,93.3402329 0,93.3402329 C0.724720069,92.7826649 0.787424634,92.2225097 0,91.6597671" id="Fill-38"></path>
                    <path d="M56,84.6597671 C56.7403962,84.6597671 57.3602067,85.1979301 57.577261,85.4100906 C57.9088717,85.0905563 59.1400517,84 60.5424634,84 C62.1848407,84 63,85.4993532 63,85.4993532 C63,85.4993532 62.1848407,87 60.5424634,87 C59.1400517,87 57.9088717,85.9094437 57.577261,85.5886158 C57.3602067,85.8020699 56.7403962,86.3402329 56,86.3402329 C56.7247201,85.7826649 56.7874246,85.2225097 56,84.6597671" id="Fill-39"></path>
                    <path d="M35,89.0994608 C36.0576693,89.0994608 36.9430486,89.9967046 37.2529313,90.3502097 C37.7255324,89.8169563 39.4843264,88 41.4883944,88 C43.8346494,88 45,90.5 45,90.5 C45,90.5 43.8346494,93 41.4883944,93 C39.4843264,93 37.7255324,91.1815458 37.2529313,90.6482924 C36.944245,91.0032954 36.0576693,91.9005392 35,91.9005392 C36.0349366,90.9703415 36.124671,90.037148 35,89.0994608" id="Fill-40"></path>
                    <path d="M32,80.0994608 C33.0576693,80.0994608 33.9430486,80.9967046 34.2529313,81.3502097 C34.7255324,80.8169563 36.4843264,79 38.4883944,79 C40.8346494,79 42,81.5 42,81.5 C42,81.5 40.8346494,84 38.4883944,84 C36.4843264,84 34.7255324,82.1815458 34.2529313,81.6482924 C33.9430486,82.0032954 33.0576693,82.9005392 32,82.9005392 C33.0349366,81.9703415 33.124671,81.037148 32,80.0994608" id="Fill-41"></path>
                    <path d="M159,44.0015625 L158.721268,44.6484375 C158.667999,44.775 158.598626,44.9015625 158.516864,45.0234375 C158.142744,45.5765625 157.575369,45.8953125 156.962158,45.8953125 C156.348947,45.8953125 155.781572,45.5765625 155.40869,45.0234375 C155.330645,44.9109375 155.261272,44.784375 155.201809,44.6484375 L154.923077,44.0015625 L154.644345,44.6484375 C154.587359,44.7828125 154.517986,44.9109375 154.439941,45.0234375 C154.065821,45.5765625 153.498446,45.8953125 152.885235,45.8953125 C152.273263,45.8953125 151.707127,45.5765625 151.330528,45.0234375 C151.250006,44.90625 151.181871,44.7796875 151.124886,44.646875 L150.846154,44.0015625 L150.56866,44.646875 C150.514153,44.7734375 150.446018,44.9015625 150.361779,45.0234375 C149.988897,45.5765625 149.422761,45.8953125 148.808312,45.8953125 C148.195101,45.8953125 147.630204,45.5765625 147.253605,45.0234375 C147.17556,44.90625 147.107426,44.78125 147.047963,44.6484375 L146.77047,44 L146.491737,44.65 C146.431036,44.7859375 146.361662,44.9140625 146.286095,45.0234375 C145.909497,45.5765625 145.342122,45.8953125 144.73015,45.8953125 C144.119417,45.8953125 143.553281,45.5765625 143.176682,45.021875 C143.098637,44.90625 143.030503,44.78125 142.973518,44.6484375 L142.693547,44.0015625 L142.414814,44.65 C142.355351,44.78125 142.288456,44.90625 142.210411,45.0234375 C141.832574,45.5765625 141.267676,45.8953125 140.654466,45.8953125 C140.041255,45.8953125 139.47388,45.5765625 139.099759,45.0234375 C139.019237,44.9046875 138.949863,44.778125 138.896594,44.6484375 L138.616623,44.0015625 L138.337891,44.6484375 C138.279667,44.7828125 138.211533,44.9109375 138.133488,45.0234375 C137.756889,45.5765625 137.190753,45.8953125 136.577542,45.8953125 C135.964332,45.8953125 135.398196,45.5765625 135.021597,45.0234375 C134.941075,44.903125 134.87294,44.775 134.818433,44.646875 L134.5397,44.0015625 L134.260968,44.65 C134.202744,44.784375 134.133371,44.9109375 134.055326,45.0234375 C133.681205,45.5765625 133.11383,45.8953125 132.500619,45.8953125 C131.889886,45.8953125 131.322511,45.578125 130.945913,45.0234375 C130.866629,44.9046875 130.798495,44.7796875 130.741509,44.6484375 L130.462777,44.0015625 L130.184045,44.65 C130.122105,44.7859375 130.05397,44.9140625 129.978403,45.0234375 C129.604282,45.5765625 129.038146,45.8953125 128.423696,45.8953125 C127.814202,45.8953125 127.246827,45.578125 126.86899,45.021875 C126.790945,44.90625 126.72281,44.78125 126.664586,44.6484375 L126.387093,44.0046875 L126.107122,44.65 C126.047659,44.78125 125.979525,44.90625 125.90148,45.0234375 C125.524881,45.5765625 124.959984,45.8953125 124.346773,45.8953125 C123.732324,45.8953125 123.166188,45.5765625 122.793306,45.0234375 C122.717738,44.9140625 122.649604,44.7890625 122.588902,44.6484375 L122.308931,44.0015625 L122.030199,44.6484375 C121.971975,44.7828125 121.902602,44.9109375 121.824556,45.0234375 C121.447958,45.5765625 120.881822,45.8953125 120.26985,45.8953125 C119.657878,45.8953125 119.090503,45.5765625 118.717621,45.025 C118.63586,44.90625 118.565248,44.7796875 118.511979,44.6484375 L118.232008,44.0015625 L117.953276,44.6484375 C117.900007,44.775 117.830634,44.9015625 117.748872,45.0234375 C117.374752,45.5765625 116.807377,45.8953125 116.194166,45.8953125 C115.580955,45.8953125 115.014819,45.5765625 114.638221,45.0234375 C114.560176,44.90625 114.49328,44.78125 114.433817,44.6484375 L114.155085,44.0015625 L113.875114,44.6484375 C113.815651,44.7859375 113.746278,44.9125 113.669472,45.0234375 C113.297829,45.5765625 112.730454,45.8953125 112.117243,45.8953125 C111.505271,45.8953125 110.939135,45.5765625 110.561298,45.0234375 C110.484492,44.9109375 110.415118,44.7828125 110.356894,44.6484375 L110.078162,44.0015625 L109.798191,44.6484375 C109.742444,44.78125 109.673071,44.909375 109.593787,45.0234375 C109.219667,45.5765625 108.652292,45.8953125 108.041559,45.8953125 C107.429587,45.8953125 106.862212,45.5765625 106.485613,45.0234375 C106.407568,44.90625 106.339434,44.78125 106.279971,44.6484375 L106,44.0015625 L105.721268,44.646875 C105.667999,44.778125 105.598626,44.903125 105.516864,45.0234375 C105.142744,45.5765625 104.575369,45.8953125 103.963397,45.8953125 C103.348947,45.8953125 102.782811,45.5765625 102.40869,45.0234375 C102.329407,44.90625 102.260033,44.7796875 102.204287,44.646875 L101.924316,44.0015625 L101.646822,44.65 C101.587359,44.784375 101.517986,44.9109375 101.439941,45.0234375 C101.065821,45.5765625 100.499684,45.8953125 99.8864736,45.8953125 C99.7811748,45.8953125 99.6808312,45.8734375 99.5792488,45.85625 C99.5160695,45.8453125 99.4528902,45.8375 99.3934273,45.81875 C99.3054718,45.79375 99.2224715,45.7546875 99.1394713,45.715625 C99.0911577,45.69375 99.0416053,45.6765625 98.9957693,45.65 C98.8979034,45.59375 98.8074703,45.521875 98.7195148,45.446875 C98.6934998,45.425 98.6637683,45.4078125 98.6389921,45.384375 C98.5262604,45.278125 98.4222004,45.159375 98.3317673,45.0234375 C98.2537223,44.9109375 98.1843489,44.784375 98.1261249,44.6484375 L97.8473927,44 L97.5661828,44.6484375 C97.50672,44.784375 97.4373466,44.9125 97.3593016,45.0234375 C96.9876586,45.5765625 96.4202838,45.8953125 95.8083117,45.8953125 C95.1963397,45.8953125 94.6302036,45.5765625 94.2536054,45.021875 C94.1767992,44.909375 94.1099035,44.784375 94.0492018,44.6484375 L93.7717084,44.0015625 L93.4892598,44.65 C93.4310357,44.78125 93.3629012,44.90625 93.2848561,45.0234375 C93.1919454,45.159375 93.0878854,45.28125 92.9739149,45.3875 C92.9578103,45.403125 92.9392282,45.4125 92.9218849,45.428125 C92.8252577,45.5125 92.7236753,45.590625 92.61466,45.653125 C92.5762569,45.675 92.5353762,45.6890625 92.4944955,45.7078125 C92.4053012,45.7515625 92.3148681,45.7921875 92.2194797,45.8203125 C92.1612556,45.8375 92.100554,45.84375 92.0410911,45.8546875 C91.9382699,45.8734375 91.8354487,45.8953125 91.728911,45.8953125 C91.1157002,45.8953125 90.5483253,45.5765625 90.1754435,45.0234375 C90.0949209,44.9046875 90.0280252,44.7796875 89.9710399,44.6484375 L89.6910689,44.0015625 L89.4135755,44.65 C89.3528738,44.7859375 89.2835005,44.9140625 89.2079331,45.0234375 C88.8313349,45.5765625 88.2651988,45.8953125 87.6532267,45.8953125 C87.0387771,45.8953125 86.472641,45.5765625 86.0985204,45.0234375 C86.0192366,44.90625 85.9498633,44.78125 85.8953556,44.6484375 L85.6141458,44.0015625 L85.3366524,44.65 C85.2771895,44.78125 85.209055,44.90625 85.13101,45.0234375 C84.7544118,45.5765625 84.1895145,45.8953125 83.5763037,45.8953125 C82.9630928,45.8953125 82.3957179,45.5765625 82.0215974,45.0234375 C81.9423135,44.909375 81.8729402,44.78125 81.8171937,44.6484375 L81.5384615,44.0015625 L81.2584905,44.646875 C81.2015053,44.7828125 81.1321319,44.9109375 81.0528481,45.0234375 C80.6799663,45.5765625 80.1125914,45.8953125 79.4993806,45.8953125 C78.8874086,45.8953125 78.3212725,45.5765625 77.9446743,45.0234375 C77.8653905,44.90625 77.7960171,44.7796875 77.7402707,44.646875 L77.4615385,44.0015625 L77.1815674,44.65 C77.1221046,44.78125 77.05397,44.90625 76.975925,45.0234375 C76.6042821,45.5765625 76.0369072,45.8953125 75.4236963,45.8953125 C74.8104855,45.8953125 74.2455882,45.5765625 73.8677512,45.0234375 C73.7884674,44.909375 73.719094,44.78125 73.6633476,44.6484375 L73.3833766,44.0015625 L73.1046444,44.65 C73.0439427,44.7859375 72.9745693,44.9140625 72.9002407,45.0234375 C72.5236426,45.5765625 71.9575065,45.8953125 71.3442956,45.8953125 C70.7323236,45.8953125 70.1649487,45.5765625 69.7920669,45.0234375 C69.7140219,44.9109375 69.6446486,44.7828125 69.5864245,44.6484375 L69.3064535,44.0015625 L69.0277213,44.65 C68.9694972,44.78125 68.9013627,44.90625 68.8233177,45.0234375 C68.4491971,45.5765625 67.8818222,45.8953125 67.2686114,45.8953125 C66.6554005,45.8953125 66.0892644,45.5765625 65.7151439,45.0234375 C65.6370988,44.9109375 65.5677255,44.784375 65.5082626,44.6484375 L65.2295304,44.0015625 L64.952037,44.6484375 C64.893813,44.7828125 64.8244396,44.9109375 64.7463946,45.0234375 C64.3697964,45.5765625 63.8048991,45.8953125 63.1929271,45.8953125 C62.5797162,45.8953125 62.0135802,45.5765625 61.636982,45.0234375 C61.5576982,44.90625 61.4883248,44.7796875 61.4325784,44.646875 L61.1538462,44.0015625 L60.8751139,44.646875 C60.8243227,44.76875 60.7549494,44.8953125 60.6682327,45.0234375 C60.2965898,45.5765625 59.7292149,45.8953125 59.116004,45.8953125 C58.504032,45.8953125 57.9366571,45.5765625 57.5600589,45.0234375 C57.4820139,44.90625 57.4151182,44.78125 57.3556553,44.6484375 L57.0769231,44 L56.7981909,44.65 C56.7399668,44.78125 56.6681158,44.9109375 56.5925484,45.0234375 C56.2184279,45.5765625 55.651053,45.8953125 55.0378421,45.8953125 C54.4258701,45.8953125 53.859734,45.5765625 53.4831358,45.0234375 C53.4050908,44.9109375 53.3357175,44.7828125 53.2787322,44.6484375 L52.9987612,44.0015625 L52.720029,44.6484375 C52.6642825,44.7796875 52.596148,44.9046875 52.5168642,45.0234375 C52.140266,45.5765625 51.5728911,45.8953125 50.9609191,45.8953125 C50.3477082,45.8953125 49.7803333,45.5765625 49.4062127,45.0234375 C49.3281677,44.909375 49.2587944,44.78125 49.2018091,44.6484375 L48.9218381,44.0015625 L48.6443447,44.6484375 C48.5861207,44.784375 48.5167473,44.9125 48.4387023,45.0234375 C48.0645817,45.5765625 47.4972068,45.8953125 46.883996,45.8953125 C46.2720239,45.8953125 45.704649,45.5765625 45.3280509,45.0234375 C45.2512447,44.9109375 45.1831101,44.7828125 45.1248861,44.646875 L44.844915,44.0015625 L44.5686604,44.65 C44.5091976,44.784375 44.4398242,44.9109375 44.3617792,45.0234375 C43.9876586,45.5765625 43.4202838,45.8953125 42.8083117,45.8953125 C42.1963397,45.8953125 41.6289648,45.5765625 41.2523666,45.0234375 C41.1730828,44.9046875 41.1049482,44.7796875 41.0492018,44.6484375 L40.7704696,44.0015625 L40.4904986,44.65 C40.4297969,44.7859375 40.3604235,44.9140625 40.2848561,45.0234375 C39.9107356,45.5765625 39.3445995,45.8953125 38.7313886,45.8953125 C38.1181778,45.8953125 37.5520417,45.5765625 37.1754435,45.021875 C37.0973985,44.90625 37.029264,44.78125 36.9722787,44.6484375 L36.6935465,44.0015625 L36.4135755,44.65 C36.3541126,44.78125 36.2859781,44.90625 36.2079331,45.0234375 C35.8313349,45.5765625 35.2651988,45.8953125 34.6532267,45.8953125 C34.0400159,45.8953125 33.472641,45.5765625 33.0997593,45.0234375 C33.0204754,44.909375 32.9511021,44.78125 32.8953556,44.6484375 L32.6153846,44.0015625 L32.3366524,44.6484375 C32.2796672,44.7828125 32.2102938,44.9109375 32.1322488,45.0234375 C31.7556506,45.5765625 31.1895145,45.8953125 30.5763037,45.8953125 C29.9643316,45.8953125 29.3969567,45.5765625 29.0253138,45.025 C28.9423135,44.90625 28.8717014,44.7796875 28.8184326,44.6484375 L28.5384615,44.0015625 L28.2597293,44.6484375 C28.2064605,44.775 28.1370872,44.9015625 28.0553257,45.0234375 C27.6812052,45.5765625 27.1138303,45.8953125 26.5006194,45.8953125 C25.8886474,45.8953125 25.3225113,45.5765625 24.9459131,45.0234375 C24.8629128,44.9015625 24.7935395,44.775 24.7402707,44.6484375 L24.4615385,44.0015625 L24.1815674,44.6484375 C24.1233434,44.7859375 24.05397,44.9125 23.9771638,45.0234375 C23.6042821,45.5765625 23.038146,45.8953125 22.4236963,45.8953125 C21.8104855,45.8953125 21.2455882,45.5765625 20.86899,45.0234375 C20.790945,44.9109375 20.7215717,44.7828125 20.6633476,44.6484375 L20.3858542,44.0015625 L20.1058832,44.65 C20.0464203,44.78125 19.9782858,44.90625 19.9002407,45.0234375 C19.5285978,45.5765625 18.9612229,45.8953125 18.3480121,45.8953125 C17.7348012,45.8953125 17.1686651,45.5765625 16.7920669,45.0234375 C16.7140219,44.90625 16.6458874,44.78125 16.5876633,44.6484375 L16.3076923,44.0046875 L16.0289601,44.6484375 C15.970736,44.7828125 15.9013627,44.9109375 15.8233177,45.0234375 C15.4467195,45.5765625 14.8818222,45.8953125 14.2698502,45.8953125 C13.6566393,45.8953125 13.0892644,45.5765625 12.7151439,45.0234375 C12.63586,44.90625 12.5664867,44.7796875 12.5107402,44.6484375 L12.2307692,44.0015625 L11.952037,44.6484375 C11.8950518,44.78125 11.8269172,44.909375 11.7476334,45.0234375 C11.3735128,45.5765625 10.806138,45.8953125 10.1929271,45.8953125 C9.57971624,45.8953125 9.01234135,45.5765625 8.63822079,45.0234375 C8.56141458,44.9109375 8.49204123,44.784375 8.43257836,44.6484375 L8.15384615,44.0015625 L7.87635276,44.65 C7.81936751,44.7796875 7.74875535,44.909375 7.67194914,45.0234375 C7.29535096,45.5765625 6.72797607,45.8953125 6.11600402,45.8953125 C5.50279317,45.8953125 4.93789589,45.5765625 4.56129771,45.021875 C4.4844915,44.909375 4.41635696,44.784375 4.35565528,44.6484375 L4.07692308,44.0015625 L3.79942968,44.646875 C3.74368324,44.778125 3.67430989,44.9046875 3.59378725,45.0234375 C3.21966669,45.5765625 2.65353061,45.8953125 2.03908094,45.8953125 C1.42834771,45.8953125 0.860972816,45.5765625 0.484374635,45.0234375 C0.406329617,44.90625 0.338195077,44.78125 0.278732207,44.6484375 L0,44.0015625 L0,46.0953125 L0.0830002571,46.175 C0.619404904,46.7078125 1.31561602,47 2.03908094,47 C2.76502349,47 3.45999579,46.7078125 3.99516163,46.1765625 L4.07692308,46.0953125 L4.15992333,46.175 C4.69632798,46.7078125 5.39130028,47 6.11600402,47 C6.84194657,47 7.53691887,46.7078125 8.07208471,46.1765625 L8.15384615,46.0953125 L8.2356076,46.175 C8.77325106,46.7078125 9.46822336,47 10.1929271,47 C10.9176308,47 11.6126031,46.7078125 12.1502466,46.175 L12.232008,46.0953125 L12.3137695,46.1765625 C12.8501741,46.7078125 13.5439076,47 14.2698502,47 C14.9945539,47 15.6882874,46.7078125 16.2246921,46.175 L16.3076923,46.0953125 L16.3894538,46.175 C16.9270972,46.7078125 17.6233083,47 18.3480121,47 C19.0739546,47 19.7676881,46.7078125 20.3028539,46.1765625 L20.3858542,46.0953125 L20.4676156,46.175 C21.0040203,46.7078125 21.7002314,47 22.4236963,47 C23.1484001,47 23.8433724,46.7078125 24.379777,46.175 L24.4615385,46.0953125 L24.5445387,46.175 C25.0809434,46.7078125 25.7771545,47 26.5006194,47 C27.2253231,47 27.9202954,46.7078125 28.4567001,46.175 L28.5384615,46.0953125 L28.6214618,46.175 C29.1578664,46.7078125 29.8515999,47 30.5763037,47 C31.3010074,47 31.9959797,46.7078125 32.5336232,46.175 L32.6153846,46.0953125 L32.6971461,46.1765625 C33.2335507,46.7078125 33.9272842,47 34.6532267,47 C35.3779305,47 36.0729028,46.7078125 36.6105462,46.175 L36.6935465,46.0953125 L36.7753079,46.1765625 C37.3117126,46.7078125 38.0054461,47 38.7313886,47 C39.4548536,47 40.1510647,46.7078125 40.6874693,46.175 L40.7704696,46.0953125 L40.852231,46.175 C41.3886357,46.7078125 42.083608,47 42.8083117,47 C43.5317766,47 44.2279878,46.7078125 44.7643924,46.175 L44.8473927,46.0953125 L44.9291541,46.175 C45.4655587,46.7078125 46.1592922,47 46.883996,47 C47.6099385,47 48.3049108,46.7078125 48.8400767,46.1765625 L48.9218381,46.0953125 L49.0048384,46.175 C49.541243,46.7078125 50.2362153,47 50.9609191,47 C51.6868616,47 52.3805951,46.7078125 52.9157609,46.1765625 L52.9987612,46.0953125 L53.0805226,46.175 C53.6181661,46.7078125 54.3131384,47 55.0378421,47 C55.7625459,47 56.4575182,46.7078125 56.9939228,46.175 L57.0769231,46.0953125 L57.1586845,46.175 C57.696328,46.7078125 58.3913003,47 59.116004,47 C59.8419466,47 60.5356801,46.7078125 61.0708459,46.1765625 L61.1538462,46.0953125 L61.2356076,46.175 C61.7720122,46.7078125 62.4682234,47 63.1929271,47 C63.9188696,47 64.6126031,46.7078125 65.147769,46.1765625 L65.2295304,46.0953125 L65.3125307,46.175 C65.8489353,46.7078125 66.5451464,47 67.2686114,47 C67.9945539,47 68.6895262,46.7078125 69.2246921,46.1765625 L69.3064535,46.0953125 L69.3894538,46.175 C69.9258584,46.7078125 70.6195919,47 71.3442956,47 C72.0689994,47 72.7639717,46.7078125 73.3016151,46.175 L73.3833766,46.0953125 L73.465138,46.175 C74.0040203,46.7078125 74.6989926,47 75.4236963,47 C76.1484001,47 76.8421336,46.7078125 77.379777,46.175 L77.4615385,46.0953125 L77.5432999,46.175 C78.0809434,46.7078125 78.7746769,47 79.4993806,47 C80.2240843,47 80.9190566,46.7078125 81.4554613,46.175 L81.5384615,46.0953125 L81.620223,46.1765625 C82.1553888,46.7078125 82.8503611,47 83.5763037,47 C84.2997686,47 84.9959797,46.7078125 85.5323844,46.175 L85.6141458,46.0953125 L85.6971461,46.1765625 C86.2323119,46.7078125 86.9260454,47 87.6532267,47 C88.3766917,47 89.0729028,46.7078125 89.6093074,46.175 L89.6910689,46.0953125 L89.7740691,46.175 C90.3104738,46.7078125 91.0042073,47 91.728911,47 C91.774747,47 91.8193441,46.9890625 91.8651801,46.9875 C91.9469415,46.99375 92.0262254,46.9734375 92.106748,46.9625 C92.1736437,46.953125 92.2405395,46.9484375 92.3061964,46.9328125 C92.4214057,46.9078125 92.5316598,46.86875 92.6419138,46.8296875 C92.6951827,46.8109375 92.7496903,46.796875 92.8017203,46.775 C92.9293177,46.7203125 93.0494823,46.65 93.1696468,46.5765625 C93.2006171,46.55625 93.2340649,46.5421875 93.2637964,46.521875 C93.4136924,46.4203125 93.5573943,46.30625 93.6899469,46.175 L93.7704696,46.096875 L93.852231,46.1765625 C94.3873969,46.7078125 95.0811304,47 95.8070729,47 C96.5342543,47 97.2292266,46.7078125 97.76687,46.175 L97.8461538,46.096875 L97.9266765,46.175 C98.0579903,46.3046875 98.1992146,46.41875 98.3478718,46.5203125 C98.3912302,46.55 98.4383049,46.5703125 98.4829021,46.596875 C98.5906785,46.6609375 98.6972162,46.7234375 98.8099479,46.7734375 C98.8681719,46.7984375 98.9301124,46.8140625 98.9908141,46.8359375 C99.0948741,46.871875 99.1989342,46.909375 99.3054718,46.9328125 C99.3748451,46.9484375 99.4442185,46.953125 99.5135918,46.9625 C99.5928757,46.9734375 99.6709207,46.99375 99.7514433,46.996875 C100.612416,47 101.30615,46.7078125 101.841315,46.1765625 L101.924316,46.0953125 L102.006077,46.175 C102.542482,46.7078125 103.238693,47 103.963397,47 C104.6881,47 105.383073,46.7078125 105.918239,46.1765625 L106,46.0953125 L106.083,46.175 C106.620644,46.7078125 107.316855,47 108.041559,47 C108.766262,47 109.461235,46.7078125 109.9964,46.1765625 L110.078162,46.0953125 L110.161162,46.175 C110.697567,46.7078125 111.392539,47 112.117243,47 C112.841947,47 113.53568,46.7078125 114.073324,46.175 L114.155085,46.0953125 L114.236846,46.175 C114.77449,46.7078125 115.469462,47 116.194166,47 C116.91887,47 117.612603,46.7078125 118.149008,46.175 L118.232008,46.0953125 L118.313769,46.175 C118.851413,46.7078125 119.545146,47 120.26985,47 C120.993315,47 121.689526,46.7078125 122.225931,46.175 L122.308931,46.0953125 L122.390693,46.1765625 C122.925858,46.7078125 123.619592,47 124.346773,47 C125.070238,47 125.766449,46.7078125 126.304093,46.175 L126.387093,46.0953125 L126.468854,46.175 C127.005259,46.7078125 127.700231,47 128.423696,47 C129.1484,47 129.844611,46.7078125 130.381016,46.175 L130.462777,46.0953125 L130.545778,46.175 C131.082182,46.7078125 131.775916,47 132.500619,47 C133.225323,47 133.920295,46.7078125 134.457939,46.175 L134.5397,46.0953125 L134.622701,46.175 C135.159105,46.7078125 135.852839,47 136.577542,47 C137.302246,47 137.997219,46.7078125 138.534862,46.175 L138.616623,46.0953125 L138.698385,46.1765625 C139.23479,46.7078125 139.928523,47 140.654466,47 C141.379169,47 142.074142,46.7078125 142.610546,46.175 L142.693547,46.0953125 L142.775308,46.1765625 C143.310474,46.7078125 144.005446,47 144.73015,47 C145.454854,47 146.151065,46.7078125 146.688708,46.175 L146.771708,46.0953125 L146.85347,46.1765625 C147.388636,46.7078125 148.083608,47 148.808312,47 C149.535493,47 150.229227,46.7078125 150.764392,46.1765625 L150.846154,46.0953125 L150.929154,46.175 C151.465559,46.7078125 152.16177,47 152.885235,47 C153.611177,47 154.304911,46.7078125 154.841315,46.1765625 L154.923077,46.0953125 L155.004838,46.175 C155.542482,46.7078125 156.237454,47 156.962158,47 C157.6881,47 158.383073,46.7078125 158.918239,46.1765625 L159,46.0953125 L159,44.0015625 Z" id="waves"></path>
                </g>
            </g>
        </g>
    </g>
</svg>