<?xml version="1.0" encoding="UTF-8" standalone="no"?>
<svg width="195px" height="101px" viewBox="0 0 195 101" version="1.1" xmlns="http://www.w3.org/2000/svg" xmlns:xlink="http://www.w3.org/1999/xlink">
    <!-- Generator: Sketch 42 (36781) - http://www.bohemiancoding.com/sketch -->
    <title>fishing-shore</title>
    <desc>Created with Sketch.</desc>
    <defs></defs>
    <g id="Stories" stroke="none" stroke-width="1" fill="none" fill-rule="evenodd">
        <g id="Desktop-HD" transform="translate(-1255.000000, -306.000000)" fill="#FEFEFE">
            <g id="fishing-shore" transform="translate(1255.000000, 306.000000)">
                <g transform="translate(0.000000, 3.000000)">
                    <polygon id="Fill-16" points="93.3209027 33.7860377 0.649751253 33.7860377 0.649751253 43.7575662 1.52984289 43.7575662 1.52984289 34.6651028 83.7985756 34.6651028 83.7985756 42.4038059 84.6786673 42.4038059 84.6786673 34.6651028 93.3209027 34.6651028"></polygon>
                    <path d="M76.0634664,8.69854533 C78.9638018,8.39087255 81.2264748,8.05243248 81.1765197,7.5894582 C81.1441958,7.28764585 80.2450036,7.11183283 78.7434116,7.12208859 C78.4906974,7.13673967 78.312916,7.03711229 78.2600223,6.74702081 L78.1557043,5.85183951 C78.0043697,4.55814871 73.1219915,5.08119244 73.261572,6.37195303 L73.3526666,7.23490194 C73.3556052,7.47224952 73.1646003,9.00768323 76.0634664,8.69854533" id="Fill-17"></path>
                    <path d="M73.7596539,8.55965305 C73.8580949,9.03288309 74.126971,9.9983896 74.2812441,10.2577138 C74.592729,10.7748971 75.2730001,11.2715689 76.0046957,11.4415215 C76.35732,11.4942654 76.4440069,11.4942654 76.7907542,11.4415215 C77.5033492,11.2715689 78.1248497,10.7748971 78.3746252,10.2577138 C78.5450604,9.90462265 78.6317472,9.2057659 78.6537862,8.55965305 C77.9250292,8.70030346 77.0919541,8.85413986 76.1971698,8.92006974 C74.2327583,9.06658059 73.7596539,8.55965305 73.7596539,8.55965305" id="Fill-18"></path>
                    <path d="M74.7458267,11.8790029 C75.6126949,12.5280459 76.6896685,13.7265047 76.8762656,15.7380987 L78.8583083,15.7380987 C78.812761,14.2627344 78.2191767,13.1829494 77.7725192,12.5719992 C77.0452314,13.231298 75.6846891,12.1471177 74.7458267,11.8790029" id="Fill-19"></path>
                    <path d="M73.5689429,24.1529493 C73.6115517,23.7661607 73.6556297,23.1889079 73.6615068,22.8006542 C73.6673839,22.6717246 73.6438756,22.6380272 73.5483732,22.5852832 C73.4146698,22.5237487 73.4190776,22.5354696 73.2824356,22.4812605 L73.2574581,18.8917447 L73.7819868,15.9732486 L74.1713429,16.0421087 L73.8627965,17.7562856 L74.8472062,17.612705 L75.1763223,15.7373661 L76.1871788,15.7373661 C75.9359339,13.3272626 74.2389292,12.2811752 73.6086132,11.9735024 C73.1443244,12.1419898 72.7505605,12.440872 72.4317293,12.8203351 C71.290108,14.1770256 71.4252806,17.0178709 71.2004826,18.8199544 C71.290108,20.4799223 71.350348,22.3274241 71.4414426,23.9888572 C71.4781743,24.148554 71.5957158,24.2686929 71.755866,24.3551343 C71.8410835,24.3653901 71.9909489,24.3844365 72.1716689,24.4108084 C72.5316396,24.4650175 72.9650737,24.5016452 73.2574581,24.5001801 C73.4675634,24.4987149 73.5424961,24.3932271 73.5689429,24.1529493" id="Fill-20"></path>
                    <path d="M78.4075369,17.4026084 L79.1950646,17.4026084 L79.1950646,16.842937 L78.4075369,16.842937 L78.4075369,17.4026084 Z M76.1404561,17.4026084 L76.9279838,17.4026084 L76.9279838,16.842937 L76.1404561,16.842937 L76.1404561,17.4026084 Z M85.3762758,17.0026338 C85.355706,16.8766345 85.3292592,16.7521003 85.2969353,16.6290311 C85.2778348,16.5543106 85.2557958,16.4810552 85.2337568,16.4077998 C85.2029021,16.3052422 85.0824222,16.2993817 84.9913275,16.3037771 C84.8649705,16.3111026 84.7386134,16.3154979 84.6122563,16.316963 C84.4271286,16.3184281 84.24347,16.3198932 84.0583422,16.3213584 C84.0642193,16.1206385 84.0980125,15.9052675 84.0656886,15.7074779 C84.056873,15.6518038 84.0377725,15.5917343 83.9878174,15.5638973 C83.9554935,15.5448509 83.9128847,15.5448509 83.876153,15.5551066 C83.7688964,15.5858739 83.711595,15.7104081 83.651355,15.7953844 C83.5837686,15.8876862 83.5176516,15.9799881 83.4500652,16.073755 C83.3530935,16.2070799 83.2664067,16.3814278 83.125357,16.4707994 C83.0812789,16.4986365 83.0342623,16.5220782 82.988715,16.5484502 C80.9023542,16.7374492 80.5658918,16.5469851 80.5658918,16.5469851 L80.9126391,16.5616362 C80.9126391,16.5616362 79.6828616,14.0914632 78.8483173,13.0263293 C79.2582431,13.8262786 79.607929,14.9207146 79.5388733,16.2656842 L75.6203351,16.2656842 L75.3015039,18.0780235 L73.7646494,18.3021851 L73.6515158,18.9248562 L73.6750241,22.2110945 C73.7631802,22.2491874 73.7396719,22.2418618 73.8366436,22.3033964 C74.096704,22.4660234 74.0614416,22.7063012 74.0511567,22.9963927 L73.9615314,24.1992468 C73.9145148,24.6461049 73.6897168,24.8893129 73.2753831,24.8937082 C73.1960427,24.8937082 73.1064173,24.8922431 73.0109149,24.8878478 L72.797871,29.400382 L72.5069559,29.4091726 L72.617151,33.3092914 C72.6053968,33.6609175 72.595112,34.0213342 72.7185305,34.0213342 L75.8054629,34.0213342 C75.9817751,34.0066831 75.9935292,32.9283632 75.7026142,32.7965035 L75.3999449,32.6866203 L76.0405458,29.3945215 L75.81134,29.3974517 L76.3006063,25.5310304 L76.4636951,25.5339606 L76.3079526,33.0162697 C76.3197068,33.4221048 76.3446843,34.0213342 76.5048346,34.0213342 L80.1706587,34.0110784 C80.4116186,33.9978924 80.4292499,32.9181075 80.0296089,32.7862477 L79.0642997,32.5093422 L79.0701768,32.3833429 L79.6652304,29.4091726 L79.186249,29.3945215 L79.2523661,27.6759492 C79.4037007,23.7934117 79.7151855,21.0111707 79.7313475,16.9279133 L79.9796538,19.0904134 L82.9578604,18.044326 L82.9652067,18.044326 C83.2164516,18.0765583 83.4662272,18.1073256 83.717472,18.139558 L85.070668,17.9110011 C85.2675499,17.8787687 85.3586446,17.7044208 85.3894992,17.518352 C85.415946,17.3483994 85.4012534,17.1725864 85.3762758,17.0026338 L85.3762758,17.0026338 Z" id="Fill-21"></path>
                    <path d="M133.519933,84.7460277 C133.442062,84.7460277 133.367129,84.7064698 133.32452,84.6361446 L99.3521016,1.25242439 C94.1773391,5.87044639 81.4784543,20.2387655 81.3491587,20.3867414 C81.2668796,20.4775782 81.1199528,20.4878339 81.0273889,20.4057878 C80.9318865,20.3222767 80.9230709,20.178696 81.0068192,20.0849291 C81.137584,19.9369531 94.1993781,5.15693855 99.2565991,0.730845768 C99.3065543,0.685427404 99.3697328,0.672241428 99.4431962,0.676636753 C99.5093133,0.685427404 99.568084,0.726450442 99.6033464,0.783589674 L133.716815,84.4017272 C133.779993,84.5101452 133.7462,84.6478654 133.637474,84.7137953 C133.600743,84.7357719 133.559603,84.7460277 133.519933,84.7460277" id="Fill-22"></path>
                    <path d="M169.905478,79.2297477 C168.606645,79.2297477 167.519386,80.1073477 167.138846,80.4531133 C166.558485,79.9315346 164.398661,78.154358 161.937636,78.154358 C159.056401,78.154358 157.625334,80.5996241 157.625334,80.5996241 C157.625334,80.5996241 159.056401,83.0448902 161.937636,83.0448902 C164.398661,83.0448902 166.558485,81.2662485 167.138846,80.7446699 C167.519386,81.0919006 168.606645,81.9695006 169.905478,81.9695006 C168.634561,81.0596682 168.524366,80.1469056 169.905478,79.2297477" id="Fill-23"></path>
                    <path d="M191.877061,92.0457843 C190.578228,92.0457843 189.490969,92.9233843 189.110429,93.2691499 C188.530068,92.7475713 186.370244,90.9703947 183.909219,90.9703947 C181.027985,90.9703947 179.596917,93.4156607 179.596917,93.4156607 C179.596917,93.4156607 181.027985,95.8609268 183.909219,95.8609268 C186.370244,95.8609268 188.530068,94.0822851 189.110429,93.5607065 C189.490969,93.9079372 190.578228,94.7855372 191.877061,94.7855372 C190.606144,93.8757048 190.495949,92.9629422 191.877061,92.0457843" id="Fill-24"></path>
                    <path d="M144.471417,88.1502073 C143.335673,87.5597686 141.982477,87.8322788 141.491741,87.9612083 C141.221396,87.24184 140.145892,84.7042721 137.993414,83.5849292 C135.473619,82.2736571 133.103689,83.7622073 133.103689,83.7622073 C133.103689,83.7622073 133.235923,86.5517739 135.755718,87.863046 C137.908196,88.9823889 140.61165,88.4095315 141.358038,88.2176023 C141.531411,88.6937626 142.082387,89.955221 143.218131,90.5456597 C142.521698,89.172853 142.843468,88.3245552 144.471417,88.1502073" id="Fill-25"></path>
                    <path d="M171.574713,93.3422588 C170.27588,93.3422588 169.187152,94.2198588 168.808081,94.5656244 C168.22772,94.0440458 166.067896,92.2668692 163.606872,92.2668692 C160.725637,92.2668692 159.29457,94.7121353 159.29457,94.7121353 C159.29457,94.7121353 160.725637,97.1574013 163.606872,97.1574013 C166.067896,97.1574013 168.22772,95.3787596 168.808081,94.857181 C169.187152,95.2044117 170.27588,96.0820117 171.574713,96.0820117 C170.303796,95.1721793 170.193601,94.2594167 171.574713,93.3422588" id="Fill-26"></path>
                    <path d="M174.503259,84.7718136 C173.204425,84.7718136 172.117167,85.6494136 171.736627,85.9951792 C171.156266,85.4736006 168.996441,83.696424 166.535417,83.696424 C163.654182,83.696424 162.223115,86.1416901 162.223115,86.1416901 C162.223115,86.1416901 163.654182,88.5869561 166.535417,88.5869561 C168.996441,88.5869561 171.156266,86.8083144 171.736627,86.2867358 C172.115698,86.6339665 173.204425,87.5115665 174.503259,87.5115665 C173.232342,86.6017341 173.122146,85.6889715 174.503259,84.7718136" id="Fill-27"></path>
                    <path d="M159.295158,85.1244652 C157.996324,85.1244652 156.909066,86.0020652 156.528526,86.3478308 C155.948165,85.8262522 153.78834,84.0490756 151.327316,84.0490756 C148.446081,84.0490756 147.015014,86.4943417 147.015014,86.4943417 C147.015014,86.4943417 148.446081,88.9396078 151.327316,88.9396078 C153.78834,88.9396078 155.948165,87.160966 156.528526,86.6393874 C156.907597,86.9866181 157.996324,87.8642181 159.295158,87.8642181 C158.024241,86.9543857 157.914045,86.0416231 159.295158,85.1244652" id="Fill-28"></path>
                    <path d="M195,41 C195,41 194,43.1838297 192.447561,43.1838297 C191.720273,43.1838297 191.047348,42.8849476 190.605099,42.3662992 C190.512535,42.2608114 190.430256,42.1421376 190.359731,42.0146731 L190.029145,41.4081182 L189.69856,42.0146731 C189.630974,42.1406725 189.548695,42.2608114 189.456131,42.3662992 C189.012412,42.8849476 188.339487,43.1838297 187.612199,43.1838297 C186.886381,43.1838297 186.214925,42.8849476 185.768268,42.3662992 C185.672765,42.256416 185.591956,42.1377422 185.524369,42.013208 L185.193784,41.4081182 L184.864668,42.013208 C184.80002,42.1318818 184.71921,42.2520207 184.6193,42.3662992 C184.17705,42.8849476 183.505595,43.1838297 182.776838,43.1838297 C182.04955,43.1838297 181.379564,42.8849476 180.932906,42.3662992 C180.840342,42.256416 180.759533,42.1392074 180.689008,42.0146731 L180.359892,41.4066531 L180.029306,42.0161382 C179.957312,42.1436027 179.875033,42.2637416 179.785408,42.3662992 C179.33875,42.8849476 178.665825,43.1838297 177.940007,43.1838297 C177.215658,43.1838297 176.544202,42.8849476 176.097545,42.3648341 C176.004981,42.256416 175.924171,42.1392074 175.856585,42.0146731 L175.52453,41.4081182 L175.193945,42.0161382 C175.12342,42.1392074 175.044079,42.256416 174.951515,42.3662992 C174.503389,42.8849476 173.833402,43.1838297 173.106115,43.1838297 C172.378827,43.1838297 171.705902,42.8849476 171.262183,42.3662992 C171.166681,42.2549509 171.084402,42.1362771 171.021223,42.0146731 L170.689169,41.4081182 L170.358583,42.0146731 C170.289528,42.1406725 170.208718,42.2608114 170.116154,42.3662992 C169.669496,42.8849476 168.998041,43.1838297 168.270753,43.1838297 C167.543465,43.1838297 166.87201,42.8849476 166.425352,42.3662992 C166.32985,42.2534858 166.24904,42.1333469 166.184392,42.013208 L165.853807,41.4081182 L165.523222,42.0161382 C165.454166,42.1421376 165.371887,42.2608114 165.279323,42.3662992 C164.835604,42.8849476 164.162679,43.1838297 163.435392,43.1838297 C162.711042,43.1838297 162.038118,42.8864127 161.59146,42.3662992 C161.497427,42.2549509 161.416617,42.1377422 161.349031,42.0146731 L161.018445,41.4081182 L160.68786,42.0161382 C160.614397,42.1436027 160.533587,42.2637416 160.443962,42.3662992 C160.000243,42.8849476 159.328787,43.1838297 158.60003,43.1838297 C157.87715,43.1838297 157.204225,42.8864127 156.756098,42.3648341 C156.663535,42.256416 156.582725,42.1392074 156.513669,42.0146731 L156.184553,41.4110484 L155.852499,42.0161382 C155.781974,42.1392074 155.701164,42.256416 155.6086,42.3662992 C155.161942,42.8849476 154.491956,43.1838297 153.764668,43.1838297 C153.035911,43.1838297 152.364456,42.8849476 151.922206,42.3662992 C151.832581,42.2637416 151.751771,42.1465329 151.679777,42.0146731 L151.347722,41.4081182 L151.017137,42.0146731 C150.948081,42.1406725 150.865802,42.2608114 150.773238,42.3662992 C150.326581,42.8849476 149.655125,43.1838297 148.929307,43.1838297 C148.203488,43.1838297 147.530564,42.8849476 147.088314,42.3677643 C146.991342,42.256416 146.907594,42.1377422 146.844415,42.0146731 L146.512361,41.4081182 L146.181775,42.0146731 C146.118597,42.1333469 146.036318,42.2520207 145.939346,42.3662992 C145.495627,42.8849476 144.822702,43.1838297 144.095415,43.1838297 C143.368127,43.1838297 142.696671,42.8849476 142.250014,42.3662992 C142.15745,42.256416 142.078109,42.1392074 142.007585,42.0146731 L141.676999,41.4081182 L141.344945,42.0146731 C141.27442,42.1436027 141.192141,42.2622765 141.101046,42.3662992 C140.660266,42.8849476 139.987341,43.1838297 139.260053,43.1838297 C138.534235,43.1838297 137.862779,42.8849476 137.414652,42.3662992 C137.323558,42.2608114 137.241279,42.1406725 137.172223,42.0146731 L136.841638,41.4081182 L136.509583,42.0146731 C136.443466,42.1392074 136.361187,42.2593463 136.267154,42.3662992 C135.823435,42.8849476 135.15051,43.1838297 134.426161,43.1838297 C133.700342,43.1838297 133.027417,42.8849476 132.58076,42.3662992 C132.488196,42.256416 132.407386,42.1392074 132.336861,42.0146731 L132.004807,41.4081182 L131.674221,42.013208 C131.611043,42.1362771 131.528764,42.2534858 131.431792,42.3662992 C130.988073,42.8849476 130.315148,43.1838297 129.58933,43.1838297 C128.860573,43.1838297 128.189117,42.8849476 127.745398,42.3662992 C127.651365,42.256416 127.569086,42.1377422 127.502969,42.013208 L127.170915,41.4081182 L126.841798,42.0161382 C126.771274,42.1421376 126.688995,42.2608114 126.596431,42.3662992 C126.152712,42.8849476 125.481256,43.1838297 124.753968,43.1838297 C124.629081,43.1838297 124.51007,43.1633182 124.38959,43.147202 C124.314657,43.1369462 124.239725,43.1296207 124.1692,43.1120394 C124.064882,43.0885977 123.966441,43.05197 123.868,43.0153422 C123.810698,42.9948307 123.751928,42.9787145 123.697565,42.9538077 C123.581492,42.9010638 123.474236,42.8336688 123.369918,42.7633436 C123.339063,42.7428321 123.303801,42.7267159 123.274415,42.7047392 C123.140712,42.6051119 123.017293,42.4937636 122.910037,42.3662992 C122.817473,42.2608114 122.735194,42.1421376 122.666138,42.0146731 L122.335553,41.4066531 L122.002029,42.0146731 C121.931504,42.1421376 121.849225,42.2622765 121.756661,42.3662992 C121.315881,42.8849476 120.642956,43.1838297 119.917138,43.1838297 C119.191319,43.1838297 118.519864,42.8849476 118.073206,42.3648341 C117.982111,42.2593463 117.902771,42.1421376 117.830777,42.0146731 L117.501661,41.4081182 L117.166668,42.0161382 C117.097612,42.1392074 117.016802,42.256416 116.924238,42.3662992 C116.814043,42.4937636 116.690625,42.6080421 116.555452,42.7076695 C116.536352,42.7223205 116.514312,42.7311112 116.493743,42.7457623 C116.37914,42.8248781 116.25866,42.8981336 116.129364,42.9567379 C116.083817,42.9772494 116.035331,42.9904354 115.986845,43.0080167 C115.881058,43.0490397 115.773801,43.0871326 115.660668,43.1135045 C115.591612,43.1296207 115.519618,43.1354811 115.449093,43.1457369 C115.327144,43.1633182 115.205195,43.1838297 115.078837,43.1838297 C114.35155,43.1838297 113.678625,42.8849476 113.236375,42.3662992 C113.140873,42.2549509 113.061532,42.1377422 112.993946,42.0146731 L112.661891,41.4081182 L112.332775,42.0161382 C112.260781,42.1436027 112.178502,42.2637416 112.088877,42.3662992 C111.642219,42.8849476 110.970764,43.1838297 110.244945,43.1838297 C109.516188,43.1838297 108.844733,42.8849476 108.401014,42.3662992 C108.30698,42.256416 108.224701,42.1392074 108.160054,42.0146731 L107.82653,41.4081182 L107.497414,42.0161382 C107.426889,42.1392074 107.346079,42.256416 107.253515,42.3662992 C106.806858,42.8849476 106.136871,43.1838297 105.409584,43.1838297 C104.682296,43.1838297 104.009371,42.8849476 103.565652,42.3662992 C103.471619,42.2593463 103.38934,42.1392074 103.323223,42.0146731 L102.992638,41.4081182 L102.660583,42.013208 C102.592997,42.1406725 102.510718,42.2608114 102.416684,42.3662992 C101.974435,42.8849476 101.30151,43.1838297 100.574222,43.1838297 C99.8484036,43.1838297 99.1769481,42.8849476 98.7302905,42.3662992 C98.6362574,42.256416 98.5539784,42.1377422 98.4878613,42.013208 L98.1572759,41.4081182 L97.8252213,42.0161382 C97.7546965,42.1392074 97.6738867,42.256416 97.5813228,42.3662992 C97.1405424,42.8849476 96.4676176,43.1838297 95.7403298,43.1838297 C95.0130421,43.1838297 94.3430558,42.8849476 93.894929,42.3662992 C93.8008958,42.2593463 93.7186168,42.1392074 93.6524997,42.0146731 L93.3204451,41.4081182 L92.9898598,42.0161382 C92.9178656,42.1436027 92.8355866,42.2637416 92.7474305,42.3662992 C92.300773,42.8849476 91.6293175,43.1838297 90.9020297,43.1838297 C90.1762112,43.1838297 89.5032864,42.8849476 89.0610367,42.3662992 C88.9684728,42.2608114 88.8861938,42.1406725 88.8171382,42.0146731 L88.4850836,41.4081182 L88.1544982,42.0161382 C88.0854426,42.1392074 88.0046329,42.256416 87.912069,42.3662992 C87.46835,42.8849476 86.7954252,43.1838297 86.0681374,43.1838297 C85.3408497,43.1838297 84.6693941,42.8849476 84.2256751,42.3662992 C84.1331112,42.2608114 84.0508322,42.1421376 83.9803074,42.0146731 L83.649722,41.4081182 L83.320606,42.0146731 C83.2515503,42.1406725 83.1692713,42.2608114 83.0767074,42.3662992 C82.6300499,42.8849476 81.9600636,43.1838297 81.2342451,43.1838297 C80.5069574,43.1838297 79.8355018,42.8849476 79.3888443,42.3662992 C79.2948112,42.256416 79.2125321,42.1377422 79.1464151,42.013208 L78.8158297,41.4081182 L78.4852444,42.013208 C78.4250044,42.1274865 78.3427254,42.2461603 78.2398766,42.3662992 C77.7990962,42.8849476 77.1261713,43.1838297 76.3988836,43.1838297 C75.6730651,43.1838297 75.0001403,42.8849476 74.5534828,42.3662992 C74.4609189,42.256416 74.3815784,42.1392074 74.3110535,42.0146731 L73.9804682,41.4066531 L73.6498828,42.0161382 C73.5808272,42.1392074 73.4956097,42.2608114 73.4059843,42.3662992 C72.9622653,42.8849476 72.2893405,43.1838297 71.5620528,43.1838297 C70.8362343,43.1838297 70.1647787,42.8849476 69.7181212,42.3662992 C69.6255573,42.2608114 69.5432783,42.1406725 69.475692,42.0146731 L69.1436374,41.4081182 L68.813052,42.0146731 C68.746935,42.1377422 68.6661252,42.2549509 68.572092,42.3662992 C68.1254345,42.8849476 67.4525097,43.1838297 66.7266912,43.1838297 C65.9994035,43.1838297 65.3264787,42.8849476 64.8827597,42.3662992 C64.7901958,42.2593463 64.7079168,42.1392074 64.6403304,42.0146731 L64.3082758,41.4081182 L63.9791597,42.0146731 C63.9101041,42.1421376 63.8278251,42.2622765 63.7352612,42.3662992 C63.2915422,42.8849476 62.6186174,43.1838297 61.8913297,43.1838297 C61.1655112,43.1838297 60.4925864,42.8849476 60.0459288,42.3662992 C59.9548342,42.2608114 59.8740245,42.1406725 59.8049689,42.013208 L59.4729143,41.4081182 L59.1452675,42.0161382 C59.0747426,42.1421376 58.9924636,42.2608114 58.8998997,42.3662992 C58.4561807,42.8849476 57.7832559,43.1838297 57.0574374,43.1838297 C56.3316189,43.1838297 55.6586941,42.8849476 55.2120366,42.3662992 C55.1180034,42.2549509 55.0371936,42.1377422 54.9710766,42.0146731 L54.6404912,41.4081182 L54.3084366,42.0161382 C54.2364425,42.1436027 54.1541635,42.2637416 54.0645381,42.3662992 C53.6208191,42.8849476 52.9493636,43.1838297 52.2220758,43.1838297 C51.4947881,43.1838297 50.8233325,42.8849476 50.376675,42.3648341 C50.2841111,42.256416 50.2033014,42.1392074 50.135715,42.0146731 L49.8051297,41.4081182 L49.4730751,42.0161382 C49.4025502,42.1392074 49.3217405,42.256416 49.2291766,42.3662992 C48.782519,42.8849476 48.1110635,43.1838297 47.385245,43.1838297 C46.6579573,43.1838297 45.9850324,42.8849476 45.5427827,42.3662992 C45.4487496,42.2593463 45.3664705,42.1392074 45.3003535,42.0146731 L44.9682989,41.4081182 L44.6377135,42.0146731 C44.5701272,42.1406725 44.4878482,42.2608114 44.3952843,42.3662992 C43.9486268,42.8849476 43.2771712,43.1838297 42.5498835,43.1838297 C41.824065,43.1838297 41.1511402,42.8849476 40.7103597,42.3677643 C40.6119187,42.256416 40.5281704,42.1377422 40.4649919,42.0146731 L40.1329373,41.4081182 L39.802352,42.0146731 C39.7391734,42.1333469 39.6568944,42.2520207 39.5599227,42.3662992 C39.1162037,42.8849476 38.4432789,43.1838297 37.7159912,43.1838297 C36.9901727,43.1838297 36.3187171,42.8849476 35.8720596,42.3662992 C35.7736186,42.2520207 35.6913396,42.1333469 35.6281611,42.0146731 L35.2975758,41.4081182 L34.9655211,42.0146731 C34.8964655,42.1436027 34.8141865,42.2622765 34.7230919,42.3662992 C34.2808422,42.8849476 33.6093866,43.1838297 32.8806296,43.1838297 C32.1533419,43.1838297 31.4833556,42.8849476 31.0366981,42.3662992 C30.9441342,42.2608114 30.8618551,42.1406725 30.7927995,42.0146731 L30.4636835,41.4081182 L30.1316289,42.0161382 C30.061104,42.1392074 29.9802942,42.256416 29.8877303,42.3662992 C29.4469499,42.8849476 28.7740251,43.1838297 28.0467373,43.1838297 C27.3194496,43.1838297 26.647994,42.8849476 26.2013365,42.3662992 C26.1087726,42.256416 26.0279629,42.1392074 25.9589073,42.0146731 L25.6268526,41.4110484 L25.2962673,42.0146731 C25.2272117,42.1406725 25.1449327,42.2608114 25.0523688,42.3662992 C24.6057113,42.8849476 23.935725,43.1838297 23.2099065,43.1838297 C22.4826188,43.1838297 21.8096939,42.8849476 21.365975,42.3662992 C21.2719418,42.256416 21.1896628,42.1377422 21.1235457,42.0146731 L20.7914911,41.4081182 L20.4609058,42.0146731 C20.3933194,42.1392074 20.3125097,42.2593463 20.2184765,42.3662992 C19.7747575,42.8849476 19.1018327,43.1838297 18.374545,43.1838297 C17.6472572,43.1838297 16.9743324,42.8849476 16.5306134,42.3662992 C16.4395188,42.2608114 16.3572398,42.1421376 16.2867149,42.0146731 L15.9561295,41.4081182 L15.6270135,42.0161382 C15.5594271,42.1377422 15.4756789,42.2593463 15.3845842,42.3662992 C14.9379267,42.8849476 14.2650019,43.1838297 13.5391834,43.1838297 C12.8118957,43.1838297 12.1419094,42.8849476 11.6952518,42.3648341 C11.6041572,42.2593463 11.5233475,42.1421376 11.4513533,42.0146731 L11.120768,41.4081182 L10.7916519,42.013208 C10.7255349,42.1362771 10.6432558,42.2549509 10.5477534,42.3662992 C10.1040344,42.8849476 9.43257886,43.1838297 8.70382185,43.1838297 C7.97947264,43.1838297 7.30654781,42.8849476 6.85989029,42.3662992 C6.7673264,42.256416 6.68651665,42.1392074 6.61599177,42.0146731 L6.28540644,41.4081182 L5.95629037,42.0146731 C5.88723476,42.1406725 5.80495574,42.2608114 5.71239185,42.3662992 C5.26573432,42.8849476 4.59574804,43.1838297 3.86846029,43.1838297 C3.14117255,43.1838297 2.47118626,42.8849476 2.02452874,42.3662992 C1.92902631,42.2534858 1.84821656,42.1333469 1.78356876,42.0146731 L1.5,41.4081182 L1.5,43.4460841 C2.13913165,43.9456861 3.01040768,44.2196614 3.86846029,44.2196614 C4.72651291,44.2196614 5.55224162,43.9456861 6.18843474,43.4460841 L6.28540644,43.3713636 L6.3838474,43.4460841 C7.02004052,43.9456861 7.84576923,44.2196614 8.70382185,44.2196614 C9.56481299,44.2196614 10.3890724,43.9456861 11.0237963,43.4475492 L11.120768,43.3713636 L11.219209,43.4460841 C11.8554021,43.9456861 12.6796615,44.2196614 13.5391834,44.2196614 C14.4001745,44.2196614 15.224434,43.9456861 15.8591578,43.4475492 L15.9561295,43.3713636 L16.0531012,43.4460841 C16.6907636,43.9456861 17.5150231,44.2196614 18.374545,44.2196614 C19.2340668,44.2196614 20.0583263,43.9456861 20.6959887,43.4460841 L20.7929604,43.3713636 L20.8899321,43.4475492 C21.5261252,43.9456861 22.3489154,44.2196614 23.2099065,44.2196614 C24.0694284,44.2196614 24.8922186,43.9456861 25.5284117,43.4460841 L25.6268526,43.3713636 L25.7238243,43.4460841 C26.3614867,43.9456861 27.1872154,44.2196614 28.0467373,44.2196614 C28.9077285,44.2196614 29.7305187,43.9456861 30.3652425,43.4475492 L30.4636835,43.3713636 L30.5606552,43.4460841 C31.1968483,43.9456861 32.022577,44.2196614 32.8806296,44.2196614 C33.7401515,44.2196614 34.5644109,43.9456861 35.2006041,43.4460841 L35.2975758,43.3713636 L35.3960167,43.4460841 C36.0322098,43.9456861 36.8579386,44.2196614 37.7159912,44.2196614 C38.575513,44.2196614 39.3997725,43.9456861 40.0359656,43.4460841 L40.1329373,43.3713636 L40.2313783,43.4460841 C40.8675714,43.9456861 41.6903616,44.2196614 42.5498835,44.2196614 C43.4094053,44.2196614 44.2336648,43.9456861 44.8713272,43.4460841 L44.9682989,43.3713636 L45.0652706,43.4475492 C45.7014637,43.9456861 46.5242539,44.2196614 47.385245,44.2196614 C48.2447669,44.2196614 49.0690263,43.9456861 49.7066887,43.4460841 L49.8051297,43.3713636 L49.9021014,43.4475492 C50.5382945,43.9456861 51.3610847,44.2196614 52.2220758,44.2196614 C53.0801284,44.2196614 53.9058572,43.9456861 54.5420503,43.4460841 L54.6404912,43.3713636 L54.7374629,43.4460841 C55.3736561,43.9456861 56.1979155,44.2196614 57.0574374,44.2196614 C57.91549,44.2196614 58.7412187,43.9456861 59.3774118,43.4460841 L59.4758528,43.3713636 L59.5728245,43.4460841 C60.2090176,43.9456861 61.0318078,44.2196614 61.8913297,44.2196614 C62.7523208,44.2196614 63.5765803,43.9456861 64.2113041,43.4475492 L64.3082758,43.3713636 L64.4067168,43.4460841 C65.0429099,43.9456861 65.8671693,44.2196614 66.7266912,44.2196614 C67.5876824,44.2196614 68.4104725,43.9456861 69.0451964,43.4475492 L69.1436374,43.3713636 L69.2406091,43.4460841 C69.8782714,43.9456861 70.7025309,44.2196614 71.5620528,44.2196614 C72.4215747,44.2196614 73.2458341,43.9456861 73.8820272,43.4460841 L73.9804682,43.3713636 L74.0774399,43.4460841 C74.7151023,43.9456861 75.5393617,44.2196614 76.3988836,44.2196614 C77.2598747,44.2196614 78.0826649,43.9456861 78.7173888,43.4475492 L78.8158297,43.3713636 L78.9128014,43.4460841 C79.5489946,43.9456861 80.3747233,44.2196614 81.2342451,44.2196614 C82.0952363,44.2196614 82.9180265,43.9456861 83.5527503,43.4475492 L83.649722,43.3713636 L83.748163,43.4460841 C84.3843561,43.9456861 85.2100848,44.2196614 86.0681374,44.2196614 C86.9291286,44.2196614 87.753388,43.9456861 88.3881119,43.4475492 L88.4850836,43.3713636 L88.5835245,43.4460841 C89.2197177,43.9456861 90.0425078,44.2196614 90.9020297,44.2196614 C91.7615516,44.2196614 92.585811,43.9456861 93.2234734,43.4460841 L93.3204451,43.3713636 L93.4174168,43.4460841 C94.0565485,43.9456861 94.8808079,44.2196614 95.7403298,44.2196614 C96.5998517,44.2196614 97.4226419,43.9456861 98.0603043,43.4460841 L98.1572759,43.3713636 L98.2542476,43.4460841 C98.89191,43.9456861 99.7147002,44.2196614 100.574222,44.2196614 C101.433744,44.2196614 102.258003,43.9456861 102.894197,43.4460841 L102.992638,43.3713636 L103.089609,43.4475492 C103.724333,43.9456861 104.548592,44.2196614 105.409584,44.2196614 C106.267636,44.2196614 107.093365,43.9456861 107.729558,43.4460841 L107.82653,43.3713636 L107.924971,43.4475492 C108.559695,43.9456861 109.382485,44.2196614 110.244945,44.2196614 C111.102998,44.2196614 111.928727,43.9456861 112.56492,43.4460841 L112.661891,43.3713636 L112.760332,43.4460841 C113.396525,43.9456861 114.219316,44.2196614 115.078837,44.2196614 C115.1332,44.2196614 115.186094,44.2094057 115.240457,44.2079406 C115.337429,44.213801 115.431462,44.1947546 115.526964,44.1844988 C115.606305,44.1757082 115.685645,44.1713128 115.763516,44.1566618 C115.900158,44.13322 116.030923,44.0965923 116.161688,44.0599646 C116.224867,44.0423833 116.289514,44.0291973 116.351224,44.0086858 C116.502558,43.957407 116.645077,43.8914771 116.787596,43.822617 C116.824328,43.8035706 116.863998,43.7903846 116.899261,43.7713382 C117.077042,43.6761062 117.247477,43.5691533 117.404689,43.4460841 L117.500191,43.3728287 L117.597163,43.4475492 C118.231887,43.9456861 119.054677,44.2196614 119.915668,44.2196614 C120.778129,44.2196614 121.602388,43.9456861 122.240051,43.4460841 L122.334084,43.3728287 L122.429586,43.4460841 C122.585329,43.5676881 122.752825,43.6746411 122.929137,43.7698731 C122.980562,43.7977102 123.036394,43.8167566 123.089288,43.8416634 C123.217114,43.9017329 123.343471,43.9603372 123.477174,44.0072207 C123.54623,44.0306624 123.619693,44.0453135 123.691688,44.065825 C123.815106,44.0995225 123.938525,44.1346851 124.064882,44.1566618 C124.147161,44.1713128 124.22944,44.1757082 124.311719,44.1844988 C124.405752,44.1947546 124.498316,44.213801 124.593818,44.2167312 C125.61496,44.2196614 126.43775,43.9456861 127.072474,43.4475492 L127.170915,43.3713636 L127.267886,43.4460841 C127.904079,43.9456861 128.729808,44.2196614 129.58933,44.2196614 C130.448852,44.2196614 131.273111,43.9456861 131.907835,43.4475492 L132.004807,43.3713636 L132.103248,43.4460841 C132.74091,43.9456861 133.566639,44.2196614 134.426161,44.2196614 C135.285683,44.2196614 136.109942,43.9456861 136.744666,43.4475492 L136.841638,43.3713636 L136.940079,43.4460841 C137.576272,43.9456861 138.400531,44.2196614 139.260053,44.2196614 C140.119575,44.2196614 140.942365,43.9456861 141.580027,43.4460841 L141.676999,43.3713636 L141.773971,43.4460841 C142.411633,43.9456861 143.235893,44.2196614 144.095415,44.2196614 C144.954936,44.2196614 145.777727,43.9456861 146.41392,43.4460841 L146.512361,43.3713636 L146.609332,43.4460841 C147.246995,43.9456861 148.069785,44.2196614 148.929307,44.2196614 C149.78736,44.2196614 150.613088,43.9456861 151.249281,43.4460841 L151.347722,43.3713636 L151.444694,43.4475492 C152.079418,43.9456861 152.902208,44.2196614 153.764668,44.2196614 C154.622721,44.2196614 155.44845,43.9456861 156.086112,43.4460841 L156.184553,43.3713636 L156.281525,43.4460841 C156.917718,43.9456861 157.741977,44.2196614 158.60003,44.2196614 C159.459552,44.2196614 160.285281,43.9456861 160.921474,43.4460841 L161.018445,43.3713636 L161.116886,43.4460841 C161.753079,43.9456861 162.57587,44.2196614 163.435392,44.2196614 C164.294913,44.2196614 165.119173,43.9456861 165.756835,43.4460841 L165.853807,43.3713636 L165.952248,43.4460841 C166.588441,43.9456861 167.411231,44.2196614 168.270753,44.2196614 C169.130275,44.2196614 169.954534,43.9456861 170.592197,43.4460841 L170.689169,43.3713636 L170.78614,43.4475492 C171.422333,43.9456861 172.245124,44.2196614 173.106115,44.2196614 C173.965637,44.2196614 174.789896,43.9456861 175.426089,43.4460841 L175.52453,43.3713636 L175.621502,43.4475492 C176.256226,43.9456861 177.080485,44.2196614 177.940007,44.2196614 C178.799529,44.2196614 179.625258,43.9456861 180.26292,43.4460841 L180.361361,43.3713636 L180.458333,43.4475492 C181.093056,43.9456861 181.917316,44.2196614 182.776838,44.2196614 C183.639298,44.2196614 184.462088,43.9456861 185.096812,43.4475492 L185.193784,43.3713636 L185.292225,43.4460841 C185.928418,43.9456861 186.754147,44.2196614 187.612199,44.2196614 C188.47319,44.2196614 189.295981,43.9456861 189.932174,43.4475492 L190.029145,43.3713636 L190.126117,43.4460841 C190.76378,43.9456861 191.588039,44.2196614 192.447561,44.2196614 C193.308552,44.2196614 194.291492,44.0599646 195,42.9599915 C195,42.7633436 195,41 195,41 Z" id="Fill-29"></path>
                </g>
            </g>
        </g>
    </g>
</svg>