<?xml version="1.0" encoding="UTF-8" standalone="no"?>
<svg width="269px" height="90px" viewBox="0 0 269 90" version="1.1" xmlns="http://www.w3.org/2000/svg" xmlns:xlink="http://www.w3.org/1999/xlink">
    <!-- Generator: Sketch 42 (36781) - http://www.bohemiancoding.com/sketch -->
    <title>fish-market</title>
    <desc>Created with Sketch.</desc>
    <defs></defs>
    <g id="Stories" stroke="none" stroke-width="1" fill="none" fill-rule="evenodd">
        <g id="Desktop-HD" transform="translate(-822.000000, -288.000000)" fill="#FEFEFE">
            <g id="fish-market" transform="translate(822.000000, 288.000000)">
                <g>
                    <polygon id="Fill-9" transform="translate(134.497027, 65.857758) scale(1, -1) translate(-134.497027, -65.857758) " points="0 67.7155152 268.994055 67.7155152 268.994055 64 230.465655 64 0 64"></polygon>
                    <polygon id="Fill-11" points="127.05842 21.4953394 165.041941 21.4953394 165.041941 11.3655792 158.904808 11.3655792 158.904808 7.14753183 157.87632 7.14753183 157.87632 11.3655792 134.224041 11.3655792 134.224041 7.14753183 133.194084 7.14753183 133.194084 11.3655792 127.05842 11.3655792"></polygon>
                    <path d="M86.3524924,18.3267492 L86.3524924,18.2871913 C86.9710543,17.607381 88.4858697,15.7217863 88.4858697,13.4699145 C87.7762132,14.4559326 87.0650874,15.0170691 86.3524924,15.1518591 L86.3524924,7.14650625 L85.8044553,7.14650625 L85.8044553,15.1650451 C85.0947988,15.0668828 84.383673,14.5350484 83.6696087,13.4684494 C83.6696087,15.7217863 85.1844242,17.607381 85.8044553,18.2871913 L85.8044553,18.3267492 C84.8685315,19.3669763 81.7786605,23.1220494 81.7786605,27.3987011 C81.7786605,32.4372092 86.0777392,34.9381494 86.0777392,34.9381494 C86.0777392,34.9381494 90.3782872,32.4372092 90.3782872,27.4001662 C90.3782872,23.1220494 87.2884162,19.3669763 86.3524924,18.3267492" id="Fill-12"></path>
                    <path d="M86.0786208,10.006105 C77.6935073,10.006105 70.8731645,16.8071387 70.8731645,25.1685129 C70.8731645,33.528422 77.6935073,40.3309208 86.0786208,40.3309208 C94.4637342,40.3309208 101.284077,33.528422 101.284077,25.1685129 C101.284077,16.8071387 94.4637342,10.006105 86.0786208,10.006105 M86.0786208,41.3564967 C77.1263698,41.3564967 69.8446767,34.0939539 69.8446767,25.1685129 C69.8446767,16.2416068 77.1263698,8.98052907 86.0786208,8.98052907 C95.0294025,8.98052907 102.312565,16.2416068 102.312565,25.1685129 C102.312565,34.0939539 95.0294025,41.3564967 86.0786208,41.3564967" id="Fill-13"></path>
                    <path d="M187.35175,6.91853537 L185.676784,6.91853537 L63.7304642,6.91853537 L62.0554985,6.91853537 L62.0554985,1.02586897 L187.35175,1.02586897 L187.35175,6.91853537 Z M61.0255415,0.0002930217 L61.0255415,7.94411132 L63.7304642,7.94411132 L63.7304642,63.8438611 L64.7589519,63.8438611 L64.7589519,62.81682 L64.7589519,59.3489082 L64.7589519,7.94411132 L184.648296,7.94411132 L184.648296,59.3489082 L184.648296,62.81682 L184.648296,63.8438611 L185.676784,63.8438611 L185.676784,7.94411132 L188.380237,7.94411132 L188.380237,0.0002930217 L61.0255415,0.0002930217 Z" id="Fill-14"></path>
                    <path d="M79.1085595,54.0227993 L170.298689,54.0227993 L170.298689,50.6764915 L79.1085595,50.6764915 L79.1085595,54.0227993 Z M171.327176,49.6509155 L78.0800718,49.6509155 L78.0800718,55.0483752 L88.5544846,55.0483752 L88.5544846,63.6617481 L89.4301684,63.6617481 L89.4301684,55.0483752 L159.97708,55.0483752 L159.97708,63.6617481 L160.852764,63.6617481 L160.852764,55.0483752 L171.327176,55.0483752 L171.327176,49.6509155 Z" id="Fill-15"></path>
                </g>
            </g>
        </g>
    </g>
</svg>