<?xml version="1.0" encoding="UTF-8" standalone="no"?>
<svg width="176px" height="89px" viewBox="0 0 176 89" version="1.1" xmlns="http://www.w3.org/2000/svg" xmlns:xlink="http://www.w3.org/1999/xlink">
    <!-- Generator: Sketch 42 (36781) - http://www.bohemiancoding.com/sketch -->
    <title>globe-plane</title>
    <desc>Created with Sketch.</desc>
    <defs></defs>
    <g id="Stories" stroke="none" stroke-width="1" fill="none" fill-rule="evenodd">
        <g id="Desktop-HD" transform="translate(0.000000, -264.000000)">
            <g id="globe-plane" transform="translate(0.000000, 264.000000)">
                <g>
                    <path d="M97.2218966,12.7849203 L99.3084339,13.7540006 L104.060537,10.0352256 L104.06506,10.0420261 C104.635041,11.1255827 105.543166,11.9903877 106.651462,12.5049637 L118.537373,18.0258882 L109.43125,28.4058156 L112.741437,28.5803634 L115.315398,26.9278264 C115.50313,27.2349852 115.784728,27.5308097 115.784728,27.5308097 L117.245869,28.2097327 L117.922156,26.7453446 L116.572975,26.1196927 L120.421477,23.6476877 C120.617125,23.9741148 120.921341,24.2937413 120.921341,24.2937413 L122.446945,25.0021333 L123.153767,23.4742733 L121.725422,22.8112183 L124.685025,20.9104607 L124.660145,20.8696573 L127.661592,22.2637729 C129.371535,23.0571721 131.186652,23.6012172 133.050399,23.8789069 L135.218363,24.1996668 C136.210175,24.3470124 136.777894,23.1036426 136.017919,22.4485216 L134.298929,20.9659987 C132.921475,19.7770334 131.385693,18.7852845 129.735689,18.0190876 L126.668649,16.5943695 L126.204974,13.1249484 L127.632188,13.7880034 L128.33901,12.2601434 L126.814537,11.5517513 C126.814537,11.5517513 126.374611,11.5256825 125.999147,11.5857541 L125.392977,7.04637772 L126.742158,7.67316303 L127.419576,6.20877493 L125.958435,5.5309854 C125.958435,5.5309854 125.550174,5.50605 125.195067,5.56158793 L124.789069,2.52513614 L122.517062,0.106402239 L120.507427,13.7324655 L108.483543,8.14806908 C107.469113,7.67656332 106.334806,7.5224172 105.231033,7.70603243 L105.160917,7.7173667 L104.918901,1.62292799 L102.831233,0.653847635 L101.487706,7.39774019 L97.2218966,12.7849203 Z" id="plane" fill="#FFFFFF"></path>
                    <g id="circles" transform="translate(0.000000, 7.908257)" stroke="#FFFFFF" stroke-width="1.117">
                        <path d="M0.449951172,80.0917431 L0.617595084,77.5398955 C6.01431917,34.2554396 42.8549906,0.762662223 87.5034958,0.750194523" id="Stroke-9" stroke-dasharray="2.261,2.261"></path>
                        <path d="M88.7703462,0.758015171 C89.1910464,0.763682308 89.6117466,0.772749726 90.0313159,0.784084" id="Stroke-11"></path>
                        <path d="M145.356446,22.5985929 C145.671971,22.8774161 145.986365,23.158506 146.298498,23.4418629" id="Stroke-13"></path>
                        <path d="M148.17706,25.1969751 C162.478605,38.9556493 172.13096,57.5325231 174.534154,78.3252473 L174.600098,80.0917431" id="Stroke-15" stroke-dasharray="2.272,2.272"></path>
                        <path d="" id="Stroke-17"></path>
                        <path d="M29.84313,80.0917431 C30.3112342,47.631382 56.7124061,21.4281025 89.2132123,21.4281025 C121.866107,21.4281025 148.363434,47.4195672 148.588486,80.0917431" id="Stroke-5"></path>
                    </g>
                    <g id="clouds" transform="translate(11.568075, 7.082569)">
                        <path d="M129.86274,7.06042406 L147.973205,7.06042406 C147.350071,6.01087036 146.233859,5.29114401 144.942354,5.2242718 C144.741052,3.74854943 143.478951,2.61172182 141.951086,2.61172182 C141.791627,2.61172182 141.636691,2.6230561 141.484018,2.64685807 C140.952488,1.38535346 139.707351,0.500146726 138.254126,0.500146726 C136.877803,0.500146726 135.68695,1.29694613 135.114707,2.45417543 C134.991438,2.43830744 134.865906,2.43037345 134.739244,2.43037345 C133.070014,2.43037345 131.718571,3.78595253 131.718571,5.45775783 C131.718571,5.55863286 131.723095,5.65837446 131.733273,5.75584921 C130.951811,5.93153045 130.286833,6.40870335 129.86274,7.06042406 Z" id="Stroke-19" stroke="#FFFFFF" stroke-width="1.117"></path>
                        <path d="M137.288777,9.57969297 L161.483563,9.57969297 C160.651209,8.17764337 159.157271,7.216497 157.433758,7.12582282 C157.1646,5.1547927 155.478406,3.63600009 153.437106,3.63600009 C153.224494,3.63600009 153.016406,3.6530015 152.813972,3.68360404 C152.103758,1.99933104 150.439051,0.81603292 148.499533,0.81603292 C146.660666,0.81603292 145.069469,1.87918775 144.30384,3.42518261 C144.139858,3.40478092 143.972482,3.39458008 143.802845,3.39458008 C141.573812,3.39458008 139.767742,5.20466351 139.767742,7.43864876 C139.767742,7.57239318 139.774527,7.7061376 139.786968,7.83761517 C138.744264,8.0711012 137.854235,8.70922078 137.288777,9.57969297" id="Fill-21" fill="#FFFFFF"></path>
                        <path d="M0.160415846,23.0983073 L18.270881,23.0983073 C17.6477471,22.0487536 16.5304035,21.3290273 15.24003,21.262155 C15.0387273,19.7864327 13.7766267,18.6496051 12.2476302,18.6496051 C12.0893022,18.6496051 11.933236,18.6609393 11.7816934,18.6847413 C11.2501636,17.4232367 10.0050267,16.53803 8.55180158,16.53803 C7.17547861,16.53803 5.98462562,17.3348294 5.41238287,18.4920587 C5.28911319,18.4761907 5.16358168,18.4682567 5.03691925,18.4682567 C3.36768942,18.4682567 2.01624657,19.8238358 2.01624657,21.4956411 C2.01624657,21.5965161 2.02077023,21.6962577 2.03094846,21.7937325 C1.24948653,21.9682803 0.58450879,22.4465866 0.160415846,23.0983073 Z" id="Stroke-23" stroke="#FFFFFF" stroke-width="1.117"></path>
                        <path d="M7.58645295,25.6175762 L31.7812382,25.6175762 C30.9477542,24.2155266 29.454947,23.2543802 27.7314333,23.1637061 C27.4622756,21.192676 25.7749512,19.6738833 23.7347814,19.6738833 C23.5221694,19.6738833 23.3140812,19.6908848 23.1116475,19.7214873 C22.4014331,18.0372143 20.736727,16.8539162 18.7972086,16.8539162 C16.9583416,16.8539162 15.3671448,17.917071 14.6015157,19.4630659 C14.4375331,19.4426642 14.2701578,19.4324633 14.1005206,19.4324633 C11.8714881,19.4324633 10.0642867,21.2425468 10.0642867,23.476532 C10.0642867,23.6102764 10.0722031,23.7440209 10.0846431,23.8754984 C9.04193993,24.1089844 8.15191021,24.747104 7.58645295,25.6175762" id="Fill-25" fill="#FFFFFF"></path>
                    </g>
                    <path d="M69.0312511,54.7133438 C69.6634323,54.6294701 70.3860867,54.796084 70.7717286,55.3151937 C71.1585013,55.8343034 71.3055202,56.8328529 71.2376653,57.9436116 C71.1698105,59.0555038 70.0852634,59.7310265 69.3320744,60.0551867 C68.583409,60.3804804 67.5983824,61.0628036 66.7728148,60.885989 C65.9472472,60.7114411 65.3105423,59.1869814 65.9574254,58.857154 C66.6043086,58.5250598 66.2243213,57.8858068 66.0705169,57.0074007 C65.9121889,56.1335282 66.6574615,55.9306447 67.2805954,55.9691812 C67.9071221,56.0077178 68.0756283,54.8425545 69.0312511,54.7133438 Z M70.4029373,51.0867164 C71.041904,50.8758989 71.6141468,51.778107 72.1784731,51.0708484 C72.7473231,50.3635897 73.5208687,49.6665319 74.3147707,50.3341206 C75.1109345,51.0051096 77.3512761,50.616344 78.027563,51.5242193 C78.7049808,52.4286943 75.6684753,53.8817481 76.2633364,54.414459 C76.8559356,54.944903 77.762929,57.228759 78.6710534,57.7796047 C79.5769159,58.3315838 80.5348005,59.7506348 80.5868226,60.6199736 C80.6377137,61.4904457 79.2025832,62.7632846 78.3690992,62.7122804 C77.5333534,62.6612762 75.9059674,61.9426832 75.0724834,61.891679 C74.243523,61.8406748 73.8590121,62.9298984 73.3546242,62.6510753 C72.8479745,62.3745191 73.5287851,61.5482505 73.5287851,61.5482505 C73.5287851,61.5482505 70.5759673,61.7012632 70.8315539,60.9736029 C71.0837479,60.2482094 73.6407456,57.9677536 74.5058952,57.5245835 C75.3665212,57.0825469 73.2087363,56.4557616 72.1988296,55.8981153 C71.1889229,55.3416025 70.5431707,53.9384195 70.1643144,53.2991665 C69.7831962,52.6542463 69.5411805,51.3666729 70.4029373,51.0867164 Z M72.832481,66.0858135 C71.4946091,65.7571196 71.7445412,65.0305926 73.2124683,64.9965898 C74.6792644,64.9603201 74.6114095,64.339202 75.875772,64.1680544 C77.1401344,63.9980403 78.4135441,63.7044827 79.3578578,63.6410107 C80.3021714,63.5730051 80.3621099,62.5869233 80.4073464,61.8467953 C80.452583,61.1078007 83.0695192,61.0182599 83.0695192,61.0182599 C83.0695192,61.0182599 84.6267885,59.5085347 85.5021164,58.8182775 C86.3830988,58.1291537 87.8318003,58.3411046 88.9559293,58.7820078 C90.0789274,59.2206442 88.9039072,57.9115356 88.5239199,57.2711492 C88.1439327,56.6284959 88.5420146,55.2899182 88.8993836,54.5701919 C89.2567526,53.8470653 91.1521653,53.5931775 91.6599459,53.8731341 C92.1643338,54.1508238 91.5773892,55.2264463 91.6181021,56.2227289 C91.6633387,57.2144778 92.4561097,57.8843334 92.4561097,57.8843334 L93.299772,57.811794 L94.6534766,57.8945342 C96.0071813,57.9772744 96.0761671,58.0112772 97.1403577,57.702985 C98.2034173,57.3980931 98.9373808,57.9092688 99.371652,57.687117 C99.7991377,57.4649653 100.944754,57.5352378 102.469227,58.2481635 C103.991438,58.9599559 103.265391,57.1827419 103.636331,56.2147949 C104.010663,55.246848 104.740103,53.5614416 105.77489,53.7461902 C106.809677,53.9354726 107.596793,54.724338 108.466467,54.1610246 C109.337271,53.5931775 106.996278,52.5855607 107.017765,52.2149299 C107.040383,51.8454326 109.019484,51.9667093 110.79502,51.9497079 C112.575079,51.9372402 113.607604,52.1219889 114.458052,51.9293062 C115.303976,51.7320899 113.953664,49.9152059 113.637008,49.8959376 C113.33053,49.8778028 111.225898,49.9968127 110.193373,49.8109306 C109.16311,49.6227816 107.96321,50.4161808 107.012111,50.6054631 C106.05988,50.7958789 105.954705,49.0538011 105.480852,48.284204 C105.003606,47.51234 104.878075,46.1454266 106.278147,45.4869053 C107.678219,44.8306509 110.171886,43.37193 110.629906,42.6590042 C111.09245,41.944945 109.004782,41.9415447 107.018896,41.9415447 C105.029617,41.9438115 107.285792,42.7020744 105.273895,44.806849 C103.266522,46.9104901 102.419467,45.374696 100.868983,46.7631445 C99.3207609,48.151593 100.355548,48.3397419 101.680979,48.9189233 C103.003019,49.4924375 101.769191,50.9035545 101.43444,51.2537836 C101.099689,51.6040126 99.451947,52.8666506 99.6046204,53.8640667 C99.7493775,54.8603493 98.4635277,55.403261 98.4635277,55.403261 C98.4635277,55.403261 94.5471707,56.1535899 93.8109453,56.2317963 C93.0781127,56.3122697 92.9118683,55.5574071 93.1685859,54.8320136 C93.4196489,54.1020864 92.4821208,52.3146715 92.4493242,51.2005125 C92.413135,50.0829531 90.7540834,51.5904115 90.6048027,52.3248724 C90.4555219,53.0581998 88.4673742,53.055933 87.3534234,52.4960199 C86.2360799,51.9327065 85.7249065,50.0432832 85.9590058,49.687387 C86.1874506,49.329224 85.4704507,47.4284663 85.4998545,46.9354255 C85.5303892,46.443518 88.1801219,43.0012992 90.1886261,42.6284016 C92.1993921,42.2589043 94.6263347,41.1821484 96.0558106,40.0362534 C97.4864175,38.8846912 98.1988937,37.4418382 98.6399503,37.0984097 C99.0764833,36.7538478 106.521294,33.1076121 109.152932,32.7732511 C111.786832,32.4434237 115.737116,35.6790263 116.658811,35.9816514 C117.581638,36.2842765 117.975192,36.8073394 119.812207,37.6330275 C121.649221,38.4587156 125.184907,41.9415447 126.169802,41.9415447 C127.154698,41.9415447 124.518667,42.8924902 123.301803,42.3223763 C122.078154,41.7511289 121.353238,41.7069252 122.244398,42.5037246 C123.135559,43.2993906 122.800808,43.6530199 122.831343,44.767179 C122.870925,45.8847383 124.390874,44.9881973 124.716577,44.759245 C125.043412,44.5314261 125.073946,44.0395187 126.169802,44.9723293 C127.260004,45.9062735 127.707846,45.4370345 128.233721,45.3463604 C128.76412,45.2568196 127.73245,43.8877501 128.075117,43.412844 C134.685446,49.687387 147.079812,61.8467953 148.732394,88.0980277 C142.122066,88.0980277 120.638498,88.0980277 120.638498,88.0980277 C120.638498,88.0980277 120.510706,88.0675029 120.707485,86.4693704 C120.912181,84.8701045 120.031198,85.5614951 119.186405,85.7564446 C118.338219,85.9513941 117.065941,86.2460852 116.658811,86.0964728 C116.248289,85.9479938 114.619772,85.2294009 114.285022,85.57963 C113.946878,85.9309924 112.195092,85.5750963 111.817366,84.9358432 C111.43851,84.2909231 109.399471,83.4238512 109.218525,82.919476 C109.043233,82.4117006 109.428875,79.4670564 109.056804,78.6997261 C108.688126,77.9357961 107.699707,78.7427964 107.14782,79.2018344 C106.595934,79.6642728 105.120091,79.9453628 105.511387,80.3397955 C105.906076,80.7353616 107.214544,81.5570964 107.050562,82.5352442 C106.884317,83.5179257 105.932087,83.707208 105.383594,84.1662461 C104.8351,84.6298179 102.817549,86.4637033 102.544998,85.828984 C102.269055,85.1931312 102.317684,81.2578716 102.034956,80.744429 C101.754489,80.2355201 100.892732,78.943413 100.648455,77.813386 C100.404177,76.6867592 99.2834407,76.2435891 98.6060229,75.3345804 C97.929736,74.4301054 95.9291482,72.9453156 95.1567336,71.909363 C94.3831881,70.872277 92.9672831,70.0414748 92.7919913,71.2678432 C92.611045,72.495345 94.1626597,72.8365066 94.7088915,74.1082121 C95.2596468,75.3799175 96.5681149,76.2027857 97.2715438,76.6164867 C97.9783653,77.0301877 99.861338,78.7563975 99.861338,78.7563975 C99.861338,78.7563975 99.0041048,79.0748906 98.2825813,78.9071433 C97.5610579,78.7393961 98.5313825,81.5910992 98.37984,82.44457 C98.2192501,83.3014411 97.0453609,82.046737 96.898342,81.0504544 C96.7490612,80.0485046 96.1915204,78.9026096 95.7990931,78.5070435 C95.4077966,78.1114773 92.7580639,76.9599152 92.3554583,76.6867592 C91.9539837,76.4136032 90.2689211,74.9492151 90.1298186,73.8282555 C89.9861924,72.7061625 88.4334468,72.4851441 88.0003065,72.7095627 C87.5682972,72.9283142 85.9239475,74.1864185 85.1956385,74.1422149 C84.4707223,74.0980112 83.3590333,73.4122877 82.5312039,73.2377399 C81.7090291,73.0665923 81.497548,74.7826013 81.1254772,75.7505482 C80.7534063,76.7196286 79.4449382,75.8944935 78.6657381,76.7150949 C77.8831452,77.5345628 76.5780699,78.3211614 76.8472275,79.0794243 C77.1163852,79.8388206 77.635475,79.8705566 76.6617576,80.4282028 C75.6835165,80.985849 75.0886555,82.1884154 74.1454728,82.2530208 C73.2011591,82.3210264 71.9243566,82.7358608 71.4233615,82.3346275 C70.9223664,81.9333943 70.411193,83.5099917 70.0764423,83.8624876 C69.7405607,84.21385 69.3074204,82.7007246 68.8279127,82.0535376 C68.3427504,81.4040837 66.9619037,81.8121176 66.5525127,81.6659054 C66.1419907,81.5140262 65.7925381,80.3805988 65.303983,79.855822 C64.8120352,79.3310451 64.9839342,78.2282204 65.42386,77.8836585 C65.860393,77.5390966 66.3150206,76.9485809 66.0707431,75.8196873 C65.8275965,74.6907937 65.7699198,72.2097213 66.8420268,71.7835526 C67.9141337,71.3528502 70.3806583,72.0000372 71.6291879,72.0771103 C72.8811103,72.1530499 74.9902659,72.7979701 75.3940024,72.0589755 C75.980947,70.9810861 76.2659375,69.7626517 76.2286173,68.6450924 C76.1912971,67.5286665 74.1714838,66.413374 72.832481,66.0858135 Z M62.3208567,51.190765 C62.4034135,51.05022 63.2131483,51.2157004 63.3952255,51.4627875 C63.5795646,51.7087413 63.9143153,51.4945235 64.4085249,51.5239926 C64.9016037,51.5545952 65.1390957,51.3347103 65.3584931,51.3766471 C65.5812833,51.4197173 66.0404346,51.5953985 66.2247736,51.8130166 C66.4113745,52.0295012 65.83687,52.493073 65.83687,52.493073 C65.83687,52.493073 65.1673686,52.4817387 65.0576699,52.6506194 C64.9479711,52.8206335 64.5985186,52.8875057 64.168771,53.0065156 C63.7401544,53.1289257 63.5546845,52.9113077 63.4958769,52.6732879 C63.4348075,52.4341348 62.8399465,52.4273342 62.6657856,52.445469 C62.4916248,52.4636039 62.357046,52.2210504 62.1840161,51.7994155 C62.013248,51.3777805 62.2100271,51.3800474 62.3208567,51.190765 Z M48.0512035,46.2365542 C47.8702572,45.8443883 56.3521161,38.6459914 56.8881696,38.7105968 C57.570111,38.7944704 58.4194278,39.1254312 58.9871469,39.2353736 C59.1420822,39.2648427 59.4870111,39.4949285 59.0380381,39.5550001 C58.589065,39.6162052 57.6718933,39.7771519 57.1290543,39.8394904 C56.4233637,39.9199637 55.5299412,39.7193471 55.6554727,39.7488162 C55.8160626,39.7873527 56.6823431,40.2339231 57.8064721,40.0140382 C57.9353964,39.9891028 58.4092496,39.7034791 58.906852,39.8700929 C59.1601768,39.9551 59.4734401,39.6524749 59.9314605,39.565201 C60.2797822,39.4994622 60.8294067,39.650208 60.8294067,39.650208 L61.3089144,39.5924032 C61.7884222,39.5323316 61.4457551,40.6589583 61.8585389,41.2653419 C62.1412675,41.6835766 62.1763258,42.4633746 62.7101175,42.6424561 C63.2427782,42.8215377 63.5402088,42.4010361 64.0434657,41.9612663 C64.5455918,41.5226299 65.2524133,41.8297887 65.6041278,41.9986694 C65.958104,42.1664167 65.5543675,42.8170039 65.0250995,42.9609492 C64.4947006,43.1037611 63.4757466,44.1873176 63.2846221,44.3505311 C63.0934975,44.5160115 62.7813651,44.81977 62.9114203,45.2674738 C63.0437373,45.716311 63.258611,45.5247618 63.4124154,45.6211031 C63.563958,45.7185779 63.2608729,45.8772577 63.1081994,46.1311454 C62.9566569,46.3861666 62.9046348,46.8814743 62.8978493,47.3518467 C62.8921947,47.8199521 62.041747,47.0934252 61.5633702,47.1240278 C61.0849933,47.1534969 61.261416,47.8086179 61.3394491,48.0194353 C61.4174822,48.2291194 61.4661115,48.5260774 61.5497992,48.6484875 C61.632356,48.7708977 61.6741998,49.2140677 61.2150485,49.3047419 C60.7570281,49.3920158 60.6224493,49.0032503 60.6620313,48.7119594 C60.7016133,48.4206686 59.898664,48.0239691 59.8081908,48.0183019 C59.7188486,48.0126348 59.7199795,48.9182432 60.0581229,48.9397783 C60.3973973,48.96018 60.5987001,49.3829484 60.745719,49.5688305 C60.8927379,49.7535791 60.3962664,49.7229766 60.1949636,49.6810398 C59.9947917,49.6402364 59.3343377,50.0392028 58.7394766,50.1208096 C58.1457465,50.2024164 57.5022561,50.0188011 57.2511931,50.0346691 C57.0001301,50.0471368 56.5624662,50.8972073 56.4629457,51.0377523 C56.3622943,51.1794307 55.559345,50.9822144 55.2664381,50.9640795 C54.9712694,50.9459447 54.69985,51.3120417 54.2203422,51.3698465 C53.7408344,51.4287847 53.9681483,51.7948818 53.9738028,52.0895729 C53.9760647,52.3819971 53.8098202,52.5180084 53.521437,52.4137331 C53.2341847,52.3083243 53.244363,52.5146081 53.204781,52.7764298 C53.1674608,53.0382515 53.2126974,53.3930143 52.926576,53.6401014 C52.6393237,53.8860552 52.5205777,53.9665285 52.2073144,53.9189246 C51.8917892,53.8701872 51.9539895,53.2286673 51.8397671,53.2502024 C51.7244139,53.272871 51.1566948,53.6491689 51.0809235,53.4088823 C51.0051522,53.1697291 50.3367817,52.6007486 50.0958969,52.4681376 C49.8538812,52.3355266 49.7057314,51.8277511 49.6039491,51.6158002 C49.5032977,51.4038493 49.9567945,51.4027159 49.8233465,51.3653128 C49.6898986,51.3279097 49.2239619,51.1522285 49.1436669,51.0014826 C49.0611102,50.8484699 48.8111781,50.129877 48.8009998,49.9224598 C48.7908216,49.7173095 49.195689,49.389749 49.2036054,49.2718725 C49.2103909,49.156263 48.8484982,49.1335944 48.6913011,49.1233936 C48.5318422,49.1143261 48.3791687,48.6643555 48.6313626,48.2393202 C48.8846875,47.814285 49.2149145,47.9514297 49.2149145,47.9514297 C49.2149145,47.9514297 49.3732426,47.9616306 49.5541889,47.9729648 C49.7340043,47.9831657 49.6604949,48.4784734 49.5553198,48.7062923 C49.4512757,48.9352446 49.6785895,48.9193766 49.8063828,49.0451871 C49.9353071,49.1698641 50.0212566,48.8525044 50.0574459,48.6496209 C50.0913733,48.4467374 49.7611462,47.9264943 49.6152583,47.7122765 C49.4705012,47.4980588 49.0011717,47.3813158 48.9016512,47.5229942 C48.8021307,47.6624057 48.3814305,48.2529214 48.2762555,48.0999087 C48.1733423,47.9457626 48.2310189,46.62872 48.0512035,46.2365542 Z M111.449819,78.9728821 C111.626242,79.4761238 112.742454,78.3075603 113.574807,78.3585645 C114.404899,78.4095687 116.260729,78.8946756 116.836365,78.06274 C117.407477,77.2319377 119.080099,77.2104026 120.419102,77.5379631 C121.758105,77.8689239 122.838128,79.0488217 123.766609,79.2301701 C124.69509,79.4115185 127.206851,79.317444 128.057299,79.1224945 C128.903223,78.9252782 128.801441,77.1854672 127.500889,76.2424557 C126.199206,75.2949105 125.135016,73.8690589 123.918152,73.2989449 C122.697895,72.7299644 122.309991,72.2097213 123.054133,72.0079712 C123.800537,71.8073546 124.796872,70.8779442 123.754169,70.8144723 C122.711466,70.7498669 121.754712,71.0638263 121.609955,71.6724767 C121.473114,72.2845275 120.797959,72.9838521 120.371604,73.2060039 C119.939594,73.4281557 118.836953,74.3484986 118.568926,73.5913692 C118.30203,72.8308395 117.295516,70.5413163 116.778688,70.3871702 C116.267515,70.2307572 115.423853,70.30443 114.724948,71.4979289 C114.026042,72.6925613 113.220831,73.88266 112.566032,74.3348975 C111.912363,74.7905353 110.990668,76.2186537 111.5991,76.5042774 C112.209794,76.7899011 111.449819,78.9728821 111.449819,78.9728821 Z M135.819896,71.7994206 C134.495595,72.7197636 134.009302,74.0424733 134.477501,74.9367474 C134.94683,75.832155 136.237204,78.6328539 136.950811,78.9252782 C137.666679,79.2154356 140.238379,79.8682897 139.130083,80.9155765 C138.020656,81.96173 137.79108,82.3176261 136.858076,82.1351443 C135.928464,81.9571962 136.15804,85.0627871 136.872777,85.3552114 C137.587515,85.6465022 139.721551,86.6450516 140.443075,86.8116655 C141.164598,86.9794127 143.583624,86.7561275 143.522555,86.0103323 C143.461485,85.2622703 143.225124,82.280223 142.439139,81.4890908 C141.64976,80.6968251 143.67749,80.0791072 143.191197,79.4296533 C142.706035,78.7813329 141.966416,78.9853498 141.592084,78.2191529 C141.218882,77.4540895 141.059423,76.7026272 140.464562,76.1687829 C139.870832,75.6372055 139.290673,76.5938182 139.476143,75.2427728 C139.663875,73.8928609 141.170253,73.11873 141.750412,73.8973946 C142.330571,74.6749257 144.229376,74.4199046 144.668171,74.0764761 C145.109228,73.7319142 143.92403,72.5440823 143.658265,71.7835526 C143.390238,71.0252897 141.344413,70.2840283 141.017579,70.5084469 C140.691876,70.7396661 139.814286,71.4276564 138.942351,71.9909698 C138.072678,72.55655 136.474696,71.3437828 135.819896,71.7994206 Z" id="world" fill="#FFFFFF"></path>
                    <g id="markers" transform="translate(74.739361, 43.907121)" fill="#67AB42">
                        <path d="M15.4214447,21.6828184 C14.9306278,21.6828184 14.5336768,21.283852 14.5336768,20.793078 C14.5336768,20.3011705 14.9306278,19.9033375 15.4214447,19.9033375 C15.9111307,19.9033375 16.3092126,20.3011705 16.3092126,20.793078 C16.3092126,21.283852 15.9111307,21.6828184 15.4214447,21.6828184 M15.4214447,19.0407993 C14.06774,19.0407993 13.6210288,20.0733516 13.6210288,20.8452156 C13.6210288,22.4807512 15.4610267,24.4687828 15.4610267,24.4687828 C15.4610267,24.4687828 17.2218606,22.6054282 17.2218606,20.8452156 C17.2218606,20.082419 16.7389601,19.0407993 15.4214447,19.0407993" id="Fill-40"></path>
                        <path d="M55.1768221,23.8982154 C54.6871361,23.8982154 54.2890542,23.5003825 54.2890542,23.008475 C54.2890542,22.517701 54.6871361,22.1187346 55.1768221,22.1187346 C55.667639,22.1187346 56.06459,22.517701 56.06459,23.008475 C56.06459,23.5003825 55.667639,23.8982154 55.1768221,23.8982154 M55.1768221,21.2561964 C53.8231174,21.2561964 53.3764062,22.2887487 53.3764062,23.0617461 C53.3764062,24.6961483 55.2164041,26.6841798 55.2164041,26.6841798 C55.2164041,26.6841798 56.977238,24.8219587 56.977238,23.0617461 C56.977238,22.2978161 56.4943375,21.2561964 55.1768221,21.2561964" id="Fill-42"></path>
                        <path d="M1.84051845,14.973042 C1.34970155,14.973042 0.952750551,14.5740756 0.952750551,14.0833016 C0.952750551,13.5913941 1.34970155,13.1935611 1.84051845,13.1935611 C2.33133535,13.1935611 2.72828635,13.5913941 2.72828635,14.0833016 C2.72828635,14.5740756 2.33133535,14.973042 1.84051845,14.973042 M1.84051845,12.3310229 C0.486813769,12.3310229 0.0401025335,13.3635752 0.0401025335,14.1354392 C0.0401025335,15.7709748 1.88010046,17.7590064 1.88010046,17.7590064 C1.88010046,17.7590064 3.64093436,15.8956518 3.64093436,14.1354392 C3.64093436,13.3726426 3.15803386,12.3310229 1.84051845,12.3310229" id="Fill-44"></path>
                        <path d="M28.9626759,26.7473117 C28.4729899,26.7473117 28.074908,26.3483453 28.074908,25.8575713 C28.074908,25.3667972 28.4729899,24.9678308 28.9626759,24.9678308 C29.4534928,24.9678308 29.8504438,25.3667972 29.8504438,25.8575713 C29.8504438,26.3483453 29.4534928,26.7473117 28.9626759,26.7473117 M28.9626759,24.1052926 C27.6089712,24.1052926 27.16226,25.1378449 27.16226,25.9108423 C27.16226,27.5452445 29.0022579,29.5332761 29.0022579,29.5332761 C29.0022579,29.5332761 30.7642227,27.6699215 30.7642227,25.9108423 C30.7642227,25.1469123 30.2801913,24.1052926 28.9626759,24.1052926" id="Fill-46"></path>
                        <path d="M38.4770598,14.6564758 C37.9862429,14.6564758 37.5892919,14.2575093 37.5892919,13.7667353 C37.5892919,13.2748279 37.9862429,12.8769949 38.4770598,12.8769949 C38.9678767,12.8769949 39.3648277,13.2748279 39.3648277,13.7667353 C39.3648277,14.2575093 38.9678767,14.6564758 38.4770598,14.6564758 M38.4770598,12.0144567 C37.1233551,12.0144567 36.6766438,13.047009 36.6766438,13.818873 C36.6766438,15.4544086 38.5166418,17.4424401 38.5166418,17.4424401 C38.5166418,17.4424401 40.2774757,15.5790856 40.2774757,13.818873 C40.2774757,13.0560764 39.7945752,12.0144567 38.4770598,12.0144567" id="Fill-48"></path>
                        <path d="M19.4878741,2.69077019 C18.9970572,2.69077019 18.6001062,2.29180377 18.6001062,1.80102974 C18.6001062,1.30912229 18.9970572,0.911289296 19.4878741,0.911289296 C19.978691,0.911289296 20.375642,1.30912229 20.375642,1.80102974 C20.375642,2.29180377 19.978691,2.69077019 19.4878741,2.69077019 M19.4878741,0.0487511047 C18.1341694,0.0487511047 17.6874582,1.08130339 17.6874582,1.8531674 C17.6874582,3.48870302 19.5274561,5.47673454 19.5274561,5.47673454 C19.5274561,5.47673454 21.28829,3.61338003 21.28829,1.8531674 C21.28829,1.09037081 20.8053895,0.0487511047 19.4878741,0.0487511047" id="Fill-50"></path>
                    </g>
                </g>
            </g>
        </g>
    </g>
</svg>