<?xml version="1.0" encoding="UTF-8" standalone="no"?>
<svg width="281px" height="86px" viewBox="0 0 281 86" version="1.1" xmlns="http://www.w3.org/2000/svg" xmlns:xlink="http://www.w3.org/1999/xlink">
    <!-- Generator: Sketch 42 (36781) - http://www.bohemiancoding.com/sketch -->
    <title>printing-press-publisher</title>
    <desc>Created with Sketch.</desc>
    <defs></defs>
    <g id="Stories" stroke="none" stroke-width="1" fill="none" fill-rule="evenodd">
        <g id="Desktop-HD" transform="translate(-541.000000, -266.000000)" fill="#FFFFFF">
            <g id="printing-press" transform="translate(541.000000, 266.000000)">
                <g>
                    <g id="factory">
                        <path d="M0,86 L153.331751,86 L153.331751,15.6971058 L0,15.6971058 L0,86 Z M1.15946781,86 L152.169863,86 L152.169863,16.8531606 L1.15946781,16.8531606 L1.15946781,86 Z M80.7560858,60.3528867 L145.444223,60.3528867 L145.444223,30.8692702 L80.7560858,30.8692702 L80.7560858,60.3528867 Z M81.9155536,59.1980373 L144.285966,59.1980373 L144.285966,32.0241195 L81.9155536,32.0241195 L81.9155536,59.1980373 Z" id="Fill-2"></path>
                        <path d="M8.62581116,86 L53.3052618,86 L53.3052618,30.8680647 L8.62581116,30.8680647 L8.62581116,86 Z M9.78527897,86 L52.1470043,86 L52.1470043,32.0241195 L9.78527897,32.0241195 L9.78527897,86 Z" id="Fill-3"></path>
                        <polygon id="Fill-4" points="14.1544635 11.5852154 56.964 11.5852154 56.964 0.181379802 14.1544635 0.181379802"></polygon>
                        <path d="M118.476672,46.2086346 C117.079985,46.2086346 115.941093,47.3417853 115.941093,48.734114 C115.941093,50.1264428 117.079985,51.2595935 118.476672,51.2595935 C119.873359,51.2595935 121.011041,50.1264428 121.011041,48.734114 C121.011041,47.3417853 119.873359,46.2086346 118.476672,46.2086346 Z M118.476672,52.2420593 C116.53535,52.2420593 114.954698,50.6689086 114.954698,48.734114 C114.954698,46.7993195 116.53535,45.2261688 118.476672,45.2261688 C120.417994,45.2261688 121.997436,46.7993195 121.997436,48.734114 C121.997436,50.6689086 120.417994,52.2420593 118.476672,52.2420593 Z M105.448998,46.7306072 C104.052312,46.7306072 102.915839,47.8637579 102.915839,49.2548812 C102.915839,50.6472099 104.052312,51.7803606 105.448998,51.7803606 C106.846895,51.7803606 107.983367,50.6472099 107.983367,49.2548812 C107.983367,47.8637579 106.846895,46.7306072 105.448998,46.7306072 Z M105.448998,52.7628264 C103.507676,52.7628264 101.928234,51.1896757 101.928234,49.2548812 C101.928234,47.3200867 103.507676,45.7481414 105.448998,45.7481414 C107.39153,45.7481414 108.970973,47.3200867 108.970973,49.2548812 C108.970973,51.1896757 107.39153,52.7628264 105.448998,52.7628264 Z M128.523376,52.8074291 C127.125479,52.8074291 125.987797,53.9405798 125.987797,55.3329086 C125.987797,56.7252373 127.125479,57.8571825 128.523376,57.8571825 C129.921273,57.8571825 131.058955,56.7252373 131.058955,55.3329086 C131.058955,53.9405798 129.921273,52.8074291 128.523376,52.8074291 Z M128.523376,58.8396483 C126.580844,58.8396483 125.001402,57.2664976 125.001402,55.3329086 C125.001402,53.398114 126.580844,51.8249634 128.523376,51.8249634 C130.464698,51.8249634 132.04535,53.398114 132.04535,55.3329086 C132.04535,57.2664976 130.464698,58.8396483 128.523376,58.8396483 Z M135.652045,59.648525 C133.472294,49.0427168 123.98717,41.3433195 113.100518,41.3433195 C102.374835,41.3433195 92.9199682,48.9040867 90.6179768,59.3194291 L89.6545777,59.1084702 C92.0558137,48.2446894 101.916131,40.3608538 113.100518,40.3608538 C124.451925,40.3608538 134.344921,48.3893469 136.619076,59.4520319 L135.652045,59.648525 Z M93.5723202,59.8908264 C93.5093845,59.6268264 93.4779167,59.354388 93.4779167,59.0807442 C93.4779167,57.1459497 95.0561485,55.572799 96.999891,55.572799 C98.9400026,55.572799 100.519445,57.1459497 100.519445,59.0807442 C100.519445,59.3194291 100.496449,59.5569086 100.448037,59.7883606 L99.4822172,59.590662 C99.5161056,59.4243058 99.5342601,59.2531277 99.5342601,59.0807442 C99.5342601,57.6884154 98.3965777,56.5552647 96.999891,56.5552647 C95.6032043,56.5552647 94.4643116,57.6884154 94.4643116,59.0807442 C94.4643116,59.2784428 94.4873073,59.474936 94.5320884,59.6629908 L93.5723202,59.8908264 Z" id="Fill-5"></path>
                    </g>
                    <g id="press" transform="translate(21.000000, 0.142804)">
                        <path d="M108.134215,15.5567123 L122.492009,15.5567123 L122.492009,1.88416438 L108.134215,1.88416438 L108.134215,15.5567123 Z M106.974747,16.7115616 L123.651476,16.7115616 L123.651476,0.729315068 L106.974747,0.729315068 L106.974747,16.7115616 Z" id="Fill-7"></path>
                        <path d="M218.336063,73.9353096 L149.738655,73.9353096 C146.269934,73.9353096 143.448724,71.125337 143.448724,67.6704329 C143.448724,64.2155288 146.269934,61.4055562 149.738655,61.4055562 L218.336063,61.4055562 C221.804784,61.4055562 224.627204,64.2155288 224.627204,67.6704329 C224.627204,71.125337 221.804784,73.9353096 218.336063,73.9353096 Z M149.738655,62.3880219 C146.814569,62.3880219 144.436329,64.7579945 144.436329,67.6704329 C144.436329,70.5828712 146.814569,72.9516384 149.738655,72.9516384 L218.336063,72.9516384 C221.260148,72.9516384 223.639599,70.5828712 223.639599,67.6704329 C223.639599,64.7579945 221.260148,62.3880219 218.336063,62.3880219 L149.738655,62.3880219 Z" id="Combined-Shape"></path>
                        <path d="M216.420157,71.7304877 C214.172629,71.7304877 212.343865,69.9090082 212.343865,67.6704329 C212.343865,65.4318575 214.172629,63.6103781 216.420157,63.6103781 C218.668895,63.6103781 220.497659,65.4318575 220.497659,67.6704329 C220.497659,69.9090082 218.668895,71.7304877 216.420157,71.7304877 Z M216.420157,64.5940493 C214.717264,64.5940493 213.33026,65.9743233 213.33026,67.6704329 C213.33026,69.3665425 214.717264,70.7468164 216.420157,70.7468164 C218.12426,70.7468164 219.511264,69.3665425 219.511264,67.6704329 C219.511264,65.9743233 218.12426,64.5940493 216.420157,64.5940493 Z M151.527479,71.7304877 C149.281161,71.7304877 147.451187,69.9090082 147.451187,67.6704329 C147.451187,65.4318575 149.281161,63.6103781 151.527479,63.6103781 C153.776217,63.6103781 155.604981,65.4318575 155.604981,67.6704329 C155.604981,69.9090082 153.776217,71.7304877 151.527479,71.7304877 Z M151.527479,64.5940493 C149.824586,64.5940493 148.437582,65.9743233 148.437582,67.6704329 C148.437582,69.3665425 149.824586,70.7468164 151.527479,70.7468164 C153.231582,70.7468164 154.618586,69.3665425 154.618586,67.6704329 C154.618586,65.9743233 153.231582,64.5940493 151.527479,64.5940493 Z" id="Combined-Shape"></path>
                        <polygon id="Fill-9" points="0.0713304721 16.192 1.23079828 16.192 1.23079828 10.7818082 0.0713304721 10.7818082"></polygon>
                        <polygon id="Fill-10" points="27.8888755 16.192 29.0483433 16.192 29.0483433 10.7818082 27.8888755 10.7818082"></polygon>
                        <polygon id="Fill-11" points="153.634249 85.8571955 154.619433 85.8571955 154.619433 73.3534247 153.634249 73.3534247"></polygon>
                        <polygon id="Fill-12" points="212.557725 85.8571955 213.54412 85.8571955 213.54412 73.3534247 212.557725 73.3534247"></polygon>
                        <path d="M173.271736,48.0918795 C170.94796,48.0918795 169.058681,49.9905096 169.058681,52.3219068 L169.058681,57.034126 C169.058681,59.3679342 170.94796,61.2653589 173.271736,61.2653589 L180.189814,61.2653589 C182.513591,61.2653589 184.40287,59.3679342 184.40287,57.034126 L184.40287,52.3219068 C184.40287,49.9905096 182.513591,48.0918795 180.189814,48.0918795 L173.271736,48.0918795 Z M180.189814,62.2478247 L173.271736,62.2478247 C170.404535,62.2478247 168.071076,59.9091945 168.071076,57.034126 L168.071076,52.3219068 C168.071076,49.4480438 170.404535,47.1094137 173.271736,47.1094137 L180.189814,47.1094137 C183.057015,47.1094137 185.390475,49.4480438 185.390475,52.3219068 L185.390475,57.034126 C185.390475,59.9091945 183.057015,62.2478247 180.189814,62.2478247 L180.189814,62.2478247 Z" id="Fill-13"></path>
                        <polygon id="Fill-14" points="176.133734 61.9001644 177.351296 61.9001644 177.351296 47.5875068 176.133734 47.5875068"></polygon>
                        <path d="M189.513847,48.0259397 C187.330465,48.0259397 185.554955,49.9245699 185.554955,52.2559671 L185.554955,56.9681863 C185.554955,59.300789 187.330465,61.1982137 189.513847,61.1982137 L196.05068,61.1982137 C198.232852,61.1982137 200.008362,59.300789 200.008362,56.9681863 L200.008362,52.2559671 C200.008362,49.9245699 198.232852,48.0259397 196.05068,48.0259397 L189.513847,48.0259397 Z M196.05068,62.1806795 L189.513847,62.1806795 C186.78704,62.1806795 184.56856,59.8432548 184.56856,56.9681863 L184.56856,52.2559671 C184.56856,49.3821041 186.78704,47.043474 189.513847,47.043474 L196.05068,47.043474 C198.776276,47.043474 200.993547,49.3821041 200.993547,52.2559671 L200.993547,56.9681863 C200.993547,59.8432548 198.776276,62.1806795 196.05068,62.1806795 L196.05068,62.1806795 Z" id="Fill-15"></path>
                        <polygon id="Fill-16" points="192.217416 61.8350685 193.373253 61.8350685 193.373253 47.52 192.217416 47.52"></polygon>
                    </g>
                </g>
            </g>
            <g id="publisher" transform="translate(798.000000, 296.000000)">
                <path d="M11.6999512,22.6603907 C7.70029099,22.8017333 5.65443254,23.3048522 5.59763523,23.4049364 C5.52533828,23.5293769 5.75080675,25.1531442 5.79737089,27.7603538 C5.9640215,27.7253171 6.13312286,27.6951131 6.29732273,27.6516194 C6.61837023,27.5706726 6.8879521,27.2952121 7.15140711,27.1031147 C7.33276218,26.9690089 7.51411726,26.8361113 7.69792308,26.7020055 C7.86579907,26.5799813 8.04715414,26.3806349 8.2689465,26.3866757 C8.34491957,26.389092 8.42456876,26.4144634 8.47603439,26.4688306 C8.55200746,26.5509855 8.55200746,26.6742178 8.53485225,26.7841604 C8.47725976,27.1743961 8.28120022,27.5573829 8.1500854,27.928288 C8.50054183,28.0346061 8.84977289,28.1409242 9.19900395,28.2472423 C9.44162764,28.3197319 9.68180058,28.3861807 9.92442426,28.4490051 C10.0996525,28.493707 10.3226702,28.5746537 10.3202195,28.7872899 C10.3189941,28.9371018 10.3140926,29.0869136 10.305515,29.2367255 C10.2920359,29.4856065 10.2687538,29.7356956 10.2295419,29.9833685 C10.1756255,30.3144043 10.0984271,30.6526892 9.94280484,30.9547292 C9.77370349,31.2845569 9.49799476,31.5539767 9.10342493,31.4984013 L6.40883159,31.1226635 C6.22625114,31.0393004 6.04367069,30.9559374 5.86109024,30.8725743 C5.91500662,33.246609 5.69934112,33.0738421 5.69934112,33.0738421 C5.69934112,33.0738421 8.5662699,33.8580231 11.6999512,33.8563284 L11.6999512,22.6603907 Z M12.1999512,22.6450759 C12.3174015,22.6421085 12.4364469,22.6396138 12.557749,22.6377547 C15.1959752,22.5833875 16.2056818,22.7513218 17.6883821,23.4049364 L17.6577478,27.6709499 C17.6271135,27.663701 17.59893,27.6600765 17.569521,27.6516194 C17.2484735,27.5706726 16.9788917,27.2952121 16.7154367,27.1031147 C16.5340816,26.9690089 16.3515011,26.8361113 16.1689207,26.7020055 C16.0010447,26.5799813 15.8196896,26.3806349 15.5978973,26.3866757 C15.5219242,26.389092 15.442275,26.4144634 15.3908094,26.4688306 C15.3160617,26.5509855 15.3148363,26.6742178 15.3307661,26.7841604 C15.389584,27.1743961 15.5844182,27.5573829 15.7167584,27.928288 C15.3675273,28.0346061 15.0170709,28.1409242 14.6666144,28.2472423 C14.4252161,28.3197319 14.1862686,28.3861807 13.9424195,28.4490051 C13.7671913,28.493707 13.5429482,28.5746537 13.5453989,28.7872899 C13.5478497,28.9371018 13.5527512,29.0869136 13.5613288,29.2367255 C13.5748079,29.4856065 13.5980899,29.7356956 13.6385272,29.9833685 C13.6899928,30.3144043 13.7684167,30.6526892 13.9240389,30.9547292 C14.0931403,31.2845569 14.3700744,31.5539767 14.7621935,31.4984013 L17.4580122,31.1226635 C17.5352106,31.0876268 17.6124091,31.051382 17.6896075,31.0163454 L17.4604629,32.9651077 C17.4604629,32.9651077 17.1896557,33.3480945 13.4596229,33.7637016 C13.0415305,33.8100458 12.6195997,33.8373153 12.1999512,33.849206 L12.1999512,22.6450758 Z M14.8381665,12.3840995 C17.0352588,13.1150364 21.4539507,13.7360307 22.0470308,16.0979838 C22.5555603,18.3560352 24.5639452,25.3694048 23.8471025,27.324208 C23.4366028,28.4465887 22.2675978,29.7562343 20.9981123,30.0993518 C20.2641144,30.2974901 19.5141866,30.4195143 18.7703857,30.568118 L18.5522695,45.20377 L19.3634659,45.20377 L18.441986,52.6955711 L20.9000825,53.2887778 C21.7872519,53.5726954 21.8914086,55.9722123 21.3706254,56 L13.4179602,56 C13.0724053,56 12.9388397,54.6552069 12.8567398,53.7829153 L12.2085179,37.7325077 L11.62279,37.7325077 L10.9770189,53.7829153 C10.8936936,54.6552069 10.7613534,56 10.4157985,56 L2.46190793,56 C1.94112477,55.9722123 2.0452814,53.5726954 2.93245083,53.2887778 L5.39054734,52.6955711 L4.46906749,45.20377 L5.21531913,45.20377 L4.87221493,30.4340122 C4.71414192,30.3748123 4.51195552,30.2950738 4.4028974,30.2310413 L4.2399229,30.1899638 L1.72300853,29.3406273 C1.0821389,28.8319918 0.511115482,28.1590466 0.204772448,27.324208 C-0.191022754,26.2453209 0.060178535,24.6070558 0.343239499,23.4834668 L2.00361875,16.0979838 C2.59424812,13.7469042 6.9712774,13.1234935 9.17694725,12.3961811 C10.9708921,13.9208792 13.0491232,13.9148384 14.8381665,12.3840995 Z M7.50860309,6.91802056 C5.69995381,6.34897713 4.46232795,5.51172215 3.87292395,4.59835308 C3.66951217,4.28302328 3.87169858,4.08730133 4.22460575,3.99185668 C4.92061713,3.76834705 6.0038461,3.58833119 7.44733448,3.4880539 C7.95096243,3.3515318 8.08207725,2.44299537 8.25485472,1.95731499 C8.54404254,1.15147216 8.9153303,0.31904982 9.71182219,0.0472137864 C10.0218413,-0.0591043069 10.5328215,0.027883224 10.9555749,0.171654282 C11.3893567,0.31904982 11.6907982,0.39395575 11.9922397,0.39395575 C12.2936813,0.39395575 12.5951228,0.31904982 13.0289046,0.171654282 C13.4528833,0.027883224 13.9638635,-0.0591043069 14.2738827,0.0472137864 C15.0691492,0.31904982 15.4416623,1.15147216 15.7296248,1.95731499 C15.9036276,2.44299537 16.0335171,3.3515318 16.537145,3.4880539 C17.9806334,3.58833119 19.0650877,3.76834705 19.7598737,3.99185668 C20.1127809,4.08730133 20.3149673,4.28302328 20.1115555,4.59835308 C19.4976441,5.55038327 18.1938481,6.42750754 16.2589855,6.99534281 C16.1266453,8.41009835 15.9538679,9.81398045 15.789668,10.1232694 C15.2713356,11.1018792 14.0667948,12.0418278 12.7286884,12.3631984 C12.1368337,12.4550185 11.8635757,12.4550185 11.2717209,12.3631984 C9.93361455,12.0418278 8.72907374,11.1018792 8.20951595,10.1232694 C7.91175052,9.56026682 7.70098651,8.52970621 7.57599855,7.487064 C10.3649455,7.9630791 14.8191733,7.0231305 14.8191733,7.0231305 C11.2643687,7.55713728 7.50860309,6.90956344 7.50860309,6.90956344 L7.50860309,6.91802056 Z"></path>
            </g>
        </g>
    </g>
</svg>