<?xml version="1.0" encoding="UTF-8" standalone="no"?>
<svg width="141px" height="110px" viewBox="0 0 141 110" version="1.1" xmlns="http://www.w3.org/2000/svg" xmlns:xlink="http://www.w3.org/1999/xlink">
    <!-- Generator: Sketch 42 (36781) - http://www.bohemiancoding.com/sketch -->
    <title>rural-school</title>
    <desc>Created with Sketch.</desc>
    <defs></defs>
    <g id="Stories" stroke="none" stroke-width="1" fill="none" fill-rule="evenodd">
        <g id="Desktop-HD" transform="translate(-2385.000000, -242.000000)" fill="#FEFEFE">
            <g id="rural-school" transform="translate(2385.000000, 242.000000)">
                <path d="M49.5274121,90.8518222 C49.4762802,89.2324889 48.8301593,88.0440444 48.3436319,87.3751556 C47.5518626,88.0984889 46.067489,86.9100444 45.0417527,86.6144889 C45.9869176,87.3269333 47.1614011,88.6444889 47.3643791,90.8518222 L49.5274121,90.8518222 Z" id="Fill-1"></path>
                <polygon id="Fill-3" points="66.1884989 90.9490444 69.7227956 94.1021556 76.4365648 87.3619333 75.3411033 86.2621556 69.6592681 91.9663778 66.2210374 88.8988222 61.0598176 93.2154889 62.0530154 94.4101556"></polygon>
                <path d="M43.4202527,100.470289 C43.6495714,100.470289 43.7285934,100.355178 43.7595824,100.090733 C43.8060659,99.6676222 43.8525495,99.0314 43.8587473,98.6051778 C43.8649451,98.4636222 43.8417033,98.4278444 43.7347912,98.3702889 C43.5891429,98.3034 43.5937912,98.3158444 43.4465934,98.2551778 L43.4187033,94.4347333 C43.4341978,94.3087333 43.4496923,94.1858444 43.4636374,94.0598444 L43.9904505,91.1105111 L44.4165495,91.1867333 L44.0803187,93.0658444 L45.150989,92.9102889 L45.512011,90.8522889 L46.6152198,90.8522889 C46.340967,88.2047333 44.4878242,87.0551778 43.8014176,86.7176222 C43.6883077,86.7596222 43.5937912,86.8327333 43.4884286,86.8887333 C41.7390989,84.4138444 38.1877582,79.9011778 33.2465604,76.1709556 C35.0749121,76.8569556 38.1273297,78.4996222 42.2535165,82.3636222 C41.3904725,82.6218444 40.9039451,82.8925111 40.9302857,83.1305111 C40.9628242,83.4494 42.0102527,83.6189556 43.5535055,83.6205111 C43.6371758,83.7045111 43.7130989,83.7714 43.7967692,83.8569556 L44.3654176,84.4325111 C44.4211978,84.5802889 44.4754286,84.7311778 44.5374066,84.8338444 C44.8751868,85.4047333 45.6173736,85.9476222 46.4153407,86.1342889 C46.7996044,86.1934 46.8941209,86.1934 47.2706374,86.1342889 C48.0484615,85.9476222 48.7286703,85.4047333 48.9998242,84.8338444 C49.1764615,84.4636222 49.2678791,83.7480667 49.2973187,83.0682889 C51.1535604,82.7151778 52.421011,82.2656222 52.3791758,81.9047333 C52.3450879,81.5734 51.3658352,81.3805111 49.7265165,81.3914 C49.4522637,81.4085111 49.2585824,81.2996222 49.2012527,80.9807333 L49.085044,79.9976222 C48.9703846,78.9974 46.3006813,78.9896222 44.7822198,79.5651778 C45.1726813,74.0476222 45.4562308,68.5176222 45.5491978,63.0700667 L45.4143956,62.7527333 C28.7252637,47.3465111 23.9188681,37.6180667 22.5522527,33.6482889 C29.9477802,43.5462889 38.7052747,51.2742889 44.9077253,56.1120667 L45.5894835,56.6425111 L45.5848352,55.7760667 C45.4872198,42.6845111 44.5033187,30.1156222 42.6563736,18.3836222 C44.2600549,20.9907333 47.4519231,27.2487333 50.1557143,39.1378444 L50.2982637,39.7662889 L50.8157802,39.3805111 C54.7451868,36.4420667 61.9594286,30.5154 68.041022,22.5618444 C66.7270879,25.8425111 62.8147253,32.7958444 51.2558242,43.3767333 L51.0807363,43.5369556 C52.716956,52.0225111 53.8201648,61.4631778 54.4043077,71.8309556 L54.4476923,72.6211778 L55.0767692,72.1420667 C61.9206923,66.9200667 74.699011,56.2287333 85.115967,42.1198444 C83.6997692,46.7382889 77.942011,59.5762889 54.9218242,80.6120667 L54.7839231,80.9340667 C54.8784396,84.3951778 54.8985824,87.9978444 54.8846374,91.6596222 C53.8496044,91.6969556 52.813022,91.7374 51.7686923,91.7560667 C51.1070769,90.5085111 50.4268681,89.0447333 49.5173407,87.8749556 C49.9635824,88.7507333 50.3447473,89.9547333 50.2688242,91.4309556 L45.9938901,91.4309556 L45.6483626,93.4205111 L43.9718571,93.6662889 L43.8479011,94.3522889 L43.8757912,97.9580667 C43.9718571,98.0000667 43.9455165,97.9922889 44.0508791,98.0591778 C44.335978,98.2396222 44.2956923,98.5025111 44.2848462,98.8214 L44.1856813,100.140511 C44.1360989,100.633622 43.8912857,100.901178 43.4388462,100.904289 C43.3505275,100.905844 43.2544615,100.904289 43.1490989,100.899622 L42.9182308,105.850956 L42.6005934,105.861844 L42.705956,110 L41.1952418,110 C41.5764066,107.858 42.0985714,104.366956 42.6486264,100.422067 C42.9290769,100.451622 43.2064286,100.471844 43.4202527,100.470289 Z M31.3174945,68.3667333 C32.0426374,65.6460667 34.3296264,63.9769556 35.1926703,63.4309556 C36.4926593,65.6305111 36.9094615,67.7616222 36.4275824,69.7714 C35.7566703,72.5854 33.4851758,74.4256222 32.6159341,75.0431778 C31.2043846,72.6647333 30.7674396,70.4216222 31.3174945,68.3667333 Z M16.0166703,82.5580667 C17.7288132,78.8402889 20.0932747,76.4416222 23.0511758,75.4274 C26.2864286,74.3198444 29.4875934,75.1318444 31.2384725,75.7789556 C31.5483626,75.9889556 31.8381099,76.2129556 32.1387033,76.4291778 C30.5598132,79.7254 28.3595934,81.9296222 25.5798791,82.9671778 C21.4908791,84.4962889 17.2763736,83.0620667 16.0166703,82.5580667 Z M23.4106484,60.3494 C24.0087363,57.1356222 25.3660549,54.8085111 27.4516154,53.4271778 C29.6069011,52.0007333 32.0891209,51.8949556 33.6292747,52.0100667 C33.9097253,52.3289556 34.1963736,52.6494 34.4907692,52.9760667 C33.8616923,55.5054 32.6794615,57.4607333 30.8913956,58.7145111 C28.0713956,60.6931778 24.5882308,60.4847333 23.4106484,60.3494 Z M14.0318242,49.6751778 C15.1257363,46.3960667 16.8905604,44.1576222 19.2798132,43.0220667 C21.8999341,41.7760667 24.6765495,42.1462889 26.2213516,42.5211778 C26.4134835,42.8120667 26.6118132,43.1060667 26.820989,43.4078444 C25.7906044,46.0771778 24.2225604,48.0076222 22.106011,49.0840667 C18.8475165,50.7407333 15.2125055,49.9940667 14.0318242,49.6751778 Z M1.14969231,39.4691778 C3.94954945,35.0342889 7.35834066,32.3960667 11.2861978,31.6245111 C15.5952198,30.7798444 19.5292747,32.4007333 21.603989,33.5176222 C21.7465385,33.9765111 21.9355714,34.5178444 22.1881319,35.1447333 C19.7074615,38.6882889 16.6968791,40.9080667 13.1997692,41.6920667 C7.67132967,42.9318444 2.51475824,40.2609556 1.14969231,39.4691778 Z M24.9848901,21.7685111 C26.3577033,23.8747333 26.8612747,25.9560667 26.4754615,27.9549556 C25.9858352,30.4998444 24.1776264,32.2980667 23.2231648,33.0945111 C22.7970659,32.5251778 22.3601209,31.9729556 21.9448681,31.3880667 L21.8921868,31.3134 C21.2460659,29.7500667 21.0678791,28.2396222 21.383967,26.7976222 C21.9805055,24.0909556 24.1528352,22.3487333 24.9848901,21.7685111 Z M33.3596703,10.8407333 C37.0613077,12.4507333 39.964978,15.5634 42.0551868,20.0480667 C42.1915385,20.9502889 42.3201429,21.8602889 42.4456484,22.7734 C40.0734396,23.4454 34.1096044,24.6774 28.5734176,22.0920667 C24.375956,20.1305111 21.2569121,16.3816222 19.299956,10.9449556 C20.8618022,10.3429556 27.2734286,8.19628889 33.3596703,10.8407333 Z M41.4617473,17.1189556 C41.5190769,17.2029556 41.5810549,17.2869556 41.6399341,17.3694 C41.643033,17.3927333 41.6476813,17.4160667 41.6492308,17.4394 C41.5872527,17.3336222 41.5252747,17.2247333 41.4617473,17.1189556 Z M31.6614725,43.0329556 C31.5762527,41.4245111 31.9326264,40.1147333 32.7507363,39.1487333 C33.8430989,37.8591778 35.4793187,37.4811778 36.2230549,37.3722889 C36.3423626,38.9480667 35.9952857,40.2547333 35.1911209,41.2565111 C34.1638352,42.5367333 32.6407253,43.0205111 31.8257143,43.2009556 C31.7699341,43.1449556 31.7157033,43.0905111 31.6614725,43.0329556 Z M43.6914066,33.7727333 C41.956022,34.3576222 40.3616374,34.3778444 38.9578352,33.7758444 C36.8877692,32.8938444 35.7427253,30.9338444 35.3352198,30.1078444 C37.3711978,29.3316222 39.1763077,29.2880667 40.7056154,29.9927333 C42.1559011,30.6569556 43.066978,31.8531778 43.5968901,32.7756222 C43.6294286,33.1085111 43.6604176,33.4382889 43.6914066,33.7727333 Z M34.6116264,29.4934 L34.2366593,29.6520667 L34.3823077,30.0316222 C34.4318901,30.1638444 35.6482088,33.2749556 38.6216044,34.5474 C39.4428132,34.8989556 40.3105055,35.0747333 41.2246813,35.0747333 C42.0365934,35.0747333 42.8918901,34.9114 43.771978,34.6314 C44.3390769,41.2114 44.666011,47.9842889 44.7388352,54.9096222 C41.1828462,52.1002889 36.8707253,48.3654 32.4966264,43.8931778 C33.465033,43.6178444 34.8285495,43.0454 35.8372418,41.7916222 C36.862978,40.5176222 37.2580879,38.8594 37.0132747,36.8589556 L36.9667912,36.4762889 L36.5825275,36.4887333 C36.470967,36.4934 33.8059121,36.6116222 32.1185604,38.5965111 C31.3159451,39.5407333 30.909989,40.7602889 30.8433626,42.1882889 C28.4215714,39.6107333 26.023022,36.7858444 23.7298352,33.7696222 C24.7617692,32.9265111 26.741967,30.9851778 27.2966703,28.1229556 C27.7243187,25.9171778 27.1835604,23.6460667 25.710033,21.3656222 C26.5049011,21.9287333 27.3323077,22.4389556 28.2185934,22.8542889 C30.9223846,24.1158444 33.6881538,24.5218444 36.126989,24.5218444 C38.8958571,24.5218444 41.2122857,24.0054 42.5587582,23.6227333 C42.8872418,26.0851778 43.1862857,28.5740667 43.4419451,31.1018444 C42.8531538,30.3956222 42.0861758,29.7018444 41.0635385,29.2305111 C39.2103956,28.3765111 37.0411648,28.4651778 34.6116264,29.4934 Z M44.4335934,1.70028889 C46.4773187,4.41162222 47.3310659,7.16495556 46.9746923,9.88406667 C46.4664725,13.7636222 43.6015385,16.5185111 42.6362308,17.3491778 C40.4220659,14.4154 39.5218352,11.5174 39.964978,8.7314 C40.559967,4.96851111 43.4651868,2.44695556 44.4335934,1.70028889 Z M57.3188242,10.2465111 L57.4257363,10.2465111 C57.387,14.0965111 56.2543516,17.1516222 54.0556813,19.3309556 C51.3906264,21.9785111 47.8098462,22.6894 45.9226154,22.8854 C45.6499121,22.2647333 45.3896044,21.7000667 45.1354945,21.1758444 C45.4593297,17.8765111 46.5981758,15.2554 48.5706264,13.3996222 C51.6462857,10.5078444 55.8855824,10.2465111 57.3188242,10.2465111 Z M59.5841209,30.7642889 C56.2311099,34.0294 53.077978,36.6100667 50.8266264,38.3180667 C49.3236593,31.8516222 47.6998352,27.1056222 46.2712418,23.7051778 C48.3351099,23.4609556 51.8957473,22.6567333 54.6398242,19.9360667 C54.9373187,19.6420667 55.2115714,19.3325111 55.4718791,19.0105111 C54.9760549,20.2580667 54.1409011,23.0440667 55.1604396,25.9047333 C55.8716374,27.9005111 57.369956,29.5229556 59.5841209,30.7642889 Z M61.1800549,23.7736222 C61.8928022,25.6076222 61.7719451,27.4727333 61.4976923,28.8509556 C61.0622967,29.3020667 60.6330989,29.7174 60.2023516,30.1451778 C58.0548132,28.9925111 56.6153736,27.4836222 55.9522088,25.6278444 C54.959011,22.8511778 55.9429121,20.0465111 56.3566154,19.0774 C58.7768571,20.1834 60.3991319,21.7622889 61.1800549,23.7736222 Z M65.9182747,12.7556222 C67.6381648,13.8149556 68.7181319,15.1574 69.1333846,16.7456222 C69.3952418,17.7458444 69.3456593,18.7118444 69.1938132,19.5642889 L68.7692637,20.1569556 C68.464022,20.5894 68.1386374,20.9907333 67.8240989,21.4122889 C66.3598681,20.3545111 65.406956,19.1131778 65.0722747,17.6789556 C64.5702527,15.5354 65.4906264,13.5302889 65.9182747,12.7556222 Z M87.6524176,17.6509556 C85.3514835,21.3220667 82.467956,23.5807333 79.0777582,24.3616222 C74.7594396,25.3571778 70.7076264,23.6958444 68.9195604,22.7858444 L68.979989,22.6847333 C69.0218242,22.6147333 69.6013187,21.6145111 69.9329011,20.1896222 C72.0773407,17.5778444 74.5471648,15.9507333 77.3175824,15.3907333 C82.123978,14.4154 86.4593407,16.8887333 87.6524176,17.6509556 Z M62.0322527,50.7920667 C61.3675385,52.6976222 60.2953187,54.0400667 58.8403846,54.7820667 C56.8694835,55.7885111 54.6847582,55.4400667 53.7643846,55.2191778 L53.7504396,55.1149556 C54.4709341,53.1036222 55.584989,51.7160667 57.0771099,51.0036222 C59.0511099,50.0625111 61.1893516,50.5369556 62.0322527,50.7920667 Z M64.7964725,42.2691778 C68.4795165,43.4949556 70.9911758,45.4829556 72.2648242,48.1787333 C73.4315604,50.6474 73.3277473,53.2451778 73.0178571,55.0465111 C72.5173846,55.5645111 72.0169121,56.0778444 71.5210879,56.5787333 C68.6778462,55.4229556 66.6201758,53.6931778 65.4518901,51.3847333 C63.5786044,47.6825111 64.4524945,43.5462889 64.7964725,42.2691778 Z M77.8273516,29.8325111 C80.9835824,31.8656222 82.9172967,34.3934 83.5773626,37.3536222 C84.036,39.4116222 83.8051319,41.3934 83.3728352,43.0329556 C82.5795165,44.0751778 81.7722527,45.0956222 80.9587912,46.0958444 C78.1155495,44.0347333 76.3786154,41.6034 75.8378571,38.8376222 C75.0259451,34.6780667 77.1300989,30.9307333 77.8273516,29.8325111 Z M92.2744286,39.3571778 C97.4015604,38.3585111 101.994132,41.0278444 103.222846,41.8274 C100.762319,45.7100667 97.6913077,48.0869556 94.0888352,48.8958444 C89.8898242,49.8431778 85.9604176,48.4182889 83.8748571,47.4211778 C84.7843846,45.5996222 85.3685275,44.1265111 85.7419451,42.9971778 C87.7066484,41.0822889 89.8805275,39.8285111 92.2744286,39.3571778 Z M86.1881868,41.4571778 C86.2191758,41.3218444 86.2470659,41.2005111 86.2687582,41.0869556 C86.4206044,41.0496222 86.6096374,40.9936222 86.8358571,40.9220667 C86.6142857,41.0838444 86.402011,41.2782889 86.1881868,41.4571778 Z M91.3246154,32.3494 C91.6577473,34.3436222 91.3618022,36.0376222 90.4445275,37.3925111 C89.283989,39.1067333 87.3983077,39.8720667 86.4097582,40.1738444 L86.5135714,38.7380667 L86.0704286,39.3587333 C85.9263297,37.6040667 86.243967,36.1076222 87.0853187,34.9347333 C88.3620659,33.1551778 90.4646703,32.5345111 91.3246154,32.3494 Z M91.3137692,72.8436222 C86.8482527,75.6405111 82.4973956,76.5754 78.3743077,75.6094 C73.2347802,74.4100667 69.7655604,70.5771778 68.2625934,68.6078444 C69.0342198,67.7740667 69.7733077,66.9589556 70.4798571,66.1640667 C74.2558681,64.3985111 77.862989,63.9318444 81.2314945,64.8122889 C87.0667253,66.3414 90.491011,71.4778444 91.3137692,72.8436222 Z M65.582044,73.3865111 C65.6517692,72.1685111 66.1398462,71.1169556 66.6496154,70.3267333 C66.9966923,69.9642889 67.3437692,69.5987333 67.6784505,69.2409556 C67.803956,69.4074 67.9248132,69.5645111 68.0751099,69.7480667 C69.0202747,71.0687333 69.4727143,72.4018444 69.3611538,73.7271778 C69.1938132,75.7198444 67.8535385,77.2007333 67.2477033,77.7731778 C66.0546264,76.3607333 65.4952747,74.8860667 65.582044,73.3865111 Z M49.037011,92.6800667 L49.8954066,92.6800667 L49.8954066,92.0640667 L49.037011,92.0640667 L49.037011,92.6800667 Z M46.5625385,92.6800667 L47.4224835,92.6800667 L47.4224835,92.0640667 L46.5625385,92.0640667 L46.5625385,92.6800667 Z M46.1519341,110 C46.1302418,109.975111 46.1100989,109.592067 46.0853077,109.581178 L45.7552747,109.4614 L46.4540769,105.844733 L46.2030659,105.847844 L46.7391758,101.604289 L46.9158132,101.6074 L46.7484725,110 L46.1519341,110 Z M50.9102967,110 C50.8777582,109.968889 50.8436703,109.584289 50.8033846,109.570289 L49.7528571,109.266956 L49.7575055,109.128511 L50.4082747,105.861844 L49.8845604,105.844733 L49.9573846,103.9594 C50.1200769,99.6956222 50.460956,96.6405111 50.4795495,92.1589556 L50.7507033,94.5342889 L54.879989,93.5014 C54.8350549,98.7187333 54.6940549,104.459111 54.4492418,110 L50.9102967,110 Z M56.197022,93.1716222 C56.4061978,93.1856222 56.682,93.1451778 56.9717473,93.1094 L56.9717473,100.7814 L64.4013626,100.7814 L61.5333297,110 L55.2859451,110 C55.5354066,104.386 55.6748571,98.5756222 55.7182418,93.2914 L56.197022,93.1716222 Z M79.1924176,82.4834 L79.1924176,99.9398444 L72.3283516,99.9398444 L71.174011,99.9398444 L65.8284066,99.9398444 L64.6740659,99.9398444 L57.81,99.9398444 L57.81,93.0565111 C58.3972418,93.0534 58.7923516,93.0658444 58.7567143,92.5198444 C58.7210769,92.0298444 58.3337143,91.6394 57.81,91.4776222 L57.81,82.4834 L79.1924176,82.4834 Z M74.3147473,110 L62.6876703,110 L65.5557033,100.7814 L71.4467143,100.7814 L74.3147473,110 Z M102.973385,107.353622 C103.511044,108.198289 104.178857,109.298444 104.890055,110 L100.495813,110 C100.563989,109.922222 100.629066,109.490956 100.725132,109.4334 C101.564934,108.842289 102.335011,108.1594 102.973385,107.353622 Z M123.027923,105.297178 C124.093945,106.737622 125.132077,108.550222 126.185703,110 L119.286,110 C119.242615,109.648444 119.211626,108.944956 119.298396,108.604289 C120.472879,107.426733 121.799209,106.412511 123.027923,105.297178 Z M120.218769,101.456511 C120.066923,101.006956 120.207923,100.8374 120.643319,100.943178 C120.792066,101.3834 120.649516,101.556067 120.218769,101.456511 Z M127.693319,104.497622 C126.495593,103.674733 125.500846,102.593622 124.61456,101.445622 C125.762703,101.346067 126.912396,101.316511 128.062088,101.2294 C127.94278,102.3214 127.828121,103.410289 127.693319,104.497622 Z M131.424396,94.4907333 C131.410451,94.4362889 131.391857,94.3834 131.376363,94.3305111 C131.396505,94.3460667 131.438341,94.3398444 131.453835,94.3600667 C131.450736,94.4051778 131.432143,94.4456222 131.424396,94.4907333 Z M131.498769,110 C133.059066,107.870444 133.861681,104.838289 133.700538,102.203178 C133.308527,100.194956 132.062769,98.5149556 131.01844,96.7976222 C131.334527,96.3418444 131.52356,95.7911778 131.52356,95.1954 C132.549297,94.7302889 133.305429,94.3522889 133.708286,93.8794 C133.844637,93.7160667 133.750121,93.5885111 133.559538,93.5076222 C133.18922,93.3256222 132.59733,93.1389556 131.800912,92.9678444 C131.529758,92.8496222 131.529758,92.3238444 131.470879,92.0314 C131.373264,91.5522889 131.232264,91.0498444 130.807714,90.8320667 C130.645022,90.7480667 130.352176,90.7558444 130.102714,90.8056222 C129.851703,90.8554 129.676615,90.8740667 129.507725,90.8491778 C129.340385,90.8258444 129.177692,90.7605111 128.946824,90.6422889 C128.722154,90.5256222 128.443253,90.4369556 128.261967,90.4727333 C127.795582,90.5645111 127.51978,91.0078444 127.296659,91.4449556 C127.160308,91.7047333 127.016209,92.2134 126.723363,92.2507333 C125.909901,92.1947333 125.290121,92.2118444 124.884165,92.2834 C124.678088,92.3098444 124.549484,92.4062889 124.639352,92.6007333 C124.867121,93.1062889 125.398582,93.6165111 126.195,94.0520667 C126.036956,94.4020667 125.947088,94.7878444 125.947088,95.1954 C125.947088,96.4958444 126.833374,97.5785111 128.029549,97.8927333 C126.404176,98.3531778 124.710626,98.2007333 123.055813,98.0311778 C121.335923,98.2240667 119.569549,98.7965111 118.167297,99.8309556 C117.90544,100.608733 117.722604,101.416067 117.594,102.224956 C118.109967,102.971622 119.036538,102.613844 119.698154,102.324511 C118.960615,103.176956 118.13011,103.953178 117.442154,104.850733 C117.105923,105.342289 117.322846,105.944289 117.350736,106.490289 C116.514033,107.594733 115.200099,107.999178 113.920253,108.346067 C113.946593,108.685178 113.974484,109.653111 114.002374,110 C113.825736,110.087111 113.649099,109.909778 113.474011,110 L111.597626,110 C111.930758,108.802222 112.266989,107.254067 112.643505,106.070289 C112.784505,105.297178 112.894516,104.500733 112.858879,103.713622 C112.581527,102.422511 111.826945,101.304067 111.104901,100.226067 C111.489165,99.6769556 111.760319,99.0345111 111.760319,98.3251778 C111.760319,96.7789556 110.511462,95.5251778 108.971308,95.5251778 C107.431154,95.5251778 106.182297,96.7789556 106.182297,98.3251778 C106.182297,99.2787333 106.659527,100.117178 107.381571,100.622733 C105.987066,101.778511 100.119297,104.713844 98.7960659,105.339178 C98.5171648,106.235178 98.5311099,107.1934 99.0501758,108.000733 C98.3312308,108.5654 97.6417253,109.538 96.8468571,110 L75.4706374,110 L72.6010549,100.7814 L80.0306703,100.7814 L80.0306703,81.6418444 L56.9717473,81.6418444 L56.9717473,91.4325111 C56.7858132,91.4698444 56.6107253,91.5289556 56.4526813,91.6129556 C56.210967,91.6222889 55.9677033,91.6269556 55.7228901,91.6362889 C55.7368352,88.0398444 55.7182418,84.5056222 55.6283736,81.1036222 C59.1192857,77.9100667 62.2011429,74.9156222 64.9452198,72.1016222 C64.8414066,72.4874 64.7701319,72.8980667 64.7453407,73.3289556 C64.6353297,75.1769556 65.362022,76.9689556 66.9006264,78.6505111 L67.1609341,78.9351778 L67.4661758,78.6987333 C67.5668901,78.6209556 69.9437473,76.7496222 70.1947582,73.8065111 C70.2520879,73.1376222 70.1544725,72.4702889 69.984033,71.8076222 C71.9146484,73.6494 74.6618242,75.6062889 78.1775275,76.4276222 C79.2946813,76.6889556 80.4288791,76.8196222 81.5723736,76.8196222 C84.992011,76.8196222 88.5216593,75.6545111 92.1055385,73.3367333 L92.2496374,72.7845111 C92.0993407,72.5045111 88.5278571,65.8591778 81.4515165,64.0002889 C78.3727582,63.1945111 75.122011,63.4511778 71.7442088,64.7205111 C77.8366484,57.6769556 81.405033,52.1734 83.4843956,48.1849556 C85.1609011,48.9938444 87.9607582,50.0516222 91.2053077,50.0516222 C92.1923077,50.0516222 93.2195934,49.9536222 94.2654725,49.7187333 C98.2026264,48.8382889 101.529297,46.2156222 104.149418,41.9269556 L104.350846,41.5971778 L104.040956,41.3669556 C103.816286,41.2005111 98.4551868,37.2836222 92.1225824,38.5311778 C91.3618022,38.6805111 90.632011,38.9216222 89.9130659,39.2062889 C90.350011,38.8298444 90.773011,38.4020667 91.1324835,37.8731778 C92.2480879,36.2320667 92.5641758,34.1802889 92.0714505,31.7769556 L91.993978,31.3989556 C91.4764615,31.4596222 88.2598022,31.8671778 86.4097582,34.4369556 C85.2941538,35.9862889 84.961022,37.9882889 85.353033,40.3589556 C85.084978,40.7307333 84.8122747,41.0962889 84.5411209,41.4649556 C84.7177582,40.1380667 84.7317033,38.6867333 84.3954725,37.1778444 C83.6641319,33.8785111 81.4856044,31.0940667 77.9265165,28.9007333 L77.3687143,29.0111778 C77.2292637,29.1994 73.9847143,33.6918444 75.0150989,38.9916222 C75.5914945,41.9642889 77.4244945,44.5620667 80.4242308,46.7491778 C78.3154286,49.3111778 76.1601429,51.7347333 74.0110549,54.0027333 C74.1768462,52.2185111 74.0513407,49.9987333 73.0256044,47.8256222 C71.6032088,44.8062889 68.7801099,42.6238444 64.639978,41.3358444 L64.1193626,41.6018444 C64.0465385,41.8196222 62.3065055,47.0151778 64.7004066,51.7580667 C65.9182747,54.1691778 68.0038352,55.9922889 70.8718681,57.2258444 C64.8476044,63.2287333 59.1549231,67.9374 55.1960769,70.9909556 C54.8861868,65.7814 54.443044,60.8145111 53.8759451,56.1120667 C54.3655714,56.2116222 55.0287363,56.3096222 55.7972637,56.3096222 C56.8353956,56.3096222 58.0470659,56.1291778 59.2122527,55.5365111 C60.9770769,54.6374 62.2398791,52.9947333 62.9603736,50.6520667 L63.075033,50.2834 C62.5916044,50.0874 59.5779231,48.8880667 56.7238352,50.2398444 C55.3758132,50.8807333 54.3376813,52.0334 53.5567582,53.5765111 C53.1043187,50.1776222 52.5837033,46.9249556 51.9933626,43.8402889 C62.837967,33.8831778 66.9765495,27.1554 68.556989,23.5542889 C70.0274176,24.3118444 72.8908022,25.5158444 76.2779011,25.5158444 C77.2385604,25.5158444 78.2395055,25.4178444 79.2574945,25.1829556 C82.9854725,24.3258444 86.1215604,21.8245111 88.5805385,17.7442889 L88.7773187,17.4145111 L88.4674286,17.1858444 C88.2536044,17.0302889 83.1481648,13.3560667 77.1595385,14.5647333 C74.5611099,15.0905111 72.2183407,16.4749556 70.1498242,18.6589556 C70.1808132,17.9885111 70.1358791,17.2745111 69.9452967,16.5402889 C69.4463736,14.6145111 68.1107473,13.0231778 65.9787033,11.8145111 L65.4255495,11.9436222 C65.3480769,12.0571778 63.5352198,14.7669556 64.2526154,17.8625111 C64.6322308,19.4989556 65.7044505,20.8927333 67.3298242,22.0687333 C65.7617802,24.1142889 64.1317582,26.0245111 62.4908901,27.7838444 C62.6117473,26.4911778 62.5513187,24.9947333 61.9640769,23.4749556 C61.0607473,21.1385111 59.158022,19.3434 56.3085824,18.1394 C57.5806813,15.8698444 58.2965275,13.1134 58.263989,9.83584444 L58.2593407,9.45006667 C57.638011,9.40495556 52.011956,9.01451111 48.0035275,12.7789556 C46.1286923,14.5398444 44.9774505,16.9400667 44.4847253,19.8769556 C44.0462308,19.0462889 43.6573187,18.3805111 43.3303846,17.8594 C44.4847253,16.8529556 47.2690879,14.0545111 47.8051978,10.0022889 C48.2096044,6.93784444 47.2133077,3.86251111 44.8441978,0.858733333 L44.6055824,0.5554 C44.1051099,0.886733333 39.9138462,3.71628889 39.1375714,8.58984444 C38.7347143,11.1300667 39.3622418,13.7325111 40.9659231,16.3520667 C39.0105165,13.4416222 36.5856264,11.3276222 33.6928022,10.0691778 C26.4026374,6.90051111 18.9156923,10.1796222 18.5996044,10.3211778 L18.3749341,10.8438444 C19.8701538,15.1745111 22.0734725,18.5034 24.9337582,20.7994 C24.7478242,20.9082889 21.3901648,22.8900667 20.5674066,26.6078444 C20.1955385,28.2894 20.414011,30.0409556 21.2042308,31.8376222 C21.2212747,31.9636222 21.2522637,32.1549556 21.3095934,32.4085111 C19.0164066,31.2776222 15.2822308,29.9834 11.1328022,30.7969556 C6.85631868,31.6338444 3.18257143,34.5256222 0.212274725,39.3898444 L0,39.7367333 L0.33778022,39.9607333 C0.550054945,40.1007333 4.8032967,42.8634 10.1643956,42.8634 C11.1994286,42.8634 12.2778462,42.7607333 13.3748571,42.5149556 C16.9463407,41.7169556 20.0266484,39.5314 22.5754945,36.0562889 C23.2231648,37.5122889 24.1745275,39.3322889 25.5674835,41.5178444 C23.8444945,41.2114 21.3545275,41.1056222 18.9280879,42.2567333 C16.2165495,43.5447333 14.2564945,46.0927333 13.1006044,49.8338444 L12.9812967,50.2227333 C13.4817692,50.3969556 15.1861648,50.9740667 17.4483626,50.9740667 C18.9792198,50.9740667 20.7610879,50.7096222 22.4778791,49.8369556 C24.6502088,48.7340667 26.2817802,46.8347333 27.3927363,44.2307333 C28.8476703,46.2762889 30.6403846,48.5769556 32.853,51.1296222 C31.2121319,51.1094 29.0041648,51.3925111 26.9976264,52.7194 C24.613022,54.2951778 23.1038571,56.9582889 22.5104176,60.6371778 L22.4453407,61.0400667 C22.9241209,61.1318444 23.7267363,61.2827333 24.9027692,61.2827333 C26.6273077,61.2827333 29.1498132,60.9591778 31.3655275,59.4098444 C33.2000769,58.1249556 34.4318901,56.1711778 35.1461868,53.6947333 C37.8003956,56.5896222 40.9473297,59.7676222 44.7078462,63.2458444 C44.6102308,68.8131778 44.3235824,74.4645111 43.9145275,80.1002889 C43.7936703,80.2418444 43.7301429,80.3989556 43.7487363,80.5685111 L43.833956,81.3634 C43.8246593,81.4769556 43.820011,81.5936222 43.8107143,81.7071778 C43.7750769,81.8565111 43.7069011,81.9809556 43.569,82.0400667 C38.8044396,77.9100667 35.5428462,76.1351778 33.5456044,75.3947333 C34.6705055,74.5205111 36.5887253,72.6974 37.2425934,69.9767333 C37.8065934,67.6278444 37.2828791,65.1576222 35.690044,62.6329556 L35.483967,62.3062889 C34.9943407,62.5614 31.5080769,64.4171778 30.5086813,68.1411778 C29.9446813,70.2474 30.2964066,72.5060667 31.5561099,74.8674 C31.363978,74.8440667 31.1346593,74.8347333 31.1346593,74.8347333 C29.2086923,74.1751778 26.0447143,73.5125111 22.7877692,74.6278444 C19.4936374,75.7556222 16.8983077,78.4389556 15.0746044,82.6078444 L14.9119121,82.9796222 L15.2775824,83.1554 C15.4340769,83.2300667 18.1394176,84.5040667 21.5745495,84.5040667 C22.9272198,84.5040667 24.3960989,84.3065111 25.864978,83.7589556 C28.8197802,82.6591778 31.1517033,80.3538444 32.822011,76.9254 C37.6346044,80.5778444 41.0976264,84.9645111 42.8051209,87.3771778 C42.7090549,87.4689556 42.6052418,87.5467333 42.520022,87.6478444 C41.2727143,89.1380667 41.4214615,92.2569556 41.1750989,94.2340667 C41.2727143,96.0587333 41.3377912,98.0856222 41.4385055,99.9102889 C41.4787912,100.084511 41.6058462,100.216733 41.7809341,100.314733 C41.2556703,104.343622 40.7242088,107.870444 40.3414945,110 L131.498769,110 Z" id="Fill-5"></path>
            </g>
        </g>
    </g>
</svg>