<?xml version="1.0" encoding="UTF-8" standalone="no"?>
<svg width="158px" height="79px" viewBox="0 0 158 79" version="1.1" xmlns="http://www.w3.org/2000/svg" xmlns:xlink="http://www.w3.org/1999/xlink">
    <!-- Generator: Sketch 42 (36781) - http://www.bohemiancoding.com/sketch -->
    <title>speakers</title>
    <desc>Created with Sketch.</desc>
    <defs></defs>
    <g id="Stories" stroke="none" stroke-width="1" fill="none" fill-rule="evenodd">
        <g id="Desktop-HD" transform="translate(-383.000000, -273.000000)">
            <g id="speakers" transform="translate(383.000000, 273.000000)">
                <g>
                    <polygon id="Stroke-1" stroke="#FFFFFF" stroke-width="1.117" points="81.6968966 48.6333498 128.691 48.6333498 128.691 15.0597959 121.098828 15.0597959 121.098828 9.84547453 119.826655 9.84547453 119.826655 15.0597959 90.5612414 15.0597959 90.5612414 9.84547453 89.289069 9.84547453 89.289069 15.0597959 81.6968966 15.0597959"></polygon>
                    <polygon id="Fill-2" fill="#FFFFFF" points="10.2543362 56.1424881 10.3401466 56.1614838 10.3782845 55.9063986 10.2543362 55.8806188"></polygon>
                    <path d="M0,0 L0,9.81942328 L3.34524138,9.81942328 L3.34524138,79 L4.61741379,79 L4.61741379,9.81942328 L152.948086,9.81942328 L152.948086,79 L154.221621,79 L154.221621,9.81942328 L157.566862,9.81942328 L157.566862,0 L0,0 Z M1.27217241,1.26728497 L156.293328,1.26728497 L156.293328,8.55078147 L154.221621,8.55078147 L3.34524138,8.55078147 L1.27217241,8.55078147 L1.27217241,1.26728497 Z" id="Fill-3" fill="#FFFFFF"></path>
                    <g id="Group-43" transform="translate(32.689655, 37.899847)">
                        <path d="M91.7215879,17.9290759 L77.2673121,17.9290759 C76.534519,17.9290759 75.9352086,17.332068 75.9352086,16.6020901 C75.9352086,15.8734691 76.534519,15.2764612 77.2673121,15.2764612 L91.7215879,15.2764612 C92.454381,15.2764612 93.0536914,15.8734691 93.0536914,16.6020901 C93.0536914,17.332068 92.454381,17.9290759 91.7215879,17.9290759 Z M91.7215879,20.7077407 L77.2673121,20.7077407 C76.534519,20.7077407 75.9352086,20.1120896 75.9352086,19.3821117 C75.9352086,18.6521339 76.534519,18.055126 77.2673121,18.055126 L91.7215879,18.055126 C92.454381,18.055126 93.0536914,18.6521339 93.0536914,19.3821117 C93.0536914,20.1120896 92.454381,20.7077407 91.7215879,20.7077407 Z M91.7215879,23.4869482 L77.2673121,23.4869482 C76.534519,23.4869482 75.9352086,22.8899402 75.9352086,22.1599624 C75.9352086,21.4313414 76.534519,20.8343335 77.2673121,20.8343335 L91.7215879,20.8343335 C92.454381,20.8343335 93.0536914,21.4313414 93.0536914,22.1599624 C93.0536914,22.8899402 92.454381,23.4869482 91.7215879,23.4869482 Z" id="Combined-Shape" stroke="#FFFFFF" stroke-width="1.117"></path>
                        <path d="M9.11033262,18.6851556 L9.11033262,23.8685984 L1.27230862,23.8672693 C0.927705172,23.5185624 0.618515517,23.1223663 0.438722414,22.6311916 C0.129532759,21.775028 0.32567069,20.4751789 0.547687931,19.5837376 L1.85255,13.7262759 C2.31429138,11.8606262 5.75079138,11.365381 7.4833431,10.7900824 C8.89036034,11.9976666 10.523481,11.9949529 11.9277741,10.7792278 C13.6521534,11.3599536 17.1227052,11.8524852 17.5871707,13.7262759 C17.9862569,15.5159428 19.5621707,21.0803279 19.0009983,22.6311916 C18.8511707,23.0436698 18.5651362,23.4848001 18.2109983,23.8701416 L9.37874824,23.8686439 L9.37874824,18.6797469 C10.1047328,18.5980453 10.6738534,17.9798163 10.6738534,17.2357326 L10.6738534,17.2235211 L10.1589914,17.2235211 L10.1589914,16.6170153 L10.6738534,16.6170153 L10.6738534,16.0240779 L10.1589914,16.0240779 L10.1589914,15.4175722 L10.6738534,15.4175722 L10.6738534,15.3415893 C10.6738534,14.5424128 10.0173362,13.8884178 9.21507759,13.8884178 C8.41418103,13.8884178 7.75766379,14.5424128 7.75766379,15.3415893 L7.75766379,15.4175722 L8.27252586,15.4175722 L8.27252586,16.0240779 L7.75766379,16.0240779 L7.75766379,16.6170153 L8.27252586,16.6170153 L8.27252586,17.2235211 L7.75766379,17.2235211 L7.75766379,17.2357326 C7.75766379,17.9997762 8.35772701,18.6311225 9.11033262,18.6851556 Z M9.62097414,10.7771925 C7.67866379,10.7771925 6.08912931,9.1937647 6.08912931,7.25891634 L6.08912931,3.59410188 C6.08912931,1.65789668 7.67866379,0.0758257175 9.62097414,0.0758257175 C11.5632845,0.0758257175 13.1514569,1.65789668 13.1514569,3.59410188 L13.1514569,7.25891634 C13.1514569,9.1937647 11.5632845,10.7771925 9.62097414,10.7771925 Z" id="Combined-Shape" fill="#FFFFFF"></path>
                        <path d="M24.0756586,22.8576475 L24.0756586,14.1413321" id="Fill-15" fill="#FFFFFF"></path>
                        <path d="M33.7103387,18.684962 L33.7103387,23.8672693 L25.407081,23.8672693 C25.0624776,23.5185624 24.7519259,23.1223663 24.5734948,22.6311916 C24.2629431,21.775028 24.4604431,20.4751789 24.6824603,19.5837376 L25.9859603,13.7262759 C26.4490638,11.8606262 29.8855638,11.365381 31.6181155,10.7900824 C33.0251328,11.9976666 34.6582534,11.9949529 36.0611845,10.7792278 C37.7869259,11.3599536 41.2561155,11.8524852 41.7219431,13.7262759 C42.1210293,15.5159428 43.6969431,21.0803279 43.1344086,22.6311916 C42.984581,23.0436698 42.6985466,23.4819279 42.3457707,23.8672693 L33.9787543,23.8672693 L33.9787543,18.6800441 C34.7060096,18.5995564 35.2765223,17.9807258 35.2765223,17.2357326 L35.2765223,17.2235211 L34.7616602,17.2235211 L34.7616602,16.6170153 L35.2765223,16.6170153 L35.2765223,16.0240779 L34.7616602,16.0240779 L34.7616602,15.4175722 L35.2765223,15.4175722 L35.2765223,15.3415893 C35.2765223,14.5424128 34.620005,13.8884178 33.8177464,13.8884178 C33.0168499,13.8884178 32.3603326,14.5424128 32.3603326,15.3415893 L32.3603326,15.4175722 L32.8751947,15.4175722 L32.8751947,16.0240779 L32.3603326,16.0240779 L32.3603326,16.6170153 L32.8751947,16.6170153 L32.8751947,17.2235211 L32.3603326,17.2235211 L32.3603326,17.2357326 C32.3603326,17.9988749 32.958981,18.6296328 33.7103387,18.684962 Z M33.9027138,0.0755543503 C37.5162828,0.0267082486 39.5389552,6.02256723 39.0635931,8.10666757 C38.588231,10.1921247 37.0668,10.2857464 37.0668,10.2857464 L35.6488862,10.2463982 C35.1258517,10.5530432 34.5510586,10.7769211 33.9027138,10.7769211 C33.2530069,10.7769211 32.6754897,10.5516863 32.1510931,10.2436845 L30.5996966,10.2857464 C30.5996966,10.2857464 29.0782655,10.1921247 28.6029034,8.10666757 C28.1275414,6.02256723 30.1938,0.125757288 33.9027138,0.0755543503 Z" id="Combined-Shape" fill="#FFFFFF"></path>
                        <path d="M57.6603509,18.6877806 L57.6603509,23.8672693 L49.1069448,23.8672693 C48.7623414,23.5185624 48.4517897,23.1223663 48.2733586,22.6311916 C47.9628069,21.775028 48.1603069,20.4751789 48.3823241,19.5837376 L49.6858241,13.7262759 C50.1489276,11.8606262 53.5854276,11.365381 55.3179793,10.7900824 C56.7249966,11.9976666 58.3581172,11.9949529 59.7610483,10.7792278 C61.4867897,11.3599536 64.9573414,11.8524852 65.4218069,13.7262759 C65.8208931,15.5159428 67.3968069,21.0803279 66.8342724,22.6311916 C66.6844448,23.0436698 66.3984103,23.4819279 66.0456345,23.8672693 L57.9287666,23.8672693 L57.9287666,18.6736322 C58.6320073,18.5709884 59.1765467,17.9635699 59.1765467,17.2357326 L59.1765467,17.2235211 L58.6616846,17.2235211 L58.6616846,16.6170153 L59.1765467,16.6170153 L59.1765467,16.0240779 L58.6616846,16.0240779 L58.6616846,15.4175722 L59.1765467,15.4175722 L59.1765467,15.3415893 C59.1765467,14.5424128 58.5200294,13.8884178 57.7177708,13.8884178 C56.9168743,13.8884178 56.260357,14.5424128 56.260357,15.3415893 L56.260357,15.4175722 L56.7752191,15.4175722 L56.7752191,16.0240779 L56.260357,16.0240779 L56.260357,16.6170153 L56.7752191,16.6170153 L56.7752191,17.2235211 L56.260357,17.2235211 L56.260357,17.2357326 C56.260357,18.0157249 56.8857332,18.6574222 57.6603509,18.6877806 Z M57.5335207,10.7771925 C55.5912103,10.7771925 54.0030379,9.1937647 54.0030379,7.25891634 L54.0030379,3.59410188 C54.0030379,1.65789668 55.5912103,0.0758257175 57.5335207,0.0758257175 C59.475831,0.0758257175 61.0653655,1.65789668 61.0653655,3.59410188 L61.0653655,7.25891634 C61.0653655,9.1937647 59.475831,10.7771925 57.5335207,10.7771925 Z" id="Combined-Shape" fill="#FFFFFF"></path>
                    </g>
                    <path d="M21.0983121,61.3677999 L21.0983121,68.0393633 L34.0597603,68.0393633 L34.0597603,79 L35.1412431,79 L35.1412431,68.0393633 L122.423984,68.0393633 L122.423984,79 L123.506829,79 L123.506829,68.0393633 L136.468278,68.0393633 L136.468278,61.3677999 L21.0983121,61.3677999 Z M22.3718466,66.7693646 L135.194743,66.7693646 L135.194743,62.6350848 L22.3718466,62.6350848 L22.3718466,66.7693646 Z" id="Fill-4" fill="#FFFFFF"></path>
                </g>
            </g>
        </g>
    </g>
</svg>