<?xml version="1.0" encoding="UTF-8" standalone="no"?>
<svg width="247px" height="88px" viewBox="0 0 247 88" version="1.1" xmlns="http://www.w3.org/2000/svg" xmlns:xlink="http://www.w3.org/1999/xlink">
    <!-- Generator: Sketch 42 (36781) - http://www.bohemiancoding.com/sketch -->
    <title>trees</title>
    <desc>Created with Sketch.</desc>
    <defs></defs>
    <g id="Stories" stroke="none" stroke-width="1" fill="none" fill-rule="evenodd">
        <g id="Desktop-HD" transform="translate(-2138.000000, -264.000000)" fill="#FEFEFE">
            <g id="trees" transform="translate(2138.000000, 264.000000)">
                <path d="M3.16804476,72.9264592 C4.79624056,74.330949 6.94561119,74.5226429 7.88334545,74.5340306 C7.67601678,72.4386837 6.9322965,70.8576837 5.67120559,69.8308878 C4.04681399,68.5061122 1.96021259,68.4358878 1.07383497,68.4662551 C1.26975105,70.3964796 1.97352727,71.8958673 3.16804476,72.9264592 Z M10.4093315,71.1063163 C9.67702378,71.8104592 9.26046434,72.8049898 9.12921958,74.0386633 C9.1995972,74.1677245 9.27568112,74.3214592 9.35747133,74.5017653 C10.1449399,74.3802959 11.3794014,74.0557449 12.3152336,73.1086633 C13.1027021,72.3096224 13.528772,71.2145 13.5820308,69.8441735 C12.8687441,69.8859286 11.4516811,70.1060918 10.4093315,71.1063163 Z M7.9366042,75.4868061 C6.89615664,75.4868061 4.46147133,75.2913163 2.55366713,73.6514796 C1.05861818,72.3646633 0.229303497,70.4837857 0.0885482517,68.0600918 L0.063820979,67.6235612 L0.495597203,67.5628265 C0.630646154,67.5362551 3.83187692,67.1073163 6.27226853,69.0944796 C7.32222657,69.9504592 8.02980699,71.1423776 8.45017063,72.5962143 C8.72026853,71.7364388 9.14824056,70.9981327 9.75691189,70.4154592 C11.5087441,68.7414592 13.9852755,68.8781122 14.091793,68.8895 L14.5273734,68.9179694 L14.5368839,69.352602 C14.576828,71.2145 14.053751,72.704398 12.984772,73.7805408 C11.953835,74.8244184 10.6413874,75.2400714 9.71886993,75.4108878 C10.4283524,77.4284184 11.2120168,81.1597551 10.9476252,88 L10.0079888,88 C10.1981986,82.883102 9.78734545,79.5142755 9.2889958,77.3714796 C9.59333147,81.956949 9.09688392,86.0659796 8.79064615,88 L7.81106573,88 C8.14012867,86.001449 8.80205874,80.9908878 8.16105175,75.5247653 C8.06784895,75.4830102 8.01839441,75.4868061 7.9366042,75.4868061 Z" id="Fill-1"></path>
                <path d="M67.9386629,57.793651 C68.3323972,56.7194061 68.4598378,55.8937939 68.4883692,55.3528755 C69.7304392,54.0850388 71.1113622,53.2537327 72.6368448,52.9557531 C75.5584671,52.3863653 78.2080895,53.7680796 79.1572364,54.3469571 C77.6678937,56.6074265 75.8323692,57.9929367 73.6925091,58.4712224 C71.4328168,58.9779776 69.2929566,58.3611408 67.9386629,57.793651 Z M66.2762294,56.4271204 C63.5143832,54.5557327 61.8519497,52.3199367 61.3497958,49.7671816 C60.6555301,46.2217939 62.3921455,43.0123449 63.0540755,41.9551816 C65.7911944,43.7278755 67.4688448,45.9276102 68.0451804,48.4917531 C68.5511385,50.7465286 68.1117538,52.913998 67.5582434,54.5044878 C67.162607,55.189651 66.7232224,55.8178755 66.2762294,56.4271204 Z M54.1047049,41.9646714 L54.3824112,43.6272837 C54.5516979,44.6313041 54.6639217,45.6960592 54.806579,46.7304469 C52.436565,46.3660388 48.6932364,45.3601204 45.8515021,42.4961 C43.2437259,39.8655286 41.9293762,36.2081612 41.9426909,31.616998 C43.4852923,31.616998 48.7617119,31.8978959 52.512649,35.4888347 C54.9796699,37.8498959 56.322551,41.2092837 56.5641175,45.4588143 C55.8127888,43.9518347 55.2687888,43.3046306 55.2117259,43.238202 L54.1047049,41.9646714 Z M39.6963133,55.1858551 C41.303586,53.6295286 43.0344951,52.8342837 44.8490965,52.820998 L44.8947469,52.820998 C47.3731804,52.820998 49.3856,54.2843245 50.163558,54.9429163 C48.4269427,56.6283041 46.6104392,57.4994673 44.7349706,57.4273449 C42.3078937,57.3817939 40.4153063,55.8577327 39.6963133,55.1858551 Z M80.0911664,53.8250184 C79.946607,53.7187327 76.5190266,51.2305082 72.4637538,52.0238551 C71.1398937,52.2800796 69.9111385,52.8608551 68.7869986,53.7491 C69.2016559,52.1908755 69.4222993,50.2986102 68.9753063,48.2943653 C68.3152783,45.3449367 66.3618238,42.8567122 63.1643972,40.9018143 L62.791586,40.6740592 L62.5329007,41.0251816 C62.4073622,41.192202 59.4914462,45.2063857 60.4158657,49.9417939 C60.9617678,52.7374878 62.7573483,55.1611816 65.7075021,57.1711204 C64.1135441,59.1620796 62.3407888,60.7316918 60.8419357,61.8401 C59.9707748,55.1289163 58.6887608,50.6497327 57.5665231,47.7610388 L57.5722294,47.4345898 C57.6901594,41.9570796 56.2065231,37.705651 53.1650685,34.7960796 C48.4383552,30.2789367 41.7182434,30.6547327 41.4405371,30.6775082 L41.0049566,30.7059776 L40.9973483,31.1425082 C40.8870266,36.2119571 42.294579,40.2565082 45.1743552,43.1641816 C48.3375441,46.3527531 52.4612923,47.3833449 54.941628,47.7230796 C55.3087329,50.6117735 55.6130685,53.564998 55.7709427,56.6264061 C53.9791664,55.238998 51.7822434,53.1531408 50.1939916,50.3745286 L49.5358657,49.2262633 L49.3114182,50.5301612 C49.2962014,50.6193653 49.1421315,51.6936102 49.8306909,53.5061612 C48.706551,52.7469776 46.9775441,51.8720184 44.896649,51.8720184 C42.644565,51.8853041 40.5674741,52.8912224 38.6824951,54.8575082 L38.3819636,55.1725694 L38.6691804,55.4990184 C38.7699916,55.6128959 41.1818517,58.304202 44.7064392,58.3763245 C44.7558937,58.3782224 44.8034462,58.3782224 44.8529007,58.3782224 C46.9452084,58.3782224 48.9557259,57.4102633 50.8464112,55.5654469 C51.8221874,57.2014878 53.387614,59.1696714 55.9345231,61.3997735 C56.1513622,75.3137122 54.1864951,85.2043061 53.6520056,88 L54.6201734,88 C55.2041175,84.8911429 57.1195301,75.0043449 56.8817678,61.1739163 L56.8779636,60.9613449 L56.7181874,60.8227939 C52.6286769,57.2793041 51.1069986,54.4304673 50.551586,52.6672633 C52.3129287,55.0795694 54.4204531,56.8541612 56.0163133,57.9929367 L56.8113902,58.5604265 L56.7695441,57.5867735 C56.5907469,53.5441204 56.2312503,49.6172429 55.6948587,45.8744673 C56.9464392,48.3968551 58.8751664,53.5441204 59.9974042,62.7492224 L60.0925091,63.5330796 L60.7411245,63.0813653 C62.6584392,61.745202 65.2110545,59.6213857 67.2862434,56.6928347 C66.7574601,58.6097735 65.1711105,61.8514878 60.5299916,65.933998 L60.3492923,66.0934265 L60.3721175,66.3306714 C60.9484531,72.8558551 61.0416559,79.8330816 60.6840615,88 L61.6389147,88 C61.9831944,79.9792245 61.8956979,72.9336714 61.3383832,66.4863041 C64.8667748,63.3470796 66.6642573,60.6823449 67.5772643,58.6724061 C68.6614601,59.1317122 70.1812364,59.6118959 71.9330685,59.6118959 C72.564565,59.6118959 73.2226909,59.5473653 73.8903273,59.3993245 C76.4163133,58.8375286 78.5428587,57.1730184 80.2148028,54.4551408 L80.4430545,54.0831408 L80.0911664,53.8250184 Z" id="Fill-3"></path>
                <path d="M143.081611,46.0783082 C143.631317,44.9623082 144.000324,44.0455939 144.243793,43.3243694 C145.539122,42.0584306 146.973303,41.2385122 148.550143,40.9291449 C151.75708,40.2952265 154.663485,41.8420633 155.665891,42.460798 C154.045303,44.9338388 152.044297,46.4522061 149.706618,46.9741449 C147.028464,47.5663082 144.506283,46.7274102 143.081611,46.0783082 Z M147.600996,63.2187776 C144.681276,64.9933694 141.837639,65.5798388 139.146171,64.9573082 C135.830814,64.1886347 133.555905,61.7763286 132.505947,60.4382673 C132.956744,59.9504918 133.392324,59.4741041 133.810786,59.0053082 C136.332968,57.8304714 138.742926,57.477451 140.985499,58.0601245 C144.667961,59.0185939 146.914338,62.1312469 147.600996,63.2187776 Z M140.829527,44.9907776 C139.043457,43.6584102 137.917415,42.1134714 137.573136,40.3578592 C137.06908,37.8013082 138.257891,35.4744102 138.79238,34.5975531 C140.787681,35.9166347 142.012632,37.5393898 142.4368,39.4297571 C142.731625,40.7431449 142.594674,42.0052878 142.324576,43.0700429 C141.828129,43.7172469 141.337387,44.364451 140.829527,44.9907776 Z M124.7568,48.7525327 C125.903765,48.2059204 127.145835,48.4014102 127.783038,48.5646347 C127.345555,49.6977163 126.676017,50.4986551 125.785835,50.9522673 C124.619849,51.5463286 123.322618,51.4096755 122.651178,51.2730224 C123.120996,50.0412469 123.828576,49.1966551 124.7568,48.7525327 Z M114.234394,23.1054102 C114.065108,21.5035327 114.209667,19.9756755 114.711821,18.5446143 C116.149807,14.4412265 119.946394,12.2054306 121.18466,11.5677163 C122.940297,15.025798 123.347345,18.2864918 122.39059,21.2643898 C121.228408,24.8894918 118.316297,27.2334714 116.701415,28.2982265 C116.058506,26.9867367 115.522115,26.1307571 115.183541,25.6410837 C114.909639,24.7471449 114.593891,23.9006551 114.234394,23.1054102 Z M96.3508699,15.4566347 C97.9315133,15.1453694 103.571234,14.3368388 108.28273,17.3621857 C110.789695,18.975451 112.613807,21.4750633 113.827345,24.7148796 L113.95859,25.5025327 C114.129779,26.5312265 114.264828,27.5959816 114.416996,28.6417571 C112.309471,28.882798 107.078702,29.1029612 102.696269,26.1212673 C99.4094434,23.8854714 97.2752895,20.2983286 96.3508699,15.4566347 Z M101.037639,35.2637367 L101.02052,35.2371653 C100.603961,34.227451 100.486031,33.253798 100.689555,32.3294918 C101.045248,30.7219204 102.268297,29.6343898 102.890283,29.1731857 C103.708185,30.4884714 104.00301,31.7828796 103.763345,33.0241449 C103.466618,34.5671857 102.424269,35.6736959 101.773751,36.2411857 C101.530283,35.9128388 101.277303,35.5977776 101.037639,35.2637367 Z M87.5384503,40.5818184 C89.2883804,37.9019 91.3997091,36.3038184 93.8172755,35.8312265 C97.0242126,35.1935122 99.9306182,36.7422469 100.933024,37.3609816 C99.3124364,39.8340224 97.3095273,41.3523898 94.973751,41.8743286 C91.6907301,42.6012469 88.6150378,41.1682878 87.5384503,40.5818184 Z M100.120828,53.6113082 C100.126534,51.4191653 100.73901,49.7034102 101.94494,48.5133898 C103.500856,46.9741449 105.669248,46.6951449 106.591765,46.645798 C106.584157,48.6709204 106.002115,50.2955735 104.862758,51.4836959 C103.30494,53.108349 101.081387,53.5107163 100.120828,53.6113082 Z M130.628576,22.4885735 C131.648101,23.1566551 132.292912,23.9803694 132.547793,24.9464306 C132.869248,26.1649204 132.502143,27.3397571 132.228241,27.9888592 C132.20922,28.0135327 132.190199,28.0363082 132.171178,28.0628796 C131.079373,27.345451 130.404129,26.4818796 130.170171,25.487349 C129.87915,24.2498796 130.331849,23.0769408 130.628576,22.4885735 Z M146.157303,25.1912673 C144.645136,27.5219612 142.769667,28.9568184 140.574646,29.4597776 C137.512269,30.1696143 134.615373,28.8486347 133.576828,28.2925327 C135.208828,25.766349 137.18701,24.2555735 139.456213,23.7981653 C142.461527,23.2041041 145.189136,24.6085939 146.157303,25.1912673 Z M156.599821,41.9388592 C156.443849,41.8249816 152.748073,39.1507571 148.37515,39.995349 C147.053192,40.2534714 145.824436,40.8247571 144.686982,41.669349 C144.719317,41.4871449 144.728828,41.3789612 144.73073,41.3429 L144.854366,39.6575122 L143.86908,41.0316347 C143.753052,41.1948592 143.629415,41.3429 143.511485,41.5042265 C143.557136,40.7792061 143.543821,40.0219204 143.366926,39.2304714 C142.859066,36.9586143 141.354506,35.0435735 138.898898,33.5403898 L138.526087,33.3126347 L138.267401,33.6618592 C138.172297,33.7928184 135.924017,36.8826959 136.637303,40.5286755 C137.025331,42.5120429 138.27501,44.2334918 140.230366,45.7025122 C134.225443,52.922349 127.655597,58.5118388 123.571793,61.6605531 C123.370171,58.3770837 123.08866,55.2321653 122.731066,52.2447776 C123.037303,52.2979204 123.383485,52.3415735 123.811457,52.3415735 C124.539961,52.3415735 125.390199,52.2182061 126.210003,51.8025531 C127.453975,51.1724306 128.340352,50.0260633 128.84631,48.3976143 L128.975653,47.9800633 L128.570506,47.8168388 C128.481108,47.7788796 126.365975,46.9418796 124.355457,47.8927571 C123.554674,48.272349 122.906059,48.8948796 122.388688,49.714798 C122.105276,47.6782878 121.799038,45.6930224 121.443345,43.8254306 C130.000884,36.0001449 132.386115,31.111002 133.048045,29.0877776 C133.900185,29.5622673 136.081891,30.6156347 138.722003,30.6156347 C139.385835,30.6156347 140.076297,30.5492061 140.780073,30.3878796 C143.357415,29.7995122 145.522003,28.0856551 147.21487,25.2937571 L147.44122,24.9217571 L147.089331,24.6636347 C146.939066,24.5535531 143.418283,22.0311653 139.277415,22.8662673 C137.101415,23.302798 135.187905,24.5953082 133.563513,26.6887571 C133.645303,26.0852061 133.652912,25.4133286 133.468408,24.7148796 C133.11652,23.3654306 132.180688,22.2551245 130.689443,21.4162265 L130.309024,21.2017571 L130.063653,21.5623694 C130.010394,21.6401857 128.737891,23.5305531 129.241947,25.6961245 C129.527262,26.9184102 130.341359,27.952798 131.610059,28.8011857 C127.803961,33.7928184 123.311206,37.6172061 120.564576,39.7106551 C119.411905,34.8632673 118.160324,31.4678184 117.116073,29.1731857 C118.820352,28.0761653 122.002562,25.578451 123.294087,21.5604714 C124.372576,18.2124714 123.872324,14.5626959 121.812352,10.7155327 L121.606926,10.3302469 L121.205583,10.5029612 C120.979234,10.5997571 115.681891,12.9190633 113.817835,18.2219612 C113.479262,19.1842265 113.325192,20.1939408 113.262422,21.2226347 C112.088828,19.2810224 110.597583,17.719002 108.788688,16.5612469 C102.92452,12.793798 95.9723524,14.5551041 95.6794294,14.6310224 L95.2571636,14.743002 L95.3313455,15.1719408 C96.2538629,20.5033082 98.5515972,24.4510633 102.159877,26.9051245 C105.576045,29.2263286 109.431597,29.7311857 112.140185,29.7311857 C113.13308,29.7311857 113.952884,29.6628592 114.555849,29.5926347 C115.485975,36.3303898 116.029975,43.4287571 116.123178,50.8099204 C112.155401,47.6631041 106.909415,42.9314918 102.351989,37.0079612 C103.101415,36.3645531 104.333975,35.0701449 104.695373,33.2139408 C105.013024,31.5854918 104.579345,29.9114918 103.411457,28.2393898 L103.16038,27.8806755 L102.783765,28.0989408 C102.682954,28.1558796 100.339569,29.533798 99.7632336,32.1150224 C99.5064503,33.2651857 99.6700308,34.459002 100.191206,35.6793898 C98.7113734,35.1745327 96.3071217,34.3811857 93.6422825,34.8974306 C90.8290797,35.4459408 88.4153175,37.3287163 86.4694713,40.4945122 L86.2279049,40.8873898 L86.6140308,41.1398184 C86.7509818,41.2309204 89.5413594,43.0320837 93.0602406,43.0320837 C93.7411916,43.0320837 94.4506741,42.9637571 95.1715692,42.8043286 C97.4997371,42.2842878 99.5140587,40.8873898 101.176492,38.6591857 C101.939234,40.3388796 103.287821,42.7094306 105.667345,45.7860224 C104.451905,45.9606347 102.682954,46.4522061 101.28301,47.8301245 C99.7860587,49.3048388 99.0784783,51.4267571 99.1792895,54.1351449 L99.1964084,54.596349 L99.6567161,54.594451 C99.8012755,54.594451 103.234562,54.5489 105.543709,52.1479816 C106.595569,51.0528592 107.211849,49.6407776 107.432492,47.9648796 C109.610394,50.5404102 112.419793,53.5069204 116.106059,56.9004714 C116.029975,61.0361245 115.824548,65.2495939 115.493583,69.4478796 C110.236185,64.4334714 107.287933,64.4258796 107.15859,64.4277776 L105.642618,64.4619408 L106.907513,65.2970429 C111.067401,68.0547776 113.981415,71.894349 115.12838,73.5626551 C114.49308,79.9986347 113.698003,85.257449 113.209164,88 L114.144996,88 C114.641443,85.2137959 115.449835,80.0403898 116.092744,73.4829408 L116.012856,73.1697776 C115.126478,71.8658796 112.992324,68.9733898 109.903317,66.3674918 C111.291849,67.1247776 113.188241,68.4647367 115.548744,70.8295939 L116.273443,71.5565122 L116.359038,70.5335122 C116.745164,65.9119816 116.981024,61.2581857 117.060912,56.7049816 L116.908744,56.3481653 C107.131961,47.3803082 103.398143,41.2878592 101.98108,38.1049816 C106.81431,44.2638592 112.339905,49.0865735 116.317192,52.1688592 L117.093248,52.7705122 L117.085639,51.7911653 C117.019066,43.3338592 116.404688,35.206798 115.253919,27.5902878 C116.414199,29.6951245 118.2288,33.7586551 119.803737,40.6330633 L119.965415,41.3429 L120.551262,40.9082673 C123.003066,39.0881245 127.337947,35.5617163 131.233443,30.8339 C129.892464,33.3543898 126.967038,37.5166143 120.60452,43.3034918 L120.408604,43.483798 L120.458059,43.7457163 C121.532744,49.2991449 122.280269,55.6440224 122.675905,62.6076347 L122.725359,63.4996755 L123.438646,62.9606551 C127.914283,59.569002 136.13515,52.7439408 143.06259,43.715349 C141.559933,47.5226551 136.973975,55.759798 123.086758,68.3698388 L122.932688,68.7342469 C123.105779,75.1360633 123.008772,80.7080408 122.654982,88 L123.594618,88 C123.952213,80.7213265 124.054926,75.3258592 123.889443,68.9240429 C126.976548,66.1150633 129.603345,63.524349 131.844017,61.150002 C133.017611,62.6209204 135.408548,65.0616959 138.923625,65.8797163 C139.695877,66.0600224 140.477639,66.1492265 141.26701,66.1492265 C143.619905,66.1492265 146.04508,65.3539816 148.504492,63.7729816 L148.871597,63.5376347 L148.668073,63.150451 C148.563457,62.9587571 146.105947,58.4150429 141.232772,57.1434102 C139.315457,56.6442469 137.299234,56.7448388 135.212632,57.4072265 C138.988297,53.0001653 141.272716,49.5060224 142.647933,46.921002 C143.810115,47.4657163 145.636129,48.130002 147.793108,48.130002 C148.474059,48.130002 149.183541,48.0616755 149.904436,47.900349 C152.626338,47.296798 154.920269,45.5032265 156.721555,42.5689816 L156.951709,42.1950837 L156.599821,41.9388592 Z" id="Fill-5"></path>
                <path d="M229.710758,39.0103082 C230.414534,37.5963286 230.87294,36.4442673 231.173471,35.5503286 C232.748408,34.0319612 234.492632,33.0412265 236.406143,32.6654306 C240.400548,31.8910633 243.997415,33.8649408 245.129164,34.5766755 C243.154786,37.6285939 240.704884,39.4961857 237.838422,40.1376959 C234.53638,40.8741041 231.422646,39.8036551 229.710758,39.0103082 Z M235.500744,27.0152061 C235.728996,28.5354714 235.487429,29.8279816 234.781751,30.8642673 C233.836408,32.2535735 232.270982,32.8609204 231.500632,33.0867776 C231.247653,31.4412469 231.502534,30.0766143 232.257667,29.0289408 C233.210618,27.7060633 234.749415,27.1936143 235.500744,27.0152061 Z M235.417052,59.6392265 C231.846814,61.8313694 228.369779,62.5544918 225.07915,61.7953082 C220.99915,60.8501245 218.222087,57.8608388 216.972408,56.2532673 C217.565863,55.6155531 218.136492,54.9911245 218.682394,54.3799816 C221.723849,52.9679 224.628352,52.5921041 227.338842,53.3019408 C231.905779,54.4900633 234.646702,58.4017571 235.417052,59.6392265 Z M214.74315,60.130798 C214.802115,59.1419612 215.211066,58.3087571 215.631429,57.6786347 C215.855877,57.4413898 216.091737,57.200349 216.31238,56.9669 C216.397975,57.0731857 216.470255,57.1699816 216.563457,57.2857571 C217.295765,58.316349 217.647653,59.3545327 217.562059,60.3832265 C217.438422,61.8522469 216.494982,62.9739408 215.981415,63.4825939 C215.095038,62.3988592 214.678478,61.2733694 214.74315,60.130798 Z M227.141024,37.7861245 C224.92508,36.1557776 223.532744,34.2559204 223.108576,32.090349 C222.480884,28.8941857 224.023485,25.9979 224.643569,24.9995735 C227.116297,26.6147367 228.636073,28.6094918 229.15915,30.9363898 C229.52245,32.5591449 229.336045,34.1059816 228.999373,35.4060837 C228.383094,36.2108184 227.770618,37.0136551 227.141024,37.7861245 Z M219.420408,46.3117571 C217.189248,45.387451 215.547737,44.038002 214.62522,42.225451 C213.177723,39.3861041 213.771178,36.2203082 214.064101,35.066349 C216.95529,36.0532878 218.933471,37.6229 219.941583,39.7410224 C220.867905,41.6902265 220.797527,43.7400224 220.554059,45.1767776 C220.173639,45.5677571 219.800828,45.9340633 219.420408,46.3117571 Z M211.543821,41.8933082 C211.009331,43.3338592 210.172408,44.3492673 209.053975,44.9186551 C207.555122,45.6816347 205.890786,45.4595735 205.103317,45.2887571 C205.679653,43.7248388 206.560324,42.6524918 207.728213,42.0963898 C209.202338,41.3979408 210.800101,41.6864306 211.543821,41.8933082 Z M214.935262,11.1558592 C216.238199,11.9852673 217.058003,13.0196551 217.377555,14.234349 C217.584884,15.0163082 217.550646,15.7716959 217.430814,16.4359816 L217.103653,16.8914918 C216.879206,17.2046551 216.639541,17.4969408 216.41129,17.8025122 C215.304269,16.9825939 214.581471,16.0260224 214.32659,14.9309 C213.949975,13.3385122 214.577667,11.8410224 214.935262,11.1558592 Z M232.428856,14.978349 C230.585723,17.8575531 228.286087,19.626451 225.592716,20.2470837 C222.220297,21.0138592 219.03238,19.7877776 217.520213,19.0456755 C217.605807,18.9014306 218.028073,18.1308592 218.286758,17.0357367 C220.010059,14.9650633 221.992045,13.6820429 224.207989,13.2341245 C227.947513,12.4863286 231.333248,14.3026755 232.428856,14.978349 Z M210.216157,24.883798 C208.549919,23.9746755 207.402954,22.8055327 206.883681,21.3592878 C206.126646,19.2620429 206.805695,17.1363286 207.155681,16.2708592 C209.029248,17.1496143 210.286534,18.3832878 210.895206,19.9453082 C211.462031,21.395349 211.366926,22.8586755 211.151989,23.9519 C210.838143,24.2745531 210.528101,24.5763286 210.216157,24.883798 Z M199.04894,19.951002 C200.770338,19.7308388 203.583541,19.0437776 205.780464,16.8839 C205.875569,16.789002 205.940241,16.6675327 206.033443,16.5688388 C205.651122,17.7493694 205.272604,19.6871857 205.985891,21.672451 C206.560324,23.2724306 207.783373,24.5592469 209.529499,25.5670633 C206.916017,28.089451 204.460408,30.0936959 202.661024,31.4621245 C201.468408,26.415451 200.186394,22.6707776 199.04894,19.951002 Z M200.825499,11.5885939 C203.265891,9.30534898 206.6288,9.0719 207.823317,9.06620612 C207.766255,12.0877571 206.857052,14.4848796 205.116632,16.2044306 C203.016716,18.2751041 200.201611,18.8653694 198.655206,19.0380837 C198.4688,18.6148388 198.286199,18.2162673 198.109303,17.8499612 C198.366087,15.2023082 199.241052,13.0709 200.825499,11.5885939 Z M195.691737,13.7788388 L194.82438,12.7824102 C193.913276,11.0628592 193.584213,9.36987959 193.846702,7.7281449 C194.303206,4.84894082 196.473499,2.87696122 197.33515,2.19369592 C198.921499,4.3289 199.583429,6.48877755 199.301919,8.62208367 C198.934814,11.4044918 197.049835,13.4504918 196.104492,14.3216551 C195.868632,13.9895122 195.718366,13.813002 195.691737,13.7788388 Z M194.666506,24.2024306 C193.120101,23.4944918 191.31501,23.5704102 189.294982,24.415002 L188.872716,24.5934102 L189.038199,25.022349 C189.078143,25.1305327 190.090059,27.7041653 192.568492,28.7594306 C193.25515,29.0498184 193.977947,29.1959612 194.740688,29.1959612 C195.366478,29.1959612 196.026506,29.0517163 196.697947,28.8467367 C197.146842,34.0528388 197.407429,39.4012878 197.470199,44.8655122 C194.658898,42.643002 191.292185,39.7353286 187.87031,36.275349 C188.661583,36.0229204 189.68301,35.5446347 190.455262,34.5899612 C191.31501,33.529002 191.645975,32.1510837 191.44245,30.4922673 L191.389192,30.0595327 L190.955513,30.0747163 C190.860408,30.0785122 188.629248,30.1772061 187.214087,31.8303286 C186.597807,32.5515531 186.263038,33.4606755 186.164129,34.5197367 C184.290562,32.5211857 182.434115,30.3404306 180.657555,28.0249204 C181.530618,27.2904102 183.071317,25.7283898 183.514506,23.4508388 C183.837863,21.7920224 183.46315,20.091451 182.483569,18.3851857 C182.995234,18.7135327 183.522115,19.0191041 184.077527,19.2772265 C186.30108,20.3078184 188.579793,20.6399612 190.584604,20.6399612 C192.772017,20.6399612 194.57901,20.2527776 195.70315,19.9453082 C195.946618,21.7559612 196.150143,23.5969816 196.344157,25.4512878 C195.891457,24.9786959 195.366478,24.5231857 194.666506,24.2024306 Z M192.948912,27.8882673 C191.402506,27.2334714 190.49901,25.8213898 190.126199,25.1096551 C191.693527,24.5402673 193.085863,24.5250837 194.263262,25.0622061 C195.36838,25.5651653 196.09308,26.4723898 196.524856,27.1917163 C196.547681,27.4365531 196.580017,27.673798 196.60094,27.9186347 C195.259961,28.3437776 194.031206,28.3494714 192.948912,27.8882673 Z M187.93308,32.4528592 C188.731961,31.5152673 189.905555,31.1888184 190.540856,31.0806347 C190.603625,32.2573694 190.327821,33.2329204 189.71915,33.9883082 C188.943094,34.9524714 187.790422,35.3491449 187.122786,35.5047776 C187.103765,35.485798 187.086646,35.4687163 187.069527,35.4478388 C187.010562,34.2065735 187.297779,33.1987571 187.93308,32.4528592 Z M179.105443,25.9656347 C178.589975,24.7224714 178.437807,23.5248592 178.690786,22.3841857 C179.143485,20.3438796 180.733639,18.9906347 181.460241,18.463002 C182.504492,20.1009408 182.881108,21.7123082 182.582478,23.2610429 C182.209667,25.1912673 180.866786,26.5862673 180.083122,27.2619408 C179.765471,26.836798 179.436408,26.4287367 179.126366,25.9941041 L179.105443,25.9656347 Z M162.243345,32.5800224 C164.491625,29.0877776 167.217331,27.0076143 170.348185,26.3964714 C173.806199,25.7302878 176.957975,27.0095122 178.637527,27.9015531 C178.745947,28.2469816 178.8848,28.6398592 179.069303,29.0991653 C177.074003,31.9119408 174.658338,33.671349 171.85845,34.2976755 C167.540688,35.2542469 163.502534,33.2841653 162.243345,32.5800224 Z M188.273555,9.53879796 C191.223709,10.8123286 193.557583,13.2493082 195.24094,16.7776143 C195.353164,17.5140224 195.461583,18.2523286 195.564297,18.9944306 C193.595625,19.5391449 188.891737,20.465349 184.47887,18.4155531 C181.123569,16.8554306 178.616604,13.8851245 177.030255,9.5786551 C178.473947,9.04343061 183.503094,7.47761429 188.273555,9.53879796 Z M179.090227,40.2990224 C176.588968,41.5687571 173.802394,41.0752878 172.735317,40.8076755 C173.619793,38.2587163 175.019737,36.5163898 176.89901,35.6262469 C178.978003,34.6431041 181.188241,34.9221041 182.439821,35.2200837 C182.571066,35.4174714 182.711821,35.6186551 182.850674,35.8236347 C182.021359,37.9265735 180.771681,39.4487367 179.090227,40.2990224 Z M186.240213,48.1167163 C184.079429,49.6236959 181.433611,49.5439816 180.372241,49.435798 C180.864884,46.9418796 181.941471,45.1331245 183.58108,44.0531857 C185.289164,42.9314918 187.257835,42.8384918 188.496101,42.9239 C188.699625,43.1516551 188.899345,43.3775122 189.110478,43.6109612 C188.598814,45.5962265 187.655373,47.1297776 186.240213,48.1167163 Z M186.789919,56.0881449 C187.339625,54.036451 189.019178,52.7382469 189.778115,52.2390837 C190.765303,53.945349 191.075345,55.5984714 190.702534,57.1566959 C190.192772,59.2805122 188.526534,60.7115735 187.761891,61.2714714 C186.689108,59.4228592 186.363849,57.6805327 186.789919,56.0881449 Z M174.363513,67.4834918 C175.73873,64.5796143 177.619905,62.7025327 179.961387,61.9034918 C182.552045,61.0209408 185.119877,61.664349 186.535038,62.1786959 C186.749975,62.3229408 186.949695,62.4785735 187.157024,62.6266143 C185.888324,65.2097367 184.142199,66.9444714 181.937667,67.7643898 C178.772576,68.9373286 175.510478,67.9219204 174.363513,67.4834918 Z M246.061192,34.0566347 C245.876688,33.9199816 241.450506,30.7162265 236.233052,31.7335327 C235.822199,31.8132469 235.422758,31.9290224 235.027122,32.0580837 C235.215429,31.8569 235.398031,31.6462265 235.563513,31.4051857 C236.493639,30.044349 236.758031,28.3475735 236.34908,26.3604102 L236.261583,25.9352673 L235.826003,25.9865122 C235.713779,25.999798 233.035625,26.3376347 231.491122,28.4671449 C230.572408,29.7387776 230.290898,31.3710224 230.595234,33.299349 C230.484912,33.4549816 230.36508,33.5992265 230.254758,33.7529612 C230.342255,32.8039816 230.323234,31.7923694 230.089276,30.739002 C229.482506,28.0287163 227.686926,25.7416755 224.750087,23.9462061 L224.379178,23.718451 L224.11859,24.0676755 C224.006366,24.2233082 221.322506,27.9110429 222.174646,32.2649612 C222.642562,34.6658796 224.105276,36.7688184 226.503821,38.5434102 C224.894646,40.4774306 223.264548,42.3222469 221.628744,44.0512878 C221.716241,42.6486959 221.584996,40.9879816 220.805136,39.342451 C219.625835,36.8580224 217.295765,35.064451 213.881499,34.0091857 L213.444017,33.8744306 L213.293751,34.3090633 C213.22908,34.4874714 211.794898,38.7521857 213.77308,42.6449 C214.748856,44.5713286 216.447429,46.0099816 218.712828,47.0215939 C213.949975,51.7247367 209.445807,55.4675122 206.255989,57.9215735 C206.010618,53.8485531 205.660632,49.9596347 205.217443,46.270002 C205.601667,46.3440224 206.054366,46.410451 206.630702,46.410451 C207.494255,46.410451 208.504269,46.2605122 209.476241,45.7689408 C210.950366,45.0230429 212.002227,43.6641041 212.601387,41.7300837 L212.73073,41.3125327 L212.327485,41.1493082 C212.22287,41.1075531 209.712101,40.1111245 207.328772,41.2366143 C206.303541,41.7205939 205.491345,42.550002 204.861751,43.6527163 C204.509863,41.0752878 204.123737,38.5680837 203.674842,36.2165122 C212.359821,28.277349 215.762674,22.8662673 217.099849,19.8997571 C218.340017,20.5222878 220.630143,21.4446959 223.336828,21.4446959 C224.130003,21.4446959 224.955513,21.3649816 225.796241,21.1732878 C228.873835,20.4710429 231.458786,18.4212469 233.48452,15.0827367 L233.71087,14.7107367 L233.358982,14.4526143 C233.182087,14.3235531 228.976548,11.3095939 224.029192,12.3041245 C221.974926,12.7159816 220.118478,13.7655531 218.465555,15.4205735 C218.463653,14.9612673 218.427513,14.4886755 218.300073,14.0009 C217.881611,12.4047163 216.772688,11.0875327 214.999933,10.0892061 L214.621415,9.87663469 L214.374143,10.233451 C214.309471,10.328349 212.799206,12.5717367 213.396464,15.1358796 C213.704604,16.4587571 214.556744,17.5918388 215.844464,18.5484102 C214.678478,20.0553898 213.470646,21.4655735 212.251401,22.7789612 C212.302758,21.8053082 212.213359,20.7158796 211.785387,19.6112673 C211.035961,17.6848388 209.464828,16.2082265 207.119541,15.2155939 C208.241779,13.4315122 208.800996,11.2165939 208.776269,8.59930816 L208.772464,8.16277755 L208.336884,8.13051224 C208.144772,8.11343061 203.494143,7.80026735 200.180688,10.8901449 C198.708464,12.2642673 197.787849,14.1204714 197.348464,16.3657571 C197.084073,15.8798796 196.844408,15.4699204 196.635178,15.1320837 C197.61666,14.2685122 199.809779,12.0137367 200.243457,8.75304286 C200.578227,6.23255306 199.75652,3.70447143 197.799262,1.23902245 L197.531066,0.897389796 L197.165863,1.13653265 C197.017499,1.23522653 193.551877,3.56212449 192.908968,7.57061429 C192.64838,9.19906327 192.895653,10.8578796 193.643178,12.5280837 C192.224213,10.8180224 190.573192,9.49704286 188.653975,8.66763469 C182.650954,6.07692041 176.493863,8.75683878 176.233276,8.87261429 L175.835737,9.05102245 L175.980297,9.46287959 C177.18052,12.9247571 178.947569,15.5970837 181.230087,17.4703694 C180.699401,17.8044102 178.382646,19.3949 177.764464,22.1697163 C177.465835,23.5115735 177.663653,24.9103694 178.26852,26.3376347 C178.276129,26.417349 178.310366,26.6754714 178.411178,27.0968184 C176.452017,26.0225735 173.404856,24.836349 170.175094,25.4645735 C166.648604,26.1497367 163.620464,28.5126959 161.176269,32.4908184 L160.934702,32.8836959 L161.318926,33.1361245 C161.493919,33.250002 164.995681,35.5104714 169.41045,35.5104714 C170.264492,35.5104714 171.152772,35.4269612 172.056269,35.2238796 C174.939849,34.5842673 177.431597,32.8533286 179.502982,30.1126755 C180.005136,31.2021041 180.731737,32.5477571 181.715122,34.1116755 C180.307569,33.8972061 178.382646,33.8782265 176.501471,34.7645735 C174.253192,35.8255327 172.630702,37.9189816 171.675849,40.9879816 L171.538898,41.4283082 L171.974478,41.5782469 C172.071485,41.6105122 173.479038,42.085002 175.3488,42.085002 C176.613695,42.085002 178.089723,41.8667367 179.512492,41.1493082 C181.254814,40.2705531 182.550143,38.7426959 183.46315,36.7042878 C184.591094,38.2739 185.991038,40.0352061 187.66108,41.9635327 C186.331513,41.9749204 184.636744,42.225451 183.065611,43.2579408 C181.087429,44.5561449 179.837751,46.7444918 179.34701,49.7641449 L179.272828,50.2196551 L179.725527,50.3050633 C179.790199,50.318349 180.454031,50.4436143 181.427905,50.4436143 C182.854478,50.4436143 184.94108,50.176002 186.776604,48.9005735 C188.246926,47.8775735 189.26645,46.3592061 189.869415,44.4251857 C191.995961,46.7217163 194.47059,49.2156347 197.451178,51.9562878 C197.357975,57.0276347 197.103094,62.1900837 196.692241,67.3183694 C193.139122,63.8982469 190.460968,62.3798796 188.752884,61.7023082 C189.700129,60.9298388 191.119094,59.479798 191.625052,57.386349 C192.092968,55.4466347 191.661192,53.4101245 190.339234,51.3318592 L190.107178,50.9655531 L189.71915,51.1667367 C189.597415,51.2293694 186.704324,52.7591245 185.87501,55.8338184 C185.42231,57.5059204 185.717136,59.2975939 186.660576,61.1613898 C184.935373,60.6223694 182.33901,60.0909408 179.662758,61.0019612 C176.938954,61.9281653 174.79529,64.129798 173.29073,67.5423286 L173.106227,67.9636755 L173.522786,68.1629612 C173.650227,68.2236959 175.88329,69.2694714 178.717415,69.2694714 C179.835849,69.2694714 181.049387,69.1062469 182.261024,68.6564306 C184.659569,67.7700837 186.540744,65.8949 187.914059,63.1713286 C192.115793,66.3693898 195.054534,70.2602061 196.271877,72.0366959 C195.562394,79.2337571 194.687429,84.5665918 194.093975,88 L195.010786,88 C195.615653,84.5324286 196.513443,79.3400429 197.236241,71.9588796 L197.156352,71.6457163 C196.03031,69.985002 193.217108,66.1739 189.129499,62.9018184 C190.850898,63.7179408 193.41873,65.3672673 196.745499,68.7057776 L197.470199,69.4326959 L197.555793,68.4096959 C198.023709,62.8562673 198.310926,57.2534918 198.406031,51.7589 L198.251961,51.4039816 C185.728548,39.9156347 181.426003,32.3332878 179.959485,28.7100837 C185.87501,36.3949204 192.751094,42.411451 197.664213,46.2225531 L198.438366,46.8223082 L198.430758,45.8448592 C198.356576,35.4933898 197.590031,25.5291041 196.150143,16.1892469 C197.529164,18.5787776 199.878255,23.5647163 201.898283,32.3845327 L202.059961,33.0943694 L202.645807,32.6597367 C205.717695,30.3745939 211.245192,25.8707367 216.065108,19.8409204 C214.663262,22.7675735 211.226171,28.0628796 202.837919,35.6945735 L202.640101,35.8748796 L202.689555,36.136798 C203.984884,42.8176143 204.882674,50.4663898 205.360101,58.8667571 L205.409555,59.758798 L206.122842,59.2197776 C211.598982,55.0670429 221.727653,46.6495939 230.142534,35.529451 C228.596129,39.8169408 223.355849,49.9615327 205.824213,65.8816143 L205.670143,66.2460224 C205.877471,73.9118796 205.763345,79.2086531 205.337276,88 L206.286422,88 C206.706786,79.2864694 206.826618,74.0523286 206.626898,66.4358184 C209.329779,63.9779612 211.726422,61.664349 213.877695,59.4816959 C213.843457,59.6733898 213.807317,59.8631857 213.794003,60.0662673 C213.704604,61.6036143 214.309471,63.0878184 215.589583,64.4790224 L215.884408,64.7997776 L216.23059,64.5340633 C216.314283,64.4695327 218.300073,62.917002 218.509303,60.4724306 C218.543541,60.0605735 218.520716,59.6487163 218.450338,59.2406551 C220.017667,60.6546347 222.153723,62.0894918 224.854702,62.7158184 C225.77722,62.9321857 226.71115,63.0384714 227.656492,63.0384714 C230.471597,63.0384714 233.372297,62.0856959 236.316744,60.1934306 L236.685751,59.9580837 L236.480324,59.572798 C236.35859,59.3431449 233.417947,53.9054918 227.588017,52.3833286 C225.183765,51.760798 222.646366,51.9543898 220.019569,52.8559204 C224.759597,47.3670224 227.593723,43.0358796 229.271373,39.8643898 C230.663709,40.5191857 232.913891,41.3372061 235.514059,41.3372061 C236.328157,41.3372061 237.172688,41.2574918 238.036241,41.0639 C241.285024,40.3407776 244.027849,38.1979816 246.184828,34.6867571 L246.41308,34.3166551 L246.061192,34.0566347 Z" id="Fill-7"></path>
            </g>
        </g>
    </g>
</svg>