<?xml version="1.0" encoding="UTF-8" standalone="no"?>
<svg width="164px" height="58px" viewBox="0 0 164 58" version="1.1" xmlns="http://www.w3.org/2000/svg" xmlns:xlink="http://www.w3.org/1999/xlink">
    <!-- Generator: Sketch 42 (36781) - http://www.bohemiancoding.com/sketch -->
    <title>water</title>
    <desc>Created with Sketch.</desc>
    <defs></defs>
    <g id="Stories" stroke="none" stroke-width="1" fill="none" fill-rule="evenodd">
        <g id="Desktop-HD" transform="translate(-1450.000000, -349.000000)" fill="#FEFEFE">
            <g id="water" transform="translate(1450.000000, 350.000000)">
                <path d="M164.093848,0.00146354164 L163.763886,0.607369779 C163.694961,0.73323436 163.614303,0.853244774 163.521914,0.958619772 C163.076098,1.47671351 162.405909,1.77527601 161.679992,1.77527601 C160.954075,1.77527601 160.283885,1.47671351 159.83807,0.958619772 C159.742747,0.845927066 159.66209,0.725916652 159.597564,0.605906238 L159.267602,0.00146354164 L158.93764,0.608833321 C158.868714,0.734697902 158.78659,0.853244774 158.694201,0.958619772 C158.251318,1.47671351 157.579662,1.77527601 156.853745,1.77527601 C156.130762,1.77527601 155.459105,1.47817705 155.01329,0.958619772 C154.919434,0.847390608 154.838776,0.730307277 154.771317,0.607369779 L154.441355,0.00146354164 L154.111393,0.608833321 C154.038068,0.736161443 153.957411,0.856171858 153.867954,0.958619772 C153.425072,1.47671351 152.754882,1.77527601 152.027499,1.77527601 C151.305981,1.77527601 150.634325,1.47817705 150.187043,0.957156231 C150.094654,0.848854149 150.013996,0.731770818 149.945071,0.607369779 L149.616575,0.00439062491 L149.285147,0.608833321 C149.214755,0.731770818 149.134097,0.848854149 149.041708,0.958619772 C148.595892,1.47671351 147.927169,1.77527601 147.201252,1.77527601 C146.473869,1.77527601 145.803679,1.47671351 145.362263,0.958619772 C145.272807,0.856171858 145.192149,0.739088527 145.120291,0.607369779 L144.788862,0.00146354164 L144.4589,0.607369779 C144.389975,0.73323436 144.307851,0.853244774 144.215461,0.958619772 C143.769646,1.47671351 143.099456,1.77527601 142.375006,1.77527601 C141.650555,1.77527601 140.978899,1.47671351 140.537483,0.960083314 C140.440694,0.848854149 140.357104,0.730307277 140.294044,0.607369779 L139.962616,0.00146354164 L139.632654,0.607369779 C139.569594,0.725916652 139.48747,0.844463524 139.390681,0.958619772 C138.947799,1.47671351 138.276142,1.77527601 137.550226,1.77527601 C136.824309,1.77527601 136.154119,1.47671351 135.708304,0.958619772 C135.615914,0.848854149 135.536723,0.731770818 135.466331,0.607369779 L135.136369,0.00146354164 L134.804941,0.607369779 C134.734549,0.736161443 134.652425,0.854708316 134.561502,0.958619772 C134.121552,1.47671351 133.449896,1.77527601 132.723979,1.77527601 C131.999529,1.77527601 131.329339,1.47671351 130.882057,0.958619772 C130.791134,0.853244774 130.70901,0.73323436 130.640085,0.607369779 L130.310123,0.00146354164 L129.978694,0.607369779 C129.912702,0.731770818 129.830578,0.851781233 129.736722,0.958619772 C129.293839,1.47671351 128.622183,1.77527601 127.899199,1.77527601 C127.174749,1.77527601 126.503093,1.47671351 126.057277,0.958619772 C125.964888,0.848854149 125.88423,0.731770818 125.813838,0.607369779 L125.48241,0.00146354164 L125.152447,0.605906238 C125.089388,0.728843735 125.007264,0.845927066 124.910475,0.958619772 C124.467593,1.47671351 123.795936,1.77527601 123.071486,1.77527601 C122.344103,1.77527601 121.673913,1.47671351 121.231031,0.958619772 C121.137175,0.848854149 121.055051,0.730307277 120.989058,0.605906238 L120.65763,0.00146354164 L120.329134,0.608833321 C120.258742,0.734697902 120.176618,0.853244774 120.084229,0.958619772 C119.641346,1.47671351 118.971156,1.77527601 118.24524,1.77527601 C118.120587,1.77527601 118.001801,1.75478642 117.881548,1.73868746 C117.806757,1.72844267 117.731965,1.72112496 117.661573,1.70356247 C117.557452,1.6801458 117.459196,1.64355726 117.360941,1.60696872 C117.303748,1.58647913 117.245088,1.57038018 117.190827,1.54549997 C117.074974,1.49281247 116.967919,1.42548955 116.863798,1.35523956 C116.833002,1.33474997 116.797806,1.31865101 116.768476,1.29669789 C116.635024,1.19717706 116.511838,1.08594789 116.404784,0.958619772 C116.312395,0.853244774 116.230271,0.734697902 116.161345,0.607369779 L115.831383,0 L115.498488,0.607369779 C115.428096,0.734697902 115.345972,0.854708316 115.253583,0.958619772 C114.813633,1.47671351 114.141977,1.77527601 113.417527,1.77527601 C112.693076,1.77527601 112.022886,1.47671351 111.577071,0.957156231 C111.486148,0.851781233 111.406957,0.734697902 111.335099,0.607369779 L111.006603,0.00146354164 L110.672241,0.608833321 C110.603316,0.731770818 110.522659,0.848854149 110.430269,0.958619772 C110.320282,1.08594789 110.197096,1.20010414 110.062178,1.29962497 C110.043114,1.31426039 110.021116,1.32304164 110.000585,1.33767706 C109.886198,1.4167083 109.765945,1.48988539 109.636893,1.54842705 C109.591432,1.56891663 109.543038,1.58208851 109.494643,1.59965101 C109.389055,1.64063017 109.282001,1.67868226 109.16908,1.70502601 C109.100155,1.72112496 109.028297,1.72697913 108.957905,1.73722392 C108.836185,1.75478642 108.714466,1.77527601 108.588347,1.77527601 C107.86243,1.77527601 107.190774,1.47671351 106.749358,0.958619772 C106.654036,0.847390608 106.574845,0.730307277 106.507386,0.607369779 L106.175957,0.00146354164 L105.847461,0.608833321 C105.775603,0.736161443 105.693479,0.856171858 105.604023,0.958619772 C105.158207,1.47671351 104.488017,1.77527601 103.763567,1.77527601 C103.036184,1.77527601 102.365994,1.47671351 101.923111,0.958619772 C101.829256,0.848854149 101.747132,0.731770818 101.682606,0.607369779 L101.34971,0.00146354164 L101.021215,0.608833321 C100.950823,0.731770818 100.870165,0.848854149 100.777776,0.958619772 C100.331961,1.47671351 99.6632372,1.77527601 98.9373205,1.77527601 C98.2114037,1.77527601 97.5397474,1.47671351 97.0968649,0.958619772 C97.003009,0.851781233 96.9208851,0.731770818 96.8548926,0.607369779 L96.5249305,0.00146354164 L96.1935018,0.605906238 C96.1260429,0.73323436 96.043919,0.853244774 95.9500631,0.958619772 C95.508647,1.47671351 94.8369907,1.77527601 94.111074,1.77527601 C93.3866237,1.77527601 92.7164339,1.47671351 92.2706184,0.958619772 C92.1767625,0.848854149 92.0946385,0.730307277 92.0286461,0.605906238 L91.698684,0.00146354164 L91.3672553,0.608833321 C91.2968634,0.731770818 91.2162059,0.848854149 91.1238165,0.958619772 C90.683867,1.47671351 90.0122107,1.77527601 89.2862939,1.77527601 C88.5603772,1.77527601 87.8916539,1.47671351 87.4443718,0.958619772 C87.3505159,0.851781233 87.268392,0.731770818 87.2023996,0.607369779 L86.8709709,0.00146354164 L86.5410088,0.608833321 C86.4691503,0.736161443 86.3870264,0.856171858 86.2990365,0.958619772 C85.853221,1.47671351 85.1830312,1.77527601 84.4571144,1.77527601 C83.7326642,1.77527601 83.0610079,1.47671351 82.6195918,0.958619772 C82.5272024,0.853244774 82.4450785,0.73323436 82.3761531,0.607369779 L82.0447244,0.00146354164 L81.7147622,0.608833321 C81.6458368,0.731770818 81.5651794,0.848854149 81.47279,0.958619772 C81.0299075,1.47671351 80.3582511,1.77527601 79.6323344,1.77527601 C78.9064176,1.77527601 78.2362278,1.47671351 77.7933453,0.958619772 C77.7009559,0.853244774 77.618832,0.734697902 77.54844,0.607369779 L77.2184779,0.00146354164 L76.8899822,0.607369779 C76.8210568,0.73323436 76.7389329,0.853244774 76.6465435,0.958619772 C76.2007279,1.47671351 75.5320046,1.77527601 74.8075544,1.77527601 C74.0816376,1.77527601 73.4114478,1.47671351 72.9656323,0.958619772 C72.8717764,0.848854149 72.7896524,0.730307277 72.72366,0.605906238 L72.3936979,0.00146354164 L72.0637357,0.605906238 C72.0036093,0.720062485 71.9214853,0.838609358 71.8188304,0.958619772 C71.3788809,1.47671351 70.7072246,1.77527601 69.9813078,1.77527601 C69.2568576,1.77527601 68.5852013,1.47671351 68.1393857,0.958619772 C68.0469963,0.848854149 67.9678054,0.731770818 67.8974135,0.607369779 L67.5674513,0 L67.2374892,0.608833321 C67.1685637,0.731770818 67.0835068,0.853244774 66.9940504,0.958619772 C66.5511679,1.47671351 65.8795116,1.77527601 65.1535948,1.77527601 C64.4291446,1.77527601 63.7589548,1.47671351 63.3131392,0.958619772 C63.2207498,0.853244774 63.1386259,0.73323436 63.071167,0.607369779 L62.7397383,0.00146354164 L62.4097762,0.607369779 C62.3437837,0.730307277 62.2631263,0.847390608 62.1692704,0.958619772 C61.7234549,1.47671351 61.0517986,1.77527601 60.3273483,1.77527601 C59.6014315,1.77527601 58.9297752,1.47671351 58.4868927,0.958619772 C58.3945033,0.851781233 58.3123794,0.731770818 58.2449204,0.607369779 L57.9134918,0.00146354164 L57.5849961,0.607369779 C57.5160707,0.734697902 57.4339468,0.854708316 57.3415574,0.958619772 C56.8986748,1.47671351 56.2270185,1.77527601 55.5011018,1.77527601 C54.7766515,1.77527601 54.1049952,1.47671351 53.6591797,0.958619772 C53.5682568,0.853244774 53.4875993,0.73323436 53.4186739,0.605906238 L53.0872453,0.00146354164 L52.7602161,0.608833321 C52.6898242,0.734697902 52.6077003,0.853244774 52.5153109,0.958619772 C52.0724283,1.47671351 51.400772,1.77527601 50.6763217,1.77527601 C49.9518715,1.77527601 49.2802152,1.47671351 48.8343996,0.958619772 C48.7405437,0.847390608 48.6598863,0.730307277 48.5938939,0.607369779 L48.2639317,0.00146354164 L47.9325031,0.608833321 C47.8606447,0.736161443 47.7785207,0.856171858 47.6890643,0.958619772 C47.2461818,1.47671351 46.575992,1.77527601 45.8500752,1.77527601 C45.1241585,1.77527601 44.4539687,1.47671351 44.0081531,0.957156231 C43.9157637,0.848854149 43.8351063,0.731770818 43.7676474,0.607369779 L43.4376852,0.00146354164 L43.1062566,0.608833321 C43.0358646,0.731770818 42.9552072,0.848854149 42.8628178,0.958619772 C42.4170023,1.47671351 41.7468125,1.77527601 41.0223622,1.77527601 C40.2964455,1.77527601 39.6247891,1.47671351 39.1833731,0.958619772 C39.0895172,0.851781233 39.0073933,0.731770818 38.9414008,0.607369779 L38.6099722,0.00146354164 L38.28001,0.607369779 C38.2125511,0.73323436 38.1304272,0.853244774 38.0380378,0.958619772 C37.5922222,1.47671351 36.9220324,1.77527601 36.1961157,1.77527601 C35.4716654,1.77527601 34.8000091,1.47671351 34.3600596,0.960083314 C34.2618042,0.848854149 34.1782138,0.730307277 34.1151543,0.607369779 L33.7837257,0.00146354164 L33.4537635,0.607369779 C33.3907041,0.725916652 33.3085802,0.844463524 33.2117913,0.958619772 C32.7689087,1.47671351 32.0972524,1.77527601 31.3713357,1.77527601 C30.6468854,1.77527601 29.9766956,1.47671351 29.5308801,0.958619772 C29.4326247,0.844463524 29.3505007,0.725916652 29.2874413,0.607369779 L28.9574791,0.00146354164 L28.6260505,0.607369779 C28.5571251,0.736161443 28.4750011,0.854708316 28.3840782,0.958619772 C27.9426622,1.47671351 27.2724724,1.77527601 26.5450891,1.77527601 C25.8191724,1.77527601 25.1504491,1.47671351 24.7046335,0.958619772 C24.6122441,0.853244774 24.5301202,0.73323436 24.4611948,0.607369779 L24.1326991,0.00146354164 L23.8012705,0.608833321 C23.7308785,0.731770818 23.6502211,0.848854149 23.5578317,0.958619772 C23.1178822,1.47671351 22.4462259,1.77527601 21.7203091,1.77527601 C20.9943924,1.77527601 20.3242025,1.47671351 19.878387,0.958619772 C19.7859976,0.848854149 19.7053402,0.731770818 19.6364148,0.607369779 L19.3049861,0.00439062491 L18.9750239,0.607369779 C18.9060985,0.73323436 18.8239746,0.853244774 18.7315852,0.958619772 C18.2857696,1.47671351 17.6170463,1.77527601 16.8925961,1.77527601 C16.1666793,1.77527601 15.495023,1.47671351 15.0521405,0.958619772 C14.9582846,0.848854149 14.8761607,0.730307277 14.8101682,0.607369779 L14.4787396,0.00146354164 L14.1487774,0.607369779 C14.0813185,0.731770818 14.0006611,0.851781233 13.9068052,0.958619772 C13.4639226,1.47671351 12.7922663,1.77527601 12.0663496,1.77527601 C11.3404328,1.77527601 10.6687765,1.47671351 10.225894,0.958619772 C10.134971,0.853244774 10.0528471,0.734697902 9.98245521,0.607369779 L9.65249305,0.00146354164 L9.32399739,0.608833321 C9.25653846,0.730307277 9.17294804,0.851781233 9.08202514,0.958619772 C8.6362096,1.47671351 7.96455329,1.77527601 7.24010303,1.77527601 C6.51418628,1.77527601 5.84546297,1.47671351 5.39964743,0.957156231 C5.30872453,0.851781233 5.22806711,0.734697902 5.15620868,0.607369779 L4.82624652,0.00146354164 L4.49775086,0.605906238 C4.43175843,0.728843735 4.34963452,0.847390608 4.25431211,0.958619772 C3.81142957,1.47671351 3.14123976,1.77527601 2.41385651,1.77527601 C1.69087276,1.77527601 1.01921645,1.47671351 0.573400909,0.958619772 C0.481011504,0.848854149 0.400354087,0.731770818 0.32996216,0.607369779 L0,0.00146354164 L0,1.95999146 L0.0982553987,2.03724996 C0.733249244,2.53631766 1.55742139,2.80999994 2.41385651,2.80999994 C3.27322463,2.80999994 4.09593028,2.53631766 4.72945762,2.0387135 L4.82624652,1.96260934 L4.92450192,2.03724996 C5.55949577,2.53631766 6.38220142,2.80999994 7.24010303,2.80999994 C8.09947115,2.80999994 8.9221768,2.53631766 9.55570415,2.0387135 L9.65249305,1.96260934 L9.74928195,2.03724996 C10.3857423,2.53631766 11.2084479,2.80999994 12.0663496,2.80999994 C12.9242512,2.80999994 13.7469568,2.53631766 14.3834172,2.03724996 L14.4802061,1.96260934 L14.576995,2.0387135 C15.2119888,2.53631766 16.033228,2.80999994 16.8925961,2.80999994 C17.7504977,2.80999994 18.5717369,2.53631766 19.2067307,2.03724996 L19.3049861,1.96260934 L19.401775,2.03724996 C20.0382353,2.53631766 20.8624075,2.80999994 21.7203091,2.80999994 C22.5796772,2.80999994 23.4009164,2.53631766 24.0344437,2.0387135 L24.1326991,1.96260934 L24.229488,2.03724996 C24.8644819,2.53631766 25.688654,2.80999994 26.5450891,2.80999994 C27.4029907,2.80999994 28.2256964,2.53631766 28.8606902,2.03724996 L28.9574791,1.96260934 L29.0557345,2.03724996 C29.6907284,2.53631766 30.5149005,2.80999994 31.3713357,2.80999994 C32.2292373,2.80999994 33.0519429,2.53631766 33.6869368,2.03724996 L33.7837257,1.96260934 L33.8819811,2.03724996 C34.5169749,2.53631766 35.3382141,2.80999994 36.1961157,2.80999994 C37.0540173,2.80999994 37.8767229,2.53631766 38.5131833,2.03724996 L38.6099722,1.96260934 L38.7067611,2.0387135 C39.3417549,2.53631766 40.1629941,2.80999994 41.0223622,2.80999994 C41.8802638,2.80999994 42.7029695,2.53631766 43.3394298,2.03724996 L43.4376852,1.96260934 L43.5344741,2.0387135 C44.169468,2.53631766 44.9907071,2.80999994 45.8500752,2.80999994 C46.7065103,2.80999994 47.5306825,2.53631766 48.1656763,2.03724996 L48.2639317,1.96260934 L48.3607206,2.03724996 C48.9957145,2.53631766 49.8184201,2.80999994 50.6763217,2.80999994 C51.5327569,2.80999994 52.356929,2.53631766 52.9919229,2.03724996 L53.0901783,1.96260934 L53.1869672,2.03724996 C53.821961,2.53631766 54.6432002,2.80999994 55.5011018,2.80999994 C56.3604699,2.80999994 57.1831755,2.53631766 57.8167029,2.0387135 L57.9134918,1.96260934 L58.0117472,2.03724996 C58.646741,2.53631766 59.4694467,2.80999994 60.3273483,2.80999994 C61.1867164,2.80999994 62.0079556,2.53631766 62.6414829,2.0387135 L62.7397383,1.96260934 L62.8365272,2.03724996 C63.4729876,2.53631766 64.2956932,2.80999994 65.1535948,2.80999994 C66.0114964,2.80999994 66.8342021,2.53631766 67.4691959,2.03724996 L67.5674513,1.96260934 L67.6642402,2.03724996 C68.3007006,2.53631766 69.1234062,2.80999994 69.9813078,2.80999994 C70.840676,2.80999994 71.6619151,2.53631766 72.2954425,2.0387135 L72.3936979,1.96260934 L72.4904868,2.03724996 C73.1254806,2.53631766 73.9496528,2.80999994 74.8075544,2.80999994 C75.6669225,2.80999994 76.4881616,2.53631766 77.121689,2.0387135 L77.2184779,1.96260934 L77.3167333,2.03724996 C77.9517271,2.53631766 78.7758993,2.80999994 79.6323344,2.80999994 C80.4917025,2.80999994 81.3144082,2.53631766 81.9479355,2.0387135 L82.0447244,1.96260934 L82.1429798,2.03724996 C82.7779736,2.53631766 83.5992128,2.80999994 84.4571144,2.80999994 C85.315016,2.80999994 86.1377217,2.53631766 86.774182,2.03724996 L86.8709709,1.96260934 L86.9677598,2.03724996 C87.6056867,2.53631766 88.4283923,2.80999994 89.2862939,2.80999994 C90.1441956,2.80999994 90.9654347,2.53631766 91.6018951,2.03724996 L91.698684,1.96260934 L91.7954729,2.03724996 C92.4319332,2.53631766 93.2531723,2.80999994 94.111074,2.80999994 C94.9689756,2.80999994 95.7916812,2.53631766 96.4266751,2.03724996 L96.5249305,1.96260934 L96.6217194,2.0387135 C97.2552467,2.53631766 98.0779524,2.80999994 98.9373205,2.80999994 C99.7937556,2.80999994 100.617928,2.53631766 101.252922,2.03724996 L101.34971,1.96260934 L101.447966,2.0387135 C102.081493,2.53631766 102.902732,2.80999994 103.763567,2.80999994 C104.620002,2.80999994 105.444174,2.53631766 106.079168,2.03724996 L106.175957,1.96260934 L106.274212,2.03724996 C106.909206,2.53631766 107.730445,2.80999994 108.588347,2.80999994 C108.642607,2.80999994 108.695401,2.79975515 108.749662,2.79829161 C108.846451,2.80414578 108.940307,2.78511973 109.035629,2.77487494 C109.11482,2.76609369 109.194011,2.76170307 109.271735,2.74706765 C109.40812,2.72365099 109.538638,2.68706245 109.669156,2.6504739 C109.732216,2.6329114 109.796742,2.61973953 109.858335,2.59924995 C110.009384,2.54802599 110.151634,2.48216662 110.293885,2.41338016 C110.330547,2.39435412 110.370143,2.38118224 110.405339,2.3621562 C110.582785,2.267026 110.752899,2.16018746 110.909814,2.03724996 L111.005137,1.96407288 L111.101925,2.0387135 C111.735453,2.53631766 112.556692,2.80999994 113.41606,2.80999994 C114.276895,2.80999994 115.0996,2.53631766 115.736061,2.03724996 L115.829917,1.96407288 L115.925239,2.03724996 C116.080688,2.15872391 116.247869,2.26556245 116.423848,2.36069266 C116.475176,2.38849995 116.530903,2.40752599 116.583697,2.4324062 C116.711282,2.49241141 116.837401,2.55095307 116.970852,2.59778641 C117.039778,2.62120307 117.113103,2.63583849 117.184961,2.65632807 C117.308147,2.68998953 117.431333,2.72511453 117.557452,2.74706765 C117.639576,2.76170307 117.7217,2.76609369 117.803824,2.77487494 C117.897679,2.78511973 117.990069,2.80414578 118.085391,2.80707286 C119.104608,2.80999994 119.925847,2.53631766 120.559374,2.0387135 L120.65763,1.96260934 L120.754418,2.03724996 C121.389412,2.53631766 122.213584,2.80999994 123.071486,2.80999994 C123.929388,2.80999994 124.752093,2.53631766 125.385621,2.0387135 L125.48241,1.96260934 L125.580665,2.03724996 C126.217125,2.53631766 127.041298,2.80999994 127.899199,2.80999994 C128.757101,2.80999994 129.579806,2.53631766 130.213334,2.0387135 L130.310123,1.96260934 L130.408378,2.03724996 C131.043372,2.53631766 131.866078,2.80999994 132.723979,2.80999994 C133.581881,2.80999994 134.40312,2.53631766 135.03958,2.03724996 L135.136369,1.96260934 L135.233158,2.03724996 C135.869618,2.53631766 136.692324,2.80999994 137.550226,2.80999994 C138.408127,2.80999994 139.229366,2.53631766 139.86436,2.03724996 L139.962616,1.96260934 L140.059405,2.03724996 C140.695865,2.53631766 141.517104,2.80999994 142.375006,2.80999994 C143.231441,2.80999994 144.055613,2.53631766 144.690607,2.03724996 L144.788862,1.96260934 L144.885651,2.0387135 C145.519178,2.53631766 146.340418,2.80999994 147.201252,2.80999994 C148.057687,2.80999994 148.881859,2.53631766 149.51832,2.03724996 L149.616575,1.96260934 L149.713364,2.03724996 C150.348358,2.53631766 151.171064,2.80999994 152.027499,2.80999994 C152.8854,2.80999994 153.709573,2.53631766 154.344566,2.03724996 L154.441355,1.96260934 L154.539611,2.03724996 C155.174605,2.53631766 155.995844,2.80999994 156.853745,2.80999994 C157.711647,2.80999994 158.534353,2.53631766 159.170813,2.03724996 L159.267602,1.96260934 L159.365857,2.03724996 C160.000851,2.53631766 160.82209,2.80999994 161.679992,2.80999994 C162.537893,2.80999994 163.360599,2.53631766 163.997059,2.03724996 L164.093848,1.96260934 L164.093848,0.00146354164 Z" id="waves"></path>
            </g>
        </g>
    </g>
</svg>